<?xml version="1.0" encoding="utf-8"?>
<!-- Generator: Adobe Illustrator 22.0.1, SVG Export Plug-In . SVG Version: 6.00 Build 0)  -->
<svg version="1.1" id="Layer_1" xmlns="http://www.w3.org/2000/svg" xmlns:xlink="http://www.w3.org/1999/xlink" x="0px" y="0px"
	 viewBox="0 0 407.7 116.5" style="enable-background:new 0 0 407.7 116.5;" xml:space="preserve">
<style type="text/css">
	.st0{fill:#999999;}
</style>
<g>
	<g>
		<rect x="106.8" y="0.7" class="st0" width="17.6" height="113.5"/>
	</g>
	<g>
		<path class="st0" d="M188.5,79.2c0,17.6-14.4,19-18.8,19c-11,0-12.6-10.3-12.6-16.5V37.8h-17.7v43.8c-0.1,10.9,3,19.9,9,25.9
			c5.3,5.3,12.7,8.2,21.3,8.2c6.1,0,13.2-1.9,18.8-6.1v4.6h17.7V37.8h-17.7V79.2z"/>
	</g>
	<g>
		<polygon class="st0" points="244.4,12.1 226.7,12.1 226.7,37.8 214.3,37.8 214.3,54.5 226.7,54.5 226.7,114.2 244.4,114.2 
			244.4,54.5 258.9,54.5 258.9,37.8 244.4,37.8 		"/>
	</g>
	<g>
		<path class="st0" d="M316.1,92.5c-4,3.6-9.3,5.6-15.1,5.6c-12.8,0-22.2-9.4-22.2-22.3s9.1-21.9,22.2-21.9c5.7,0,11.1,1.9,15.2,5.5
			l2.8,2.4l12.4-12.4l-3.1-2.8c-7.3-6.6-17-10.3-27.3-10.3c-23,0-39.7,16.6-39.7,39.4c0,22.7,17.1,39.9,39.7,39.9
			c10.5,0,20.3-3.7,27.5-10.4l3-2.8L318.9,90L316.1,92.5z"/>
	</g>
	<g>
		<path class="st0" d="M397.8,44.5c-5.3-5.3-12.7-8.2-21.3-8.2c-6.1,0-13.2,1.9-18.8,6.1V0.7H340v113.5h17.7V72.8
			c0-17.6,14.4-19,18.8-19c11,0,12.6,10.3,12.6,16.5v43.9h17.7V70.4C406.9,59.5,403.8,50.5,397.8,44.5z"/>
	</g>
	<circle class="st0" cx="300.4" cy="76" r="13.3"/>
	<g>
		<path class="st0" d="M80.6,87c-7,7.2-16.5,11.1-26.5,11.1c-20.5,0-35.4-16.1-35.4-38.2c0-22.2,14.9-38.3,35.4-38.3
			c9.9,0,19.3,3.9,26.4,11l2.8,2.8l12.3-12.3l-2.7-2.8C82.7,9.8,68.9,4.1,54.1,4.1C23.9,4.1,1.2,28.1,1.2,60
			c0,31.8,22.8,55.7,52.9,55.7c14.9,0,28.7-5.8,38.9-16.3l2.7-2.8L83.5,84.1L80.6,87z"/>
	</g>
</g>
</svg>
