<?xml version="1.0" encoding="utf-8"?>
<!-- Generator: Adobe Illustrator 24.0.1, SVG Export Plug-In . SVG Version: 6.00 Build 0)  -->
<svg version="1.1" id="icons" xmlns="http://www.w3.org/2000/svg" xmlns:xlink="http://www.w3.org/1999/xlink" x="0px" y="0px"
	 viewBox="0 0 43.1 47.7" style="enable-background:new 0 0 43.1 47.7;" xml:space="preserve">
<style type="text/css">
	.st0{fill:#FF4E00;}
</style>
<g>
	<path class="st0" d="M42,20.4l-0.2-0.1c-0.2-0.2-0.4-0.3-0.6-0.4l1.1-1.3c0.5-0.6,0.8-1.4,0.7-2.2c-0.1-0.8-0.5-1.6-1.1-2.1
		l-0.2-0.1c-0.2-0.2-0.4-0.3-0.7-0.4l1-0.9c1.3-1.2,1.3-3.2,0-4.6L42,8c-0.6-0.6-1.4-1-2.2-1c-0.5,0-0.9,0.1-1.3,0.2V4
		c0-2.2-1.8-4-4-4h-15c-1.1,0-2.1,0.4-2.8,1.2c-0.8,0.8-1.2,1.8-1.2,2.8l0,8.9c-0.8,0.2-1.5,0.8-1.7,1.6c-0.6,1.8-1,3.2-1.3,4.3
		c-0.6,2.1-1,3.2-1.6,4.9c-0.7,1.9-0.8,4.1-0.8,5.9c0,0.9,0,2-0.2,2.3c-0.1,0.2-0.8,1.3-1.5,2.5l-1.8-1.8L0,39l8.7,8.7l1.4-1.4
		L2.8,39l3.6-3.6l12.3,12.3l0.2-0.2l0.2,0.2c0,0,1.6-1.6,2.7-2.7c7.5,0.4,10.9-4.4,12.1-6c0,0,0,0,0,0h0.5c2.2,0,4-1.8,4-4v-1
		c0.1,0,0.2,0,0.3,0c0.6,0,1.2-0.2,1.6-0.7l2-2.3c0.5-0.6,0.8-1.4,0.7-2.2c-0.1-0.8-0.4-1.5-1.1-2.1l-0.2-0.1
		c-0.2-0.2-0.4-0.3-0.7-0.4l1.3-1.5C43.4,23.5,43.3,21.5,42,20.4z M37.7,25.3l-0.2-0.1c-0.5-0.4-0.6-0.9-0.6-1l2-2.4
		c0.4-0.4,1.1-0.5,1.5-0.1l0.2,0.1c0.5,0.4,0.5,1.1,0.2,1.5l-2,2.3C38.7,25.8,38.2,25.7,37.7,25.3z M39,15.7
		c0.2-0.2,0.5-0.4,0.8-0.4c0.3,0,0.5,0.1,0.7,0.3l0.2,0.1c0.2,0.2,0.4,0.5,0.4,0.8c0,0.3-0.1,0.6-0.2,0.8l-2,2.3
		c-0.1,0-0.6,0-1.1-0.4L37.5,19c-0.5-0.4-0.6-0.9-0.6-1L39,15.7z M39.6,9C39.6,9,39.6,9,39.6,9c0.4,0,0.7,0.2,1,0.4l0.2,0.2
		c0.5,0.5,0.5,1.3,0,1.7l-2.4,2.2c-0.1,0-0.7-0.1-1.2-0.6L37,12.8c-0.5-0.6-0.6-1.1-0.6-1.2l2.4-2.3C39,9.1,39.3,9,39.6,9z M18,2.6
		C18.4,2.2,18.9,2,19.4,2h15c1.1,0,2,0.9,2,2v4.8L35,10.1c-0.5,0.5-0.7,1.3-0.6,2.1c0.1,0.7,0.5,1.4,1.1,1.9l0.2,0.2
		c0.3,0.4,0.7,0.6,1.1,0.8l-1.4,1.6c-0.9,1-0.5,2.7,0.8,3.8l0.2,0.1c0.2,0.2,0.4,0.3,0.5,0.4l-1.5,1.8c-0.5,0.5-0.6,1.3-0.3,2.1
		c0.2,0.6,0.6,1.2,1.2,1.7l0.2,0.1c0.2,0.2,0.4,0.3,0.7,0.5l-1.7,1.9C35,29.7,34.9,30.3,35,31H20.9c-0.5-2.3-1.4-4.2-2.3-5.4
		c0.7-2.3,1-4,1.3-6.9c0.2-1.6-0.3-3.2-1.5-4.8c-0.3-0.4-0.6-0.6-1-0.8l0-9C17.4,3.5,17.6,3,18,2.6z M21.5,43L21,43l-0.3,0.3
		c-0.5,0.5-1.2,1.2-1.8,1.8l-9.2-9.2c1.2-1.9,1.8-2.9,1.9-3.1c0.3-0.7,0.3-1.7,0.4-3.1c0-1.6,0.1-3.7,0.7-5.2c0.7-1.7,1-3,1.7-5
		c0.3-1.1,0.7-2.5,1.3-4.3c0.1-0.2,0.3-0.3,0.5-0.3c0.2,0,0.6,0,0.7,0.2c0.8,1.2,1.2,2.4,1.1,3.5c-0.3,2.9-0.6,4.6-1.4,6.9l-0.2,0.5
		l0.3,0.4c1.5,1.9,3.9,7.2,1.8,13.3l1.9,0.7c0.2-0.4,0.3-0.9,0.4-1.3h10.6C29.9,40.8,26.9,43.4,21.5,43z M36.4,35c0,1.1-0.9,2-2,2
		H21.2c0.2-1.4,0.2-2.7,0.1-4h15l0.1,0.1c0,0,0,0,0,0V35z M40.7,29.7l-2,2.3c-0.1,0-0.6,0-1.1-0.4l-0.2-0.1
		c-0.5-0.4-0.6-0.9-0.6-0.9l2-2.3c0.2-0.2,0.4-0.3,0.7-0.3c0.3,0,0.6,0.1,0.8,0.3l0.2,0.1c0.2,0.2,0.4,0.5,0.4,0.7
		C41,29.3,40.9,29.5,40.7,29.7z"/>
	<rect x="25.4" y="34" class="st0" width="3" height="2"/>
	<rect x="25.4" y="3" class="st0" width="3" height="2"/>
	<rect x="6.4" y="38.6" transform="matrix(0.7071 -0.7071 0.7071 0.7071 -26.1127 16.9583)" class="st0" width="2" height="2.8"/>
</g>
</svg>
