<?xml version="1.0" encoding="utf-8"?>
<!-- Generator: Adobe Illustrator 24.0.1, SVG Export Plug-In . SVG Version: 6.00 Build 0)  -->
<svg version="1.1" id="icons" xmlns="http://www.w3.org/2000/svg" xmlns:xlink="http://www.w3.org/1999/xlink" x="0px" y="0px"
	 viewBox="0 0 34.4 47.7" style="enable-background:new 0 0 34.4 47.7;" xml:space="preserve">
<style type="text/css">
	.st0{fill:#FF4E00;}
</style>
<g>
	<path class="st0" d="M8,1.4c0.1-0.4-0.1-0.8-0.4-1C7.3,0.2,6.9,0.1,6.6,0.3C1,3.1,0.1,7.5,0,9.2c-0.1,2.4,0.7,3.8,1.4,4.6
		c0.3,0.3,0.6,0.6,1,0.8l-1,10c0,5.3,0.8,18.4,1.3,20.2c0.4,1.3,1.5,2.3,2.8,2.3c1.2,0,2.4-0.9,2.8-2.3c0.5-1.7,1.2-15.1,1.2-20.3
		l-1-10c1.1-0.8,1.9-2.1,2-4.2c0.1-1.7-0.6-3.1-1.3-4.3C8.3,4.6,7.6,3.3,8,1.4z M5.9,3C6,4.6,6.7,5.9,7.3,7c0.6,1.1,1.1,2.1,1.1,3.3
		c-0.2,3.2-2.4,3.4-3.3,3.3c-0.9-0.1-1.6-0.4-2.2-1.1c-0.7-0.8-1-1.9-0.9-3.2C2.1,8.1,2.6,5.3,5.9,3z M5.4,45.1
		c-0.3,0-0.7-0.4-0.8-0.8c-0.4-1.3-1.1-12.6-1.2-18.6h4C7.3,32,6.6,43.1,6.3,44.3C6.1,44.8,5.8,45.1,5.4,45.1z M7.3,23.7H3.5
		l0.8-8.2c0.2,0,0.4,0.1,0.7,0.1c0.1,0,0.2,0,0.4,0c0.4,0,0.8,0,1.1-0.1L7.3,23.7z"/>
	<path class="st0" d="M12.4,12.5v32.2c0,1.7,1.6,3,3.7,3h2.7c2.1,0,3.7-1.3,3.7-3V12.5L17.4,0L12.4,12.5z M20.4,40.7h-6V15.3l1,0.5
		l2-1l2,1l1-0.5V40.7z M18.7,45.7h-2.7c-1,0-1.7-0.5-1.7-1v-2h6v2C20.4,45.2,19.7,45.7,18.7,45.7z M20.4,13.1l-1,0.5l-2-1l-2,1
		l-1-0.5v-0.2l3-7.5l3,7.5V13.1z"/>
	<path class="st0" d="M25.4,1.7v4v2v3v2v3v2v3v2v3v2v3v2v3v2v3v2v4h9v-45H25.4z M32.4,44.7h-5v-2h3v-2h-3v-3h3v-2h-3v-3h3v-2h-3v-3
		h3v-2h-3v-3h3v-2h-3v-3h3v-2h-3v-3h3v-2h-3v-3h3v-2h-3v-2h5V44.7z"/>
</g>
</svg>
