<?xml version="1.0" encoding="utf-8"?>
<!-- Generator: Adobe Illustrator 24.0.1, SVG Export Plug-In . SVG Version: 6.00 Build 0)  -->
<svg version="1.1" id="icons" xmlns="http://www.w3.org/2000/svg" xmlns:xlink="http://www.w3.org/1999/xlink" x="0px" y="0px"
	 viewBox="0 0 48 38.5" style="enable-background:new 0 0 48 38.5;" xml:space="preserve">
<style type="text/css">
	.st0{fill:#FF4E00;}
</style>
<g>
	<path class="st0" d="M43.8,25c2.7-2.7,4.2-6.2,4.2-9.7C48,6.8,39.7,0,29.5,0C19.4,0,11.1,6.8,11.1,15.3c0,8.4,8.3,15.3,18.5,15.3
		c1.9,0,3.9-0.3,5.7-0.8c1.4,1.2,3.9,2.7,7.8,3.7c0.1,0,0.3,0.1,0.4,0.1c0.5,0,1-0.2,1.4-0.6c0.4-0.5,0.6-1.2,0.3-1.9
		C44.4,29.1,43.9,27,43.8,25z M41.8,24.6c0.1,2.3,0.6,4.7,1.4,6.8c-3.7-1-5.8-2.4-7-3.5l-0.4-0.4l-0.6,0.2c-1.9,0.6-3.8,0.8-5.7,0.8
		c-9.1,0-16.5-5.9-16.5-13.3S20.5,2,29.5,2C38.6,2,46,7.9,46,15.3c0,3.1-1.4,6.2-3.9,8.6l-0.3,0.3L41.8,24.6z"/>
	<path class="st0" d="M15.6,10.3v2c7.5,0,13.6,4.9,13.6,10.9c0,1-0.2,2-0.5,3l1.9,0.7c0.4-1.2,0.6-2.4,0.6-3.7
		C31.1,16.1,24.1,10.3,15.6,10.3z"/>
	<path class="st0" d="M10.9,33.3l-0.6-0.2l-0.4,0.4c-0.9,0.9-2.6,2-5.4,2.8c0.6-1.7,1-3.6,1.1-5.4l0-0.5l-0.3-0.3
		c-2.1-2-3.2-4.4-3.2-7c0-4.4,3.3-8.3,8.3-10l-0.6-1.9C3.8,13.2,0,17.9,0,23.2c0,3,1.2,5.8,3.5,8.1c-0.1,1.6-0.5,3.4-1.1,4.9
		c-0.2,0.6-0.1,1.3,0.3,1.7c0.3,0.4,0.8,0.6,1.3,0.6c0.1,0,0.3,0,0.4,0c3.2-0.8,5.3-2,6.5-3.1c5.1,1.4,10.7,0.4,14.7-2.4l-1.1-1.6
		C20.8,33.9,15.5,34.7,10.9,33.3z"/>
</g>
</svg>
