<?xml version="1.0" encoding="utf-8"?>
<!-- Generator: Adobe Illustrator 24.0.1, SVG Export Plug-In . SVG Version: 6.00 Build 0)  -->
<svg version="1.1" id="icons" xmlns="http://www.w3.org/2000/svg" xmlns:xlink="http://www.w3.org/1999/xlink" x="0px" y="0px"
	 viewBox="0 0 33.5 33.5" style="enable-background:new 0 0 33.5 33.5;" xml:space="preserve">
<style type="text/css">
	.st0{fill:#FF4E00;}
</style>
<g>
	<path class="st0" d="M0,0v33.5h33.5V0H0z M31.5,2v2.5H2V2H31.5z M2,31.5v-25h29.5v25H2z"/>
	<rect x="3.3" y="2.3" class="st0" width="1.5" height="2"/>
	<rect x="6.3" y="2.3" class="st0" width="1.5" height="2"/>
	<path class="st0" d="M3.8,21.5h26V8.3h-26V21.5z M5.8,10.3h22v9.3h-22V10.3z"/>
	<polygon class="st0" points="3.8,31 5.8,31 5.8,25.3 14.3,25.3 14.3,31 16.3,31 16.3,23.3 3.8,23.3 	"/>
	<polygon class="st0" points="17.3,31 19.3,31 19.3,25.3 27.8,25.3 27.8,31 29.8,31 29.8,23.3 17.3,23.3 	"/>
</g>
</svg>
