<svg xmlns="http://www.w3.org/2000/svg" viewBox="2549.5 2522 306.5 22">
  <defs>
    <style>
      .cls-1 {
        fill: #fff;
        stroke: rgba(0,0,0,0);
      }

      .cls-2 {
        fill: none;
      }
    </style>
  </defs>
  <g id="Group_40" data-name="Group 40" transform="translate(2404)">
    <path id="Path_30" data-name="Path 30" class="cls-1" d="M2.174,9.438V13h-1V4.434h2.35a3.7,3.7,0,0,1,2.329.6,2.188,2.188,0,0,1,.753,1.816,2.275,2.275,0,0,1-1.723,2.3L7.213,13H6.035L3.961,9.438Zm0-.855H3.539a2.358,2.358,0,0,0,1.547-.419,1.559,1.559,0,0,0,.492-1.257,1.43,1.43,0,0,0-.5-1.225,2.714,2.714,0,0,0-1.608-.375H2.174ZM13.371,13H8.6V4.434h4.775v.885H9.592v2.76h3.551v.879H9.592v3.152h3.779ZM20.7,6.93a2.4,2.4,0,0,1-.888,2,4.021,4.021,0,0,1-2.54.7H16.266V13h-1V4.434H17.49Q20.7,4.434,20.7,6.93ZM16.266,8.775h.9a3.332,3.332,0,0,0,1.916-.428,1.576,1.576,0,0,0,.592-1.371,1.478,1.478,0,0,0-.557-1.266,2.908,2.908,0,0,0-1.734-.416H16.266Zm13.664-.07a4.716,4.716,0,0,1-1.04,3.234A3.656,3.656,0,0,1,26,13.117a3.7,3.7,0,0,1-2.921-1.157,4.754,4.754,0,0,1-1.028-3.267A4.7,4.7,0,0,1,23.08,5.45,3.729,3.729,0,0,1,26.01,4.3a3.649,3.649,0,0,1,2.883,1.172A4.711,4.711,0,0,1,29.93,8.705Zm-6.826,0a4.066,4.066,0,0,0,.741,2.64,2.63,2.63,0,0,0,2.153.9,2.6,2.6,0,0,0,2.15-.9,4.122,4.122,0,0,0,.727-2.643,4.089,4.089,0,0,0-.724-2.622,2.593,2.593,0,0,0-2.142-.894,2.644,2.644,0,0,0-2.165.9A4.024,4.024,0,0,0,23.1,8.705Zm9.732.732V13h-1V4.434h2.35a3.7,3.7,0,0,1,2.329.6,2.188,2.188,0,0,1,.753,1.816,2.275,2.275,0,0,1-1.723,2.3L37.875,13H36.7L34.623,9.438Zm0-.855H34.2a2.358,2.358,0,0,0,1.547-.419,1.559,1.559,0,0,0,.492-1.257,1.43,1.43,0,0,0-.5-1.225,2.714,2.714,0,0,0-1.608-.375H32.836ZM41.895,13h-1V5.318H38.186V4.434h6.422v.885H41.895Z" transform="translate(144.822 2524.701)"/>
    <rect id="Rectangle_105" data-name="Rectangle 105" class="cls-2" width="306" height="22" transform="translate(146 2522)"/>
  </g>
</svg>
