<svg xmlns="http://www.w3.org/2000/svg" viewBox="2549.35 2522 306.65 22">
  <defs>
    <style>
      .cls-1 {
        fill: #fff;
        stroke: rgba(0,0,0,0);
      }

      .cls-2 {
        fill: none;
      }
    </style>
  </defs>
  <g id="Group_40" data-name="Group 40" transform="translate(2404)">
    <path id="Path_27" data-name="Path 27" class="cls-1" d="M8.654,13H7.67L5.941,7.264q-.123-.381-.275-.961a5.6,5.6,0,0,1-.158-.7A13.343,13.343,0,0,1,5.1,7.3L3.422,13H2.438L.158,4.434H1.213L2.566,9.725a19.678,19.678,0,0,1,.41,2.016,14.557,14.557,0,0,1,.469-2.1L4.98,4.434H6.035L7.646,9.689a15.978,15.978,0,0,1,.475,2.051,17.568,17.568,0,0,1,.422-2.027L9.891,4.434h1.055Zm10.137,0h-1V8.969H13.283V13h-1V4.434h1V8.078h4.512V4.434h1Zm2.35,0V4.434h1V13Zm5.982,0h-1V5.318H23.414V4.434h6.422v.885H27.123ZM35.9,13H31.125V4.434H35.9v.885H32.121v2.76h3.551v.879H32.121v3.152H35.9Zm7.33-6.07a2.4,2.4,0,0,1-.888,2,4.021,4.021,0,0,1-2.54.7H38.795V13h-1V4.434H40.02Q43.23,4.434,43.23,6.93ZM38.795,8.775h.9a3.332,3.332,0,0,0,1.916-.428A1.576,1.576,0,0,0,42.2,6.977a1.478,1.478,0,0,0-.557-1.266,2.908,2.908,0,0,0-1.734-.416H38.795ZM49.811,13l-1.066-2.725H45.311L44.256,13H43.248l3.387-8.6h.838L50.842,13ZM48.434,9.379l-1-2.654q-.193-.5-.4-1.236a11.1,11.1,0,0,1-.369,1.236L45.662,9.379ZM57.451,6.93a2.4,2.4,0,0,1-.888,2,4.021,4.021,0,0,1-2.54.7H53.016V13h-1V4.434H54.24Q57.451,4.434,57.451,6.93ZM53.016,8.775h.9a3.332,3.332,0,0,0,1.916-.428,1.576,1.576,0,0,0,.592-1.371,1.478,1.478,0,0,0-.557-1.266,2.908,2.908,0,0,0-1.734-.416H53.016ZM64.02,13H59.244V4.434H64.02v.885H60.24v2.76h3.551v.879H60.24v3.152H64.02Zm2.895-3.562V13h-1V4.434h2.35a3.7,3.7,0,0,1,2.329.6,2.188,2.188,0,0,1,.753,1.816,2.275,2.275,0,0,1-1.723,2.3L71.953,13H70.775L68.7,9.438Zm0-.855h1.365a2.358,2.358,0,0,0,1.547-.419,1.559,1.559,0,0,0,.492-1.257,1.43,1.43,0,0,0-.5-1.225,2.714,2.714,0,0,0-1.608-.375H66.914Z" transform="translate(145.842 2524.602)"/>
    <rect id="Rectangle_105" data-name="Rectangle 105" class="cls-2" width="306" height="22" transform="translate(146 2522)"/>
  </g>
</svg>
