<?xml version="1.0" encoding="UTF-8"?>
<svg width="215px" height="228px" viewBox="0 0 215 228" version="1.1" xmlns="http://www.w3.org/2000/svg">
    <!-- Generator: Sketch 49.2 (51160) - http://www.bohemiancoding.com/sketch -->
    <title>marco_behler3 (3)@2x</title>
    <desc>Created with Sketch.</desc>
    <defs></defs>
    <g id="Page-1" stroke="none" stroke-width="1" fill="none" fill-rule="evenodd">
        <g id="marco_behler3-(3)" fill="#000000" fill-rule="nonzero">
            <g id="Layer_2">
                <g id="Group">
                    <polygon id="Shape" points="38.7 227.7 0.9 191.4 0.9 98.3 38.7 60.8"></polygon>
                    <polygon id="Shape" points="79.9 198.4 42.1 162.2 42.1 69 79.9 31.6"></polygon>
                    <polygon id="Shape" points="122.2 169.2 84.4 131.7 84.4 38.5 122.2 1.1"></polygon>
                    <polygon id="Shape" points="142.5 35.7 124.8 35.7 124.8 0.5 178.2 0.5"></polygon>
                    <polygon id="Shape" points="179.4 56.3 125.4 56.3 160.7 21 214 21"></polygon>
                    <polygon id="Shape" points="152.7 141.7 125.4 141.7 125.4 115 214 26.6 214.1 81.2"></polygon>
                </g>
            </g>
            <g id="Layer_3_copy" transform="translate(92.000000, 180.000000)">
                <g id="Group" transform="translate(1.000000, 0.000000)">
                    <polygon id="Shape" points="0 20.5 2.8 1 3.1 1 11 17 18.8 1 19.1 1 21.9 20.5 20 20.5 18.1 6.6 11.2 20.5 10.7 20.5 3.7 6.5 1.8 20.5"></polygon>
                    <path d="M32.4,1 L41.5,20.5 L39.4,20.5 L36.3,14.1 L27.9,14.1 L24.9,20.5 L22.7,20.5 L31.9,1 L32.4,1 Z M32.1,5.1 L28.8,12.2 L35.5,12.2 L32.1,5.1 Z" id="Shape"></path>
                    <path d="M42.4,1 L46.3,1 C48.5,1 49.9,1.1 50.7,1.3 C51.9,1.6 52.8,2.1 53.5,3 C54.2,3.9 54.6,4.9 54.6,6.2 C54.6,7.3 54.4,8.2 53.9,9 C53.4,9.8 52.7,10.4 51.8,10.8 C50.9,11.2 49.6,11.4 48,11.4 L55,20.5 L52.6,20.5 L45.6,11.4 L44.5,11.4 L44.5,20.5 L42.6,20.5 L42.6,1 L42.4,1 Z M44.3,2.9 L44.3,9.5 L47.7,9.5 C49,9.5 50,9.4 50.6,9.1 C51.2,8.9 51.7,8.5 52.1,7.9 C52.4,7.4 52.6,6.7 52.6,6.1 C52.6,5.4 52.4,4.9 52.1,4.3 C51.7,3.8 51.3,3.4 50.7,3.2 C50.1,3 49.2,2.9 47.8,2.9 L44.3,2.9 Z" id="Shape"></path>
                    <path d="M74.4,4.6 L72.9,5.8 C72.1,4.7 71,3.9 69.8,3.3 C68.6,2.7 67.3,2.4 65.9,2.4 C64.3,2.4 62.9,2.8 61.6,3.5 C60.3,4.2 59.2,5.2 58.5,6.5 C57.8,7.8 57.4,9.2 57.4,10.7 C57.4,13.1 58.2,15.1 59.8,16.7 C61.4,18.3 63.5,19.1 66,19.1 C68.7,19.1 71,18 72.9,15.9 L74.4,17.1 C73.4,18.3 72.2,19.3 70.8,20 C69.3,20.7 67.7,21 65.9,21 C62.5,21 59.8,19.9 57.8,17.6 C56.1,15.7 55.3,13.4 55.3,10.7 C55.3,7.8 56.3,5.4 58.3,3.5 C60.3,1.6 62.8,0.6 65.8,0.6 C67.6,0.6 69.3,1 70.7,1.7 C72.3,2.3 73.5,3.3 74.4,4.6 Z" id="Shape"></path>
                    <path d="M85.1,0.5 C88.1,0.5 90.5,1.5 92.5,3.5 C94.5,5.5 95.5,7.9 95.5,10.8 C95.5,13.7 94.5,16.1 92.5,18.1 C90.5,20.1 88.1,21.1 85.2,21.1 C82.3,21.1 79.9,20.1 77.9,18.1 C75.9,16.1 74.9,13.7 74.9,10.9 C74.9,9 75.4,7.3 76.3,5.7 C77.2,4.1 78.4,2.8 80,1.9 C81.5,0.9 83.2,0.5 85.1,0.5 Z M85.1,2.4 C83.7,2.4 82.3,2.8 81,3.5 C79.7,4.3 78.7,5.3 78,6.5 C77.3,7.8 76.9,9.2 76.9,10.8 C76.9,13.1 77.7,15.1 79.3,16.7 C80.9,18.3 82.8,19.1 85.1,19.1 C86.6,19.1 88,18.7 89.3,18 C90.6,17.3 91.6,16.3 92.3,15 C93,13.7 93.4,12.3 93.4,10.8 C93.4,9.3 93,7.9 92.3,6.6 C91.6,5.3 90.6,4.3 89.3,3.6 C88,2.7 86.6,2.4 85.1,2.4 Z" id="Shape"></path>
                </g>
                <g id="Group" transform="translate(0.000000, 26.000000)">
                    <path d="M0.5,0.7 L4.3,0.7 C5.8,0.7 7,0.9 7.9,1.2 C8.7,1.6 9.4,2.1 9.9,2.9 C10.4,3.7 10.6,4.5 10.6,5.4 C10.6,6.3 10.4,7.1 10,7.8 C9.6,8.5 9,9.1 8.1,9.5 C9.1,9.8 9.9,10.2 10.4,10.7 C10.9,11.2 11.4,11.7 11.7,12.4 C12,13.1 12.2,13.8 12.2,14.5 C12.2,16.1 11.6,17.4 10.5,18.5 C9.4,19.6 7.8,20.1 5.9,20.1 L0.5,20.1 L0.5,0.7 Z M2.4,2.6 L2.4,8.8 L3.5,8.8 C4.9,8.8 5.9,8.7 6.5,8.4 C7.1,8.1 7.6,7.8 8,7.2 C8.4,6.7 8.6,6.1 8.6,5.4 C8.6,4.5 8.3,3.8 7.7,3.3 C7.1,2.8 6.1,2.5 4.7,2.5 L2.4,2.5 L2.4,2.6 Z M2.4,10.8 L2.4,18.3 L4.8,18.3 C6.2,18.3 7.3,18.2 7.9,17.9 C8.6,17.6 9.1,17.2 9.5,16.6 C9.9,16 10.1,15.4 10.1,14.7 C10.1,13.8 9.8,13.1 9.3,12.4 C8.7,11.8 8,11.3 7,11.1 C6.3,10.9 5.2,10.9 3.5,10.9 L2.4,10.9 L2.4,10.8 Z" id="Shape"></path>
                    <polygon id="Shape" points="14.7 0.7 25.9 0.7 25.9 2.6 16.7 2.6 16.7 8.7 25.8 8.7 25.8 10.6 16.7 10.6 16.7 18.3 25.8 18.3 25.8 20.2 14.7 20.2"></polygon>
                    <polygon id="Shape" points="28.6 0.7 30.5 0.7 30.5 8.9 40.4 8.9 40.4 0.7 42.3 0.7 42.3 20.2 40.4 20.2 40.4 10.8 30.5 10.8 30.5 20.2 28.6 20.2"></polygon>
                    <polygon id="Shape" points="45.1 0.7 47 0.7 47 18.3 54.5 18.3 54.5 20.2 45.1 20.2"></polygon>
                    <polygon id="Shape" points="56.3 0.7 67.5 0.7 67.5 2.6 58.3 2.6 58.3 8.7 67.4 8.7 67.4 10.6 58.3 10.6 58.3 18.3 67.4 18.3 67.4 20.2 56.3 20.2"></polygon>
                    <path d="M69.6,0.7 L73.5,0.7 C75.7,0.7 77.1,0.8 77.9,1 C79.1,1.3 80,1.8 80.7,2.7 C81.4,3.6 81.8,4.6 81.8,5.9 C81.8,7 81.6,7.9 81.1,8.7 C80.6,9.5 79.9,10.1 79,10.5 C78.1,10.9 76.8,11.1 75.2,11.1 L82.2,20.2 L79.8,20.2 L72.8,11.1 L71.7,11.1 L71.7,20.2 L69.8,20.2 L69.8,0.7 L69.6,0.7 Z M71.5,2.6 L71.5,9.2 L74.9,9.2 C76.2,9.2 77.2,9.1 77.8,8.8 C78.4,8.6 78.9,8.2 79.3,7.6 C79.6,7.1 79.8,6.4 79.8,5.8 C79.8,5.1 79.6,4.6 79.3,4 C78.9,3.5 78.5,3.1 77.9,2.9 C77.3,2.7 76.4,2.6 75,2.6 L71.5,2.6 Z" id="Shape"></path>
                </g>
            </g>
        </g>
    </g>
</svg>