<?xml version="1.0" encoding="UTF-8"?>
<svg width="386px" height="386px" viewBox="0 0 386 386" version="1.1" xmlns="http://www.w3.org/2000/svg" xmlns:xlink="http://www.w3.org/1999/xlink">
    <!-- Generator: Sketch 52.6 (67491) - http://www.bohemiancoding.com/sketch -->
    <title>blog</title>
    <desc>Created with Sketch.</desc>
    <g id="Page-1" stroke="none" stroke-width="1" fill="none" fill-rule="evenodd">
        <g id="blog" transform="translate(1.000000, 1.000000)" fill="#000000" fill-rule="nonzero" stroke="#000000">
            <path d="M370.810546,307.171875 C388.365234,324.726562 388.365234,353.273437 370.819336,370.819336 C362.047852,379.59082 350.522461,383.979492 339,383.979492 C327.477539,383.979492 315.952148,379.59082 307.180664,370.819336 L224.838867,288.662109 C223.089844,286.916016 221.800781,284.768554 221.083008,282.401367 L203.147461,223.359375 C201.556641,218.124023 202.942383,212.440429 206.762695,208.523437 C210.583008,204.609375 216.231445,203.085937 221.504883,204.544921 L282.046875,221.314453 C284.540039,222.005859 286.810546,223.327148 288.641602,225.155273 L370.810546,307.171875 Z M248.692383,270.082031 L304.259766,325.526367 L325.476562,304.30957 L270.237304,249.175781 L239.780273,240.738281 L248.692383,270.082031 Z M349.605469,328.394531 L346.710938,325.502929 L325.49707,346.716796 L328.382812,349.59375 C334.242187,355.456054 343.757812,355.456054 349.605469,349.605469 C355.456054,343.757812 355.456054,334.242187 349.605469,328.394531 Z M200.34375,310.839844 C197.572266,310.959961 194.765625,311.021484 192,311.021484 C167.879883,311.021484 144.659179,306.530273 122.985352,297.673828 C119.293946,296.167969 115.151367,296.191406 111.477539,297.741211 L43.177734,326.572266 L66.1904295,272.05957 C68.4404295,266.730469 67.4238285,260.578125 63.5742188,256.253906 C41.6103517,231.580078 30,202.057617 30,170.885742 C30,93.2021482 102.673828,30 192,30 C281.326171,30 354,93.2021482 354,170.885742 C354,189.307617 349.476562,207.802734 340.552734,225.852539 C336.881836,233.279296 339.925781,242.276367 347.352539,245.947266 C354.779296,249.618164 363.776367,246.574219 367.447266,239.147461 C378.430664,216.925781 384,193.959961 384,170.885742 C384,76.6582035 297.870117,-8.52651283e-14 192,-8.52651283e-14 C86.1328125,-8.52651283e-14 0,76.6582035 0,170.885742 C0,206.452148 12.0585938,240.134766 34.9775392,268.860352 L1.18066425,348.916992 C-1.192383,354.539062 0.07910175,361.040039 4.39453125,365.355469 C7.265625,368.226562 11.1005858,369.75 15.0029295,369.75 C16.96875,369.75 18.9521483,369.363281 20.833008,368.569336 L117.530273,327.75 C141.114258,336.55957 166.136719,341.021484 192,341.021484 C195.199219,341.021484 198.448242,340.948242 201.65625,340.810546 C209.932617,340.447266 216.348633,333.445312 215.985352,325.168945 C215.625,316.892578 208.608398,310.456054 200.34375,310.839844 Z" id="Shape" stroke-width="2"></path>
            <path d="M191.25,151.5 C199.535156,151.5 206.25,158.214844 206.25,166.5 C206.25,174.785156 199.535156,181.5 191.25,181.5 C182.964844,181.5 176.25,174.785156 176.25,166.5 C176.25,158.214844 182.964844,151.5 191.25,151.5 Z" id="Path" stroke-width="6"></path>
            <path d="M243.75,166.5 C243.75,174.785156 250.464844,181.5 258.75,181.5 C267.035156,181.5 273.75,174.785156 273.75,166.5 C273.75,158.214844 267.035156,151.5 258.75,151.5 C250.464844,151.5 243.75,158.214844 243.75,166.5 Z" id="Path" stroke-width="6"></path>
            <path d="M108.75,166.5 C108.75,174.785156 115.464844,181.5 123.75,181.5 C132.035156,181.5 138.75,174.785156 138.75,166.5 C138.75,158.214844 132.035156,151.5 123.75,151.5 C115.464844,151.5 108.75,158.214844 108.75,166.5 Z" id="Path" stroke-width="6"></path>
        </g>
    </g>
</svg>