<svg height="384pt" viewBox="-32 0 384 384" width="384pt" xmlns="http://www.w3.org/2000/svg"><path d="m304 384c8.832031 0 16-7.167969 16-16v-352c0-8.832031-7.167969-16-16-16h-288c-8.832031 0-16 7.167969-16 16v320c0 26.472656 21.527344 48 48 48zm-16-352v256h-240c-5.617188 0-10.984375 1.023438-16 2.800781v-258.800781zm-256 304c0-8.824219 7.175781-16 16-16h240v32h-240c-8.824219 0-16-7.175781-16-16zm0 0"/><path d="m88 128h144c8.832031 0 16-7.167969 16-16s-7.167969-16-16-16h-144c-8.832031 0-16 7.167969-16 16s7.167969 16 16 16zm0 0"/><path d="m200 160h-80c-8.832031 0-16 7.167969-16 16s7.167969 16 16 16h80c8.832031 0 16-7.167969 16-16s-7.167969-16-16-16zm0 0"/></svg>