<?xml version="1.0" encoding="UTF-8"?>
<svg width="13px" height="13px" viewBox="0 0 13 13" version="1.1" xmlns="http://www.w3.org/2000/svg" xmlns:xlink="http://www.w3.org/1999/xlink">
    <!-- Generator: Sketch 52.6 (67491) - http://www.bohemiancoding.com/sketch -->
    <title>Combined Shape</title>
    <desc>Created with Sketch.</desc>
    <g id="Hackr-Plus---Landingpage-" stroke="none" stroke-width="1" fill="none" fill-rule="evenodd">
        <g id="Hackr-Plus---Landingpage-V3_Final" transform="translate(-468.000000, -2550.000000)" fill="#EC529B" fill-rule="nonzero">
            <g id="Courses" transform="translate(249.000000, 2354.000000)">
                <g id="Card" transform="translate(0.000000, 93.000000)">
                    <g id="Group" transform="translate(219.000000, 102.000000)">
                        <path d="M6.5,13.4441008 C2.91005,13.4441008 7.10542736e-15,10.6594068 7.10542736e-15,7.22410083 C7.10542736e-15,3.78879483 2.91005,1.00410083 6.5,1.00410083 C10.08995,1.00410083 13,3.78879483 13,7.22410083 C13,10.6594068 10.08995,13.4441008 6.5,13.4441008 Z M7.14285714,6.96493416 L7.14285714,3.72535083 C7.14285714,3.36751633 6.88701986,3.07743416 6.57142857,3.07743416 C6.25583729,3.07743416 6,3.36751633 6,3.72535083 L6,7.61285083 C6,7.97068532 6.25583729,8.26076749 6.57142857,8.26076749 L9.42857143,8.26076749 C9.74416271,8.26076749 10,7.97068532 10,7.61285083 C10,7.25501633 9.74416271,6.96493416 9.42857143,6.96493416 L7.14285714,6.96493416 Z" id="Combined-Shape"></path>
                    </g>
                </g>
            </g>
        </g>
    </g>
</svg>