<?xml version="1.0" encoding="UTF-8"?>
<svg width="13px" height="13px" viewBox="0 0 13 13" version="1.1" xmlns="http://www.w3.org/2000/svg" xmlns:xlink="http://www.w3.org/1999/xlink">
    <!-- Generator: Sketch 52.6 (67491) - http://www.bohemiancoding.com/sketch -->
    <title>Shape</title>
    <desc>Created with Sketch.</desc>
    <g id="Page-1" stroke="none" stroke-width="1" fill="none" fill-rule="evenodd">
        <g id="Hackr.io_Blog-and-Nav" transform="translate(-1071.000000, -338.000000)" fill="#007AFF" fill-rule="nonzero">
            <g id="Group-12" transform="translate(0.000000, 156.000000)">
                <g id="Group-13" transform="translate(430.000000, 29.000000)">
                    <g id="Group-8" transform="translate(0.000000, 146.000000)">
                        <g id="Group-10" transform="translate(634.000000, 0.000000)">
                            <path d="M18.212738,7.7734375 L8.78726196,7.7734375 C7.80178832,7.7734375 7,8.57787964 7,9.56661506 L7,15.3539016 C7,16.3407264 7.79829711,17.1437356 8.7809143,17.1470792 L8.7809143,19.7734375 L12.5424561,17.147318 L18.212738,17.147318 C19.1982117,17.147318 20,16.3428759 20,15.3539016 L20,9.56661506 C20,8.57787964 19.1982117,7.7734375 18.212738,7.7734375 Z M16.5205322,14.4989878 L10.4794678,14.4989878 L10.4794678,13.7347479 L16.5205322,13.7347479 L16.5205322,14.4989878 Z M16.5205322,12.8686093 L10.4794678,12.8686093 L10.4794678,12.1043693 L16.5205322,12.1043693 L16.5205322,12.8686093 Z M16.5205322,11.2382307 L10.4794678,11.2382307 L10.4794678,10.4739908 L16.5205322,10.4739908 L16.5205322,11.2382307 Z" id="Shape"></path>
                        </g>
                    </g>
                </g>
            </g>
        </g>
    </g>
</svg>