<svg height="511pt" viewBox="-92 1 511 511.99888" width="511pt" xmlns="http://www.w3.org/2000/svg"><path d="m263.128906 124.28125c7.460938-2.109375 17.675782-5 21.265625-15.238281 11.960938-32.9375 25.269531-59.988281 39.546875-80.410157 4.570313-6.535156 4.441406-14.894531-.324218-21.292968-4.75-6.378906-12.695313-8.882813-20.238282-6.386719-63.277344 20.941406-113.304687 58.101563-148.691406 110.441406-29.46875 43.585938-42.394531 88.5-48.050781 118.507813-4 21.203125-.824219 43.507812 8.941406 62.804687l22.324219 44.117188c-1.996094 13.273437-3.179688 24.914062-3.511719 33.96875h-36.558594c-14.101562 0-25.574219 11.472656-25.574219 25.570312 0 13.125 9.9375 23.972657 22.683594 25.410157-4.484375 2.589843-11.378906 5.140624-21.96875 6.804687-19.371094 3.046875-33.5 19.273437-33.863281 38.730469 0 .070312-.003906.140625-.003906.207031v.15625c0 .136719-.003907.273437-.003907.40625v23.921875h-28.601562c-5.523438 0-10 4.476562-10 10s4.476562 10 10 10h287.015625c5.523437 0 10-4.476562 10-10s-4.476563-10-10-10h-36.996094v-23.921875c0-.132813 0-.269531-.003906-.40625 0-.050781 0-.101563 0-.152344 0-.070312-.003906-.144531-.003906-.21875-.367188-19.457031-14.496094-35.675781-33.863281-38.722656-10.589844-1.664063-17.484376-4.214844-21.96875-6.804687 12.746093-1.4375 22.683593-12.285157 22.683593-25.410157 0-14.097656-11.472656-25.570312-25.574219-25.570312h-47.429687c.28125-7.417969 1.222656-16.894531 2.785156-27.746094l51.15625-36.128906c12.089844-8.539063 21.28125-20.988281 25.871094-35.058594 8.105469-24.828125 20.800781-65.132813 35.273437-116.175781 3.632813-11.625-4.269531-19.476563-9-24.175782-1.414062-1.40625-3.738281-3.714843-4.1875-4.789062.007813-.03125.019532-.066406.035157-.109375 1.363281-.78125 4.738281-1.734375 6.835937-2.328125zm-204.027344 367.71875v-17.953125h181.417969v17.953125zm175.667969-37.953125h-169.917969c2.929688-2.953125 6.808594-5.015625 11.230469-5.710937 19.394531-3.050782 33.152344-9.554688 40.886719-19.328126 1.9375-2.453124 3.292969-4.855468 4.234375-7.074218h57.214844c.941406 2.214844 2.296875 4.621094 4.234375 7.074218 7.734375 9.773438 21.488281 16.277344 40.886718 19.328126 4.421876.695312 8.300782 2.757812 11.230469 5.710937zm-27.40625-57.683594c0 3.074219-2.5 5.574219-5.570312 5.574219h-103.964844c-3.070313 0-5.570313-2.5-5.570313-5.574219 0-3.070312 2.5-5.570312 5.570313-5.570312h46.570313.042968.054688 57.296875c3.070312 0 5.570312 2.5 5.570312 5.570312zm38.984375-250.667969c1.34375 1.332032 3.3125 3.285157 3.914063 4.339844-.003907.015625-.011719.03125-.015625.046875-14.402344 50.804688-27.027344 90.890625-35.085938 115.570313-3.261718 10.003906-9.796875 18.855468-18.394531 24.929687l-34.800781 24.578125c6.03125-30.289062 15.445312-65.460937 27.664062-96.121094 2.046875-5.128906-.453125-10.945312-5.585937-12.992187-5.128907-2.046875-10.945313.457031-12.992188 5.585937-11.804687 29.621094-21 62.84375-27.238281 92.574219l-10.390625-20.53125c-7.785156-15.386719-10.316406-33.167969-7.132813-50.070312 5.304688-28.148438 17.417969-70.257813 44.964844-111.007813 31.882813-47.15625 76.679688-81.078125 133.203125-100.886718-14.082031 21.203124-27.128906 48.21875-38.828125 80.410156-1.195312 1.007812-5.394531 2.195312-7.941406 2.914062-7.222656 2.042969-17.078125 4.832032-20.164062 14.667969-4.636719 12.617187 4.105468 21.300781 8.824218 25.992187zm0 0"/><path d="m195.25 163.886719c-5.523438 0-10 4.476562-10 10 0 5.523437 4.476562 10 10 10h.023438c5.523437 0 9.988281-4.476563 9.988281-10 0-5.523438-4.488281-10-10.011719-10zm0 0"/></svg>