<svg xmlns="http://www.w3.org/2000/svg" viewBox="0 0 100 100"><defs><style>.a{fill:#1da1f2;}</style></defs><path class="a" d="M90,0H10A10.03,10.03,0,0,0,0,10V90a10.03,10.03,0,0,0,10,10H90a10.03,10.03,0,0,0,10-10V10A10.03,10.03,0,0,0,90,0ZM78.5,36.5c-.5,23-15,39-37,40a36.394,36.394,0,0,1-21.5-6A26.544,26.544,0,0,0,39.5,65,13.507,13.507,0,0,1,27,55.5a20.167,20.167,0,0,0,5.5,0A13.62,13.62,0,0,1,22,42a10.08,10.08,0,0,0,5.5,1.5c-4.5-2.5-7.5-12-4-18A39.62,39.62,0,0,0,51,39.5c-3.5-14,15.5-21.5,23-12a33.684,33.684,0,0,0,8.5-3A14.137,14.137,0,0,1,77,32a28.667,28.667,0,0,0,7-2C83.5,32.5,81,34.5,78.5,36.5Z"/></svg>