<svg xmlns="http://www.w3.org/2000/svg" viewBox="0 0 99.999 100"><defs><style>.a{fill:#0077b5;}</style></defs><g transform="translate(-0.002)"><g transform="translate(0.002)"><path class="a" d="M92.617,0H7.391A7.278,7.278,0,0,0,0,7.165V92.832A7.282,7.282,0,0,0,7.391,100H92.617A7.279,7.279,0,0,0,100,92.832V7.165A7.276,7.276,0,0,0,92.617,0Zm-62.3,83.707H15.21V38.558H30.319ZM22.766,32.39h-.1c-5.067,0-8.351-3.465-8.351-7.8,0-4.426,3.381-7.8,8.548-7.8s8.346,3.37,8.447,7.8C31.308,28.926,28.03,32.39,22.766,32.39ZM84.783,83.707h-15.1V59.551c0-6.07-2.188-10.211-7.651-10.211a8.252,8.252,0,0,0-7.748,5.492,10.09,10.09,0,0,0-.5,3.657V83.706h-15.1s.2-40.914,0-45.149h15.1v6.4A15,15,0,0,1,67.387,37.5c9.941,0,17.4,6.449,17.4,20.323V83.707ZM53.681,45.1c.026-.042.062-.093.1-.143V45.1Z" transform="translate(-0.002)"/></g></g></svg>