<?xml version="1.0" encoding="iso-8859-1"?>
<!-- Generator: Adobe Illustrator 19.0.0, SVG Export Plug-In . SVG Version: 6.00 Build 0)  -->
<svg version="1.1" id="Capa_1" xmlns="http://www.w3.org/2000/svg" xmlns:xlink="http://www.w3.org/1999/xlink" x="0px" y="0px"
	 viewBox="0 0 384 384" style="enable-background:new 0 0 384 384;" xml:space="preserve">
<g>
	<g>
		<path d="M350.046,280.336L306.222,200l43.824-80.336c2.704-4.96,2.592-10.976-0.288-15.832C346.87,98.976,341.646,96,335.998,96
			h-96V48c0-8.832-7.168-16-16-16h-160V16c0-8.832-7.168-16-16-16c-8.832,0-16,7.168-16,16v32v176v144c0,8.832,7.168,16,16,16
			c8.832,0,16-7.168,16-16V240h80v48c0,8.832,7.168,16,16,16h176c5.648,0,10.872-2.976,13.76-7.832
			C352.646,291.312,352.75,285.296,350.046,280.336z M63.998,208V64h144v48v96h-48H63.998z M175.998,272v-32h48
			c8.832,0,16-7.168,16-16v-96h69.048l-35.096,64.336c-2.6,4.776-2.6,10.544,0,15.32L309.046,272H175.998z"/>
	</g>
</g>
<g>
</g>
<g>
</g>
<g>
</g>
<g>
</g>
<g>
</g>
<g>
</g>
<g>
</g>
<g>
</g>
<g>
</g>
<g>
</g>
<g>
</g>
<g>
</g>
<g>
</g>
<g>
</g>
<g>
</g>
</svg>
