<svg width="250" height="57" xmlns="http://www.w3.org/2000/svg"><g fill="none" fill-rule="evenodd"><path d="M124.24 17.08v-.89h5.73v.89h-.17c-.54 0-.89.1-1.05.3-.16.2-.24.54-.24 1.03v6.42c0 .5.08.84.25 1.03.16.2.51.3 1.04.3h.17v.88h-5.73v-.88c.58 0 .96-.1 1.15-.27.19-.17.28-.53.28-1.06V18.4c0-.52-.09-.87-.27-1.05-.17-.19-.56-.28-1.16-.28M133.4 19.28v4.99c0 .8.14 1.31.43 1.54.3.23.66.35 1.12.35v.88h-4.07v-.88c.35 0 .65-.09.9-.26.26-.16.42-.36.5-.58.06-.22.1-.57.1-1.05v-5.53c0-1.1-.52-1.66-1.55-1.66v-.89h3.65l5.93 6.64v-3.97c0-1.19-.5-1.78-1.49-1.78v-.89h3.89v.89c-.27 0-.53.08-.76.22-.24.15-.4.34-.49.58-.08.23-.12.57-.12 1v8.34h-1.03l-7.01-7.94zM147.92 21.87v2.96c0 .5.08.84.25 1.03.17.2.53.3 1.06.3h.23v.88h-5.83v-.88h.16c.54 0 .89-.1 1.05-.3.16-.2.24-.55.24-1.03v-6.44c0-.5-.08-.84-.25-1.03-.17-.2-.51-.3-1.04-.3h-.2v-.87h9.08l.08 2.87h-.9c-.14-.49-.31-.88-.52-1.19-.2-.3-.42-.5-.64-.59-.23-.09-.57-.14-1.03-.14h-1.74v3.75h.85c.4 0 .69-.09.84-.26.16-.17.26-.53.3-1.07h.89v3.73h-.9c-.02-.58-.12-.96-.28-1.15-.16-.18-.45-.27-.87-.27h-.83zM156.86 21.5c0 1.67.22 2.87.67 3.61.44.74 1.1 1.11 2 1.11.91 0 1.6-.34 2.07-1.01.47-.68.7-1.86.7-3.55 0-1.55-.21-2.7-.65-3.47-.44-.76-1.14-1.14-2.1-1.14-.9 0-1.58.35-2.02 1.06-.45.71-.67 1.84-.67 3.39m-3.34.09a5.6 5.6 0 0 1 3.02-4.92 6.8 6.8 0 0 1 2.98-.67c1.9 0 3.4.55 4.48 1.65a5.56 5.56 0 0 1 1.63 4.06c0 1.52-.54 2.82-1.62 3.92a5.91 5.91 0 0 1-4.4 1.64c-1.28 0-2.4-.27-3.38-.81a4.69 4.69 0 0 1-2.09-2.17 6.46 6.46 0 0 1-.62-2.7M171.05 21.28c.9.01 1.5-.04 1.82-.16.31-.12.56-.34.74-.65.18-.31.27-.74.27-1.27 0-.76-.18-1.29-.54-1.58-.36-.3-.98-.44-1.85-.44h-.44v4.1zm0 .98v2.57c0 .5.08.84.25 1.03.17.2.52.3 1.05.3h.19v.88h-5.84v-.88h.22c.54 0 .9-.1 1.06-.3.16-.2.24-.55.24-1.03V18.4c0-.5-.08-.84-.25-1.04-.17-.2-.52-.29-1.05-.29h-.22v-.89h4.35l.97-.01c.96 0 1.67.03 2.11.1.45.06.88.2 1.31.45a2.68 2.68 0 0 1 1.4 2.36c0 1.3-.74 2.17-2.2 2.65.4.24 1 1.01 1.82 2.3.64 1 1.1 1.6 1.36 1.8.27.21.57.32.9.32v.88h-3.39c-.3-.36-.88-1.3-1.71-2.8-.42-.75-.72-1.24-.89-1.46a1.19 1.19 0 0 0-.52-.42c-.18-.06-.57-.1-1.16-.1zM185.41 27.04l-4.02-8.46v5.62c0 .5.04.87.1 1.1.07.24.23.44.49.6.25.17.56.26.92.26v.88H179v-.88c.34 0 .64-.1.89-.27.25-.18.4-.39.46-.62.05-.23.08-.6.08-1.11v-5.71c0-.55-.1-.9-.28-1.1-.19-.18-.57-.27-1.15-.27v-.89h4.34l3.33 7.13 3.37-7.13h4.35v.89h-.21c-.55 0-.9.1-1.06.3-.16.2-.24.54-.24 1.03v6.42c0 .5.08.84.25 1.03.16.2.51.3 1.05.3h.24v.88h-5.89v-.88h.22c.54 0 .89-.1 1.05-.3.16-.2.24-.55.24-1.03v-6.38l-4 8.6h-.63zM197.71 23.2h2.63l-1.35-3.25-1.28 3.24zm-.34.92l-.2.53c-.16.38-.23.65-.23.8 0 .26.09.45.26.55.18.1.46.16.86.16v.88h-3.57v-.88c.68 0 1.25-.59 1.71-1.75l3.33-8.41h.94l3.39 8.4c.33.84.64 1.34.9 1.5.28.17.54.26.79.26v.88h-5.37v-.88c.48 0 .78-.05.9-.14.12-.1.18-.22.18-.36 0-.13-.05-.3-.15-.5l-.1-.25-.31-.8h-3.33zM209.61 17.16h-.9c-.55 0-.95.06-1.2.18-.26.11-.47.35-.65.7-.17.35-.27.76-.31 1.24h-.9V16.2h10.83v3.1h-.9c-.18-.84-.42-1.4-.72-1.7-.31-.28-.8-.43-1.48-.43h-.93v7.67c0 .5.08.84.25 1.03.16.2.52.3 1.06.3h.27v.88h-5.97v-.88h.25c.54 0 .9-.1 1.06-.3.16-.2.24-.55.24-1.03v-7.67zM217.39 17.08v-.89h5.72v.89h-.17c-.54 0-.89.1-1.05.3-.16.2-.24.54-.24 1.03v6.42c0 .5.08.84.25 1.03.17.2.51.3 1.04.3h.17v.88h-5.72v-.88c.57 0 .95-.1 1.14-.27.2-.17.29-.53.29-1.06V18.4c0-.52-.1-.87-.27-1.05-.18-.19-.57-.28-1.16-.28M227.7 21.5c0 1.67.21 2.87.66 3.61.45.74 1.11 1.11 2 1.11.92 0 1.61-.34 2.08-1.01.47-.68.7-1.86.7-3.55 0-1.55-.22-2.7-.66-3.47-.44-.76-1.13-1.14-2.1-1.14-.9 0-1.57.35-2.02 1.06-.45.71-.67 1.84-.67 3.39m-3.34.09a5.6 5.6 0 0 1 3.03-4.92 6.8 6.8 0 0 1 2.98-.67c1.9 0 3.4.55 4.48 1.65a5.56 5.56 0 0 1 1.62 4.06c0 1.52-.54 2.82-1.62 3.92a5.91 5.91 0 0 1-4.4 1.64c-1.28 0-2.4-.27-3.38-.81a4.69 4.69 0 0 1-2.08-2.17 6.46 6.46 0 0 1-.63-2.7M240.17 19.28v4.99c0 .8.14 1.31.43 1.54.29.23.66.35 1.11.35v.88h-4.06v-.88c.35 0 .65-.09.9-.26.26-.16.42-.36.49-.58.07-.22.1-.57.1-1.05v-5.53c0-1.1-.51-1.66-1.54-1.66v-.89h3.65l5.93 6.64v-3.97c0-1.19-.5-1.78-1.5-1.78v-.89h3.9v.89c-.28 0-.53.08-.77.22-.23.15-.4.34-.48.58-.08.23-.13.57-.13 1v8.34h-1.02l-7.01-7.94zM124 43.5v-3.71h.97c.26 1.1.66 1.9 1.2 2.37.52.48 1.1.72 1.72.72.45 0 .82-.14 1.1-.41.26-.27.4-.6.4-.96 0-.26-.09-.53-.26-.79a3.2 3.2 0 0 0-1.21-.87 27.74 27.74 0 0 1-2.5-1.35 3.28 3.28 0 0 1-1.03-1.1c-.26-.45-.39-.96-.39-1.54 0-.94.33-1.7 1-2.31.67-.6 1.44-.91 2.32-.91.92 0 1.7.3 2.35.93.1-.16.2-.4.26-.74h.92v3.2h-.9a3.57 3.57 0 0 0-.9-1.75 2.06 2.06 0 0 0-1.51-.69c-.42 0-.76.12-1 .35-.25.24-.38.53-.38.88 0 .28.08.53.24.76.16.23.38.42.65.58.27.15.84.43 1.72.84.79.37 1.37.7 1.75 1a3.16 3.16 0 0 1 1.23 2.55c0 .96-.35 1.76-1.06 2.4-.7.64-1.55.96-2.53.96a4.04 4.04 0 0 1-2.92-1.3c-.13.25-.22.54-.27.89H124zM137 38.5v2.68c0 .51.02.85.08 1 .06.16.22.3.47.4.26.1.65.15 1.17.15.7 0 1.23-.09 1.56-.26.33-.18.63-.49.9-.93.26-.44.45-.92.56-1.42h.9l-.08 3.56h-9.9v-.88h.2c.54 0 .9-.1 1.06-.3.16-.2.24-.55.24-1.03v-6.44c0-.5-.08-.84-.25-1.03-.17-.2-.52-.3-1.04-.3h-.2v-.87h9.22l.16 2.81h-.9a4.7 4.7 0 0 0-.53-1.17c-.2-.3-.4-.48-.6-.56a2.9 2.9 0 0 0-1-.13h-2.03v3.75H138c.48 0 .8-.1.95-.27.16-.18.25-.54.27-1.08h.9v3.69h-.9v-.16c0-.3-.06-.59-.19-.84s-.46-.37-1-.37H137zM154.39 39.51v4.08h-.9c-.1-.43-.24-.78-.45-1.04-.9.9-2.08 1.36-3.56 1.36a5.2 5.2 0 0 1-4.02-1.65 5.6 5.6 0 0 1-1.5-3.91c0-1.5.5-2.82 1.49-3.97a5.15 5.15 0 0 1 4.12-1.74c1.32 0 2.43.43 3.35 1.3.12-.27.23-.6.33-.96h.88l.11 4h-.88a4.85 4.85 0 0 0-1.28-2.46c-.6-.56-1.3-.84-2.1-.84-.94 0-1.65.37-2.12 1.1-.48.74-.71 1.89-.71 3.45 0 1.1.08 1.97.25 2.62.17.64.5 1.13 1.01 1.48.5.35 1.05.52 1.65.52.79 0 1.49-.27 2.1-.82a4.76 4.76 0 0 0 1.34-2.52h.89zM155.73 33.72v-.89h5.71v.89h-.18c-.54 0-.89.1-1.05.3-.16.2-.24.54-.24 1.03v4.28c0 .78.07 1.4.2 1.84.12.45.4.83.83 1.15.43.31.95.47 1.55.47a2.8 2.8 0 0 0 1.68-.5c.47-.34.77-.75.9-1.24.14-.48.21-1.15.21-2.02v-3.65c0-1.1-.53-1.66-1.6-1.66v-.89h4v.89c-.22 0-.46.07-.71.2-.25.13-.42.3-.52.54-.1.23-.14.56-.14.97v3.63c0 .78-.05 1.41-.15 1.9-.1.5-.33.97-.7 1.43-.37.46-.88.82-1.53 1.1-.66.28-1.38.42-2.18.42a5.8 5.8 0 0 1-2.25-.41 3.88 3.88 0 0 1-1.52-1.04 3.42 3.42 0 0 1-.71-1.37 7.2 7.2 0 0 1-.2-1.76v-4.28c0-.51-.08-.86-.25-1.05-.18-.19-.56-.28-1.15-.28M172.72 37.92c.9.01 1.5-.04 1.82-.16.31-.12.56-.34.74-.65.18-.31.27-.74.27-1.27 0-.76-.18-1.29-.54-1.58-.36-.3-.97-.44-1.85-.44h-.44v4.1zm0 .98v2.57c0 .5.08.84.25 1.03.17.2.52.3 1.05.3h.2v.88h-5.84v-.88h.21c.54 0 .9-.1 1.06-.3.16-.2.24-.55.24-1.03v-6.42c0-.5-.08-.84-.25-1.04-.17-.2-.52-.29-1.05-.29h-.21v-.89h4.34l.97-.01c.97 0 1.67.03 2.11.1.45.06.89.2 1.32.45a2.68 2.68 0 0 1 1.39 2.36c0 1.29-.73 2.17-2.2 2.65.4.24 1 1.01 1.82 2.3.64 1 1.1 1.6 1.36 1.8.28.21.57.32.9.32v.88H177c-.3-.36-.88-1.3-1.71-2.8-.42-.75-.72-1.24-.89-1.46a1.19 1.19 0 0 0-.52-.42c-.18-.06-.57-.1-1.16-.1zM180.75 33.72v-.89h5.72v.89h-.17c-.53 0-.88.1-1.05.3-.16.2-.24.54-.24 1.03v6.42c0 .5.08.84.25 1.03.17.2.52.3 1.04.3h.17v.88h-5.72v-.88c.57 0 .95-.1 1.14-.27.2-.17.29-.53.29-1.06v-6.42c0-.52-.1-.87-.27-1.05-.18-.19-.57-.28-1.16-.28M191.36 33.8h-.9c-.55 0-.95.06-1.2.18-.26.11-.47.35-.65.7-.17.35-.27.76-.31 1.24h-.9v-3.09h10.83v3.09h-.9c-.17-.83-.41-1.4-.72-1.68-.31-.3-.8-.44-1.48-.44h-.93v7.67c0 .5.08.84.25 1.03.17.2.52.3 1.06.3h.27v.88h-5.97v-.88h.25c.55 0 .9-.1 1.06-.3.16-.2.24-.55.24-1.03V33.8zM202.9 39.23l-2.44-4.08a4.62 4.62 0 0 0-.9-1.2c-.2-.15-.49-.23-.84-.23v-.89h5.43v.89c-.59 0-.88.16-.88.47 0 .18.11.45.33.81l1.77 2.95 1.63-2.73c.17-.27.25-.54.25-.79 0-.47-.34-.71-1.04-.71v-.89h3.71v.89c-.35 0-.66.13-.93.38-.27.26-.67.8-1.18 1.63l-2.05 3.33v2.4c0 .5.09.85.25 1.04.17.2.52.3 1.04.3h.17v.88h-5.8v-.88h.18c.54 0 .89-.1 1.05-.3.17-.2.25-.55.25-1.03v-2.24z" fill="#D6F6F7"/><path fill="#1D5264" fill-rule="nonzero" d="M113.5 19l5.5-7H80L67 51h20.5l3.5-4H72l.5-2h20l3.5-4H73.5l.5-2h23.5l3.5-4H75l.5-2h27l4-5h-30l.5-2h31l4-5H78l.64-2zM5.5 19L0 12h39l13 39H31.5L28 47h19l-.5-2h-20L23 41h22.5l-.5-2H21.5L18 35h26l-.5-2h-27l-4-5h30l-.5-2H11l-4-5h34l-.64-2z"/><path fill="#587A92" d="M62.43 14.88L70.97 2.9 67.8 17.27 80.47 9.8 71.7 21.63l14.63-1.67-12.81 7.25 14.03 4.43-14.64 1.4 11.02 9.76-13.96-4.67 6.1 13.4-10.6-9.7v14.7L59.48 42.8l-5.97 13.74V41.83l-10.62 9.7 6.1-13.4-13.95 4.67 11.02-9.75-14.65-1.41 14.04-4.43-12.81-7.25 14.62 1.67L38.52 9.8l12.68 7.47L48 2.9l8.55 11.98L59.49.46z"/><path d="M59.5 6.72L39.7 17.77l5.61 25.22L59.5 50.3 73.69 43l5.6-25.22L59.5 6.72z" stroke="#041A2B" stroke-width="3" fill="#95CFCA" fill-rule="nonzero"/><path fill="#041A2B" fill-rule="nonzero" d="M73 22l-9-7-4.5 1.88L55 15l-9 7-1 7 3.08-1.3-1.2 6 3.6-2.4v7.22l2.4-2.4 1.21 4.8 2.4-2.4 3.01 4.8 3-4.8 2.4 2.4 1.21-4.8 2.4 2.4V31.3l3.61 2.4-1.2-6L74 29z"/><path fill="#FFF" fill-rule="nonzero" d="M57 35l1 1h3l1-1-2.5-1zM57 34l-1-1v-2l-3-2 1-5 5.5-3 5.5 3 1 5-3 2v2l-1 1-2.5-1z"/><path fill="#231F20" fill-rule="nonzero" d="M58 30.5l-.5.5 2 1 2-1-.5-.5z"/><path fill="#FFF" fill-rule="nonzero" d="M49 24l-1-6 4 3v1l-2-1v2l1 1v1zM68 23v-2l-2 1v-1l4-3-1 6-2 1v-1z"/><path fill="#231F20" d="M59 30.5h1v2.83h-1z"/><path fill="#000" d="M60.5 25l1 3.5v-1L64 26l-.5-.5-2 .5-.5-1zM58.5 25l-1 3.5v-1L55 26l.5-.5 2 .5.5-1z"/></g></svg>