<svg id="Group_1339" data-name="Group 1339" xmlns="http://www.w3.org/2000/svg" width="211.64" height="30.104" viewBox="0 0 211.64 30.104">
  <g id="Group_1270" data-name="Group 1270" transform="translate(34.261 11.38)">
    <g id="Group_1269" data-name="Group 1269" transform="translate(0 0)">
      <path id="Path_429" data-name="Path 429" d="M-9586.489-3719.147a4.485,4.485,0,0,0-3.571,1.506,6.08,6.08,0,0,0-1.309,4.125,6.2,6.2,0,0,0,1.262,4.163,4.486,4.486,0,0,0,3.6,1.468,12.287,12.287,0,0,0,3.275-.516v1.4a10.079,10.079,0,0,1-3.52.535,5.953,5.953,0,0,1-4.679-1.839,7.574,7.574,0,0,1-1.647-5.228,8.258,8.258,0,0,1,.793-3.717,5.7,5.7,0,0,1,2.291-2.459,6.93,6.93,0,0,1,3.523-.863,8.494,8.494,0,0,1,3.773.789l-.676,1.37A7.273,7.273,0,0,0-9586.489-3719.147Z" transform="translate(9593.078 3720.761)" fill="#173647"/>
      <path id="Path_430" data-name="Path 430" d="M-9546.105-3708.389a6.08,6.08,0,0,1,1.23.113l-.217,1.445a5.313,5.313,0,0,0-1.125-.141,2.738,2.738,0,0,0-2.136,1.014,3.694,3.694,0,0,0-.888,2.524v5.519h-1.558V-3708.2h1.286l.178,1.905h.074a4.535,4.535,0,0,1,1.381-1.548A3.1,3.1,0,0,1-9546.105-3708.389Z" transform="translate(9562.75 3712.021)" fill="#173647"/>
      <path id="Path_431" data-name="Path 431" d="M-9517.572-3703.067a5.675,5.675,0,0,1-1.268,3.928,4.462,4.462,0,0,1-3.5,1.412,4.641,4.641,0,0,1-2.45-.647,4.287,4.287,0,0,1-1.651-1.858,6.481,6.481,0,0,1-.582-2.834,5.67,5.67,0,0,1,1.258-3.919,4.449,4.449,0,0,1,3.492-1.4,4.35,4.35,0,0,1,3.43,1.436A5.646,5.646,0,0,1-9517.572-3703.067Zm-7.838,0a4.883,4.883,0,0,0,.789,3,2.734,2.734,0,0,0,2.318,1.033,2.754,2.754,0,0,0,2.322-1.028,4.861,4.861,0,0,0,.793-3.008,4.784,4.784,0,0,0-.793-2.98,2.785,2.785,0,0,0-2.341-1.018,2.743,2.743,0,0,0-2.31,1A4.833,4.833,0,0,0-9525.41-3703.067Z" transform="translate(9545.696 3712.021)" fill="#173647"/>
      <path id="Path_432" data-name="Path 432" d="M-9480.569-3700.721a2.578,2.578,0,0,1-1.07,2.215,5.025,5.025,0,0,1-3,.779,6.531,6.531,0,0,1-3.191-.647v-1.445a7.705,7.705,0,0,0,1.591.591,6.629,6.629,0,0,0,1.639.216,3.709,3.709,0,0,0,1.876-.39,1.287,1.287,0,0,0,.657-1.187,1.288,1.288,0,0,0-.521-1.028,8.217,8.217,0,0,0-2.032-1.009,11,11,0,0,1-2.042-.934,2.792,2.792,0,0,1-.9-.906,2.372,2.372,0,0,1-.3-1.211,2.308,2.308,0,0,1,1.023-1.985,4.77,4.77,0,0,1,2.807-.727,8.2,8.2,0,0,1,3.246.676l-.553,1.267a7.461,7.461,0,0,0-2.807-.638,3.232,3.232,0,0,0-1.671.347,1.074,1.074,0,0,0-.562.958,1.166,1.166,0,0,0,.211.7,2.074,2.074,0,0,0,.681.554,15.136,15.136,0,0,0,1.8.76,6.744,6.744,0,0,1,2.474,1.342A2.367,2.367,0,0,1-9480.569-3700.721Z" transform="translate(9517.604 3712.021)" fill="#173647"/>
      <path id="Path_433" data-name="Path 433" d="M-9449.109-3700.721a2.578,2.578,0,0,1-1.07,2.215,5.027,5.027,0,0,1-3,.779,6.534,6.534,0,0,1-3.191-.647v-1.445a7.705,7.705,0,0,0,1.591.591,6.627,6.627,0,0,0,1.638.216,3.711,3.711,0,0,0,1.877-.39,1.289,1.289,0,0,0,.657-1.187,1.291,1.291,0,0,0-.521-1.028,8.217,8.217,0,0,0-2.032-1.009,10.954,10.954,0,0,1-2.041-.934,2.776,2.776,0,0,1-.9-.906,2.362,2.362,0,0,1-.3-1.211,2.309,2.309,0,0,1,1.022-1.985,4.773,4.773,0,0,1,2.808-.727,8.208,8.208,0,0,1,3.247.676l-.555,1.267a7.456,7.456,0,0,0-2.806-.638,3.227,3.227,0,0,0-1.671.347,1.072,1.072,0,0,0-.562.958,1.166,1.166,0,0,0,.211.7,2.074,2.074,0,0,0,.681.554,15.136,15.136,0,0,0,1.8.76,6.744,6.744,0,0,1,2.474,1.342A2.371,2.371,0,0,1-9449.109-3700.721Z" transform="translate(9495.037 3712.021)" fill="#173647"/>
      <path id="Path_434" data-name="Path 434" d="M-9422.666-3719.877h3.877a7.315,7.315,0,0,1,3.952.817,2.884,2.884,0,0,1,1.22,2.581,2.977,2.977,0,0,1-.682,2.013,3.269,3.269,0,0,1-1.984,1.028v.094q3.126.535,3.126,3.285a3.531,3.531,0,0,1-1.243,2.872,5.3,5.3,0,0,1-3.478,1.032h-4.788Zm1.6,5.875h2.628a4.276,4.276,0,0,0,2.431-.53,2.047,2.047,0,0,0,.742-1.788,1.81,1.81,0,0,0-.825-1.666,5.173,5.173,0,0,0-2.629-.511h-2.347Zm0,1.352v5.134h2.862a4.08,4.08,0,0,0,2.5-.643,2.377,2.377,0,0,0,.84-2.013,2.134,2.134,0,0,0-.859-1.877,4.59,4.59,0,0,0-2.613-.6Z" transform="translate(9470.838 3720.262)" fill="#173647"/>
      <path id="Path_435" data-name="Path 435" d="M-9375.951-3708.389a6.07,6.07,0,0,1,1.229.113l-.216,1.445a5.307,5.307,0,0,0-1.126-.141,2.743,2.743,0,0,0-2.136,1.014,3.7,3.7,0,0,0-.886,2.524v5.519h-1.559V-3708.2h1.286l.178,1.905h.074a4.543,4.543,0,0,1,1.38-1.548A3.111,3.111,0,0,1-9375.951-3708.389Z" transform="translate(9440.694 3712.021)" fill="#173647"/>
      <path id="Path_436" data-name="Path 436" d="M-9347.42-3703.067a5.67,5.67,0,0,1-1.268,3.928,4.459,4.459,0,0,1-3.5,1.412,4.634,4.634,0,0,1-2.448-.647,4.271,4.271,0,0,1-1.652-1.858,6.467,6.467,0,0,1-.582-2.834,5.67,5.67,0,0,1,1.258-3.919,4.448,4.448,0,0,1,3.491-1.4,4.352,4.352,0,0,1,3.431,1.436A5.651,5.651,0,0,1-9347.42-3703.067Zm-7.838,0a4.883,4.883,0,0,0,.789,3,2.737,2.737,0,0,0,2.318,1.033,2.756,2.756,0,0,0,2.323-1.028,4.861,4.861,0,0,0,.793-3.008,4.784,4.784,0,0,0-.793-2.98,2.787,2.787,0,0,0-2.342-1.018,2.741,2.741,0,0,0-2.309,1A4.832,4.832,0,0,0-9355.258-3703.067Z" transform="translate(9423.643 3712.021)" fill="#173647"/>
      <path id="Path_437" data-name="Path 437" d="M-9310.593-3697.438l-1.888-6.035q-.179-.553-.666-2.515h-.075q-.375,1.642-.656,2.534l-1.944,6.016h-1.8l-2.807-10.287h1.633q1,3.877,1.516,5.9a23.744,23.744,0,0,1,.6,2.732h.075c.069-.357.18-.818.334-1.385s.286-1.015.4-1.347l1.887-5.9h1.69l1.839,5.9a19.893,19.893,0,0,1,.713,2.713h.075a9.838,9.838,0,0,1,.2-1.042q.163-.7,1.957-7.574h1.614l-2.844,10.287Z" transform="translate(9397.502 3711.545)" fill="#173647"/>
      <path id="Path_438" data-name="Path 438" d="M-9257.9-3700.721a2.576,2.576,0,0,1-1.07,2.215,5.027,5.027,0,0,1-3,.779,6.525,6.525,0,0,1-3.189-.647v-1.445a7.7,7.7,0,0,0,1.59.591,6.635,6.635,0,0,0,1.639.216,3.713,3.713,0,0,0,1.877-.39,1.288,1.288,0,0,0,.656-1.187,1.293,1.293,0,0,0-.52-1.028,8.228,8.228,0,0,0-2.033-1.009,11.016,11.016,0,0,1-2.041-.934,2.776,2.776,0,0,1-.9-.906,2.362,2.362,0,0,1-.3-1.211,2.31,2.31,0,0,1,1.023-1.985,4.77,4.77,0,0,1,2.807-.727,8.211,8.211,0,0,1,3.247.676l-.554,1.267a7.465,7.465,0,0,0-2.807-.638,3.225,3.225,0,0,0-1.67.347,1.072,1.072,0,0,0-.564.958,1.167,1.167,0,0,0,.212.7,2.084,2.084,0,0,0,.681.554,15.1,15.1,0,0,0,1.8.76,6.747,6.747,0,0,1,2.473,1.342A2.371,2.371,0,0,1-9257.9-3700.721Z" transform="translate(9357.883 3712.021)" fill="#173647"/>
      <path id="Path_439" data-name="Path 439" d="M-9228.785-3697.727a4.728,4.728,0,0,1-3.6-1.389,5.378,5.378,0,0,1-1.318-3.858,5.965,5.965,0,0,1,1.225-3.951,4.069,4.069,0,0,1,3.29-1.464,3.877,3.877,0,0,1,3.06,1.272,4.868,4.868,0,0,1,1.126,3.355v.986h-7.087a4.09,4.09,0,0,0,.916,2.75,3.164,3.164,0,0,0,2.445.938,8.278,8.278,0,0,0,3.285-.694v1.389a8.269,8.269,0,0,1-1.562.511A8.807,8.807,0,0,1-9228.785-3697.727Zm-.422-9.358a2.548,2.548,0,0,0-1.977.807,3.728,3.728,0,0,0-.867,2.234h5.378a3.429,3.429,0,0,0-.657-2.257A2.311,2.311,0,0,0-9229.207-3707.084Z" transform="translate(9335.292 3712.021)" fill="#173647"/>
      <path id="Path_440" data-name="Path 440" d="M-9190.427-3708.389a6.063,6.063,0,0,1,1.229.113l-.215,1.445a5.323,5.323,0,0,0-1.128-.141,2.739,2.739,0,0,0-2.134,1.014,3.7,3.7,0,0,0-.888,2.524v5.519h-1.558V-3708.2h1.286l.177,1.905h.076a4.523,4.523,0,0,1,1.38-1.548A3.108,3.108,0,0,1-9190.427-3708.389Z" transform="translate(9307.614 3712.021)" fill="#173647"/>
      <path id="Path_441" data-name="Path 441" d="M-9172.888-3706.155h-1.6v-12.3h-4.346v-1.417h10.287v1.417h-4.346Z" transform="translate(9295.929 3720.262)" fill="#173647"/>
      <path id="Path_442" data-name="Path 442" d="M-9140.223-3697.727a4.723,4.723,0,0,1-3.6-1.389,5.374,5.374,0,0,1-1.319-3.858,5.964,5.964,0,0,1,1.224-3.951,4.072,4.072,0,0,1,3.291-1.464,3.88,3.88,0,0,1,3.06,1.272,4.873,4.873,0,0,1,1.126,3.355v.986h-7.086a4.08,4.08,0,0,0,.914,2.75,3.167,3.167,0,0,0,2.445.938,8.278,8.278,0,0,0,3.285-.694v1.389a8.246,8.246,0,0,1-1.562.511A8.793,8.793,0,0,1-9140.223-3697.727Zm-.424-9.358a2.54,2.54,0,0,0-1.975.807,3.71,3.71,0,0,0-.868,2.234h5.378a3.418,3.418,0,0,0-.658-2.257A2.311,2.311,0,0,0-9140.646-3707.084Z" transform="translate(9271.765 3712.021)" fill="#173647"/>
      <path id="Path_443" data-name="Path 443" d="M-9101.242-3700.721a2.578,2.578,0,0,1-1.07,2.215,5.031,5.031,0,0,1-3,.779,6.529,6.529,0,0,1-3.19-.647v-1.445a7.705,7.705,0,0,0,1.591.591,6.627,6.627,0,0,0,1.638.216,3.711,3.711,0,0,0,1.877-.39,1.289,1.289,0,0,0,.657-1.187,1.291,1.291,0,0,0-.521-1.028,8.228,8.228,0,0,0-2.033-1.009,10.969,10.969,0,0,1-2.04-.934,2.776,2.776,0,0,1-.9-.906,2.362,2.362,0,0,1-.3-1.211,2.309,2.309,0,0,1,1.022-1.985,4.772,4.772,0,0,1,2.807-.727,8.212,8.212,0,0,1,3.248.676l-.555,1.267a7.456,7.456,0,0,0-2.806-.638,3.221,3.221,0,0,0-1.67.347,1.072,1.072,0,0,0-.564.958,1.166,1.166,0,0,0,.211.7,2.079,2.079,0,0,0,.682.554,15.062,15.062,0,0,0,1.8.76,6.753,6.753,0,0,1,2.474,1.342A2.371,2.371,0,0,1-9101.242-3700.721Z" transform="translate(9245.506 3712.021)" fill="#173647"/>
      <path id="Path_444" data-name="Path 444" d="M-9073.773-3704.585a5.06,5.06,0,0,0,.8-.061,5.116,5.116,0,0,0,.61-.126v1.192a2.863,2.863,0,0,1-.746.2,5.66,5.66,0,0,1-.887.08q-2.985,0-2.986-3.145v-6.12h-1.473v-.751l1.473-.647.658-2.2h.9v2.383h2.985v1.211h-2.985v6.054a2.083,2.083,0,0,0,.441,1.427A1.535,1.535,0,0,0-9073.773-3704.585Z" transform="translate(9223.93 3717.594)" fill="#173647"/>
      <path id="Path_445" data-name="Path 445" d="M-9051.2-3720.206a1.037,1.037,0,0,1,.263-.784.918.918,0,0,1,.657-.249.922.922,0,0,1,.648.253,1.019,1.019,0,0,1,.271.779,1.034,1.034,0,0,1-.271.784.912.912,0,0,1-.648.258.9.9,0,0,1-.657-.258A1.055,1.055,0,0,1-9051.2-3720.206Zm1.689,13.075h-1.558v-10.287h1.558Z" transform="translate(9204.375 3721.238)" fill="#173647"/>
      <path id="Path_446" data-name="Path 446" d="M-9028.336-3697.915v-6.654a2.686,2.686,0,0,0-.572-1.877,2.33,2.33,0,0,0-1.792-.619,2.958,2.958,0,0,0-2.366.873,4.41,4.41,0,0,0-.75,2.881v5.4h-1.559V-3708.2h1.268l.253,1.408h.075a3.184,3.184,0,0,1,1.342-1.178,4.358,4.358,0,0,1,1.925-.418,3.909,3.909,0,0,1,2.8.9,3.814,3.814,0,0,1,.938,2.867v6.711Z" transform="translate(9193.026 3712.021)" fill="#173647"/>
      <path id="Path_447" data-name="Path 447" d="M-8990.216-3708.2v.986l-1.905.225a3.357,3.357,0,0,1,.469.859,3.3,3.3,0,0,1,.206,1.2,3.046,3.046,0,0,1-1.031,2.412,4.167,4.167,0,0,1-2.835.9,4.692,4.692,0,0,1-.863-.075,1.536,1.536,0,0,0-1,1.323.674.674,0,0,0,.348.624,2.534,2.534,0,0,0,1.192.2h1.821a4.079,4.079,0,0,1,2.566.7,2.446,2.446,0,0,1,.9,2.046,2.922,2.922,0,0,1-1.372,2.6,7.334,7.334,0,0,1-4,.9,5.465,5.465,0,0,1-3.111-.751,2.425,2.425,0,0,1-1.093-2.121,2.382,2.382,0,0,1,.6-1.624,3.058,3.058,0,0,1,1.689-.929,1.626,1.626,0,0,1-.662-.554,1.468,1.468,0,0,1-.268-.873,1.657,1.657,0,0,1,.3-.986,3.139,3.139,0,0,1,.947-.816,2.775,2.775,0,0,1-1.3-1.117,3.274,3.274,0,0,1-.5-1.8,3.329,3.329,0,0,1,1.014-2.6,4.142,4.142,0,0,1,2.872-.915,5.23,5.23,0,0,1,1.455.188Zm-8.2,12.014a1.4,1.4,0,0,0,.705,1.267,3.883,3.883,0,0,0,2.018.431,5.629,5.629,0,0,0,2.9-.586,1.8,1.8,0,0,0,.943-1.591,1.259,1.259,0,0,0-.516-1.159,4.016,4.016,0,0,0-1.943-.324h-1.867a2.46,2.46,0,0,0-1.652.507A1.811,1.811,0,0,0-8998.42-3696.187Zm.846-8.719a2.1,2.1,0,0,0,.609,1.634,2.437,2.437,0,0,0,1.7.553,1.987,1.987,0,0,0,2.28-2.215,2.044,2.044,0,0,0-2.308-2.318,2.287,2.287,0,0,0-1.69.591A2.384,2.384,0,0,0-8997.574-3704.907Z" transform="translate(9167.595 3712.021)" fill="#173647"/>
    </g>
  </g>
  <g id="Group_1273" data-name="Group 1273" transform="translate(34.316 1.307)">
    <g id="Group_1272" data-name="Group 1272" transform="translate(0 0)">
      <g id="Group_1271" data-name="Group 1271">
        <path id="Path_448" data-name="Path 448" d="M-9589.012-3755.86s-1.241-.142-1.756-.142c-.747,0-1.128.266-1.128.79,0,.568.32.7,1.358.985,1.277.355,1.738.692,1.738,1.73a1.781,1.781,0,0,1-2.031,1.908,12.962,12.962,0,0,1-1.988-.239l.1-.79s1.2.159,1.827.159c.755,0,1.1-.337,1.1-.976,0-.515-.275-.692-1.206-.914-1.313-.337-1.882-.736-1.882-1.792,0-1.225.807-1.73,2.022-1.73a13.48,13.48,0,0,1,1.926.213Z" transform="translate(9592.88 3756.871)" fill="#173647"/>
        <path id="Path_449" data-name="Path 449" d="M-9570.084-3756.494h1.712l1.358,4.747,1.357-4.747h1.722v6.078h-.994v-5.253h-.053l-1.518,5h-1.029l-1.519-5h-.052v5.253h-.985Z" transform="translate(9576.527 3756.601)" fill="#173647"/>
        <path id="Path_450" data-name="Path 450" d="M-9494.369-3756.494h4.437v.878h-1.712v5.2h-.994v-5.2h-1.73Z" transform="translate(9522.217 3756.601)" fill="#173647"/>
        <path id="Path_451" data-name="Path 451" d="M-9469.367-3756.494c1.207,0,1.854.452,1.854,1.58a1.335,1.335,0,0,1-.718,1.366,1.312,1.312,0,0,1,.87,1.411c0,1.243-.755,1.722-1.936,1.722h-2.378v-6.078Zm-1.321.852v1.739h1.3c.6,0,.871-.3.871-.9s-.3-.842-.906-.842Zm0,2.573v1.8h1.34c.612,0,.976-.195.976-.923,0-.692-.514-.878-.994-.878Z" transform="translate(9505.937 3756.601)" fill="#173647"/>
        <path id="Path_452" data-name="Path 452" d="M-9447.781-3756.494h3.834v.861h-2.85v1.721h2.316v.843h-2.316v1.784h2.85v.87h-3.834Z" transform="translate(9488.798 3756.601)" fill="#173647"/>
        <path id="Path_453" data-name="Path 453" d="M-9425.531-3756.494h1.96l1.509,6.078h-.993l-.449-1.784h-2.093l-.448,1.784h-.985Zm.13,3.425h1.705l-.629-2.6h-.442Z" transform="translate(9473.913 3756.601)" fill="#173647"/>
        <path id="Path_454" data-name="Path 454" d="M-9400.714-3752.217v1.8h-.985v-6.078h2.307a1.885,1.885,0,0,1,2.06,2.116,2.053,2.053,0,0,1-.994,1.939l1,2.023h-1.082l-.879-1.8Zm1.321-3.425h-1.321v2.573h1.34c.746,0,1.028-.67,1.028-1.3C-9398.346-3755.062-9398.682-3755.642-9399.393-3755.642Z" transform="translate(9455.742 3756.601)" fill="#173647"/>
        <path id="Path_455" data-name="Path 455" d="M-9539.234-3756.494h1.961l1.508,6.078h-.993l-.448-1.784h-2.094l-.447,1.784h-.986Zm.131,3.425h1.705l-.629-2.6h-.444Z" transform="translate(9555.475 3756.601)" fill="#173647"/>
        <path id="Path_456" data-name="Path 456" d="M-9514.416-3752.217v1.8h-.984v-6.078h2.307a1.885,1.885,0,0,1,2.059,2.116,2.051,2.051,0,0,1-.994,1.939l1,2.023h-1.083l-.878-1.8Zm1.322-3.425h-1.322v2.573h1.341c.745,0,1.028-.67,1.028-1.3C-9512.047-3755.062-9512.383-3755.642-9513.094-3755.642Z" transform="translate(9537.302 3756.601)" fill="#173647"/>
      </g>
    </g>
  </g>
  <g id="Group_1282" data-name="Group 1282" transform="translate(0 0)">
    <g id="Group_1276" data-name="Group 1276" transform="translate(0 0)">
      <g id="Group_1274" data-name="Group 1274" transform="translate(0.707 0.706)">
        <rect id="Rectangle_1305" data-name="Rectangle 1305" width="25.466" height="25.47" fill="#50e4ea"/>
      </g>
      <g id="Group_1275" data-name="Group 1275">
        <path id="Path_457" data-name="Path 457" d="M-9688.811-3760.081v24.056h-24.054v-24.056h24.054m1.412-1.413h-26.879v26.883h26.879v-26.883Z" transform="translate(9714.277 3761.494)" fill="#173647"/>
      </g>
    </g>
    <g id="Group_1281" data-name="Group 1281" transform="translate(3.803 3.805)">
      <g id="Group_1277" data-name="Group 1277" transform="translate(3.923)">
        <path id="Path_458" data-name="Path 458" d="M-9676.612-3745.183l-9.888,2.611-.447-1.692a18.305,18.305,0,0,1,4.95-3.771,16.563,16.563,0,0,1,2.7,1.121,17.072,17.072,0,0,1,1.484.87C-9677.4-3745.772-9676.994-3745.482-9676.612-3745.183Z" transform="translate(9686.947 3748.035)" fill="#173647"/>
      </g>
      <g id="Group_1278" data-name="Group 1278" transform="translate(0 5.017)">
        <path id="Path_459" data-name="Path 459" d="M-9695.361-3720.4l-1.693.447a18.358,18.358,0,0,1-3.771-4.949,16.48,16.48,0,0,1,1.122-2.7,16.378,16.378,0,0,1,.869-1.486c.271-.412.561-.815.861-1.2Z" transform="translate(9700.825 3730.286)" fill="#173647"/>
      </g>
      <g id="Group_1279" data-name="Group 1279" transform="translate(5.017 13.809)">
        <path id="Path_460" data-name="Path 460" d="M-9672.74-3697.492a18.355,18.355,0,0,1-4.95,3.772,16.537,16.537,0,0,1-2.7-1.122,16.337,16.337,0,0,1-1.485-.87c-.412-.271-.814-.561-1.2-.86l9.888-2.612Z" transform="translate(9683.076 3699.184)" fill="#173647"/>
      </g>
      <g id="Group_1280" data-name="Group 1280" transform="translate(13.811 3.923)">
        <path id="Path_461" data-name="Path 461" d="M-9646.5-3729.208a16.706,16.706,0,0,1-1.122,2.7,17.008,17.008,0,0,1-.871,1.485c-.271.413-.56.815-.86,1.2l-2.61-9.888,1.692-.447A18.34,18.34,0,0,1-9646.5-3729.208Z" transform="translate(9651.968 3734.158)" fill="#173647"/>
      </g>
    </g>
  </g>
</svg>
