<?xml version="1.0" encoding="utf-8"?>
<!-- Generator: Adobe Illustrator 23.0.3, SVG Export Plug-In . SVG Version: 6.00 Build 0)  -->
<svg version="1.1" id="Layer_1" xmlns="http://www.w3.org/2000/svg" xmlns:xlink="http://www.w3.org/1999/xlink" x="0px" y="0px"
	 viewBox="0 0 30 30" style="enable-background:new 0 0 30 30;" xml:space="preserve">
<style type="text/css">
	.st0{fill:none;stroke:#FF730B;stroke-width:0.5311;stroke-linecap:round;stroke-miterlimit:10;}
	.st1{fill-rule:evenodd;clip-rule:evenodd;fill:none;stroke:#758491;stroke-width:0.3;stroke-linecap:round;stroke-miterlimit:10;}
	.st2{fill:none;stroke:#758491;stroke-width:0.3;stroke-linecap:round;stroke-miterlimit:10;}
	.st3{fill:none;stroke:#758491;stroke-width:0.3983;stroke-linecap:round;stroke-miterlimit:10;}
	.st4{fill:none;stroke:#FF730B;stroke-width:1.0195;stroke-linecap:round;stroke-miterlimit:10;}
	.st5{fill:none;stroke:#758491;stroke-width:0.3339;stroke-linecap:round;stroke-miterlimit:10;}
	.st6{fill:none;stroke:#FF730B;stroke-width:0.942;stroke-linecap:round;stroke-miterlimit:10;}
	.st7{fill:none;stroke:#FF730B;stroke-width:0.3339;stroke-linecap:round;stroke-miterlimit:10;}
	.st8{fill:#FF730B;}
	.st9{fill:none;stroke:#515050;stroke-width:0.4452;stroke-linecap:round;stroke-miterlimit:10;}
	.st10{fill:none;stroke:#758491;stroke-width:0.3;stroke-miterlimit:10;}
	.st11{fill:none;stroke:#758491;stroke-width:0.3642;stroke-miterlimit:10;}
	.st12{opacity:0.6;fill:none;stroke:#758491;stroke-width:0.3;stroke-linecap:round;stroke-miterlimit:10;}
	.st13{opacity:0.3;fill:none;stroke:#758491;stroke-width:0.3;stroke-miterlimit:10;}
	.st14{fill:none;stroke:#FF730B;stroke-width:0.4856;stroke-linecap:round;stroke-miterlimit:10;}
</style>
<g>
	<path class="st2" d="M25.069,27.369c-0.189-0.617-0.454-1.171-0.816-1.57c-0.632-0.697-2.086-1.44-5.611-2.712
		c0,0-1.323-0.605-1.323-1.486l-0.011-1.227c0.59-0.89,0.98-2.39,0.98-2.39c0.446-0.111,1.057-0.604,1.307-1.543
		c0.381-1.434-0.517-1.875-0.517-1.875v-2.961c0-1.356-0.285-2.261-1.519-2.261c-0.328-0.549-1.303-0.904-2.35-0.904
		c-1.558,0-2.263,0.904-3.729,0.904c-0.648,0-0.668,1.078-0.666,2.241c0.001,1.218,0,2.981,0,2.981s-0.898,0.441-0.517,1.875
		c0.25,0.938,0.861,1.431,1.307,1.543c0,0,0.39,1.5,0.98,2.39c0,0,0,1.026,0,1.161c0,0.881-1.323,1.486-1.323,1.486
		c-3.526,1.272-4.979,2.015-5.611,2.712c-0.362,0.399-0.627,0.953-0.816,1.57"/>
	<g>
		<g>
			<g>
				<path class="st2" d="M9.344,11.042c-0.188-0.024-0.398-0.038-0.646-0.038h-0.59c-1.089,0-1.532,0.24-1.977,0.658
					c-0.908,0-0.92,0.659-0.92,1.647c0,0.658,0,2.157,0,2.157s-0.521,0.398-0.452,1.098c0.083,0.849,0.692,1.328,1.085,1.392
					c0,0-0.01,1.271,1.158,2.266c0,0.196,0,0.596,0,0.644c0,0.642-0.024,0.828-0.868,1.13c-1.78,0.637-2.933,1.09-3.634,1.477"/>
				<path class="st2" d="M10.684,21.881c-0.422-0.22-0.444-0.443-0.444-0.95c0-0.099,0-0.846,0-0.846"/>
				<path class="st2" d="M19.16,20.246c0.274,0.065,0.96,0.196,1.278,0.235c0,0.196,0,0.402,0,0.451c0,0.54-0.023,0.758-0.531,0.993
					"/>
				<path class="st2" d="M27.5,23.203c-0.701-0.387-0.941-0.504-2.721-1.141c-0.844-0.302-0.868-0.488-0.868-1.13
					c0-0.049,0-0.254,0-0.451c1.799-0.218,2.951-0.974,2.951-0.974s-1.25-1.217-1.25-4.164c0-2.371-1.621-3.92-3.438-3.952
					c-0.94-0.016-1.232,0.178-1.911,0.469"/>
			</g>
		</g>
	</g>
	<g>
		<g>
			<polyline class="st4" points="13.035,4.199 14.331,5.495 17.195,2.631 			"/>
		</g>
	</g>
	<g>
		<g>
			<polyline class="st4" points="20.929,4.199 22.225,5.495 25.089,2.631 			"/>
		</g>
	</g>
	<g>
		<g>
			<polyline class="st4" points="4.783,4.199 6.079,5.495 8.942,2.631 			"/>
		</g>
	</g>
</g>
</svg>
