<?xml version="1.0" encoding="utf-8"?>
<!-- Generator: Adobe Illustrator 23.0.3, SVG Export Plug-In . SVG Version: 6.00 Build 0)  -->
<svg version="1.1" id="Layer_1" xmlns="http://www.w3.org/2000/svg" xmlns:xlink="http://www.w3.org/1999/xlink" x="0px" y="0px"
	 viewBox="0 0 30 30" style="enable-background:new 0 0 30 30;" xml:space="preserve">
<style type="text/css">
	.st0{fill:none;stroke:#FF730B;stroke-width:0.5311;stroke-linecap:round;stroke-miterlimit:10;}
	.st1{fill-rule:evenodd;clip-rule:evenodd;fill:none;stroke:#758491;stroke-width:0.3;stroke-linecap:round;stroke-miterlimit:10;}
	.st2{fill:none;stroke:#758491;stroke-width:0.3;stroke-linecap:round;stroke-miterlimit:10;}
	.st3{fill:none;stroke:#758491;stroke-width:0.3983;stroke-linecap:round;stroke-miterlimit:10;}
	.st4{fill:none;stroke:#FF730B;stroke-width:1.0195;stroke-linecap:round;stroke-miterlimit:10;}
	.st5{fill:none;stroke:#758491;stroke-width:0.3339;stroke-linecap:round;stroke-miterlimit:10;}
	.st6{fill:none;stroke:#FF730B;stroke-width:0.942;stroke-linecap:round;stroke-miterlimit:10;}
	.st7{fill:none;stroke:#FF730B;stroke-width:0.3339;stroke-linecap:round;stroke-miterlimit:10;}
	.st8{fill:#FF730B;}
	.st9{fill:none;stroke:#515050;stroke-width:0.4452;stroke-linecap:round;stroke-miterlimit:10;}
	.st10{fill:none;stroke:#758491;stroke-width:0.3;stroke-miterlimit:10;}
	.st11{fill:none;stroke:#758491;stroke-width:0.3642;stroke-miterlimit:10;}
	.st12{opacity:0.6;fill:none;stroke:#758491;stroke-width:0.3;stroke-linecap:round;stroke-miterlimit:10;}
	.st13{opacity:0.3;fill:none;stroke:#758491;stroke-width:0.3;stroke-miterlimit:10;}
	.st14{fill:none;stroke:#FF730B;stroke-width:0.4856;stroke-linecap:round;stroke-miterlimit:10;}
</style>
<g>
	<g>
		<g>
			<line class="st5" x1="25.459" y1="16.818" x2="25.459" y2="21.155"/>
			<line class="st5" x1="25.459" y1="21.25" x2="25.459" y2="23.418"/>
			<path class="st2" d="M12.618,19.725l-8.857-3.189c-1.681-0.605-1.681-1.595,0-2.2l8.857-3.189c1.31-0.472,3.454-0.472,4.764,0
				l8.857,3.189c1.681,0.605,1.681,1.595,0,2.2l-8.857,3.189C16.072,20.197,13.928,20.197,12.618,19.725z"/>
			<g>
				<path class="st2" d="M7.504,17.945v3.12c0,1.329,0.842,2.527,2.407,3.209c0,0,1.804,0.842,5.095,0.842h-0.01
					c3.29,0,5.095-0.842,5.095-0.842c1.564-0.682,2.407-1.88,2.407-3.209v-3.12"/>
			</g>
		</g>
	</g>
	<g>
		<g>
			<line class="st6" x1="7.853" y1="6.83" x2="9.112" y2="8.17"/>
			<line class="st6" x1="12.37" y1="4.908" x2="12.949" y2="6.547"/>
		</g>
		<line class="st6" x1="21.594" y1="6.806" x2="20.336" y2="8.146"/>
		<line class="st6" x1="17.077" y1="4.884" x2="16.498" y2="6.523"/>
	</g>
</g>
</svg>
