<?xml version="1.0" encoding="utf-8"?>
<!-- Generator: Adobe Illustrator 23.0.3, SVG Export Plug-In . SVG Version: 6.00 Build 0)  -->
<svg version="1.1" id="Layer_1" xmlns="http://www.w3.org/2000/svg" xmlns:xlink="http://www.w3.org/1999/xlink" x="0px" y="0px"
	 viewBox="0 0 30 30" style="enable-background:new 0 0 30 30;" xml:space="preserve">
<style type="text/css">
	.st0{fill:none;stroke:#FF730B;stroke-width:0.5311;stroke-linecap:round;stroke-miterlimit:10;}
	.st1{fill-rule:evenodd;clip-rule:evenodd;fill:none;stroke:#758491;stroke-width:0.3;stroke-linecap:round;stroke-miterlimit:10;}
	.st2{fill:none;stroke:#758491;stroke-width:0.3;stroke-linecap:round;stroke-miterlimit:10;}
	.st3{fill:none;stroke:#758491;stroke-width:0.3983;stroke-linecap:round;stroke-miterlimit:10;}
	.st4{fill:none;stroke:#FF730B;stroke-width:1.0195;stroke-linecap:round;stroke-miterlimit:10;}
	.st5{fill:none;stroke:#758491;stroke-width:0.3339;stroke-linecap:round;stroke-miterlimit:10;}
	.st6{fill:none;stroke:#FF730B;stroke-width:0.942;stroke-linecap:round;stroke-miterlimit:10;}
	.st7{fill:none;stroke:#FF730B;stroke-width:0.3339;stroke-linecap:round;stroke-miterlimit:10;}
	.st8{fill:#FF730B;}
	.st9{fill:none;stroke:#515050;stroke-width:0.4452;stroke-linecap:round;stroke-miterlimit:10;}
	.st10{fill:none;stroke:#758491;stroke-width:0.3;stroke-miterlimit:10;}
	.st11{fill:none;stroke:#758491;stroke-width:0.3642;stroke-miterlimit:10;}
	.st12{opacity:0.6;fill:none;stroke:#758491;stroke-width:0.3;stroke-linecap:round;stroke-miterlimit:10;}
	.st13{opacity:0.3;fill:none;stroke:#758491;stroke-width:0.3;stroke-miterlimit:10;}
	.st14{fill:none;stroke:#FF730B;stroke-width:0.4856;stroke-linecap:round;stroke-miterlimit:10;}
</style>
<g>
	<g>
		<g>
			<path class="st2" d="M6.993,20.067l3.307,4.932c1.238,1.846,3.641,2.424,5.341,1.285l9.419-6.316
				c0.469-0.315,0.798-0.805,0.924-1.378l1.465-6.673c0.278-1.267-0.61-2.583-1.888-2.799L18.87,7.984
				c-0.574-0.097-1.147,0.021-1.613,0.334l-9.425,6.32C6.132,15.778,5.755,18.22,6.993,20.067z"/>
			<circle class="st11" cx="21.137" cy="14.296" r="2.248"/>
			<path class="st12" d="M24.878,7.222c-0.319-0.481-0.837-0.829-1.462-0.908l-5.797-0.737c-1-0.127-2.012,0.112-2.849,0.673
				l-8.85,5.934c-1.699,1.14-2.157,3.462-1.018,5.162"/>
			<path class="st13" d="M23.092,4.798c-0.319-0.473-0.833-0.816-1.453-0.894l-5.815-0.739c-0.988-0.126-1.989,0.111-2.816,0.666
				L4.144,9.775c-1.699,1.14-2.157,3.462-1.018,5.162"/>
		</g>
	</g>
	<g>
		<g>
			<path class="st14" d="M14.885,16.752c-0.083-0.094-0.173-0.176-0.269-0.245c-0.152-0.11-0.312-0.185-0.481-0.225
				c-0.169-0.04-0.343-0.041-0.523-0.003c-0.179,0.038-0.358,0.12-0.537,0.245c-0.179,0.126-0.317,0.261-0.416,0.406
				c-0.098,0.145-0.161,0.293-0.188,0.444c-0.027,0.151-0.023,0.301,0.014,0.451c0.037,0.149,0.102,0.291,0.195,0.423
				c0.088,0.126,0.19,0.227,0.303,0.304c0.114,0.077,0.248,0.128,0.403,0.153c0.155,0.025,0.334,0.024,0.538-0.002
				c0.204-0.026,0.533-0.116,0.533-0.116c0.281-0.082,0.525-0.139,0.732-0.169c0.207-0.03,0.387-0.031,0.543-0.003
				c0.155,0.028,0.291,0.085,0.407,0.171c0.116,0.086,0.226,0.201,0.328,0.346c0.105,0.15,0.175,0.303,0.208,0.461
				c0.033,0.157,0.032,0.312-0.003,0.465c-0.035,0.153-0.104,0.301-0.207,0.444c-0.103,0.143-0.24,0.274-0.409,0.393
				c-0.15,0.105-0.313,0.19-0.491,0.253c-0.177,0.064-0.359,0.09-0.543,0.079c-0.185-0.011-0.367-0.066-0.548-0.167
				c-0.128-0.071-0.25-0.172-0.365-0.304"/>
		</g>
		<g>
			<line class="st14" x1="13.087" y1="16.511" x2="12.623" y2="15.852"/>
		</g>
		<g>
			<line class="st14" x1="16.517" y1="21.384" x2="16.053" y2="20.725"/>
		</g>
	</g>
</g>
</svg>
