<?xml version="1.0" encoding="utf-8"?>
<!-- Generator: Adobe Illustrator 23.0.3, SVG Export Plug-In . SVG Version: 6.00 Build 0)  -->
<svg version="1.1" id="Layer_1" xmlns="http://www.w3.org/2000/svg" xmlns:xlink="http://www.w3.org/1999/xlink" x="0px" y="0px"
	 viewBox="0 0 30 30" style="enable-background:new 0 0 30 30;" xml:space="preserve">
<style type="text/css">
	.st0{fill:none;stroke:#FF730B;stroke-width:0.5311;stroke-linecap:round;stroke-miterlimit:10;}
	.st1{fill-rule:evenodd;clip-rule:evenodd;fill:none;stroke:#758491;stroke-width:0.3;stroke-linecap:round;stroke-miterlimit:10;}
	.st2{fill:none;stroke:#758491;stroke-width:0.3;stroke-linecap:round;stroke-miterlimit:10;}
	.st3{fill:none;stroke:#758491;stroke-width:0.3983;stroke-linecap:round;stroke-miterlimit:10;}
	.st4{fill:none;stroke:#FF730B;stroke-width:1.0195;stroke-linecap:round;stroke-miterlimit:10;}
	.st5{fill:none;stroke:#758491;stroke-width:0.3339;stroke-linecap:round;stroke-miterlimit:10;}
	.st6{fill:none;stroke:#FF730B;stroke-width:0.942;stroke-linecap:round;stroke-miterlimit:10;}
	.st7{fill:none;stroke:#FF730B;stroke-width:0.3339;stroke-linecap:round;stroke-miterlimit:10;}
	.st8{fill:#FF730B;}
	.st9{fill:none;stroke:#515050;stroke-width:0.4452;stroke-linecap:round;stroke-miterlimit:10;}
	.st10{fill:none;stroke:#758491;stroke-width:0.3;stroke-miterlimit:10;}
	.st11{fill:none;stroke:#758491;stroke-width:0.3642;stroke-miterlimit:10;}
	.st12{opacity:0.6;fill:none;stroke:#758491;stroke-width:0.3;stroke-linecap:round;stroke-miterlimit:10;}
	.st13{opacity:0.3;fill:none;stroke:#758491;stroke-width:0.3;stroke-miterlimit:10;}
	.st14{fill:none;stroke:#FF730B;stroke-width:0.4856;stroke-linecap:round;stroke-miterlimit:10;}
</style>
<g>
	<g>
		<circle class="st0" cx="12.472" cy="15" r="2.009"/>
		<line class="st0" x1="14.481" y1="14.747" x2="19.537" y2="14.747"/>
		<line class="st0" x1="18.776" y1="14.847" x2="18.776" y2="16.267"/>
		<line class="st0" x1="17.606" y1="14.787" x2="17.606" y2="15.73"/>
	</g>
	<path class="st1" d="M5.186,10.952c-0.312,0.755-0.539,1.553-0.67,2.382l-1.652,0.764c-0.23,0.106-0.374,0.341-0.363,0.594
		l0.064,1.608c0.01,0.253,0.172,0.476,0.409,0.563l1.707,0.63c0.196,0.816,0.486,1.593,0.857,2.322l-0.887,1.588
		c-0.124,0.221-0.102,0.495,0.055,0.694l0.997,1.264c0.157,0.199,0.418,0.284,0.662,0.215l1.754-0.495
		c0.627,0.534,1.317,0.996,2.055,1.374l-1.059-0.621c0.348,0.232,0.705,0.44,1.069,0.625l0.218,1.809
		c0.03,0.252,0.209,0.46,0.453,0.529l1.55,0.434c0.244,0.068,0.505-0.017,0.662-0.216l1.126-1.431
		c0.828,0.062,1.657,0.027,2.47-0.102l1.24,1.336c0.172,0.186,0.44,0.249,0.677,0.161l1.509-0.559
		c0.238-0.088,0.399-0.311,0.409-0.564l0.07-1.818c0.696-0.428,1.348-0.941,1.941-1.535l1.786,0.351
		c0.249,0.049,0.502-0.057,0.643-0.268l0.892-1.34c0.141-0.211,0.14-0.486-0.001-0.696l-1.013-1.512
		c0.32-0.776,0.542-1.575,0.669-2.383l1.651-0.765c0.23-0.107,0.373-0.341,0.363-0.594l-0.066-1.608
		c-0.01-0.253-0.172-0.475-0.41-0.563l-1.71-0.629c-0.194-0.801-0.481-1.579-0.858-2.319l0.886-1.59
		c0.123-0.221,0.101-0.495-0.056-0.694l-0.998-1.263c-0.157-0.199-0.419-0.283-0.663-0.214l-1.753,0.496
		c-0.311-0.264-0.641-0.513-0.989-0.745c-0.348-0.232-0.705-0.44-1.069-0.625l-0.218-1.809c-0.03-0.252-0.209-0.46-0.453-0.529
		l-1.55-0.435C17.35,2.7,17.088,2.786,16.932,2.985l-1.126,1.431c-0.828-0.062-1.656-0.027-2.47,0.102l-1.24-1.336
		c-0.172-0.186-0.44-0.249-0.677-0.161L9.909,3.58C9.671,3.668,9.51,3.891,9.5,4.144L9.43,5.962C8.734,6.391,8.082,6.904,7.49,7.498
		L5.704,7.146C5.455,7.097,5.201,7.203,5.061,7.414l-0.892,1.34C4.028,8.965,4.029,9.239,4.17,9.45l1.013,1.512
		c-0.32,0.776-0.542,1.575-0.669,2.383"/>
</g>
</svg>
