<?xml version="1.0" encoding="utf-8"?>
<!-- Generator: Adobe Illustrator 23.0.3, SVG Export Plug-In . SVG Version: 6.00 Build 0)  -->
<svg version="1.1" id="Layer_1" xmlns="http://www.w3.org/2000/svg" xmlns:xlink="http://www.w3.org/1999/xlink" x="0px" y="0px"
	 viewBox="0 0 30 30" style="enable-background:new 0 0 30 30;" xml:space="preserve">
<style type="text/css">
	.st0{fill:none;stroke:#FF730B;stroke-width:0.5311;stroke-linecap:round;stroke-miterlimit:10;}
	.st1{fill-rule:evenodd;clip-rule:evenodd;fill:none;stroke:#758491;stroke-width:0.3;stroke-linecap:round;stroke-miterlimit:10;}
	.st2{fill:none;stroke:#758491;stroke-width:0.3;stroke-linecap:round;stroke-miterlimit:10;}
	.st3{fill:none;stroke:#758491;stroke-width:0.3983;stroke-linecap:round;stroke-miterlimit:10;}
	.st4{fill:none;stroke:#FF730B;stroke-width:1.0195;stroke-linecap:round;stroke-miterlimit:10;}
	.st5{fill:none;stroke:#758491;stroke-width:0.3339;stroke-linecap:round;stroke-miterlimit:10;}
	.st6{fill:none;stroke:#FF730B;stroke-width:0.942;stroke-linecap:round;stroke-miterlimit:10;}
	.st7{fill:none;stroke:#FF730B;stroke-width:0.3339;stroke-linecap:round;stroke-miterlimit:10;}
	.st8{fill:#FF730B;}
	.st9{fill:none;stroke:#515050;stroke-width:0.4452;stroke-linecap:round;stroke-miterlimit:10;}
	.st10{fill:none;stroke:#758491;stroke-width:0.3;stroke-miterlimit:10;}
	.st11{fill:none;stroke:#758491;stroke-width:0.3642;stroke-miterlimit:10;}
	.st12{opacity:0.6;fill:none;stroke:#758491;stroke-width:0.3;stroke-linecap:round;stroke-miterlimit:10;}
	.st13{opacity:0.3;fill:none;stroke:#758491;stroke-width:0.3;stroke-miterlimit:10;}
	.st14{fill:none;stroke:#FF730B;stroke-width:0.4856;stroke-linecap:round;stroke-miterlimit:10;}
</style>
<g>
	<g>
		<g>
			<g>
				<path class="st2" d="M6.387,24.624h17.226c1.645,0,2.991-1.389,2.991-3.087V8.463c0-1.698-1.346-3.087-2.991-3.087H6.387
					c-1.645,0-2.991,1.389-2.991,3.087l0,13.074C3.396,23.242,4.735,24.624,6.387,24.624z"/>
				<g>
					<g>
						<g>
							<line class="st2" x1="26.5" y1="10.293" x2="3.518" y2="10.293"/>
						</g>
					</g>
				</g>
			</g>
		</g>
	</g>
	<path class="st8" d="M15.847,19.628h-1.673l-0.297,0.914h2.267L15.847,19.628z M20.334,20.543l-0.878-2.701l0.567-1.745
		l-2.108-1.532l-1.485,1.079h-2.839l-1.485-1.079l-2.108,1.532l0.567,1.745l-0.878,2.701h2.769L12.24,19.88l2.77-2.012l2.769,2.012
		l-0.215,0.663H20.334z M14.173,19.628l-0.297,0.914h2.267l-0.297-0.914H14.173z M15.847,19.628h-1.673l-0.297,0.914h2.267
		L15.847,19.628z"/>
</g>
</svg>
