<svg id="Group_1338" data-name="Group 1338" xmlns="http://www.w3.org/2000/svg" width="95.633" height="30.104" viewBox="0 0 95.633 30.104">
  <g id="Group_1265" data-name="Group 1265" transform="translate(34.974 11.38)">
    <g id="Group_1264" data-name="Group 1264" transform="translate(0 0)">
      <path id="Path_413" data-name="Path 413" d="M-6513.043-6359.217h-1.6v-6.457h-7.227v6.457h-1.6v-13.723h1.6v5.839h7.227v-5.839h1.6Z" transform="translate(6523.461 6373.324)" fill="#173647"/>
      <path id="Path_414" data-name="Path 414" d="M-6476.356-6373.268a1.038,1.038,0,0,1,.263-.784.922.922,0,0,1,.657-.248.917.917,0,0,1,.648.253,1.016,1.016,0,0,1,.272.779,1.03,1.03,0,0,1-.272.783.905.905,0,0,1-.648.259.9.9,0,0,1-.657-.259A1.052,1.052,0,0,1-6476.356-6373.268Zm1.69,13.074h-1.558v-10.286h1.558Z" transform="translate(6489.672 6374.3)" fill="#173647"/>
      <path id="Path_415" data-name="Path 415" d="M-6455.747-6350.788a4.453,4.453,0,0,1-1.835-.37,3.462,3.462,0,0,1-1.394-1.141h-.113a13.68,13.68,0,0,1,.113,1.708v4.232h-1.558v-14.9h1.267l.216,1.407h.075a3.613,3.613,0,0,1,1.4-1.219,4.243,4.243,0,0,1,1.831-.376,3.8,3.8,0,0,1,3.159,1.4,6.161,6.161,0,0,1,1.112,3.924,6.123,6.123,0,0,1-1.131,3.938A3.809,3.809,0,0,1-6455.747-6350.788Zm-.225-9.339a2.759,2.759,0,0,0-2.281.873,4.487,4.487,0,0,0-.723,2.778v.348a5.145,5.145,0,0,0,.723,3.1,2.748,2.748,0,0,0,2.318.934,2.409,2.409,0,0,0,2.088-1.079,5.122,5.122,0,0,0,.756-2.976,4.926,4.926,0,0,0-.756-2.951A2.481,2.481,0,0,0-6455.971-6360.127Z" transform="translate(6478.322 6365.083)" fill="#173647"/>
      <path id="Path_416" data-name="Path 416" d="M-6424.853-6359.217h-1.595v-12.306h-4.347v-1.417h10.287v1.417h-4.346Z" transform="translate(6456.99 6373.324)" fill="#173647"/>
      <path id="Path_417" data-name="Path 417" d="M-6392.19-6350.788a4.727,4.727,0,0,1-3.6-1.389,5.38,5.38,0,0,1-1.319-3.857,5.959,5.959,0,0,1,1.226-3.952,4.067,4.067,0,0,1,3.29-1.464,3.88,3.88,0,0,1,3.06,1.271,4.874,4.874,0,0,1,1.126,3.355v.985h-7.086a4.076,4.076,0,0,0,.915,2.75,3.165,3.165,0,0,0,2.445.939,8.288,8.288,0,0,0,3.285-.7v1.39a8.282,8.282,0,0,1-1.563.512A8.833,8.833,0,0,1-6392.19-6350.788Zm-.423-9.357a2.547,2.547,0,0,0-1.975.807,3.724,3.724,0,0,0-.869,2.234h5.378a3.43,3.43,0,0,0-.657-2.258A2.313,2.313,0,0,0-6392.613-6360.146Z" transform="translate(6432.826 6365.083)" fill="#173647"/>
      <path id="Path_418" data-name="Path 418" d="M-6353.208-6353.782a2.578,2.578,0,0,1-1.07,2.216,5.034,5.034,0,0,1-3,.778,6.53,6.53,0,0,1-3.191-.647v-1.445a7.7,7.7,0,0,0,1.591.591,6.618,6.618,0,0,0,1.638.217,3.713,3.713,0,0,0,1.877-.391,1.289,1.289,0,0,0,.657-1.187,1.289,1.289,0,0,0-.521-1.027,8.236,8.236,0,0,0-2.032-1.009,11.032,11.032,0,0,1-2.042-.934,2.8,2.8,0,0,1-.9-.905,2.368,2.368,0,0,1-.3-1.212,2.308,2.308,0,0,1,1.023-1.984,4.764,4.764,0,0,1,2.806-.728,8.22,8.22,0,0,1,3.248.676l-.554,1.268a7.453,7.453,0,0,0-2.807-.639,3.228,3.228,0,0,0-1.67.347,1.076,1.076,0,0,0-.563.957,1.169,1.169,0,0,0,.211.705,2.081,2.081,0,0,0,.68.553,14.972,14.972,0,0,0,1.8.761,6.726,6.726,0,0,1,2.474,1.343A2.367,2.367,0,0,1-6353.208-6353.782Z" transform="translate(6406.567 6365.083)" fill="#173647"/>
      <path id="Path_419" data-name="Path 419" d="M-6325.738-6357.647a5.06,5.06,0,0,0,.8-.062,5.373,5.373,0,0,0,.609-.126v1.191a2.838,2.838,0,0,1-.746.2,5.54,5.54,0,0,1-.887.08q-2.985,0-2.984-3.144v-6.12h-1.474v-.75l1.474-.647.657-2.2h.9v2.385h2.984v1.21h-2.984v6.054a2.083,2.083,0,0,0,.441,1.427A1.534,1.534,0,0,0-6325.738-6357.647Z" transform="translate(6384.99 6370.656)" fill="#173647"/>
    </g>
  </g>
  <g id="Group_1268" data-name="Group 1268" transform="translate(34.316 1.307)">
    <g id="Group_1267" data-name="Group 1267" transform="translate(0 0)">
      <g id="Group_1266" data-name="Group 1266">
        <path id="Path_420" data-name="Path 420" d="M-6521.919-6408.921s-1.242-.142-1.756-.142c-.746,0-1.127.267-1.127.79,0,.568.319.7,1.357.984,1.277.354,1.739.692,1.739,1.73a1.782,1.782,0,0,1-2.032,1.907,12.927,12.927,0,0,1-1.987-.24l.1-.79s1.2.16,1.828.16c.755,0,1.1-.337,1.1-.976,0-.515-.275-.692-1.207-.914-1.313-.337-1.881-.737-1.881-1.792,0-1.225.808-1.73,2.023-1.73a13.44,13.44,0,0,1,1.926.213Z" transform="translate(6525.788 6409.932)" fill="#173647"/>
        <path id="Path_421" data-name="Path 421" d="M-6502.991-6409.557h1.712l1.357,4.747,1.358-4.747h1.721v6.078h-.994v-5.253h-.052l-1.519,5h-1.029l-1.519-5h-.052v5.253h-.984Z" transform="translate(6509.436 6409.663)" fill="#173647"/>
        <path id="Path_422" data-name="Path 422" d="M-6427.275-6409.557h4.437v.878h-1.712v5.2h-.994v-5.2h-1.73Z" transform="translate(6455.123 6409.663)" fill="#173647"/>
        <path id="Path_423" data-name="Path 423" d="M-6402.274-6409.557c1.207,0,1.855.452,1.855,1.579a1.335,1.335,0,0,1-.719,1.367,1.31,1.31,0,0,1,.869,1.41c0,1.242-.754,1.722-1.934,1.722h-2.378v-6.078Zm-1.322.852v1.739h1.3c.6,0,.869-.3.869-.9s-.3-.843-.905-.843Zm0,2.573v1.8h1.34c.612,0,.976-.2.976-.923,0-.692-.515-.879-.994-.879Z" transform="translate(6438.844 6409.663)" fill="#173647"/>
        <path id="Path_424" data-name="Path 424" d="M-6380.688-6409.557h3.833v.861h-2.849v1.721h2.316v.843h-2.316v1.784h2.849v.869h-3.833Z" transform="translate(6421.706 6409.663)" fill="#173647"/>
        <path id="Path_425" data-name="Path 425" d="M-6358.439-6409.557h1.961l1.508,6.078h-.994l-.449-1.783h-2.093l-.448,1.783h-.985Zm.131,3.425h1.705l-.629-2.6h-.443Z" transform="translate(6406.821 6409.663)" fill="#173647"/>
        <path id="Path_426" data-name="Path 426" d="M-6333.622-6405.28v1.8h-.985v-6.078h2.308a1.885,1.885,0,0,1,2.058,2.116,2.05,2.05,0,0,1-.993,1.938l1,2.023h-1.083l-.878-1.8Zm1.323-3.425h-1.323v2.573h1.341c.745,0,1.029-.67,1.029-1.3C-6331.252-6408.124-6331.589-6408.705-6332.3-6408.705Z" transform="translate(6388.649 6409.663)" fill="#173647"/>
        <path id="Path_427" data-name="Path 427" d="M-6472.142-6409.557h1.961l1.508,6.078h-.994l-.449-1.783h-2.092l-.449,1.783h-.985Zm.131,3.425h1.706l-.629-2.6h-.444Z" transform="translate(6488.382 6409.663)" fill="#173647"/>
        <path id="Path_428" data-name="Path 428" d="M-6447.323-6405.28v1.8h-.985v-6.078H-6446a1.885,1.885,0,0,1,2.059,2.116,2.05,2.05,0,0,1-.994,1.938l1,2.023h-1.083l-.878-1.8Zm1.322-3.425h-1.322v2.573h1.34c.745,0,1.029-.67,1.029-1.3C-6444.954-6408.124-6445.291-6408.705-6446-6408.705Z" transform="translate(6470.211 6409.663)" fill="#173647"/>
      </g>
    </g>
  </g>
  <g id="Group_1291" data-name="Group 1291" transform="translate(0 0)">
    <g id="Group_1285" data-name="Group 1285" transform="translate(0)">
      <g id="Group_1283" data-name="Group 1283" transform="translate(0.707 0.707)">
        <rect id="Rectangle_1306" data-name="Rectangle 1306" width="25.466" height="25.47" fill="#50e4ea"/>
      </g>
      <g id="Group_1284" data-name="Group 1284">
        <path id="Path_462" data-name="Path 462" d="M-6621.719-6413.143v24.057h-24.053v-24.057h24.053m1.413-1.414h-26.88v26.884h26.88v-26.884Z" transform="translate(6647.186 6414.557)" fill="#173647"/>
      </g>
    </g>
    <g id="Group_1290" data-name="Group 1290" transform="translate(6.328 5.277)">
      <g id="Group_1289" data-name="Group 1289">
        <g id="Group_1288" data-name="Group 1288">
          <g id="Group_1287" data-name="Group 1287">
            <g id="Group_1286" data-name="Group 1286">
              <path id="Path_463" data-name="Path 463" d="M-6606.872-6360.2c-.012.987,0,1.973,0,2.959C-6606.863-6358.508-6606.872-6360.2-6606.872-6360.2Z" transform="translate(6611.943 6370.286)" fill="#173647"/>
              <path id="Path_464" data-name="Path 464" d="M-6610.583-6382a2.552,2.552,0,0,1-3.26,2.333,2.516,2.516,0,0,1-1.842-2.644c-.011-.924.02-2.955.02-2.955s1.044.211,1.583.338c0,.828,0,1.654,0,2.479a2.962,2.962,0,0,0,.05.565.817.817,0,0,0,.736.7.849.849,0,0,0,.989-.58,2,2,0,0,0,.084-.6c.009-.734,0-3.314,0-3.314s-2.93-.632-3.83-.823-1.8-.368-2.7-.565c-1.057-.231-2.11-.476-3.165-.718-.344-.079-2.874-.7-2.874-.7s-.026-3.938,0-5.011a2.455,2.455,0,0,1,2.161-2.364,2.507,2.507,0,0,1,2.727,1.7,4.186,4.186,0,0,1,.157,1.081c.017.938-.008,2.971-.008,2.971l-1.606-.327s0-2.059-.011-2.916a.9.9,0,0,0-.643-.888.9.9,0,0,0-1.046.431,1.292,1.292,0,0,0-.139.579c-.011.884,0,3.523,0,3.523s3.618.8,4.964,1.1c1.136.249,2.277.477,3.412.734.857.195,4.217,1.038,4.217,1.038S-6610.573-6383-6610.583-6382Z" transform="translate(6624.794 6395.89)" fill="#173647"/>
              <path id="Path_465" data-name="Path 465" d="M-6619.731-6360.866c0,.116,0,.23,0,.337,0,.133,0,.259-.007.373a2.525,2.525,0,0,1-2.693,2.569,2.51,2.51,0,0,1-2.347-2.322c-.035-1.291-.008-5.346-.008-5.346s1.122.275,1.579.345c0,1.089,0,2.16,0,3.231,0,.569-.009,1.141.049,1.7a.844.844,0,0,0,1,.767.869.869,0,0,0,.8-.91c.009-1.359,0-4.4,0-4.4l1.628.351S-6619.719-6362.138-6619.731-6360.866Z" transform="translate(6624.799 6373.915)" fill="#173647"/>
              <path id="Path_466" data-name="Path 466" d="M-6587.416-6388.113s-.709-.206-1.645-.459v-.833c0-1.277.006-2.555,0-3.832a.91.91,0,0,0-1-1.007.918.918,0,0,0-.859,1.029c-.013,1.277,0,2.555,0,3.832v.429l-1.587-.322s0-.385,0-.613c.008-1.222,0-2.445.031-3.667a2.533,2.533,0,0,1,3.12-2.236,2.653,2.653,0,0,1,1.922,2.6C-6587.438-6392.094-6587.416-6388.113-6587.416-6388.113Z" transform="translate(6601.639 6395.877)" fill="#173647"/>
            </g>
          </g>
        </g>
      </g>
    </g>
  </g>
</svg>
