<svg id="Group_1336" data-name="Group 1336" xmlns="http://www.w3.org/2000/svg" width="118.383" height="30.104" viewBox="0 0 118.383 30.104">
  <g id="Group_1260" data-name="Group 1260" transform="translate(34.974 10.882)">
    <g id="Group_1259" data-name="Group 1259" transform="translate(0 0)">
      <path id="Path_395" data-name="Path 395" d="M-6523.461-3706.155v-13.722h1.6v12.277h6.054v1.445Z" transform="translate(6523.461 3720.759)" fill="#173647"/>
      <path id="Path_396" data-name="Path 396" d="M-6483.257-3703.067a5.675,5.675,0,0,1-1.268,3.928,4.462,4.462,0,0,1-3.5,1.412,4.635,4.635,0,0,1-2.449-.647,4.271,4.271,0,0,1-1.652-1.858,6.467,6.467,0,0,1-.582-2.834,5.665,5.665,0,0,1,1.258-3.919,4.447,4.447,0,0,1,3.491-1.4,4.352,4.352,0,0,1,3.431,1.436A5.651,5.651,0,0,1-6483.257-3703.067Zm-7.838,0a4.883,4.883,0,0,0,.788,3,2.737,2.737,0,0,0,2.318,1.033,2.755,2.755,0,0,0,2.323-1.028,4.854,4.854,0,0,0,.793-3.008,4.778,4.778,0,0,0-.793-2.98,2.787,2.787,0,0,0-2.342-1.018,2.74,2.74,0,0,0-2.309,1A4.833,4.833,0,0,0-6491.095-3703.067Z" transform="translate(6501.402 3712.519)" fill="#173647"/>
      <path id="Path_397" data-name="Path 397" d="M-6446.482-3697.866l-.31-1.464h-.075a4.329,4.329,0,0,1-1.535,1.309,4.677,4.677,0,0,1-1.909.343,3.436,3.436,0,0,1-2.4-.788,2.875,2.875,0,0,1-.868-2.243q0-3.116,4.983-3.266l1.746-.057v-.638a2.607,2.607,0,0,0-.521-1.788,2.138,2.138,0,0,0-1.665-.577,6.791,6.791,0,0,0-2.91.788l-.479-1.192a7.3,7.3,0,0,1,1.666-.648,7.221,7.221,0,0,1,1.816-.235,3.919,3.919,0,0,1,2.727.816,3.411,3.411,0,0,1,.887,2.619v7.021Zm-3.52-1.1a3.164,3.164,0,0,0,2.285-.8,2.952,2.952,0,0,0,.831-2.234v-.929l-1.559.066a5.672,5.672,0,0,0-2.68.577,1.74,1.74,0,0,0-.821,1.591,1.6,1.6,0,0,0,.512,1.286A2.123,2.123,0,0,0-6450-3698.965Z" transform="translate(6473.333 3712.471)" fill="#173647"/>
      <path id="Path_398" data-name="Path 398" d="M-6408.935-3709.774h-.085a3.661,3.661,0,0,1-3.229,1.567,3.821,3.821,0,0,1-3.14-1.379,6.075,6.075,0,0,1-1.121-3.924,6.177,6.177,0,0,1,1.125-3.951,3.792,3.792,0,0,1,3.136-1.408,3.744,3.744,0,0,1,3.21,1.521h.123l-.066-.741-.038-.723V-3723h1.558v14.6h-1.267Zm-3.117.263a2.836,2.836,0,0,0,2.313-.868,4.383,4.383,0,0,0,.718-2.8v-.328a5.167,5.167,0,0,0-.727-3.121,2.765,2.765,0,0,0-2.323-.934,2.385,2.385,0,0,0-2.1,1.065,5.3,5.3,0,0,0-.727,3.008,5.077,5.077,0,0,0,.723,2.975A2.446,2.446,0,0,0-6412.052-3709.511Z" transform="translate(6446.743 3722.998)" fill="#173647"/>
      <path id="Path_399" data-name="Path 399" d="M-6363.157-3706.155h-1.82l-7.5-11.516h-.075q.149,2.027.149,3.717v7.8h-1.474v-13.722h1.8l7.48,11.469h.075q-.018-.253-.084-1.628t-.047-1.966v-7.875h1.492Z" transform="translate(6416.161 3720.759)" fill="#173647"/>
      <path id="Path_400" data-name="Path 400" d="M-6325.72-3720.206a1.035,1.035,0,0,1,.263-.784.921.921,0,0,1,.658-.249.918.918,0,0,1,.647.253,1.015,1.015,0,0,1,.272.779,1.031,1.031,0,0,1-.272.784.908.908,0,0,1-.647.258.9.9,0,0,1-.658-.258A1.053,1.053,0,0,1-6325.72-3720.206Zm1.689,13.075h-1.558v-10.287h1.558Z" transform="translate(6381.618 3721.736)" fill="#173647"/>
      <path id="Path_401" data-name="Path 401" d="M-6302.86-3697.915v-6.654a2.686,2.686,0,0,0-.572-1.877,2.332,2.332,0,0,0-1.792-.619,2.956,2.956,0,0,0-2.365.873,4.4,4.4,0,0,0-.752,2.881v5.4h-1.558V-3708.2h1.267l.255,1.408h.074a3.175,3.175,0,0,1,1.343-1.178,4.357,4.357,0,0,1,1.924-.418,3.91,3.91,0,0,1,2.8.9,3.818,3.818,0,0,1,.938,2.867v6.711Z" transform="translate(6370.27 3712.519)" fill="#173647"/>
      <path id="Path_402" data-name="Path 402" d="M-6278.089-3702.514a3.755,3.755,0,0,1-1.446-.234v-1.267a4.573,4.573,0,0,0,1.277.188,1.341,1.341,0,0,0,1.074-.4,1.828,1.828,0,0,0,.343-1.215v-11.976h1.558v11.863Q-6275.283-3702.514-6278.089-3702.514Zm1.117-17.692a1.035,1.035,0,0,1,.262-.784.921.921,0,0,1,.657-.249.918.918,0,0,1,.647.253,1.013,1.013,0,0,1,.272.779,1.029,1.029,0,0,1-.272.784.908.908,0,0,1-.647.258.9.9,0,0,1-.657-.258A1.053,1.053,0,0,1-6276.973-3720.206Z" transform="translate(6348.489 3721.736)" fill="#173647"/>
      <path id="Path_403" data-name="Path 403" d="M-6250.487-3697.866l-.31-1.464h-.075a4.332,4.332,0,0,1-1.535,1.309,4.682,4.682,0,0,1-1.91.343,3.437,3.437,0,0,1-2.4-.788,2.877,2.877,0,0,1-.868-2.243q0-3.116,4.984-3.266l1.746-.057v-.638a2.607,2.607,0,0,0-.521-1.788,2.14,2.14,0,0,0-1.666-.577,6.787,6.787,0,0,0-2.91.788l-.479-1.192a7.324,7.324,0,0,1,1.666-.648,7.227,7.227,0,0,1,1.816-.235,3.917,3.917,0,0,1,2.727.816,3.409,3.409,0,0,1,.887,2.619v7.021Zm-3.52-1.1a3.165,3.165,0,0,0,2.286-.8,2.952,2.952,0,0,0,.83-2.234v-.929l-1.558.066a5.669,5.669,0,0,0-2.68.577,1.741,1.741,0,0,0-.821,1.591,1.607,1.607,0,0,0,.511,1.286A2.124,2.124,0,0,0-6254.007-3698.965Z" transform="translate(6332.742 3712.471)" fill="#173647"/>
    </g>
  </g>
  <g id="Group_1263" data-name="Group 1263" transform="translate(34.316 1.307)">
    <g id="Group_1262" data-name="Group 1262" transform="translate(0 0)">
      <g id="Group_1261" data-name="Group 1261">
        <path id="Path_404" data-name="Path 404" d="M-6521.919-3755.86s-1.242-.142-1.756-.142c-.746,0-1.127.266-1.127.79,0,.568.319.7,1.357.985,1.277.355,1.739.692,1.739,1.73a1.782,1.782,0,0,1-2.032,1.908,12.952,12.952,0,0,1-1.987-.239l.1-.79s1.2.159,1.828.159c.755,0,1.1-.337,1.1-.976,0-.515-.275-.692-1.207-.914-1.313-.337-1.881-.736-1.881-1.792,0-1.225.808-1.73,2.023-1.73a13.47,13.47,0,0,1,1.926.213Z" transform="translate(6525.788 3756.871)" fill="#173647"/>
        <path id="Path_405" data-name="Path 405" d="M-6502.991-3756.494h1.712l1.357,4.747,1.358-4.747h1.721v6.078h-.994v-5.253h-.052l-1.519,5h-1.029l-1.519-5h-.052v5.253h-.984Z" transform="translate(6509.436 3756.601)" fill="#173647"/>
        <path id="Path_406" data-name="Path 406" d="M-6427.275-3756.494h4.437v.878h-1.712v5.2h-.994v-5.2h-1.73Z" transform="translate(6455.123 3756.601)" fill="#173647"/>
        <path id="Path_407" data-name="Path 407" d="M-6402.274-3756.494c1.207,0,1.855.452,1.855,1.58a1.334,1.334,0,0,1-.719,1.366,1.312,1.312,0,0,1,.869,1.411c0,1.243-.754,1.722-1.934,1.722h-2.378v-6.078Zm-1.322.852v1.739h1.3c.6,0,.869-.3.869-.9s-.3-.842-.905-.842Zm0,2.573v1.8h1.34c.612,0,.976-.195.976-.923,0-.692-.515-.878-.994-.878Z" transform="translate(6438.844 3756.601)" fill="#173647"/>
        <path id="Path_408" data-name="Path 408" d="M-6380.688-3756.494h3.833v.861h-2.849v1.721h2.316v.843h-2.316v1.784h2.849v.87h-3.833Z" transform="translate(6421.706 3756.601)" fill="#173647"/>
        <path id="Path_409" data-name="Path 409" d="M-6358.439-3756.494h1.961l1.508,6.078h-.994l-.449-1.784h-2.093l-.448,1.784h-.985Zm.131,3.425h1.705l-.629-2.6h-.443Z" transform="translate(6406.821 3756.601)" fill="#173647"/>
        <path id="Path_410" data-name="Path 410" d="M-6333.622-3752.217v1.8h-.985v-6.078h2.308a1.885,1.885,0,0,1,2.058,2.116,2.053,2.053,0,0,1-.993,1.939l1,2.023h-1.083l-.878-1.8Zm1.323-3.425h-1.323v2.573h1.341c.745,0,1.029-.67,1.029-1.3C-6331.252-3755.062-6331.589-3755.642-6332.3-3755.642Z" transform="translate(6388.649 3756.601)" fill="#173647"/>
        <path id="Path_411" data-name="Path 411" d="M-6472.142-3756.494h1.961l1.508,6.078h-.994l-.449-1.784h-2.092l-.449,1.784h-.985Zm.131,3.425h1.706l-.629-2.6h-.444Z" transform="translate(6488.382 3756.601)" fill="#173647"/>
        <path id="Path_412" data-name="Path 412" d="M-6447.323-3752.217v1.8h-.985v-6.078H-6446a1.885,1.885,0,0,1,2.059,2.116,2.053,2.053,0,0,1-.994,1.939l1,2.023h-1.083l-.878-1.8Zm1.322-3.425h-1.322v2.573h1.34c.745,0,1.029-.67,1.029-1.3C-6444.954-3755.062-6445.291-3755.642-6446-3755.642Z" transform="translate(6470.211 3756.601)" fill="#173647"/>
      </g>
    </g>
  </g>
  <g id="Group_1297" data-name="Group 1297" transform="translate(0 0)">
    <g id="Group_1295" data-name="Group 1295" transform="translate(0 0)">
      <g id="Group_1294" data-name="Group 1294">
        <g id="Group_1292" data-name="Group 1292" transform="translate(0.707 0.707)">
          <rect id="Rectangle_1307" data-name="Rectangle 1307" width="25.466" height="25.47" fill="#50e4ea"/>
        </g>
        <g id="Group_1293" data-name="Group 1293">
          <path id="Path_467" data-name="Path 467" d="M-6621.719-3760.081v24.056h-24.053v-24.056h24.053m1.413-1.413h-26.88v26.883h26.88v-26.883Z" transform="translate(6647.186 3761.494)" fill="#173647"/>
        </g>
      </g>
    </g>
    <g id="Group_1296" data-name="Group 1296" transform="translate(2.799 2.929)">
      <path id="Path_468" data-name="Path 468" d="M-6616.318-3741.453l-2.823-1.742-.742,1.2,2.144,1.324v.205l-3.594,2.173.985,4-.2.2-4-.985-2.107,3.484h-.329l-2.106-3.484-3.972.979-.22-.218.981-3.982-3.561-2.067,0-.312,3.561-2.154-1.015-4.121.188-.19,4.032,1.111,2.228-3.683h.252l2.053,3.676,4.126-1.017.2.242-6.649,6.327-1.816-1.816-1,1,2.8,2.8,8.675-8.275-.985-1.014h0l-.7-.85-3.942.971-1.932-3.46-1.879,0-2.085,3.448-3.8-1.048-1.326,1.344.956,3.878-3.36,2.032.017,1.924,3.341,1.94-.918,3.732,1.352,1.339,3.731-.919,1.98,3.275,1.922,0,1.983-3.278,3.756.926,1.334-1.316-.929-3.772,3.378-2.043Z" transform="translate(6637.283 3751.131)" fill="#173647"/>
      <path id="Path_469" data-name="Path 469" d="M-6617.348-3718.75a4.856,4.856,0,0,0,4.9,4.806,4.856,4.856,0,0,0,4.894-4.806h-1.271a3.584,3.584,0,0,1-3.623,3.534,3.583,3.583,0,0,1-3.623-3.534,3.443,3.443,0,0,1,.283-1.371l-1.167-.5A4.691,4.691,0,0,0-6617.348-3718.75Z" transform="translate(6622.983 3729.249)" fill="#173647"/>
      <path id="Path_470" data-name="Path 470" d="M-6598.024-3731.749l-.642-.167-.334,1.294,1.294.333.333-1.294Z" transform="translate(6609.822 3737.347)" fill="#173647"/>
      <path id="Path_471" data-name="Path 471" d="M-6612.433-3726.867l-.93-.957-.479.465-.484.469.936.953Z" transform="translate(6620.815 3734.412)" fill="#173647"/>
      <path id="Path_472" data-name="Path 472" d="M-6606.021-3730.37l.636-.2-.4-1.272-1.277.407.4,1.272Z" transform="translate(6615.607 3737.295)" fill="#173647"/>
    </g>
  </g>
</svg>
