<svg id="Group_1337" data-name="Group 1337" xmlns="http://www.w3.org/2000/svg" width="114.847" height="32.485" viewBox="0 0 114.847 32.485">
  <g id="Group_1258" data-name="Group 1258" transform="translate(0 0)">
    <g id="Group_1234" data-name="Group 1234" transform="translate(34.853 6.705)">
      <path id="Path_365" data-name="Path 365" d="M-3450.156-6358.048a3.173,3.173,0,0,1-1.239,2.664,5.372,5.372,0,0,1-3.363.956,8.428,8.428,0,0,1-3.54-.593v-1.452a9.285,9.285,0,0,0,1.735.531,9.152,9.152,0,0,0,1.858.194,3.756,3.756,0,0,0,2.266-.57,1.875,1.875,0,0,0,.761-1.589,2.042,2.042,0,0,0-.27-1.1,2.509,2.509,0,0,0-.9-.792,12.638,12.638,0,0,0-1.925-.823,6.141,6.141,0,0,1-2.58-1.531,3.378,3.378,0,0,1-.774-2.31,2.874,2.874,0,0,1,1.124-2.381,4.676,4.676,0,0,1,2.974-.885,8.754,8.754,0,0,1,3.549.708l-.469,1.31a8.013,8.013,0,0,0-3.115-.673,3.013,3.013,0,0,0-1.868.514,1.691,1.691,0,0,0-.672,1.425,2.185,2.185,0,0,0,.248,1.1,2.333,2.333,0,0,0,.836.787,10.363,10.363,0,0,0,1.8.792,7.124,7.124,0,0,1,2.8,1.558A3.062,3.062,0,0,1-3450.156-6358.048Z" transform="translate(3458.298 6367.73)" fill="#173647"/>
      <path id="Path_366" data-name="Path 366" d="M-3416.311-6351.222a5.353,5.353,0,0,1-1.195,3.7,4.21,4.21,0,0,1-3.3,1.332,4.373,4.373,0,0,1-2.31-.61,4.033,4.033,0,0,1-1.558-1.752,6.108,6.108,0,0,1-.549-2.673,5.341,5.341,0,0,1,1.186-3.695,4.2,4.2,0,0,1,3.292-1.323,4.1,4.1,0,0,1,3.235,1.354A5.327,5.327,0,0,1-3416.311-6351.222Zm-7.39,0a4.607,4.607,0,0,0,.743,2.833,2.581,2.581,0,0,0,2.186.973,2.6,2.6,0,0,0,2.19-.969,4.582,4.582,0,0,0,.748-2.837,4.507,4.507,0,0,0-.748-2.81,2.628,2.628,0,0,0-2.208-.96,2.586,2.586,0,0,0-2.177.947A4.556,4.556,0,0,0-3423.7-6351.222Z" transform="translate(3434.573 6359.488)" fill="#173647"/>
      <path id="Path_367" data-name="Path 367" d="M-3383.14-6346.318l-.292-1.38h-.071a4.082,4.082,0,0,1-1.447,1.234,4.415,4.415,0,0,1-1.8.324,3.242,3.242,0,0,1-2.261-.744,2.712,2.712,0,0,1-.819-2.115q0-2.939,4.7-3.081l1.646-.053v-.6a2.455,2.455,0,0,0-.491-1.685,2.015,2.015,0,0,0-1.571-.545,6.4,6.4,0,0,0-2.744.744l-.451-1.124a6.941,6.941,0,0,1,1.571-.61,6.8,6.8,0,0,1,1.712-.221,3.694,3.694,0,0,1,2.571.77,3.212,3.212,0,0,1,.836,2.469v6.62Zm-3.319-1.035a2.983,2.983,0,0,0,2.155-.752,2.785,2.785,0,0,0,.783-2.107v-.876l-1.469.062a5.356,5.356,0,0,0-2.527.544,1.641,1.641,0,0,0-.774,1.5,1.513,1.513,0,0,0,.482,1.213A2,2,0,0,0-3386.459-6347.353Z" transform="translate(3409.185 6359.443)" fill="#173647"/>
      <path id="Path_368" data-name="Path 368" d="M-3350.224-6346.186a4.2,4.2,0,0,1-1.731-.35,3.256,3.256,0,0,1-1.314-1.075h-.106a12.96,12.96,0,0,1,.106,1.611v3.991h-1.469v-14.054h1.195l.2,1.327h.071a3.417,3.417,0,0,1,1.319-1.15,4.011,4.011,0,0,1,1.726-.354,3.586,3.586,0,0,1,2.978,1.319,5.807,5.807,0,0,1,1.049,3.7,5.772,5.772,0,0,1-1.066,3.713A3.591,3.591,0,0,1-3350.224-6346.186Zm-.212-8.806a2.6,2.6,0,0,0-2.151.823,4.236,4.236,0,0,0-.682,2.62v.327a4.851,4.851,0,0,0,.682,2.925,2.591,2.591,0,0,0,2.186.881,2.273,2.273,0,0,0,1.969-1.018,4.823,4.823,0,0,0,.713-2.805,4.644,4.644,0,0,0-.713-2.784A2.343,2.343,0,0,0-3350.437-6354.992Z" transform="translate(3384.012 6359.488)" fill="#173647"/>
      <path id="Path_369" data-name="Path 369" d="M-3308.287-6367.073v8.373a4.56,4.56,0,0,1-1.336,3.478,5.126,5.126,0,0,1-3.673,1.266,4.9,4.9,0,0,1-3.615-1.274,4.726,4.726,0,0,1-1.279-3.5v-8.337h1.5v8.443a3.325,3.325,0,0,0,.885,2.487,3.572,3.572,0,0,0,2.6.867,3.445,3.445,0,0,0,2.522-.872,3.355,3.355,0,0,0,.885-2.5v-8.426Z" transform="translate(3357.797 6367.259)" fill="#173647"/>
      <path id="Path_370" data-name="Path 370" d="M-3274.111-6354.134v-12.939h1.5v12.939Z" transform="translate(3326.177 6367.259)" fill="#173647"/>
    </g>
    <g id="Group_1249" data-name="Group 1249" transform="translate(34.679 26.486)">
      <g id="Group_1248" data-name="Group 1248">
        <g id="Group_1246" data-name="Group 1246" transform="translate(34.578)">
          <g id="Group_1245" data-name="Group 1245">
            <g id="Group_1244" data-name="Group 1244">
              <g id="Group_1235" data-name="Group 1235">
                <path id="Path_371" data-name="Path 371" d="M-3333.571-6296.964s-.969-.11-1.371-.11c-.582,0-.88.208-.88.616,0,.443.249.547,1.059.769,1,.277,1.357.54,1.357,1.35a1.39,1.39,0,0,1-1.586,1.489,10.094,10.094,0,0,1-1.551-.187l.076-.616s.935.125,1.426.125c.589,0,.859-.263.859-.761,0-.4-.215-.541-.942-.714-1.025-.263-1.468-.574-1.468-1.4,0-.956.63-1.35,1.579-1.35a10.513,10.513,0,0,1,1.5.166Z" transform="translate(3336.59 6297.753)" fill="#173647"/>
              </g>
              <g id="Group_1236" data-name="Group 1236" transform="translate(5.029 0.083)">
                <path id="Path_372" data-name="Path 372" d="M-3318.8-6297.46h1.336l1.06,3.7,1.059-3.7H-3314v4.743h-.775v-4.1h-.041l-1.185,3.905h-.8l-1.185-3.905h-.041v4.1h-.769Z" transform="translate(3318.799 6297.46)" fill="#173647"/>
              </g>
              <g id="Group_1237" data-name="Group 1237" transform="translate(21.733 0.083)">
                <path id="Path_373" data-name="Path 373" d="M-3259.709-6297.46h3.462v.686h-1.336v4.058h-.776v-4.058h-1.35Z" transform="translate(3259.709 6297.46)" fill="#173647"/>
              </g>
              <g id="Group_1238" data-name="Group 1238" transform="translate(26.739 0.083)">
                <path id="Path_374" data-name="Path 374" d="M-3240.2-6297.46c.942,0,1.447.353,1.447,1.232a1.042,1.042,0,0,1-.561,1.066,1.024,1.024,0,0,1,.678,1.1c0,.969-.588,1.343-1.509,1.343H-3242v-4.743Zm-1.032.665v1.357h1.018c.471,0,.679-.235.679-.7s-.235-.658-.706-.658Zm0,2.008v1.406h1.045c.478,0,.762-.152.762-.721,0-.54-.4-.685-.775-.685Z" transform="translate(3241.998 6297.46)" fill="#173647"/>
              </g>
              <g id="Group_1239" data-name="Group 1239" transform="translate(32.01 0.083)">
                <path id="Path_375" data-name="Path 375" d="M-3223.352-6297.46h2.991v.671h-2.223v1.343h1.807v.658h-1.807v1.392h2.223v.678h-2.991Z" transform="translate(3223.352 6297.46)" fill="#173647"/>
              </g>
              <g id="Group_1240" data-name="Group 1240" transform="translate(36.588 0.083)">
                <path id="Path_376" data-name="Path 376" d="M-3205.989-6297.46h1.53l1.177,4.743h-.776l-.35-1.392h-1.633l-.35,1.392h-.769Zm.1,2.673h1.331l-.491-2.029h-.346Z" transform="translate(3207.159 6297.46)" fill="#173647"/>
              </g>
              <g id="Group_1241" data-name="Group 1241" transform="translate(42.176 0.083)">
                <path id="Path_377" data-name="Path 377" d="M-3186.62-6294.123v1.406h-.769v-4.743h1.8a1.471,1.471,0,0,1,1.606,1.651,1.6,1.6,0,0,1-.775,1.513l.783,1.579h-.845l-.686-1.406Zm1.031-2.673h-1.031v2.008h1.046c.581,0,.8-.523.8-1.014C-3184.771-6296.342-3185.034-6296.8-3185.589-6296.8Z" transform="translate(3187.389 6297.46)" fill="#173647"/>
              </g>
              <g id="Group_1242" data-name="Group 1242" transform="translate(11.504 0.083)">
                <path id="Path_378" data-name="Path 378" d="M-3294.724-6297.46h1.53l1.177,4.743h-.775l-.35-1.392h-1.634l-.35,1.392h-.769Zm.1,2.673h1.331l-.491-2.029h-.346Z" transform="translate(3295.894 6297.46)" fill="#173647"/>
              </g>
              <g id="Group_1243" data-name="Group 1243" transform="translate(17.093 0.083)">
                <path id="Path_379" data-name="Path 379" d="M-3275.355-6294.123v1.406h-.769v-4.743h1.8a1.471,1.471,0,0,1,1.606,1.651,1.6,1.6,0,0,1-.776,1.513l.783,1.579h-.845l-.686-1.406Zm1.032-2.673h-1.032v2.008h1.046c.582,0,.8-.523.8-1.014C-3273.506-6296.342-3273.769-6296.8-3274.323-6296.8Z" transform="translate(3276.124 6297.46)" fill="#173647"/>
              </g>
            </g>
          </g>
        </g>
        <g id="Group_1247" data-name="Group 1247" transform="translate(0 1.12)">
          <path id="Path_380" data-name="Path 380" d="M-3456.721-6290.569a.855.855,0,0,1-.333.717,1.444,1.444,0,0,1-.905.258,2.267,2.267,0,0,1-.953-.16v-.391a2.443,2.443,0,0,0,.467.143,2.438,2.438,0,0,0,.5.053,1.009,1.009,0,0,0,.61-.153.5.5,0,0,0,.205-.428.55.55,0,0,0-.073-.3.667.667,0,0,0-.243-.213,3.5,3.5,0,0,0-.518-.223,1.635,1.635,0,0,1-.695-.412.908.908,0,0,1-.208-.621.775.775,0,0,1,.3-.641,1.256,1.256,0,0,1,.8-.238,2.359,2.359,0,0,1,.955.19l-.126.353a2.168,2.168,0,0,0-.839-.181.813.813,0,0,0-.5.138.457.457,0,0,0-.181.384.586.586,0,0,0,.067.3.636.636,0,0,0,.225.212,2.808,2.808,0,0,0,.485.213,1.912,1.912,0,0,1,.754.42A.823.823,0,0,1-3456.721-6290.569Z" transform="translate(3458.913 6293.35)" fill="#173647"/>
          <path id="Path_381" data-name="Path 381" d="M-3448.335-6289.914v1.693a.68.68,0,0,0,.145.477.593.593,0,0,0,.455.157.742.742,0,0,0,.6-.224,1.127,1.127,0,0,0,.189-.731v-1.372h.4v2.61h-.326l-.057-.35h-.021a.79.79,0,0,1-.337.3,1.133,1.133,0,0,1-.492.1,1,1,0,0,1-.713-.226.964.964,0,0,1-.237-.725v-1.708Z" transform="translate(3451.612 6291.01)" fill="#173647"/>
          <path id="Path_382" data-name="Path 382" d="M-3436.643-6287.377a1.136,1.136,0,0,1-.466-.094.87.87,0,0,1-.354-.29h-.029a3.55,3.55,0,0,1,.029.434v1.075h-.4v-3.783h.322l.055.357h.019a.917.917,0,0,1,.355-.311,1.093,1.093,0,0,1,.465-.095.965.965,0,0,1,.8.354,1.564,1.564,0,0,1,.282,1,1.554,1.554,0,0,1-.287,1A.967.967,0,0,1-3436.643-6287.377Zm-.057-2.37a.7.7,0,0,0-.579.222,1.138,1.138,0,0,0-.184.705v.088a1.3,1.3,0,0,0,.184.787.7.7,0,0,0,.588.237.61.61,0,0,0,.53-.274,1.294,1.294,0,0,0,.192-.755,1.25,1.25,0,0,0-.192-.749A.63.63,0,0,0-3436.7-6289.747Z" transform="translate(3443.81 6291.131)" fill="#173647"/>
          <path id="Path_383" data-name="Path 383" d="M-3425.809-6287.377a1.134,1.134,0,0,1-.466-.094.874.874,0,0,1-.354-.29h-.029a3.455,3.455,0,0,1,.029.434v1.075h-.4v-3.783h.321l.055.357h.019a.918.918,0,0,1,.355-.311,1.1,1.1,0,0,1,.465-.095.965.965,0,0,1,.8.354,1.562,1.562,0,0,1,.282,1,1.552,1.552,0,0,1-.287,1A.967.967,0,0,1-3425.809-6287.377Zm-.057-2.37a.7.7,0,0,0-.579.222,1.141,1.141,0,0,0-.184.705v.088a1.305,1.305,0,0,0,.184.787.7.7,0,0,0,.588.237.61.61,0,0,0,.53-.274,1.294,1.294,0,0,0,.192-.755,1.25,1.25,0,0,0-.192-.749A.631.631,0,0,0-3425.866-6289.747Z" transform="translate(3436.038 6291.131)" fill="#173647"/>
          <path id="Path_384" data-name="Path 384" d="M-3414.24-6288.732a1.439,1.439,0,0,1-.322,1,1.13,1.13,0,0,1-.888.358,1.188,1.188,0,0,1-.622-.164,1.087,1.087,0,0,1-.419-.472,1.644,1.644,0,0,1-.148-.72,1.435,1.435,0,0,1,.319-.994,1.129,1.129,0,0,1,.886-.356,1.1,1.1,0,0,1,.871.364A1.437,1.437,0,0,1-3414.24-6288.732Zm-1.989,0a1.239,1.239,0,0,0,.2.763.7.7,0,0,0,.589.262.7.7,0,0,0,.589-.261,1.235,1.235,0,0,0,.2-.764,1.212,1.212,0,0,0-.2-.756.706.706,0,0,0-.595-.259.7.7,0,0,0-.585.255A1.222,1.222,0,0,0-3416.229-6288.732Z" transform="translate(3428.589 6291.131)" fill="#173647"/>
          <path id="Path_385" data-name="Path 385" d="M-3404.263-6290.083a1.589,1.589,0,0,1,.312.028l-.055.367a1.311,1.311,0,0,0-.286-.036.7.7,0,0,0-.542.257.94.94,0,0,0-.225.642v1.4h-.4v-2.61h.326l.045.483h.019a1.16,1.16,0,0,1,.35-.394A.792.792,0,0,1-3404.263-6290.083Z" transform="translate(3420.566 6291.131)" fill="#173647"/>
          <path id="Path_386" data-name="Path 386" d="M-3397.419-6289.118a1.3,1.3,0,0,0,.2-.016,1.18,1.18,0,0,0,.155-.032v.3a.735.735,0,0,1-.189.051,1.4,1.4,0,0,1-.225.021q-.758,0-.757-.8v-1.554h-.374v-.191l.374-.164.167-.558h.229v.6h.758v.308h-.758v1.536a.532.532,0,0,0,.112.363A.39.39,0,0,0-3397.419-6289.118Z" transform="translate(3415.655 6292.546)" fill="#173647"/>
          <path id="Path_387" data-name="Path 387" d="M-3390.4-6287.377a1.2,1.2,0,0,1-.913-.353,1.365,1.365,0,0,1-.335-.979,1.514,1.514,0,0,1,.311-1,1.035,1.035,0,0,1,.835-.371.985.985,0,0,1,.777.322,1.241,1.241,0,0,1,.286.853v.25h-1.8a1.036,1.036,0,0,0,.233.7.8.8,0,0,0,.62.237,2.109,2.109,0,0,0,.834-.176v.353a2.175,2.175,0,0,1-.4.13A2.222,2.222,0,0,1-3390.4-6287.377Zm-.107-2.375a.645.645,0,0,0-.5.205.939.939,0,0,0-.221.566h1.365a.87.87,0,0,0-.166-.572A.588.588,0,0,0-3390.5-6289.752Z" transform="translate(3410.659 6291.131)" fill="#173647"/>
          <path id="Path_388" data-name="Path 388" d="M-3379.693-6290.435h-.021a.928.928,0,0,1-.819.4.968.968,0,0,1-.8-.35,1.541,1.541,0,0,1-.285-1,1.568,1.568,0,0,1,.286-1,.961.961,0,0,1,.8-.357.95.95,0,0,1,.815.386h.031l-.017-.187-.01-.184v-1.062h.4v3.707h-.321Zm-.791.067a.72.72,0,0,0,.587-.222,1.112,1.112,0,0,0,.182-.71v-.084a1.31,1.31,0,0,0-.184-.792.7.7,0,0,0-.59-.237.6.6,0,0,0-.533.271,1.345,1.345,0,0,0-.184.764,1.288,1.288,0,0,0,.183.756A.623.623,0,0,0-3380.483-6290.367Z" transform="translate(3403.466 6293.791)" fill="#173647"/>
          <path id="Path_389" data-name="Path 389" d="M-3364.137-6292.738a.974.974,0,0,1,.8.351,1.548,1.548,0,0,1,.285,1,1.55,1.55,0,0,1-.287,1,.966.966,0,0,1-.8.356,1.134,1.134,0,0,1-.465-.094.89.89,0,0,1-.354-.289h-.028l-.083.336h-.283v-3.707h.4v.9c0,.2-.006.383-.019.543h.019A.938.938,0,0,1-3364.137-6292.738Zm-.057.331a.689.689,0,0,0-.583.232,1.3,1.3,0,0,0-.179.782,1.3,1.3,0,0,0,.184.787.7.7,0,0,0,.588.238.61.61,0,0,0,.543-.267,1.363,1.363,0,0,0,.178-.763,1.308,1.308,0,0,0-.178-.76A.631.631,0,0,0-3364.193-6292.407Z" transform="translate(3391.799 6293.791)" fill="#173647"/>
          <path id="Path_390" data-name="Path 390" d="M-3356.007-6289.914h.424l.572,1.488a5.76,5.76,0,0,1,.233.737h.019c.02-.081.064-.219.13-.416s.281-.8.646-1.809h.424l-1.122,2.972a1.487,1.487,0,0,1-.389.625.826.826,0,0,1-.547.185,1.6,1.6,0,0,1-.357-.04v-.317a1.343,1.343,0,0,0,.293.029.605.605,0,0,0,.582-.458l.145-.371Z" transform="translate(3385.096 6291.01)" fill="#173647"/>
        </g>
      </g>
    </g>
    <g id="Group_1257" data-name="Group 1257" transform="translate(0 0)">
      <g id="Group_1255" data-name="Group 1255">
        <g id="Group_1254" data-name="Group 1254">
          <g id="Group_1253" data-name="Group 1253">
            <g id="Group_1250" data-name="Group 1250" transform="translate(0.671 0.671)">
              <path id="Path_391" data-name="Path 391" d="M-3565.8-6362.248a13.429,13.429,0,0,1-13.414-13.413,13.429,13.429,0,0,1,13.414-13.414,13.428,13.428,0,0,1,13.414,13.414A13.428,13.428,0,0,1-3565.8-6362.248Z" transform="translate(3579.218 6389.074)" fill="#fcdc00"/>
            </g>
            <g id="Group_1252" data-name="Group 1252">
              <g id="Group_1251" data-name="Group 1251">
                <path id="Path_392" data-name="Path 392" d="M-3567.507-6390.106a12.742,12.742,0,0,1,12.742,12.742,12.742,12.742,0,0,1-12.742,12.742,12.742,12.742,0,0,1-12.742-12.742,12.742,12.742,0,0,1,12.742-12.742m0-1.343a14.1,14.1,0,0,0-14.085,14.084,14.1,14.1,0,0,0,14.085,14.085,14.1,14.1,0,0,0,14.085-14.085,14.1,14.1,0,0,0-14.085-14.084Z" transform="translate(3581.592 6391.449)" fill="#173647"/>
              </g>
            </g>
          </g>
        </g>
      </g>
      <g id="Group_1256" data-name="Group 1256" transform="translate(4.874 4.874)">
        <path id="Path_393" data-name="Path 393" d="M-3547.011-6365.552l1.083-1.558-1.167-2.85-1.863-.342-.828-.833-.324-1.865-2.858-1.189-1.557,1.073-1.167-.007-1.55-1.084-2.859,1.167-.342,1.864-.835.829-1.864.333-1.189,2.848,1.073,1.558-.006,1.176-1.085,1.551,1.179,2.86,1.861.332.82.833.333,1.874,2.847,1.189,1.56-1.075h1.175l1.548,1.083,2.859-1.167.342-1.863.835-.828,1.864-.324,1.189-2.848-1.074-1.569Zm-.446,2.893-.625,1.495-1.554.27-1.434,1.422-.285,1.555-1.5.612-1.295-.906h-2.016l-1.3.9-1.495-.624-.277-1.562-1.413-1.434-1.557-.278-.618-1.5.9-1.292.011-2.017-.9-1.3.625-1.5,1.555-.277,1.432-1.421.286-1.555,1.5-.613,1.293.9,2.007.011,1.3-.9,1.5.625.27,1.554,1.422,1.433,1.556.285.612,1.495-.905,1.3v2.005Z" transform="translate(3564.349 6374.206)" fill="#173647"/>
        <path id="Path_394" data-name="Path 394" d="M-3541.26-6358.407l-.862,1.028a3.662,3.662,0,0,1,1.313,2.812,3.67,3.67,0,0,1-3.666,3.666c-.062,0-.121-.006-.181-.009l2.606-4.106-2.942-.654,2.191-3.876-1.168-.661-3.083,5.454,2.843.632-1.82,2.868a3.668,3.668,0,0,1-2.111-3.315,3.64,3.64,0,0,1,1.074-2.592l-.95-.949a4.976,4.976,0,0,0-1.467,3.542,5.014,5.014,0,0,0,5.008,5.008,5.014,5.014,0,0,0,5.008-5.008A5,5,0,0,0-3541.26-6358.407Z" transform="translate(3553.685 6364.164)" fill="#173647"/>
      </g>
    </g>
  </g>
</svg>
