<svg id="Group_1335" data-name="Group 1335" xmlns="http://www.w3.org/2000/svg" width="114.811" height="32.527" viewBox="0 0 114.811 32.527">
  <g id="Group_1316" data-name="Group 1316" transform="translate(0 0)">
    <g id="Group_1315" data-name="Group 1315" transform="translate(0 0)">
      <g id="Group_1314" data-name="Group 1314">
        <g id="Group_1313" data-name="Group 1313">
          <g id="Group_1310" data-name="Group 1310" transform="translate(0.674 0.674)">
            <path id="Path_492" data-name="Path 492" d="M-3563.939-3684.371a13.483,13.483,0,0,1-13.468-13.467,13.483,13.483,0,0,1,13.468-13.467,13.482,13.482,0,0,1,13.468,13.467A13.482,13.482,0,0,1-3563.939-3684.371Z" transform="translate(3577.407 3711.306)" fill="#85ea2d"/>
          </g>
          <g id="Group_1312" data-name="Group 1312">
            <g id="Group_1311" data-name="Group 1311">
              <path id="Path_493" data-name="Path 493" d="M-3565.649-3712.343a12.794,12.794,0,0,1,12.793,12.793,12.794,12.794,0,0,1-12.793,12.794,12.794,12.794,0,0,1-12.793-12.794,12.794,12.794,0,0,1,12.793-12.793m0-1.348a14.157,14.157,0,0,0-14.142,14.141,14.158,14.158,0,0,0,14.142,14.142,14.158,14.158,0,0,0,14.142-14.142,14.157,14.157,0,0,0-14.142-14.141Z" transform="translate(3579.791 3713.691)" fill="#173647"/>
            </g>
          </g>
        </g>
      </g>
    </g>
    <path id="Path_494" data-name="Path 494" d="M-3556.845-3686.576c-.043.484.016.984-.016,1.474a12.089,12.089,0,0,1-.2,1.458,2.7,2.7,0,0,1-1.158,1.648c1.153.75,1.283,1.914,1.36,3.094.038.636.021,1.277.087,1.909.049.489.24.614.745.63.207.006.418,0,.658,0v1.512c-1.5.255-2.73-.168-3.034-1.435a8.7,8.7,0,0,1-.185-1.414c-.033-.506.022-1.012-.016-1.517-.109-1.387-.289-1.854-1.615-1.92v-1.724a2.563,2.563,0,0,1,.288-.049c.729-.039,1.038-.262,1.2-.979a8.277,8.277,0,0,0,.136-1.224,23.238,23.238,0,0,1,.169-2.376,1.939,1.939,0,0,1,2.045-1.735c.326-.016.658,0,1.033,0v1.545c-.157.01-.293.032-.435.032C-3556.725-3687.68-3556.774-3687.359-3556.845-3686.576Zm1.811,3.578h-.022a.994.994,0,0,0-1.038.941,1,1,0,0,0,.941,1.044h.065a.978.978,0,0,0,1.033-.919v-.054A1,1,0,0,0-3555.034-3683Zm3.41,0a.953.953,0,0,0-.984.919.512.512,0,0,0,.006.092.932.932,0,0,0,1.011.973.922.922,0,0,0,.973-1.006A.935.935,0,0,0-3551.624-3683Zm3.491,0a1.016,1.016,0,0,0-1.033.984,1,1,0,0,0,1,1h.011a.99.99,0,0,0,1.039-.979A1.01,1.01,0,0,0-3548.133-3683Zm4.791.082a1,1,0,0,1-1.1-.837,6.075,6.075,0,0,1-.179-1.169c-.043-.729-.038-1.463-.087-2.192-.114-1.729-1.365-2.333-3.181-2.034v1.5c.288,0,.511,0,.734.005.386.005.68.152.718.582.038.392.038.789.077,1.185.076.789.119,1.588.255,2.366A2.463,2.463,0,0,0-3545-3682a3.035,3.035,0,0,0-1.294,2.61c-.027.712-.044,1.43-.082,2.147-.032.653-.261.865-.919.881-.185.005-.365.022-.571.032v1.539c.386,0,.74.022,1.093,0a1.923,1.923,0,0,0,1.98-1.664,13.838,13.838,0,0,0,.163-1.773c.038-.543.033-1.093.087-1.631a1.2,1.2,0,0,1,1.311-1.246,1.166,1.166,0,0,0,.234-.054v-1.724C-3543.141-3682.9-3543.239-3682.911-3543.342-3682.917Z" transform="translate(3565.75 3696.146)" fill="#173647"/>
  </g>
  <g id="Group_1333" data-name="Group 1333" transform="translate(34.643 6.747)">
    <g id="Group_1317" data-name="Group 1317" transform="translate(0.174)">
      <path id="Path_495" data-name="Path 495" d="M-3448.481-3680.139a3.175,3.175,0,0,1-1.239,2.664,5.373,5.373,0,0,1-3.363.956,8.429,8.429,0,0,1-3.54-.593v-1.452a9.3,9.3,0,0,0,1.735.531,9.119,9.119,0,0,0,1.859.195,3.748,3.748,0,0,0,2.266-.571A1.872,1.872,0,0,0-3450-3680a2.039,2.039,0,0,0-.27-1.1,2.511,2.511,0,0,0-.9-.792,12.666,12.666,0,0,0-1.925-.823,6.141,6.141,0,0,1-2.58-1.531,3.38,3.38,0,0,1-.775-2.31,2.872,2.872,0,0,1,1.124-2.381,4.672,4.672,0,0,1,2.974-.885,8.765,8.765,0,0,1,3.549.708l-.469,1.31a8.024,8.024,0,0,0-3.115-.673,3.012,3.012,0,0,0-1.867.513,1.691,1.691,0,0,0-.673,1.425,2.181,2.181,0,0,0,.248,1.1,2.325,2.325,0,0,0,.836.788,10.38,10.38,0,0,0,1.8.792,7.131,7.131,0,0,1,2.8,1.557A3.064,3.064,0,0,1-3448.481-3680.139Z" transform="translate(3456.624 3689.821)" fill="#173647"/>
      <path id="Path_496" data-name="Path 496" d="M-3418.34-3668l-1.779-5.691q-.168-.522-.628-2.372h-.071q-.354,1.549-.62,2.39l-1.832,5.673h-1.7l-2.646-9.7h1.54q.938,3.656,1.429,5.567a22.6,22.6,0,0,1,.562,2.575h.071q.1-.5.314-1.305t.376-1.27l1.779-5.567h1.593l1.735,5.567a18.726,18.726,0,0,1,.673,2.558h.071a9.52,9.52,0,0,1,.19-.983q.155-.663,1.845-7.142h1.522l-2.682,9.7Z" transform="translate(3435.815 3681.13)" fill="#173647"/>
      <path id="Path_497" data-name="Path 497" d="M-3371.955-3668.409l-.292-1.381h-.071a4.082,4.082,0,0,1-1.447,1.235,4.413,4.413,0,0,1-1.8.323,3.242,3.242,0,0,1-2.261-.743,2.712,2.712,0,0,1-.819-2.116q0-2.938,4.7-3.08l1.646-.053v-.6a2.458,2.458,0,0,0-.491-1.686,2.02,2.02,0,0,0-1.571-.544,6.4,6.4,0,0,0-2.743.743l-.452-1.124a6.887,6.887,0,0,1,1.571-.611,6.8,6.8,0,0,1,1.712-.221,3.7,3.7,0,0,1,2.571.77,3.211,3.211,0,0,1,.836,2.469v6.62Zm-3.319-1.036a2.98,2.98,0,0,0,2.155-.752,2.783,2.783,0,0,0,.783-2.106v-.876l-1.469.062a5.35,5.35,0,0,0-2.527.544,1.642,1.642,0,0,0-.774,1.5,1.514,1.514,0,0,0,.482,1.212A2,2,0,0,0-3375.274-3669.444Z" transform="translate(3400.689 3681.534)" fill="#173647"/>
      <path id="Path_498" data-name="Path 498" d="M-3338.717-3678.154v.93l-1.8.212a3.108,3.108,0,0,1,.443.81,3.094,3.094,0,0,1,.195,1.128,2.868,2.868,0,0,1-.973,2.275,3.927,3.927,0,0,1-2.673.85,4.457,4.457,0,0,1-.814-.071,1.446,1.446,0,0,0-.938,1.248.634.634,0,0,0,.327.589,2.4,2.4,0,0,0,1.124.19h1.717a3.843,3.843,0,0,1,2.42.664,2.305,2.305,0,0,1,.845,1.929,2.755,2.755,0,0,1-1.292,2.456,6.914,6.914,0,0,1-3.77.845,5.152,5.152,0,0,1-2.934-.708,2.286,2.286,0,0,1-1.031-2,2.248,2.248,0,0,1,.567-1.531,2.888,2.888,0,0,1,1.593-.876,1.536,1.536,0,0,1-.624-.522,1.383,1.383,0,0,1-.252-.823,1.562,1.562,0,0,1,.283-.929,2.971,2.971,0,0,1,.894-.77,2.619,2.619,0,0,1-1.226-1.053,3.1,3.1,0,0,1-.473-1.7,3.138,3.138,0,0,1,.956-2.456,3.9,3.9,0,0,1,2.708-.863,4.938,4.938,0,0,1,1.372.177Zm-7.735,11.329a1.317,1.317,0,0,0,.664,1.2,3.671,3.671,0,0,0,1.9.407,5.314,5.314,0,0,0,2.74-.553,1.694,1.694,0,0,0,.889-1.5,1.188,1.188,0,0,0-.487-1.093,3.781,3.781,0,0,0-1.832-.305h-1.761a2.318,2.318,0,0,0-1.558.478A1.707,1.707,0,0,0-3346.452-3666.826Zm.8-8.222a1.974,1.974,0,0,0,.575,1.54,2.3,2.3,0,0,0,1.6.522,1.874,1.874,0,0,0,2.151-2.089,1.928,1.928,0,0,0-2.177-2.186,2.155,2.155,0,0,0-1.593.558A2.246,2.246,0,0,0-3345.655-3675.048Z" transform="translate(3378.611 3681.579)" fill="#173647"/>
      <path id="Path_499" data-name="Path 499" d="M-3304.178-3678.154v.93l-1.8.212a3.079,3.079,0,0,1,.442.81,3.088,3.088,0,0,1,.195,1.128,2.866,2.866,0,0,1-.974,2.275,3.926,3.926,0,0,1-2.672.85,4.455,4.455,0,0,1-.814-.071,1.446,1.446,0,0,0-.938,1.248.634.634,0,0,0,.327.589,2.4,2.4,0,0,0,1.124.19h1.717a3.845,3.845,0,0,1,2.421.664,2.306,2.306,0,0,1,.845,1.929,2.754,2.754,0,0,1-1.292,2.456,6.917,6.917,0,0,1-3.771.845,5.15,5.15,0,0,1-2.934-.708,2.286,2.286,0,0,1-1.031-2,2.247,2.247,0,0,1,.566-1.531,2.885,2.885,0,0,1,1.593-.876,1.537,1.537,0,0,1-.624-.522,1.383,1.383,0,0,1-.252-.823,1.56,1.56,0,0,1,.283-.929,2.974,2.974,0,0,1,.894-.77,2.619,2.619,0,0,1-1.226-1.053,3.1,3.1,0,0,1-.473-1.7,3.138,3.138,0,0,1,.956-2.456,3.9,3.9,0,0,1,2.708-.863,4.943,4.943,0,0,1,1.372.177Zm-7.735,11.329a1.318,1.318,0,0,0,.664,1.2,3.671,3.671,0,0,0,1.9.407,5.313,5.313,0,0,0,2.74-.553,1.693,1.693,0,0,0,.889-1.5,1.188,1.188,0,0,0-.487-1.093,3.781,3.781,0,0,0-1.832-.305h-1.761a2.317,2.317,0,0,0-1.558.478A1.706,1.706,0,0,0-3311.913-3666.826Zm.8-8.222a1.974,1.974,0,0,0,.576,1.54,2.3,2.3,0,0,0,1.6.522,1.874,1.874,0,0,0,2.151-2.089,1.928,1.928,0,0,0-2.177-2.186,2.155,2.155,0,0,0-1.593.558A2.247,2.247,0,0,0-3311.117-3675.048Z" transform="translate(3353.836 3681.579)" fill="#173647"/>
      <path id="Path_500" data-name="Path 500" d="M-3275.082-3668.277a4.456,4.456,0,0,1-3.394-1.31,5.07,5.07,0,0,1-1.243-3.638,5.622,5.622,0,0,1,1.155-3.726,3.836,3.836,0,0,1,3.1-1.381,3.659,3.659,0,0,1,2.885,1.2,4.6,4.6,0,0,1,1.062,3.164v.929h-6.682a3.844,3.844,0,0,0,.863,2.593,2.984,2.984,0,0,0,2.306.885,7.8,7.8,0,0,0,3.1-.655v1.31a7.816,7.816,0,0,1-1.473.482A8.3,8.3,0,0,1-3275.082-3668.277Zm-.4-8.824a2.4,2.4,0,0,0-1.863.761,3.507,3.507,0,0,0-.819,2.106h5.071a3.228,3.228,0,0,0-.62-2.128A2.179,2.179,0,0,0-3275.48-3677.1Z" transform="translate(3329.727 3681.579)" fill="#173647"/>
      <path id="Path_501" data-name="Path 501" d="M-3240.424-3678.331a5.752,5.752,0,0,1,1.159.106l-.2,1.363a5.013,5.013,0,0,0-1.062-.133,2.586,2.586,0,0,0-2.014.956,3.485,3.485,0,0,0-.836,2.381v5.2h-1.469v-9.7h1.212l.168,1.8h.071a4.259,4.259,0,0,1,1.3-1.46A2.929,2.929,0,0,1-3240.424-3678.331Z" transform="translate(3304.714 3681.579)" fill="#173647"/>
    </g>
    <g id="Group_1332" data-name="Group 1332" transform="translate(0 19.781)">
      <g id="Group_1331" data-name="Group 1331">
        <g id="Group_1329" data-name="Group 1329" transform="translate(34.578)">
          <g id="Group_1328" data-name="Group 1328">
            <g id="Group_1327" data-name="Group 1327">
              <g id="Group_1318" data-name="Group 1318">
                <path id="Path_502" data-name="Path 502" d="M-3331.9-3619.056s-.97-.111-1.371-.111c-.582,0-.879.208-.879.616,0,.443.249.547,1.06.769,1,.277,1.357.54,1.357,1.35a1.391,1.391,0,0,1-1.586,1.489,10.077,10.077,0,0,1-1.551-.187l.076-.616s.935.125,1.426.125c.589,0,.859-.263.859-.762,0-.4-.215-.54-.942-.713-1.025-.263-1.468-.575-1.468-1.4,0-.956.63-1.35,1.579-1.35a10.5,10.5,0,0,1,1.5.166Z" transform="translate(3334.916 3619.845)" fill="#173647"/>
              </g>
              <g id="Group_1319" data-name="Group 1319" transform="translate(5.029 0.083)">
                <path id="Path_503" data-name="Path 503" d="M-3317.125-3619.551h1.336l1.06,3.7,1.06-3.7h1.343v4.743h-.775v-4.1h-.041l-1.185,3.905h-.8l-1.185-3.905h-.041v4.1h-.769Z" transform="translate(3317.125 3619.551)" fill="#173647"/>
              </g>
              <g id="Group_1320" data-name="Group 1320" transform="translate(21.733 0.083)">
                <path id="Path_504" data-name="Path 504" d="M-3258.035-3619.551h3.462v.686h-1.337v4.058h-.775v-4.058h-1.35Z" transform="translate(3258.035 3619.551)" fill="#173647"/>
              </g>
              <g id="Group_1321" data-name="Group 1321" transform="translate(26.739 0.083)">
                <path id="Path_505" data-name="Path 505" d="M-3238.524-3619.551c.942,0,1.448.353,1.448,1.233a1.042,1.042,0,0,1-.561,1.066,1.024,1.024,0,0,1,.679,1.1c0,.969-.588,1.343-1.51,1.343h-1.856v-4.743Zm-1.032.665v1.358h1.018c.471,0,.679-.236.679-.7s-.236-.658-.706-.658Zm0,2.008v1.406h1.046c.478,0,.762-.152.762-.72,0-.54-.4-.686-.776-.686Z" transform="translate(3240.324 3619.551)" fill="#173647"/>
              </g>
              <g id="Group_1322" data-name="Group 1322" transform="translate(32.01 0.083)">
                <path id="Path_506" data-name="Path 506" d="M-3221.678-3619.551h2.992v.672h-2.223v1.343h1.808v.658h-1.808v1.392h2.223v.678h-2.992Z" transform="translate(3221.678 3619.551)" fill="#173647"/>
              </g>
              <g id="Group_1323" data-name="Group 1323" transform="translate(36.588 0.083)">
                <path id="Path_507" data-name="Path 507" d="M-3204.315-3619.551h1.53l1.177,4.743h-.776l-.35-1.392h-1.633l-.35,1.392h-.769Zm.1,2.673h1.331l-.491-2.029h-.346Z" transform="translate(3205.485 3619.551)" fill="#173647"/>
              </g>
              <g id="Group_1324" data-name="Group 1324" transform="translate(42.176 0.083)">
                <path id="Path_508" data-name="Path 508" d="M-3184.946-3616.214v1.406h-.769v-4.743h1.8a1.471,1.471,0,0,1,1.606,1.651,1.6,1.6,0,0,1-.775,1.513l.783,1.579h-.845l-.686-1.406Zm1.032-2.673h-1.032v2.008h1.046c.582,0,.8-.523.8-1.014C-3183.1-3618.433-3183.36-3618.887-3183.914-3618.887Z" transform="translate(3185.715 3619.551)" fill="#173647"/>
              </g>
              <g id="Group_1325" data-name="Group 1325" transform="translate(11.504 0.083)">
                <path id="Path_509" data-name="Path 509" d="M-3293.049-3619.551h1.53l1.177,4.743h-.776l-.35-1.392h-1.633l-.35,1.392h-.769Zm.1,2.673h1.331l-.491-2.029h-.346Z" transform="translate(3294.219 3619.551)" fill="#173647"/>
              </g>
              <g id="Group_1326" data-name="Group 1326" transform="translate(17.093 0.083)">
                <path id="Path_510" data-name="Path 510" d="M-3273.68-3616.214v1.406h-.769v-4.743h1.8a1.471,1.471,0,0,1,1.606,1.651,1.6,1.6,0,0,1-.775,1.513l.782,1.579h-.845l-.686-1.406Zm1.031-2.673h-1.031v2.008h1.045c.582,0,.8-.523.8-1.014C-3271.832-3618.433-3272.095-3618.887-3272.649-3618.887Z" transform="translate(3274.449 3619.551)" fill="#173647"/>
              </g>
            </g>
          </g>
        </g>
        <g id="Group_1330" data-name="Group 1330" transform="translate(0 1.12)">
          <path id="Path_511" data-name="Path 511" d="M-3455.048-3612.661a.854.854,0,0,1-.333.717,1.446,1.446,0,0,1-.905.257,2.267,2.267,0,0,1-.953-.159v-.391a2.488,2.488,0,0,0,.467.143,2.492,2.492,0,0,0,.5.052,1.011,1.011,0,0,0,.61-.154.505.505,0,0,0,.2-.427.549.549,0,0,0-.073-.3.671.671,0,0,0-.243-.213,3.369,3.369,0,0,0-.518-.222,1.652,1.652,0,0,1-.694-.412.91.91,0,0,1-.208-.622.773.773,0,0,1,.3-.641,1.257,1.257,0,0,1,.8-.238,2.362,2.362,0,0,1,.956.191l-.126.352a2.166,2.166,0,0,0-.839-.181.81.81,0,0,0-.5.138.455.455,0,0,0-.181.383.589.589,0,0,0,.067.3.63.63,0,0,0,.225.212,2.831,2.831,0,0,0,.485.213,1.921,1.921,0,0,1,.754.419A.824.824,0,0,1-3455.048-3612.661Z" transform="translate(3457.239 3615.441)" fill="#173647"/>
          <path id="Path_512" data-name="Path 512" d="M-3446.661-3612.006v1.694a.681.681,0,0,0,.146.476.592.592,0,0,0,.455.157.742.742,0,0,0,.6-.224,1.131,1.131,0,0,0,.189-.731v-1.372h.4v2.611h-.326l-.057-.35h-.021a.786.786,0,0,1-.337.3,1.13,1.13,0,0,1-.492.1,1,1,0,0,1-.713-.226.962.962,0,0,1-.237-.724v-1.708Z" transform="translate(3449.938 3613.102)" fill="#173647"/>
          <path id="Path_513" data-name="Path 513" d="M-3434.968-3609.468a1.125,1.125,0,0,1-.466-.094.875.875,0,0,1-.354-.289h-.029a3.5,3.5,0,0,1,.029.434v1.074h-.4v-3.783h.322l.055.357h.019a.92.92,0,0,1,.355-.31,1.081,1.081,0,0,1,.465-.1.966.966,0,0,1,.8.354,1.566,1.566,0,0,1,.282,1,1.554,1.554,0,0,1-.287,1A.967.967,0,0,1-3434.968-3609.468Zm-.057-2.37a.7.7,0,0,0-.579.222,1.141,1.141,0,0,0-.183.705v.088a1.306,1.306,0,0,0,.183.787.7.7,0,0,0,.589.237.612.612,0,0,0,.53-.274,1.3,1.3,0,0,0,.192-.755,1.247,1.247,0,0,0-.192-.749A.63.63,0,0,0-3435.025-3611.838Z" transform="translate(3442.135 3613.222)" fill="#173647"/>
          <path id="Path_514" data-name="Path 514" d="M-3424.135-3609.468a1.13,1.13,0,0,1-.466-.094.873.873,0,0,1-.354-.289h-.029a3.5,3.5,0,0,1,.029.434v1.074h-.4v-3.783h.322l.054.357h.02a.918.918,0,0,1,.355-.31,1.079,1.079,0,0,1,.464-.1.965.965,0,0,1,.8.354,1.566,1.566,0,0,1,.282,1,1.553,1.553,0,0,1-.287,1A.966.966,0,0,1-3424.135-3609.468Zm-.057-2.37a.7.7,0,0,0-.579.222,1.138,1.138,0,0,0-.184.705v.088a1.3,1.3,0,0,0,.184.787.7.7,0,0,0,.588.237.612.612,0,0,0,.53-.274,1.3,1.3,0,0,0,.192-.755,1.247,1.247,0,0,0-.192-.749A.63.63,0,0,0-3424.192-3611.838Z" transform="translate(3434.365 3613.222)" fill="#173647"/>
          <path id="Path_515" data-name="Path 515" d="M-3412.566-3610.824a1.439,1.439,0,0,1-.322,1,1.131,1.131,0,0,1-.888.358,1.176,1.176,0,0,1-.622-.165,1.083,1.083,0,0,1-.419-.471,1.64,1.64,0,0,1-.148-.72,1.436,1.436,0,0,1,.319-.994,1.129,1.129,0,0,1,.886-.356,1.105,1.105,0,0,1,.871.364A1.434,1.434,0,0,1-3412.566-3610.824Zm-1.989,0a1.242,1.242,0,0,0,.2.763.7.7,0,0,0,.589.262.7.7,0,0,0,.589-.261,1.231,1.231,0,0,0,.2-.764,1.212,1.212,0,0,0-.2-.756.707.707,0,0,0-.594-.258.7.7,0,0,0-.586.255A1.228,1.228,0,0,0-3414.555-3610.824Z" transform="translate(3426.915 3613.222)" fill="#173647"/>
          <path id="Path_516" data-name="Path 516" d="M-3402.589-3612.174a1.517,1.517,0,0,1,.312.029l-.055.367a1.345,1.345,0,0,0-.286-.036.7.7,0,0,0-.542.258.936.936,0,0,0-.225.641v1.4h-.4v-2.611h.326l.046.484h.019a1.139,1.139,0,0,1,.35-.393A.791.791,0,0,1-3402.589-3612.174Z" transform="translate(3418.892 3613.222)" fill="#173647"/>
          <path id="Path_517" data-name="Path 517" d="M-3395.746-3611.209a1.3,1.3,0,0,0,.2-.015,1.392,1.392,0,0,0,.155-.032v.3a.716.716,0,0,1-.189.051,1.409,1.409,0,0,1-.225.021q-.757,0-.758-.8v-1.553h-.374v-.19l.374-.165.167-.557h.229v.6h.758v.307h-.758v1.537a.527.527,0,0,0,.112.362A.389.389,0,0,0-3395.746-3611.209Z" transform="translate(3413.981 3614.637)" fill="#173647"/>
          <path id="Path_518" data-name="Path 518" d="M-3388.721-3609.468a1.2,1.2,0,0,1-.914-.353,1.363,1.363,0,0,1-.335-.979,1.515,1.515,0,0,1,.311-1,1.034,1.034,0,0,1,.835-.372.985.985,0,0,1,.777.323,1.237,1.237,0,0,1,.286.852v.25h-1.8a1.038,1.038,0,0,0,.232.7.8.8,0,0,0,.62.238,2.106,2.106,0,0,0,.834-.176v.353a2.114,2.114,0,0,1-.4.13A2.254,2.254,0,0,1-3388.721-3609.468Zm-.107-2.375a.645.645,0,0,0-.5.205.944.944,0,0,0-.221.567h1.365a.869.869,0,0,0-.167-.573A.585.585,0,0,0-3388.828-3611.843Z" transform="translate(3408.985 3613.222)" fill="#173647"/>
          <path id="Path_519" data-name="Path 519" d="M-3378.019-3612.525h-.021a.93.93,0,0,1-.819.4.97.97,0,0,1-.8-.35,1.543,1.543,0,0,1-.284-1,1.567,1.567,0,0,1,.286-1,.962.962,0,0,1,.8-.357.949.949,0,0,1,.814.386h.031l-.017-.188-.009-.184v-1.062h.4v3.707h-.322Zm-.791.066a.72.72,0,0,0,.587-.22,1.111,1.111,0,0,0,.183-.711v-.083a1.311,1.311,0,0,0-.185-.792.7.7,0,0,0-.59-.237.605.605,0,0,0-.532.27,1.347,1.347,0,0,0-.185.764,1.291,1.291,0,0,0,.184.755A.622.622,0,0,0-3378.81-3612.459Z" transform="translate(3401.792 3615.882)" fill="#173647"/>
          <path id="Path_520" data-name="Path 520" d="M-3362.462-3614.829a.968.968,0,0,1,.8.352,1.542,1.542,0,0,1,.285.994,1.555,1.555,0,0,1-.287,1,.966.966,0,0,1-.8.356,1.13,1.13,0,0,1-.465-.094.873.873,0,0,1-.354-.29h-.028l-.083.336h-.284v-3.707h.4v.9c0,.2-.006.383-.019.543h.019A.939.939,0,0,1-3362.462-3614.829Zm-.057.331a.69.69,0,0,0-.583.232,1.311,1.311,0,0,0-.179.783,1.3,1.3,0,0,0,.184.787.7.7,0,0,0,.588.237.611.611,0,0,0,.543-.265,1.367,1.367,0,0,0,.179-.764,1.311,1.311,0,0,0-.179-.76A.634.634,0,0,0-3362.52-3614.5Z" transform="translate(3390.125 3615.882)" fill="#173647"/>
          <path id="Path_521" data-name="Path 521" d="M-3354.333-3612.006h.424l.572,1.489a5.787,5.787,0,0,1,.234.736h.019c.021-.081.064-.219.13-.416s.281-.8.647-1.809h.424l-1.122,2.973a1.479,1.479,0,0,1-.389.625.829.829,0,0,1-.547.185,1.6,1.6,0,0,1-.357-.041v-.317a1.362,1.362,0,0,0,.293.029.6.6,0,0,0,.581-.458l.145-.372Z" transform="translate(3383.423 3613.102)" fill="#173647"/>
        </g>
      </g>
    </g>
  </g>
</svg>
