<svg id="Group_1334" data-name="Group 1334" xmlns="http://www.w3.org/2000/svg" width="93.521" height="30.104" viewBox="0 0 93.521 30.104">
  <g id="Group_1299" data-name="Group 1299" transform="translate(33.857 10.882)">
    <g id="Group_1298" data-name="Group 1298" transform="translate(0 0)">
      <path id="Path_473" data-name="Path 473" d="M129.205,55.34h-9.433V54.092l7.284-11.038H120V41.618h9v1.248l-7.284,11.028h7.49Z" transform="translate(-119.772 -40.736)" fill="#173647"/>
      <path id="Path_474" data-name="Path 474" d="M162.3,63.768a4.728,4.728,0,0,1-3.6-1.389,5.379,5.379,0,0,1-1.318-3.857A5.963,5.963,0,0,1,158.6,54.57a4.069,4.069,0,0,1,3.29-1.464,3.881,3.881,0,0,1,3.06,1.271,4.876,4.876,0,0,1,1.126,3.356v.986h-7.086a4.076,4.076,0,0,0,.915,2.75,3.167,3.167,0,0,0,2.445.939,8.292,8.292,0,0,0,3.285-.695V63.1a8.268,8.268,0,0,1-1.563.511A8.781,8.781,0,0,1,162.3,63.768Zm-.422-9.358a2.544,2.544,0,0,0-1.976.807,3.717,3.717,0,0,0-.868,2.234h5.378a3.428,3.428,0,0,0-.657-2.257A2.314,2.314,0,0,0,161.874,54.411Z" transform="translate(-146.748 -48.976)" fill="#173647"/>
      <path id="Path_475" data-name="Path 475" d="M200.749,63.768a4.448,4.448,0,0,1-1.835-.371,3.447,3.447,0,0,1-1.394-1.14h-.113a13.78,13.78,0,0,1,.113,1.708V68.2h-1.558v-14.9h1.267l.216,1.408h.075a3.616,3.616,0,0,1,1.4-1.22,4.252,4.252,0,0,1,1.83-.375,3.8,3.8,0,0,1,3.158,1.4,6.155,6.155,0,0,1,1.112,3.923,6.12,6.12,0,0,1-1.131,3.937A3.808,3.808,0,0,1,200.749,63.768Zm-.225-9.339a2.761,2.761,0,0,0-2.281.873,4.489,4.489,0,0,0-.723,2.778v.347a5.145,5.145,0,0,0,.723,3.1,2.748,2.748,0,0,0,2.318.934,2.411,2.411,0,0,0,2.088-1.08,5.12,5.12,0,0,0,.756-2.975,4.929,4.929,0,0,0-.756-2.952A2.485,2.485,0,0,0,200.524,54.43Z" transform="translate(-174.425 -48.976)" fill="#173647"/>
      <path id="Path_476" data-name="Path 476" d="M243.094,53.1V46.447a2.686,2.686,0,0,0-.572-1.877,2.333,2.333,0,0,0-1.793-.619,2.937,2.937,0,0,0-2.37.882,4.468,4.468,0,0,0-.746,2.891V53.1h-1.558V38.5h1.558v4.421a9.689,9.689,0,0,1-.075,1.323h.094a3.177,3.177,0,0,1,1.309-1.169,4.263,4.263,0,0,1,1.938-.427,3.969,3.969,0,0,1,2.83.9,3.776,3.776,0,0,1,.943,2.849V53.1Z" transform="translate(-203.184 -38.497)" fill="#173647"/>
      <path id="Path_477" data-name="Path 477" d="M270.225,53.77H271.9l2.252,5.866a22.347,22.347,0,0,1,.92,2.9h.075q.122-.479.512-1.638T278.2,53.77h1.671l-4.421,11.714a5.847,5.847,0,0,1-1.535,2.464,3.263,3.263,0,0,1-2.154.728,6.29,6.29,0,0,1-1.408-.16V67.267a5.422,5.422,0,0,0,1.154.113,2.38,2.38,0,0,0,2.29-1.8l.572-1.464Z" transform="translate(-227.695 -49.453)" fill="#173647"/>
      <path id="Path_478" data-name="Path 478" d="M314.58,53.106a6.092,6.092,0,0,1,1.23.113l-.216,1.445a5.311,5.311,0,0,0-1.126-.141,2.741,2.741,0,0,0-2.135,1.014,3.7,3.7,0,0,0-.887,2.525v5.519h-1.558V53.294h1.286l.178,1.906h.075a4.515,4.515,0,0,1,1.38-1.549A3.1,3.1,0,0,1,314.58,53.106Z" transform="translate(-256.145 -48.976)" fill="#173647"/>
    </g>
  </g>
  <g id="Group_1302" data-name="Group 1302" transform="translate(34.316 1.307)">
    <g id="Group_1301" data-name="Group 1301" transform="translate(0 0)">
      <g id="Group_1300" data-name="Group 1300">
        <path id="Path_479" data-name="Path 479" d="M125.266,5.635s-1.242-.142-1.757-.142c-.745,0-1.127.266-1.127.79,0,.568.319.7,1.358.985,1.278.355,1.739.692,1.739,1.73a1.782,1.782,0,0,1-2.032,1.908,12.928,12.928,0,0,1-1.988-.24l.1-.79s1.2.16,1.828.16c.754,0,1.1-.337,1.1-.976,0-.515-.275-.692-1.207-.914-1.313-.337-1.881-.737-1.881-1.792,0-1.225.808-1.73,2.023-1.73a13.484,13.484,0,0,1,1.925.213Z" transform="translate(-121.397 -4.624)" fill="#173647"/>
        <path id="Path_480" data-name="Path 480" d="M144.193,5h1.713l1.358,4.747L148.621,5h1.721v6.078h-.994V5.825H149.3l-1.518,5h-1.029l-1.518-5h-.052v5.253h-.985Z" transform="translate(-137.749 -4.894)" fill="#173647"/>
        <path id="Path_481" data-name="Path 481" d="M219.91,5h4.436v.878h-1.712v5.2h-.994v-5.2h-1.73Z" transform="translate(-192.062 -4.894)" fill="#173647"/>
        <path id="Path_482" data-name="Path 482" d="M244.911,5c1.207,0,1.854.453,1.854,1.579a1.334,1.334,0,0,1-.719,1.366,1.312,1.312,0,0,1,.87,1.411c0,1.242-.754,1.721-1.934,1.721H242.6V5Zm-1.322.852V7.591h1.3c.6,0,.87-.3.87-.9s-.3-.843-.9-.843Zm0,2.574v1.8h1.34c.612,0,.976-.2.976-.923,0-.692-.515-.878-.994-.878Z" transform="translate(-208.341 -4.894)" fill="#173647"/>
        <path id="Path_483" data-name="Path 483" d="M266.5,5h3.833v.861h-2.848V7.582H269.8v.843h-2.316v1.783h2.848v.869H266.5Z" transform="translate(-225.48 -4.894)" fill="#173647"/>
        <path id="Path_484" data-name="Path 484" d="M288.746,5h1.961l1.508,6.078h-.994l-.449-1.783H288.68l-.449,1.783h-.985Zm.131,3.425h1.705l-.629-2.6h-.444Z" transform="translate(-240.364 -4.894)" fill="#173647"/>
        <path id="Path_485" data-name="Path 485" d="M313.564,9.277v1.8h-.985V5h2.307a1.885,1.885,0,0,1,2.058,2.116,2.051,2.051,0,0,1-.994,1.939l1,2.023h-1.083l-.879-1.8Zm1.322-3.425h-1.322V8.425h1.34c.745,0,1.029-.67,1.029-1.3C315.933,6.433,315.6,5.852,314.886,5.852Z" transform="translate(-258.536 -4.894)" fill="#173647"/>
        <path id="Path_486" data-name="Path 486" d="M175.044,5H177l1.508,6.078h-.994l-.449-1.783h-2.093l-.449,1.783h-.985Zm.131,3.425h1.705l-.629-2.6h-.444Z" transform="translate(-158.803 -4.894)" fill="#173647"/>
        <path id="Path_487" data-name="Path 487" d="M199.862,9.277v1.8h-.985V5h2.307a1.885,1.885,0,0,1,2.058,2.116,2.051,2.051,0,0,1-.994,1.939l1,2.023h-1.083l-.879-1.8Zm1.322-3.425h-1.322V8.425h1.34c.745,0,1.029-.67,1.029-1.3C202.231,6.433,201.894,5.852,201.184,5.852Z" transform="translate(-176.975 -4.894)" fill="#173647"/>
      </g>
    </g>
  </g>
  <g id="Group_1309" data-name="Group 1309" transform="translate(0 0)">
    <g id="Group_1306" data-name="Group 1306">
      <g id="Group_1305" data-name="Group 1305">
        <g id="Group_1303" data-name="Group 1303" transform="translate(0.706 0.705)">
          <rect id="Rectangle_1308" data-name="Rectangle 1308" width="25.424" height="25.428" fill="#17d1fc"/>
        </g>
        <g id="Group_1304" data-name="Group 1304">
          <path id="Path_488" data-name="Path 488" d="M25.424,1.411V25.428H1.411V1.411H25.424M26.835,0H0V26.838H26.835V0Z" fill="#173647"/>
        </g>
      </g>
    </g>
    <g id="Group_1308" data-name="Group 1308" transform="translate(5.124 4.847)">
      <g id="Group_1307" data-name="Group 1307">
        <path id="Path_489" data-name="Path 489" d="M18.125,26.629a8.8,8.8,0,0,1,7.811-6.156c6.323-.606,8.288-1.3,9.7-3.327-1.277,3.718-2.763,6.088-10.954,6.67C19.319,24.2,18.125,26.629,18.125,26.629Z" transform="translate(-18.125 -17.147)" fill="#173647"/>
      </g>
    </g>
    <path id="Path_490" data-name="Path 490" d="M29.018,62.505c-1.426.734-3.734.228-6.068.3-3.421.111-3.4,1.089-3.4,1.089S22.458,69.062,29.018,62.505Z" transform="translate(-14.026 -44.836)" fill="#173647"/>
    <path id="Path_491" data-name="Path 491" d="M17.92,45.708s-.23-3.633,5.134-4.052c6.23-.486,8.3-1.264,9.248-2.348-.682,3.45-3.114,5.494-8.241,5.274C18.239,44.332,17.92,45.708,17.92,45.708Z" transform="translate(-12.854 -28.196)" fill="#173647"/>
  </g>
</svg>
