<?xml version="1.0" encoding="utf-8"?>
<!-- Generator: Adobe Illustrator 21.0.0, SVG Export Plug-In . SVG Version: 6.00 Build 0)  -->
<svg version="1.1" id="Layer_1" xmlns="http://www.w3.org/2000/svg" xmlns:xlink="http://www.w3.org/1999/xlink" x="0px" y="0px"
	 viewBox="0 0 153 214" style="enable-background:new 0 0 153 214;" xml:space="preserve">
<style type="text/css">
	.st0{fill:#FFFFFE;}
	.st1{fill:#944232;}
	.st2{fill:#BA533F;}
	.st3{fill:url(#SVGID_1_);}
	.st4{fill:url(#SVGID_2_);}
	.st5{fill:url(#SVGID_3_);}
	.st6{fill:url(#SVGID_4_);}
	.st7{fill:url(#SVGID_5_);}
	.st8{fill:#E8674E;}
	.st9{fill:url(#SVGID_6_);}
	.st10{fill:url(#SVGID_7_);}
	.st11{fill:url(#SVGID_8_);}
	.st12{fill:url(#SVGID_9_);}
	.st13{fill:url(#SVGID_10_);}
	.st14{fill:url(#SVGID_11_);}
	.st15{fill:url(#SVGID_12_);}
	.st16{fill:url(#SVGID_13_);}
	.st17{fill:url(#SVGID_14_);}
	.st18{fill:url(#SVGID_15_);}
	.st19{fill:url(#SVGID_16_);}
	.st20{fill:url(#SVGID_17_);}
	.st21{fill:url(#SVGID_18_);}
	.st22{fill:url(#SVGID_19_);}
	.st23{fill:url(#SVGID_20_);}
	.st24{fill:url(#SVGID_21_);}
	.st25{fill:url(#SVGID_22_);}
	.st26{fill:url(#SVGID_23_);}
	.st27{fill:url(#SVGID_24_);}
	.st28{fill:url(#SVGID_25_);}
	.st29{fill:url(#SVGID_26_);}
	.st30{fill:url(#SVGID_27_);}
	.st31{fill:url(#SVGID_28_);}
	.st32{fill:url(#SVGID_29_);}
	.st33{fill:url(#SVGID_30_);}
	.st34{fill:url(#SVGID_31_);}
	.st35{fill:url(#SVGID_32_);}
	.st36{fill:url(#SVGID_33_);}
	.st37{fill:url(#SVGID_34_);}
	.st38{fill:url(#SVGID_35_);}
	.st39{fill:#DF9837;}
	.st40{fill:url(#SVGID_36_);}
	.st41{fill:url(#SVGID_37_);}
	.st42{fill:url(#SVGID_38_);}
	.st43{fill:url(#SVGID_39_);}
	.st44{fill:url(#SVGID_40_);}
	.st45{fill:url(#SVGID_41_);}
	.st46{fill:url(#SVGID_42_);}
	.st47{fill:url(#SVGID_43_);}
	.st48{fill:url(#SVGID_44_);}
	.st49{fill:url(#SVGID_45_);}
	.st50{fill:url(#SVGID_46_);}
	.st51{fill:url(#SVGID_47_);}
	.st52{fill:url(#SVGID_48_);}
	.st53{fill:url(#SVGID_49_);}
	.st54{fill:url(#SVGID_50_);}
	.st55{fill:url(#SVGID_51_);}
	.st56{fill:url(#SVGID_52_);}
	.st57{fill:url(#SVGID_53_);}
	.st58{fill:url(#SVGID_54_);}
	.st59{fill:url(#SVGID_55_);}
	.st60{fill:#8B8C8C;}
	.st61{fill:#C5C6C7;}
	.st62{fill:#FFFFFF;}
	.st63{display:none;fill:#FFFFFF;stroke:#58595B;stroke-width:0.75;stroke-miterlimit:10;}
	.st64{fill:#404041;}
	.st65{fill:#181823;}
	.st66{fill-rule:evenodd;clip-rule:evenodd;fill:#181823;}
	.st67{fill:#E76F00;}
	.st68{fill:#5382A1;}
</style>
<g>
	<g>
		<polygon class="st0" points="116.7,55.7 116.7,55.7 116.7,55.7 		"/>
		<g>
			<g>
				<g>
					<path class="st1" d="M117.7,145.1c2.6,0,5.1-0.9,7.6-1.5c2.8-0.7,5.7-0.6,8.4-1.3c0.2-0.1,0.1-0.4-0.1-0.3
						c-2.7,0.5-5.4,0.5-8,1.1C123,143.6,120.3,144.3,117.7,145.1C117.7,145,117.7,145.1,117.7,145.1L117.7,145.1z"/>
				</g>
			</g>
			<g>
				<g>
					<path class="st1" d="M119.1,144.9c-0.2,0.4-0.1,0.9,0.1,1.2c0.1,0.1,0.2,0,0.2,0c0.1-0.3,0-0.8-0.2-1.2
						C119.2,144.8,119.2,144.8,119.1,144.9L119.1,144.9z"/>
				</g>
			</g>
			<g>
				<g>
					<path class="st1" d="M120,144.6c-0.1,0.4-0.1,1.1,0.2,1.3c0.1,0.1,0.2,0.1,0.2,0c0.2-0.4,0-1-0.2-1.4
						C120.2,144.5,120,144.5,120,144.6L120,144.6z"/>
				</g>
			</g>
			<g>
				<g>
					<path class="st1" d="M121.2,144.4c0.1,0.4,0.1,0.9,0.4,1.2c0,0,0.1,0,0.1,0C121.6,145.1,121.5,144.7,121.2,144.4
						C121.3,144.3,121.2,144.3,121.2,144.4L121.2,144.4z"/>
				</g>
			</g>
			<g>
				<g>
					<path class="st1" d="M122.2,144.2c0,0.5,0.1,1,0.5,1.3c0.1,0.1,0.2,0,0.2-0.1c0.1-0.4-0.1-1-0.4-1.3
						C122.5,144,122.2,144,122.2,144.2L122.2,144.2z"/>
				</g>
			</g>
			<g>
				<g>
					<path class="st1" d="M123.3,143.8c-0.2,0.5,0.2,1.4,0.6,1.6c0.1,0,0.1,0,0.1-0.1c0.1-0.4-0.2-1.3-0.5-1.6
						C123.4,143.7,123.3,143.8,123.3,143.8L123.3,143.8z"/>
				</g>
			</g>
			<g>
				<g>
					<path class="st1" d="M124.2,143.7c0,0.4,0.2,1.2,0.5,1.4c0.1,0.1,0.2,0,0.2-0.1c0.2-0.4-0.3-1.2-0.6-1.4
						C124.3,143.5,124.2,143.6,124.2,143.7L124.2,143.7z"/>
				</g>
			</g>
			<g>
				<g>
					<path class="st1" d="M125.5,143.4c-0.3,0.4,0,1.4,0.4,1.7c0.1,0,0.2,0,0.2,0c0.1-0.3,0.1-0.4,0-0.7c-0.1-0.3-0.2-0.7-0.4-0.9
						C125.6,143.4,125.5,143.4,125.5,143.4L125.5,143.4z"/>
				</g>
			</g>
			<g>
				<g>
					<path class="st1" d="M126.4,143.2c0,0.3,0.1,0.7,0.2,1c0.1,0.3,0.2,0.6,0.4,0.8c0.1,0.1,0.2,0,0.2-0.1c0.1-0.3-0.1-0.5-0.2-0.8
						c-0.1-0.3-0.2-0.6-0.4-0.9C126.6,143,126.5,143.1,126.4,143.2L126.4,143.2z"/>
				</g>
			</g>
			<g>
				<g>
					<path class="st1" d="M127.4,143.2c0.1,0.5,0.3,0.9,0.5,1.3c0,0.1,0.1,0,0.1,0c0-0.5-0.2-0.9-0.5-1.4
						C127.6,143,127.4,143.1,127.4,143.2L127.4,143.2z"/>
				</g>
			</g>
			<g>
				<g>
					<path class="st1" d="M128.4,143c-0.2,0.4,0.2,1.2,0.5,1.5c0,0,0.1,0,0.1,0c0.2-0.4-0.1-1.3-0.5-1.5
						C128.5,142.9,128.4,143,128.4,143L128.4,143z"/>
				</g>
			</g>
			<g>
				<g>
					<path class="st1" d="M129.5,142.9c0.1,0.5,0.4,1,0.7,1.4c0.1,0.1,0.1,0,0.1-0.1c-0.1-0.5-0.4-1-0.7-1.4
						C129.6,142.8,129.4,142.8,129.5,142.9L129.5,142.9z"/>
				</g>
			</g>
			<g>
				<g>
					<path class="st1" d="M130.3,142.7c0,0.5,0.2,1.2,0.5,1.5c0.1,0,0.1,0,0.2,0c0.3-0.5-0.2-1.2-0.5-1.5
						C130.4,142.6,130.3,142.7,130.3,142.7L130.3,142.7z"/>
				</g>
			</g>
			<g>
				<g>
					<path class="st1" d="M131.3,142.6c0,0.4,0.2,1.1,0.5,1.4c0.1,0.1,0.2,0,0.2-0.1c0-0.4-0.3-1-0.6-1.3
						C131.4,142.5,131.3,142.6,131.3,142.6L131.3,142.6z"/>
				</g>
			</g>
			<g>
				<g>
					<path class="st1" d="M132.1,142.4c0.1,0.3,0.2,0.6,0.3,0.9c0.1,0.2,0,0.4,0.2,0.6c0,0,0.1,0,0.1,0
						C132.9,143.5,132.4,142.8,132.1,142.4C132.1,142.3,132.1,142.4,132.1,142.4L132.1,142.4z"/>
				</g>
			</g>
			<g>
				<g>
					<path class="st1" d="M133.2,142.4c-0.3,0.5-0.1,1.3,0.3,1.7c0,0.1,0.2,0,0.2,0c0.2-0.5,0-1.3-0.3-1.7
						C133.3,142.3,133.2,142.3,133.2,142.4L133.2,142.4z"/>
				</g>
			</g>
		</g>
		<g>
			<g>
				<g>
					<path class="st1" d="M26.7,142.2c-0.2,0.2-0.2,0.5-0.3,0.7c-0.1,0.3-0.2,0.5-0.2,0.8c0,0.1,0.1,0.1,0.2,0.1
						C26.7,143.5,26.9,142.7,26.7,142.2C26.7,142.2,26.7,142.2,26.7,142.2L26.7,142.2z"/>
				</g>
			</g>
			<g>
				<g>
					<path class="st1" d="M27.8,142.5c-0.1,0.3-0.2,0.6-0.2,0.9c-0.1,0.3-0.1,0.4,0,0.7c0,0.1,0.2,0.1,0.2,0.1
						c0.4-0.3,0.4-1.2,0.2-1.6C28,142.4,27.9,142.4,27.8,142.5L27.8,142.5z"/>
				</g>
			</g>
			<g>
				<g>
					<path class="st1" d="M29.2,142.7c-0.2,0.2-0.1,0.5-0.2,0.7c-0.1,0.3-0.3,0.6-0.2,1c0,0.1,0.2,0.2,0.3,0.1
						c0.4-0.3,0.5-0.9,0.4-1.4C29.6,143,29.4,142.4,29.2,142.7L29.2,142.7z"/>
				</g>
			</g>
			<g>
				<g>
					<path class="st1" d="M30.4,143c-0.1,0.2-0.1,0.5-0.1,0.8c0,0.3-0.2,0.6,0.1,0.8c0,0.1,0.1,0.1,0.2,0c0.4-0.2,0.5-1.6-0.1-1.7
						C30.5,142.9,30.4,143,30.4,143L30.4,143z"/>
				</g>
			</g>
			<g>
				<g>
					<path class="st1" d="M32.3,143.4c-0.3,0.3-0.5,1-0.2,1.3c0.1,0.1,0.1,0.1,0.2,0.1c0.4-0.2,0.4-0.9,0.2-1.3
						C32.5,143.3,32.4,143.3,32.3,143.4L32.3,143.4z"/>
				</g>
			</g>
			<g>
				<g>
					<path class="st1" d="M33.5,143.4c-0.1,0.5-0.3,1.1-0.3,1.6c0,0.2,0.3,0.2,0.4,0c0.2-0.5,0.3-1.1,0.3-1.6
						C33.8,143.3,33.5,143.2,33.5,143.4L33.5,143.4z"/>
				</g>
			</g>
			<g>
				<g>
					<path class="st1" d="M35.2,143.4c-0.4,0.5-0.4,1.3-0.5,1.9c0,0.3,0.5,0.4,0.6,0.1c0.1-0.6,0.3-1.3,0.1-1.9
						C35.4,143.3,35.3,143.3,35.2,143.4L35.2,143.4z"/>
				</g>
			</g>
			<g>
				<g>
					<path class="st1" d="M36.8,143.8c-0.1,0.3-0.1,0.5-0.2,0.9c0,0.3-0.1,0.6,0,0.9c0,0.1,0.1,0.1,0.2,0c0.4-0.4,0.3-1.3,0.1-1.7
						C36.9,143.7,36.8,143.7,36.8,143.8L36.8,143.8z"/>
				</g>
			</g>
			<g>
				<g>
					<path class="st1" d="M38.1,144.1c-0.2,0.3-0.2,0.6-0.3,1c-0.1,0.3-0.2,0.6-0.1,0.9c0,0.1,0.1,0.1,0.2,0.1
						c0.5-0.4,0.6-1.4,0.3-2C38.3,144,38.2,144,38.1,144.1L38.1,144.1z"/>
				</g>
			</g>
			<g>
				<g>
					<path class="st1" d="M39.2,144.4c-0.1,0.3-0.1,0.6-0.1,0.9c0,0.3-0.1,0.6,0,0.8c0,0.1,0.1,0.1,0.2,0.1c0.5-0.3,0.4-1.3,0.3-1.8
						C39.5,144.2,39.3,144.2,39.2,144.4L39.2,144.4z"/>
				</g>
			</g>
			<g>
				<g>
					<path class="st1" d="M40.7,144.7c-0.2,0.4-0.5,1.2-0.3,1.6c0,0,0.1,0.1,0.2,0.1c0.5-0.2,0.5-1.2,0.4-1.6
						C40.9,144.6,40.7,144.5,40.7,144.7L40.7,144.7z"/>
				</g>
			</g>
			<g>
				<g>
					<path class="st1" d="M25.3,142.1c5.2,1.4,10.8,1.3,16,2.8c0.3,0.1,0.4-0.3,0.1-0.4c-2.9-1-5.9-1.1-8.8-1.6
						C30.3,142.4,27.7,141.4,25.3,142.1C25.3,142.1,25.3,142.1,25.3,142.1L25.3,142.1z"/>
				</g>
			</g>
		</g>
		<path class="st2" d="M110.1,103.3c-7.3-1.5-18.5-3.2-30.1-3.2c-11.7,0-22.9,1.8-30.2,3.2c-4.6,0.9-8.3,5.4-8.3,9.6v69.5h76.9
			v-69.5C118.4,108.6,114.7,104.2,110.1,103.3"/>
		<g>
			<linearGradient id="SVGID_1_" gradientUnits="userSpaceOnUse" x1="21.3996" y1="158.7677" x2="117.9539" y2="158.7677">
				<stop  offset="0" style="stop-color:#F7B541"/>
				<stop  offset="0.2918" style="stop-color:#EDA93E"/>
				<stop  offset="0.8206" style="stop-color:#D38835"/>
				<stop  offset="1" style="stop-color:#C97C32"/>
			</linearGradient>
			<path class="st3" d="M115.5,155.2c-6.7-3.8-29.6-3.5-36.9-0.7c-0.1,0-0.3,0-0.4,0c-10,0.3-22.6,0.2-32,4.8
				c1.5-4,1.8-14.2,0.7-14.6c-4-1.3-8.4-1.4-12.5-2.4c-2.9-0.7-6.6-1.3-8.8,1.1c-0.8,0.9-1,2-1.2,3.1c-0.4,2.4-0.9,4.9-1.3,7.3
				c-0.9,4.9-1.5,9.8-1.7,14.8c0,0.1,0,0.2,0,0.3c0,0.1,0,0.3,0,0.4c1.7,11.9,30,4.1,30.3,4.1c15.2-4.5,30.4-9.4,46.3-11.3
				c0.1,0,0.1,0,0.2,0c2.1,0.3,18.2,0.7,19.3-1.6C118.6,158.4,117.6,156.4,115.5,155.2z"/>
			<g id="XMLID_1_">
				<g>
					<linearGradient id="SVGID_2_" gradientUnits="userSpaceOnUse" x1="24.3635" y1="159.372" x2="102.7392" y2="159.372">
						<stop  offset="0" style="stop-color:#F7B541"/>
						<stop  offset="0.2918" style="stop-color:#EDA93E"/>
						<stop  offset="0.8206" style="stop-color:#D38835"/>
						<stop  offset="1" style="stop-color:#C97C32"/>
					</linearGradient>
					<path class="st4" d="M101.2,157.2c2.4,1.1,1.5,1.8,0,2.1c-0.2-0.2-0.6-0.4-1.1-0.3c-13.3,1.4-26,4.8-38.7,8.6
						c0-0.9-35.3,14.1-37,1.7c0-0.1,0-0.2-0.1-0.3c0-0.1,0.1-0.2,0.1-0.4c0.3-6.9,1.9-13.6,2.8-20.4c0.7-4.9,4.6-3.6,8.5-2.6
						c2.9,0.7,6,0.8,8.9,1.5c1,5.1-0.6,10.2-2.9,15c-0.5,0.4-1.9,3.5-2.1,3.8c-0.9,1.6,1.7,3,2.6,1.4c0.7-1.2,1.3-2.3,1.9-3.5
						c8.7-6.2,22.5-6.1,33.1-6.4c0.4,0.3,1,0.4,1.6,0.1c4.6-2.1,9.9-2.2,14.9-1.8C96.3,155.8,99,156.3,101.2,157.2z"/>
				</g>
				<g>
				</g>
			</g>
			<g id="XMLID_2_">
				<g>
					<linearGradient id="SVGID_3_" gradientUnits="userSpaceOnUse" x1="75.5934" y1="158.4772" x2="136.862" y2="158.4772">
						<stop  offset="0" style="stop-color:#F7B541"/>
						<stop  offset="0.2918" style="stop-color:#EDA93E"/>
						<stop  offset="0.8206" style="stop-color:#D38835"/>
						<stop  offset="1" style="stop-color:#C97C32"/>
					</linearGradient>
					<path class="st5" d="M121.6,159c1.8,0.3,1.2,2.7-0.6,2.7c-0.4,0.1-0.7,0.1-1.1-0.1c-1.8,0-3.6,0.5-5.3-0.1
						c-1.9-0.6-4-1.4-6-1.4c-4,0-7.7,0.9-11.5,1.8c-3.2,0.8-6.2,2.2-9.4,2.9c17.1,4.4,46.2,14.7,46.3-1.4c0-0.1,0-0.2,0-0.3
						c0-0.1,0-0.2,0-0.3c0-2.7,0-18.3-4.3-17.5c-2.8,0.5-5.5,1-8.3,1.5c-1.8,0.3-3.5,0.5-5.1,1c0.8,4,2.3,8,5.2,11.2
						C121.4,159,121.5,159,121.6,159z M136.9,162.7c0,0.1,0,0.2,0,0.3c0,0.1,0,0.2,0,0.3c-0.1,24.5-46.5,1.8-59.1,2.4
						c-0.3,0-0.6-0.1-0.8-0.2c-1.9-0.1-1.9-2.7,0.1-2.7c4.5,0,8.8-0.3,13-1.8c3.7-1.3,7.5-2.4,11.3-3.1c3.3-0.6,6.9-1.2,10.2-0.3
						c1.9,0.5,3.8,1.4,5.8,1.2c0.1,0,0.1,0,0.2,0c-2.3-3.2-5.5-12.4-4.4-13c0.5-0.3,1.1-1,1.7-1.1c1.3-0.3,2.8-0.3,4.2-0.5
						c2.3-0.4,4.6-0.8,6.9-1.2c2.4-0.4,5.8-2,7.3,0c1.4,1.8,2.2,5.8,2.5,7.8C136.5,154.8,136.8,158.7,136.9,162.7z"/>
					<linearGradient id="SVGID_4_" gradientUnits="userSpaceOnUse" x1="87.5474" y1="158.6322" x2="133.8793" y2="158.6322">
						<stop  offset="0" style="stop-color:#F7B541"/>
						<stop  offset="0.2918" style="stop-color:#EDA93E"/>
						<stop  offset="0.8206" style="stop-color:#D38835"/>
						<stop  offset="1" style="stop-color:#C97C32"/>
					</linearGradient>
					<path class="st6" d="M119.9,161.6c0.4,0.2,0.7,0.2,1.1,0.1c1.7,0.1,2.4-2.4,0.6-2.7c-0.1,0-0.1,0-0.2,0
						c-2.9-3.2-4.3-7.2-5.2-11.2c1.6-0.5,3.3-0.7,5.1-1c2.8-0.5,5.5-1,8.3-1.5c4.3-0.8,4.3,14.8,4.3,17.5c0,0.1,0,0.2,0,0.3
						c0,0.1,0,0.2,0,0.3c-0.1,16-29.2,5.8-46.3,1.4c3.2-0.7,6.2-2.1,9.4-2.9c3.8-0.9,7.5-1.8,11.5-1.8c2.1,0,4.1,0.8,6,1.4
						C116.3,162,118.1,161.5,119.9,161.6z"/>
				</g>
				<g>
				</g>
			</g>
			<linearGradient id="SVGID_5_" gradientUnits="userSpaceOnUse" x1="44.1227" y1="156.216" x2="79.994" y2="156.216">
				<stop  offset="0" style="stop-color:#F7B541"/>
				<stop  offset="0.2918" style="stop-color:#EDA93E"/>
				<stop  offset="0.8206" style="stop-color:#D38835"/>
				<stop  offset="1" style="stop-color:#C97C32"/>
			</linearGradient>
			<path class="st7" d="M79,154.5c-1.4-0.5-10.5-1.5-12-1.8c-0.2-0.3-13.9-0.6-19.5,1.4c-0.9,0.3-1.1,1.1-1,1.8l-2.4,3.9l24.8-3.7
				l-0.1-0.2c0.6,0.1,8.7,1,9.3,1.2C80,157.8,80.8,155.2,79,154.5z"/>
		</g>
		<path class="st8" d="M119.7,108.1c-1.5-1.6-3.4-2.9-5.7-3.7c-2.2-0.8-4.6-1-6.6-0.6c-1,0.2-1.8,0.5-2.6,0.9
			c-0.7,0.4-1.3,0.9-1.7,1.5c-0.9,1.1-1.3,2.4-1.3,3.8c0,2.7,2.4,12.7,3,13.6c1.2,1.9,2.7,5.1,3.9,8.6c1.2,3.5,2.2,7.3,2.8,10.1
			c0.6,2.8,1,4.8,1,4.8l21.7-3.5c0,0-0.4-2.1-1.1-5.4c-0.7-3.2-1.8-7.6-3.3-12c-1.5-4.4-3.5-8.9-5.6-12.4c-1-1.7-2.2-3.2-3-4.3
			c-0.4-0.5-0.8-0.9-1-1.2C119.8,108.3,119.7,108.1,119.7,108.1"/>
		<path class="st8" d="M57.4,110c0-1.4-0.4-2.7-1.3-3.8c-0.5-0.6-1-1.1-1.7-1.5c-0.7-0.4-1.6-0.8-2.6-0.9c-2-0.4-4.3-0.2-6.6,0.6
			c-2.2,0.8-4.2,2.1-5.7,3.7c0,0-0.1,0.1-0.4,0.4c-0.2,0.3-0.6,0.7-1,1.2c-0.8,1-2,2.5-3,4.3c-2.2,3.5-4.1,8-5.6,12.4
			c-1.5,4.4-2.6,8.7-3.3,12c-0.7,3.2-1.1,5.4-1.1,5.4l23.2,3.5c0,0,0.1-1.7,0.3-4.8c0.2-2.9,0.9-6.6,2.1-10.1
			C51.7,128.8,57.4,112.8,57.4,110z"/>
		<g>
			<g>
				<g>
					<path class="st1" d="M60.5,101.3c-2.5,3.9,1.2,8.4,4.3,10.6c4.2,3.1,9.7,5,14.8,5.5c5.1,0.4,9.9-1.3,13.9-4.3
						c3.3-2.5,7.6-6.8,6.4-11.4c-0.2-0.6-1.1-0.4-1,0.3c0.7,5-4.1,9.2-8,11.6c-3.4,2.1-7.1,3.1-11.1,2.9c-4.2-0.3-8.5-1.7-12.1-3.7
						c-4.4-2.4-7.7-5.8-6.9-11.1C61,101.2,60.7,101.1,60.5,101.3L60.5,101.3z"/>
				</g>
			</g>
			<g>
				<g>
					<path class="st1" d="M60.4,103.1c0.7,0.1,1.7,0,2.3-0.5c0.1-0.1,0-0.2-0.1-0.3c-0.7-0.1-1.5,0.4-2.2,0.4
						C60.3,102.8,60.3,103.1,60.4,103.1L60.4,103.1z"/>
				</g>
			</g>
			<g>
				<g>
					<path class="st1" d="M60.6,105c0.4,0.1,0.8,0,1.2-0.1c0.5-0.1,0.9-0.2,1.3-0.5c0.1-0.1,0.1-0.2,0-0.3c-0.5-0.1-0.8,0.1-1.3,0.2
						c-0.4,0.1-0.9,0.3-1.3,0.5C60.5,104.8,60.5,104.9,60.6,105L60.6,105z"/>
				</g>
			</g>
			<g>
				<g>
					<path class="st1" d="M60.9,106.4c0.4,0.2,0.9,0,1.3-0.2c0.4-0.2,0.9-0.4,1.2-0.7c0.1-0.1,0-0.3-0.1-0.3c-0.4,0-0.8,0.2-1.1,0.4
						c-0.4,0.2-0.9,0.3-1.3,0.6C60.8,106.3,60.8,106.4,60.9,106.4L60.9,106.4z"/>
				</g>
			</g>
			<g>
				<g>
					<path class="st1" d="M62.3,108c0.7-0.2,1.7-0.6,2.1-1.3c0.1-0.1,0-0.3-0.2-0.3c-0.8,0.1-1.6,0.6-2.2,1.1
						C61.8,107.8,62,108.1,62.3,108L62.3,108z"/>
				</g>
			</g>
			<g>
				<g>
					<path class="st1" d="M63.2,109.7c0.5-0.3,1-0.6,1.5-0.9c0.4-0.3,1-0.5,1.2-0.9c0.1-0.1,0-0.3-0.1-0.3c-0.5,0.1-1,0.5-1.4,0.8
						c-0.5,0.4-0.9,0.7-1.3,1.2C63,109.7,63.1,109.8,63.2,109.7L63.2,109.7z"/>
				</g>
			</g>
			<g>
				<g>
					<path class="st1" d="M64.6,111.1c0.5-0.3,1-0.6,1.5-0.9c0.4-0.3,0.9-0.6,1.1-1c0-0.1,0-0.2-0.1-0.2c-0.5,0.2-0.9,0.5-1.3,0.8
						c-0.5,0.3-0.9,0.6-1.3,1.1C64.4,111,64.5,111.1,64.6,111.1L64.6,111.1z"/>
				</g>
			</g>
			<g>
				<g>
					<path class="st1" d="M66.2,112c0.5-0.1,0.9-0.5,1.2-0.8c0.4-0.3,0.8-0.7,0.9-1.2c0.1-0.2-0.1-0.3-0.3-0.2
						c-0.5,0.2-0.8,0.7-1.1,1C66.6,111.2,66.2,111.5,66.2,112C66.1,112,66.1,112,66.2,112L66.2,112z"/>
				</g>
			</g>
			<g>
				<g>
					<path class="st1" d="M68.1,113.2c0.4-0.3,0.8-0.7,1.1-1.1c0.3-0.4,0.7-0.8,0.8-1.3c0.1-0.2-0.2-0.3-0.3-0.2
						c-0.5,0.4-0.8,0.8-1.1,1.3c-0.3,0.4-0.6,0.7-0.6,1.2C67.9,113.2,68.1,113.2,68.1,113.2L68.1,113.2z"/>
				</g>
			</g>
			<g>
				<g>
					<path class="st1" d="M70.3,114c0.3-0.3,0.5-0.8,0.7-1.3c0.2-0.4,0.5-0.8,0.5-1.2c0-0.2-0.2-0.2-0.3-0.1
						c-0.4,0.3-0.6,0.8-0.8,1.2c-0.2,0.4-0.4,0.9-0.4,1.3C70.1,114.1,70.2,114.1,70.3,114L70.3,114z"/>
				</g>
			</g>
			<g>
				<g>
					<path class="st1" d="M72.4,115c0.4-0.2,0.5-0.7,0.7-1c0.2-0.5,0.4-1,0.4-1.5c0-0.2-0.2-0.2-0.3-0.1c-0.3,0.4-0.4,0.9-0.6,1.3
						c-0.1,0.4-0.4,0.8-0.3,1.2C72.3,115,72.4,115,72.4,115L72.4,115z"/>
				</g>
			</g>
			<g>
				<g>
					<path class="st1" d="M75,115.5c0.2-0.4,0.3-0.9,0.5-1.4c0.1-0.4,0.4-0.9,0.3-1.4c0-0.1-0.2-0.2-0.3-0.1c-0.4,0.3-0.5,1-0.6,1.5
						c-0.1,0.4-0.2,0.9,0,1.4C74.8,115.6,74.9,115.6,75,115.5L75,115.5z"/>
				</g>
			</g>
			<g>
				<g>
					<path class="st1" d="M77.6,116.3c0.4-1,0.3-2.6-0.1-3.6c-0.1-0.2-0.3-0.1-0.3,0c-0.1,0.6,0,1.3,0,1.9c0,0.5,0,1.1,0.1,1.6
						C77.3,116.4,77.5,116.4,77.6,116.3L77.6,116.3z"/>
				</g>
			</g>
			<g>
				<g>
					<path class="st1" d="M80.4,116.5c0.2-0.5,0.2-1,0.2-1.6c0-0.5,0-1-0.2-1.5c-0.1-0.1-0.3-0.1-0.4,0c-0.2,0.5-0.2,1-0.2,1.5
						c0,0.5,0,1.1,0.2,1.6C80.2,116.6,80.4,116.6,80.4,116.5L80.4,116.5z"/>
				</g>
			</g>
			<g>
				<g>
					<path class="st1" d="M83,116.5c0.3-1.1-0.1-2.5-0.5-3.6c-0.1-0.2-0.3-0.2-0.4,0c-0.4,1.1,0.3,2.5,0.6,3.6
						C82.7,116.7,82.9,116.7,83,116.5L83,116.5z"/>
				</g>
			</g>
			<g>
				<g>
					<path class="st1" d="M86.7,115.1c-0.1-0.6-0.4-1.1-0.6-1.6c-0.2-0.5-0.4-1-0.9-1.3c-0.2-0.1-0.4,0-0.4,0.2c0,0.5,0.3,1,0.5,1.5
						c0.2,0.5,0.5,1.1,0.9,1.5C86.4,115.7,86.8,115.4,86.7,115.1L86.7,115.1z"/>
				</g>
			</g>
			<g>
				<g>
					<path class="st1" d="M89.1,114.9c-0.1-0.6-0.5-1.1-0.8-1.6c-0.4-0.5-0.7-1.2-1.2-1.7c-0.1-0.1-0.3-0.1-0.3,0.1
						c-0.1,0.7,0.3,1.2,0.7,1.8c0.4,0.6,0.9,1.1,1.5,1.5C89,115,89.1,115,89.1,114.9L89.1,114.9z"/>
				</g>
			</g>
			<g>
				<g>
					<path class="st1" d="M91.7,113.1c-0.2-0.5-0.5-0.9-0.8-1.3c-0.2-0.4-0.5-0.7-0.9-1c-0.1-0.1-0.3,0.1-0.3,0.2
						c0.2,0.9,0.9,1.9,1.7,2.3C91.6,113.4,91.8,113.2,91.7,113.1L91.7,113.1z"/>
				</g>
			</g>
			<g>
				<g>
					<path class="st1" d="M93.4,112.1c-0.1-0.4-0.4-0.8-0.7-1.2c-0.3-0.4-0.6-0.8-1.2-1c-0.1,0-0.3,0.1-0.2,0.2
						c0.2,0.5,0.5,0.8,0.8,1.2c0.3,0.3,0.6,0.8,1,0.9C93.3,112.3,93.4,112.3,93.4,112.1L93.4,112.1z"/>
				</g>
			</g>
			<g>
				<g>
					<path class="st1" d="M94.9,110.9c0.1-0.5-0.3-0.8-0.7-1.2c-0.4-0.4-0.8-1-1.4-1.2c-0.2-0.1-0.3,0.1-0.3,0.3
						c0.1,0.5,0.7,1,1.1,1.3c0.3,0.3,0.7,0.7,1.1,0.9C94.8,111.1,94.9,111,94.9,110.9L94.9,110.9z"/>
				</g>
			</g>
			<g>
				<g>
					<path class="st1" d="M96.7,109.2c0-0.4-0.4-0.8-0.7-1c-0.3-0.3-0.8-0.7-1.3-0.8c-0.2,0-0.3,0.1-0.2,0.3c0.2,0.4,0.6,0.7,1,0.9
						c0.3,0.3,0.7,0.6,1.1,0.7C96.6,109.4,96.7,109.3,96.7,109.2L96.7,109.2z"/>
				</g>
			</g>
			<g>
				<g>
					<path class="st1" d="M97.8,107.2c-0.2-0.2-0.4-0.2-0.6-0.4c-0.3-0.1-0.5-0.3-0.7-0.4c-0.4-0.3-0.8-0.7-1.3-0.8
						c-0.1,0-0.3,0.1-0.2,0.2c0.2,0.6,0.7,1,1.2,1.3c0.4,0.3,1.2,0.7,1.6,0.3C97.9,107.4,97.9,107.3,97.8,107.2L97.8,107.2z"/>
				</g>
			</g>
			<g>
				<g>
					<path class="st1" d="M98.7,106c-0.7-0.7-1.8-1.3-2.8-1.5c-0.2,0-0.2,0.1-0.1,0.3c0.6,0.8,1.9,1.1,2.8,1.5
						C98.7,106.4,98.8,106.1,98.7,106L98.7,106z"/>
				</g>
			</g>
			<g>
				<g>
					<path class="st1" d="M99.2,104.1c-0.5-0.2-0.9-0.4-1.4-0.5c-0.4-0.1-0.9-0.4-1.4-0.3c-0.2,0-0.2,0.3-0.1,0.4
						c0.3,0.3,0.9,0.5,1.4,0.6c0.5,0.1,1,0.2,1.4,0.1C99.3,104.3,99.3,104.1,99.2,104.1L99.2,104.1z"/>
				</g>
			</g>
			<g>
				<g>
					<path class="st1" d="M97.1,102.2c0.3,0.6,1.6,0.7,2.2,0.6c0.2,0,0.2-0.3,0-0.3c-0.3-0.2-0.7-0.3-1.1-0.3c-0.4,0-0.7-0.1-1.1,0
						C97.1,102.1,97.1,102.1,97.1,102.2L97.1,102.2z"/>
				</g>
			</g>
		</g>
		<linearGradient id="SVGID_6_" gradientUnits="userSpaceOnUse" x1="62.8151" y1="103.2161" x2="97.0582" y2="103.2161">
			<stop  offset="0" style="stop-color:#F7B541"/>
			<stop  offset="0.2918" style="stop-color:#EDA93E"/>
			<stop  offset="0.8206" style="stop-color:#D38835"/>
			<stop  offset="1" style="stop-color:#C97C32"/>
		</linearGradient>
		<path class="st9" d="M95.9,93.4l1.2,9.3c0,0-3,10.2-17.1,10.2c-14.1,0-17.1-10.2-17.1-10.2l1.2-9.3H95.9z"/>
		<g>
			<linearGradient id="SVGID_7_" gradientUnits="userSpaceOnUse" x1="88.3098" y1="18.7802" x2="87.213" y2="25.7387">
				<stop  offset="0.4112" style="stop-color:#F7B541"/>
				<stop  offset="0.5261" style="stop-color:#E39D3B"/>
				<stop  offset="0.6491" style="stop-color:#D58A36"/>
				<stop  offset="0.7784" style="stop-color:#CC8033"/>
				<stop  offset="0.9231" style="stop-color:#C97C32"/>
			</linearGradient>
			<path class="st10" d="M87.4,26.6c0,0,1.9-2.7,8.1-3.5c0,0-6.1-3.9-15.4-1.2C82.5,24,85.4,25.6,87.4,26.6z"/>
			<linearGradient id="SVGID_8_" gradientUnits="userSpaceOnUse" x1="63.2709" y1="20.5429" x2="67.3308" y2="26.9227">
				<stop  offset="0" style="stop-color:#F7B541"/>
				<stop  offset="0.2313" style="stop-color:#F0AD3F"/>
				<stop  offset="0.5925" style="stop-color:#DE9739"/>
				<stop  offset="0.9294" style="stop-color:#C97C32"/>
			</linearGradient>
			<path class="st11" d="M66.2,29.2c0.2,0,0.5,0,0.7,0c1.1-0.7,3.4-2.5,4-5.3c0.1-0.6,0.2-1.2,0.2-1.9c-1.8-0.2-3.8-0.1-5.8,0.4
				c-5.2,1.5-6.1,2.6-6.1,2.6C65.2,26.2,66.1,28.4,66.2,29.2z"/>
			<linearGradient id="SVGID_9_" gradientUnits="userSpaceOnUse" x1="71.1923" y1="14.346" x2="83.6805" y2="19.8999">
				<stop  offset="9.127870e-02" style="stop-color:#508143"/>
				<stop  offset="0.4209" style="stop-color:#4A7640"/>
				<stop  offset="0.917" style="stop-color:#3C5E39"/>
			</linearGradient>
			<path class="st12" d="M87.4,26.6c-2-1-4.8-2.6-7.3-4.7c-2.6-2.2-4.9-5-5.5-8.2c-1.7-8.8,11.1-11,4.3-12.5
				c-4.9-1.1-8.3,5.3-8.8,10c-0.4,4,1.1,7.6,1.1,10.9c0,0.6-0.1,1.3-0.2,1.9c-0.6,2.8-2.9,4.6-4,5.3c4.3,0,5.8,2.4,5.8,2.5
				c0,0,0,0,0,0c2-0.9,3.8-1.3,5.4-1.2c1.5,0.1,3,0.4,4.5,1.2c0.2,0,0.4-0.1,0.6-0.1c0-1.1,0.7-3.8,6.8-3.8
				C90,27.8,88.9,27.3,87.4,26.6z"/>
			<linearGradient id="SVGID_10_" gradientUnits="userSpaceOnUse" x1="70.0806" y1="14.0538" x2="77.962" y2="17.559">
				<stop  offset="5.640150e-03" style="stop-color:#89B254"/>
				<stop  offset="0.8306" style="stop-color:#508143"/>
			</linearGradient>
			<path class="st13" d="M67.6,29.2c1.1-0.7,3.4-2.5,4-5.3c0.1-0.6,0.2-1.2,0.2-1.9c0-3.3-1.5-7-1.1-10.9c0.4-4.2,2.4-9.5,7.3-10.1
				c-4.5-0.4-7.6,5.6-8.1,10.1c-0.4,4,1.1,7.6,1.1,10.9c0,0.6-0.1,1.3-0.2,1.9c-0.6,2.8-2.9,4.6-4,5.3
				C71.2,29.2,71.2,29.2,67.6,29.2z"/>
			<linearGradient id="SVGID_11_" gradientUnits="userSpaceOnUse" x1="71.9389" y1="12.7634" x2="84.4055" y2="18.3077">
				<stop  offset="0" style="stop-color:#477C42"/>
				<stop  offset="0.9316" style="stop-color:#224D2A"/>
			</linearGradient>
			<path class="st14" d="M90,27.8c0,0-1.1-0.4-2.6-1.2c-2-1-4.8-2.6-7.3-4.7c-2.6-2.2-4.9-5-5.5-8.2c-1.2-6.4,5.3-9.4,6.2-11
				c-2,0.7-6,2.6-7.2,6.8c-1.7,5.6,0.8,10.5,3.1,14.4c1.8,2.9,4.9,6.6,6.2,7.9c0.1,0,0.3-0.1,0.4-0.1C83.2,30.4,83.9,27.8,90,27.8z"
				/>
			<linearGradient id="SVGID_12_" gradientUnits="userSpaceOnUse" x1="126.4448" y1="33.9563" x2="114.8705" y2="45.0371">
				<stop  offset="0" style="stop-color:#F7B541"/>
				<stop  offset="0.263" style="stop-color:#EFAB3E"/>
				<stop  offset="0.7045" style="stop-color:#DA9138"/>
				<stop  offset="1" style="stop-color:#C97C32"/>
			</linearGradient>
			<path class="st15" d="M134.6,59.8c0,0.3,0,0.6,0,0.8c0,0.1,0,0.2,0,0.3c0,0.3,0,0.5,0,0.8c0,0.4-0.1,0.7-0.1,1.1
				c0,0.3-0.1,0.5-0.1,0.8c-0.2,1.3-0.4,2.5-0.8,3.6c0,0.2-0.1,0.3-0.1,0.5c-0.3,1-0.7,2-1.1,2.9c-0.1,0.1-0.1,0.2-0.2,0.4
				c-0.1,0.2-0.2,0.5-0.3,0.7c-0.1,0.1-0.1,0.2-0.2,0.4c0,0.1-0.1,0.2-0.1,0.3c0,0,0,0.1-0.1,0.1c-0.1,0.2-0.2,0.4-0.3,0.6
				c-0.1,0.2-0.2,0.4-0.4,0.6c-0.1,0.2-0.2,0.4-0.4,0.6c-0.1,0.1-0.1,0.2-0.2,0.3c-0.1,0.2-0.2,0.4-0.4,0.5
				c-0.1,0.2-0.2,0.3-0.3,0.5c-0.1,0.2-0.2,0.3-0.3,0.5c-0.2,0.2-0.3,0.4-0.5,0.6c-0.2,0.3-0.4,0.5-0.6,0.7
				c-0.1,0.1-0.2,0.2-0.3,0.4c-0.1,0.1-0.1,0.1-0.2,0.2c0,0-0.1,0.1-0.1,0.1c0,0,0,0,0,0c0,0,0,0,0,0c-0.1,0.1-0.2,0.2-0.3,0.3
				c0,0,0,0,0,0c-0.1,0.1-0.2,0.2-0.2,0.2c0.9-5.1,1.1-10.6,0.2-16.4c-1-6.7-3.4-13.7-7.3-20.5c-0.7-1.2-1.4-2.2-2.2-3.2
				c-0.1-0.1-0.2-0.3-0.3-0.4c-0.3-0.4-0.7-0.7-1-1.1c-0.1-0.1-0.2-0.2-0.3-0.3c-0.1-0.1-0.3-0.3-0.4-0.4c-0.1-0.1-0.3-0.3-0.4-0.4
				c-0.1-0.1-0.3-0.2-0.4-0.4c-0.2-0.1-0.3-0.3-0.5-0.4c-0.1-0.1-0.3-0.2-0.5-0.4c-0.2-0.1-0.3-0.2-0.5-0.4c0,0,0,0-0.1-0.1
				c-0.3-0.2-0.6-0.4-0.9-0.6c-0.1-0.1-0.3-0.2-0.4-0.3c-0.5-0.3-1-0.6-1.5-0.9c-0.2-0.1-0.3-0.2-0.5-0.3c-0.2-0.1-0.3-0.2-0.5-0.3
				c-0.2-0.1-0.3-0.2-0.5-0.2c-0.3-0.2-0.7-0.3-1-0.5c-0.2-0.1-0.3-0.1-0.5-0.2c-0.3-0.1-0.7-0.3-1-0.4c-0.2-0.1-0.3-0.1-0.5-0.2
				c-0.2-0.1-0.3-0.1-0.5-0.2c-0.2-0.1-0.3-0.1-0.5-0.2c-0.3-0.1-0.7-0.2-1-0.3c-0.1,0-0.3-0.1-0.4-0.1c-0.5-0.2-1.1-0.3-1.6-0.4
				c-0.2-0.1-0.5-0.1-0.7-0.2c-0.3-0.1-0.5-0.1-0.8-0.2c-0.3-0.1-0.7-0.1-1-0.2c-0.2,0-0.4-0.1-0.6-0.1c-0.5-0.1-0.9-0.1-1.4-0.2
				c-0.2,0-0.3,0-0.5-0.1c-0.4,0-0.7-0.1-1-0.1c-0.1,0-0.1,0-0.2,0c-2.1-0.2-4-0.2-5.7-0.2c0,0-1-0.4-2.5-1.1c0,0-0.1,0-0.1-0.1
				c0,0,1.9-2.7,8.1-3.5c9-1.4,14.1,0,21.4,4.4c7.3,4.4,14.7,12.4,17.3,27.3C134.5,56.5,134.6,58.2,134.6,59.8z"/>
			
				<radialGradient id="SVGID_13_" cx="-1983.1935" cy="-1005.9585" r="14.4368" gradientTransform="matrix(-0.1542 0.2662 -0.4357 -0.5953 -621.072 -33.0353)" gradientUnits="userSpaceOnUse">
				<stop  offset="0" style="stop-color:#F4D642"/>
				<stop  offset="0.2823" style="stop-color:#F5C942"/>
				<stop  offset="0.5881" style="stop-color:#F7B541"/>
			</radialGradient>
			<path class="st16" d="M122.8,40.9c-1.3-2.4-1.9-4.6-1.3-4.9s2.2,1.4,3.5,3.7c1.3,2.4,1.9,4.6,1.3,4.9
				C125.7,44.9,124.1,43.3,122.8,40.9z"/>
			
				<radialGradient id="SVGID_14_" cx="-680.7205" cy="-1050.7256" r="6.2008" gradientTransform="matrix(-0.2178 0.2893 -0.6082 -0.3308 -684.1624 -124.0157)" gradientUnits="userSpaceOnUse">
				<stop  offset="0" style="stop-color:#F4D642"/>
				<stop  offset="0.2039" style="stop-color:#F5C842"/>
				<stop  offset="0.5287" style="stop-color:#F7B541"/>
			</radialGradient>
			<path class="st17" d="M102.9,28c-1.1-0.4-1.7-1.3-1.4-1.8s1.3-0.6,2.4-0.2c1.1,0.4,1.7,1.3,1.4,1.8C105,28.4,104,28.4,102.9,28z"
				/>
			<linearGradient id="SVGID_15_" gradientUnits="userSpaceOnUse" x1="55.0285" y1="67.0994" x2="96.6424" y2="67.0994">
				<stop  offset="0" style="stop-color:#F4D642"/>
				<stop  offset="0.2039" style="stop-color:#F5C842"/>
				<stop  offset="0.5287" style="stop-color:#F7B541"/>
			</linearGradient>
			<path class="st18" d="M92.2,96.1C92.2,96.1,92.2,96.1,92.2,96.1c-1.4,2.3-2.8,3.6-3.9,4.9c0,0-2.6,2.6-8.3,2.7h-0.3
				c-3.2,0-6.1-1.4-7.9-2.5c0,0,0,0,0,0c-1.2-0.8-2-1.4-2.1-1.5c0,0,0,0,0,0c-1.4-1-2.8-2.3-4.2-3.9c0,0,0,0,0,0
				c-4-4.4-7.8-10.7-9.5-18.5c0,0,0,0,0,0c-1.3-5.8-1.4-12.3,0.3-19.6C60,42,66.9,34.5,72.7,31.7c2-0.9,3.8-1.3,5.4-1.2
				c1.5,0.1,3,0.4,4.5,1.2C89,35,95.2,45.2,96.4,66.2C97.4,83.5,95,91.6,92.2,96.1z"/>
			<linearGradient id="SVGID_16_" gradientUnits="userSpaceOnUse" x1="57.3548" y1="66.9804" x2="94.687" y2="72.6426">
				<stop  offset="0" style="stop-color:#F7B541"/>
				<stop  offset="0.2459" style="stop-color:#EFAB3E"/>
				<stop  offset="0.6599" style="stop-color:#DA9137"/>
				<stop  offset="0.932" style="stop-color:#C97C32"/>
			</linearGradient>
			<path class="st19" d="M94.9,76L94.9,76c0,18-4.8,22.1-7.6,25.2c0,0-2.4,2.4-7.5,2.5h-0.1c-3.3,0.1-6.1-1.4-7.8-2.5c0,0,0,0,0,0
				c-1-0.7-1.6-1.2-1.6-1.2c-0.1-0.1-0.2-0.1-0.2-0.2c0,0,0,0,0,0C62.8,94.1,53.5,80.2,58,61.4c3.4-14.2,9.7-21.1,15-23.6
				c1.8-0.8,3.5-1.2,4.9-1.1c1.3,0,2.7,0.4,4.1,1.1c5.9,3,11.6,12.3,12.7,31.6C94.8,71.8,94.9,74,94.9,76z"/>
			
				<radialGradient id="SVGID_17_" cx="39.4438" cy="-164.6026" r="9.1273" gradientTransform="matrix(-0.5134 0.2 0.2945 0.5433 151.1918 123.2905)" gradientUnits="userSpaceOnUse">
				<stop  offset="0" style="stop-color:#F4D642"/>
				<stop  offset="0.2538" style="stop-color:#F5C942"/>
				<stop  offset="0.5287" style="stop-color:#F7B541"/>
			</radialGradient>
			<path class="st20" d="M85.6,43c-0.9-2-2.8-3.3-4.1-2.8c-1.3,0.4-1.7,2.4-0.8,4.4c0.9,2,2.8,3.3,4.1,2.8C86.2,47,86.5,45,85.6,43z
				"/>
			
				<radialGradient id="SVGID_18_" cx="42.5921" cy="-151.5663" r="6.2008" gradientTransform="matrix(-0.5142 0.1986 0.3103 0.5777 149.6209 127.085)" gradientUnits="userSpaceOnUse">
				<stop  offset="0" style="stop-color:#F4D642"/>
				<stop  offset="0.2039" style="stop-color:#F5C842"/>
				<stop  offset="0.5287" style="stop-color:#F7B541"/>
			</radialGradient>
			<path class="st21" d="M82.5,48.5c-0.4-1-1.5-1.5-2.5-1.2c-0.9,0.3-1.3,1.3-0.8,2.3c0.4,1,1.5,1.5,2.5,1.2
				C82.6,50.5,83,49.5,82.5,48.5z"/>
			
				<linearGradient id="SVGID_19_" gradientUnits="userSpaceOnUse" x1="207.2695" y1="-169.0908" x2="210.7365" y2="-169.0908" gradientTransform="matrix(0.5686 0.4698 -0.7812 0.5655 -173.852 0.1757)">
				<stop  offset="5.640150e-03" style="stop-color:#89B254"/>
				<stop  offset="0.8306" style="stop-color:#508143"/>
			</linearGradient>
			<path class="st22" d="M76.6,1.8c1.1-0.4,2.3-0.2,2.5,0.3c0.2,0.5-0.5,1.3-1.6,1.6S75.2,3.9,75,3.4C74.8,2.9,75.5,2.1,76.6,1.8z"
				/>
			
				<linearGradient id="SVGID_20_" gradientUnits="userSpaceOnUse" x1="203.3268" y1="-2.0646" x2="204.9638" y2="-2.0646" gradientTransform="matrix(0.6835 0.1379 -0.1902 0.7189 -65.5418 -22.3273)">
				<stop  offset="5.640150e-03" style="stop-color:#89B254"/>
				<stop  offset="0.8306" style="stop-color:#508143"/>
			</linearGradient>
			<path class="st23" d="M73.9,4.1c0.2-0.3,0.6-0.4,0.9-0.3c0.2,0.1,0.3,0.5,0,0.8C74.6,4.9,74.2,5,74,4.9
				C73.7,4.7,73.7,4.4,73.9,4.1z"/>
			<linearGradient id="SVGID_21_" gradientUnits="userSpaceOnUse" x1="37.1646" y1="59.5083" x2="61.8537" y2="64.4345">
				<stop  offset="0" style="stop-color:#F7B541"/>
				<stop  offset="0.2321" style="stop-color:#F3B040"/>
				<stop  offset="0.4963" style="stop-color:#E8A33C"/>
				<stop  offset="0.7751" style="stop-color:#D68C36"/>
				<stop  offset="0.9294" style="stop-color:#C97C32"/>
			</linearGradient>
			<path class="st24" d="M69.8,99.6c-3.2,1.1-8.9,1.3-14.1,0C50.5,98.3,45,93.5,45,93.5c-4.5-4.5-9.1-10-9.3-23.7c0-1.3,0-2.6,0.1-4
				c0-0.9,0.1-1.9,0.2-2.9c1.5-18.9,15.5-29,24.8-32.5c2.1-0.8,3.9-1.2,5.4-1.3c0.3,0,0.3,0,0.7,0h0.1c0.2,0,0.3,0,0.5,0
				c0.1,0,0.2,0,0.3,0c0.2,0,0.4,0,0.6,0.1c0.1,0,0.2,0,0.3,0c0.1,0,0.3,0,0.4,0.1c0,0,0.1,0,0.1,0c0.1,0,0.2,0.1,0.3,0.1
				c0.2,0,0.3,0.1,0.5,0.1c0.1,0,0.2,0.1,0.3,0.1c0.1,0,0.2,0.1,0.3,0.2c1.5,0.7,2.1,1.7,2.1,1.8c0,0,0,0,0,0
				C66.9,34.5,60,42,56.3,57.5c-1.7,7.2-1.6,13.8-0.3,19.6c0,0,0,0,0,0c1.7,7.9,5.6,14.2,9.5,18.5c0,0,0,0,0,0
				C67,97.3,68.4,98.6,69.8,99.6z"/>
			
				<radialGradient id="SVGID_22_" cx="37.0152" cy="353.4765" r="9.1275" gradientTransform="matrix(0.4881 0.298 0.3555 -0.8076 -95.4537 333.1533)" gradientUnits="userSpaceOnUse">
				<stop  offset="0" style="stop-color:#F4D642"/>
				<stop  offset="0.2538" style="stop-color:#F5C942"/>
				<stop  offset="0.5287" style="stop-color:#F7B541"/>
			</radialGradient>
			<path class="st25" d="M51,60.6c0.6-3.1,0-5.9-1.4-6.2c-1.4-0.3-3,2-3.7,5.2c-0.6,3.1,0,5.9,1.4,6.2C48.7,66.1,50.3,63.7,51,60.6z
				"/>
			
				<radialGradient id="SVGID_23_" cx="-126.5132" cy="649.2011" r="6.2009" gradientTransform="matrix(0.4923 0.2347 0.3019 -0.5845 -82.6309 460.2189)" gradientUnits="userSpaceOnUse">
				<stop  offset="0" style="stop-color:#F4D642"/>
				<stop  offset="0.2039" style="stop-color:#F5C842"/>
				<stop  offset="0.5287" style="stop-color:#F7B541"/>
			</radialGradient>
			<path class="st26" d="M52.7,52.5c0.6-0.9,0.5-2-0.3-2.5c-0.8-0.5-1.9-0.2-2.6,0.7c-0.6,0.9-0.5,2,0.3,2.5
				C50.9,53.7,52,53.4,52.7,52.5z"/>
			<linearGradient id="SVGID_24_" gradientUnits="userSpaceOnUse" x1="29.9629" y1="49.4422" x2="52.3418" y2="59.467">
				<stop  offset="0" style="stop-color:#F7B541"/>
				<stop  offset="6.087411e-02" style="stop-color:#F2AF3F"/>
				<stop  offset="0.4048" style="stop-color:#DC9338"/>
				<stop  offset="0.7058" style="stop-color:#CE8234"/>
				<stop  offset="0.9294" style="stop-color:#C97C32"/>
			</linearGradient>
			<path class="st27" d="M66.2,29.2c-1.5,0.1-3.3,0.5-5.4,1.3C51.5,34,37.5,44.1,36,63c-0.1,1-0.1,1.9-0.2,2.9
				c-0.1,1.4-0.1,2.7-0.1,4C35.9,83.5,40.6,89,45,93.5c-2.1,0-4.1-0.9-5.9-2.3c-0.2-0.1-0.4-0.3-0.6-0.4c-0.2-0.2-0.4-0.3-0.6-0.5
				c-0.4-0.3-0.7-0.7-1.1-1c0,0,0,0,0,0c-0.2-0.2-0.3-0.4-0.5-0.5c-1-1-1.9-2.2-2.7-3.4c-0.1-0.1-0.2-0.3-0.3-0.4
				c-0.2-0.3-0.4-0.6-0.6-0.9c-2.4-3.7-4.1-7.7-5.1-10.4c-0.1-0.2-0.1-0.3-0.2-0.5c0,0,0,0,0,0c0-0.1-0.1-0.3-0.1-0.4
				c0-0.1-0.1-0.3-0.1-0.4c-1.6-5.4-5.4-18.7,3.6-33.7c9-15,28.4-13.5,28.4-13.5c1.2,0.2,2.2,0.5,3,0.8c0.1,0,0.2,0.1,0.3,0.1
				c0.7,0.3,1.3,0.6,1.7,0.8c0.1,0.1,0.3,0.2,0.4,0.2c0.2,0.1,0.3,0.2,0.4,0.3c0.1,0,0.1,0.1,0.1,0.1c0.3,0.3,0.6,0.6,0.7,0.9
				c0,0.1,0.1,0.1,0.1,0.2c0,0,0,0,0,0C66.1,28.9,66.2,29.1,66.2,29.2z"/>
			
				<radialGradient id="SVGID_25_" cx="837.3226" cy="672.3188" r="14.4365" gradientTransform="matrix(0.2212 0.2534 0.2703 -0.8217 -333.5269 387.0188)" gradientUnits="userSpaceOnUse">
				<stop  offset="0" style="stop-color:#F4D642"/>
				<stop  offset="0.2823" style="stop-color:#F5C942"/>
				<stop  offset="0.5881" style="stop-color:#F7B541"/>
			</radialGradient>
			<path class="st28" d="M34.4,50.1c0.7-3.1,0.6-5.8-0.1-6c-0.7-0.2-1.8,2.3-2.4,5.4c-0.7,3.1-0.6,5.8,0.1,6
				C32.6,55.6,33.7,53.2,34.4,50.1z"/>
			
				<radialGradient id="SVGID_26_" cx="-131.5326" cy="929.1104" r="6.2007" gradientTransform="matrix(0.2592 0.2602 0.5531 -0.4016 -432.9638 439.0149)" gradientUnits="userSpaceOnUse">
				<stop  offset="0" style="stop-color:#F4D642"/>
				<stop  offset="0.2039" style="stop-color:#F5C842"/>
				<stop  offset="0.5287" style="stop-color:#F7B541"/>
			</radialGradient>
			<path class="st29" d="M47.3,33c1-0.6,1.5-1.5,1.2-2c-0.3-0.5-1.4-0.5-2.4,0.1c-1,0.6-1.5,1.5-1.2,2C45.2,33.6,46.3,33.6,47.3,33z
				"/>
			<linearGradient id="SVGID_27_" gradientUnits="userSpaceOnUse" x1="113.4046" y1="59.5942" x2="91.2288" y2="64.8976">
				<stop  offset="0" style="stop-color:#F7B541"/>
				<stop  offset="0.2918" style="stop-color:#EDA93E"/>
				<stop  offset="0.8206" style="stop-color:#D38835"/>
				<stop  offset="1" style="stop-color:#C97C32"/>
			</linearGradient>
			<path class="st30" d="M114.9,68.6c-0.1,3.6-0.6,7-1.2,9.9c0,0,0,0,0,0c-2.4,11.2-7.5,17.5-7.5,17.5s-1.6,2.9-7.3,4.8
				c-5.7,1.9-10.5,0.1-10.5,0.1c1.1-1.2,2.5-2.6,3.9-4.9c0,0,0,0,0,0c2.7-4.5,5.2-12.6,4.2-29.9C95.2,45.2,89,35,82.6,31.7
				c0.1,0,0.2,0,0.2,0c0.1,0,0.3,0,0.4-0.1c0-0.6,0.2-1.5,1.1-2.3c0,0,0,0,0,0c0.1-0.1,0.2-0.2,0.4-0.3c0.2-0.1,0.4-0.3,0.7-0.4
				c0.1,0,0.1-0.1,0.2-0.1c0.5-0.2,1.2-0.4,1.9-0.5c0.1,0,0.3,0,0.4-0.1c0.6-0.1,1.3-0.1,2-0.1c14.7,2,23.1,15,24.8,34.1
				c0,0.5,0.1,1,0.1,1.5c0,0.7,0.1,1.3,0.1,2C115,66.5,115,67.6,114.9,68.6z"/>
			
				<radialGradient id="SVGID_28_" cx="-1885.6973" cy="-627.644" r="9.1275" gradientTransform="matrix(-0.3535 0.1763 -0.1545 -0.6516 -658.219 2.8523)" gradientUnits="userSpaceOnUse">
				<stop  offset="0" style="stop-color:#F4D642"/>
				<stop  offset="0.2538" style="stop-color:#F5C942"/>
				<stop  offset="0.5287" style="stop-color:#F7B541"/>
			</radialGradient>
			<path class="st31" d="M103.4,80.6c-0.1-2.5,0.6-4.5,1.5-4.6c1-0.1,1.8,1.9,1.9,4.3c0.1,2.5-0.6,4.5-1.5,4.6
				C104.3,85,103.5,83.1,103.4,80.6z"/>
			
				<radialGradient id="SVGID_29_" cx="-1105.0393" cy="-863.5276" r="6.2008" gradientTransform="matrix(-0.5045 0.2127 -0.2697 -0.5971 -688.6688 -240.9603)" gradientUnits="userSpaceOnUse">
				<stop  offset="0" style="stop-color:#F4D642"/>
				<stop  offset="0.2039" style="stop-color:#F5C842"/>
				<stop  offset="0.5287" style="stop-color:#F7B541"/>
			</radialGradient>
			<path class="st32" d="M100.1,41c-0.6-0.9-0.4-2,0.4-2.5c0.8-0.5,2-0.1,2.5,0.8s0.4,2-0.4,2.5C101.8,42.2,100.7,41.9,100.1,41z"/>
			<linearGradient id="SVGID_30_" gradientUnits="userSpaceOnUse" x1="123.6461" y1="52.0267" x2="103.8786" y2="60.0145">
				<stop  offset="0" style="stop-color:#F7B541"/>
				<stop  offset="0.3517" style="stop-color:#EAA43D"/>
				<stop  offset="1" style="stop-color:#C97C32"/>
			</linearGradient>
			<path class="st33" d="M127,78.3c0,0,0,0.1-0.1,0.4c0,0.1,0,0.1,0,0.2c-0.1,0.4-0.2,1-0.5,1.7c0,0.1-0.1,0.2-0.1,0.4
				c0,0.1-0.1,0.1-0.1,0.2c0,0.1-0.1,0.2-0.1,0.3c0,0,0,0.1,0,0.1c-0.1,0.1-0.1,0.3-0.2,0.4c-0.2,0.3-0.3,0.7-0.5,1
				c-0.1,0.3-0.3,0.5-0.5,0.8c0,0,0,0.1-0.1,0.1c-0.1,0.1-0.2,0.2-0.2,0.4c0,0,0,0.1-0.1,0.1c-0.1,0.1-0.2,0.2-0.2,0.4
				c-0.1,0.1-0.2,0.3-0.3,0.4c0,0,0,0,0,0c-0.1,0.2-0.2,0.3-0.4,0.5c0,0,0,0,0,0c-0.1,0.1-0.2,0.3-0.3,0.4c0,0-0.1,0.1-0.1,0.1
				c-0.5,0.6-1.1,1.2-1.7,1.8c-0.1,0.1-0.3,0.3-0.5,0.4c0,0,0,0-0.1,0.1c-0.9,0.8-2,1.7-3.1,2.5c-8.7,6.1-11.4,4.9-11.4,4.9
				s5.1-6.3,7.5-17.5c0,0,0,0,0,0c0.6-3,1.1-6.3,1.2-9.9c0-1.1,0-2.1,0-3.2c0-0.7,0-1.3-0.1-2c0-0.5-0.1-1-0.1-1.5
				c-1.6-19.2-10-32.2-24.8-34.1c1.6,0,3.6,0,5.7,0.2c0.1,0,0.1,0,0.2,0c0.3,0,0.7,0.1,1,0.1c0.2,0,0.3,0,0.5,0.1
				c0.4,0.1,0.9,0.1,1.4,0.2c0.2,0,0.4,0.1,0.6,0.1c0.3,0.1,0.7,0.1,1,0.2c0.3,0,0.5,0.1,0.8,0.2c0.2,0,0.5,0.1,0.7,0.2
				c0.5,0.1,1.1,0.3,1.6,0.4c0.1,0,0.3,0.1,0.4,0.1c0.3,0.1,0.7,0.2,1,0.3c0.2,0.1,0.3,0.1,0.5,0.2c0.2,0.1,0.3,0.1,0.5,0.2
				c0.2,0.1,0.3,0.1,0.5,0.2c0.3,0.1,0.7,0.3,1,0.4c0.2,0.1,0.3,0.1,0.5,0.2c0.3,0.1,0.7,0.3,1,0.5c0.2,0.1,0.3,0.2,0.5,0.2
				c0.2,0.1,0.3,0.2,0.5,0.3c0.2,0.1,0.3,0.2,0.5,0.3c0.5,0.3,1,0.6,1.5,0.9c0.1,0.1,0.3,0.2,0.4,0.3c0.3,0.2,0.6,0.4,0.9,0.6
				c0,0,0,0,0.1,0.1c0.2,0.1,0.3,0.2,0.5,0.4c0.2,0.1,0.3,0.2,0.5,0.4c0.2,0.1,0.3,0.3,0.5,0.4c0.1,0.1,0.3,0.2,0.4,0.4
				c0.1,0.1,0.3,0.3,0.4,0.4c0.1,0.1,0.3,0.3,0.4,0.4c0.1,0.1,0.2,0.2,0.3,0.3c0.3,0.3,0.7,0.7,1,1.1c0.1,0.1,0.2,0.3,0.3,0.4
				c0.8,1,1.5,2,2.2,3.2c4,6.8,6.3,13.8,7.3,20.5C128.1,67.7,127.9,73.2,127,78.3z"/>
			
				<radialGradient id="SVGID_31_" cx="-1869.248" cy="-654.8233" r="9.1274" gradientTransform="matrix(-0.3362 0.2456 -0.2316 -0.8352 -659.3311 -29.0179)" gradientUnits="userSpaceOnUse">
				<stop  offset="0" style="stop-color:#F4D642"/>
				<stop  offset="0.2538" style="stop-color:#F5C942"/>
				<stop  offset="0.5287" style="stop-color:#F7B541"/>
			</radialGradient>
			<path class="st34" d="M118.8,60.3c-0.4-3.2,0.1-5.9,1-6c0.9-0.1,2,2.3,2.4,5.5c0.4,3.2-0.1,5.9-1,6
				C120.3,66,119.2,63.5,118.8,60.3z"/>
			
				<radialGradient id="SVGID_32_" cx="-1384.538" cy="-1041.1556" r="6.2009" gradientTransform="matrix(-0.3298 0.1334 -0.3376 -0.5623 -696.604 -363.0722)" gradientUnits="userSpaceOnUse">
				<stop  offset="0" style="stop-color:#F4D642"/>
				<stop  offset="0.2039" style="stop-color:#F5C842"/>
				<stop  offset="0.5287" style="stop-color:#F7B541"/>
			</radialGradient>
			<path class="st35" d="M110.6,38.6c-0.6-0.9-0.8-1.8-0.3-2.2c0.5-0.3,1.4,0.1,2.1,1s0.8,1.8,0.3,2.2
				C112.2,39.9,111.2,39.5,110.6,38.6z"/>
			<g>
				<linearGradient id="SVGID_33_" gradientUnits="userSpaceOnUse" x1="30.8183" y1="90.3129" x2="55.6289" y2="95.2632">
					<stop  offset="0" style="stop-color:#F7B541"/>
					<stop  offset="0.2321" style="stop-color:#F3B040"/>
					<stop  offset="0.4963" style="stop-color:#E8A33C"/>
					<stop  offset="0.7751" style="stop-color:#D68C36"/>
					<stop  offset="0.9294" style="stop-color:#C97C32"/>
				</linearGradient>
				<path class="st36" d="M65.6,95.7c1.3,1.6,2.7,3,4.2,3.9C68.4,98.6,67,97.3,65.6,95.7z"/>
				<linearGradient id="SVGID_34_" gradientUnits="userSpaceOnUse" x1="29.1594" y1="81.6499" x2="39.1872" y2="81.6499">
					<stop  offset="0" style="stop-color:#C97C32"/>
					<stop  offset="0.9151" style="stop-color:#C15E37"/>
				</linearGradient>
				<path class="st37" d="M39.1,91.3c1.8,1.4,3.8,2.2,5.9,2.3c-4.5-4.5-9.1-10-9.3-23.7C32.9,81.6,39.1,91.3,39.1,91.3z"/>
				<linearGradient id="SVGID_35_" gradientUnits="userSpaceOnUse" x1="35.7611" y1="85.0592" x2="69.799" y2="85.0592">
					<stop  offset="0" style="stop-color:#C97C32"/>
					<stop  offset="0.9151" style="stop-color:#C15E37"/>
				</linearGradient>
				<path class="st38" d="M65.6,95.7C65.6,95.7,65.6,95.7,65.6,95.7c-4-4.4-7.8-10.7-9.6-18.6c0,0,0,0,0,0c0,0,0,0,0,0
					c1.6,22.9-9,18-14,11.2c-2.2-3-3.7-6.9-4.6-10.5c-0.9-3.5-1.4-6.5-1.5-7.7v0c0-0.3-0.1-0.5-0.1-0.5c0,0,0,0.1,0,0.1
					C35.9,83.5,40.6,89,45,93.5c0,0,5.4,4.8,10.6,6.1c5.2,1.3,10.9,1.1,14.1,0C68.3,98.7,66.9,97.3,65.6,95.7z"/>
				<path class="st39" d="M56,77.2c1.7,7.9,5.6,14.2,9.5,18.5C60.2,89,56.3,78.1,56,77.2z"/>
				<path class="st39" d="M79.7,103.7L79.7,103.7c-3.2,0-6-1.4-7.8-2.5C73.6,102.3,76.4,103.8,79.7,103.7z"/>
				<path class="st39" d="M127.6,77.5c0.3-0.8,1.3-3.8,1.3-7.7c-0.1-4.5-1.6-7.7-1.7-7.9c0.9,5.8,0.7,11.3-0.2,16.4
					c0,0,0.1-0.1,0.2-0.2c0,0,0,0,0,0c0.1-0.1,0.2-0.2,0.3-0.3c0,0,0,0,0,0C127.6,77.7,127.6,77.7,127.6,77.5
					C127.6,77.5,127.6,77.5,127.6,77.5z"/>
				<linearGradient id="SVGID_36_" gradientUnits="userSpaceOnUse" x1="85.0093" y1="89.9531" x2="92.6546" y2="96.0795">
					<stop  offset="0" style="stop-color:#C97C32"/>
					<stop  offset="0.9151" style="stop-color:#C15E37"/>
				</linearGradient>
				<path class="st40" d="M92.2,96.1c3.9-9,2.6-20.1,2.6-20.1v0c-0.4,20.2-16.8,28.2-24.8,23.7c0,0,0,0,0,0
					c-0.1-0.1-0.2-0.1-0.3-0.1c0.1,0.1,0.9,0.8,2.1,1.5c0,0,0,0,0,0c1.8,1.1,4.7,2.5,7.9,2.5h0.3c5.7-0.1,8.3-2.7,8.3-2.7
					C89.5,99.7,90.9,98.4,92.2,96.1C92.2,96.1,92.2,96.1,92.2,96.1z"/>
				<linearGradient id="SVGID_37_" gradientUnits="userSpaceOnUse" x1="101.7421" y1="89.1571" x2="94.9228" y2="105.7886">
					<stop  offset="0" style="stop-color:#C97C32"/>
					<stop  offset="0.9151" style="stop-color:#C15E37"/>
				</linearGradient>
				<path class="st41" d="M101.5,97.3c-3.9,2.3-11.1,3-9.3-1.2c-1.4,2.2-2.8,3.6-3.9,4.9c0,0,4.8,1.8,10.5-0.1
					c5.7-1.9,7.3-4.8,7.3-4.8s5.1-6.3,7.5-17.5C110.9,86.8,106.2,94.6,101.5,97.3z"/>
				<linearGradient id="SVGID_38_" gradientUnits="userSpaceOnUse" x1="127.7771" y1="78.9996" x2="106.2202" y2="78.9996">
					<stop  offset="0" style="stop-color:#C97C32"/>
					<stop  offset="0.9151" style="stop-color:#C15E37"/>
				</linearGradient>
				<path class="st42" d="M127.2,61.9C127.2,61.9,127.2,61.9,127.2,61.9c0,0,0,0.7-0.1,2c-0.1,1.1-0.2,2.6-0.5,4.6
					c-0.3,2.4-0.8,5.4-1.5,8.9c0,0,0,0,0,0c-1.2,9.8-17.6,21.5-13.8,11.8c1.3-3.3,2.4-10.5,2.4-10.8c-2.4,11.2-7.5,17.5-7.5,17.5
					s2.7,1.2,11.4-4.9c1.2-0.8,2.2-1.7,3.1-2.5c0,0,0,0,0.1-0.1c0.2-0.1,0.3-0.3,0.5-0.4c0.6-0.6,1.2-1.2,1.7-1.8
					c0,0,0.1-0.1,0.1-0.1c0.1-0.1,0.2-0.3,0.3-0.4c0,0,0,0,0,0c0.1-0.2,0.2-0.3,0.4-0.5c0,0,0,0,0,0c0.1-0.1,0.2-0.3,0.3-0.4
					c0.1-0.1,0.2-0.2,0.2-0.4c0,0,0-0.1,0.1-0.1c0.1-0.1,0.2-0.2,0.2-0.4c0,0,0-0.1,0.1-0.1c0.2-0.3,0.3-0.5,0.5-0.8
					c0.2-0.4,0.4-0.7,0.5-1c0.1-0.1,0.1-0.3,0.2-0.4c0,0,0-0.1,0-0.1c0-0.1,0.1-0.2,0.1-0.3c0-0.1,0.1-0.1,0.1-0.2
					c0.1-0.1,0.1-0.3,0.1-0.4c0.3-0.7,0.4-1.3,0.5-1.7c0-0.1,0-0.1,0-0.2c0-0.2,0.1-0.4,0.1-0.4C127.9,73.2,128.1,67.7,127.2,61.9z"
					/>
			</g>
			<g>
				<linearGradient id="SVGID_39_" gradientUnits="userSpaceOnUse" x1="125.6089" y1="35.7711" x2="118.3526" y2="42.31">
					<stop  offset="0" style="stop-color:#F4D642"/>
					<stop  offset="0.3739" style="stop-color:#F6C141"/>
					<stop  offset="0.5525" style="stop-color:#F7B541"/>
				</linearGradient>
				<path class="st43" d="M134.6,59.8c0,0.3,0,0.6,0,0.8c0,0.1,0,0.2,0,0.3c0,0.3,0,0.5,0,0.8c0,0.4-0.1,0.7-0.1,1.1
					c0,0.3-0.1,0.5-0.1,0.8c-0.2,1.3-0.4,2.5-0.8,3.6c0,0.2-0.1,0.3-0.1,0.5c-0.3,1-0.7,2-1.1,2.9c-0.1,0.1-0.1,0.2-0.2,0.4
					c-0.1,0.2-0.2,0.5-0.3,0.7c-0.1,0.1-0.1,0.2-0.2,0.4c0,0.1-0.1,0.2-0.1,0.3c0,0,0,0.1-0.1,0.1c-0.1,0.2-0.2,0.4-0.3,0.6
					c-0.1,0.2-0.2,0.4-0.4,0.6c-0.1,0.2-0.2,0.4-0.4,0.6c-0.1,0.1-0.1,0.2-0.2,0.3c-0.1,0.2-0.2,0.4-0.4,0.5
					c-0.1,0.2-0.2,0.3-0.3,0.5c-0.1,0.2-0.2,0.3-0.3,0.5c-0.2,0.2-0.3,0.4-0.5,0.6c-0.2,0.3-0.4,0.5-0.6,0.7
					c-0.1,0.1-0.2,0.2-0.3,0.4c-0.1,0.1-0.1,0.1-0.2,0.2c0,0-0.1,0.1-0.1,0.1c0,0,0,0-0.1,0.1c-0.1,0.1-0.2,0.2-0.3,0.3
					c0.1-0.2,0.3-0.4,0.4-0.5c0,0,0,0,0,0c2.7-3.7,6.4-10.8,4.6-20.7c-2.6-15-8.6-23.2-16-27.6c-7.3-4.4-12.3-6.3-21.4-5
					c-2.6,0.3-6,1.8-7.3,2.4c0,0-0.1,0-0.1-0.1c0,0-0.1,0-0.1-0.1c0,0,1.9-2.7,8.1-3.5c9-1.4,14.1,0,21.4,4.4
					c7.3,4.4,14.7,12.4,17.3,27.3C134.5,56.5,134.6,58.2,134.6,59.8z"/>
				
					<radialGradient id="SVGID_40_" cx="-425.5574" cy="-168.8805" r="5.3212" gradientTransform="matrix(0.4167 -2.203462e-03 -0.1335 0.4479 219.2317 116.6466)" gradientUnits="userSpaceOnUse">
					<stop  offset="2.272000e-03" style="stop-color:#FAEFB0"/>
					<stop  offset="0.253" style="stop-color:#F8E586"/>
					<stop  offset="0.572" style="stop-color:#F5DA55"/>
					<stop  offset="0.7305" style="stop-color:#F4D642"/>
				</radialGradient>
				<path class="st44" d="M63,42.2c0.6-0.9,1.6-1.4,2.1-1.1c0.6,0.3,0.6,1.2,0,2.1c-0.6,0.9-1.6,1.4-2.1,1.1
					C62.4,44.1,62.4,43.1,63,42.2z"/>
				
					<radialGradient id="SVGID_41_" cx="-323.9844" cy="-180.6197" r="12.577" gradientTransform="matrix(0.4882 0.2411 -0.3227 0.4697 171.5845 197.0269)" gradientUnits="userSpaceOnUse">
					<stop  offset="2.272000e-03" style="stop-color:#FAEFB0"/>
					<stop  offset="0.253" style="stop-color:#F8E586"/>
					<stop  offset="0.572" style="stop-color:#F5DA55"/>
					<stop  offset="0.7305" style="stop-color:#F4D642"/>
				</radialGradient>
				<path class="st45" d="M74.6,32.6c-1.1-0.8-8.1,3.3-8.7,6.4c-0.6,3.3,5.3-1.7,6.7-2.8C74.4,34.9,76,33.7,74.6,32.6z"/>
				<linearGradient id="SVGID_42_" gradientUnits="userSpaceOnUse" x1="40.4072" y1="48.9547" x2="57.207" y2="56.0484">
					<stop  offset="0" style="stop-color:#F4D642"/>
					<stop  offset="0.3068" style="stop-color:#F6C141"/>
					<stop  offset="0.4533" style="stop-color:#F7B541"/>
				</linearGradient>
				<path class="st46" d="M43.5,73.8c-0.5-9.2,1.1-19.6,8.9-31.1C60.3,31.3,70.5,30,70.5,30c-0.9-0.4-2.1-0.8-3.7-0.8
					c-0.4,0-0.4,0-0.7,0c-1.5,0.1-3.3,0.4-5.4,1.3C51.5,34,37.5,44.1,36,63c-0.1,1-0.1,1.9-0.2,2.9C35.2,84.7,44,83,43.5,73.8z"/>
				
					<radialGradient id="SVGID_43_" cx="-433.5592" cy="-271.5406" r="7.5442" gradientTransform="matrix(0.3777 9.965545e-02 -0.6705 1.1146 26.4531 389.7802)" gradientUnits="userSpaceOnUse">
					<stop  offset="2.272000e-03" style="stop-color:#FAEFB0"/>
					<stop  offset="0.253" style="stop-color:#F8E586"/>
					<stop  offset="0.572" style="stop-color:#F5DA55"/>
					<stop  offset="0.7305" style="stop-color:#F4D642"/>
				</radialGradient>
				<path class="st47" d="M43.1,45.4c1.1-1.6,2.4-2.7,3-2.5c0.6,0.3,0.2,1.8-0.8,3.5c-1.1,1.6-2.4,2.7-3,2.5
					C41.7,48.6,42.1,47.1,43.1,45.4z"/>
				
					<radialGradient id="SVGID_44_" cx="-357.9017" cy="-176.8961" r="9.5531" gradientTransform="matrix(0.4037 0.3351 -0.6084 0.5269 89.4146 248.9931)" gradientUnits="userSpaceOnUse">
					<stop  offset="2.272000e-03" style="stop-color:#FAEFB0"/>
					<stop  offset="0.253" style="stop-color:#F8E586"/>
					<stop  offset="0.572" style="stop-color:#F5DA55"/>
					<stop  offset="0.7305" style="stop-color:#F4D642"/>
				</radialGradient>
				<path class="st48" d="M56.8,34.2c-1.1-0.8-8.3,4.2-9.8,7.2c-1.5,3.1,2.7,0,5.7-2.6C54.8,36.9,58.2,35.2,56.8,34.2z"/>
				<linearGradient id="SVGID_45_" gradientUnits="userSpaceOnUse" x1="28.9579" y1="44.9853" x2="43.801" y2="54.1557">
					<stop  offset="0" style="stop-color:#F4D642"/>
					<stop  offset="0.3068" style="stop-color:#F6C141"/>
					<stop  offset="0.4533" style="stop-color:#F7B541"/>
				</linearGradient>
				<path class="st49" d="M33.4,40.8c9-15,28.3-13.5,28.3-13.5c1.9,0.4,3.3,0.8,4.3,1.3c-0.5-1-1.9-2.6-6.7-3.6
					c0,0-19.3-1.5-28.3,13.5S25.7,67,27.3,72.3c1.2,4.1,5.7,14.4,11.8,18.9c-4.8-5.1-8.3-13.2-9.3-16.7
					C28.2,69.2,24.4,55.8,33.4,40.8z"/>
				
					<radialGradient id="SVGID_46_" cx="-949.6147" cy="-556.2308" r="7.544" gradientTransform="matrix(-0.436 0.5617 5.866186e-02 -0.8634 -349.4855 93.3993)" gradientUnits="userSpaceOnUse">
					<stop  offset="2.272000e-03" style="stop-color:#FAEFB0"/>
					<stop  offset="0.3458" style="stop-color:#F8E586"/>
					<stop  offset="0.7829" style="stop-color:#F5DA55"/>
					<stop  offset="1" style="stop-color:#F4D642"/>
				</radialGradient>
				<path class="st50" d="M30.1,41.3c0.8-1.8,1.8-3.1,2.2-3c0.4,0.1,0.2,1.7-0.6,3.4c-0.8,1.8-1.8,3.1-2.2,3
					C29.1,44.6,29.4,43.1,30.1,41.3z"/>
				
					<radialGradient id="SVGID_47_" cx="-379.7605" cy="-188.5105" r="10.7103" gradientTransform="matrix(0.4037 0.3351 -0.6084 0.5269 78.8229 256.8741)" gradientUnits="userSpaceOnUse">
					<stop  offset="2.272000e-03" style="stop-color:#FAEFB0"/>
					<stop  offset="0.253" style="stop-color:#F8E586"/>
					<stop  offset="0.572" style="stop-color:#F5DA55"/>
					<stop  offset="0.7305" style="stop-color:#F4D642"/>
				</radialGradient>
				<path class="st51" d="M45.6,28.5c-0.9-1-10.7,5.2-12.2,8.1c-1.5,3.1,2.8-1.1,6-3.7C42.9,30.2,46.4,29.4,45.6,28.5z"/>
				<linearGradient id="SVGID_48_" gradientUnits="userSpaceOnUse" x1="116.1271" y1="51.8066" x2="86.2429" y2="54.611">
					<stop  offset="0" style="stop-color:#F4D642"/>
					<stop  offset="0.3739" style="stop-color:#F6C141"/>
					<stop  offset="0.5525" style="stop-color:#F7B541"/>
				</linearGradient>
				<path class="st52" d="M114.7,61.9c-1.6-19.2-10-32.2-24.8-34.1c-3.1,0-4.8,0.7-5.7,1.5c7.9-2.7,16.1,3.3,19.7,10.1
					c4.4,8.3,4.8,20.3,4.1,30.8c-0.7,10.4,4.7,12.7,6.8,0.1C115,67.6,115,64.8,114.7,61.9z"/>
				
					<radialGradient id="SVGID_49_" cx="1363.8391" cy="203.4686" r="11.679" gradientTransform="matrix(-0.5207 0.1569 0.3155 0.705 752.8456 -319.3517)" gradientUnits="userSpaceOnUse">
					<stop  offset="2.272000e-03" style="stop-color:#FAEFB0"/>
					<stop  offset="0.253" style="stop-color:#F8E586"/>
					<stop  offset="0.572" style="stop-color:#F5DA55"/>
					<stop  offset="0.7305" style="stop-color:#F4D642"/>
				</radialGradient>
				<path class="st53" d="M102.5,34.1c1.4-0.5,7.9,9.9,7.9,13.2c0,3.3-1.5-2.2-4-6.2C105,38.7,101.5,34.4,102.5,34.1z"/>
				
					<radialGradient id="SVGID_50_" cx="2972.2292" cy="758.2602" r="23.148" gradientTransform="matrix(-8.130026e-02 0.4227 0.3685 1.0874 74.7702 -2027.8345)" gradientUnits="userSpaceOnUse">
					<stop  offset="2.272000e-03" style="stop-color:#FAEFB0"/>
					<stop  offset="0.253" style="stop-color:#F8E586"/>
					<stop  offset="0.572" style="stop-color:#F5DA55"/>
					<stop  offset="0.7305" style="stop-color:#F4D642"/>
				</radialGradient>
				<path class="st54" d="M112.5,54.3c-0.4-1.9-1-3.3-1.3-3.3c-0.3,0-0.3,1.6,0.1,3.4c0.4,1.9,1,3.3,1.3,3.3
					C113,57.7,112.9,56.1,112.5,54.3z"/>
				<linearGradient id="SVGID_51_" gradientUnits="userSpaceOnUse" x1="126.3623" y1="50.9261" x2="114.8732" y2="55.5687">
					<stop  offset="0" style="stop-color:#F4D642"/>
					<stop  offset="0.3068" style="stop-color:#F6C141"/>
					<stop  offset="0.4533" style="stop-color:#F7B541"/>
				</linearGradient>
				<path class="st55" d="M127,78.3c0,0,0,0.1-0.1,0.4c0,0.1,0,0.1,0,0.2c-0.1,0.4-0.2,1-0.5,1.7c0,0.1-0.1,0.2-0.1,0.4
					c0,0.1-0.1,0.1-0.1,0.2c0,0.1-0.1,0.2-0.1,0.3c0,0,0,0.1,0,0.1c-0.1,0.1-0.1,0.3-0.2,0.4c-0.2,0.3-0.3,0.7-0.5,1
					c-0.1,0.3-0.3,0.5-0.5,0.8c0,0,0,0.1-0.1,0.1c-0.1,0.1-0.2,0.2-0.2,0.4c0,0,0,0.1-0.1,0.1c-0.1,0.1-0.2,0.2-0.2,0.4
					c-0.1,0.1-0.2,0.3-0.3,0.4c0,0,0,0,0,0c-0.1,0.2-0.2,0.3-0.4,0.5c0,0,0,0,0,0c-0.1,0.1-0.2,0.3-0.3,0.4c0,0-0.1,0.1-0.1,0.1
					c-0.5,0.6-1.1,1.2-1.7,1.8c-0.1,0.1-0.3,0.3-0.5,0.4c0,0,0,0-0.1,0.1C125,83,125,78.4,125,78.4c0-0.3,0-0.6,0.1-0.9
					c0.8-11.8-0.3-25-10.2-38.5c-4.8-6.5-13-9.6-19.3-11c0,0,0,0,0,0c0.1,0,0.1,0,0.2,0c0.3,0,0.7,0.1,1,0.1c0.2,0,0.3,0,0.5,0.1
					c0.4,0.1,0.9,0.1,1.4,0.2c0.2,0,0.4,0.1,0.6,0.1c0.3,0.1,0.7,0.1,1,0.2c0.3,0,0.5,0.1,0.8,0.2c0.2,0,0.5,0.1,0.7,0.2
					c0.5,0.1,1.1,0.3,1.6,0.4c0.1,0,0.3,0.1,0.4,0.1c0.3,0.1,0.7,0.2,1,0.3c0.2,0.1,0.3,0.1,0.5,0.2c0.2,0.1,0.3,0.1,0.5,0.2
					c0.2,0.1,0.3,0.1,0.5,0.2c0.3,0.1,0.7,0.3,1,0.4c0.2,0.1,0.3,0.1,0.5,0.2c0.3,0.1,0.7,0.3,1,0.5c0.2,0.1,0.3,0.2,0.5,0.2
					c0.2,0.1,0.3,0.2,0.5,0.3c0.2,0.1,0.3,0.2,0.5,0.3c0.5,0.3,1,0.6,1.5,0.9c0.1,0.1,0.3,0.2,0.4,0.3c0.3,0.2,0.6,0.4,0.9,0.6
					c0,0,0,0,0.1,0.1c0.2,0.1,0.3,0.2,0.5,0.4c0.2,0.1,0.3,0.2,0.5,0.4c0.2,0.1,0.3,0.3,0.5,0.4c0.1,0.1,0.3,0.2,0.4,0.4
					c0.1,0.1,0.3,0.3,0.4,0.4c0.1,0.1,0.3,0.3,0.4,0.4c0.1,0.1,0.2,0.2,0.3,0.3c0.3,0.3,0.7,0.7,1,1.1c0.1,0.1,0.2,0.3,0.3,0.4
					c0.8,1,1.5,2,2.2,3.2c4,6.8,6.3,13.8,7.3,20.5C128.1,67.7,127.9,73.2,127,78.3z"/>
				
					<radialGradient id="SVGID_52_" cx="1294.907" cy="330.7979" r="11.6707" gradientTransform="matrix(-0.5404 8.766311e-02 0.1993 0.7386 757.1372 -310.3839)" gradientUnits="userSpaceOnUse">
					<stop  offset="2.272000e-03" style="stop-color:#FAEFB0"/>
					<stop  offset="0.253" style="stop-color:#F8E586"/>
					<stop  offset="0.572" style="stop-color:#F5DA55"/>
					<stop  offset="0.7305" style="stop-color:#F4D642"/>
				</radialGradient>
				<path class="st56" d="M119.5,42.9c1.2-0.7,6.2,10.8,5.7,14.1c-0.5,3.3-0.9-2.5-2.9-7.6C120.8,45.7,119,43.2,119.5,42.9z"/>
				
					<radialGradient id="SVGID_53_" cx="1367.8082" cy="-161.7221" r="11.6711" gradientTransform="matrix(-0.4127 0.3261 0.594 0.5401 777.891 -331.3105)" gradientUnits="userSpaceOnUse">
					<stop  offset="2.272000e-03" style="stop-color:#FAEFB0"/>
					<stop  offset="0.253" style="stop-color:#F8E586"/>
					<stop  offset="0.572" style="stop-color:#F5DA55"/>
					<stop  offset="0.7305" style="stop-color:#F4D642"/>
				</radialGradient>
				<path class="st57" d="M111.5,25.3c0.6-1.2,11.5,6.4,12.9,9.4c1.4,3.1-2.2-1.7-6.9-5.2C114.3,27.1,111.3,25.8,111.5,25.3z"/>
				
					<radialGradient id="SVGID_54_" cx="2984.8032" cy="849.137" r="23.1489" gradientTransform="matrix(-0.1456 0.4085 0.1973 1.1229 394.5536 -2108.542)" gradientUnits="userSpaceOnUse">
					<stop  offset="2.272000e-03" style="stop-color:#FAEFB0"/>
					<stop  offset="0.253" style="stop-color:#F8E586"/>
					<stop  offset="0.572" style="stop-color:#F5DA55"/>
					<stop  offset="0.7305" style="stop-color:#F4D642"/>
				</radialGradient>
				<path class="st58" d="M127.2,65.3c-0.1-1.9-0.5-3.4-0.8-3.5c-0.3,0-0.5,1.5-0.4,3.4c0.1,1.9,0.5,3.4,0.8,3.5
					C127.2,68.7,127.4,67.2,127.2,65.3z"/>
				
					<radialGradient id="SVGID_55_" cx="2568.3237" cy="426.808" r="23.1484" gradientTransform="matrix(7.621960e-02 0.4235 0.7421 0.9198 -385.8011 -1443.59)" gradientUnits="userSpaceOnUse">
					<stop  offset="2.272000e-03" style="stop-color:#FAEFB0"/>
					<stop  offset="0.253" style="stop-color:#F8E586"/>
					<stop  offset="0.572" style="stop-color:#F5DA55"/>
					<stop  offset="0.7305" style="stop-color:#F4D642"/>
				</radialGradient>
				<path class="st59" d="M127.1,37.8c-1-1.6-2.1-2.9-2.5-2.7c-0.3,0.1,0.3,1.6,1.3,3.2c1,1.6,2.1,2.9,2.5,2.7
					S128.1,39.4,127.1,37.8z"/>
			</g>
		</g>
	</g>
</g>
<path class="st60" d="M152.4,210.1c0,1.8-1.3,3.3-2.9,3.3H6.9c-1.6,0-2.9-1.5-2.9-3.3l0,0c0-1.8,1.3-3.3,2.9-3.3h142.5
	C151.1,206.9,152.4,208.3,152.4,210.1L152.4,210.1z"/>
<g>
	<g>
		<path class="st61" d="M5.5,210.6h13.2h28.9H54h6.8h6.4h22.2h6.7h6.5h6.7h28.6h13.2c1.2,0,1.5-1,0.7-2.1l-1.4-2.2l-0.1-0.2
			l-15.7-23.9c-0.4-0.5-1.5-1-2.5-1h-31.9H85.4H67.9H53.5H21.3c-1.1,0-2.1,0.4-2.4,1L5.8,206.1l-0.1,0.2l-1.2,2.2
			C3.9,209.6,4.3,210.6,5.5,210.6z"/>
		<g>
			<g id="keys_9_">
				<g>
					<path class="st62" d="M126.2,199.8c-0.1-0.3,0.3-0.5,0.9-0.5h5.9c0.6,0,1.3,0.2,1.4,0.5l1.5,2.8c0.2,0.3-0.2,0.5-0.9,0.5H129
						c-0.6,0-1.3-0.2-1.4-0.5L126.2,199.8z"/>
					<path class="st63" d="M127.1,199.3h5.9c0.7,0,1.4,0.3,1.5,0.6l1.5,2.8c0.2,0.3-0.2,0.6-0.9,0.6H129c-0.7,0-1.4-0.3-1.5-0.6
						l-1.3-2.8C126,199.5,126.4,199.3,127.1,199.3z M135.1,203.1c0.6,0,0.9-0.2,0.8-0.5l-1.5-2.8c-0.1-0.3-0.7-0.5-1.3-0.5h-5.9
						c-0.6,0-0.9,0.2-0.8,0.5l1.3,2.8c0.1,0.3,0.7,0.5,1.3,0.5H135.1z"/>
				</g>
				<g>
					<path class="st62" d="M135.4,199.8c-0.2-0.3,0.2-0.5,0.8-0.5h5.9c0.6,0,1.3,0.2,1.5,0.5l1.8,2.8c0.2,0.3-0.2,0.5-0.8,0.5h-6.1
						c-0.6,0-1.3-0.2-1.5-0.5L135.4,199.8z"/>
					<path class="st63" d="M136.2,199.3h5.9c0.7,0,1.4,0.3,1.6,0.6l1.8,2.8c0.2,0.3-0.2,0.6-0.9,0.6h-6.1c-0.7,0-1.4-0.3-1.6-0.6
						l-1.6-2.8C135.1,199.5,135.5,199.3,136.2,199.3z M144.6,203.1c0.6,0,0.9-0.2,0.8-0.5l-1.8-2.8c-0.2-0.3-0.8-0.5-1.3-0.5h-5.9
						c-0.6,0-0.9,0.2-0.8,0.5l1.6,2.8c0.2,0.3,0.8,0.5,1.3,0.5H144.6z"/>
				</g>
				<g>
					<path class="st62" d="M107.9,199.8c-0.1-0.3,0.3-0.5,1-0.5h5.9c0.6,0,1.2,0.2,1.3,0.5l1.1,2.8c0.1,0.3-0.3,0.5-1,0.5h-6.1
						c-0.6,0-1.2-0.2-1.3-0.5L107.9,199.8z"/>
					<path class="st63" d="M108.8,199.3h5.9c0.7,0,1.3,0.3,1.4,0.6l1.1,2.8c0.1,0.3-0.3,0.6-1,0.6h-6.1c-0.7,0-1.3-0.3-1.4-0.6
						l-0.9-2.8C107.7,199.5,108.2,199.3,108.8,199.3z M116.2,203.1c0.6,0,1-0.2,0.9-0.5l-1.1-2.8c-0.1-0.3-0.7-0.5-1.2-0.5h-5.9
						c-0.6,0-1,0.2-0.9,0.5l0.9,2.8c0.1,0.3,0.6,0.5,1.2,0.5H116.2z"/>
				</g>
				<g>
					<path class="st62" d="M117.1,199.8c-0.1-0.3,0.3-0.5,0.9-0.5h5.9c0.6,0,1.2,0.2,1.4,0.5l1.3,2.8c0.1,0.3-0.3,0.5-0.9,0.5h-6.1
						c-0.6,0-1.3-0.2-1.4-0.5L117.1,199.8z"/>
					<path class="st63" d="M118,199.3h5.9c0.7,0,1.3,0.3,1.5,0.6l1.3,2.8c0.1,0.3-0.3,0.6-1,0.6h-6.1c-0.7,0-1.4-0.3-1.5-0.6
						l-1.1-2.8C116.8,199.5,117.3,199.3,118,199.3z M125.7,203.1c0.6,0,1-0.2,0.8-0.5l-1.3-2.8c-0.1-0.3-0.7-0.5-1.3-0.5H118
						c-0.6,0-0.9,0.2-0.8,0.5l1.1,2.8c0.1,0.3,0.7,0.5,1.3,0.5H125.7z"/>
				</g>
				<g>
					<path class="st62" d="M89.5,199.8c0-0.3,0.4-0.5,1-0.5h5.9c0.6,0,1.2,0.2,1.2,0.5l0.6,2.8c0.1,0.3-0.4,0.5-1,0.5h-6.1
						c-0.6,0-1.2-0.2-1.2-0.5L89.5,199.8z"/>
					<path class="st63" d="M90.5,199.3h5.9c0.7,0,1.3,0.3,1.4,0.6l0.6,2.8c0.1,0.3-0.4,0.6-1.1,0.6h-6.1c-0.7,0-1.3-0.3-1.4-0.6
						l-0.4-2.8C89.3,199.5,89.8,199.3,90.5,199.3z M97.3,203.1c0.6,0,1-0.2,1-0.5l-0.6-2.8c-0.1-0.3-0.6-0.5-1.1-0.5h-5.9
						c-0.6,0-1,0.2-1,0.5l0.4,2.8c0,0.3,0.6,0.5,1.1,0.5H97.3z"/>
				</g>
				<g>
					<path class="st62" d="M98.6,199.8c-0.1-0.3,0.4-0.5,1-0.5h5.9c0.6,0,1.2,0.2,1.3,0.5l0.9,2.8c0.1,0.3-0.4,0.5-1,0.5h-6.1
						c-0.6,0-1.2-0.2-1.3-0.5L98.6,199.8z"/>
					<path class="st63" d="M99.6,199.3h5.9c0.7,0,1.3,0.3,1.4,0.6l0.9,2.8c0.1,0.3-0.4,0.6-1.1,0.6h-6.1c-0.7,0-1.3-0.3-1.4-0.6
						l-0.7-2.8C98.5,199.5,99,199.3,99.6,199.3z M106.7,203.1c0.6,0,1-0.2,0.9-0.5l-0.9-2.8c-0.1-0.3-0.6-0.5-1.2-0.5h-5.9
						c-0.6,0-1,0.2-0.9,0.5l0.7,2.8c0.1,0.3,0.6,0.5,1.2,0.5H106.7z"/>
				</g>
				<g>
					<path class="st62" d="M71.1,199.8c0-0.3,0.5-0.5,1.1-0.5h5.9c0.6,0,1.1,0.2,1.2,0.5l0.2,2.8c0,0.3-0.5,0.5-1.1,0.5h-6.1
						c-0.6,0-1.2-0.2-1.2-0.5L71.1,199.8z"/>
					<path class="st63" d="M72.2,199.3h5.9c0.7,0,1.2,0.3,1.3,0.6l0.2,2.8c0,0.3-0.5,0.6-1.2,0.6h-6.1c-0.7,0-1.3-0.3-1.3-0.6l0-2.8
						C71,199.5,71.6,199.3,72.2,199.3z M78.4,203.1c0.6,0,1.1-0.2,1-0.5l-0.2-2.8c0-0.3-0.5-0.5-1.1-0.5h-5.9c-0.6,0-1,0.2-1,0.5
						l0,2.8c0,0.3,0.5,0.5,1.1,0.5H78.4z"/>
				</g>
				<g>
					<path class="st62" d="M80.3,199.8c0-0.3,0.5-0.5,1.1-0.5h5.9c0.6,0,1.2,0.2,1.2,0.5l0.4,2.8c0,0.3-0.4,0.5-1.1,0.5h-6.1
						c-0.6,0-1.2-0.2-1.2-0.5L80.3,199.8z"/>
					<path class="st63" d="M81.4,199.3h5.9c0.7,0,1.3,0.3,1.3,0.6l0.4,2.8c0,0.3-0.5,0.6-1.2,0.6h-6.1c-0.7,0-1.3-0.3-1.3-0.6
						l-0.2-2.8C80.2,199.5,80.7,199.3,81.4,199.3z M87.8,203.1c0.6,0,1-0.2,1-0.5l-0.4-2.8c0-0.3-0.5-0.5-1.1-0.5h-5.9
						c-0.6,0-1,0.2-1,0.5l0.2,2.8c0,0.3,0.5,0.5,1.1,0.5H87.8z"/>
				</g>
				<g>
					<path class="st62" d="M61.9,199.8c0-0.3,0.5-0.5,1.2-0.5H69c0.6,0,1.1,0.2,1.1,0.5l0,2.8c0,0.3-0.5,0.5-1.2,0.5h-6.1
						c-0.6,0-1.1-0.2-1.1-0.5L61.9,199.8z"/>
					<path class="st63" d="M63,199.3H69c0.7,0,1.2,0.3,1.2,0.6l0,2.8c0,0.3-0.6,0.6-1.3,0.6h-6.1c-0.7,0-1.2-0.3-1.2-0.6l0.2-2.8
						C61.8,199.5,62.4,199.3,63,199.3z M68.9,203.1c0.6,0,1.1-0.2,1.1-0.5l0-2.8c0-0.3-0.5-0.5-1-0.5H63c-0.6,0-1.1,0.2-1.1,0.5
						l-0.2,2.8c0,0.3,0.4,0.5,1,0.5H68.9z"/>
				</g>
				<g>
					<path class="st62" d="M43.4,199.8c0.1-0.3,0.6-0.5,1.3-0.5h5.9c0.6,0,1.1,0.2,1,0.5l-0.5,2.8c-0.1,0.3-0.6,0.5-1.3,0.5h-6.1
						c-0.6,0-1.1-0.2-1-0.5L43.4,199.8z"/>
					<path class="st63" d="M44.7,199.3h5.9c0.7,0,1.2,0.3,1.1,0.6l-0.5,2.8c-0.1,0.3-0.7,0.6-1.4,0.6h-6.1c-0.7,0-1.2-0.3-1.1-0.6
						l0.7-2.8C43.4,199.5,44,199.3,44.7,199.3z M49.9,203.1c0.6,0,1.1-0.2,1.2-0.5l0.5-2.8c0-0.3-0.4-0.5-0.9-0.5h-5.9
						c-0.6,0-1.1,0.2-1.2,0.5l-0.7,2.8c-0.1,0.3,0.4,0.5,0.9,0.5H49.9z"/>
				</g>
				<g>
					<path class="st62" d="M52.6,199.8c0-0.3,0.6-0.5,1.2-0.5h5.9c0.6,0,1.1,0.2,1.1,0.5l-0.3,2.8c0,0.3-0.6,0.5-1.2,0.5h-6.1
						c-0.6,0-1.1-0.2-1.1-0.5L52.6,199.8z"/>
					<path class="st63" d="M53.8,199.3h5.9c0.7,0,1.2,0.3,1.2,0.6l-0.3,2.8c0,0.3-0.6,0.6-1.3,0.6h-6.1c-0.7,0-1.2-0.3-1.2-0.6
						l0.5-2.8C52.6,199.5,53.2,199.3,53.8,199.3z M59.4,203.1c0.6,0,1.1-0.2,1.1-0.5l0.3-2.8c0-0.3-0.4-0.5-1-0.5h-5.9
						c-0.6,0-1.1,0.2-1.1,0.5l-0.5,2.8c0,0.3,0.4,0.5,1,0.5H59.4z"/>
				</g>
				<g>
					<path class="st62" d="M25.1,199.8c0.1-0.3,0.7-0.5,1.3-0.5h5.9c0.6,0,1,0.2,0.9,0.5l-0.9,2.8c-0.1,0.3-0.7,0.5-1.3,0.5h-6.1
						c-0.6,0-1.1-0.2-0.9-0.5L25.1,199.8z"/>
					<path class="st63" d="M26.4,199.3h5.9c0.7,0,1.1,0.3,1,0.6l-0.9,2.8c-0.1,0.3-0.8,0.6-1.5,0.6h-6.1c-0.7,0-1.2-0.3-1-0.6
						l1.1-2.8C25.1,199.5,25.8,199.3,26.4,199.3z M31.1,203.1c0.6,0,1.1-0.2,1.2-0.5l0.9-2.8c0.1-0.3-0.3-0.5-0.9-0.5h-5.9
						c-0.6,0-1.1,0.2-1.2,0.5l-1.1,2.8c-0.1,0.3,0.3,0.5,0.9,0.5H31.1z"/>
				</g>
				<g>
					<path class="st62" d="M34.3,199.8c0.1-0.3,0.7-0.5,1.3-0.5h5.9c0.6,0,1.1,0.2,1,0.5l-0.7,2.8c-0.1,0.3-0.7,0.5-1.3,0.5h-6.1
						c-0.6,0-1.1-0.2-1-0.5L34.3,199.8z"/>
					<path class="st62" d="M35.6,199.3h5.9c0.7,0,1.2,0.3,1.1,0.6l-0.7,2.8c-0.1,0.3-0.7,0.6-1.4,0.6h-6.1c-0.7,0-1.2-0.3-1.1-0.6
						l0.9-2.8C34.3,199.5,34.9,199.3,35.6,199.3z M40.5,203.1c0.6,0,1.1-0.2,1.2-0.5l0.7-2.8c0.1-0.3-0.3-0.5-0.9-0.5h-5.9
						c-0.6,0-1.1,0.2-1.2,0.5l-0.9,2.8c-0.1,0.3,0.3,0.5,0.9,0.5H40.5z"/>
				</g>
				<g>
					<path class="st62" d="M55.3,199c0.6,0,1.1-0.2,1.1-0.5l0.4-2.8c0-0.3-0.4-0.5-0.9-0.5h-5.7c-0.5,0-1,0.2-1.1,0.5l-0.6,2.8
						c-0.1,0.3,0.4,0.5,0.9,0.5H55.3z"/>
				</g>
				<g>
					<path class="st62" d="M31.2,195.7c0.1-0.3,0.7-0.5,1.3-0.5h5.7c0.6,0,1,0.2,0.9,0.5l-0.8,2.8c-0.1,0.3-0.7,0.5-1.3,0.5h-5.9
						c-0.6,0-1-0.2-0.9-0.5L31.2,195.7z"/>
					<path class="st63" d="M32.5,195.1h5.7c0.6,0,1.1,0.3,1,0.6l-0.8,2.8c-0.1,0.3-0.7,0.6-1.4,0.6h-5.9c-0.7,0-1.1-0.3-1-0.6l1-2.8
						C31.2,195.4,31.8,195.1,32.5,195.1z M37,199c0.6,0,1.1-0.2,1.2-0.5l0.8-2.8c0.1-0.3-0.3-0.5-0.9-0.5h-5.7
						c-0.5,0-1.1,0.2-1.2,0.5l-1,2.8c-0.1,0.3,0.3,0.5,0.9,0.5H37z"/>
				</g>
				<g>
					<path class="st62" d="M40,195.7c0.1-0.3,0.6-0.5,1.2-0.5H47c0.6,0,1,0.2,1,0.5l-0.6,2.8c-0.1,0.3-0.6,0.5-1.2,0.5h-5.9
						c-0.6,0-1.1-0.2-1-0.5L40,195.7z"/>
					<path class="st63" d="M41.3,195.1H47c0.6,0,1.1,0.3,1.1,0.6l-0.6,2.8c-0.1,0.3-0.7,0.6-1.3,0.6h-5.9c-0.7,0-1.1-0.3-1.1-0.6
						l0.8-2.8C40,195.4,40.6,195.1,41.3,195.1z M46.2,199c0.6,0,1.1-0.2,1.1-0.5l0.6-2.8c0.1-0.3-0.3-0.5-0.9-0.5h-5.7
						c-0.5,0-1.1,0.2-1.1,0.5l-0.8,2.8c-0.1,0.3,0.3,0.5,0.9,0.5H46.2z"/>
				</g>
				<g>
					<path class="st62" d="M13.5,195.7c0.2-0.3,0.8-0.5,1.4-0.5h5.7c0.6,0,1,0.2,0.8,0.5l-1.3,2.8c-0.1,0.3-0.7,0.5-1.4,0.5h-5.9
						c-0.6,0-1-0.2-0.8-0.5L13.5,195.7z"/>
					<path class="st63" d="M14.9,195.1h5.7c0.6,0,1.1,0.3,0.9,0.6l-1.3,2.8c-0.1,0.3-0.8,0.6-1.5,0.6h-5.9c-0.7,0-1.1-0.3-0.9-0.6
						l1.5-2.8C13.6,195.4,14.2,195.1,14.9,195.1z M18.8,199c0.6,0,1.1-0.2,1.3-0.5l1.3-2.8c0.1-0.3-0.2-0.5-0.8-0.5h-5.7
						c-0.5,0-1.1,0.2-1.3,0.5l-1.5,2.8c-0.1,0.3,0.2,0.5,0.8,0.5H18.8z"/>
				</g>
				<g>
					<path class="st62" d="M22.4,195.7c0.1-0.3,0.7-0.5,1.3-0.5h5.7c0.6,0,1,0.2,0.9,0.5l-1,2.8c-0.1,0.3-0.7,0.5-1.3,0.5H22
						c-0.6,0-1-0.2-0.9-0.5L22.4,195.7z"/>
					<path class="st63" d="M23.7,195.1h5.7c0.6,0,1.1,0.3,1,0.6l-1,2.8c-0.1,0.3-0.8,0.6-1.4,0.6H22c-0.7,0-1.1-0.3-1-0.6l1.3-2.8
						C22.4,195.4,23,195.1,23.7,195.1z M27.9,199c0.6,0,1.1-0.2,1.2-0.5l1.1-2.8c0.1-0.3-0.3-0.5-0.8-0.5h-5.7
						c-0.5,0-1.1,0.2-1.2,0.5l-1.2,2.8c-0.1,0.3,0.2,0.5,0.8,0.5H27.9z"/>
				</g>
				<g>
					<path class="st62" d="M93.3,195.7c-0.1-0.3,0.4-0.5,1-0.5h5.7c0.6,0,1.1,0.2,1.2,0.5l0.8,2.8c0.1,0.3-0.4,0.5-1,0.5h-5.9
						c-0.6,0-1.2-0.2-1.2-0.5L93.3,195.7z"/>
					<path class="st63" d="M94.3,195.1h5.7c0.6,0,1.2,0.3,1.3,0.6l0.8,2.8c0.1,0.3-0.4,0.6-1.1,0.6h-5.9c-0.7,0-1.3-0.3-1.3-0.6
						l-0.6-2.8C93.1,195.4,93.6,195.1,94.3,195.1z M101,199c0.6,0,1-0.2,0.9-0.5l-0.8-2.8c-0.1-0.3-0.6-0.5-1.1-0.5h-5.7
						c-0.5,0-1,0.2-0.9,0.5l0.6,2.8c0.1,0.3,0.6,0.5,1.1,0.5H101z"/>
				</g>
				<g>
					<path class="st62" d="M75.5,195.7c0-0.3,0.5-0.5,1.1-0.5h5.7c0.6,0,1.1,0.2,1.1,0.5l0.3,2.8c0,0.3-0.4,0.5-1.1,0.5h-5.9
						c-0.6,0-1.1-0.2-1.1-0.5L75.5,195.7z"/>
					<path class="st63" d="M76.6,195.1h5.7c0.6,0,1.2,0.3,1.2,0.6l0.3,2.8c0,0.3-0.5,0.6-1.2,0.6h-5.9c-0.7,0-1.2-0.3-1.2-0.6
						l-0.1-2.8C75.4,195.4,76,195.1,76.6,195.1z M82.7,199c0.6,0,1-0.2,1-0.5l-0.3-2.8c0-0.3-0.5-0.5-1-0.5h-5.7c-0.5,0-1,0.2-1,0.5
						l0.1,2.8c0,0.3,0.5,0.5,1,0.5H82.7z"/>
				</g>
				<g>
					<path class="st62" d="M84.4,195.7c0-0.3,0.4-0.5,1-0.5h5.7c0.6,0,1.1,0.2,1.2,0.5l0.5,2.8c0.1,0.3-0.4,0.5-1,0.5h-5.9
						c-0.6,0-1.2-0.2-1.2-0.5L84.4,195.7z"/>
					<path class="st63" d="M85.4,195.1h5.7c0.6,0,1.2,0.3,1.3,0.6l0.5,2.8c0.1,0.3-0.4,0.6-1.1,0.6h-5.9c-0.7,0-1.2-0.3-1.3-0.6
						l-0.3-2.8C84.3,195.4,84.8,195.1,85.4,195.1z M91.8,199c0.6,0,1-0.2,0.9-0.5l-0.5-2.8c-0.1-0.3-0.5-0.5-1.1-0.5h-5.7
						c-0.5,0-1,0.2-0.9,0.5l0.3,2.8c0,0.3,0.5,0.5,1.1,0.5H91.8z"/>
				</g>
				<g>
					<path class="st62" d="M119.8,195.7c-0.1-0.3,0.3-0.5,0.9-0.5h5.7c0.6,0,1.2,0.2,1.4,0.5l1.4,2.8c0.2,0.3-0.2,0.5-0.9,0.5h-5.9
						c-0.6,0-1.2-0.2-1.4-0.5L119.8,195.7z"/>
					<path class="st63" d="M120.7,195.1h5.7c0.6,0,1.3,0.3,1.5,0.6l1.4,2.8c0.2,0.3-0.3,0.6-0.9,0.6h-5.9c-0.7,0-1.3-0.3-1.5-0.6
						l-1.2-2.8C119.6,195.4,120,195.1,120.7,195.1z M128.3,199c0.6,0,0.9-0.2,0.8-0.5l-1.4-2.8c-0.1-0.3-0.7-0.5-1.2-0.5h-5.7
						c-0.5,0-0.9,0.2-0.8,0.5l1.2,2.8c0.1,0.3,0.7,0.5,1.2,0.5H128.3z"/>
				</g>
				<g>
					<path class="st62" d="M102.1,195.7c-0.1-0.3,0.3-0.5,0.9-0.5h5.7c0.6,0,1.2,0.2,1.3,0.5l1,2.8c0.1,0.3-0.3,0.5-0.9,0.5h-5.9
						c-0.6,0-1.2-0.2-1.3-0.5L102.1,195.7z"/>
					<path class="st63" d="M103,195.1h5.7c0.6,0,1.3,0.3,1.4,0.6l1,2.8c0.1,0.3-0.3,0.6-1,0.6h-5.9c-0.7,0-1.3-0.3-1.4-0.6l-0.8-2.8
						C101.9,195.4,102.3,195.1,103,195.1z M110,199c0.6,0,1-0.2,0.9-0.5l-1-2.8c-0.1-0.3-0.6-0.5-1.2-0.5H103
						c-0.5,0-0.9,0.2-0.9,0.5l0.8,2.8c0.1,0.3,0.6,0.5,1.2,0.5H110z"/>
				</g>
				<g>
					<path class="st62" d="M110.9,195.7c-0.1-0.3,0.3-0.5,0.9-0.5h5.7c0.6,0,1.2,0.2,1.3,0.5l1.2,2.8c0.1,0.3-0.3,0.5-0.9,0.5h-5.9
						c-0.6,0-1.2-0.2-1.3-0.5L110.9,195.7z"/>
					<path class="st63" d="M111.8,195.1h5.7c0.6,0,1.3,0.3,1.4,0.6l1.2,2.8c0.1,0.3-0.3,0.6-1,0.6h-5.9c-0.7,0-1.3-0.3-1.4-0.6
						l-1-2.8C110.7,195.4,111.1,195.1,111.8,195.1z M119.1,199c0.6,0,0.9-0.2,0.8-0.5l-1.2-2.8c-0.1-0.3-0.7-0.5-1.2-0.5h-5.7
						c-0.5,0-0.9,0.2-0.8,0.5l1,2.8c0.1,0.3,0.6,0.5,1.2,0.5H119.1z"/>
				</g>
				<g>
					<path class="st62" d="M57.9,195.7c0-0.3,0.6-0.5,1.2-0.5h5.7c0.6,0,1.1,0.2,1.1,0.5l-0.1,2.8c0,0.3-0.5,0.5-1.2,0.5h-5.9
						c-0.6,0-1.1-0.2-1.1-0.5L57.9,195.7z"/>
					<path class="st63" d="M59,195.1h5.7c0.6,0,1.2,0.3,1.1,0.6l-0.1,2.8c0,0.3-0.6,0.6-1.2,0.6h-5.9c-0.7,0-1.2-0.3-1.1-0.6
						l0.3-2.8C57.8,195.4,58.4,195.1,59,195.1z M64.5,199c0.6,0,1-0.2,1.1-0.5l0.1-2.8c0-0.3-0.4-0.5-1-0.5H59c-0.5,0-1,0.2-1.1,0.5
						l-0.3,2.8c0,0.3,0.4,0.5,1,0.5H64.5z"/>
				</g>
				<g>
					<path class="st62" d="M66.7,195.7c0-0.3,0.5-0.5,1.1-0.5h5.7c0.6,0,1.1,0.2,1.1,0.5l0.1,2.8c0,0.3-0.5,0.5-1.1,0.5h-5.9
						c-0.6,0-1.1-0.2-1.1-0.5L66.7,195.7z"/>
					<path class="st63" d="M67.8,195.1h5.7c0.6,0,1.2,0.3,1.2,0.6l0.1,2.8c0,0.3-0.5,0.6-1.2,0.6h-5.9c-0.7,0-1.2-0.3-1.2-0.6
						l0.1-2.8C66.6,195.4,67.2,195.1,67.8,195.1z M73.6,199c0.6,0,1-0.2,1-0.5l-0.1-2.8c0-0.3-0.5-0.5-1-0.5h-5.7
						c-0.5,0-1,0.2-1,0.5l-0.1,2.8c0,0.3,0.4,0.5,1,0.5H73.6z"/>
				</g>
				<g>
					<path class="st62" d="M47.7,191.5c0.1-0.3,0.6-0.5,1.2-0.5h5.5c0.6,0,1,0.2,1,0.5l-0.4,2.8c0,0.3-0.6,0.5-1.2,0.5h-5.7
						c-0.6,0-1-0.2-1-0.5L47.7,191.5z"/>
					<path class="st63" d="M48.9,190.9h5.5c0.6,0,1.1,0.3,1,0.6l-0.4,2.8c0,0.3-0.6,0.6-1.3,0.6h-5.7c-0.6,0-1.1-0.3-1-0.6l0.6-2.8
						C47.7,191.1,48.3,190.9,48.9,190.9z M53.8,194.7c0.5,0,1-0.2,1.1-0.5l0.4-2.8c0-0.3-0.4-0.5-0.9-0.5h-5.5c-0.5,0-1,0.2-1.1,0.5
						l-0.6,2.8c-0.1,0.3,0.3,0.5,0.9,0.5H53.8z"/>
				</g>
				<g>
					<path class="st62" d="M30.7,191.5c0.1-0.3,0.7-0.5,1.2-0.5h5.5c0.6,0,1,0.2,0.9,0.5l-0.9,2.8c-0.1,0.3-0.7,0.5-1.2,0.5h-5.7
						c-0.6,0-1-0.2-0.9-0.5L30.7,191.5z"/>
					<path class="st63" d="M31.9,190.9h5.5c0.6,0,1,0.3,0.9,0.6l-0.9,2.8c-0.1,0.3-0.7,0.6-1.4,0.6h-5.7c-0.6,0-1.1-0.3-0.9-0.6
						l1.1-2.8C30.7,191.1,31.3,190.9,31.9,190.9z M36.2,194.7c0.5,0,1.1-0.2,1.1-0.5l0.9-2.8c0.1-0.3-0.3-0.5-0.8-0.5h-5.5
						c-0.5,0-1,0.2-1.1,0.5l-1.1,2.8c-0.1,0.3,0.3,0.5,0.8,0.5H36.2z"/>
				</g>
				<g>
					<path class="st62" d="M39.2,191.5c0.1-0.3,0.6-0.5,1.2-0.5h5.5c0.6,0,1,0.2,0.9,0.5l-0.7,2.8c-0.1,0.3-0.6,0.5-1.2,0.5h-5.7
						c-0.6,0-1-0.2-0.9-0.5L39.2,191.5z"/>
					<path class="st63" d="M40.4,190.9h5.5c0.6,0,1.1,0.3,1,0.6l-0.7,2.8c-0.1,0.3-0.7,0.6-1.3,0.6h-5.7c-0.6,0-1.1-0.3-1-0.6
						l0.9-2.8C39.2,191.1,39.8,190.9,40.4,190.9z M45,194.7c0.5,0,1-0.2,1.1-0.5l0.7-2.8c0.1-0.3-0.3-0.5-0.8-0.5h-5.5
						c-0.5,0-1,0.2-1.1,0.5l-0.9,2.8c-0.1,0.3,0.3,0.5,0.8,0.5H45z"/>
				</g>
				<g>
					<path class="st62" d="M90.4,191.5c-0.1-0.3,0.4-0.5,0.9-0.5h5.5c0.6,0,1.1,0.2,1.2,0.5l0.7,2.8c0.1,0.3-0.4,0.5-0.9,0.5h-5.7
						c-0.6,0-1.1-0.2-1.2-0.5L90.4,191.5z"/>
					<path class="st63" d="M91.3,190.9h5.5c0.6,0,1.2,0.3,1.3,0.6l0.7,2.8c0.1,0.3-0.4,0.6-1,0.6h-5.7c-0.6,0-1.2-0.3-1.3-0.6
						l-0.5-2.8C90.2,191.1,90.7,190.9,91.3,190.9z M97.8,194.7c0.5,0,0.9-0.2,0.9-0.5l-0.7-2.8c-0.1-0.3-0.6-0.5-1.1-0.5h-5.5
						c-0.5,0-0.9,0.2-0.9,0.5l0.5,2.8c0,0.3,0.5,0.5,1.1,0.5H97.8z"/>
				</g>
				<g>
					<path class="st62" d="M73.3,191.5c0-0.3,0.5-0.5,1-0.5h5.5c0.6,0,1.1,0.2,1.1,0.5l0.3,2.8c0,0.3-0.4,0.5-1,0.5h-5.7
						c-0.6,0-1.1-0.2-1.1-0.5L73.3,191.5z"/>
					<path class="st63" d="M74.3,190.9h5.5c0.6,0,1.2,0.3,1.2,0.6l0.3,2.8c0,0.3-0.5,0.6-1.1,0.6h-5.7c-0.6,0-1.2-0.3-1.2-0.6l0-2.8
						C73.2,191.1,73.7,190.9,74.3,190.9z M80.2,194.7c0.5,0,1-0.2,0.9-0.5l-0.2-2.8c0-0.3-0.5-0.5-1-0.5h-5.5c-0.5,0-1,0.2-0.9,0.5
						l0.1,2.8c0,0.3,0.5,0.5,1,0.5H80.2z"/>
				</g>
				<g>
					<path class="st62" d="M81.8,191.5c0-0.3,0.4-0.5,1-0.5h5.5c0.6,0,1.1,0.2,1.1,0.5l0.5,2.8c0,0.3-0.4,0.5-1,0.5h-5.7
						c-0.6,0-1.1-0.2-1.1-0.5L81.8,191.5z"/>
					<path class="st63" d="M82.8,190.9h5.5c0.6,0,1.2,0.3,1.2,0.6l0.5,2.8c0.1,0.3-0.4,0.6-1.1,0.6h-5.7c-0.6,0-1.2-0.3-1.2-0.6
						l-0.3-2.8C81.7,191.1,82.2,190.9,82.8,190.9z M88.9,194.7c0.5,0,1-0.2,0.9-0.5l-0.5-2.8c0-0.3-0.5-0.5-1-0.5h-5.5
						c-0.5,0-0.9,0.2-0.9,0.5l0.3,2.8c0,0.3,0.5,0.5,1,0.5H88.9z"/>
				</g>
				<g>
					<path class="st62" d="M115.9,191.5c-0.1-0.3,0.2-0.5,0.8-0.5h5.5c0.6,0,1.2,0.2,1.3,0.5l1.4,2.8c0.1,0.3-0.2,0.5-0.8,0.5h-5.7
						c-0.6,0-1.2-0.2-1.3-0.5L115.9,191.5z"/>
					<path class="st63" d="M116.7,190.9h5.5c0.6,0,1.3,0.3,1.4,0.6l1.4,2.8c0.2,0.3-0.2,0.6-0.9,0.6h-5.7c-0.6,0-1.3-0.3-1.4-0.6
						l-1.2-2.8C115.7,191.1,116.1,190.9,116.7,190.9z M124.1,194.7c0.5,0,0.9-0.2,0.8-0.5l-1.4-2.8c-0.1-0.3-0.7-0.5-1.2-0.5h-5.5
						c-0.5,0-0.9,0.2-0.8,0.5l1.2,2.8c0.1,0.3,0.6,0.5,1.2,0.5H124.1z"/>
				</g>
				<g>
					<path class="st62" d="M98.8,191.5c-0.1-0.3,0.3-0.5,0.9-0.5h5.5c0.6,0,1.1,0.2,1.2,0.5l0.9,2.8c0.1,0.3-0.3,0.5-0.9,0.5h-5.7
						c-0.6,0-1.1-0.2-1.2-0.5L98.8,191.5z"/>
					<path class="st63" d="M99.7,190.9h5.5c0.6,0,1.2,0.3,1.3,0.6l0.9,2.8c0.1,0.3-0.3,0.6-1,0.6h-5.7c-0.6,0-1.2-0.3-1.3-0.6
						l-0.7-2.8C98.7,191.1,99.1,190.9,99.7,190.9z M106.5,194.7c0.5,0,0.9-0.2,0.8-0.5l-0.9-2.8c-0.1-0.3-0.6-0.5-1.1-0.5h-5.5
						c-0.5,0-0.9,0.2-0.8,0.5l0.7,2.8c0.1,0.3,0.6,0.5,1.1,0.5H106.5z"/>
				</g>
				<g>
					<path class="st62" d="M107.3,191.5c-0.1-0.3,0.3-0.5,0.9-0.5h5.5c0.6,0,1.1,0.2,1.3,0.5l1.2,2.8c0.1,0.3-0.3,0.5-0.9,0.5h-5.7
						c-0.6,0-1.2-0.2-1.3-0.5L107.3,191.5z"/>
					<path class="st63" d="M108.2,190.9h5.5c0.6,0,1.2,0.3,1.4,0.6l1.2,2.8c0.1,0.3-0.3,0.6-0.9,0.6h-5.7c-0.6,0-1.3-0.3-1.4-0.6
						l-0.9-2.8C107.1,191.1,107.6,190.9,108.2,190.9z M115.2,194.7c0.5,0,0.9-0.2,0.8-0.5l-1.1-2.8c-0.1-0.3-0.6-0.5-1.2-0.5h-5.5
						c-0.5,0-0.9,0.2-0.8,0.5l1,2.8c0.1,0.3,0.6,0.5,1.2,0.5H115.2z"/>
				</g>
				<g>
					<path class="st62" d="M56.3,191.5c0-0.3,0.5-0.5,1.1-0.5h5.5c0.6,0,1,0.2,1,0.5l-0.2,2.8c0,0.3-0.5,0.5-1.1,0.5h-5.7
						c-0.6,0-1-0.2-1-0.5L56.3,191.5z"/>
					<path class="st63" d="M57.4,190.9h5.5c0.6,0,1.1,0.3,1.1,0.6l-0.2,2.8c0,0.3-0.6,0.6-1.2,0.6h-5.7c-0.6,0-1.1-0.3-1.1-0.6
						l0.4-2.8C56.3,191.1,56.8,190.9,57.4,190.9z M62.6,194.7c0.5,0,1-0.2,1-0.5l0.2-2.8c0-0.3-0.4-0.5-0.9-0.5h-5.5
						c-0.5,0-1,0.2-1,0.5l-0.4,2.8c0,0.3,0.4,0.5,0.9,0.5H62.6z"/>
				</g>
				<g>
					<path class="st62" d="M64.8,191.5c0-0.3,0.5-0.5,1.1-0.5h5.5c0.6,0,1,0.2,1,0.5l0,2.8c0,0.3-0.5,0.5-1.1,0.5h-5.7
						c-0.6,0-1.1-0.2-1-0.5L64.8,191.5z"/>
					<path class="st63" d="M65.9,190.9h5.5c0.6,0,1.1,0.3,1.1,0.6l0,2.8c0,0.3-0.5,0.6-1.2,0.6h-5.7c-0.6,0-1.2-0.3-1.1-0.6l0.2-2.8
						C64.7,191.1,65.3,190.9,65.9,190.9z M71.4,194.7c0.5,0,1-0.2,1-0.5l0-2.8c0-0.3-0.4-0.5-1-0.5h-5.5c-0.5,0-1,0.2-1,0.5
						l-0.2,2.8c0,0.3,0.4,0.5,1,0.5H71.4z"/>
				</g>
				<g>
					<path class="st62" d="M44.6,187.3c0.1-0.3,0.6-0.5,1.1-0.5h5.3c0.6,0,1,0.2,0.9,0.5l-0.5,2.8c-0.1,0.3-0.6,0.5-1.1,0.5h-5.5
						c-0.6,0-1-0.2-0.9-0.5L44.6,187.3z"/>
					<path class="st63" d="M45.8,186.7h5.3c0.6,0,1,0.3,1,0.6l-0.5,2.8c-0.1,0.3-0.6,0.6-1.2,0.6h-5.5c-0.6,0-1.1-0.3-1-0.6l0.7-2.8
						C44.6,187,45.2,186.7,45.8,186.7z M50.3,190.5c0.5,0,1-0.2,1-0.5l0.5-2.8c0.1-0.3-0.3-0.5-0.8-0.5h-5.3c-0.5,0-1,0.2-1,0.5
						l-0.7,2.8c-0.1,0.3,0.3,0.5,0.8,0.5H50.3z"/>
				</g>
				<g>
					<path class="st62" d="M36.4,187.3c0.1-0.3,0.6-0.5,1.2-0.5h5.3c0.6,0,0.9,0.2,0.9,0.5l-0.8,2.8c-0.1,0.3-0.6,0.5-1.2,0.5h-5.5
						c-0.6,0-1-0.2-0.9-0.5L36.4,187.3z"/>
					<path class="st63" d="M37.6,186.7h5.3c0.6,0,1,0.3,0.9,0.6l-0.8,2.8c-0.1,0.3-0.7,0.6-1.3,0.6h-5.5c-0.6,0-1-0.3-0.9-0.6l1-2.8
						C36.4,187,37,186.7,37.6,186.7z M41.8,190.5c0.5,0,1-0.2,1.1-0.5l0.8-2.8c0.1-0.3-0.3-0.5-0.8-0.5h-5.3c-0.5,0-1,0.2-1.1,0.5
						l-1,2.8c-0.1,0.3,0.3,0.5,0.8,0.5H41.8z"/>
				</g>
				<g>
					<path class="st62" d="M85.6,187.3c0-0.3,0.4-0.5,0.9-0.5h5.3c0.6,0,1.1,0.2,1.1,0.5l0.6,2.8c0.1,0.3-0.4,0.5-0.9,0.5h-5.5
						c-0.6,0-1.1-0.2-1.1-0.5L85.6,187.3z"/>
					<path class="st63" d="M86.5,186.7h5.3c0.6,0,1.1,0.3,1.2,0.6l0.6,2.8c0.1,0.3-0.4,0.6-1,0.6h-5.5c-0.6,0-1.2-0.3-1.2-0.6
						l-0.4-2.8C85.4,187,85.9,186.7,86.5,186.7z M92.6,190.5c0.5,0,0.9-0.2,0.9-0.5l-0.6-2.8c-0.1-0.3-0.5-0.5-1-0.5h-5.3
						c-0.5,0-0.9,0.2-0.9,0.5l0.4,2.8c0,0.3,0.5,0.5,1,0.5H92.6z"/>
				</g>
				<g>
					<path class="st62" d="M69.2,187.3c0-0.3,0.5-0.5,1-0.5h5.3c0.6,0,1,0.2,1,0.5l0.1,2.8c0,0.3-0.4,0.5-1,0.5h-5.5
						c-0.6,0-1-0.2-1-0.5L69.2,187.3z"/>
					<path class="st63" d="M70.2,186.7h5.3c0.6,0,1.1,0.3,1.1,0.6l0.1,2.8c0,0.3-0.5,0.6-1.1,0.6h-5.5c-0.6,0-1.1-0.3-1.1-0.6
						l0.1-2.8C69.1,187,69.6,186.7,70.2,186.7z M75.6,190.5c0.5,0,0.9-0.2,0.9-0.5l-0.1-2.8c0-0.3-0.4-0.5-0.9-0.5h-5.3
						c-0.5,0-0.9,0.2-0.9,0.5l-0.1,2.8c0,0.3,0.4,0.5,0.9,0.5H75.6z"/>
				</g>
				<g>
					<path class="st62" d="M77.4,187.3c0-0.3,0.4-0.5,1-0.5h5.3c0.6,0,1,0.2,1.1,0.5l0.4,2.8c0,0.3-0.4,0.5-1,0.5h-5.5
						c-0.6,0-1.1-0.2-1.1-0.5L77.4,187.3z"/>
					<path class="st63" d="M78.3,186.7h5.3c0.6,0,1.1,0.3,1.2,0.6l0.4,2.8c0,0.3-0.4,0.6-1.1,0.6h-5.5c-0.6,0-1.1-0.3-1.2-0.6
						l-0.2-2.8C77.3,187,77.7,186.7,78.3,186.7z M84.1,190.5c0.5,0,0.9-0.2,0.9-0.5l-0.4-2.8c0-0.3-0.5-0.5-1-0.5h-5.3
						c-0.5,0-0.9,0.2-0.9,0.5l0.2,2.8c0,0.3,0.5,0.5,1,0.5H84.1z"/>
				</g>
				<g>
					<path class="st62" d="M110.1,187.3c-0.1-0.3,0.2-0.5,0.8-0.5h5.3c0.6,0,1.1,0.2,1.2,0.5l1.3,2.8c0.1,0.3-0.2,0.5-0.8,0.5h-5.5
						c-0.6,0-1.1-0.2-1.2-0.5L110.1,187.3z"/>
					<path class="st63" d="M110.9,186.7h5.3c0.6,0,1.2,0.3,1.3,0.6l1.3,2.8c0.1,0.3-0.2,0.6-0.9,0.6h-5.5c-0.6,0-1.2-0.3-1.3-0.6
						l-1.1-2.8C109.9,187,110.3,186.7,110.9,186.7z M117.8,190.5c0.5,0,0.9-0.2,0.7-0.5l-1.3-2.8c-0.1-0.3-0.6-0.5-1.1-0.5h-5.3
						c-0.5,0-0.8,0.2-0.7,0.5l1.1,2.8c0.1,0.3,0.6,0.5,1.1,0.5H117.8z"/>
				</g>
				<g>
					<path class="st62" d="M125.7,182.6c-0.2-0.3,0.1-0.6,0.6-0.6h5c0.5,0,1.1,0.3,1.3,0.6l2,3.2c0.2,0.3-0.1,0.6-0.6,0.6h-5.3
						c-0.6,0-1.1-0.3-1.3-0.6L125.7,182.6z"/>
					<path class="st63" d="M126.3,182h5c0.6,0,1.2,0.3,1.4,0.6l2,3.2c0.2,0.4-0.1,0.6-0.7,0.6h-5.3c-0.6,0-1.2-0.3-1.4-0.6l-1.8-3.2
						C125.5,182.3,125.8,182,126.3,182z M134.1,186.3c0.5,0,0.8-0.2,0.6-0.6l-2-3.2c-0.2-0.3-0.7-0.6-1.2-0.6h-5
						c-0.5,0-0.7,0.3-0.6,0.6l1.8,3.2c0.2,0.3,0.7,0.6,1.2,0.6H134.1z"/>
				</g>
				<g>
					<path class="st62" d="M118,182.6c-0.2-0.3,0.1-0.6,0.7-0.6h5c0.5,0,1.1,0.3,1.3,0.6l1.8,3.2c0.2,0.3-0.1,0.6-0.7,0.6h-5.3
						c-0.6,0-1.1-0.3-1.3-0.6L118,182.6z"/>
					<path class="st63" d="M118.6,182h5c0.6,0,1.2,0.3,1.4,0.6l1.8,3.2c0.2,0.4-0.1,0.6-0.7,0.6h-5.3c-0.6,0-1.2-0.3-1.4-0.6
						l-1.5-3.2C117.7,182.3,118,182,118.6,182z M126,186.3c0.5,0,0.8-0.2,0.6-0.6l-1.7-3.2c-0.2-0.3-0.7-0.6-1.2-0.6h-5
						c-0.5,0-0.8,0.3-0.6,0.6l1.5,3.2c0.1,0.3,0.7,0.6,1.2,0.6H126z"/>
				</g>
				<g>
					<path class="st62" d="M110.2,182.6c-0.1-0.3,0.2-0.6,0.7-0.6h5c0.5,0,1.1,0.3,1.2,0.6l1.5,3.2c0.2,0.3-0.2,0.6-0.7,0.6h-5.3
						c-0.6,0-1.1-0.3-1.2-0.6L110.2,182.6z"/>
					<path class="st63" d="M110.9,182h5c0.6,0,1.2,0.3,1.3,0.6l1.5,3.2c0.2,0.4-0.2,0.6-0.8,0.6h-5.3c-0.6,0-1.2-0.3-1.3-0.6
						l-1.3-3.2C109.9,182.3,110.3,182,110.9,182z M117.9,186.3c0.5,0,0.8-0.2,0.7-0.6l-1.5-3.2c-0.1-0.3-0.7-0.6-1.1-0.6h-5
						c-0.5,0-0.8,0.3-0.7,0.6l1.3,3.2c0.1,0.3,0.6,0.6,1.1,0.6H117.9z"/>
				</g>
				<g>
					<path class="st62" d="M43.8,182.6c0.1-0.3,0.6-0.6,1.1-0.6h5c0.5,0,0.9,0.3,0.8,0.6l-0.7,3.2c-0.1,0.3-0.6,0.6-1.1,0.6h-5.3
						c-0.6,0-0.9-0.3-0.8-0.6L43.8,182.6z"/>
					<path class="st63" d="M44.9,182h5c0.6,0,1,0.3,0.9,0.6l-0.7,3.2c-0.1,0.4-0.6,0.6-1.2,0.6h-5.3c-0.6,0-1-0.3-0.9-0.6l0.9-3.2
						C43.8,182.3,44.4,182,44.9,182z M49,186.3c0.5,0,1-0.2,1-0.6l0.7-3.2c0.1-0.3-0.3-0.6-0.8-0.6h-5c-0.5,0-0.9,0.3-1,0.6
						l-0.9,3.2c-0.1,0.3,0.3,0.6,0.8,0.6H49z"/>
				</g>
				<g>
					<path class="st62" d="M93.7,187.3c-0.1-0.3,0.3-0.5,0.9-0.5h5.3c0.6,0,1.1,0.2,1.2,0.5l0.8,2.8c0.1,0.3-0.3,0.5-0.9,0.5h-5.5
						c-0.6,0-1.1-0.2-1.2-0.5L93.7,187.3z"/>
					<path class="st63" d="M94.6,186.7h5.3c0.6,0,1.2,0.3,1.3,0.6l0.8,2.8c0.1,0.3-0.3,0.6-1,0.6h-5.5c-0.6,0-1.2-0.3-1.3-0.6
						l-0.6-2.8C93.5,187,94,186.7,94.6,186.7z M100.9,190.5c0.5,0,0.9-0.2,0.8-0.5l-0.8-2.8c-0.1-0.3-0.6-0.5-1.1-0.5h-5.3
						c-0.5,0-0.9,0.2-0.8,0.5l0.6,2.8c0.1,0.3,0.5,0.5,1.1,0.5H100.9z"/>
				</g>
				<g>
					<path class="st62" d="M101.8,187.3c-0.1-0.3,0.3-0.5,0.8-0.5h5.3c0.6,0,1.1,0.2,1.2,0.5l1,2.8c0.1,0.3-0.3,0.5-0.8,0.5h-5.5
						c-0.6,0-1.1-0.2-1.2-0.5L101.8,187.3z"/>
					<path class="st63" d="M102.7,186.7h5.3c0.6,0,1.2,0.3,1.3,0.6l1,2.8c0.1,0.3-0.3,0.6-0.9,0.6h-5.5c-0.6,0-1.2-0.3-1.3-0.6
						l-0.8-2.8C101.7,187,102.1,186.7,102.7,186.7z M109.4,190.5c0.5,0,0.9-0.2,0.8-0.5l-1-2.8c-0.1-0.3-0.6-0.5-1.1-0.5h-5.3
						c-0.5,0-0.9,0.2-0.8,0.5l0.8,2.8c0.1,0.3,0.6,0.5,1.1,0.5H109.4z"/>
				</g>
				<g>
					<path class="st62" d="M52.9,187.3c0.1-0.3,0.5-0.5,1.1-0.5h5.3c0.6,0,1,0.2,0.9,0.5l-0.3,2.8c0,0.3-0.5,0.5-1.1,0.5h-5.5
						c-0.6,0-1-0.2-0.9-0.5L52.9,187.3z"/>
					<path class="st63" d="M54,186.7h5.3c0.6,0,1.1,0.3,1,0.6l-0.3,2.8c0,0.3-0.6,0.6-1.2,0.6h-5.5c-0.6,0-1.1-0.3-1-0.6l0.5-2.8
						C52.8,187,53.4,186.7,54,186.7z M58.8,190.5c0.5,0,1-0.2,1-0.5l0.3-2.8c0-0.3-0.4-0.5-0.9-0.5h-5.3c-0.5,0-1,0.2-1,0.5
						l-0.5,2.8c0,0.3,0.3,0.5,0.9,0.5H58.8z"/>
				</g>
				<g>
					<path class="st62" d="M61,187.3c0-0.3,0.5-0.5,1.1-0.5h5.3c0.6,0,1,0.2,1,0.5l-0.1,2.8c0,0.3-0.5,0.5-1.1,0.5h-5.5
						c-0.6,0-1-0.2-1-0.5L61,187.3z"/>
					<path class="st63" d="M62.1,186.7h5.3c0.6,0,1.1,0.3,1.1,0.6l-0.1,2.8c0,0.3-0.5,0.6-1.1,0.6h-5.5c-0.6,0-1.1-0.3-1.1-0.6
						l0.3-2.8C61,187,61.5,186.7,62.1,186.7z M67.2,190.5c0.5,0,1-0.2,1-0.5l0.1-2.8c0-0.3-0.4-0.5-0.9-0.5h-5.3
						c-0.5,0-0.9,0.2-1,0.5l-0.3,2.8c0,0.3,0.4,0.5,0.9,0.5H67.2z"/>
				</g>
				<g>
					<path class="st62" d="M137.8,204.1c-0.2-0.3,0.2-0.5,0.9-0.5h6.2c0.6,0,1.3,0.2,1.5,0.5l0.8,1.2c0.2,0.3-0.2,0.5-0.9,0.5H140
						c-0.7,0-1.3-0.2-1.5-0.5L137.8,204.1z"/>
					<path class="st63" d="M138.6,203.5h6.2c0.7,0,1.4,0.3,1.6,0.6l0.8,1.2c0.2,0.3-0.2,0.6-0.9,0.6H140c-0.7,0-1.4-0.3-1.6-0.6
						l-0.7-1.2C137.5,203.8,137.9,203.5,138.6,203.5z M146.2,205.8c0.6,0,1-0.2,0.8-0.5l-0.8-1.2c-0.2-0.3-0.8-0.5-1.4-0.5h-6.2
						c-0.6,0-0.9,0.2-0.8,0.5l0.7,1.2c0.2,0.3,0.8,0.5,1.4,0.5H146.2z"/>
				</g>
				<g>
					<path class="st62" d="M127.8,204.1c-0.1-0.3,0.3-0.5,0.9-0.5h6.2c0.6,0,1.3,0.2,1.5,0.5l0.7,1.2c0.2,0.3-0.2,0.5-0.9,0.5h-6.3
						c-0.7,0-1.3-0.2-1.4-0.5L127.8,204.1z"/>
					<path class="st63" d="M128.7,203.5h6.2c0.7,0,1.4,0.3,1.6,0.6l0.7,1.2c0.2,0.3-0.3,0.6-1,0.6h-6.3c-0.7,0-1.4-0.3-1.6-0.6
						l-0.6-1.2C127.5,203.8,128,203.5,128.7,203.5z M136.1,205.8c0.6,0,1-0.2,0.8-0.5l-0.7-1.2c-0.1-0.3-0.7-0.5-1.3-0.5h-6.2
						c-0.6,0-1,0.2-0.8,0.5l0.6,1.2c0.1,0.3,0.7,0.5,1.3,0.5H136.1z"/>
				</g>
				<g>
					<path class="st62" d="M118,204.1c-0.1-0.3,0.3-0.5,1-0.5h6.2c0.6,0,1.3,0.2,1.4,0.5l0.6,1.2c0.1,0.3-0.3,0.5-0.9,0.5h-6.3
						c-0.7,0-1.3-0.2-1.4-0.5L118,204.1z"/>
					<path class="st63" d="M118.9,203.5h6.2c0.7,0,1.4,0.3,1.5,0.6l0.6,1.2c0.1,0.3-0.3,0.6-1,0.6h-6.3c-0.7,0-1.4-0.3-1.5-0.6
						l-0.5-1.2C117.8,203.8,118.2,203.5,118.9,203.5z M126.1,205.8c0.6,0,1-0.2,0.9-0.5l-0.6-1.2c-0.1-0.3-0.7-0.5-1.3-0.5H119
						c-0.6,0-1,0.2-0.9,0.5l0.5,1.2c0.1,0.3,0.7,0.5,1.3,0.5H126.1z"/>
				</g>
				<g>
					<path class="st62" d="M108,204.1c-0.1-0.3,0.4-0.5,1-0.5h6.2c0.6,0,1.3,0.2,1.4,0.5l0.5,1.2c0.1,0.3-0.3,0.5-1,0.5h-6.3
						c-0.7,0-1.3-0.2-1.4-0.5L108,204.1z"/>
					<path class="st63" d="M109,203.5h6.2c0.7,0,1.4,0.3,1.5,0.6l0.5,1.2c0.1,0.3-0.4,0.6-1.1,0.6h-6.3c-0.7,0-1.4-0.3-1.5-0.6
						l-0.4-1.2C107.8,203.8,108.3,203.5,109,203.5z M116,205.8c0.6,0,1-0.2,0.9-0.5l-0.5-1.2c-0.1-0.3-0.7-0.5-1.3-0.5H109
						c-0.6,0-1,0.2-0.9,0.5l0.4,1.2c0.1,0.3,0.6,0.5,1.2,0.5H116z"/>
				</g>
				<g>
					<path class="st62" d="M98.3,204.1c-0.1-0.3,0.4-0.5,1-0.5h6.2c0.6,0,1.2,0.2,1.3,0.5l0.4,1.2c0.1,0.3-0.4,0.5-1,0.5h-6.3
						c-0.7,0-1.2-0.2-1.3-0.5L98.3,204.1z"/>
					<path class="st63" d="M99.3,203.5h6.2c0.7,0,1.3,0.3,1.4,0.6l0.4,1.2c0.1,0.3-0.4,0.6-1.1,0.6h-6.3c-0.7,0-1.3-0.3-1.4-0.6
						l-0.3-1.2C98.1,203.8,98.6,203.5,99.3,203.5z M106.1,205.8c0.6,0,1-0.2,0.9-0.5l-0.4-1.2c-0.1-0.3-0.6-0.5-1.2-0.5h-6.2
						c-0.6,0-1,0.2-1,0.5l0.3,1.2c0.1,0.3,0.6,0.5,1.2,0.5H106.1z"/>
				</g>
				<g>
					<path class="st62" d="M88.3,204.1c0-0.3,0.4-0.5,1.1-0.5h6.2c0.6,0,1.2,0.2,1.3,0.5l0.3,1.2c0.1,0.3-0.4,0.5-1.1,0.5h-6.3
						c-0.7,0-1.2-0.2-1.3-0.5L88.3,204.1z"/>
					<path class="st63" d="M89.4,203.5h6.2c0.7,0,1.3,0.3,1.4,0.6l0.3,1.2c0.1,0.3-0.5,0.6-1.2,0.6h-6.3c-0.7,0-1.3-0.3-1.4-0.6
						l-0.2-1.2C88.1,203.8,88.7,203.5,89.4,203.5z M96,205.8c0.6,0,1-0.2,1-0.5l-0.3-1.2c-0.1-0.3-0.6-0.5-1.2-0.5h-6.2
						c-0.6,0-1,0.2-1,0.5l0.2,1.2c0,0.3,0.6,0.5,1.2,0.5H96z"/>
				</g>
				<g>
					<path class="st62" d="M78.4,204.1c0-0.3,0.5-0.5,1.1-0.5h6.2c0.6,0,1.2,0.2,1.2,0.5l0.2,1.2c0,0.3-0.5,0.5-1.1,0.5h-6.3
						c-0.7,0-1.2-0.2-1.2-0.5L78.4,204.1z"/>
					<path class="st63" d="M79.6,203.5h6.2c0.7,0,1.3,0.3,1.3,0.6l0.2,1.2c0,0.3-0.5,0.6-1.2,0.6h-6.3c-0.7,0-1.3-0.3-1.3-0.6
						l-0.1-1.2C78.3,203.8,78.9,203.5,79.6,203.5z M86,205.8c0.6,0,1.1-0.2,1-0.5l-0.2-1.2c0-0.3-0.5-0.5-1.1-0.5h-6.2
						c-0.6,0-1.1,0.2-1,0.5l0.1,1.2c0,0.3,0.5,0.5,1.1,0.5H86z"/>
				</g>
				<g>
					<path class="st62" d="M68.4,204.1c0-0.3,0.5-0.5,1.2-0.5h6.2c0.6,0,1.2,0.2,1.2,0.5l0.1,1.2c0,0.3-0.5,0.5-1.2,0.5h-6.3
						c-0.7,0-1.2-0.2-1.2-0.5L68.4,204.1z"/>
					<path class="st63" d="M69.6,203.5h6.2c0.7,0,1.3,0.3,1.3,0.6l0.1,1.2c0,0.3-0.6,0.6-1.3,0.6h-6.3c-0.7,0-1.3-0.3-1.3-0.6l0-1.2
						C68.3,203.8,68.9,203.5,69.6,203.5z M75.8,205.8c0.6,0,1.1-0.2,1.1-0.5l-0.1-1.2c0-0.3-0.5-0.5-1.1-0.5h-6.2
						c-0.6,0-1.1,0.2-1.1,0.5l0,1.2c0,0.3,0.5,0.5,1.1,0.5H75.8z"/>
				</g>
				<g>
					<path class="st62" d="M58.6,204.1c0-0.3,0.6-0.5,1.2-0.5H66c0.6,0,1.2,0.2,1.1,0.5l0,1.2c0,0.3-0.6,0.5-1.2,0.5h-6.3
						c-0.7,0-1.2-0.2-1.1-0.5L58.6,204.1z"/>
					<path class="st63" d="M59.9,203.5H66c0.7,0,1.3,0.3,1.2,0.6l0,1.2c0,0.3-0.6,0.6-1.3,0.6h-6.3c-0.7,0-1.3-0.3-1.2-0.6l0.1-1.2
						C58.6,203.8,59.2,203.5,59.9,203.5z M65.9,205.8c0.6,0,1.1-0.2,1.1-0.5l0-1.2c0-0.3-0.5-0.5-1.1-0.5h-6.2
						c-0.6,0-1.1,0.2-1.1,0.5l-0.1,1.2c0,0.3,0.4,0.5,1,0.5H65.9z"/>
				</g>
				<g>
					<path class="st62" d="M48.6,204.1c0.1-0.3,0.6-0.5,1.3-0.5h6.2c0.6,0,1.1,0.2,1.1,0.5l-0.1,1.2c0,0.3-0.6,0.5-1.3,0.5h-6.3
						c-0.7,0-1.1-0.2-1.1-0.5L48.6,204.1z"/>
					<path class="st63" d="M49.9,203.5h6.2c0.7,0,1.2,0.3,1.2,0.6l-0.1,1.2c0,0.3-0.6,0.6-1.4,0.6h-6.3c-0.7,0-1.2-0.3-1.2-0.6
						l0.2-1.2C48.6,203.8,49.2,203.5,49.9,203.5z M55.8,205.8c0.6,0,1.1-0.2,1.2-0.5l0.1-1.2c0-0.3-0.4-0.5-1-0.5h-6.2
						c-0.6,0-1.1,0.2-1.2,0.5l-0.2,1.2c-0.1,0.3,0.4,0.5,1,0.5H55.8z"/>
				</g>
				<g>
					<path class="st62" d="M38.9,204.1c0.1-0.3,0.7-0.5,1.3-0.5h6.2c0.6,0,1.1,0.2,1.1,0.5l-0.2,1.2c-0.1,0.3-0.6,0.5-1.3,0.5h-6.3
						c-0.7,0-1.1-0.2-1-0.5L38.9,204.1z"/>
					<path class="st63" d="M40.3,203.5h6.2c0.7,0,1.2,0.3,1.1,0.6l-0.2,1.2c-0.1,0.3-0.7,0.6-1.4,0.6h-6.3c-0.7,0-1.2-0.3-1.1-0.6
						l0.3-1.2C38.9,203.8,39.6,203.5,40.3,203.5z M45.9,205.8c0.6,0,1.1-0.2,1.2-0.5l0.2-1.2c0.1-0.3-0.4-0.5-1-0.5h-6.2
						c-0.6,0-1.1,0.2-1.2,0.5l-0.3,1.2c-0.1,0.3,0.4,0.5,1,0.5H45.9z"/>
				</g>
				<g>
					<path class="st62" d="M28.9,204.1c0.1-0.3,0.7-0.5,1.4-0.5h6.2c0.6,0,1.1,0.2,1,0.5l-0.3,1.2c-0.1,0.3-0.7,0.5-1.3,0.5h-6.3
						c-0.7,0-1.1-0.2-1-0.5L28.9,204.1z"/>
					<path class="st63" d="M30.3,203.5h6.2c0.7,0,1.2,0.3,1.1,0.6l-0.3,1.2c-0.1,0.3-0.7,0.6-1.5,0.6h-6.3c-0.7,0-1.2-0.3-1.1-0.6
						l0.4-1.2C28.9,203.8,29.6,203.5,30.3,203.5z M35.8,205.8c0.6,0,1.2-0.2,1.2-0.5l0.3-1.2c0.1-0.3-0.3-0.5-0.9-0.5h-6.2
						c-0.6,0-1.1,0.2-1.2,0.5l-0.4,1.2c-0.1,0.3,0.3,0.5,0.9,0.5H35.8z"/>
				</g>
				<g>
					<path class="st62" d="M19.1,204.1c0.1-0.3,0.8-0.5,1.4-0.5h6.2c0.6,0,1.1,0.2,1,0.5l-0.4,1.2c-0.1,0.3-0.7,0.5-1.4,0.5h-6.3
						c-0.7,0-1.1-0.2-1-0.5L19.1,204.1z"/>
					<path class="st63" d="M20.5,203.5h6.2c0.7,0,1.2,0.3,1.1,0.6l-0.4,1.2c-0.1,0.3-0.8,0.6-1.5,0.6h-6.3c-0.7,0-1.2-0.3-1-0.6
						l0.5-1.2C19.1,203.8,19.8,203.5,20.5,203.5z M25.8,205.8c0.6,0,1.2-0.2,1.3-0.5l0.4-1.2c0.1-0.3-0.3-0.5-0.9-0.5h-6.2
						c-0.6,0-1.2,0.2-1.3,0.5l-0.5,1.2c-0.1,0.3,0.3,0.5,0.9,0.5H25.8z"/>
				</g>
				<g>
					<path class="st62" d="M9.1,204.1c0.2-0.3,0.8-0.5,1.4-0.5h6.2c0.6,0,1.1,0.2,0.9,0.5l-0.5,1.2c-0.1,0.3-0.8,0.5-1.4,0.5H9.4
						c-0.7,0-1.1-0.2-0.9-0.5L9.1,204.1z"/>
					<path class="st63" d="M10.6,203.5h6.2c0.7,0,1.1,0.3,1,0.6l-0.5,1.2c-0.1,0.3-0.8,0.6-1.6,0.6H9.3c-0.7,0-1.2-0.3-1-0.6
						l0.6-1.2C9.1,203.8,9.9,203.5,10.6,203.5z M15.7,205.8c0.6,0,1.2-0.2,1.3-0.5l0.5-1.2c0.1-0.3-0.3-0.5-0.9-0.5h-6.2
						c-0.6,0-1.2,0.2-1.3,0.5l-0.6,1.2c-0.1,0.3,0.2,0.5,0.8,0.5H15.7z"/>
				</g>
				<g>
					<path class="st62" d="M128.8,195.7c-0.2-0.3,0.2-0.5,0.8-0.5h10c0.6,0,1.2,0.2,1.4,0.5l1.8,2.8c0.2,0.3-0.2,0.5-0.8,0.5h-10.4
						c-0.6,0-1.2-0.2-1.4-0.5L128.8,195.7z"/>
					<path class="st63" d="M129.5,195.1h10c0.6,0,1.3,0.3,1.5,0.6l1.8,2.8c0.2,0.3-0.2,0.6-0.9,0.6h-10.4c-0.7,0-1.4-0.3-1.5-0.6
						l-1.5-2.8C128.5,195.4,128.9,195.1,129.5,195.1z M142,199c0.6,0,0.9-0.2,0.7-0.5l-1.8-2.8c-0.2-0.3-0.8-0.5-1.3-0.5h-10
						c-0.5,0-0.9,0.2-0.7,0.5l1.5,2.8c0.1,0.3,0.7,0.5,1.3,0.5H142z"/>
				</g>
				<g>
					<path class="st62" d="M124.4,191.5c-0.1-0.3,0.2-0.5,0.8-0.5H137c0.6,0,1.2,0.2,1.4,0.5l1.8,2.8c0.2,0.3-0.1,0.5-0.7,0.5h-12.3
						c-0.6,0-1.2-0.2-1.3-0.5L124.4,191.5z"/>
					<path class="st63" d="M125.1,190.9h11.8c0.6,0,1.3,0.3,1.5,0.6l1.8,2.8c0.2,0.3-0.2,0.6-0.8,0.6h-12.3c-0.6,0-1.3-0.3-1.5-0.6
						l-1.4-2.8C124.1,191.1,124.5,190.9,125.1,190.9z M139.3,194.7c0.5,0,0.9-0.2,0.7-0.5l-1.8-2.8c-0.2-0.3-0.7-0.5-1.3-0.5h-11.8
						c-0.5,0-0.8,0.2-0.7,0.5l1.4,2.8c0.1,0.3,0.7,0.5,1.2,0.5H139.3z"/>
				</g>
				<g>
					<path class="st62" d="M118.1,187.3c-0.1-0.3,0.2-0.5,0.8-0.5h15.5c0.6,0,1.2,0.2,1.3,0.5l1.8,2.8c0.2,0.3-0.1,0.5-0.7,0.5
						h-16.1c-0.6,0-1.1-0.2-1.3-0.5L118.1,187.3z"/>
					<path class="st63" d="M118.8,186.7h15.5c0.6,0,1.2,0.3,1.4,0.6l1.8,2.8c0.2,0.3-0.1,0.6-0.8,0.6h-16.1c-0.6,0-1.2-0.3-1.4-0.6
						l-1.3-2.8C117.8,187,118.2,186.7,118.8,186.7z M136.7,190.5c0.5,0,0.8-0.2,0.6-0.5l-1.8-2.8c-0.2-0.3-0.7-0.5-1.2-0.5h-15.5
						c-0.5,0-0.8,0.2-0.7,0.5l1.3,2.8c0.1,0.3,0.7,0.5,1.2,0.5H136.7z"/>
				</g>
				<g>
					<path class="st62" d="M100.4,182.5c-0.1-0.3,0.3-0.5,0.8-0.5h6.9c0.5,0,1,0.2,1.2,0.5l1.3,3.3c0.1,0.3-0.2,0.5-0.8,0.5h-7.3
						c-0.6,0-1.1-0.2-1.2-0.5L100.4,182.5z"/>
					<path class="st63" d="M101.2,182h6.9c0.6,0,1.1,0.3,1.3,0.6l1.3,3.3c0.1,0.3-0.3,0.6-0.9,0.6h-7.3c-0.6,0-1.2-0.3-1.3-0.6
						l-1-3.3C100.3,182.2,100.6,182,101.2,182z M109.8,186.3c0.5,0,0.8-0.2,0.7-0.5l-1.3-3.3c-0.1-0.3-0.6-0.5-1.1-0.5h-6.9
						c-0.5,0-0.8,0.2-0.7,0.5l1,3.3c0.1,0.3,0.6,0.5,1.1,0.5H109.8z"/>
				</g>
				<g>
					<path class="st62" d="M51.8,182.5c0.1-0.3,0.5-0.5,1.1-0.5h6.9c0.5,0,0.9,0.2,0.9,0.5l-0.4,3.3c0,0.3-0.5,0.5-1.1,0.5h-7.3
						c-0.6,0-1-0.2-0.9-0.5L51.8,182.5z"/>
					<path class="st63" d="M52.9,182h6.9c0.6,0,1,0.3,1,0.6l-0.4,3.3c0,0.3-0.5,0.6-1.1,0.6H52c-0.6,0-1-0.3-1-0.6l0.7-3.3
						C51.8,182.2,52.3,182,52.9,182z M59.3,186.3c0.5,0,0.9-0.2,1-0.5l0.4-3.3c0-0.3-0.3-0.5-0.8-0.5h-6.9c-0.5,0-0.9,0.2-1,0.5
						l-0.7,3.3c-0.1,0.3,0.3,0.5,0.8,0.5H59.3z"/>
				</g>
				<g>
					<path class="st62" d="M11.3,199.8c0.2-0.3,0.8-0.5,1.4-0.5h10.7c0.6,0,1,0.2,0.9,0.5l-1.2,2.8c-0.1,0.3-0.7,0.5-1.4,0.5H10.7
						c-0.6,0-1-0.2-0.9-0.5L11.3,199.8z"/>
					<path class="st63" d="M12.7,199.3h10.7c0.7,0,1.1,0.3,1,0.6l-1.2,2.8c-0.1,0.3-0.8,0.6-1.5,0.6H10.7c-0.7,0-1.1-0.3-1-0.6
						l1.5-2.8C11.4,199.5,12.1,199.3,12.7,199.3z M21.8,203.1c0.6,0,1.2-0.2,1.3-0.5l1.2-2.8c0.1-0.3-0.3-0.5-0.8-0.5H12.7
						c-0.6,0-1.1,0.2-1.3,0.5l-1.5,2.8c-0.1,0.3,0.2,0.5,0.8,0.5H21.8z"/>
				</g>
				<g>
					<path class="st62" d="M15.7,191.5c0.2-0.3,0.7-0.5,1.3-0.5H29c0.6,0,0.9,0.2,0.8,0.5l-1.1,2.8c-0.1,0.3-0.7,0.5-1.3,0.5H15.1
						c-0.6,0-1-0.2-0.8-0.5L15.7,191.5z"/>
					<path class="st63" d="M17.1,190.9H29c0.6,0,1,0.3,0.9,0.6l-1.1,2.8c-0.1,0.3-0.8,0.6-1.4,0.6H15c-0.6,0-1-0.3-0.9-0.6l1.5-2.8
						C15.8,191.1,16.5,190.9,17.1,190.9z M27.5,194.7c0.5,0,1.1-0.2,1.2-0.5l1.1-2.8c0.1-0.3-0.2-0.5-0.8-0.5H17
						c-0.5,0-1.1,0.2-1.2,0.5l-1.5,2.8c-0.1,0.3,0.2,0.5,0.7,0.5H27.5z"/>
				</g>
				<g>
					<path class="st62" d="M18,187.3c0.2-0.3,0.7-0.5,1.3-0.5h15.5c0.6,0,0.9,0.2,0.8,0.5l-1,2.8c-0.1,0.3-0.7,0.5-1.2,0.5H17.2
						c-0.6,0-0.9-0.2-0.8-0.5L18,187.3z"/>
					<path class="st63" d="M19.3,186.7h15.5c0.6,0,1,0.3,0.9,0.6l-1,2.8c-0.1,0.3-0.7,0.6-1.3,0.6H17.2c-0.6,0-1-0.3-0.8-0.6
						l1.5-2.8C18,187,18.7,186.7,19.3,186.7z M33.3,190.5c0.5,0,1-0.2,1.1-0.5l1-2.8c0.1-0.3-0.2-0.5-0.7-0.5H19.2
						c-0.5,0-1,0.2-1.2,0.5l-1.5,2.8c-0.1,0.3,0.2,0.5,0.7,0.5H33.3z"/>
				</g>
				<g>
					<path class="st62" d="M36,182.5c0.1-0.3,0.6-0.5,1.1-0.5h5c0.5,0,0.9,0.2,0.8,0.5l-0.3,1.1c-0.1,0.3-0.6,0.5-1.1,0.5h-5.2
						c-0.5,0-0.9-0.2-0.8-0.5L36,182.5z"/>
					<path class="st63" d="M37.2,182h5c0.6,0,1,0.3,0.9,0.6l-0.3,1.1c-0.1,0.3-0.6,0.6-1.2,0.6h-5.2c-0.6,0-1-0.3-0.8-0.6l0.4-1.1
						C36.1,182.2,36.6,182,37.2,182z M41.6,184.2c0.5,0,1-0.2,1-0.5l0.3-1.1c0.1-0.3-0.2-0.5-0.7-0.5h-5c-0.5,0-1,0.2-1.1,0.5
						l-0.4,1.1c-0.1,0.3,0.2,0.5,0.7,0.5H41.6z"/>
				</g>
				<g>
					<path class="st62" d="M20.5,182.5c0.2-0.3,0.7-0.5,1.2-0.5h5c0.5,0,0.8,0.2,0.7,0.5l-0.5,1.1c-0.1,0.3-0.7,0.5-1.2,0.5h-5.2
						c-0.5,0-0.9-0.2-0.7-0.5L20.5,182.5z"/>
					<path class="st63" d="M21.7,182h5c0.6,0,0.9,0.3,0.8,0.6l-0.5,1.1c-0.1,0.3-0.7,0.6-1.3,0.6h-5.2c-0.6,0-0.9-0.3-0.8-0.6
						l0.6-1.1C20.5,182.2,21.1,182,21.7,182z M25.7,184.2c0.5,0,1-0.2,1.1-0.5l0.5-1.1c0.1-0.3-0.2-0.5-0.7-0.5h-5
						c-0.5,0-1,0.2-1.1,0.5l-0.6,1.1c-0.1,0.3,0.1,0.5,0.6,0.5H25.7z"/>
				</g>
				<g>
					<path class="st62" d="M28.2,182.5c0.1-0.3,0.7-0.5,1.2-0.5h5c0.5,0,0.9,0.2,0.8,0.5l-1.2,3.3c-0.1,0.3-0.6,0.5-1.2,0.5h-5.3
						c-0.6,0-0.9-0.2-0.8-0.5L28.2,182.5z"/>
					<path class="st63" d="M29.5,182h5c0.6,0,0.9,0.3,0.8,0.6l-1.2,3.3c-0.1,0.3-0.7,0.6-1.3,0.6h-5.3c-0.6,0-1-0.3-0.8-0.6l1.5-3.3
						C28.3,182.2,28.9,182,29.5,182z M32.8,186.3c0.5,0,1-0.2,1.1-0.5l1.2-3.3c0.1-0.3-0.2-0.5-0.7-0.5h-5c-0.5,0-1,0.2-1.1,0.5
						l-1.5,3.3c-0.1,0.3,0.2,0.5,0.7,0.5H32.8z"/>
				</g>
				<g>
					<path class="st62" d="M61.5,182.5c0-0.3,0.5-0.5,1-0.5h36c0.5,0,1,0.2,1.1,0.5l1,3.3c0.1,0.3-0.3,0.5-0.8,0.5H62.1
						c-0.6,0-1-0.2-0.9-0.5L61.5,182.5z"/>
				</g>
			</g>
		</g>
		<path class="st64" d="M138.6,194.2c0-0.1,0-0.1,0.2-0.1c0.1,0,0.3,0.1,0.3,0.1c0,0.1,0,0.1-0.2,0.1
			C138.8,194.3,138.7,194.3,138.6,194.2z"/>
	</g>
</g>
<path class="st65" d="M128,40.1c-1.8,0-16.3,0.2-19.6,0.4c-4.4,0.3-16.2,1.7-19.4,2.3c-3.2,0.6-9.9,1.3-9.9,1.3s-6.7-0.6-9.9-1.3
	c-3.2-0.6-14.9-2-19.4-2.3c-3.3-0.3-17.9-0.4-19.6-0.4c-1.8,0-4.4,1.1-7.3,2c0,0,0.5,4.3,1.8,5.2c0,0,1.6,0.3,2.1,1
	c0.5,0.7,2.3,5.2,3,6.9c0.7,1.7,2.5,5.5,4.7,6.6c2.2,1.1,7.5,2.9,15,2.9c7.5,0,15.1,0.9,20.3-5.2c5.2-6.1,5-9.2,6.4-9.8
	c1.4-0.6,2.9-0.6,2.9-0.6s1.5,0,2.9,0.6c1.4,0.6,1.3,3.7,6.5,9.8c5.2,6.1,12.8,5.2,20.3,5.2c7.5,0,12.8-1.8,15-2.9
	c2.2-1.1,3.9-5,4.7-6.6c0.7-1.7,2.5-6.2,3-6.9c0.5-0.7,2.1-1,2.1-1c1.3-0.9,1.8-5.2,1.8-5.2C132.5,41.2,129.8,40.1,128,40.1z
	 M65.1,60.8c-2.6,1.9-8,2.1-14,2.1c-6.1,0-10.1-1.1-12.4-1.9c-2.4-0.9-4.4-4.6-5.4-9.3c-1.1-4.7-0.7-6,1.7-7.3
	c2.7-1.5,16.2-0.8,16.2-0.8s5.2,0,11.3,1.3c6.2,1.3,7.3,2.3,8,5.5C71.1,53.6,67.7,58.9,65.1,60.8z M125.1,51.6
	c-1.1,4.7-3.1,8.4-5.4,9.3c-2.3,0.8-6.3,1.9-12.4,1.9c-6.1,0-11.5-0.2-14-2.1c-2.6-1.9-6-7.2-5.3-10.4c0.7-3.2,1.8-4.3,8-5.5
	c6.2-1.3,11.3-1.3,11.3-1.3s13.5-0.6,16.2,0.8C125.8,45.6,126.2,47,125.1,51.6z"/>
<path class="st66" d="M96.7,58.9l5.4-11.2h1.9l-5.4,11.2H96.7z"/>
<polygon class="st66" points="43,54.3 43,52.3 59.3,47.3 59.3,49.5 46.4,53.3 59.3,57.1 59.3,59.3 "/>
<polygon class="st66" points="118.3,54.4 105.8,59.1 105.8,57.1 115.7,53.5 105.8,50 105.8,48 118.3,52.6 "/>
<rect x="64.6" y="119.7" class="st62" width="30.3" height="31"/>
<g>
	<path class="st67" d="M89.9,144.5h-0.2v-0.1h0.5v0.1H90v0.3h-0.1V144.5z M90.8,144.6L90.8,144.6l-0.2,0.3h-0.1l-0.2-0.3h0v0.3h-0.1
		v-0.4h0.2l0.2,0.3L90.8,144.6l0.1-0.1v0.4h-0.1L90.8,144.6L90.8,144.6z"/>
	<path class="st68" d="M74.2,137c0,0-1.2,0.4,0.9,0.6c2.5,0.2,3.8,0.2,6.6-0.2c0,0,0.7,0.3,1.8,0.5C77.2,139.7,69.3,137.9,74.2,137"
		/>
	<path class="st68" d="M73.4,134.9c0,0-1.4,0.6,0.7,0.8c2.7,0.2,4.8,0.2,8.5-0.3c0,0,0.5,0.3,1.3,0.5C76.4,137.2,68,136,73.4,134.9"
		/>
	<path class="st67" d="M79.9,131.2c1.5,1.1-0.4,2.1-0.4,2.1s3.9-1.3,2.1-2.8c-1.7-1.5-3-2.2,4-4.7C85.6,125.7,74.6,127.4,79.9,131.2
		"/>
	<path class="st68" d="M88.1,138.7c0,0,0.9,0.5-1,0.8c-3.6,0.7-15,0.9-18.2,0c-1.1-0.3,1-0.7,1.7-0.8c0.7-0.1,1.1-0.1,1.1-0.1
		c-1.3-0.6-8.2,1.1-3.5,1.6C80.9,141.5,91.4,139.6,88.1,138.7"/>
	<path class="st68" d="M74.8,132.6c0,0-5.8,0.9-2.1,1.2c1.6,0.1,4.7,0.1,7.7-0.1c2.4-0.1,4.8-0.4,4.8-0.4s-0.8,0.2-1.5,0.5
		c-5.9,1-17.3,0.5-14-0.5C72.5,132.5,74.8,132.6,74.8,132.6"/>
	<path class="st68" d="M85.2,136.2c6-1.9,3.2-3.8,1.3-3.6c-0.5,0.1-0.7,0.1-0.7,0.1s0.2-0.2,0.5-0.2c3.8-0.8,6.8,2.5-1.2,3.8
		C85.1,136.3,85.1,136.3,85.2,136.2"/>
	<path class="st67" d="M81.6,121.6c0,0,3.3,2.1-3.1,5.3c-5.2,2.6-1.2,4,0,5.7c-3-1.7-5.2-3.2-3.8-4.6
		C76.8,125.9,82.9,124.9,81.6,121.6"/>
	<path class="st68" d="M75.4,141.5c5.7,0.2,14.6-0.1,14.8-1.8c0,0-0.4,0.6-4.8,1.2c-4.9,0.6-11,0.5-14.5,0.1
		C70.8,141,71.6,141.3,75.4,141.5"/>
	<path class="st67" d="M74.4,148c-0.5,0.3-1.1,0.5-1.6,0.5c-0.7,0-1.1-0.3-1.1-0.7c0-0.5,0.4-0.8,2.1-0.8h0.6V148 M75.9,149v-3.3
		c0-0.8-0.8-1.4-2.6-1.4c-1.1,0-2,0.2-2.8,0.4l0.2,0.6c0.6-0.1,1.4-0.3,2.1-0.3c1.1,0,1.5,0.3,1.5,0.8v0.4h-0.5
		c-2.6,0-3.7,0.6-3.7,1.6c0,0.8,0.8,1.3,2.2,1.3c0.9,0,1.6-0.2,2.3-0.6l0.1,0.5L75.9,149L75.9,149z"/>
	<path class="st67" d="M80.9,149H79l-2.2-4.6h1.6l1.4,2.8l0.3,0.8c0.7-1.2,1.2-2.5,1.5-3.6h1.6C82.7,146,82,147.6,80.9,149"/>
	<path class="st67" d="M88.1,148c-0.5,0.3-1.1,0.5-1.6,0.5c-0.7,0-1.1-0.3-1.1-0.7c0-0.5,0.4-0.8,2.1-0.8h0.6V148 M89.6,149v-3.3
		c0-0.8-0.8-1.4-2.6-1.4c-1.1,0-2,0.2-2.8,0.4l0.2,0.6c0.6-0.1,1.4-0.3,2.1-0.3c1.1,0,1.5,0.3,1.5,0.8v0.4h-0.5
		c-2.6,0-3.7,0.6-3.7,1.6c0,0.8,0.8,1.3,2.2,1.3c0.9,0,1.6-0.2,2.3-0.6l0.1,0.5L89.6,149L89.6,149z"/>
	<path class="st67" d="M68.5,149.8c-0.4,0.4-1.1,0.7-1.9,0.9l-0.7-0.5c0.6-0.2,1.1-0.5,1.3-0.8c0.2-0.2,0.3-0.6,0.3-1.3v-5.2h1.6
		v5.1C69.1,149,68.9,149.4,68.5,149.8"/>
</g>
<text transform="matrix(1 0 0 1 590 211)" style="font-family:'MyriadPro-Regular'; font-size:12px;">#5DA213</text>
</svg>
