<?xml version="1.0" encoding="UTF-8"?>
<svg width="22px" height="22px" viewBox="0 0 22 22" version="1.1" xmlns="http://www.w3.org/2000/svg" xmlns:xlink="http://www.w3.org/1999/xlink">
    <!-- Generator: Sketch 56 (81588) - https://sketch.com -->
    <title>elearningpop</title>
    <desc>Created with Sketch.</desc>
    <g id="Page-1" stroke="none" stroke-width="1" fill="none" fill-rule="evenodd">
        <g id="blog-July-register-for-webinar-success" transform="translate(-99.000000, -85.000000)" fill-rule="nonzero">
            <g id="elearningpop" transform="translate(99.000000, 85.000000)">
                <path d="M14.2226857,20.0665143 C14.2226857,20.4229143 13.9341714,20.7108 13.5784,20.7108 L8.4216,20.7108 C8.06577083,20.7108 7.77731429,20.4223435 7.77731429,20.0665143 L7.77731429,16.1982857 C7.77731429,15.8425143 8.06582857,15.554 8.4216,15.554 L13.5784,15.554 C13.9341714,15.554 14.2226857,15.8425143 14.2226857,16.1982857 L14.2226857,20.0658857 L14.2226857,20.0665143 Z" id="Path" fill="#032E68"></path>
                <g id="Group" fill="#0A4EAF">
                    <path d="M22,14.9097143 C21.9989611,15.9772201 21.1340198,16.8424427 20.0665143,16.8438286 L1.93348571,16.8438286 C0.865980247,16.8424427 0.00103887934,15.9772201 -3.41948692e-16,14.9097143 L-3.41948692e-16,1.93348571 C0.00138515476,0.866225317 0.866225317,0.00138515476 1.93348571,0 L20.0665143,0 C21.1337747,0.00138515476 21.9986148,0.866225317 22,1.93348571 L22,14.9103429 L22,14.9097143 Z M16.8010857,21.3557143 C16.8010857,21.7114857 16.5119429,22.0000003 16.1561714,22.0000003 L5.84382857,22.0000003 C5.67284449,22.0001668 5.50880637,21.9323606 5.38784338,21.8115155 C5.26688039,21.6906704 5.19891429,21.5266984 5.19891429,21.3557143 L5.19891429,20.7108 C5.19891429,20.3689407 5.33476034,20.0410922 5.57655033,19.7994201 C5.81834031,19.557748 6.146255,19.4220618 6.48811429,19.4222284 L15.5118857,19.4222284 C15.8536361,19.4222284 16.1813893,19.5579884 16.4230433,19.7996424 C16.6646973,20.0412964 16.8004571,20.3690496 16.8004571,20.7108 L16.8004571,21.3557143 L16.8010857,21.3557143 Z" id="Shape"></path>
                </g>
                <path d="M13.5784,15.5546286 L11,15.5546286 L11,20.7108 L13.5784,20.7108 C13.9341714,20.7108 14.2226857,20.4229143 14.2226857,20.0665143 L14.2226857,16.1982857 C14.2226857,15.8425143 13.9341714,15.554 13.5784,15.554 L13.5784,15.5546286 Z" id="Path" fill="#001D56"></path>
                <g id="Group" transform="translate(10.685714, 0.000000)" fill="#08469C">
                    <path d="M9.3808,0 L0.314285714,0 L0.314285714,16.8438286 L9.3808,16.8438286 C10.4483055,16.8424427 11.3132468,15.9772201 11.3142857,14.9097143 L11.3142857,1.93348571 C11.3129006,0.866225317 10.4480604,0.00138515476 9.3808,0 Z M4.82617143,19.4216 L0.314285714,19.4216 L0.314285714,22 L5.47045714,22 C5.82685714,22 6.11537143,21.7114857 6.11537143,21.3557143 L6.11537143,20.7108 C6.11537143,20.3689407 5.97952537,20.0410922 5.73773539,19.7994201 C5.4959454,19.557748 5.16803071,19.4220618 4.82617143,19.4222286 L4.82617143,19.4216 Z" id="Shape"></path>
                </g>
                <path d="M1.93348571,15.5546286 C1.57771429,15.5546286 1.2892,15.2654857 1.2892,14.9103429 L1.2892,1.93348571 C1.2892,1.57771429 1.57834286,1.2892 1.93348571,1.2892 L20.0665143,1.2892 C20.4222857,1.2892 20.7108,1.57834286 20.7108,1.93348571 L20.7108,14.9103429 C20.7108,15.2654857 20.4216571,15.5546286 20.0665143,15.5546286 L1.93348571,15.5546286 Z" id="Path" fill="#E6EEFF"></path>
                <path d="M20.0665143,1.28857143 L11,1.28857143 L11,15.5546286 L20.0665143,15.5546286 C20.4222857,15.5546286 20.7108,15.2654857 20.7108,14.9103429 L20.7108,1.93348571 C20.7108,1.57771429 20.4216571,1.2892 20.0665143,1.2892 L20.0665143,1.28857143 Z" id="Path" fill="#DAE2F2"></path>
                <path d="M17.6842286,3.04668571 C15.4766078,2.16771789 12.9672239,2.53956732 11.1093714,4.02097143 L11,4.10834286 L10.8906286,4.02034286 C9.03310099,2.53819166 6.52329794,2.16628012 4.31577143,3.04605714 C4.07062857,3.14474286 3.91034286,3.38108571 3.91034286,3.64508571 L3.91034286,12.3319429 C3.91086459,12.5455805 4.01704844,12.7451234 4.19394997,12.8649031 C4.37085151,12.9846828 4.59555586,13.0091837 4.79411429,12.9303429 C6.57051908,12.2221914 8.59030119,12.5216673 10.0848,13.7148 C10.3550857,13.9304 10.6762857,14.2654286 11,14.2654286 C11.3105143,14.2654286 11.6411429,13.9341714 11.9152,13.7148 C13.4093729,12.5209185 15.4295756,12.2213803 17.2058857,12.9303429 C17.4044356,13.0101745 17.6296783,12.9861068 17.8068777,12.8661254 C17.9840771,12.7461441 18.0900585,12.5459405 18.0896583,12.3319429 L18.0896583,3.64571429 C18.0896583,3.38171429 17.9293714,3.14537143 17.6842286,3.04731429 L17.6842286,3.04668571 Z" id="Path" fill="#FCBF29"></path>
                <path d="M11.9152,13.7154286 C13.4092519,12.5213345 15.4294648,12.2215548 17.2058857,12.9303429 C17.4044356,13.0101745 17.6296783,12.9861068 17.8068777,12.8661254 C17.9840771,12.7461441 18.0900585,12.5459405 18.0896583,12.3319429 L18.0896583,3.64571429 C18.0896583,3.38171429 17.9293714,3.14537143 17.6842286,3.04731429 C15.4766078,2.16834647 12.9672239,2.54019589 11.1093714,4.0216 L11,4.10897143 L11,14.2666857 C11.3105143,14.2666857 11.6411429,13.9348 11.9152,13.7154286 L11.9152,13.7154286 Z" id="Path" fill="#FE9923"></path>
            </g>
        </g>
    </g>
</svg>