<svg xmlns="http://www.w3.org/2000/svg" width="29" height="30" viewBox="0 0 29 30">
    <defs>
        <linearGradient id="a" x1="10.272%" x2="94.449%" y1="8.316%" y2="92.481%">
            <stop offset="0%" stop-color="#248DE4"/>
            <stop offset="100%" stop-color="#243BE4"/>
        </linearGradient>
    </defs>
    <g fill="none" fill-rule="evenodd">
        <path fill="url(#a)" d="M0 0h28.286v30l-14.004-7.198L0 30z"/>
        <path fill="#FFF" fill-rule="nonzero" d="M4.286 16.544v-3.402h.721v2.806h1.38v.596H4.286zm4.775 0l-.246-.81h-1.24l-.248.81H6.55l1.201-3.416h.882l1.206 3.416H9.06zm-.419-1.415l-.385-1.245a3.515 3.515 0 0 1-.061-.228c-.052.199-.198.69-.44 1.473h.886zm4.394-1.987v2.201c0 .252-.056.472-.168.661-.113.19-.275.335-.488.435-.213.101-.464.152-.754.152-.438 0-.777-.112-1.02-.337-.241-.224-.362-.53-.362-.92v-2.192h.719v2.083c0 .262.052.454.158.577.105.122.28.184.524.184.235 0 .406-.062.513-.185.106-.124.16-.317.16-.581v-2.078h.718zm3.852 3.402h-.917l-1.48-2.574h-.021c.03.455.044.779.044.973v1.601h-.645v-3.402h.91l1.478 2.548h.016a20.633 20.633 0 0 1-.034-.938v-1.61h.649v3.402zm2.302-2.85a.735.735 0 0 0-.631.305c-.15.204-.224.489-.224.853 0 .759.285 1.138.855 1.138.238 0 .528-.06.868-.179v.605a2.41 2.41 0 0 1-.936.175c-.495 0-.873-.15-1.136-.45-.262-.3-.393-.732-.393-1.293 0-.354.064-.664.193-.93s.314-.47.555-.612c.242-.142.524-.213.849-.213.33 0 .662.08.996.24l-.233.586a3.852 3.852 0 0 0-.384-.158 1.146 1.146 0 0 0-.38-.068zm4.38 2.85h-.72v-1.468h-1.347v1.468h-.722v-3.402h.722v1.333h1.347v-1.333h.72v3.402zM9.872 11.381H8.192L5.478 6.66H5.44c.054.834.081 1.429.081 1.784v2.936H4.34V5.143h1.669l2.709 4.672h.03a37.826 37.826 0 0 1-.064-1.72V5.143h1.19v6.238zm5.163 0h-3.593V5.143h3.593v1.084h-2.27v1.37h2.112V8.68h-2.112v1.608h2.27v1.093zm7.377 0h-1.506l-.845-3.277a15.952 15.952 0 0 1-.16-.723 8.255 8.255 0 0 1-.13-.736c-.017.153-.06.4-.128.74-.069.34-.121.582-.158.727l-.84 3.269h-1.503l-1.591-6.238h1.301l.798 3.405c.14.628.24 1.173.303 1.634.017-.162.056-.413.117-.753.062-.34.12-.604.173-.792l.91-3.494h1.25l.908 3.494c.04.157.09.396.15.717.06.321.105.597.136.828.028-.222.074-.499.136-.83.063-.331.12-.6.171-.804l.794-3.405H24l-1.587 6.238z"/>
    </g>
</svg>
