<svg xmlns="http://www.w3.org/2000/svg" xmlns:xlink="http://www.w3.org/1999/xlink" width="189" height="131" viewBox="0 0 189 131">
    <defs>
        <linearGradient id="a" x1="-2.239%" x2="99.323%" y1="67.432%" y2="30.871%">
            <stop offset="0%" stop-color="#F4FEFF" stop-opacity="0"/>
            <stop offset="22.558%" stop-color="#EDFCFE"/>
            <stop offset="87.123%" stop-color="#DCF7FA"/>
            <stop offset="100%" stop-color="#DAF7FA" stop-opacity=".7"/>
        </linearGradient>
        <linearGradient id="b" x1="50%" x2="9.695%" y1="48.668%" y2="50.384%">
            <stop offset="0%" stop-color="#FFF"/>
            <stop offset="100%" stop-color="#FFFFFE" stop-opacity=".3"/>
        </linearGradient>
        <linearGradient id="c" x1="0%" y1="58.654%" y2="58.654%">
            <stop offset="0%" stop-color="#35EAFF" stop-opacity=".2"/>
            <stop offset="72.587%" stop-color="#22C1F0" stop-opacity=".89"/>
            <stop offset="100%" stop-color="#1FBAEE" stop-opacity=".2"/>
        </linearGradient>
        <path id="d" d="M8.171.468L.18 12.038a.485.485 0 0 0-.127.418l3.221 18.74c.025.143.11.266.235.338l15.956 9.167a.463.463 0 0 0 .207.063c1.165.066 11.126.485 12.046-4.633.586-3.266-.865-4.92-2.119-5.721-.365-.234-.265-.796.16-.879 2.511-.487 6.746-2.216 5.683-8.345-1.14-6.573-8.104-6.475-11.31-6.068-.45.057-.71-.483-.4-.816 1.285-1.378 2.86-3.89.752-6.55-2.388-3.014-6.24-2.418-7.983-1.945a.477.477 0 0 1-.596-.55c.523-2.622-3.524-4.085-4.646-4.437C11.132.78 8.62.09 7.928.09c-.263 0-.261.1.243.378"/>
        <linearGradient id="e" x1="84.918%" x2="43.636%" y1="10.79%" y2="57.36%">
            <stop offset="0%" stop-color="#CA236D"/>
            <stop offset="100%" stop-color="#4B236D"/>
        </linearGradient>
        <path id="g" d="M.025 4.37l1.128 2.289C2.497 5.374 5.815 1.643 3.105.302a1.837 1.837 0 0 0-.813-.214C.319.088.025 4.37.025 4.37"/>
        <linearGradient id="h" x1="-82.989%" x2="154.043%" y1="-25.477%" y2="111.253%">
            <stop offset="0%" stop-color="#F9B675"/>
            <stop offset="100%" stop-color="#F47960"/>
        </linearGradient>
        <linearGradient id="j" x1="22.872%" x2="58.379%" y1="6.506%" y2="74.442%">
            <stop offset="0%" stop-color="#FAD961"/>
            <stop offset="100%" stop-color="#F76B1C"/>
        </linearGradient>
        <linearGradient id="k" x1="62.328%" x2="162.328%" y1="50%" y2="50%">
            <stop offset="0%" stop-color="#F9B675"/>
            <stop offset="100%" stop-color="#F47960"/>
        </linearGradient>
        <path id="l" d="M.049 3.37c.102.334 2.66 8.684 2.861 8.857.2.173 5.612.46 8.16-1.254L6.208.09.048 3.37z"/>
        <linearGradient id="m" x1="68.713%" x2="46.363%" y1="189.282%" y2="32.145%">
            <stop offset="0%" stop-color="#F9B675"/>
            <stop offset="100%" stop-color="#F47960"/>
        </linearGradient>
        <path id="o" d="M5.594.786S1.655 3.876.374 11.135c-1.28 7.259 1.784 9.618 4.732 9.255 2.947-.363 7.173-1.578 10.534-6.956C18.524 8.818 12.87.009 7.936.008c-.814 0-1.609.24-2.342.778"/>
        <linearGradient id="p" x1="17.252%" x2="117.563%" y1="39.256%" y2="82.471%">
            <stop offset="0%" stop-color="#F9B675"/>
            <stop offset="100%" stop-color="#F47960"/>
        </linearGradient>
        <linearGradient id="r" x1="95.801%" x2="33.458%" y1="-25.981%" y2="79.465%">
            <stop offset="0%" stop-color="#CA236D"/>
            <stop offset="100%" stop-color="#4B236D"/>
        </linearGradient>
        <linearGradient id="s" x1="100%" x2="2.414%" y1="25.499%" y2="73.542%">
            <stop offset="0%" stop-color="#248DE4"/>
            <stop offset="100%" stop-color="#243BE4"/>
        </linearGradient>
        <linearGradient id="t" x1="36.791%" y1="66.491%" y2="25.666%">
            <stop offset="0%" stop-color="#EEF3FF"/>
            <stop offset="100%" stop-color="#9DD9FF"/>
        </linearGradient>
        <linearGradient id="u" x1="98.062%" x2="17.472%" y1="-20.192%" y2="82.103%">
            <stop offset="0%" stop-color="#69C6E4"/>
            <stop offset="100%" stop-color="#445192"/>
        </linearGradient>
        <linearGradient id="v" x1="62.223%" x2="17.851%" y1="14.324%" y2="153.512%">
            <stop offset="0%" stop-color="#69C6E4"/>
            <stop offset="100%" stop-color="#445192"/>
        </linearGradient>
        <linearGradient id="w" x1="0%" x2="100.001%" y1="50%" y2="50%">
            <stop offset="0%" stop-color="#F0B273"/>
            <stop offset="100%" stop-color="#E4725C"/>
        </linearGradient>
        <linearGradient id="x" x1="42.001%" x2="54.985%" y1="100%" y2="0%">
            <stop offset="0%" stop-color="#999696"/>
            <stop offset="100%" stop-color="#F3F3F3"/>
        </linearGradient>
        <linearGradient id="A" x1="41.79%" x2="57.586%" y1="100%" y2="6.043%">
            <stop offset="0%" stop-color="#C7C7C7"/>
            <stop offset="100%" stop-color="#FFF"/>
        </linearGradient>
        <path id="z" d="M9.307 34.849l7.631-3.14-11.37 30.073L0 62c0 .295 3.102-8.755 9.307-27.151z"/>
        <filter id="y" width="359.8%" height="245.2%" x="-129.9%" y="-66%" filterUnits="objectBoundingBox">
            <feOffset dy="2" in="SourceAlpha" result="shadowOffsetOuter1"/>
            <feGaussianBlur in="shadowOffsetOuter1" result="shadowBlurOuter1" stdDeviation="7"/>
            <feColorMatrix in="shadowBlurOuter1" values="0 0 0 0 1 0 0 0 0 1 0 0 0 0 1 0 0 0 0.5 0"/>
        </filter>
        <linearGradient id="B" x1="58.972%" x2="22.923%" y1="15.931%" y2="180.784%">
            <stop offset="0%" stop-color="#F0B273"/>
            <stop offset="100%" stop-color="#E4725C"/>
        </linearGradient>
        <linearGradient id="C" x1="30.924%" x2="74.794%" y1="65.487%" y2="14.039%">
            <stop offset="0%" stop-color="#29316B"/>
            <stop offset="100%" stop-color="#261F5C"/>
        </linearGradient>
        <linearGradient id="D" x1="-37.652%" x2="54.367%" y1="352.4%" y2="42.734%">
            <stop offset="0%" stop-color="#F0B273"/>
            <stop offset="100%" stop-color="#E4725C"/>
        </linearGradient>
        <linearGradient id="E" x1="63.295%" x2="-39.603%" y1="30.249%" y2="251.966%">
            <stop offset="0%" stop-color="#F0B273"/>
            <stop offset="100%" stop-color="#E4725C"/>
        </linearGradient>
        <linearGradient id="F" x1="67.704%" x2="-43.273%" y1="27.645%" y2="153.665%">
            <stop offset="0%" stop-color="#66ACC2"/>
            <stop offset="100%" stop-color="#445192"/>
        </linearGradient>
        <linearGradient id="G" x1="72.793%" x2="108.112%" y1="50%" y2="50%">
            <stop offset="0%" stop-color="#0017B5"/>
            <stop offset="100%" stop-color="#243BE4"/>
        </linearGradient>
        <linearGradient id="H" x1="2.201%" y1="30.785%" y2="70.1%">
            <stop offset="0%" stop-color="#F5A623"/>
            <stop offset="100%" stop-color="#F76B1C"/>
        </linearGradient>
        <linearGradient id="I" x1="94.737%" x2="7.131%" y1="39.389%" y2="56.097%">
            <stop offset="0%" stop-color="#24E4DB"/>
            <stop offset="100%" stop-color="#248DE4"/>
        </linearGradient>
    </defs>
    <g fill="none" fill-rule="evenodd">
        <path fill="#FFF" d="M0 0h189v131H0z"/>
        <path fill="url(#a)" d="M53.058 120.234H.574V.2h52.484v120.033zm89.196 0V1.193h46.542v119.04h-46.542zm-83.51 0V.2h38.001v120.033H58.743zm77.88 0h-34.249V.2h34.25v120.033z" transform="matrix(-1 0 0 1 189 .338)"/>
        <path fill="url(#b)" d="M87.79 91.918h101.007v2.976H12.531v-2.976h75.26zm0 5.952h101.007v2.976H12.531V97.87h75.26zm0 6.944h101.007v2.976H12.531v-2.976h75.26zm0 6.944h101.007v2.976H12.531v-2.976h75.26zm0 5.952h101.007v2.977H12.531v-2.977h75.26z" transform="matrix(-1 0 0 1 189 .338)"/>
        <path fill="url(#c)" d="M0 100.718h185.5v7.577H0z" transform="matrix(-1 0 0 1 188.219 21.114)"/>
        <g transform="translate(140.405 59.106)">
            <mask id="f" fill="#fff">
                <use xlink:href="#d"/>
            </mask>
            <path fill="url(#e)" d="M8.171.468L.18 12.038a.485.485 0 0 0-.127.418l3.221 18.74c.025.143.11.266.235.338l15.956 9.167a.463.463 0 0 0 .207.063c1.165.066 11.126.485 12.046-4.633.586-3.266-.865-4.92-2.119-5.721-.365-.234-.265-.796.16-.879 2.511-.487 6.746-2.216 5.683-8.345-1.14-6.573-8.104-6.475-11.31-6.068-.45.057-.71-.483-.4-.816 1.285-1.378 2.86-3.89.752-6.55-2.388-3.014-6.24-2.418-7.983-1.945a.477.477 0 0 1-.596-.55c.523-2.622-3.524-4.085-4.646-4.437C11.132.78 8.62.09 7.928.09c-.263 0-.261.1.243.378" mask="url(#f)"/>
        </g>
        <g transform="translate(142.633 59.85)">
            <mask id="i" fill="#fff">
                <use xlink:href="#g"/>
            </mask>
            <path fill="url(#h)" d="M.025 4.37l1.128 2.289C2.497 5.374 5.815 1.643 3.105.302a1.837 1.837 0 0 0-.813-.214C.319.088.025 4.37.025 4.37" mask="url(#i)"/>
        </g>
        <path fill="url(#j)" d="M21.386 32.88c-1.476.003-9.537.082-9.977 1.556-.316 1.06-3.78 7.863-5.728 14.433-.32 1.08-.48 2.186-.483 3.286v.064a11.585 11.585 0 0 0 2.448 7.099c4.268 5.472 12.94 13.734 12.94 13.734l18.15-1.876c-.3-4.622-8.842-15.912-8.842-15.912 4.936 5.332 9.933 13.718 9.933 13.718l8.443-2.63C40.752 45.304 21.617 32.88 21.617 32.88H21.386z" transform="translate(126.296 46.312)"/>
        <path fill="url(#k)" d="M34.192 3.768l-5.018 1.343c-5.017 1.344-13.784 0-13.784 0l-3.53-1.475A9.34 9.34 0 0 0 .216 7.501c-.399.675 1.135 1.645 5.69 2.092 4.555.447 21.547 1.07 31.864 1.073h.16c3 0 5.071-.058 5.41-.204.732-.317 1.882-1.075 2.862-1.764a2.98 2.98 0 0 0 1.108-3.443L45.53.277 34.192 3.768z" transform="translate(128.524 112.669)"/>
        <g transform="translate(135.95 68.033)">
            <mask id="n" fill="#fff">
                <use xlink:href="#l"/>
            </mask>
            <path fill="url(#m)" d="M.049 3.37c.102.334 2.66 8.684 2.861 8.857.2.173 5.612.46 8.16-1.254L6.208.09.048 3.37z" mask="url(#n)"/>
        </g>
        <g transform="rotate(-23 203.989 -282.638)">
            <mask id="q" fill="#fff">
                <use xlink:href="#o"/>
            </mask>
            <path fill="url(#p)" d="M5.594.786S1.655 3.876.374 11.135c-1.28 7.259 1.784 9.618 4.732 9.255 2.947-.363 7.173-1.578 10.534-6.956C18.524 8.818 12.87.009 7.936.008c-.814 0-1.609.24-2.342.778" mask="url(#q)"/>
        </g>
        <path fill="url(#r)" d="M2.137 9.812l1.577-1.911c8.3-2.16 7.503 8.198 7.503 8.198l.59.128s1.276-2.458 2.494-1.047c1.218 1.412.698 5.695.698 5.695s1.855 2.57 4.51-1.649c2.655-4.218 1.044-7.545-.55-10.264-1.064-1.813-2.528-3.05-4.393-3.71-1.53-2.41-4.132-4.065-7.81-4.966-2.195 0-2.944-.36-4.746 1.256-4.31 3.868.127 8.27.127 8.27z" transform="rotate(-4 751.069 -1816.909)"/>
        <g>
            <path fill="url(#s)" d="M71.83 77.529a4.368 4.368 0 0 1-4.674 2.687l-38.409-2.668 13.834-39.025a2.447 2.447 0 0 1 2.344-1.565c6.735.154 31.26.755 40.035 1.53a1.804 1.804 0 0 1 1.518 2.48l-14.647 36.56z" transform="matrix(-1 0 0 1 95.21 43.567)"/>
            <path fill="url(#t)" d="M82.92 42.481a1.154 1.154 0 0 0-1.052-1.576l-35.026-1.367a2.192 2.192 0 0 0-2.123 1.385L31.36 76.65l37.188 1.743 14.37-35.912z" transform="matrix(-1 0 0 1 95.21 43.567)"/>
            <path fill="url(#u)" d="M37.457 53.675c-.982 2.163-14.916-3.022-18.628-10.057l-7.507-10.462-.213 17.304c10.632 7.253 19.083 9.91 25.355 7.973l.993-4.758z" transform="translate(46.644 43.567)"/>
            <path fill="url(#v)" d="M32.778 40.9c1.31-6.26 4.722-11.864 9.676-15.825l1.657-1.324 8.302 3.421 5.387 8.3a19.776 19.776 0 0 1 .904 15.312c-2.962 8.386-7.572 21.896-8.582 26.165 0 0-3.433.743-11.01.978-2.7.084-5.967.338-9.418-.379 0 .422-.465-19.697 3.084-36.648z" transform="translate(5.705 43.567)"/>
            <path fill="url(#w)" d="M41.18 10.625L34.51 25.818s2.134 4.715 9.603 2.881l2.667-10.478-5.601-7.596" transform="translate(13.918 43.567)"/>
            <path fill="url(#x)" d="M8.664 32.891l9.476-1.562L6.769 61.782 0 61.002c0-.261 8.664-28.11 8.664-28.11z" transform="translate(77.07 43.567)"/>
            <g transform="translate(78.272 43.567)">
                <use fill="#000" filter="url(#y)" xlink:href="#z"/>
                <use fill="url(#A)" xlink:href="#z"/>
            </g>
            <path fill="url(#B)" d="M39.641 6.514c.082.207.261 14.84.261 14.84l-8.83-.081-2.346-13.845s9.55-4.387 10.915-.914" transform="translate(26.582 43.567)"/>
            <path fill="url(#C)" d="M33.508 18.802c.208.557 1.928 1.88 3.793.894 1.692-.895 3.25-1.686 4.467-1.584.546.045.968.495.974 1.04.015 1.358-.007 4.418-.434 7.074a1.059 1.059 0 0 1-1.126.88c-1.651-.117-5.126-.46-7.857-1.385a1.059 1.059 0 0 1-.709-.82c-.323-1.867-1.33-7.537-1.855-9.074-.494-1.442-2.514-1.936-3.377-2.083a1.046 1.046 0 0 1-.692-.445c-.566-.836-1.534-2.846.964-4.291.522-.302.688-.968.367-1.478-.637-1.016-1.17-2.66.707-4.031 1.908-1.395 3.729-.615 4.778.111.425.294.99.232 1.359-.129.21-.205.512-.322.942-.169.579.206 1.208-.154 1.354-.748.282-1.14 1.072-2.467 3.217-2.56 3.806-.163 5.1 3.789 4.647 6.365-.453 2.575-4.589 2.52-6.825 1.75-1.7-.584-3.442.786-4.18 1.476-.234.219-1.432 1.244-1.406 1.562.572 5.036.87 7.585.892 7.645z" transform="translate(24.071 43.567)"/>
            <path fill="url(#D)" d="M44.07 18.594s.568-4.579-1.122-5.283c-1.69-.704-3.767.336-2.655 3.306 1.383 3.694 3.777 1.977 3.777 1.977" transform="translate(11.068 43.567)"/>
            <path fill="url(#E)" d="M14.767 43.618s-.166.642-1.97 3.275c-1.803 2.633-3.865 4.476-2.834 1.316 1.03-3.16-.258-4.213-1.484-.772-1.226 3.44-2.38 4.986-2.38 4.986-.481.386-.955.742-1.421 1.072.222.974.791 2.13 2.085 3.241.737-.538 1.139-.89 1.139-.89s5.926-3.16 6.442-6.32c.515-3.16.423-5.908.423-5.908" transform="translate(75.759 43.567)"/>
            <path fill="url(#F)" d="M23.963 36.72c-2.372-3.051-9.294-4.523-11.453 2.9-.875 3.004.836 6.36 1.458 7.207 15.458 23.741 33.404 16.845 38.948 9.558-1.32-1.093-1.902-2.232-2.128-3.19C32.102 65.929 25.82 39.111 23.963 36.72z" transform="translate(30.029 43.567)"/>
            <path fill="url(#G)" d="M1.71 80.26H71.2c2.414.109 4.046-.74 4.895-2.549L1.71 77.368c-.762 0-1.711.45-1.711 1.436 0 .613.766 1.456 1.71 1.456z" transform="matrix(-1 0 0 1 99.54 43.567)"/>
        </g>
        <g>
            <path fill="url(#H)" d="M1 0h26.51a1 1 0 0 1 1 1v13.566a1 1 0 0 1-1 1H8.65l-3.084 2.51v-2.51H1a1 1 0 0 1-1-1V1a1 1 0 0 1 1-1z" transform="translate(58.399 21.152)"/>
            <path fill="#FFF" d="M61.476 24.888h20.56v1.446h-20.56v-1.446zm-.07 6.728h10.827v1.446H61.406v-1.446zm0-3.364H75.64v1.446H61.406v-1.446z"/>
        </g>
        <g>
            <path fill="url(#I)" d="M1 0h17.772a1 1 0 0 1 1 1v5.069a1 1 0 0 1-1 1H7.362l-2.864 2.33V7.07H1a1 1 0 0 1-1-1V1a1 1 0 0 1 1-1z" transform="matrix(-1 0 0 1 132.021 37.06)"/>
            <path fill="#FFF" d="M117.714 41.565c-.47 0-.85-.426-.85-.951 0-.525.38-.951.85-.951s.85.426.85.95c0 .526-.38.952-.85.952zm4.251.116c-.47 0-.85-.425-.85-.95 0-.526.38-.952.85-.952s.85.426.85.951c0 .526-.38.951-.85.951zm4.251 0c-.47 0-.85-.425-.85-.95 0-.526.38-.952.85-.952s.85.426.85.951c0 .526-.38.951-.85.951z"/>
        </g>
    </g>
</svg>
