<svg xmlns="http://www.w3.org/2000/svg" viewBox="0 0 135.00024 40">
  <defs>
    <style>
      .cls-1 {
        fill: #a3a3a3;
      }

      .cls-2 {
        fill: #fff;
      }
    </style>
  </defs>
  <title>facebook</title>
  <g id="artwork">
    <g>
      <path class="cls-1" d="M130.19724,40H4.729A4.73981,4.73981,0,0,1,0,35.267V4.726A4.73318,4.73318,0,0,1,4.729,0H130.19724a4.79771,4.79771,0,0,1,4.803,4.726V35.267a4.80434,4.80434,0,0,1-4.803,4.733Z"/>
      <path d="M134.03223,35.268a3.8299,3.8299,0,0,1-3.834,3.83H4.729A3.83481,3.83481,0,0,1,.89,35.268V4.725A3.83972,3.83972,0,0,1,4.729.89H130.19724a3.83416,3.83416,0,0,1,3.834,3.835l.001,30.543Z"/>
      <g>
        <path class="cls-2" d="M30.12805,19.784a5.79675,5.79675,0,0,1,2.761-4.864,5.93733,5.93733,0,0,0-4.676-2.528c-1.967-.207-3.875,1.177-4.877,1.177-1.022,0-2.565-1.157-4.228-1.123a6.22546,6.22546,0,0,0-5.24,3.196c-2.266,3.923-.576,9.688,1.595,12.859,1.086,1.553,2.355,3.287,4.016,3.226,1.625-.067,2.232-1.036,4.193-1.036,1.943,0,2.513,1.036,4.207.997,1.744-.028,2.842-1.56,3.89-3.127a12.83234,12.83234,0,0,0,1.779-3.623A5.6036,5.6036,0,0,1,30.12805,19.784Z"/>
        <path class="cls-2" d="M26.928,10.306a5.70571,5.70571,0,0,0,1.306-4.089,5.81225,5.81225,0,0,0-3.758,1.944,5.43,5.43,0,0,0-1.34,3.938A4.8008,4.8008,0,0,0,26.928,10.306Z"/>
      </g>
      <g>
        <path class="cls-2" d="M53.6451,31.504h-2.271l-1.244-3.909h-4.324l-1.185,3.909h-2.211l4.284-13.308h2.646Zm-3.89-5.549-1.125-3.475q-.1785-.5325-.671-2.507h-.04q-.1965.849-.632,2.507l-1.105,3.475Z"/>
        <path class="cls-2" d="M64.66212,26.588a5.453,5.453,0,0,1-1.323,3.869,3.86842,3.86842,0,0,1-2.942,1.264,2.94186,2.94186,0,0,1-2.725-1.362h-.04v5.055h-2.132V25.067q0-1.539-.079-3.159h1.875l.119,1.521h.04a3.79342,3.79342,0,0,1,6.071-.376A5.2869,5.2869,0,0,1,64.66212,26.588Zm-2.172.078a3.95059,3.95059,0,0,0-.632-2.31,2.18278,2.18278,0,0,0-1.856-.948,2.21709,2.21709,0,0,0-1.431.523,2.42581,2.42581,0,0,0-.839,1.373,2.7912,2.7912,0,0,0-.099.65v1.6a2.56379,2.56379,0,0,0,.642,1.768,2.12794,2.12794,0,0,0,1.668.721,2.18267,2.18267,0,0,0,1.875-.928A4.0843,4.0843,0,0,0,62.49011,26.666Z"/>
        <path class="cls-2" d="M75.69913,26.588a5.449,5.449,0,0,1-1.324,3.869,3.86478,3.86478,0,0,1-2.941,1.264,2.93914,2.93914,0,0,1-2.724-1.362h-.04v5.055h-2.132V25.067q0-1.539-.079-3.159h1.875l.119,1.521h.04a3.79443,3.79443,0,0,1,6.072-.376A5.3017,5.3017,0,0,1,75.69913,26.588Zm-2.172.078a3.95082,3.95082,0,0,0-.633-2.31,2.1798,2.1798,0,0,0-1.855-.948,2.21972,2.21972,0,0,0-1.432.523,2.42435,2.42435,0,0,0-.838,1.373,2.846,2.846,0,0,0-.099.65v1.6a2.57166,2.57166,0,0,0,.64,1.768,2.13248,2.13248,0,0,0,1.67.721,2.18267,2.18267,0,0,0,1.875-.928A4.08424,4.08424,0,0,0,73.52713,26.666Z"/>
        <path class="cls-2" d="M88.03916,27.772a3.54676,3.54676,0,0,1-1.182,2.764,5.23869,5.23869,0,0,1-3.625,1.165,6.34545,6.34545,0,0,1-3.449-.829l.494-1.777a5.84431,5.84431,0,0,0,3.082.85,2.9138,2.9138,0,0,0,1.877-.544,1.77635,1.77635,0,0,0,.67-1.454,1.85363,1.85363,0,0,0-.553-1.364,5.1407,5.1407,0,0,0-1.836-1.029q-3.495-1.3035-3.494-3.816a3.37665,3.37665,0,0,1,1.225-2.689,4.82921,4.82921,0,0,1,3.258-1.048,6.45922,6.45922,0,0,1,3.02.632l-.533,1.738a5.23992,5.23992,0,0,0-2.547-.612,2.57806,2.57806,0,0,0-1.756.553,1.58,1.58,0,0,0-.533,1.205,1.62656,1.62656,0,0,0,.611,1.303,6.90561,6.90561,0,0,0,1.936,1.027,6.56837,6.56837,0,0,1,2.527,1.618A3.38032,3.38032,0,0,1,88.03916,27.772Z"/>
        <path class="cls-2" d="M95.08817,23.508h-2.35v4.659q0,1.7775,1.244,1.777a3.79179,3.79179,0,0,0,.947-.099l.059,1.619a4.83044,4.83044,0,0,1-1.658.236,2.55823,2.55823,0,0,1-1.975-.77,3.78257,3.78257,0,0,1-.711-2.587V23.506h-1.4v-1.6h1.4V20.149l2.094-.632v2.389h2.35Z"/>
        <path class="cls-2" d="M105.69119,26.627a5.264,5.264,0,0,1-1.264,3.633,4.5128,4.5128,0,0,1-3.516,1.461,4.29105,4.29105,0,0,1-3.365-1.401,5.10251,5.10251,0,0,1-1.254-3.534,5.21226,5.21226,0,0,1,1.293-3.652,4.47487,4.47487,0,0,1,3.484-1.422,4.38237,4.38237,0,0,1,3.396,1.402A5.04448,5.04448,0,0,1,105.69119,26.627Zm-2.212.069a4.31629,4.31629,0,0,0-.572-2.277,2.10594,2.10594,0,0,0-1.914-1.148,2.1379,2.1379,0,0,0-1.955,1.148,4.39912,4.39912,0,0,0-.572,2.317,4.31018,4.31018,0,0,0,.572,2.276,2.179,2.179,0,0,0,3.85-.02A4.33177,4.33177,0,0,0,103.47918,26.696Z"/>
        <path class="cls-2" d="M112.6212,23.783a3.702,3.702,0,0,0-.672-.059,2.01445,2.01445,0,0,0-1.738.85,3.19474,3.19474,0,0,0-.533,1.895v5.035h-2.131l.02-6.574q0-1.659-.08-3.021h1.857l.078,1.836h.059a3.28162,3.28162,0,0,1,1.066-1.52,2.57783,2.57783,0,0,1,1.541-.514,3.42309,3.42309,0,0,1,.533.039Z"/>
        <path class="cls-2" d="M122.15621,26.252a5.0004,5.0004,0,0,1-.078.967h-6.396a2.784,2.784,0,0,0,.928,2.173,3.16825,3.16825,0,0,0,2.092.671,7.07406,7.07406,0,0,0,2.588-.454l.334,1.48a8.001,8.001,0,0,1-3.217.593,4.66032,4.66032,0,0,1-3.506-1.313,4.84932,4.84932,0,0,1-1.273-3.524,5.49749,5.49749,0,0,1,1.186-3.613,4.08592,4.08592,0,0,1,3.355-1.539,3.576,3.576,0,0,1,3.141,1.539A5.18985,5.18985,0,0,1,122.15621,26.252Zm-2.033-.553a2.89642,2.89642,0,0,0-.414-1.639,1.86244,1.86244,0,0,0-1.699-.889,2.02252,2.02252,0,0,0-1.697.869,3.18145,3.18145,0,0,0-.631,1.658h4.441Z"/>
      </g>
      <g>
        <path class="cls-2" d="M49.05009,10.009a3.2828,3.2828,0,0,1-1.058,2.658,4.2082,4.2082,0,0,1-2.783.824,12.90331,12.90331,0,0,1-1.533-.078V6.982a11.31266,11.31266,0,0,1,1.805-.136,3.89109,3.89109,0,0,1,2.59.747A3.0188,3.0188,0,0,1,49.05009,10.009Zm-1.105.029a2.39,2.39,0,0,0-.606-1.756,2.38877,2.38877,0,0,0-1.771-.611,4.43527,4.43527,0,0,0-.844.068v4.889a5.53318,5.53318,0,0,0,.708.029,2.47892,2.47892,0,0,0,1.857-.669A2.67915,2.67915,0,0,0,47.94508,10.038Z"/>
        <path class="cls-2" d="M54.9091,11.037a2.58565,2.58565,0,0,1-.621,1.785,2.21642,2.21642,0,0,1-1.727.718,2.10668,2.10668,0,0,1-1.654-.689,2.50934,2.50934,0,0,1-.615-1.736,2.56052,2.56052,0,0,1,.635-1.794,2.20242,2.20242,0,0,1,1.712-.698,2.15588,2.15588,0,0,1,1.669.688A2.4889,2.4889,0,0,1,54.9091,11.037Zm-1.087.034a2.13215,2.13215,0,0,0-.281-1.119,1.03493,1.03493,0,0,0-.94-.564,1.05126,1.05126,0,0,0-.961.564,2.16057,2.16057,0,0,0-.281,1.138,2.13215,2.13215,0,0,0,.281,1.119,1.05765,1.05765,0,0,0,.951.564,1.04568,1.04568,0,0,0,.94-.574A2.11864,2.11864,0,0,0,53.82209,11.071Z"/>
        <path class="cls-2" d="M62.76511,8.719l-1.475,4.714h-.96l-.611-2.047a15.3216,15.3216,0,0,1-.379-1.523h-.019a11.14961,11.14961,0,0,1-.379,1.523l-.649,2.047h-.971l-1.387-4.714h1.077l.533,2.241q.1935.795.32,1.513h.019q.117-.591.389-1.503l.669-2.25h.854l.641,2.202q.2325.8055.378,1.552h.029a14.82867,14.82867,0,0,1,.32-1.552l.572-2.202h1.029Z"/>
        <path class="cls-2" d="M68.19812,13.433h-1.048v-2.7q0-1.248-.95-1.248a.94576.94576,0,0,0-.757.343,1.2171,1.2171,0,0,0-.291.808v2.796h-1.048V10.066q0-.621-.038-1.349h.921l.049.737h.029a1.51413,1.51413,0,0,1,.543-.569,1.77128,1.77128,0,0,1,.95-.265,1.50437,1.50437,0,0,1,1.097.427,2.0747,2.0747,0,0,1,.543,1.562Z"/>
        <path class="cls-2" d="M71.08812,13.433h-1.047V6.556h1.047Z"/>
        <path class="cls-2" d="M77.25814,11.037a2.58564,2.58564,0,0,1-.621,1.785,2.21787,2.21787,0,0,1-1.727.718,2.10382,2.10382,0,0,1-1.654-.689,2.50932,2.50932,0,0,1-.615-1.736,2.56051,2.56051,0,0,1,.635-1.794,2.2017,2.2017,0,0,1,1.711-.698,2.158,2.158,0,0,1,1.67.688A2.48894,2.48894,0,0,1,77.25814,11.037Zm-1.088.034a2.13215,2.13215,0,0,0-.281-1.119,1.03346,1.03346,0,0,0-.939-.564,1.04918,1.04918,0,0,0-.961.564,2.16054,2.16054,0,0,0-.281,1.138,2.13215,2.13215,0,0,0,.281,1.119,1.05764,1.05764,0,0,0,.951.564,1.04424,1.04424,0,0,0,.939-.574A2.1096,2.1096,0,0,0,76.17013,11.071Z"/>
        <path class="cls-2" d="M82.33015,13.433h-.941l-.078-.543h-.029a1.61389,1.61389,0,0,1-1.377.65,1.42107,1.42107,0,0,1-1.076-.427,1.33886,1.33886,0,0,1-.369-.96,1.46452,1.46452,0,0,1,.723-1.319,3.75233,3.75233,0,0,1,2.033-.446V10.3q0-.9315-.979-.931a2.19248,2.19248,0,0,0-1.229.349l-.213-.688a3.023,3.023,0,0,1,1.617-.407q1.848,0,1.85,1.95v1.736A7.3628,7.3628,0,0,0,82.33015,13.433Zm-1.088-1.62v-.727q-1.734-.03-1.734.95a.71008.71008,0,0,0,.201.553.73307.73307,0,0,0,.512.184,1.0584,1.0584,0,0,0,.641-.218.89477.89477,0,0,0,.38-.742Z"/>
        <path class="cls-2" d="M88.28516,13.433h-.93l-.049-.757h-.029a1.56685,1.56685,0,0,1-1.514.864,1.77419,1.77419,0,0,1-1.416-.669,2.60636,2.60636,0,0,1-.562-1.736,2.73307,2.73307,0,0,1,.611-1.853,1.87858,1.87858,0,0,1,1.455-.66,1.41281,1.41281,0,0,1,1.328.64h.02V6.556h1.049v5.607Q88.24815,12.8515,88.28516,13.433Zm-1.086-1.988v-.786a1.54262,1.54262,0,0,0-.029-.33,1.19355,1.19355,0,0,0-.379-.635,1.03007,1.03007,0,0,0-.701-.257,1.07543,1.07543,0,0,0-.922.466,1.997,1.997,0,0,0-.336,1.193,1.8617,1.8617,0,0,0,.322,1.135,1.07867,1.07867,0,0,0,.916.465,1.00973,1.00973,0,0,0,.828-.388A1.2918,1.2918,0,0,0,87.19915,11.445Z"/>
        <path class="cls-2" d="M97.24817,11.037a2.58564,2.58564,0,0,1-.621,1.785,2.215,2.215,0,0,1-1.727.718,2.10953,2.10953,0,0,1-1.654-.689,2.50932,2.50932,0,0,1-.615-1.736,2.56051,2.56051,0,0,1,.635-1.794,2.20315,2.20315,0,0,1,1.713-.698,2.15372,2.15372,0,0,1,1.668.688A2.48894,2.48894,0,0,1,97.24817,11.037Zm-1.086.034a2.13215,2.13215,0,0,0-.281-1.119,1.0364,1.0364,0,0,0-.941-.564,1.05337,1.05337,0,0,0-.961.564,2.16054,2.16054,0,0,0-.281,1.138,2.13215,2.13215,0,0,0,.281,1.119,1.0709,1.0709,0,0,0,1.892-.01A2.12769,2.12769,0,0,0,96.16217,11.071Z"/>
        <path class="cls-2" d="M102.88318,13.433h-1.047v-2.7q0-1.248-.951-1.248a.94237.94237,0,0,0-.756.343,1.212,1.212,0,0,0-.291.808v2.796h-1.049V10.066q0-.621-.037-1.349h.92l.049.737h.029a1.52964,1.52964,0,0,1,.543-.569,1.77472,1.77472,0,0,1,.951-.265,1.50365,1.50365,0,0,1,1.096.427,2.07081,2.07081,0,0,1,.543,1.562Z"/>
        <path class="cls-2" d="M109.93619,9.504h-1.154v2.29c0,.582.205.873.611.873a1.8457,1.8457,0,0,0,.467-.049l.027.795a2.35458,2.35458,0,0,1-.814.117,1.25285,1.25285,0,0,1-.969-.378,1.84882,1.84882,0,0,1-.35-1.271V9.504h-.689V8.719h.689V7.855l1.027-.31V8.718h1.154v.786Z"/>
        <path class="cls-2" d="M115.48421,13.433h-1.049v-2.68q0-1.2675-.949-1.268a1.00036,1.00036,0,0,0-1,.735,1.31693,1.31693,0,0,0-.049.377v2.835h-1.047V6.556h1.047V9.397h.02a1.58418,1.58418,0,0,1,1.416-.775,1.46051,1.46051,0,0,1,1.078.427,2.14682,2.14682,0,0,1,.533,1.581Z"/>
        <path class="cls-2" d="M121.20721,10.853a2.53078,2.53078,0,0,1-.039.475h-3.143a1.37447,1.37447,0,0,0,.455,1.067,1.56119,1.56119,0,0,0,1.029.33,3.47208,3.47208,0,0,0,1.271-.223l.164.728a3.94682,3.94682,0,0,1-1.582.291,2.28481,2.28481,0,0,1-1.721-.645,2.37613,2.37613,0,0,1-.625-1.731,2.69785,2.69785,0,0,1,.582-1.775,2.00423,2.00423,0,0,1,1.648-.756,1.75332,1.75332,0,0,1,1.541.756A2.51671,2.51671,0,0,1,121.20721,10.853Zm-1-.271a1.41092,1.41092,0,0,0-.203-.805.91532.91532,0,0,0-.834-.437.995.995,0,0,0-.834.427,1.58639,1.58639,0,0,0-.311.815Z"/>
      </g>
    </g>
  </g>
</svg>
