<svg id="Layer_1" data-name="Layer 1" xmlns="http://www.w3.org/2000/svg" viewBox="0 0 286.5 229.85"><defs><style>.cls-1{fill:#abddf3;}.cls-2{fill:#fff;}.cls-2,.cls-3{stroke:#3d4752;stroke-miterlimit:10;stroke-width:3px;}.cls-3{fill:none;}</style></defs><title>erd-feature</title><rect class="cls-1" x="23.18" y="189.14" width="105.08" height="15.01"/><rect class="cls-2" x="23.18" y="189.14" width="105.08" height="39.22" rx="0.94" ry="0.94"/><rect class="cls-1" x="23.18" y="1.5" width="105.08" height="15.01"/><rect class="cls-2" x="23.18" y="1.5" width="105.08" height="74.12" rx="0.94" ry="0.94"/><line class="cls-3" x1="23.18" y1="16.51" x2="128.26" y2="16.51"/><line class="cls-3" x1="75.72" y1="16.51" x2="75.72" y2="75.62"/><rect class="cls-1" x="23.18" y="101.06" width="105.08" height="15.01"/><rect class="cls-2" x="23.18" y="101.06" width="105.08" height="63.48" rx="0.94" ry="0.94"/><line class="cls-3" x1="23.18" y1="116.07" x2="128.26" y2="116.07"/><line class="cls-3" x1="75.72" y1="116.07" x2="75.72" y2="163.54"/><rect class="cls-1" x="179.92" y="112.58" width="105.08" height="15.01"/><path class="cls-2" d="M179.94,113.59a1,1,0,0,1,.94-.94h103.2a.93.93,0,0,1,.94.94v50a.93.93,0,0,1-.94.94H180.88a1,1,0,0,1-.94-.94Z" transform="translate(-0.02 -0.07)"/><line class="cls-3" x1="179.92" y1="127.59" x2="285" y2="127.59"/><line class="cls-3" x1="232.46" y1="127.59" x2="232.46" y2="164.43"/><rect class="cls-1" x="179.7" y="47.77" width="105.08" height="15.01"/><path class="cls-2" d="M179.72,48.78a.93.93,0,0,1,.94-.94h103.2a1,1,0,0,1,.94.94V86.12a1,1,0,0,1-.94.94H180.66a.93.93,0,0,1-.94-.94Z" transform="translate(-0.02 -0.07)"/><line class="cls-3" x1="179.7" y1="62.78" x2="284.77" y2="62.78"/><line class="cls-3" x1="232.23" y1="62.78" x2="232.23" y2="86.99"/><line class="cls-3" x1="23.18" y1="204.15" x2="128.26" y2="204.15"/><line class="cls-3" x1="75.72" y1="204.15" x2="75.72" y2="228.35"/><path class="cls-3" d="M128.28,46.23h22.89A1.86,1.86,0,0,1,153,48.11V67.32a1.91,1.91,0,0,0,1.88,1.88h20.9" transform="translate(-0.02 -0.07)"/><path class="cls-3" d="M179.94,133.86h-25A1.86,1.86,0,0,1,153,132V71.07a1.86,1.86,0,0,1,1.88-1.88h24.79" transform="translate(-0.02 -0.07)"/><path class="cls-3" d="M23.21,34.45H3.4a1.86,1.86,0,0,0-1.88,1.88v84.1A1.88,1.88,0,0,0,3.4,122.3H23.21" transform="translate(-0.02 -0.07)"/><path class="cls-3" d="M23.21,157.73H3.4a1.86,1.86,0,0,0-1.88,1.88v49a1.86,1.86,0,0,0,1.88,1.88H23.21" transform="translate(-0.02 -0.07)"/><path class="cls-3" d="M128.28,210.53h23.53a1.88,1.88,0,0,0,1.88-1.88v-49.2a1.86,1.86,0,0,1,1.88-1.88h24.16" transform="translate(-0.02 -0.07)"/><line class="cls-2" x1="12.34" y1="34.37" x2="23.18" y2="28.38"/><line class="cls-2" x1="23.18" y1="40.36" x2="12.34" y2="34.37"/><line class="cls-2" x1="12.34" y1="28.36" x2="12.34" y2="40.39"/><line class="cls-2" x1="12.34" y1="157.5" x2="23.18" y2="151.51"/><line class="cls-2" x1="23.18" y1="163.49" x2="12.34" y2="157.5"/><line class="cls-2" x1="12.34" y1="151.49" x2="12.34" y2="163.51"/><line class="cls-2" x1="169.08" y1="157.5" x2="179.92" y2="151.51"/><line class="cls-2" x1="179.92" y1="163.49" x2="169.08" y2="157.5"/><line class="cls-2" x1="169.08" y1="151.49" x2="169.08" y2="163.51"/><line class="cls-2" x1="169.08" y1="133.81" x2="179.92" y2="127.82"/><line class="cls-2" x1="179.92" y1="139.8" x2="169.08" y2="133.81"/><line class="cls-2" x1="169.08" y1="127.8" x2="169.08" y2="139.82"/><line class="cls-2" x1="139.1" y1="46.06" x2="128.26" y2="40.07"/><line class="cls-2" x1="128.26" y1="52.05" x2="139.1" y2="46.06"/><line class="cls-2" x1="139.1" y1="40.05" x2="139.1" y2="52.08"/><line class="cls-2" x1="12.34" y1="116.21" x2="12.34" y2="128.24"/><line class="cls-2" x1="17.76" y1="116.21" x2="17.76" y2="128.24"/><line class="cls-2" x1="12.34" y1="204.44" x2="12.34" y2="216.47"/><line class="cls-2" x1="17.76" y1="204.44" x2="17.76" y2="216.47"/><line class="cls-2" x1="133.68" y1="204.44" x2="133.68" y2="216.47"/><line class="cls-2" x1="139.1" y1="204.44" x2="139.1" y2="216.47"/><line class="cls-2" x1="169.08" y1="63.16" x2="169.08" y2="75.19"/><line class="cls-2" x1="174.5" y1="63.16" x2="174.5" y2="75.19"/></svg>