<svg xmlns="http://www.w3.org/2000/svg" xmlns:xlink="http://www.w3.org/1999/xlink" viewBox="0 0 134.99956 40">
  <defs>
    <style>
      .cls-1 {
        fill: #a3a3a3;
      }

      .cls-10, .cls-2, .cls-3 {
        fill: #fff;
      }

      .cls-2 {
        stroke: #fff;
        stroke-miterlimit: 10;
        stroke-width: 0.2px;
      }

      .cls-4 {
        fill: url(#linear-gradient);
      }

      .cls-5 {
        fill: url(#linear-gradient-2);
      }

      .cls-6 {
        fill: url(#linear-gradient-3);
      }

      .cls-7 {
        fill: url(#linear-gradient-4);
      }

      .cls-8 {
        opacity: 0.2;
      }

      .cls-10, .cls-8, .cls-9 {
        isolation: isolate;
      }

      .cls-9 {
        opacity: 0.12;
      }

      .cls-10 {
        opacity: 0.25;
      }
    </style>
    <linearGradient id="linear-gradient" x1="21.79955" y1="2657.78968" x2="5.01723" y2="2641.00736" gradientTransform="matrix(1, 0, 0, -1, 0, 2666.49945)" gradientUnits="userSpaceOnUse">
      <stop offset="0" stop-color="#009dff"/>
      <stop offset="0.00657" stop-color="#009eff"/>
      <stop offset="0.2601" stop-color="#0bf"/>
      <stop offset="0.5122" stop-color="#00cfff"/>
      <stop offset="0.7604" stop-color="#00dcff"/>
      <stop offset="1" stop-color="#00e0ff"/>
    </linearGradient>
    <linearGradient id="linear-gradient-2" x1="33.83417" y1="2646.498" x2="9.63735" y2="2646.498" gradientTransform="matrix(1, 0, 0, -1, 0, 2666.49945)" gradientUnits="userSpaceOnUse">
      <stop offset="0" stop-color="#fd0"/>
      <stop offset="0.4087" stop-color="#ffba00"/>
      <stop offset="0.7754" stop-color="#ffa200"/>
      <stop offset="1" stop-color="#f90"/>
    </linearGradient>
    <linearGradient id="linear-gradient-3" x1="24.82676" y1="2644.20337" x2="2.06858" y2="2621.44518" gradientTransform="matrix(1, 0, 0, -1, 0, 2666.49945)" gradientUnits="userSpaceOnUse">
      <stop offset="0" stop-color="#ff3a44"/>
      <stop offset="1" stop-color="#c01162"/>
    </linearGradient>
    <linearGradient id="linear-gradient-4" x1="7.29721" y1="2666.32319" x2="17.45969" y2="2656.1607" gradientTransform="matrix(1, 0, 0, -1, 0, 2666.49945)" gradientUnits="userSpaceOnUse">
      <stop offset="0" stop-color="#329d71"/>
      <stop offset="0.0685" stop-color="#2da471"/>
      <stop offset="0.4762" stop-color="#15cc74"/>
      <stop offset="0.8009" stop-color="#06e475"/>
      <stop offset="1" stop-color="#00ed76"/>
    </linearGradient>
  </defs>
  <title>facebook</title>
  <g id="artwork">
    <g>
      <rect width="134.99956" height="39.9998" rx="4.99998" ry="4.99998"/>
      <path class="cls-1" d="M129.99958.8a4.20475,4.20475,0,0,1,4.19989,4.20018V35a4.20481,4.20481,0,0,1-4.19989,4.20018H5A4.20483,4.20483,0,0,1,.8,35V5.00017A4.20477,4.20477,0,0,1,5,.8H129.99958m0-.7998H5a5.01468,5.01468,0,0,0-5,5V35a5.01468,5.01468,0,0,0,5,5H129.99958a5.01468,5.01468,0,0,0,5-5V5.00017a5.01468,5.01468,0,0,0-5-5Z"/>
      <g>
        <path class="cls-2" d="M47.41825,10.24325a2.70753,2.70753,0,0,1-.7452,2.00289,2.90882,2.90882,0,0,1-2.20409.8877,3.08973,3.08973,0,0,1-3.11709-3.13378A3.09057,3.09057,0,0,1,44.469,6.86577a3.09506,3.09506,0,0,1,1.2315.2515,2.475,2.475,0,0,1,.9385.6704l-.5274.5278a2.02625,2.02625,0,0,0-1.64259-.7119,2.31928,2.31928,0,0,0-2.33,2.39649,2.35911,2.35911,0,0,0,4.00579,1.72659,1.88815,1.88815,0,0,0,.5029-1.21539H44.469v-.7207h2.90729A2.54291,2.54291,0,0,1,47.41825,10.24325Z"/>
        <path class="cls-2" d="M52.02753,7.73736H49.29514V9.63965H51.759v.7208H49.29514v1.90229h2.73239V13H48.52464v-6h3.50289Z"/>
        <path class="cls-2" d="M55.27852,13H54.507V7.73736H52.83123v-.7373h4.12309v.7373H55.27852Z"/>
        <path class="cls-2" d="M59.93771,13v-6h.7705v6Z"/>
        <path class="cls-2" d="M64.12809,13h-.7715V7.73736H61.6809v-.7373h4.123v.7373H64.12809Z"/>
        <path class="cls-2" d="M73.60906,12.22464a3.11555,3.11555,0,0,1-4.39939,0,3.06731,3.06731,0,0,1-.8838-2.22459,3.06731,3.06731,0,0,1,.8838-2.22459,3.10492,3.10492,0,0,1,4.39549.0039,3.06769,3.06769,0,0,1,.8877,2.22069A3.07176,3.07176,0,0,1,73.60906,12.22464Zm-3.83009-.5024a2.307,2.307,0,0,0,3.25979,0,2.34836,2.34836,0,0,0,.667-1.72219,2.34836,2.34836,0,0,0-.667-1.72219,2.307,2.307,0,0,0-3.25979,0,2.3512,2.3512,0,0,0-.666,1.72219A2.3512,2.3512,0,0,0,69.779,11.72224Z"/>
        <path class="cls-2" d="M75.57486,13v-6h.9385l2.916,4.66748h.0332l-.0332-1.15629V7.00007h.7715v6h-.8047L76.34535,8.10646h-.0332l.0332,1.15629V13Z"/>
      </g>
      <path class="cls-3" d="M68.13558,21.75159a4.25316,4.25316,0,1,0,4.26929,4.25308A4.1922,4.1922,0,0,0,68.13558,21.75159Zm0,6.83077A2.58418,2.58418,0,1,1,70.536,26.00467,2.46059,2.46059,0,0,1,68.13558,28.58236Zm-9.31337-6.83077a4.25316,4.25316,0,1,0,4.26919,4.25308A4.1922,4.1922,0,0,0,58.82221,21.75159Zm0,6.83077a2.58418,2.58418,0,1,1,2.40039-2.57769A2.46053,2.46053,0,0,1,58.82221,28.58236ZM47.74345,23.05658v1.80429h4.31769a3.76577,3.76577,0,0,1-.9828,2.27159,4.42018,4.42018,0,0,1-3.33489,1.321,4.80132,4.80132,0,0,1,0-9.60175,4.60186,4.60186,0,0,1,3.25439,1.28879l1.2727-1.27269a6.29434,6.29434,0,0,0-4.52709-1.82049,6.606,6.606,0,1,0,0,13.21053A6.03872,6.03872,0,0,0,52.351,28.40516a5.962,5.962,0,0,0,1.56279-4.22088,5.87157,5.87157,0,0,0-.0968-1.12769ZM93.0516,24.45808a3.95283,3.95283,0,0,0-3.641-2.70649,4.04194,4.04194,0,0,0-4.01139,4.25308,4.162,4.162,0,0,0,4.22089,4.25318A4.23055,4.23055,0,0,0,93.1643,28.373l-1.4499-.9666a2.429,2.429,0,0,1-2.09429,1.176,2.16353,2.16353,0,0,1-2.06219-1.28879L93.245,24.94148Zm-5.79968,1.41779a2.3327,2.3327,0,0,1,2.22309-2.481,1.647,1.647,0,0,1,1.57889.9022Zm-4.62379,4.12418h1.86879V17.49851H82.62813Zm-3.061-7.298h-.0644a2.94735,2.94735,0,0,0-2.23939-.9505,4.257,4.257,0,0,0,0,8.50626,2.89973,2.89973,0,0,0,2.23939-.9666h.0644v.6122c0,1.62719-.8699,2.49709-2.27159,2.49709A2.35324,2.35324,0,0,1,75.153,30.88615l-1.62719.6767A4.05318,4.05318,0,0,0,77.29555,34.076c2.19109,0,4.04379-1.28879,4.04379-4.43038V22.00929H79.56714Zm-2.14259,5.88027a2.58689,2.58689,0,0,1,0-5.15527A2.39671,2.39671,0,0,1,79.696,26.02077,2.37676,2.37676,0,0,1,77.42455,28.58236Zm24.38092-11.08364H97.33428V30.00005H99.2V25.26367h2.60549a3.88831,3.88831,0,1,0,0-7.765Zm.0482,6.02517H99.2V19.2386h2.65369a2.1431,2.1431,0,1,1,0,4.28528Zm11.53166-1.79529a3.50341,3.50341,0,0,0-3.32929,1.91389l1.65659.6916a1.76793,1.76793,0,0,1,1.70479-.9168,1.79664,1.79664,0,0,1,1.96219,1.60829v.1287a4.12777,4.12777,0,0,0-1.94609-.4825c-1.7852,0-3.60259.9811-3.60259,2.81459a2.888,2.888,0,0,0,3.104,2.75019,2.63234,2.63234,0,0,0,2.38039-1.22229h.0643v.965h1.80129V25.18647C117.18092,22.967,115.52432,21.72859,113.38533,21.72859Zm-.2252,6.85137c-.6112,0-1.46359-.3055-1.46359-1.06149,0-.9649,1.06149-1.33489,1.97829-1.33489a3.32432,3.32432,0,0,1,1.70479.4182A2.26193,2.26193,0,0,1,113.16013,28.58Zm10.58277-6.578-2.13909,5.42h-.0644L119.32,22.002h-2.01039l3.32919,7.57516L118.741,33.79093h1.946L125.81759,22.002ZM106.936,30.00005h1.8656V17.49871H106.936Z"/>
      <g>
        <path class="cls-4" d="M10.43527,7.53806A2.00243,2.00243,0,0,0,9.97247,8.943v22.116a2.00156,2.00156,0,0,0,.4628,1.40489l.074.0721,12.389-12.38884v-.2923L10.50927,7.46546Z"/>
        <path class="cls-5" d="M27.02761,24.27848,22.89823,20.1471v-.2923l4.13039-4.13038.0931.0531,4.89278,2.78009c1.3976.794,1.3976,2.09319,0,2.88769l-4.89278,2.78009Z"/>
        <path class="cls-6" d="M27.12171,24.22488,22.89823,20.001l-12.463,12.46284a1.6267,1.6267,0,0,0,2.07809.0614l14.60835-8.30036"/>
        <path class="cls-7" d="M27.12171,15.777,12.51336,7.47666a1.6267,1.6267,0,0,0-2.07809.0614L22.89823,20.001Z"/>
        <g>
          <path class="cls-8" d="M27.02861,24.13188,12.51336,32.37914a1.66561,1.66561,0,0,1-2.00359.0107h0l-.0745.0745h0l.074.0721.0005-.0005a1.66486,1.66486,0,0,0,2.00359-.0107l14.60835-8.30036Z"/>
          <path class="cls-9" d="M10.43527,32.31824a2.00277,2.00277,0,0,1-.4628-1.40489v.1461a2.0026,2.0026,0,0,0,.4628,1.40489l.0745-.0745Z"/>
        </g>
        <path class="cls-9" d="M32.0145,21.29869l-4.98588,2.83319.0931.093,4.89278-2.78009a1.75479,1.75479,0,0,0,1.0483-1.44339h0A1.86228,1.86228,0,0,1,32.0145,21.29869Z"/>
        <path class="cls-10" d="M12.51336,7.62326,32.0145,18.70321a1.86128,1.86128,0,0,1,1.0483,1.29779h0a1.75364,1.75364,0,0,0-1.0483-1.44389L12.51336,7.47716c-1.3976-.7941-2.54089-.1345-2.54089,1.46629v.1461C9.97247,7.48886,11.11576,6.82927,12.51336,7.62326Z"/>
      </g>
    </g>
  </g>
</svg>
