<svg xmlns="http://www.w3.org/2000/svg" viewBox="0 0 17.64706 14.34118">
  <defs>
    <style>
      .cls-1 {
        fill: #fff;
      }
    </style>
  </defs>
  <title>facebook</title>
  <g id="artwork">
    <path class="cls-1" d="M17.64706,1.69779a7.22841,7.22841,0,0,1-2.07941.56985A3.6264,3.6264,0,0,0,17.15956.26471a7.25265,7.25265,0,0,1-2.29927.87868A3.62287,3.62287,0,0,0,8.69044,4.44485,10.27807,10.27807,0,0,1,1.22868.6625,3.62528,3.62528,0,0,0,2.34853,5.49632a3.60514,3.60514,0,0,1-1.639-.45294A3.62314,3.62314,0,0,0,3.61324,8.639a3.62888,3.62888,0,0,1-1.63529.06176,3.62317,3.62317,0,0,0,3.38235,2.514A7.27958,7.27958,0,0,1,0,12.71471a10.24934,10.24934,0,0,0,5.55,1.62647A10.23921,10.23921,0,0,0,15.84044,3.57206,7.37106,7.37106,0,0,0,17.64706,1.69779Z"/>
  </g>
</svg>
