<?xml version="1.0" encoding="UTF-8"?>
<svg width="72px" height="70px" viewBox="0 0 72 70" version="1.1" xmlns="http://www.w3.org/2000/svg" xmlns:xlink="http://www.w3.org/1999/xlink">
    <!-- Generator: Sketch 50.2 (55047) - http://www.bohemiancoding.com/sketch -->
    <title>5-kubernetes</title>
    <desc>Created with Sketch.</desc>
    <defs></defs>
    <g id="Symbols" stroke="none" stroke-width="1" fill="none" fill-rule="evenodd">
        <g id="MULTICLOUD---desktop" transform="translate(-957.000000, -318.000000)" fill-rule="nonzero">
            <g id="C" transform="translate(252.000000, 317.000000)">
                <g id="5-kubernetes" transform="translate(705.000000, 1.000000)">
                    <path d="M23.0864062,68.8876875 C21.4140938,68.8876875 19.834875,68.144625 18.7664062,66.7974375 L2.50875,46.5910313 C1.44028125,45.2438437 1.02234375,43.5254062 1.44028125,41.8528125 L7.2466875,16.62975 C7.61821875,14.9574375 8.73309375,13.61025 10.2661875,12.8671875 L33.7705312,1.625625 C34.513875,1.254375 35.3500312,1.06846875 36.1861875,1.06846875 C37.0223437,1.06846875 37.8582187,1.25409375 38.6015625,1.62590625 L62.1061875,12.8207813 C63.639,13.5638438 64.753875,14.9110313 65.1254062,16.5833438 L70.9318125,41.8064063 C71.303625,43.4787187 70.9318125,45.1974375 69.863625,46.544625 L53.6054063,66.7510312 C52.5369375,68.0515312 50.9577188,68.8412812 49.2854063,68.8412812 L23.0869688,68.8876875 L23.0864062,68.8876875 Z" id="Shape"></path>
                    <path d="M36.1392187,2.22975 C36.78975,2.22975 37.44,2.36896875 38.0438437,2.6476875 L61.5484687,13.8425625 C62.7561562,14.4464063 63.685125,15.5612813 63.9638437,16.8620625 L69.77025,42.085125 C70.095375,43.4323125 69.77025,44.8259063 68.8876875,45.8940938 L52.62975,66.1007813 C51.7935937,67.1689688 50.4928125,67.7728125 49.1459062,67.7728125 L23.0864062,67.7728125 C21.7392187,67.7728125 20.4387187,67.1689688 19.6025625,66.1007813 L3.344625,45.8940938 C2.50846875,44.8259063 2.1830625,43.4323125 2.4620625,42.085125 L8.26846875,16.8620625 C8.59359375,15.514875 9.47615625,14.4 10.6838437,13.8425625 L34.18875,2.6015625 C34.7925937,2.36925 35.48925,2.23003125 36.1395,2.23003125 L36.1392187,2.22975 Z M36.1392188,0.04640625 C35.1638438,0.04640625 34.1884687,0.27871875 33.2592188,0.69665625 L9.754875,11.9382188 C7.89665625,12.8207812 6.59615625,14.4464063 6.13153125,16.4438437 L0.325125,41.6671875 C-0.13921875,43.664625 0.325125,45.7084688 1.62590625,47.334375 L17.8838438,67.5407813 C19.1382188,69.12 21.0425625,70.0025625 23.04,70.0025625 L49.0992187,70.0025625 C51.0966563,70.0025625 53.0012813,69.12 54.255375,67.5407813 L70.5135937,47.3340938 C71.8140937,45.754875 72.2787187,43.664625 71.8140937,41.6669063 L66.0076875,16.4438438 C65.5433437,14.4464063 64.2425625,12.8207813 62.384625,11.9382188 L38.9728125,0.696375 C38.09025,0.27871875 37.114875,0.04640625 36.1392188,0.04640625 Z" id="Shape" fill="#FFFFFF"></path>
                    <path d="M59.69025,40.0876875 C59.6438437,40.0876875 59.6438437,40.0876875 59.69025,40.0876875 L59.6438437,40.0876875 C59.5974375,40.0876875 59.5510312,40.0876875 59.5510312,40.0412813 C59.4582187,40.0412813 59.3654062,39.994875 59.2723125,39.994875 C58.9471875,39.9484688 58.6684687,39.9020625 58.38975,39.9020625 C58.25025,39.9020625 58.1110312,39.9020625 57.925125,39.855375 L57.8787187,39.855375 C56.9033437,39.7625625 56.1135937,39.66975 55.37025,39.4374375 C55.045125,39.2979375 54.9523125,39.1123125 54.8592187,38.9264063 C54.8592187,38.88 54.8128125,38.88 54.8128125,38.8335937 L54.2089687,38.6479688 C54.4942644,36.4627942 54.3841356,34.2441177 53.8838437,32.0979375 C53.3766473,29.9339107 52.496399,27.8747635 51.2825625,26.0128125 L51.7471875,25.594875 L51.7471875,25.5020625 C51.7471875,25.26975 51.7935937,25.0374375 51.9792187,24.805125 C52.5366562,24.2940938 53.2335937,23.8761563 54.06975,23.365125 C54.2089687,23.2723125 54.3481875,23.2259062 54.4876875,23.1328125 C54.7664062,22.9935938 54.9987187,22.854375 55.2774375,22.6684688 C55.3238437,22.6220625 55.4166562,22.5756563 55.50975,22.4828438 C55.5561562,22.4361563 55.6025625,22.4361563 55.6025625,22.38975 C56.2528125,21.8323125 56.3923125,20.9033438 55.9276875,20.2992188 C55.695375,19.9740938 55.2774375,19.7884688 54.8592187,19.7884688 C54.4879687,19.7884688 54.1625625,19.9276875 53.8374375,20.16 L53.744625,20.2528125 C53.6518125,20.2992188 53.605125,20.3923125 53.5123125,20.4387188 C53.28,20.6710313 53.0940937,20.8566563 52.9084687,21.0889688 C52.8156562,21.1817813 52.7228437,21.3212813 52.5833437,21.4140938 C51.9328125,22.1110313 51.3289687,22.6684688 50.725125,23.0864063 C50.5859062,23.1792188 50.4466875,23.2259063 50.3071875,23.2259063 C50.214375,23.2259063 50.1212812,23.2259063 50.0284687,23.1792188 L49.9356562,23.1792188 L49.3779375,23.5510313 C48.7740937,22.9007813 48.1238437,22.3433438 47.4735937,21.7859063 C44.6735783,19.5972544 41.3038009,18.2589689 37.765125,17.93025 L37.7187187,17.3264063 L37.6259062,17.2335938 C37.4864062,17.0940938 37.3007812,16.954875 37.2540937,16.62975 C37.2076875,15.8864063 37.3007812,15.05025 37.3935937,14.1212813 L37.3935937,14.074875 C37.3935937,13.935375 37.44,13.74975 37.4864062,13.61025 C37.5328125,13.3318125 37.5792187,13.0528125 37.6259062,12.7276875 L37.6259062,12.30975 C37.6259062,11.4735938 36.975375,10.7769375 36.1859062,10.7769375 C35.8140937,10.7769375 35.4425625,10.9625625 35.1638437,11.2412813 C34.8854062,11.52 34.7459062,11.8915313 34.7459062,12.30975 L34.7459062,12.6812813 C34.7459062,13.0064063 34.7923125,13.285125 34.885125,13.5638438 C34.9315312,13.7033438 34.9315312,13.8425625 34.9779375,14.0284688 L34.9779375,14.074875 C35.07075,15.0038438 35.21025,15.84 35.1174375,16.5833438 C35.0710312,16.9084688 34.885125,17.0476875 34.7459062,17.1871875 L34.6530937,17.28 L34.6064062,17.8838438 C33.77025,17.9766563 32.9340937,18.0694687 32.0979375,18.255375 C28.5212812,19.045125 25.3625625,20.8569375 22.9007812,23.4579375 L22.4361562,23.1328125 L22.3433437,23.1328125 C22.2505312,23.1328125 22.1574375,23.1792188 22.064625,23.1792188 C21.925125,23.1792188 21.7859062,23.1328125 21.6464062,23.04 C21.0425625,22.6220625 20.4387187,22.0179375 19.7884687,21.3212813 C19.6956562,21.2284688 19.6028437,21.0889688 19.4633437,20.9961562 C19.2774375,20.7638437 19.0915312,20.5779375 18.8592187,20.3459062 C18.8128125,20.2992188 18.72,20.2530938 18.6271875,20.16 C18.5807812,20.1135937 18.534375,20.1135937 18.534375,20.0671875 C18.2465731,19.8294189 17.8856171,19.698108 17.5123125,19.695375 C17.0940937,19.695375 16.6761562,19.8812813 16.4438437,20.2064063 C15.9792187,20.81025 16.1187187,21.7392188 16.7689687,22.2966563 C16.815375,22.2966563 16.815375,22.3433438 16.8617812,22.3433438 C16.9545937,22.38975 17.0012812,22.4825625 17.0940937,22.5289688 C17.3728125,22.7145937 17.605125,22.8540938 17.8838437,22.9935938 C18.0233437,23.04 18.1625625,23.1328125 18.3020625,23.2259062 C19.1379375,23.7366563 19.834875,24.154875 20.3923125,24.6659063 C20.624625,24.8979375 20.624625,25.13025 20.624625,25.3625625 L20.624625,25.455375 L21.0889687,25.8735938 C20.9961562,26.0128125 20.9033437,26.1059063 20.8566562,26.245125 C18.5340937,29.914875 17.6515312,34.234875 18.255375,38.5084687 L17.6515312,38.6940938 C17.6515312,38.7407812 17.605125,38.7407812 17.605125,38.7869063 C17.5123125,38.9728125 17.3728125,39.1587187 17.0940937,39.2979375 C16.3974375,39.53025 15.5612812,39.6233438 14.5859062,39.7161563 L14.5392187,39.7161563 C14.4,39.7161563 14.2140937,39.7161563 14.074875,39.7625625 C13.7961562,39.7625625 13.5174375,39.8089687 13.1923125,39.855375 C13.0995,39.855375 13.0066875,39.9020625 12.9135937,39.9020625 C12.8671875,39.9020625 12.8207812,39.9020625 12.7740937,39.9484688 C11.9379375,40.1340937 11.4269062,40.9238437 11.5664062,41.6669063 C11.7059062,42.3174375 12.30975,42.7356563 13.0528125,42.7356563 C13.1923125,42.7356563 13.285125,42.7356563 13.424625,42.6889688 C13.4710312,42.6889688 13.5174375,42.6889688 13.5174375,42.6425625 C13.61025,42.6425625 13.7030625,42.5961563 13.795875,42.5961563 C14.1212812,42.5033438 14.3535937,42.4105313 14.6323125,42.2710313 C14.7715312,42.224625 14.91075,42.1315313 15.05025,42.0854063 L15.0966562,42.0854063 C15.9792187,41.76 16.7689687,41.4812813 17.5123125,41.3884688 L17.605125,41.3884688 C17.8838437,41.3884688 18.06975,41.5276875 18.2089687,41.6207813 C18.255375,41.6207813 18.255375,41.6671875 18.3017812,41.6671875 L18.9523125,41.574375 C20.0671875,45.0115313 22.2038437,48.0774375 25.0374375,50.3071875 C25.6876875,50.8179375 26.3379375,51.2361563 27.034875,51.654375 L26.7561562,52.2579375 C26.7561562,52.304625 26.8025625,52.304625 26.8025625,52.35075 C26.895375,52.5366563 26.9881875,52.7689688 26.895375,53.0940938 C26.6169375,53.7910313 26.1987187,54.4876875 25.6876875,55.2774375 L25.6876875,55.3238438 C25.594875,55.4633438 25.5020625,55.5561563 25.40925,55.695375 C25.2233437,55.9276875 25.0838437,56.16 24.8979375,56.4387188 C24.8515312,56.485125 24.805125,56.5779375 24.7587187,56.6710313 C24.7587187,56.7174375 24.7123125,56.7638438 24.7123125,56.7638438 C24.3407812,57.5535938 24.6195,58.4361563 25.3161562,58.7612813 C25.5017812,58.8540938 25.6876875,58.9007813 25.8735937,58.9007813 C26.4310312,58.9007813 26.9884687,58.5289688 27.2671875,58.0179375 C27.2671875,57.9715313 27.3135937,57.925125 27.3135937,57.925125 C27.36,57.8323125 27.4064062,57.7395 27.4528125,57.6928125 C27.5923125,57.3676875 27.6387187,57.135375 27.7315312,56.8566563 L27.8710312,56.4387188 C28.1961562,55.50975 28.4284687,54.7664063 28.8464062,54.1161563 C29.0320312,53.8374375 29.264625,53.7910313 29.45025,53.6979375 C29.4966562,53.6979375 29.4966562,53.6979375 29.5430625,53.6515313 L29.8684687,53.0476875 C31.9123125,53.8374375 34.1420625,54.255375 36.3715312,54.255375 C37.7187187,54.255375 39.1123125,54.1161563 40.4130937,53.7910313 C41.231629,53.6080011 42.0382491,53.3752572 42.8284687,53.0940938 L43.1069062,53.605125 C43.1535937,53.605125 43.1535937,53.605125 43.2,53.6515313 C43.4323125,53.6979375 43.6179375,53.7910313 43.8038437,54.06975 C44.175375,54.72 44.4540937,55.50975 44.7792187,56.3923125 L44.7792187,56.4387188 L44.9187187,56.8566563 C45.0115312,57.135375 45.0579375,57.4140938 45.1971562,57.6928125 C45.2438437,57.785625 45.29025,57.8323125 45.3366562,57.925125 C45.3366562,57.9715313 45.3833437,58.0179375 45.3833437,58.0179375 C45.6617812,58.575375 46.2192187,58.9007813 46.7766562,58.9007813 C46.9625625,58.9007813 47.1484687,58.8540938 47.3340937,58.7612813 C47.6592187,58.5756563 47.9379375,58.2966563 48.0310312,57.925125 C48.1238437,57.5535938 48.1238437,57.135375 47.9382187,56.7638438 C47.9382187,56.7174375 47.8915312,56.7174375 47.8915312,56.6710313 C47.845125,56.5782188 47.7987187,56.4854063 47.7523125,56.4387188 C47.6128125,56.16 47.4271875,55.9276875 47.2412812,55.695375 C47.1484687,55.5561563 47.0556562,55.4633438 46.9628437,55.324125 L46.9628437,55.2774375 C46.4515312,54.4876875 45.9869062,53.7910313 45.754875,53.0940938 C45.6620625,52.7689688 45.754875,52.5833438 45.8012812,52.3510313 C45.8012812,52.304625 45.8476875,52.304625 45.8476875,52.2582188 L45.615375,51.7007813 C48.0774375,50.2607813 50.1676875,48.2166562 51.7471875,45.7084688 C52.5833437,44.4076875 53.2335937,42.9676875 53.6979375,41.5276875 L54.255375,41.6205 C54.3020625,41.6205 54.3020625,41.5740938 54.3481875,41.5740938 C54.5340937,41.4812813 54.6735937,41.3420625 54.9523125,41.3420625 L55.045125,41.3420625 C55.7884687,41.434875 56.5779375,41.7133125 57.4607812,42.0387188 L57.5071875,42.0387188 C57.6464062,42.085125 57.785625,42.1779375 57.925125,42.2243438 C58.2038437,42.3638438 58.4361562,42.4566563 58.7612812,42.54975 C58.8540937,42.54975 58.9469062,42.5961563 59.04,42.5961563 C59.0864062,42.5961563 59.1328125,42.5961563 59.1792187,42.6425625 C59.3187187,42.6889688 59.4115312,42.6889688 59.5510312,42.6889688 C60.2476875,42.6889688 60.8515312,42.224625 61.0374375,41.6207813 C61.0374375,41.0633438 60.5264062,40.32 59.69025,40.0879688 L59.69025,40.0876875 Z M38.1830625,37.8115313 L36.1392187,38.7871875 L34.095375,37.8115313 L33.584625,35.6284688 L34.9779375,33.8633438 L37.2540937,33.8633438 L38.6476875,35.6284688 L38.1833437,37.8115313 L38.1830625,37.8115313 Z M50.3071875,32.9807813 C50.66752,34.5168143 50.7773097,36.1009766 50.6323125,37.6720312 L43.525125,35.6284688 C42.874875,35.4428438 42.5033437,34.7923125 42.6425625,34.1420625 C42.6889687,33.9561562 42.7820625,33.77025 42.9212812,33.6310312 L48.5420625,28.5676875 C49.3315312,29.8684688 49.935375,31.354875 50.3071875,32.9805 L50.3071875,32.9807813 Z M46.3123125,25.7807812 L40.2271875,30.1007813 C39.7161562,30.4259063 39.0192188,30.3328125 38.6012812,29.8220625 C38.4620625,29.6825625 38.4156562,29.4966563 38.3689687,29.3110313 L37.9510312,21.7392187 C41.1145663,22.1035015 44.061612,23.5280044 46.3123125,25.7807812 Z M32.8412812,21.97125 C33.3523125,21.8784375 33.8166562,21.785625 34.3276875,21.6928125 L33.90975,29.1248438 C33.8633437,29.7750938 33.3523125,30.3325313 32.655375,30.3325313 C32.46975,30.3325313 32.2374375,30.286125 32.0979375,30.1933125 L25.92,25.7807813 C27.824625,23.8761563 30.1935937,22.575375 32.8412812,21.9715312 L32.8412812,21.97125 Z M23.69025,28.5674063 L29.2179375,33.49125 C29.7289687,33.9094688 29.775375,34.6989375 29.3574375,35.2099688 C29.2179375,35.3955938 29.0323125,35.5350938 28.8,35.5817813 L21.6,37.6720313 C21.3212812,34.5133125 22.0179375,31.3081875 23.69025,28.5674063 Z M22.435875,41.155875 L29.8220625,39.9015 C30.4259062,39.8550938 30.9833437,40.2733125 31.1225625,40.8771562 C31.1689687,41.1555938 31.1689687,41.3881875 31.0761562,41.6205 L28.2425625,48.4486875 C25.6412812,46.776375 23.5510312,44.2215 22.4361562,41.155875 L22.435875,41.155875 Z M39.3910312,50.3997188 C38.3225625,50.6320312 37.2540937,50.77125 36.1392187,50.77125 C34.5135937,50.77125 32.9340937,50.4928125 31.4479687,50.0281875 L35.1174375,43.385625 C35.4889687,42.9674063 36.0928125,42.7817813 36.6038437,43.0605 C36.8207373,43.193365 37.0099994,43.3667757 37.1612812,43.57125 L40.7379375,50.0281875 C40.32,50.1674063 39.855375,50.2605 39.39075,50.3997188 L39.3910312,50.3997188 Z M48.4489687,43.9430625 C47.2876875,45.801 45.7545937,47.2874063 43.98975,48.4486875 L41.0633438,41.4343125 C40.9238437,40.8771563 41.1561563,40.2733125 41.7135938,39.9943125 C41.8992188,39.9015 42.1315313,39.8550938 42.3638438,39.8550938 L49.7961563,41.1094688 C49.5174375,42.13125 49.0528125,43.0605 48.4489687,43.9430625 Z" id="Shape" fill="#FFFFFF"></path>
                </g>
            </g>
        </g>
    </g>
</svg>