<?xml version="1.0" encoding="UTF-8"?>
<svg width="58px" height="72px" viewBox="0 0 58 72" version="1.1" xmlns="http://www.w3.org/2000/svg" xmlns:xlink="http://www.w3.org/1999/xlink">
    <!-- Generator: Sketch 50.2 (55047) - http://www.bohemiancoding.com/sketch -->
    <title>6-privatedb</title>
    <desc>Created with Sketch.</desc>
    <defs></defs>
    <g id="Symbols" stroke="none" stroke-width="1" fill="none" fill-rule="evenodd">
        <g id="MULTICLOUD---desktop" transform="translate(-1128.000000, -317.000000)" fill="#FFFFFF">
            <g id="C" transform="translate(252.000000, 317.000000)">
                <path d="M904.718531,0 L878.797507,11.4473475 L878.797507,55.8401176 L876,57.1513887 L904.718531,72 L933.437767,57.1513887 L930.640965,55.8401176 L930.640965,11.4473475 L904.718531,0 Z M885.627627,11.6977517 L904.718531,3.18471712 L923.810844,11.6977517 L904.718531,20.2538134 L885.627627,11.6977517 Z M923.810844,21.3323145 L928.386595,18.9665246 L928.386595,51.7574724 L923.810844,54.1232623 L923.810844,21.3323145 Z M884.784707,26.7163556 L884.784707,22.1392506 L889.360458,24.5057458 L889.360458,29.0821455 L884.784707,26.7163556 Z M916.148384,25.5644967 L920.725546,23.1987068 L920.725546,55.9896547 L916.148384,58.3561499 L916.148384,25.5644967 Z M892.181947,30.5965614 L892.181947,26.0201616 L896.757698,28.3859515 L896.757698,32.9630566 L892.181947,30.5965614 Z M908.487335,29.7966789 L913.063791,27.4308891 L913.063791,60.2225422 L908.487335,62.5883321 L908.487335,29.7966789 Z M884.784707,35.8860838 L884.784707,31.3089787 L889.360458,33.6747686 L889.360458,38.2518736 L884.784707,35.8860838 Z M892.181947,39.7662895 L892.181947,35.1898898 L896.757698,37.5556796 L896.757698,42.1327847 L892.181947,39.7662895 Z M884.784707,45.0551065 L884.784707,40.4787068 L889.360458,42.8444967 L889.360458,47.4216018 L884.784707,45.0551065 Z M892.181947,48.9360176 L892.181947,44.3596179 L896.757698,46.7261132 L896.757698,51.3025129 L892.181947,48.9360176 Z M884.784707,54.2248347 L884.784707,49.648435 L889.360458,52.0149302 L889.360458,56.5913299 L884.784707,54.2248347 Z M892.181947,58.1057458 L892.181947,53.5293461 L896.757698,55.8951359 L896.757698,60.4715356 L892.181947,58.1057458 Z" id="6-privatedb"></path>
            </g>
        </g>
    </g>
</svg>