<?xml version="1.0" encoding="UTF-8"?>
<svg width="71px" height="72px" viewBox="0 0 71 72" version="1.1" xmlns="http://www.w3.org/2000/svg" xmlns:xlink="http://www.w3.org/1999/xlink">
    <!-- Generator: Sketch 50.2 (55047) - http://www.bohemiancoding.com/sketch -->
    <title>8-pivotalcontainerservice</title>
    <desc>Created with Sketch.</desc>
    <defs>
        <polygon id="path-1" points="0.0242563142 0.0639260862 33.7959114 0.0639260862 33.7959114 48.9338037 0.0242563142 48.9338037"></polygon>
        <polygon id="path-3" points="0 0.0441579778 33.7786929 0.0441579778 33.7786929 48.9795705 0 48.9795705"></polygon>
        <polygon id="path-5" points="0 0.0201848545 25.8913064 0.0201848545 25.8913064 43.5220504 0 43.5220504"></polygon>
    </defs>
    <g id="v2" stroke="none" stroke-width="1" fill="none" fill-rule="evenodd">
        <g id="06-usecasestmplt-desktop" transform="translate(-1182.000000, -5547.000000)">
            <g id="MULTICLOUD---desktop" transform="translate(0.000000, 5229.000000)">
                <g id="C" transform="translate(188.000000, 318.000000)">
                    <g id="8-pivotalcontainerservice" transform="translate(994.000000, 0.000000)">
                        <g id="Group-3" transform="translate(36.244898, 0.000000)">
                            <mask id="mask-2" fill="white">
                                <use xlink:href="#path-1"></use>
                            </mask>
                            <g id="Clip-2"></g>
                            <path d="M0.0608815315,5.64545933 C0.115695159,5.1033156 0.360715568,4.65527162 0.810047664,4.36483247 C2.88095541,3.02645459 4.96261639,1.70491784 7.04050676,0.377416525 C7.27805576,0.225706099 7.52531061,0.100450266 7.81606723,0.0971522133 C7.93889165,0.041155488 8.06876853,0.0818548623 8.19445583,0.0693643647 C8.50623016,0.0401730893 8.78539561,0.130764283 9.0616982,0.273983978 C11.4375373,1.50577159 13.810723,2.74282206 16.1848863,3.97769721 C17.9186727,4.87960938 19.6624444,5.76306649 21.386525,6.68392492 C23.3053511,7.70877726 25.2486862,8.68605345 27.1742855,9.6974329 C29.0593157,10.6874803 30.9472087,11.6717736 32.8374759,12.6515759 C33.3231875,12.9033507 33.7061846,13.2709783 33.7959114,13.8569791 L33.7959114,43.5394538 C33.5361576,44.5200982 32.6713592,44.8838664 31.9312705,45.362856 C30.2612354,46.443705 28.5759083,47.5006959 26.9034293,48.5777557 C26.2356807,49.0078358 25.5649993,49.0535875 24.8614297,48.6861002 C21.9650357,47.1734869 19.067734,45.6625577 16.170502,44.1515584 C16.0880372,44.1085434 16.0027793,44.0712122 15.9187085,44.0311444 C15.6915636,43.8962049 15.7412799,43.6662534 15.7405816,43.4647915 C15.7346464,41.7944331 15.7375791,40.124215 15.7373696,38.4538565 C15.7372998,37.4376352 15.7359033,36.4214841 15.7386265,35.405333 C15.7391153,35.2202912 15.7167011,35.0292848 15.8220689,34.8601017 C16.0552887,34.7064265 16.2494756,34.8622069 16.4340264,34.9610081 C17.3891102,35.4719256 18.353062,35.966002 19.308076,36.4765686 C20.4171268,37.0695164 21.5558537,37.604222 22.6542909,38.21773 C23.5291443,38.706333 24.4273197,39.150307 25.3241684,39.5963862 C25.8086231,39.8374247 25.8090421,39.8380563 25.8090421,39.3092451 C25.8093214,36.3153851 25.8091818,33.3215251 25.8091818,30.3277352 C25.8091818,26.7958716 25.8048525,23.2640781 25.8122541,19.7322847 C25.8141394,18.8387931 25.4678011,18.2302672 24.6432226,17.8061517 C21.4847007,16.1814748 18.343426,14.5229753 15.1885351,12.8909304 C13.0991234,11.8100111 11.0305199,10.6883925 8.92260425,9.64361148 C8.64295001,9.50495293 8.40435362,9.2820186 8.08482857,9.22981112 C7.91577915,9.33843635 7.99112171,9.50867201 7.99091223,9.64817262 C7.98623387,13.0630606 7.98749074,16.4779487 7.98721144,19.8928367 C7.98714161,20.6680194 7.95348534,20.6814923 7.26918782,20.3321794 C5.00786382,19.1775803 2.77398155,17.9693 0.504627526,16.8307 C0.164503727,16.6601134 0.0216391634,16.469879 0.024292562,16.0614116 C0.0450309664,12.7167651 0.0356742452,9.37197825 0.0372104233,6.02726156 C0.0372802496,5.9001111 0.0131203576,5.77015379 0.0608815315,5.64545933" id="Fill-1" fill="#FFFFFF" mask="url(#mask-2)"></path>
                        </g>
                        <g id="Group-6" transform="translate(0.000000, 23.020408)">
                            <mask id="mask-4" fill="white">
                                <use xlink:href="#path-3"></use>
                            </mask>
                            <g id="Clip-5"></g>
                            <path d="M-1.39364612e-05,5.37398179 C0.310351054,4.47927854 1.10619267,4.10121512 1.82155122,3.64114426 C3.50333368,2.55944719 5.19250245,1.48920446 6.87107952,0.40251808 C7.55041232,-0.037244166 8.22814243,-0.0735747958 8.94141051,0.300764208 C11.8217286,1.81238544 14.7039282,3.32035253 17.5861974,4.82817908 C17.6874458,4.88116417 17.7817259,4.95747958 17.905203,4.95614441 C18.3917248,5.05515767 18.8003419,5.33821333 19.2229651,5.56793254 C20.6229523,6.32862706 22.0368063,7.0619155 23.4548412,7.78677129 C24.2522158,8.19434896 25.0272921,8.64528446 25.839091,9.02538576 C25.873514,9.04140778 25.9055679,9.06031095 25.9374824,9.08054929 C26.5213504,9.421228 27.1410352,9.69058062 27.7352162,10.0096858 C29.4155353,10.912119 31.1225428,11.762832 32.7977751,12.6744005 C33.4199684,13.012971 33.7680315,13.5320001 33.7621085,14.2936784 C33.743573,16.6821538 33.7543738,19.07084 33.7558371,21.4593857 C33.7562552,22.1148128 33.7412735,22.7705209 33.7786929,23.4260885 C33.7547919,26.3237549 33.7752785,29.2209996 33.7683102,32.1181741 C33.7679618,32.2680643 33.7991098,32.4228735 33.7207869,32.5649635 C33.6637868,32.7117618 33.6852489,32.8655169 33.6851792,33.0163909 C33.684134,36.3604954 33.6798137,39.7045999 33.6878272,43.0487044 C33.6897086,43.8025825 33.4028962,44.3786022 32.7733166,44.7821743 C30.7693928,46.066817 28.7661659,47.3525137 26.7607091,48.6346265 C26.5063687,48.7973062 26.243318,48.9495154 25.9262635,48.948883 C25.7897559,49.0055925 25.6468375,48.9637806 25.5073335,48.9766404 C25.349085,48.9774837 25.187213,48.9934354 25.0391381,48.925904 C24.9457638,48.8833192 24.7999884,48.8526103 24.9067417,48.6885252 C25.0022065,48.6176207 25.1175307,48.5926741 25.2249111,48.5495974 C25.4750009,48.4493895 25.6095575,48.2586713 25.6538754,47.9975405 C25.6815393,47.8352824 25.6741529,47.6709162 25.6741529,47.5072527 C25.674571,45.3197552 25.6731774,43.1322578 25.6757556,40.9447603 C25.6761737,40.6054871 25.6705992,40.2676895 25.6154804,39.9319298 C25.6636309,39.7613094 25.6693449,39.5859105 25.6694146,39.4105818 C25.6704598,35.8813106 25.6714353,32.3518988 25.6693449,28.8225573 C25.6692752,28.6939595 25.6572898,28.5657131 25.6566627,28.4376072 C25.6785429,28.2169531 25.6845356,27.9951747 25.6844659,27.772834 C25.6838388,25.047053 25.6735258,22.3211314 25.6901799,19.5954206 C25.6954061,18.7434427 25.3189126,18.1837964 24.5874574,17.8089655 C22.3335832,16.6538342 20.0938545,15.4711563 17.8502236,14.2956461 C14.7303378,12.6862765 11.6361646,11.0266624 8.51042545,9.42916874 C8.04766526,9.19270342 8.04634129,9.1950224 8.04634129,9.734079 C8.04634129,16.2893333 8.04689875,22.8446579 8.04397209,29.3999122 C8.04383273,29.6169824 8.09804556,29.8476151 7.9505978,30.0454309 C7.78538106,30.0331333 7.79457912,29.8971569 7.78029425,29.7878839 C7.75904114,29.6253448 7.76991158,29.4607677 7.76991158,29.2970339 C7.76963286,22.75738 7.76419764,16.2177261 7.78057298,9.67800193 C7.78182726,9.18138963 7.6131264,8.92925365 7.18172324,8.71239423 C5.26176667,7.74692706 3.36612922,6.73269113 1.46171179,5.73609346 C1.33816507,5.67144321 1.21482738,5.60538752 1.08410338,5.55661875 C0.68524186,5.4078529 0.417034664,5.50461746 0.202273798,5.86848593 C0.15217222,5.95344479 0.139699087,6.0789506 -1.39364612e-05,6.0767019 L-1.39364612e-05,5.37398179 Z" id="Fill-4" fill="#FFFFFF" mask="url(#mask-4)"></path>
                        </g>
                        <g id="Group-9" transform="translate(0.000000, 27.918367)">
                            <mask id="mask-6" fill="white">
                                <use xlink:href="#path-5"></use>
                            </mask>
                            <g id="Clip-8"></g>
                            <path d="M25.7608093,34.6977288 C25.8817889,34.7804054 25.8914449,34.9004766 25.891305,35.0359 C25.8884362,37.5676069 25.8910251,40.0993137 25.8877364,42.6310205 C25.8870367,43.1844749 25.6142204,43.4289835 24.9589434,43.4917304 C24.8213808,43.5686324 24.7091475,43.4817304 24.6004128,43.4245469 C22.1650776,42.1421441 19.7181271,40.882347 17.2790134,39.6071978 C16.8242029,39.3694497 16.3791883,39.1128283 15.9200397,38.8843761 C14.2283545,38.0426804 12.5673166,37.1416886 10.8931942,36.266049 C9.84985889,35.7202707 8.80540408,35.1762531 7.75808047,34.6382918 C5.48612711,33.4712418 3.23481516,32.2641916 0.960412828,31.1020009 C0.493147522,30.8632669 0.130138776,30.5048842 -6.99708455e-06,29.9631905 L-6.99708455e-06,0.737645709 C0.305345773,-0.0365143253 0.629940525,-0.154824965 1.3941621,0.241938215 C3.47467522,1.32229745 5.5507102,2.41145956 7.63689096,3.48069197 C7.89165481,3.61125621 7.90802799,3.7821024 7.90795802,4.01703353 C7.90452945,10.7772894 7.90480933,17.5376156 7.90767813,24.2978715 C7.9077481,24.4449851 7.85631953,24.603789 7.9629551,24.7394237 C8.11192303,24.7813254 8.13186472,24.9231573 8.18224373,25.0365383 C8.33100175,25.371118 8.56617376,25.6127393 8.89069854,25.783163 C10.6876198,26.7266903 12.4877598,27.6640204 14.2866402,28.6036041 C16.9748501,30.0076979 19.6701271,31.3981296 22.35113,32.8160262 C23.3925761,33.3668749 24.4700571,33.8475823 25.4842146,34.4506849 C25.5918297,34.5146994 25.7264536,34.5499109 25.7608093,34.6977288" id="Fill-7" fill="#EFEFEF" mask="url(#mask-6)"></path>
                        </g>
                        <path d="M26.0622071,31.8707368 C26.0477234,31.8614309 26.0330299,31.8524049 26.0181964,31.8437287 C25.8981991,31.6652371 25.9297552,31.4621862 25.9296853,31.2663422 C25.9282159,27.8635266 25.9183503,24.4607109 25.9399008,21.0579652 C25.9430494,20.5569852 25.7889771,20.2660529 25.3396344,20.0490082 C23.7973717,19.3040454 22.2978602,18.4743497 20.7682619,17.7039181 C20.3412394,17.4889025 19.9320591,17.241701 19.5020979,17.0328428 C18.857401,16.7194504 18.6218844,16.7845218 18.2463593,17.3866774 C18.2199809,17.4289388 18.1854161,17.4543377 18.1339187,17.4520287 C18.0505853,16.6124674 18.3893765,15.9965278 19.0986551,15.5492143 C21.1169887,14.2762633 23.1262264,12.9887587 25.1429508,11.7129389 C25.7429373,11.3333556 26.37441,11.3175426 27.0017545,11.6405907 C29.3610484,12.8554672 31.7170538,14.0769208 34.0736889,15.296975 C34.6317638,15.5859481 35.1921477,15.8707231 35.7425261,16.17383 C36.0052607,16.3185964 36.0693525,16.2668192 36.068373,15.971129 C36.0598367,13.5123388 36.0634751,11.0534785 36.0635451,8.5946883 C36.0635451,7.63911793 36.0630553,6.68347759 36.0650144,5.72797719 C36.0651544,5.67186183 36.0852356,5.61588641 36.0960108,5.559911 C36.100139,6.15457985 36.1075558,6.74910877 36.1078356,7.34356772 C36.1090951,10.2472926 36.1110542,13.1510174 36.1032876,16.0547423 C36.1026579,16.2829121 36.1649306,16.4065478 36.3753282,16.513181 C38.1312771,17.4031202 39.8819782,18.3037646 41.6310701,19.2072779 C42.3238359,19.5651007 43.0098147,19.9362877 43.6962832,20.3060753 C43.8671482,20.398015 43.9581083,20.3875196 43.9437645,20.1659969 C43.9385169,20.0847625 43.9430649,20.0028285 43.9430649,19.9211744 C43.9430649,16.3761112 43.9413856,12.830978 43.9508314,9.28591475 C43.9511813,9.17844195 43.7859838,8.88834934 44.145486,8.97504127 C44.127224,9.18410946 44.1149794,9.39324762 44.1150493,9.60336535 C44.115749,13.0187755 44.1218364,16.4342556 44.1072128,19.8495958 C44.1055335,20.2578665 44.2451922,20.4748412 44.6071432,20.6573911 C46.7400166,21.7333786 48.8441326,22.8658313 50.9779855,23.9405593 C51.6762789,24.2922249 52.0276646,24.8519791 52.0257754,25.6508182 C52.0192683,28.5650385 52.0163995,31.4791888 52.0263352,34.393409 C52.026615,34.4861183 52.0385098,34.5805768 51.9882719,34.6662892 C51.8789799,34.7718728 51.9228506,34.908033 51.9227107,35.031109 C51.9202617,37.82967 51.9210314,40.628231 51.9202617,43.4267921 C51.9201918,43.5671504 51.9145243,43.707089 51.9863127,43.8352027 C51.9251596,43.9808088 51.9482494,44.1342514 51.9481795,44.2845454 C51.94699,47.6064766 51.9444011,50.9283378 51.9494389,54.250269 C51.9505584,55.015453 51.6361865,55.5868921 50.9902302,55.9948829 C48.9428592,57.288195 46.9058438,58.5979498 44.8511961,59.879507 C44.2575767,60.2497844 43.6202266,60.2675566 43.0078555,59.8699912 C43.0764254,59.7744132 43.1853676,59.7707748 43.2859834,59.7459357 C43.6817996,59.6481886 43.8541339,59.4496858 43.8931068,59.0459631 C43.9075904,58.8953192 43.9019929,58.7439057 43.9020629,58.592842 C43.9022728,56.5005509 43.9019229,54.4081197 43.9024827,52.3157586 C43.9025526,51.9328167 43.9133979,51.5493152 43.844828,51.1695919 C43.9047217,50.9893511 43.8974449,50.8020433 43.8975848,50.6168346 C43.8991242,47.1285865 43.8993341,43.6403383 43.8984944,40.1520901 C43.8984245,40.0008865 43.8845705,39.8501727 43.8833811,39.6993889 C43.9082202,39.4910204 43.9085,39.2812526 43.9085,39.0714847 C43.90864,36.3666825 43.899404,33.6618103 43.9141675,30.9570081 C43.9185056,30.1435453 43.6336607,29.5484566 42.8910069,29.1636256 C41.9598558,28.6811875 41.0260458,28.2037172 40.0925858,27.7261769 C38.9821034,27.1580264 37.8884837,26.5582498 36.7784211,25.9897494 C36.2104806,25.6988871 36.2078917,25.7035051 36.2078917,26.3246923 C36.2077518,28.9595952 36.2088013,31.5944981 36.2060025,34.2293311 C36.2057926,34.4236357 36.2474243,34.6283658 36.1198703,34.805528 C35.9366208,34.8195919 35.9615998,34.6701375 35.9438976,34.5675625 C35.9199681,34.429863 35.9322128,34.2883851 35.9322128,34.1485166 C35.9320028,31.4783491 35.9239564,28.8080418 35.9403992,26.1378744 C35.942988,25.7179188 35.7976618,25.4938772 35.4255652,25.3009019 C32.5282076,23.7979619 29.6253224,22.3055873 26.7330025,20.7927816 C26.2071834,20.5177324 26.2023555,20.5262686 26.2022856,21.1186285 C26.2021456,24.5234733 26.2037549,27.9282481 26.1980874,31.333023 C26.1977376,31.5162725 26.2751236,31.7348565 26.0622071,31.8707368" id="Fill-10" fill="#FFFFFF"></path>
                        <path d="M43.8775876,51.1873151 C44.0036722,51.2815637 44.0140277,51.4121264 44.0138178,51.5582922 C44.0106692,54.0403123 44.013398,56.5224023 44.0102494,59.0044923 C44.0094097,59.6019599 43.7317716,59.8346777 43.0077996,59.8700122 C41.972884,59.3460123 40.93461,58.8283796 39.9038227,58.2964732 C38.0780444,57.3544769 36.2568142,56.4035944 34.4335549,55.4567003 C34.289768,55.3819731 34.1448617,55.3091351 34.0004451,55.2354574 C33.934674,55.1048947 33.9444697,54.9642565 33.9444697,54.8245279 C33.9447495,52.0272962 33.9441898,49.2299947 33.9462889,46.432763 C33.9463588,46.3084276 33.9089952,46.1742965 34.0048531,46.0635352 C34.1852339,45.9710358 34.3192251,46.0991495 34.4555252,46.1712179 C36.2369429,47.1125145 38.0320746,48.0273628 39.8197196,48.9566247 C41.0907114,49.6173446 42.3561757,50.2885598 43.6345144,50.9351459 C43.7384187,50.9876228 43.8915115,51.0126718 43.8775876,51.1873151" id="Fill-12" fill="#EFEFEF"></path>
                        <path d="M18.1339537,17.4520147 C18.3535173,16.727203 18.7658462,16.5464024 19.4491661,16.8980679 C21.4676397,17.9370417 23.4782068,18.9911288 25.5016482,20.0200969 C25.9027121,20.2240574 26.0424408,20.470839 26.0390822,20.9341056 C26.0127738,24.5706186 26.0208902,28.2074115 26.0183014,31.8439246 C25.0973658,31.4466391 24.2372335,30.929846 23.341137,30.4833721 C22.1848948,29.907315 21.0392179,29.3090078 19.9018673,28.6964268 C19.3089477,28.377227 18.6834224,28.1189704 18.1197499,27.7455444 C18.1207995,24.4537699 18.1217091,21.1619255 18.1234583,17.8701511 C18.1235283,17.7307023 18.1302453,17.5913935 18.1339537,17.4520147" id="Fill-14" fill="#EFEFEF"></path>
                        <path d="M25.9688751,51.0522954 C23.621336,49.8411273 21.2695287,48.6384254 18.9297562,47.4124238 C18.4273768,47.1491295 18.1301474,46.6836938 18.1283282,46.1060975 C18.1189523,43.065023 18.1270687,40.0238085 18.1290978,36.982664 C20.4664214,38.1875349 22.8095525,39.3815605 25.1370803,40.6050432 C25.7044612,40.9031123 26.0276493,41.4170367 26.028209,42.0848234 C26.0307979,44.9625897 26.0296084,47.8404259 26.028279,50.7182621 C26.028209,50.8316123 26.0583658,50.9534988 25.9688751,51.0522954" id="Fill-16" fill="#EFEFEF"></path>
                        <path d="M43.9465353,39.637809 C42.4243538,38.8582113 40.9014725,38.0797332 39.3801306,37.2985962 C38.5826908,36.889206 37.7860207,36.4782065 36.9922193,36.0618893 C36.4863414,35.7964959 36.1793862,35.3818579 36.0963327,34.810279 C36.1003209,32.5970109 36.104729,30.3839527 36.1082275,28.1708246 C36.1094169,27.3903873 36.1129154,26.6098801 36.1055686,25.8293728 C36.1036095,25.6136576 36.1540573,25.5539038 36.3613063,25.6634057 C37.7082848,26.3752731 39.055963,27.086021 40.4081192,27.7879527 C41.1611985,28.1788711 41.9306506,28.5386531 42.678972,28.9384575 C43.0626135,29.1434675 43.4868372,29.3076154 43.7230535,29.7217635 C43.8928689,30.0196227 44.0120965,30.3274176 44.0119566,30.6753748 C44.0112569,33.5526512 44.0120266,36.4299277 44.0102074,39.3072741 C44.0101374,39.4195049 44.0464515,39.5430706 43.9465353,39.637809" id="Fill-18" fill="#FFFFFF"></path>
                    </g>
                </g>
            </g>
        </g>
    </g>
</svg>