<?xml version="1.0" encoding="utf-8"?>
<!-- Generator: Adobe Illustrator 23.1.1, SVG Export Plug-In . SVG Version: 6.00 Build 0)  -->
<svg version="1.1" id="Layer_1" xmlns="http://www.w3.org/2000/svg" xmlns:xlink="http://www.w3.org/1999/xlink" x="0px" y="0px"
	 viewBox="0 0 728 90" style="enable-background:new 0 0 728 90;" xml:space="preserve">
<style type="text/css">
	.st0{fill:#FFFFFF;}
</style>
<g>
	<path class="st0" d="M408.9,13.3c0,5.4-3,13.5-11.2,13.5c-5,0-7.9-3.2-7.9-8.4c0-5.4,2.9-13.4,11.2-13.4
		C406,5,408.9,8.1,408.9,13.3z M393.9,18.3c0,3,1.4,4.7,3.9,4.7c5,0,6.8-6.1,6.8-9.6c0-3-1.4-4.7-3.9-4.7
		C395.7,8.7,393.9,14.7,393.9,18.3z"/>
	<path class="st0" d="M425.2,7.7c0,0.2-0.1,0.4-0.3,0.4l-5,1.4c-2,0.6-3.5,1.7-4.2,3.7c-0.2,0.4,0,0.5,0.5,0.2
		c1.1-0.7,2.2-1.1,3.5-1.1c3.4,0,5.5,2.1,5.5,5.6c0,3.8-2.4,8.7-8.3,8.7c-5.5,0-6.7-3.8-6.1-7.3l0.8-4.7c0.8-4.7,3.2-7.5,7.6-8.8
		l5.1-1.4c0.2-0.1,0.4,0.1,0.4,0.3L425.2,7.7z M414.8,20.4c-0.1,1.5,0.6,2.7,2.4,2.7c3,0,4.1-2.8,4.1-4.7c0-1.6-0.8-2.4-2.4-2.4
		C416.2,16,414.9,18.4,414.8,20.4z"/>
	<path class="st0" d="M436.5,26.4c-1,0.3-1.9,0.4-2.9,0.4c-4.1,0-6.3-2.3-6.3-6c0-4,2.2-9.3,8.3-9.3c3.4,0,5.3,1.6,5.3,4.3
		c0,2.3-1,4.4-5.3,5l-4.4,0.6c0.1,1.1,0.8,1.9,2.4,1.9c0.9,0,1.7-0.1,2.5-0.3l1.6-0.4c0.2-0.1,0.4,0.1,0.4,0.3l0.2,2.9
		c0,0.2-0.1,0.4-0.3,0.4L436.5,26.4z M435.3,17.7c1.2-0.2,1.7-0.8,1.7-1.5c0-0.7-0.6-1.1-1.7-1.1c-1.7,0-3,0.9-3.8,3.1L435.3,17.7z"
		/>
	<path class="st0" d="M449.6,4.9c5,1.5,7.3,5,7.3,11.2c0,5.2-2,10.6-8.3,10.6c-3.9,0-6.2-2.2-6.2-5.9c0-3.6,2.1-8.5,7.5-8.5
		c1.1,0,2,0.2,2.7,0.7c0.4,0.2,0.7,0.1,0.4-0.4c-0.9-2.2-2.3-3.5-4.7-4.2l-1.7-0.5c-0.2-0.1-0.3-0.2-0.2-0.5l1.2-2.7
		c0.1-0.2,0.3-0.3,0.5-0.2L449.6,4.9z M446.4,20.7c0,1.6,0.8,2.4,2.3,2.4c3,0,4.1-2.9,4.1-4.8c0-1.6-0.8-2.4-2.4-2.4
		C447.5,16,446.4,18.9,446.4,20.7z"/>
	<path class="st0" d="M468.7,25.3c-0.2-0.4-0.4-0.4-0.8,0c-1.4,1.1-2.9,1.5-4,1.5c-3.6,0-5.3-2.3-4.7-5.8l1.5-8.9
		c0-0.2,0.2-0.3,0.4-0.3h3.4c0.2,0,0.4,0.1,0.3,0.4l-1.5,8.6c-0.3,1.6,0.3,2.3,1.5,2.3c2,0,3.4-1.5,3.8-3.9l1.2-7.1
		c0-0.2,0.2-0.3,0.4-0.3h3.4c0.2,0,0.4,0.1,0.3,0.4l-2.4,13.9c0,0.2-0.2,0.3-0.4,0.3h-1.8c-0.2,0-0.4-0.1-0.4-0.3L468.7,25.3z"/>
	<path class="st0" d="M487.9,26.1c0,0.2-0.2,0.3-0.4,0.3h-3.4c-0.2,0-0.4-0.2-0.3-0.4l0.9-5.3h-4.8l-0.9,5.3c0,0.2-0.2,0.3-0.4,0.3
		h-3.4c-0.2,0-0.4-0.2-0.3-0.4l2.4-13.9c0-0.2,0.2-0.3,0.4-0.3h3.4c0.2,0,0.4,0.1,0.3,0.4l-0.9,5h4.8l0.9-5.1c0-0.2,0.2-0.3,0.4-0.3
		h3.4c0.2,0,0.4,0.1,0.3,0.4L487.9,26.1z"/>
	<path class="st0" d="M501.7,25.3c-0.2-0.4-0.4-0.4-0.8,0c-1.4,1.1-2.9,1.5-4,1.5c-3.6,0-5.3-2.3-4.7-5.8l1.5-8.9
		c0-0.2,0.2-0.3,0.4-0.3h3.4c0.2,0,0.4,0.1,0.3,0.4l-1.5,8.6c-0.3,1.6,0.3,2.3,1.5,2.3c2,0,3.4-1.5,3.8-3.9l1.2-7.1
		c0-0.2,0.2-0.3,0.4-0.3h3.4c0.2,0,0.4,0.1,0.3,0.4l-2.4,13.9c0,0.2-0.2,0.3-0.4,0.3h-1.8c-0.2,0-0.4-0.1-0.4-0.3L501.7,25.3z"/>
	<path class="st0" d="M517.7,11.8c1.1-0.3,2.2-0.4,3.5-0.4c3.5,0,5.4,1.4,5.4,3.8c0,1.2-0.4,2.7-2.3,3.4c-0.6,0.2-0.6,0.4-0.2,0.6
		c1.1,0.4,1.9,1.3,1.9,2.7c0,2.3-1.8,4.9-7,4.9c-1.3,0-2.5-0.2-3.8-0.5l-1.6-0.4c-0.2-0.1-0.3-0.2-0.2-0.5l1.2-2.7
		c0.1-0.2,0.3-0.3,0.5-0.2l1.4,0.4c0.9,0.2,1.7,0.3,2.6,0.3c1.7,0,3-0.5,3-1.4c0-0.6-0.8-1.1-2-1.1h-2.3c-0.2,0-0.4-0.1-0.3-0.4
		l0.5-2.6c0-0.2,0.2-0.3,0.4-0.3h2.1c1.2,0,2.2-0.5,2.2-1.3c0-0.6-0.6-1-1.7-1s-2,0.1-2.9,0.3l-1.5,0.4c-0.2,0.1-0.4-0.1-0.4-0.3
		l-0.3-2.8c0-0.2,0.1-0.4,0.3-0.4L517.7,11.8z"/>
	<path class="st0" d="M539.1,24.7c-0.1-0.6-0.2-0.7-0.9,0c-1.1,1.3-2.4,2.1-4.3,2.1c-3.4,0-5.3-2.1-5.3-5.6c0-4.1,2.4-9.7,8.9-9.7
		c1,0,1.9,0.2,3.2,0.5l3,0.7c0.2,0.1,0.3,0.2,0.3,0.4l-2.2,13.1c0,0.2-0.2,0.3-0.4,0.3h-1.9c-0.2,0-0.4-0.1-0.4-0.4V24.7z
		 M538.8,15.3c-0.5-0.2-0.9-0.2-1.5-0.2c-3.4,0-4.7,3.7-4.7,5.7c0,1.5,0.8,2.3,2.1,2.3c2.2,0,3.9-2.6,4.6-6.4l0.2-1.3L538.8,15.3z"
		/>
	<path class="st0" d="M552.6,4.9c5,1.5,7.3,5,7.3,11.2c0,5.2-2,10.6-8.3,10.6c-3.9,0-6.2-2.2-6.2-5.9c0-3.6,2.1-8.5,7.5-8.5
		c1.1,0,2,0.2,2.7,0.7c0.4,0.2,0.7,0.1,0.4-0.4c-0.9-2.2-2.3-3.5-4.7-4.2l-1.7-0.5c-0.2-0.1-0.3-0.2-0.2-0.5l1.2-2.7
		c0.1-0.2,0.3-0.3,0.5-0.2L552.6,4.9z M549.4,20.7c0,1.6,0.8,2.4,2.3,2.4c3,0,4.1-2.9,4.1-4.8c0-1.6-0.8-2.4-2.4-2.4
		C550.6,16,549.4,18.9,549.4,20.7z"/>
	<path class="st0" d="M571.9,16.1c3.5,0,5.5,1.6,5.5,4.4c0,2.7-1.5,6.2-6.5,6.2c-1.6,0-2.8-0.3-3.8-0.8l-2.3-1.1
		c-0.2-0.1-0.3-0.2-0.2-0.4l1.6-9.1h-3.7c-0.2,0-0.4-0.2-0.3-0.4l0.5-2.9c0-0.2,0.2-0.3,0.4-0.3h7.4c0.2,0,0.4,0.1,0.3,0.4l-0.7,4
		H571.9z M569.6,22.8c0.6,0.2,1.1,0.3,1.6,0.3c1.5,0,2.2-1,2.2-1.9c0-1-0.7-1.6-1.9-1.6h-2.2l-0.5,2.9L569.6,22.8z"/>
	<path class="st0" d="M592.8,26.1c0,0.2-0.2,0.3-0.4,0.3h-3.3c-0.2,0-0.4-0.2-0.3-0.4l1.8-10.7h-3.8l-0.7,4
		c-0.6,3.5-2.3,5.6-5.5,7.1l-1,0.5c-0.2,0.1-0.4,0-0.5-0.2l-0.8-2.7c-0.1-0.2,0-0.4,0.2-0.5l0.9-0.4c1.4-0.7,2.3-1.9,2.6-3.9l1.2-7
		c0-0.2,0.2-0.3,0.4-0.3h11.2c0.2,0,0.4,0.1,0.3,0.4L592.8,26.1z"/>
	<path class="st0" d="M615.9,16.6c-0.7,1-1.5,1.8-2.4,2.3c-0.4,0.2-0.4,0.4-0.1,0.5c0.8,0.3,1.3,1.2,1.7,2.3l1.4,4.3
		c0.1,0.3,0,0.4-0.3,0.4h-3.5c-0.2,0-0.3-0.1-0.4-0.3l-1.3-4c-0.3-0.9-0.8-1.4-1.6-1.4h-0.4l-0.9,5.3c0,0.2-0.2,0.3-0.4,0.3h-3.4
		c-0.2,0-0.4-0.2-0.3-0.4l0.9-5.3h-0.3c-0.7,0-1.5,0.8-2.1,1.7l-2.6,3.8c-0.1,0.2-0.2,0.2-0.4,0.2H596c-0.3,0-0.4-0.2-0.2-0.5l3-4.5
		c0.9-1.3,1.4-1.9,2.4-2.4c0.3-0.2,0.4-0.3,0-0.5c-0.6-0.4-1.1-1.4-1.4-2.2l-1.4-4.1c-0.1-0.3,0.1-0.4,0.3-0.4h3.5
		c0.2,0,0.3,0.1,0.4,0.3l0.9,2.9c0.4,1,1,2.2,1.9,2.2h0.3l0.9-5.1c0-0.2,0.2-0.3,0.4-0.3h3.4c0.2,0,0.4,0.1,0.3,0.4l-0.9,5h0.1
		c0.8,0,2-1.5,2.7-2.5l1.8-2.7c0.1-0.2,0.2-0.2,0.4-0.2h3.6c0.3,0,0.4,0.2,0.2,0.5L615.9,16.6z"/>
	<path class="st0" d="M628.4,26.4c-1,0.3-1.9,0.4-2.9,0.4c-4.1,0-6.3-2.3-6.3-6c0-4,2.2-9.3,8.3-9.3c3.4,0,5.3,1.6,5.3,4.3
		c0,2.3-1,4.4-5.3,5l-4.4,0.6c0.1,1.1,0.8,1.9,2.4,1.9c0.9,0,1.7-0.1,2.5-0.3l1.6-0.4c0.2-0.1,0.4,0.1,0.4,0.3l0.2,2.9
		c0,0.2-0.1,0.4-0.3,0.4L628.4,26.4z M627.2,17.7c1.2-0.2,1.7-0.8,1.7-1.5c0-0.7-0.6-1.1-1.7-1.1c-1.7,0-3,0.9-3.8,3.1L627.2,17.7z"
		/>
	<path class="st0" d="M647,26.1c0,0.2-0.2,0.3-0.4,0.3h-3.4c-0.2,0-0.4-0.2-0.3-0.4l0.9-5.3h-4.8l-0.9,5.3c0,0.2-0.2,0.3-0.4,0.3
		h-3.4c-0.2,0-0.4-0.2-0.3-0.4l2.4-13.9c0-0.2,0.2-0.3,0.4-0.3h3.4c0.2,0,0.4,0.1,0.3,0.4l-0.9,5h4.8l0.9-5.1c0-0.2,0.2-0.3,0.4-0.3
		h3.4c0.2,0,0.4,0.1,0.3,0.4L647,26.1z"/>
	<path class="st0" d="M660.7,25.3c-0.2-0.4-0.4-0.4-0.8,0c-1.4,1.1-2.9,1.5-4,1.5c-3.6,0-5.3-2.3-4.7-5.8l1.5-8.9
		c0-0.2,0.2-0.3,0.4-0.3h3.4c0.2,0,0.4,0.1,0.3,0.4l-1.5,8.6c-0.3,1.6,0.3,2.3,1.5,2.3c2,0,3.4-1.5,3.8-3.9l1.2-7.1
		c0-0.2,0.2-0.3,0.4-0.3h3.4c0.2,0,0.4,0.1,0.3,0.4l-2.4,13.9c0,0.2-0.2,0.3-0.4,0.3h-1.8c-0.2,0-0.4-0.1-0.4-0.3L660.7,25.3z"/>
	<path class="st0" d="M679.4,26.1c0,0.2-0.2,0.3-0.4,0.3h-3.4c-0.2,0-0.4-0.2-0.3-0.4l0.8-4.6h-0.8c-1.6,0-2.7,1.2-3.8,3l-1.1,1.7
		c-0.1,0.2-0.2,0.2-0.4,0.2h-3.6c-0.3,0-0.4-0.2-0.2-0.4l2.1-3.4c0.4-0.7,1.1-1.6,2.2-2.1c0.7-0.3,0.6-0.4,0.2-0.7
		c-1.1-0.5-2-1.6-2-3c0-2.1,1.5-5.1,6.4-5.1h6.3c0.2,0,0.4,0.1,0.3,0.4L679.4,26.1z M674.6,15.4c-1.3,0-2,0.8-2,1.6
		c0,0.7,0.5,1.1,1.7,1.1h2.5l0.5-2.7H674.6z"/>
	<path class="st0" d="M398,52.4c-0.8,0.2-1.7,0.4-2.7,0.4c-4.2,0-6.4-2.3-6.4-6c0-4,2.2-9.3,8.6-9.3c0.8,0,1.7,0.2,2.5,0.4l1.5,0.5
		c0.2,0.1,0.3,0.2,0.2,0.5l-1.3,2.6c-0.1,0.2-0.3,0.3-0.5,0.2l-1-0.3c-0.7-0.2-1.3-0.3-1.6-0.3c-3.5,0-4.5,3.5-4.5,5.4
		c0,1.7,0.8,2.6,2.6,2.6c0.6,0,1.3-0.1,2.2-0.3l1.2-0.3c0.2-0.1,0.4,0.1,0.4,0.3l0.4,2.8c0,0.2-0.1,0.4-0.3,0.4L398,52.4z"/>
	<path class="st0" d="M413.8,38.9c0.2,0.4,0.4,0.4,0.8,0c1.4-1.1,2.9-1.5,4-1.5c3.6,0,5.3,2.3,4.7,5.8l-1.5,8.9
		c0,0.2-0.2,0.3-0.4,0.3H418c-0.2,0-0.4-0.2-0.3-0.4l1.5-8.6c0.3-1.6-0.3-2.3-1.5-2.3c-2,0-3.4,1.5-3.8,3.9l-1.2,7.1
		c0,0.2-0.2,0.3-0.4,0.3h-3.4c-0.2,0-0.4-0.2-0.3-0.4l2.4-13.9c0-0.2,0.2-0.3,0.4-0.3h1.8c0.2,0,0.4,0.1,0.4,0.3L413.8,38.9z"/>
	<path class="st0" d="M430.2,38.9c0.2,0.5,0.3,0.5,0.9,0.1c1.2-1.1,2.6-1.5,3.9-1.5c3.5,0,5.6,2.3,5.6,5.9c0,3.9-2.1,9.4-8.1,9.4
		c-1.1,0-1.8-0.1-2.5-0.5l-0.8-0.4l-1.1,6.7c0,0.2-0.2,0.3-0.4,0.3h-3.4c-0.2,0-0.4-0.2-0.3-0.4l3.5-20.5c0-0.2,0.2-0.3,0.4-0.3h1.7
		c0.2,0,0.4,0.1,0.4,0.3L430.2,38.9z M430.4,48.8c0.5,0.2,1.3,0.4,1.9,0.4c3.2,0,4.3-3.4,4.3-5.4c0-1.7-0.8-2.7-2.4-2.7
		c-2,0-3.5,1.5-3.8,3.7l-0.6,3.7L430.4,48.8z"/>
	<path class="st0" d="M457,43.5c0,3.8-2.2,9.3-8.3,9.3c-4,0-6.2-2.3-6.2-6.1c0-3.8,2.3-9.3,8.4-9.3C454.8,37.4,457,39.8,457,43.5z
		 M446.5,46.5c0,1.7,0.8,2.7,2.3,2.7c3.1,0,4.2-3.4,4.2-5.4c0-1.7-0.8-2.7-2.4-2.7C447.6,41.1,446.5,44.5,446.5,46.5z"/>
	<path class="st0" d="M474.5,52.1c0,0.2-0.2,0.3-0.4,0.3h-3.3c-0.2,0-0.4-0.2-0.3-0.4l0.5-2.8c0.3-1.7,0.8-4.1,1.3-5.9
		c0.1-0.3-0.2-0.4-0.3-0.1c-0.3,0.5-0.6,1-0.8,1.5l-1.7,2.9c-0.3,0.5-0.5,1-0.8,1.5c-0.1,0.2-0.2,0.3-0.4,0.3h-2.4
		c-0.2,0-0.3-0.1-0.4-0.3c-0.1-0.5-0.2-1-0.3-1.5l-0.7-2.9c-0.1-0.5-0.2-1-0.4-1.5c-0.1-0.3-0.4-0.2-0.4,0.1c0,1.8-0.4,4.2-0.7,5.9
		l-0.5,2.8c0,0.2-0.2,0.3-0.4,0.3h-3.4c-0.2,0-0.4-0.2-0.3-0.4l2.4-13.9c0-0.2,0.2-0.3,0.4-0.3h4.7c0.2,0,0.3,0.1,0.4,0.3
		c0.1,0.5,0.1,0.9,0.2,1.3l0.7,2.7c0.1,0.8,0.3,2.2,0.3,2.8c0,0.3,0.2,0.3,0.3,0c0.2-0.6,0.9-1.9,1.3-2.8l1.6-2.7
		c0.2-0.5,0.5-0.9,0.7-1.4c0.1-0.2,0.2-0.3,0.4-0.3h4.9c0.2,0,0.4,0.2,0.3,0.4L474.5,52.1z"/>
	<path class="st0" d="M492.9,43.5c0,3.8-2.2,9.3-8.3,9.3c-4,0-6.2-2.3-6.2-6.1c0-3.8,2.3-9.3,8.4-9.3
		C490.7,37.4,492.9,39.8,492.9,43.5z M482.4,46.5c0,1.7,0.8,2.7,2.3,2.7c3.1,0,4.2-3.4,4.2-5.4c0-1.7-0.8-2.7-2.4-2.7
		C483.5,41.1,482.4,44.5,482.4,46.5z"/>
	<path class="st0" d="M514,52.1c0,0.2-0.2,0.3-0.4,0.3h-3.3c-0.2,0-0.4-0.2-0.3-0.4l1.8-10.7H508l-0.7,4c-0.6,3.5-2.3,5.6-5.5,7.1
		l-1,0.5c-0.2,0.1-0.4,0-0.5-0.2l-0.8-2.7c-0.1-0.2,0-0.4,0.2-0.5l0.9-0.4c1.4-0.7,2.3-1.9,2.6-3.9l1.2-7c0-0.2,0.2-0.3,0.4-0.3
		h11.2c0.2,0,0.4,0.2,0.3,0.4L514,52.1z"/>
	<path class="st0" d="M527.7,51.3c-0.2-0.4-0.4-0.4-0.8,0c-1.4,1.1-2.9,1.5-4,1.5c-3.6,0-5.3-2.3-4.7-5.8l1.5-8.9
		c0-0.2,0.2-0.3,0.4-0.3h3.4c0.2,0,0.4,0.2,0.3,0.4l-1.5,8.6c-0.3,1.6,0.3,2.3,1.5,2.3c2,0,3.4-1.5,3.8-3.9l1.2-7.1
		c0-0.2,0.2-0.3,0.4-0.3h3.4c0.2,0,0.4,0.2,0.3,0.4l-2.4,13.9c0,0.2-0.2,0.3-0.4,0.3h-1.8c-0.2,0-0.4-0.1-0.4-0.3L527.7,51.3z"/>
	<path class="st0" d="M545.9,43.1c-0.6,0.8-1.4,1.5-2.1,1.8c-0.2,0.1-0.2,0.2-0.1,0.3c0.6,0.5,1,0.9,1.4,1.9l2.1,5
		c0.1,0.2,0,0.4-0.3,0.4h-3.5c-0.2,0-0.3-0.1-0.4-0.3l-1.6-4c-0.1-0.3-0.3-0.3-0.5,0l-3,4c-0.1,0.1-0.2,0.2-0.4,0.2h-3.9
		c-0.3,0-0.4-0.2-0.2-0.5l3.8-4.9c0.7-0.9,1.3-1.5,2.1-1.9c0.1-0.1,0.2-0.2,0-0.3c-0.5-0.3-1.1-1-1.4-1.8l-2.1-4.9
		c-0.1-0.2,0-0.4,0.3-0.4h3.4c0.2,0,0.3,0.1,0.4,0.3l1.6,3.9c0.1,0.3,0.3,0.3,0.5,0l3-4c0.1-0.2,0.2-0.2,0.4-0.2h3.8
		c0.3,0,0.4,0.2,0.2,0.5L545.9,43.1z"/>
	<path class="st0" d="M551.5,42.8c0.6-3.5,3.2-5.3,7-5.3c3.4,0,5.2,1.4,5.2,3.8c0,1.7-1.1,2.9-2.4,3.5c-0.3,0.2-0.3,0.3-0.1,0.5
		c0.8,0.3,1.9,0.9,1.9,2.7c0,2.2-1.6,4.9-6.7,4.9c-1.3,0-2.7-0.3-3.7-0.8l-2.3-1.1c-0.2-0.1-0.3-0.2-0.2-0.4L551.5,42.8z
		 M554.5,48.7l0.7,0.3c0.4,0.2,1,0.3,1.6,0.3c1.5,0,2.4-0.6,2.4-1.8c0-0.8-0.7-1.1-1.7-1.1H555L554.5,48.7z M557.9,43.7
		c1.4,0,2-0.7,2-1.5c0-0.8-0.6-1.3-1.6-1.3c-1.5,0-2.5,0.6-2.8,2.1l-0.1,0.7H557.9z"/>
	<path class="st0" d="M576.2,50.7c-0.1-0.6-0.2-0.7-0.9,0c-1.1,1.3-2.4,2.1-4.3,2.1c-3.4,0-5.3-2.1-5.3-5.6c0-4.1,2.4-9.7,8.9-9.7
		c1,0,1.9,0.2,3.2,0.5l3,0.7c0.2,0.1,0.3,0.2,0.3,0.4l-2.2,13.1c0,0.2-0.2,0.3-0.4,0.3h-1.9c-0.2,0-0.4-0.1-0.4-0.4V50.7z
		 M575.9,41.3c-0.5-0.2-0.9-0.2-1.5-0.2c-3.4,0-4.7,3.7-4.7,5.7c0,1.5,0.8,2.3,2.1,2.3c2.2,0,3.9-2.6,4.6-6.4l0.2-1.3L575.9,41.3z"
		/>
	<path class="st0" d="M590.7,36.8c-0.5,0-1.1-0.2-1.4-0.3c-0.1,0-0.2,0.1-0.1,0.2c0.2,0.2,0.7,0.6,1,1.1l1.1,2.1
		c0.2,0.2,0,0.4-0.2,0.4h-2c-0.2,0-0.3-0.1-0.4-0.2l-0.5-0.9c-0.3-0.5-0.4-1.1-0.5-1.4c0-0.2-0.2-0.2-0.2,0c0,0.3-0.2,0.9-0.5,1.4
		l-0.5,0.9c-0.1,0.2-0.2,0.2-0.5,0.2h-2c-0.3,0-0.4-0.2-0.2-0.4l1.1-2c0.3-0.5,0.7-0.9,1-1.1c0.1-0.1,0-0.2-0.1-0.2
		c-0.3,0.1-0.8,0.3-1.4,0.3h-1.4c-0.2,0-0.4-0.1-0.4-0.4v-1.9c0-0.2,0.1-0.4,0.4-0.4h1.4c0.5,0,1.1,0.1,1.4,0.2
		c0.1,0,0.2-0.1,0.1-0.2c-0.2-0.2-0.7-0.6-1-1.1l-1.1-2c-0.2-0.2,0-0.4,0.2-0.4h2.1c0.2,0,0.3,0.1,0.5,0.2l0.5,0.9
		c0.2,0.5,0.4,1,0.5,1.4c0.1,0.2,0.2,0.2,0.2,0c0.1-0.4,0.2-0.9,0.4-1.3l0.5-1c0.1-0.1,0.2-0.2,0.4-0.2h2c0.3,0,0.4,0.2,0.3,0.4
		l-1.2,2c-0.3,0.5-0.6,0.9-0.9,1.1c-0.1,0.1,0,0.2,0.1,0.2c0.3-0.1,0.9-0.2,1.5-0.2h1.4c0.2,0,0.4,0.1,0.4,0.4v1.9
		c0,0.2-0.1,0.4-0.4,0.4H590.7z"/>
</g>
<g>
	<path class="st0" d="M392.7,66.6c1.2-0.4,2.5-0.6,4.1-0.6c3.4,0,5.4,1.5,5.4,4c0,1.3-0.6,3.2-2.7,4.1c-0.4,0.2-0.4,0.4-0.1,0.4
		c1.5,0.5,2.1,1.5,2.1,3.1c0,2.4-2,5.5-7.2,5.5c-1.4,0-2.7-0.2-4-0.7l-1.6-0.5c-0.2-0.1-0.3-0.2-0.2-0.4l1.1-2.1
		c0.1-0.2,0.2-0.2,0.4-0.2l1.4,0.5c0.9,0.3,1.8,0.4,2.9,0.4c2.5,0,4.1-1.3,4.1-2.9c0-1.1-1-1.6-2.8-1.6h-2.2c-0.2,0-0.3-0.1-0.3-0.3
		l0.4-2.3c0-0.2,0.1-0.3,0.3-0.3h2c1.7,0,3.1-1,3.1-2.3c0-0.9-0.7-1.7-2.4-1.7c-1,0-2.1,0.2-3.2,0.5l-1.4,0.4
		c-0.2,0.1-0.3,0-0.3-0.2l-0.5-2.3c0-0.2,0-0.3,0.2-0.3L392.7,66.6z"/>
	<path class="st0" d="M412.3,81.5c-0.1-0.5-0.2-0.6-0.7,0c-0.9,1-1.9,1.7-3.4,1.7c-2.6,0-4.2-1.6-4.2-4.4c0-3.2,1.9-7.6,7-7.6
		c0.8,0,1.5,0.1,2.5,0.4l2.4,0.6c0.2,0,0.2,0.2,0.2,0.3l-1.7,10.3c0,0.2-0.1,0.3-0.3,0.3h-1.5c-0.2,0-0.3-0.1-0.3-0.3V81.5z
		 M412.1,74.1c-0.4-0.1-0.7-0.2-1.2-0.2c-2.6,0-3.7,2.9-3.7,4.5c0,1.2,0.6,1.8,1.6,1.8c1.7,0,3-2,3.6-5l0.2-1L412.1,74.1z"/>
	<path class="st0" d="M427.3,82.6c0,0.2-0.1,0.3-0.3,0.3h-2.6c-0.2,0-0.3-0.1-0.3-0.3l0.6-3.6h-0.6c-1.3,0-2.1,0.9-3,2.4l-0.8,1.4
		c-0.1,0.1-0.2,0.2-0.3,0.2h-2.8c-0.2,0-0.3-0.1-0.2-0.3l1.7-2.6c0.4-0.6,0.8-1.2,1.7-1.7c0.5-0.2,0.5-0.3,0.1-0.5
		c-0.8-0.4-1.5-1.3-1.5-2.4c0-1.7,1.2-4,5-4h5c0.2,0,0.3,0.1,0.3,0.3L427.3,82.6z M423.5,74.2c-1,0-1.6,0.6-1.6,1.3
		c0,0.6,0.4,0.8,1.3,0.8h2l0.4-2.1H423.5z"/>
	<path class="st0" d="M431.6,75.3c0.5-2.7,2.5-4.2,5.5-4.2c2.7,0,4.1,1.1,4.1,3c0,1.3-0.9,2.3-1.9,2.7c-0.3,0.1-0.3,0.3,0,0.4
		c0.6,0.2,1.5,0.7,1.5,2.1c0,1.7-1.3,3.8-5.3,3.8c-1,0-2.1-0.3-2.9-0.6l-1.8-0.8c-0.2-0.1-0.2-0.2-0.2-0.3L431.6,75.3z M434,80
		l0.5,0.2c0.3,0.1,0.8,0.2,1.2,0.2c1.2,0,1.9-0.5,1.9-1.4c0-0.6-0.5-0.9-1.3-0.9h-2L434,80z M436.6,76c1.1,0,1.6-0.6,1.6-1.2
		c0-0.6-0.4-1-1.3-1c-1.2,0-2,0.5-2.2,1.6l-0.1,0.6H436.6z"/>
	<path class="st0" d="M451,82c-0.1-0.3-0.3-0.3-0.7,0c-1.1,0.9-2.3,1.2-3.2,1.2c-2.8,0-4.2-1.8-3.7-4.6l1.2-7c0-0.2,0.1-0.3,0.3-0.3
		h2.6c0.2,0,0.3,0.1,0.3,0.3l-1.2,6.8c-0.2,1.2,0.2,1.8,1.2,1.8c1.5,0,2.7-1.2,3-3.1l0.9-5.6c0-0.2,0.1-0.3,0.3-0.3h2.6
		c0.2,0,0.3,0.1,0.3,0.3l-1.9,10.9c0,0.2-0.1,0.3-0.3,0.3h-1.4c-0.2,0-0.3-0.1-0.3-0.2L451,82z"/>
	<path class="st0" d="M467.6,66c3.9,1.2,5.8,3.9,5.8,8.8c0,4.1-1.5,8.4-6.5,8.4c-3.1,0-4.9-1.7-4.9-4.6s1.7-6.7,5.9-6.7
		c0.9,0,1.6,0.2,2.1,0.5c0.3,0.2,0.5,0.1,0.3-0.3c-0.7-1.7-1.8-2.8-3.7-3.3l-1.3-0.4c-0.2-0.1-0.2-0.2-0.1-0.4l1-2.1
		c0.1-0.2,0.2-0.2,0.4-0.2L467.6,66z M465,78.4c0,1.2,0.7,1.9,1.8,1.9c2.3,0,3.2-2.3,3.2-3.8c0-1.2-0.7-1.9-1.9-1.9
		C465.9,74.7,465,77,465,78.4z"/>
	<path class="st0" d="M486.6,75.9c0,3-1.7,7.3-6.5,7.3c-3.1,0-4.9-1.8-4.9-4.8c0-3,1.8-7.3,6.6-7.3
		C484.9,71.1,486.6,72.9,486.6,75.9z M478.4,78.2c0,1.3,0.6,2.1,1.8,2.1c2.4,0,3.3-2.6,3.3-4.2c0-1.3-0.7-2.1-1.9-2.1
		C479.2,74,478.4,76.6,478.4,78.2z"/>
	<path class="st0" d="M498,66.6c1-0.3,2.1-0.5,3.4-0.5c3.3,0,5.1,1.5,5.1,3.9c0,1.5-0.4,2.9-2.5,4c-0.3,0.1-0.3,0.2,0,0.4
		c1.3,0.6,1.7,1.8,1.7,3.3c0,2.5-1.7,5.4-6.9,5.4c-1.3,0-2.5-0.3-3.7-0.7l-1.5-0.6c-0.2,0-0.2-0.2-0.1-0.4l1.1-2.1
		c0.1-0.2,0.2-0.2,0.4-0.1l1.3,0.5c0.8,0.3,1.7,0.5,2.7,0.5c2.1,0,3.5-1.1,3.5-2.8c0-1.2-0.9-1.9-2.3-1.9h-1.4
		c-0.2,0-0.3-0.1-0.3-0.3l0.4-2.2c0-0.2,0.1-0.3,0.3-0.3h1.2c1.7,0,2.8-0.9,2.8-2.2c0-1.1-0.8-1.7-2-1.7c-0.9,0-1.8,0.2-2.7,0.4
		l-1.4,0.4c-0.2,0.1-0.3,0-0.3-0.2l-0.4-2.3c0-0.2,0-0.3,0.2-0.3L498,66.6z"/>
	<path class="st0" d="M516.1,66.3c0.1,0.1,0.2,0.2,0.1,0.4l-2.8,16c0,0.2-0.1,0.3-0.3,0.3h-2.6c-0.2,0-0.3-0.1-0.3-0.3l1.7-10.1
		c0.1-0.7,0.2-1.2,0.4-1.7c0.1-0.4,0-0.4-0.4-0.3l-1.7,0.7c-0.2,0.1-0.3,0-0.4-0.2l-0.6-2.3c0-0.2,0-0.3,0.2-0.4l6.1-2.3
		C515.8,66.1,515.9,66.1,516.1,66.3L516.1,66.3z"/>
	<path class="st0" d="M534.6,82.6c0,0.2-0.1,0.3-0.3,0.3h-2.6c-0.2,0-0.3-0.1-0.3-0.3l0.4-2.2c0.2-1.3,0.6-3.2,1-4.6
		c0.1-0.2-0.1-0.3-0.2-0.1c-0.2,0.4-0.4,0.8-0.6,1.2l-1.3,2.3c-0.2,0.4-0.4,0.8-0.6,1.2c-0.1,0.1-0.2,0.2-0.3,0.2h-1.9
		c-0.2,0-0.3-0.1-0.3-0.3c0-0.4-0.1-0.8-0.2-1.2l-0.6-2.3c-0.1-0.4-0.2-0.8-0.3-1.2c-0.1-0.2-0.3-0.2-0.3,0.1c0,1.4-0.3,3.3-0.5,4.6
		l-0.4,2.2c0,0.2-0.1,0.3-0.3,0.3h-2.6c-0.2,0-0.3-0.1-0.3-0.3l1.9-10.9c0-0.2,0.1-0.3,0.3-0.3h3.7c0.2,0,0.3,0.1,0.3,0.3
		c0,0.4,0.1,0.7,0.1,1l0.5,2.1c0.1,0.6,0.2,1.7,0.2,2.2c0,0.2,0.2,0.2,0.3,0c0.2-0.4,0.7-1.5,1-2.2l1.2-2.1c0.2-0.4,0.4-0.7,0.5-1.1
		c0-0.2,0.1-0.2,0.3-0.2h3.8c0.2,0,0.3,0.1,0.3,0.3L534.6,82.6z"/>
	<path class="st0" d="M546.4,81.5c-0.1-0.5-0.2-0.6-0.7,0c-0.9,1-1.9,1.7-3.4,1.7c-2.6,0-4.2-1.6-4.2-4.4c0-3.2,1.9-7.6,7-7.6
		c0.8,0,1.5,0.1,2.5,0.4L550,72c0.2,0,0.2,0.2,0.2,0.3l-1.7,10.3c0,0.2-0.1,0.3-0.3,0.3h-1.5c-0.2,0-0.3-0.1-0.3-0.3V81.5z
		 M546.2,74.1c-0.4-0.1-0.7-0.2-1.2-0.2c-2.6,0-3.7,2.9-3.7,4.5c0,1.2,0.6,1.8,1.6,1.8c1.7,0,3-2,3.6-5l0.2-1L546.2,74.1z"/>
	<path class="st0" d="M555.6,72.3c0.2,0.4,0.2,0.4,0.7,0c1-0.8,2-1.2,3.1-1.2c2.8,0,4.4,1.8,4.4,4.6c0,3.1-1.7,7.4-6.4,7.4
		c-0.8,0-1.4-0.1-2-0.4l-0.6-0.3l-0.9,5.3c0,0.2-0.1,0.3-0.3,0.3H551c-0.2,0-0.3-0.1-0.3-0.3l2.8-16.1c0-0.2,0.1-0.3,0.3-0.3h1.4
		c0.2,0,0.3,0.1,0.3,0.3L555.6,72.3z M555.8,80c0.4,0.2,1,0.3,1.5,0.3c2.5,0,3.4-2.7,3.4-4.2c0-1.3-0.6-2.1-1.9-2.1
		c-1.6,0-2.7,1.2-3,2.9l-0.5,2.9L555.8,80z"/>
	<path class="st0" d="M569.5,72.3c0.2,0.4,0.3,0.4,0.7,0c1-0.8,2-1.2,3-1.2c1.1,0,1.9,0.4,2.6,1.2c0.4,0.4,0.7,0.5,1.2,0
		c1.1-1,2.1-1.3,3.1-1.3c2.7,0,4,1.8,3.5,4.6l-1.2,7c0,0.2-0.1,0.3-0.3,0.3h-2.6c-0.2,0-0.3-0.1-0.3-0.3l1.2-6.8
		c0.2-1.2-0.1-1.8-1.1-1.8c-1.5,0-2.5,1.2-2.9,3.1l-0.9,5.6c0,0.2-0.1,0.3-0.3,0.3h-2.6c-0.2,0-0.3-0.1-0.3-0.3l1.2-6.8
		c0.2-1.2-0.1-1.8-1.1-1.8c-1.6,0-2.5,1.2-2.9,3.1l-0.9,5.6c0,0.2-0.1,0.3-0.3,0.3h-2.6c-0.2,0-0.3-0.1-0.3-0.3l1.9-10.9
		c0-0.2,0.1-0.3,0.3-0.3h1.4c0.2,0,0.3,0.1,0.3,0.3L569.5,72.3z"/>
</g>
</svg>
