<?xml version="1.0" encoding="utf-8"?>
<!-- Generator: Adobe Illustrator 23.1.1, SVG Export Plug-In . SVG Version: 6.00 Build 0)  -->
<svg version="1.1" id="Layer_1" xmlns="http://www.w3.org/2000/svg" xmlns:xlink="http://www.w3.org/1999/xlink" x="0px" y="0px"
	 viewBox="0 0 728 90" style="enable-background:new 0 0 728 90;" xml:space="preserve">
<style type="text/css">
	.st0{fill:#FFFFFF;}
</style>
<g>
	<path class="st0" d="M393.9,17.1c4,0,6.1,1.8,6.1,4.7c0,3.1-2,4.7-3.4,5.2c-0.5,0.2-0.5,0.4-0.1,0.6c1.1,0.4,2.6,1.6,2.6,4
		c0,4.1-3.2,6.7-8.4,6.7h-8.7c-0.2,0-0.4-0.2-0.3-0.4l3.5-20.4c0-0.2,0.2-0.3,0.4-0.3H393.9z M391.4,34.6c2.2,0,3.5-1.2,3.5-3.1
		c0-1.5-1.2-2.3-3.2-2.3h-4.2l-0.9,5.4H391.4z M391.9,25.6c2.5,0,4-1.1,4-2.9c0-1.2-0.9-1.9-2.3-1.9h-4.6l-0.8,4.8H391.9z"/>
	<path class="st0" d="M411.7,28c3.5,0,5.5,1.6,5.5,4.4c0,2.7-1.5,6.2-6.5,6.2c-1.6,0-2.8-0.3-3.8-0.8l-2.3-1.1
		c-0.2-0.1-0.3-0.2-0.2-0.4l1.6-9.1h-3.7c-0.2,0-0.4-0.2-0.3-0.4l0.5-2.9c0-0.2,0.2-0.3,0.4-0.3h7.4c0.2,0,0.4,0.1,0.3,0.4l-0.7,4
		H411.7z M409.5,34.7c0.6,0.2,1.1,0.3,1.6,0.3c1.5,0,2.2-1,2.2-1.9c0-1-0.7-1.6-1.9-1.6h-2.2l-0.5,2.9L409.5,34.7z"/>
	<path class="st0" d="M421.4,23.9c1.4-0.4,2.6-0.6,3.7-0.6c3.9,0,6.2,1.9,6.2,5.2c0,2-0.7,4.1-3.4,5.3c-0.6,0.3-0.6,0.5-0.2,0.7
		c1.6,0.7,2.4,2,2.4,3.8c0,4.3-3.1,6.8-8.5,6.8c-1.4,0-2.7-0.1-3.8-0.5l-1.7-0.5c-0.2-0.1-0.3-0.2-0.2-0.5l1.3-2.8
		c0.1-0.2,0.3-0.3,0.5-0.2l1.4,0.4c0.9,0.2,1.9,0.4,2.6,0.4c2.9,0,4.6-1.3,4.6-3.5c0-1.3-1.1-2.1-2.9-2.1h-2.3
		c-0.2,0-0.4-0.2-0.3-0.4l0.5-2.9c0-0.2,0.2-0.3,0.4-0.3h2c2.2,0,3.5-1.2,3.5-3.3c0-1.3-0.8-2.1-2.3-2.1c-0.9,0-1.8,0.1-3,0.5
		l-2.1,0.6c-0.2,0.1-0.4-0.1-0.4-0.3l-0.3-2.8c0-0.2,0.1-0.4,0.3-0.4L421.4,23.9z"/>
	<path class="st0" d="M448.7,37.9c0,0.2-0.2,0.3-0.4,0.3H445c-0.2,0-0.4-0.2-0.3-0.4l0.5-2.8c0.3-1.7,0.8-4.1,1.3-5.9
		c0.1-0.3-0.2-0.4-0.3-0.1c-0.3,0.5-0.6,1-0.8,1.5l-1.7,2.9c-0.3,0.5-0.5,1-0.8,1.5c-0.1,0.2-0.2,0.3-0.4,0.3H440
		c-0.2,0-0.3-0.1-0.4-0.3c-0.1-0.5-0.2-1-0.3-1.5l-0.7-2.9c-0.1-0.5-0.2-1-0.4-1.5c-0.1-0.3-0.4-0.2-0.4,0.1c0,1.8-0.4,4.2-0.7,5.9
		l-0.5,2.8c0,0.2-0.2,0.3-0.4,0.3h-3.4c-0.2,0-0.4-0.2-0.3-0.4l2.4-13.9c0-0.2,0.2-0.3,0.4-0.3h4.7c0.2,0,0.3,0.1,0.4,0.3
		c0.1,0.5,0.1,0.9,0.2,1.3l0.7,2.7c0.1,0.8,0.3,2.2,0.3,2.8c0,0.3,0.2,0.3,0.3,0c0.2-0.6,0.9-1.9,1.3-2.8l1.6-2.7
		c0.2-0.5,0.5-0.9,0.7-1.4c0.1-0.2,0.2-0.3,0.4-0.3h4.9c0.2,0,0.4,0.1,0.3,0.4L448.7,37.9z"/>
	<path class="st0" d="M466.7,29.3c0,3.8-2.2,9.3-8.3,9.3c-4,0-6.2-2.3-6.2-6.1c0-3.8,2.3-9.3,8.4-9.3
		C464.4,23.3,466.7,25.6,466.7,29.3z M456.1,32.3c0,1.7,0.8,2.7,2.3,2.7c3.1,0,4.2-3.4,4.2-5.4c0-1.7-0.8-2.7-2.4-2.7
		C457.2,26.9,456.1,30.3,456.1,32.3z"/>
	<path class="st0" d="M486.6,28.4c-0.7,1-1.5,1.8-2.4,2.3c-0.4,0.2-0.4,0.4-0.1,0.5c0.8,0.3,1.3,1.2,1.7,2.3l1.4,4.3
		c0.1,0.3,0,0.4-0.3,0.4h-3.5c-0.2,0-0.3-0.1-0.4-0.3l-1.3-4c-0.3-0.9-0.8-1.4-1.6-1.4h-0.4l-0.9,5.3c0,0.2-0.2,0.3-0.4,0.3h-3.4
		c-0.2,0-0.4-0.2-0.3-0.4l0.9-5.3h-0.3c-0.7,0-1.5,0.8-2.1,1.7l-2.6,3.8c-0.1,0.2-0.2,0.2-0.4,0.2h-3.6c-0.3,0-0.4-0.2-0.2-0.5
		l3-4.5c0.9-1.3,1.4-1.9,2.4-2.4c0.3-0.2,0.4-0.3,0-0.5c-0.6-0.4-1.1-1.4-1.4-2.2l-1.4-4.1c-0.1-0.3,0.1-0.4,0.3-0.4h3.5
		c0.2,0,0.3,0.1,0.4,0.3l0.9,2.9c0.4,1,1,2.2,1.9,2.2h0.3l0.9-5.4l1.1-6.7c0-0.2,0.2-0.3,0.4-0.3h3.4c0.2,0,0.4,0.2,0.3,0.4
		l-1.3,7.4l-0.8,4.7h0.1c0.8,0,2-1.5,2.7-2.5l1.8-2.7c0.1-0.2,0.2-0.2,0.4-0.2h3.6c0.3,0,0.4,0.2,0.2,0.5L486.6,28.4z"/>
	<path class="st0" d="M502.7,37.9c0,0.2-0.2,0.3-0.4,0.3H499c-0.2,0-0.4-0.2-0.3-0.4l0.9-5.3h-4.8l-0.9,5.3c0,0.2-0.2,0.3-0.4,0.3
		h-3.4c-0.2,0-0.4-0.2-0.3-0.4l2.4-13.9c0-0.2,0.2-0.3,0.4-0.3h3.4c0.2,0,0.4,0.1,0.3,0.4l-0.9,5h4.8l0.9-5.1c0-0.2,0.2-0.3,0.4-0.3
		h3.4c0.2,0,0.4,0.1,0.3,0.4L502.7,37.9z"/>
	<path class="st0" d="M520.7,29.3c0,3.8-2.2,9.3-8.3,9.3c-4,0-6.2-2.3-6.2-6.1c0-3.8,2.3-9.3,8.4-9.3
		C518.4,23.3,520.7,25.6,520.7,29.3z M510.1,32.3c0,1.7,0.8,2.7,2.3,2.7c3.1,0,4.2-3.4,4.2-5.4c0-1.7-0.8-2.7-2.4-2.7
		C511.2,26.9,510.1,30.3,510.1,32.3z"/>
	<path class="st0" d="M531.1,38.2c-0.8,0.2-1.7,0.4-2.7,0.4c-4.2,0-6.4-2.3-6.4-6c0-4,2.2-9.3,8.6-9.3c0.8,0,1.7,0.2,2.5,0.4
		l1.5,0.5c0.2,0.1,0.3,0.2,0.2,0.5l-1.3,2.6c-0.1,0.2-0.3,0.3-0.5,0.2l-1-0.3c-0.7-0.2-1.3-0.3-1.6-0.3c-3.5,0-4.5,3.5-4.5,5.4
		c0,1.7,0.8,2.6,2.6,2.6c0.6,0,1.3-0.1,2.2-0.3l1.2-0.3c0.2-0.1,0.4,0.1,0.4,0.3l0.4,2.8c0,0.2-0.1,0.4-0.3,0.4L531.1,38.2z"/>
	<path class="st0" d="M540.5,24.7c0.2,0.5,0.4,0.5,0.9,0c1.3-1.1,2.6-1.5,3.8-1.5c1.4,0,2.4,0.6,3.3,1.6c0.6,0.5,0.8,0.6,1.6,0.1
		c1.4-1.3,2.7-1.6,3.9-1.6c3.4,0,5.1,2.3,4.5,5.8l-1.5,8.9c0,0.2-0.2,0.3-0.4,0.3h-3.4c-0.2,0-0.4-0.2-0.3-0.4l1.5-8.6
		c0.3-1.6-0.1-2.3-1.4-2.3c-2,0-3.2,1.6-3.6,3.9l-1.2,7.1c0,0.2-0.2,0.3-0.4,0.3h-3.4c-0.2,0-0.4-0.2-0.3-0.4l1.5-8.7
		c0.3-1.5-0.2-2.3-1.4-2.3c-2,0-3.2,1.6-3.6,3.9l-1.2,7.1c0,0.2-0.2,0.3-0.4,0.3h-3.4c-0.2,0-0.4-0.2-0.3-0.4l2.4-13.9
		c0-0.2,0.2-0.3,0.4-0.3h1.8c0.2,0,0.4,0.1,0.4,0.3L540.5,24.7z"/>
	<path class="st0" d="M567.9,41.2c0.6,0.2,1.6,0.3,2.2,0.3c1.8,0,3.8-0.4,5-2.7c0.2-0.6,0.4-1.1,0.5-1.5c0.1-0.4-0.1-0.4-0.6,0
		c-1.2,0.8-2.3,1.3-3.6,1.3c-3.8,0-5.8-2.4-5.6-6.3c0.2-4.2,2.5-9,8.4-9c1.3,0,2.5,0.3,3.6,0.7l2.9,1.1c0.2,0.1,0.3,0.2,0.2,0.5
		L578.7,38c-0.8,4.7-3.9,7.1-8.6,7.1c-1.2,0-2.4-0.2-3.2-0.4l-1.6-0.5c-0.2-0.1-0.3-0.2-0.2-0.5l1.3-2.7c0.1-0.2,0.3-0.3,0.5-0.2
		L567.9,41.2z M575.8,27.3c-0.5-0.2-1.3-0.4-1.9-0.4c-2.9,0-4.1,3-4.3,5.1c-0.1,1.8,0.6,2.9,2.2,2.9c2.1,0,3.5-1.2,4-3.9l0.6-3.5
		L575.8,27.3z"/>
	<path class="st0" d="M592.5,36.5c-0.1-0.6-0.2-0.7-0.9,0c-1.1,1.3-2.4,2.1-4.3,2.1c-3.4,0-5.3-2.1-5.3-5.6c0-4.1,2.4-9.7,8.9-9.7
		c1,0,1.9,0.2,3.2,0.5l3,0.7c0.2,0.1,0.3,0.2,0.3,0.4l-2.2,13.1c0,0.2-0.2,0.3-0.4,0.3h-1.9c-0.2,0-0.4-0.1-0.4-0.4V36.5z
		 M592.2,27.1c-0.5-0.2-0.9-0.2-1.5-0.2c-3.4,0-4.7,3.7-4.7,5.7c0,1.5,0.8,2.3,2.1,2.3c2.2,0,3.9-2.6,4.6-6.4l0.2-1.3L592.2,27.1z"
		/>
	<path class="st0" d="M605.6,23.8c0.8-4.7,4-7.5,8.5-7.5c3.8,0,5.9,1.9,5.9,4.8c0,2-1.1,4.3-3.5,5.5c-0.8,0.4-0.9,0.5-0.2,0.8
		c1.8,0.7,2.8,2.3,2.8,4.3c0,3.2-2.1,6.9-8.1,6.9c-6,0-7.3-3.8-6.7-7.1L605.6,23.8z M608.3,31.7c-0.3,1.6,0.2,3.2,2.8,3.2
		s4-1.6,4-3.5c0-1.8-1.1-2.7-3.3-2.7h-2.9L608.3,31.7z M611.8,25.2c2.5,0,4.2-1.4,4.2-3.5c0-1.1-0.7-1.9-2.1-1.9
		c-2.2,0-3.8,1.6-4.3,4.1l-0.2,1.2H611.8z"/>
	<path class="st0" d="M623.9,23.9c1.4-0.4,2.6-0.6,3.7-0.6c3.9,0,6.2,1.9,6.2,5.2c0,2-0.7,4.1-3.4,5.3c-0.6,0.3-0.6,0.5-0.2,0.7
		c1.6,0.7,2.4,2,2.4,3.8c0,4.3-3.1,6.8-8.5,6.8c-1.4,0-2.7-0.1-3.8-0.5l-1.7-0.5c-0.2-0.1-0.3-0.2-0.2-0.5l1.3-2.8
		c0.1-0.2,0.3-0.3,0.5-0.2l1.4,0.4c0.9,0.2,1.9,0.4,2.6,0.4c2.9,0,4.6-1.3,4.6-3.5c0-1.3-1.1-2.1-2.9-2.1h-2.3
		c-0.2,0-0.4-0.2-0.3-0.4l0.5-2.9c0-0.2,0.2-0.3,0.4-0.3h2c2.2,0,3.5-1.2,3.5-3.3c0-1.3-0.8-2.1-2.3-2.1c-0.9,0-1.8,0.1-3,0.5
		l-2.1,0.6c-0.2,0.1-0.4-0.1-0.4-0.3l-0.3-2.8c0-0.2,0.1-0.4,0.3-0.4L623.9,23.9z"/>
	<path class="st0" d="M644.8,38.2c-1,0.3-1.9,0.4-2.9,0.4c-4.1,0-6.3-2.3-6.3-6c0-4,2.2-9.3,8.3-9.3c3.4,0,5.3,1.6,5.3,4.3
		c0,2.3-1,4.4-5.3,5l-4.4,0.6c0.1,1.1,0.8,1.9,2.4,1.9c0.9,0,1.7-0.1,2.5-0.3l1.6-0.4c0.2-0.1,0.4,0.1,0.4,0.3l0.2,2.9
		c0,0.2-0.1,0.4-0.3,0.4L644.8,38.2z M643.6,29.5c1.2-0.2,1.7-0.8,1.7-1.5c0-0.7-0.6-1.1-1.7-1.1c-1.7,0-3,0.9-3.8,3.1L643.6,29.5z"
		/>
	<path class="st0" d="M665.8,37.9c0,0.2-0.2,0.3-0.4,0.3h-3.3c-0.2,0-0.4-0.2-0.3-0.4l0.5-2.8c0.3-1.7,0.8-4.1,1.3-5.9
		c0.1-0.3-0.2-0.4-0.3-0.1c-0.3,0.5-0.6,1-0.8,1.5l-1.7,2.9c-0.3,0.5-0.5,1-0.8,1.5c-0.1,0.2-0.2,0.3-0.4,0.3h-2.4
		c-0.2,0-0.3-0.1-0.4-0.3c-0.1-0.5-0.2-1-0.3-1.5l-0.7-2.9c-0.1-0.5-0.2-1-0.4-1.5c-0.1-0.3-0.4-0.2-0.4,0.1c0,1.8-0.4,4.2-0.7,5.9
		l-0.5,2.8c0,0.2-0.2,0.3-0.4,0.3h-3.4c-0.2,0-0.4-0.2-0.3-0.4l2.4-13.9c0-0.2,0.2-0.3,0.4-0.3h4.7c0.2,0,0.3,0.1,0.4,0.3
		c0.1,0.5,0.1,0.9,0.2,1.3l0.7,2.7c0.1,0.8,0.3,2.2,0.3,2.8c0,0.3,0.2,0.3,0.3,0c0.2-0.6,0.9-1.9,1.3-2.8l1.6-2.7
		c0.2-0.5,0.5-0.9,0.7-1.4c0.1-0.2,0.2-0.3,0.4-0.3h4.9c0.2,0,0.4,0.1,0.3,0.4L665.8,37.9z"/>
	<path class="st0" d="M678.4,38.2c-1,0.3-1.9,0.4-2.9,0.4c-4.1,0-6.3-2.3-6.3-6c0-4,2.2-9.3,8.3-9.3c3.4,0,5.3,1.6,5.3,4.3
		c0,2.3-1,4.4-5.3,5l-4.4,0.6c0.1,1.1,0.8,1.9,2.4,1.9c0.9,0,1.7-0.1,2.5-0.3l1.6-0.4c0.2-0.1,0.4,0.1,0.4,0.3l0.2,2.9
		c0,0.2-0.1,0.4-0.3,0.4L678.4,38.2z M677.2,29.5c1.2-0.2,1.7-0.8,1.7-1.5c0-0.7-0.6-1.1-1.7-1.1c-1.7,0-3,0.9-3.8,3.1L677.2,29.5z"
		/>
	<path class="st0" d="M702.2,37.2c-0.2-0.5-0.4-0.5-0.9,0c-1.3,1.1-2.6,1.5-3.8,1.5c-1.4,0-2.4-0.6-3.3-1.6
		c-0.6-0.5-0.8-0.6-1.6-0.1c-1.4,1.3-2.7,1.6-3.9,1.6c-3.4,0-5.1-2.3-4.5-5.8l1.5-8.9c0-0.2,0.2-0.3,0.4-0.3h3.4
		c0.2,0,0.4,0.1,0.3,0.4l-1.5,8.6c-0.3,1.6,0.1,2.3,1.4,2.3c2,0,3.2-1.6,3.6-3.9l1.2-7.1c0-0.2,0.2-0.3,0.4-0.3h3.4
		c0.2,0,0.4,0.1,0.3,0.4l-1.5,8.7c-0.3,1.5,0.2,2.3,1.4,2.3c2,0,3.2-1.6,3.6-3.9l1.2-7.1c0-0.2,0.2-0.3,0.4-0.3h3.4
		c0.2,0,0.4,0.1,0.3,0.4L705,37.9c0,0.2-0.2,0.3-0.4,0.3h-1.8c-0.2,0-0.4-0.1-0.4-0.3L702.2,37.2z"/>
	<path class="st0" d="M391.8,66.1c-0.2-0.4-0.4-0.4-0.8,0c-1.4,1.1-2.9,1.5-4,1.5c-3.6,0-5.3-2.3-4.7-5.8l1.5-8.9
		c0-0.2,0.2-0.3,0.4-0.3h3.4c0.2,0,0.4,0.2,0.3,0.4l-1.5,8.6c-0.3,1.6,0.3,2.3,1.5,2.3c2,0,3.4-1.5,3.8-3.9l1.2-7.1
		c0-0.2,0.2-0.3,0.4-0.3h3.4c0.2,0,0.4,0.2,0.3,0.4l-2.4,13.9c0,0.2-0.2,0.3-0.4,0.3h-1.8c-0.2,0-0.4-0.1-0.4-0.3L391.8,66.1z"/>
	<path class="st0" d="M401.1,52.9c1.4-0.4,2.6-0.6,3.7-0.6c3.9,0,6.2,1.9,6.2,5.2c0,2-0.7,4.1-3.4,5.3c-0.6,0.3-0.6,0.5-0.2,0.7
		c1.6,0.7,2.4,2,2.4,3.8c0,4.3-3.1,6.8-8.5,6.8c-1.4,0-2.7-0.1-3.8-0.5l-1.7-0.5c-0.2-0.1-0.3-0.2-0.2-0.5l1.3-2.8
		c0.1-0.2,0.3-0.3,0.5-0.2l1.4,0.4c0.9,0.2,1.9,0.4,2.6,0.4c2.9,0,4.6-1.3,4.6-3.5c0-1.3-1.1-2.1-2.9-2.1h-2.3
		c-0.2,0-0.4-0.2-0.3-0.4l0.5-2.9c0-0.2,0.2-0.3,0.4-0.3h2c2.2,0,3.5-1.2,3.5-3.3c0-1.3-0.8-2.1-2.3-2.1c-0.9,0-1.8,0.1-3,0.5
		l-2.1,0.6c-0.2,0.1-0.4-0.1-0.4-0.3l-0.3-2.8c0-0.2,0.1-0.4,0.3-0.4L401.1,52.9z"/>
	<path class="st0" d="M426.7,71.7c0,0.2-0.2,0.3-0.4,0.3h-3c-0.2,0-0.4-0.2-0.3-0.4l0.8-4.4h-0.4c-0.2,0-0.4-0.1-0.4-0.3l-0.2-0.9
		c-0.2-0.4-0.4-0.4-0.8,0c-1.4,1.1-2.9,1.5-4,1.5c-3.6,0-5.3-2.3-4.7-5.8l1.5-8.9c0-0.2,0.2-0.3,0.4-0.3h3.4c0.2,0,0.4,0.2,0.3,0.4
		l-1.5,8.6c-0.3,1.6,0.3,2.3,1.5,2.3c2,0,3.4-1.5,3.8-3.9l1.2-7.1c0-0.2,0.2-0.3,0.4-0.3h3.4c0.2,0,0.4,0.2,0.3,0.4l-1.9,10.7h1.6
		c0.2,0,0.4,0.2,0.3,0.4L426.7,71.7z"/>
	<path class="st0" d="M442.1,66.9c0,0.2-0.2,0.3-0.4,0.3h-3.4c-0.2,0-0.4-0.2-0.3-0.4l0.8-4.6H438c-1.6,0-2.7,1.2-3.8,3l-1.1,1.7
		c-0.1,0.2-0.2,0.2-0.4,0.2h-3.6c-0.3,0-0.4-0.2-0.2-0.4l2.1-3.4c0.5-0.7,1.1-1.6,2.2-2.1c0.7-0.3,0.6-0.4,0.2-0.7
		c-1.1-0.5-2-1.6-2-3c0-2.1,1.5-5.1,6.4-5.1h6.3c0.2,0,0.4,0.2,0.3,0.4L442.1,66.9z M437.3,56.2c-1.3,0-2,0.8-2,1.6
		c0,0.7,0.5,1.1,1.7,1.1h2.5l0.5-2.7H437.3z"/>
	<path class="st0" d="M448.1,60.5c1.5-2.6,3-5.6,3.9-7.7c0.1-0.2,0.2-0.3,0.4-0.3h4.1c0.2,0,0.3,0.1,0.4,0.3
		c0.3,2.1,0.7,4.9,1.3,7.6l1.5,6.3c0.1,0.2-0.1,0.4-0.3,0.4h-3.4c-0.2,0-0.4-0.1-0.4-0.3l-0.9-3.8c-0.4-2-0.6-4.1-0.6-5.6
		c0-0.4-0.4-0.4-0.5,0c-0.5,1.6-1.4,3.7-2.5,5.6l-2.2,3.8c-0.1,0.2-0.2,0.2-0.5,0.2h-3.6c-0.3,0-0.4-0.2-0.2-0.4L448.1,60.5z"/>
	<path class="st0" d="M476.2,58.4c0,3.8-2.2,9.3-8.3,9.3c-4,0-6.2-2.3-6.2-6.1c0-3.8,2.3-9.3,8.4-9.3
		C473.9,52.3,476.2,54.6,476.2,58.4z M465.6,61.3c0,1.7,0.8,2.7,2.3,2.7c3.1,0,4.2-3.4,4.2-5.4c0-1.7-0.8-2.7-2.4-2.7
		C466.7,55.9,465.6,59.3,465.6,61.3z"/>
	<path class="st0" d="M497.6,58.4c0,3.8-2.2,9.3-8.3,9.3c-4,0-6.2-2.3-6.2-6.1c0-3.8,2.3-9.3,8.4-9.3
		C495.3,52.3,497.6,54.6,497.6,58.4z M487,61.3c0,1.7,0.8,2.7,2.3,2.7c3.1,0,4.2-3.4,4.2-5.4c0-1.7-0.8-2.7-2.4-2.7
		C488.1,55.9,487,59.3,487,61.3z"/>
	<path class="st0" d="M511.6,66.9c0,0.2-0.2,0.3-0.4,0.3h-3.4c-0.2,0-0.4-0.2-0.3-0.4l0.9-5.3h-4.8l-0.9,5.3c0,0.2-0.2,0.3-0.4,0.3
		h-3.4c-0.2,0-0.4-0.2-0.3-0.4l2.4-13.9c0-0.2,0.2-0.3,0.4-0.3h3.4c0.2,0,0.4,0.2,0.3,0.4l-0.9,5h4.8l0.9-5.1c0-0.2,0.2-0.3,0.4-0.3
		h3.4c0.2,0,0.4,0.2,0.3,0.4L511.6,66.9z"/>
	<path class="st0" d="M517.6,60.5c1.5-2.6,3-5.6,3.9-7.7c0.1-0.2,0.2-0.3,0.4-0.3h4.1c0.2,0,0.3,0.1,0.4,0.3
		c0.3,2.1,0.7,4.9,1.3,7.6l1.5,6.3c0.1,0.2-0.1,0.4-0.3,0.4h-3.4c-0.2,0-0.4-0.1-0.4-0.3l-0.9-3.8c-0.4-2-0.6-4.1-0.6-5.6
		c0-0.4-0.4-0.4-0.5,0c-0.5,1.6-1.4,3.7-2.5,5.6l-2.2,3.8c-0.1,0.2-0.2,0.2-0.5,0.2h-3.6c-0.3,0-0.4-0.2-0.2-0.4L517.6,60.5z"/>
	<path class="st0" d="M541.6,65.5c-0.1-0.6-0.2-0.7-0.9,0c-1.1,1.3-2.4,2.1-4.3,2.1c-3.4,0-5.3-2.1-5.3-5.6c0-4.1,2.4-9.7,8.9-9.7
		c1,0,1.9,0.2,3.2,0.5l3,0.7c0.2,0.1,0.3,0.2,0.3,0.4l-2.2,13.1c0,0.2-0.2,0.3-0.4,0.3H542c-0.2,0-0.4-0.1-0.4-0.4V65.5z
		 M541.4,56.1c-0.5-0.2-0.9-0.2-1.5-0.2c-3.4,0-4.7,3.7-4.7,5.7c0,1.5,0.8,2.3,2.1,2.3c2.2,0,3.9-2.6,4.6-6.4l0.2-1.3L541.4,56.1z"
		/>
	<path class="st0" d="M557.3,66.1c-0.2-0.4-0.4-0.4-0.8,0c-1.4,1.1-2.9,1.5-4,1.5c-3.6,0-5.3-2.3-4.7-5.8l1.5-8.9
		c0-0.2,0.2-0.3,0.4-0.3h3.4c0.2,0,0.4,0.2,0.3,0.4l-1.5,8.6c-0.3,1.6,0.3,2.3,1.5,2.3c2,0,3.4-1.5,3.8-3.9l1.2-7.1
		c0-0.2,0.2-0.3,0.4-0.3h3.4c0.2,0,0.4,0.2,0.3,0.4l-2.4,13.9c0,0.2-0.2,0.3-0.4,0.3h-1.8c-0.2,0-0.4-0.1-0.4-0.3L557.3,66.1z
		 M561.1,46.8c-0.4,2.5-2.2,3.8-4.6,3.8c-2.7,0-3.9-1.6-3.5-4.1l0.1-0.6c0-0.2,0.2-0.3,0.4-0.3h2.1c0.2,0,0.4,0.2,0.3,0.4l-0.2,1
		c-0.1,0.7,0.3,1.1,1,1.1c0.9,0,1.5-0.7,1.6-1.4l0.2-0.8c0-0.2,0.2-0.3,0.4-0.3h2.1c0.2,0,0.4,0.2,0.3,0.4L561.1,46.8z"/>
	<path class="st0" d="M576.1,66.9c0,0.2-0.2,0.3-0.4,0.3h-3.4c-0.2,0-0.4-0.2-0.3-0.4l0.9-5.3h-4.8l-0.9,5.3c0,0.2-0.2,0.3-0.4,0.3
		h-3.4c-0.2,0-0.4-0.2-0.3-0.4l2.4-13.9c0-0.2,0.2-0.3,0.4-0.3h3.4c0.2,0,0.4,0.2,0.3,0.4l-0.9,5h4.8l0.9-5.1c0-0.2,0.2-0.3,0.4-0.3
		h3.4c0.2,0,0.4,0.2,0.3,0.4L576.1,66.9z"/>
</g>
</svg>
