<?xml version="1.0" encoding="utf-8"?>
<!-- Generator: Adobe Illustrator 23.1.1, SVG Export Plug-In . SVG Version: 6.00 Build 0)  -->
<svg version="1.1" id="Layer_1" xmlns="http://www.w3.org/2000/svg" xmlns:xlink="http://www.w3.org/1999/xlink" x="0px" y="0px"
	 viewBox="0 0 728 90" style="enable-background:new 0 0 728 90;" xml:space="preserve">
<style type="text/css">
	.st0{fill:#FFFFFF;}
</style>
<polygon class="st0" points="620.5,28.9 624,30 624,26.3 627.5,26.3 627.5,30 631,28.9 632,32 628.5,33.3 630.7,36.2 628,38.2 
	625.7,35.1 623.5,38.2 620.8,36.2 622.9,33.3 619.4,32 "/>
<path class="st0" d="M637.5,33.2V29h17.2v3.9c-5.2,5.7-8.1,12.5-8.9,20.4h-4.9c0.2-2.8,0.7-5.1,1.3-7.2c1.3-4.1,3.7-8.5,7.2-12.9
	H637.5z"/>
<path class="st0" d="M673.9,53.3h-16.4c0-2.8,1-5.2,3-7.4l5.5-4.6c2-1.7,3-3.5,3-5.2c0-2.4-1-3.6-3-3.6c-2.4,0-3.3,1.4-3.5,4.9h-4.6
	c0-5.5,2.5-9,8-9c4.7,0,8.1,2.8,8.1,7.9c0,2.1-0.6,3.7-2,5.4c-0.7,0.9-2.1,2.1-4.2,3.6c-2,1.4-3.4,2.7-4.2,3.8h10.4V53.3z"/>
<path class="st0" d="M693.9,53.3h-16.4c0-2.8,1-5.2,3-7.4l5.5-4.6c2-1.7,3-3.5,3-5.2c0-2.4-1-3.6-3-3.6c-2.4,0-3.3,1.4-3.5,4.9h-4.6
	c0-5.5,2.5-9,8-9c4.7,0,8.1,2.8,8.1,7.9c0,2.1-0.6,3.7-2,5.4c-0.7,0.9-2.1,2.1-4.2,3.6c-2,1.4-3.4,2.7-4.2,3.8h10.4V53.3z"/>
<path class="st0" d="M697.5,48v-5.3l9.6-13.9h6.1v15.1h2.4V48h-2.4v5.3h-4.9V48H697.5z M708.3,33.7l-7,10.2h7V33.7z"/>
<path class="st0" d="M590.5,22.6c-5.6,0-11,2.1-15.1,6c-0.4,0.4-0.4,1,0,1.4c0.4,0.4,1,0.4,1.4,0c3.7-3.5,8.6-5.4,13.7-5.4
	c11,0,19.9,9,19.9,19.9c0,7.5-4.2,14-10.3,17.5l0.6-3.2c0.3-1.4-0.6-2.8-2-3.2l-7.1-1.7c-1.3-0.3-2.7,0.4-3.2,1.6l-0.8,2
	c-2.4-0.7-4.5-2-6.3-3.8c-1.8-1.8-3.1-3.9-3.8-6.3l2-0.8c1.2-0.5,1.9-1.9,1.6-3.2l-1.7-7.1c-0.3-1.4-1.7-2.3-3.2-2l-4.8,1
	c-0.5,0.1-0.9,0.4-1.2,0.9c-0.1,0.1-0.3,0.2-0.3,0.4c-1,2.5-1.5,5.2-1.5,7.9c0,12.1,9.9,22,22,22s22-9.9,22-22
	C612.5,32.4,602.6,22.6,590.5,22.6 M597.8,63.1c-2.3,0.9-4.7,1.4-7.3,1.4c-11,0-19.9-9-19.9-19.9c0-2.4,0.4-4.8,1.3-7.1
	c0,0,0-0.1,0-0.1l4.8-1c0.3-0.1,0.7,0.1,0.8,0.5l1.8,7.1c0.1,0.3-0.1,0.7-0.4,0.8l-2.2,0.9c-0.8,0.3-1.3,1.2-1,2.1
	c0.8,2.8,2.3,5.4,4.4,7.5c2.1,2.1,4.6,3.6,7.4,4.4c0.9,0.3,1.8-0.2,2.2-1.1l0.9-2.2c0.1-0.3,0.5-0.5,0.8-0.4l7.1,1.7
	c0.3,0.1,0.6,0.4,0.5,0.8L597.8,63.1z"/>
<path class="st0" d="M590.5,30.7c7.6,0,13.8,6.2,13.9,13.7c0,0.6,0.5,1,1,1h0c0.6,0,1-0.5,1-1c-0.1-8.7-7.3-15.7-16.1-15.7h0
	c-0.6,0-0.9,0.5-0.9,1C589.4,30.3,590,30.7,590.5,30.7"/>
<path class="st0" d="M590.5,36.6c4.3,0,7.9,3.5,8,7.8c0,0.6,0.5,1,1,1h0c0.6,0,1-0.5,1-1c-0.1-5.4-4.6-9.8-10.3-9.8h0
	c-0.6,0-0.9,0.5-0.9,1C589.4,36.2,590,36.6,590.5,36.6"/>
</svg>
