<?xml version="1.0" encoding="utf-8"?>
<!-- Generator: Adobe Illustrator 23.1.1, SVG Export Plug-In . SVG Version: 6.00 Build 0)  -->
<svg version="1.1" id="Layer_1" xmlns="http://www.w3.org/2000/svg" xmlns:xlink="http://www.w3.org/1999/xlink" x="0px" y="0px"
	 viewBox="0 0 728 90" style="enable-background:new 0 0 728 90;" xml:space="preserve">
<style type="text/css">
	.st0{fill:#FFFFFF;}
</style>
<path class="st0" d="M413.4,54.6v-17h3.2v1.6c1.1-1.3,2.4-2,3.7-2c3.5,0,4.8,3.1,4.8,6.4c0,3.4-1.5,6.5-5,6.5
	c-1.6,0-2.5-0.6-3.4-2.1v6.5H413.4z M416.6,43.8c0,2.4,0.9,3.6,2.6,3.6c1.7,0,2.6-1.3,2.6-3.6c0-2.3-1-3.7-2.6-3.7
	C417.4,40.1,416.6,41.4,416.6,43.8"/>
<path class="st0" d="M426.7,43.8c0-3.8,2.3-6.4,6.3-6.4c3.9,0,6.3,2.6,6.3,6.5c0,3.8-2.3,6.4-6.3,6.4
	C429,50.2,426.7,47.7,426.7,43.8 M430,43.8c0,2,0.8,3.9,3,3.9c2.1,0,3-1.9,3-3.8c0-2.1-1-3.9-3-3.9C430.9,39.9,430,41.7,430,43.8"/>
<path class="st0" d="M440.7,45.9h3.3c0.3,1.3,1.1,1.8,2.5,1.8c1.5,0,2.2-0.4,2.2-1.2c0-0.7-0.6-0.8-1.4-1.1l-3.6-1.3
	c-1.7-0.6-2.6-1.5-2.6-2.9c0-2.7,2.7-3.9,5.2-3.9c3.1,0,4.8,1.3,5.2,4.1h-3.2c-0.2-1.2-0.8-1.5-2.1-1.5c-1.4,0-2.1,0.4-2.1,1.1
	c0,0.3,0.2,0.5,0.5,0.6l5,1.7c1.3,0.4,2.2,1.6,2.2,2.9c0,1.6-1.5,3.2-3,3.7c-0.7,0.2-1.6,0.4-2.6,0.4
	C442.7,50.2,440.8,48.8,440.7,45.9"/>
<path class="st0" d="M452.5,40v-2.3h1.5v-3.2h3.2v3.2h2V40h-2v6.6c0,1.1,0.4,1.1,1.6,1.1h0.5v2.5c-0.8,0.1-1.5,0.1-1.9,0.1
	c-2.8,0-3.3-1.2-3.3-3.9V40H452.5z"/>
<path class="st0" d="M461.8,49.9V33.2h3.2v6.4c1-1.5,2.3-2.2,3.7-2.2c3.3,0,4.8,3,4.8,6.2c0,3.4-1.5,6.6-5,6.6
	c-1.5,0-2.6-0.8-3.5-2.4v2.1H461.8z M467.7,40.1c-1.7,0-2.6,1.2-2.6,3.6c0,2.5,0.8,3.7,2.6,3.7c1.7,0,2.5-1.2,2.5-3.7
	C470.3,41.3,469.4,40.1,467.7,40.1"/>
<path class="st0" d="M475.7,41.6c0.1-2.9,2.3-4.3,5.1-4.3c3.4,0,5.4,1,5.4,4.5V48c0,0.8,0.2,1.4,0.6,1.9h-3.3
	c-0.3-0.5-0.5-1-0.5-1.6c-1.3,1.4-2.1,2-4.1,2c-2.2,0-3.6-1.5-3.6-3.7c0-2.1,1.1-3.4,3.3-3.8c1.4-0.3,2.8-0.5,4.4-0.6
	c0-1.7-0.4-2.3-2.1-2.3c-1.3,0-2,0.6-2.1,1.7H475.7z M480.7,44.6c-1.4,0.2-2.1,0.8-2.1,1.7c0,0.8,0.7,1.4,1.7,1.4
	c1.8,0,2.7-0.9,2.7-2.7v-0.8L480.7,44.6z"/>
<path class="st0" d="M489.4,49.9V37.7h3.2v1.8c0.9-1.4,1.9-2.2,3.7-2.2c1.5,0,3.3,0.9,3.8,2.3c0.2,0.6,0.3,1.5,0.3,2.6v7.6h-3.3
	v-7.3c0-1.6-0.7-2.4-2-2.4c-1.7,0-2.6,1.2-2.6,3.5v6.2H489.4z"/>
<polygon class="st0" points="503.1,49.9 503.1,33.2 506.3,33.2 506.3,42.4 510.3,37.7 514.2,37.7 509.7,42.4 514.2,49.9 510.3,49.9 
	507.6,44.6 506.3,46 506.3,49.9 "/>
<rect x="516.8" y="46.5" class="st0" width="3.5" height="3.4"/>
<path class="st0" d="M524.1,49.9V33.2h3.2v6.4c1-1.5,2.3-2.2,3.7-2.2c3.3,0,4.8,3,4.8,6.2c0,3.4-1.5,6.6-5,6.6
	c-1.5,0-2.6-0.8-3.5-2.4v2.1H524.1z M530,40.1c-1.7,0-2.6,1.2-2.6,3.6c0,2.5,0.8,3.7,2.6,3.7c1.7,0,2.5-1.2,2.5-3.7
	C532.6,41.3,531.7,40.1,530,40.1"/>
<path class="st0" d="M538,51.2h3.5c0.3,0.8,0.9,1.2,2,1.2c2.6,0,2.7-1.9,2.7-4v-0.5c-0.8,1.4-1.9,2.1-3.5,2.1c-3.2,0-5-3-5-6
	c0-3.4,1.5-6.6,5-6.6c1.5,0,2.7,0.7,3.5,2.2v-1.8h3.3v10.4c0,3.6-0.4,6.8-6,6.8C540.2,54.9,538.4,53.7,538,51.2 M541,43.7
	c0,2.2,0.9,3.5,2.5,3.5c1.7,0,2.5-1.2,2.5-3.6c0-2.4-0.9-3.5-2.6-3.5C541.9,40.1,541,41.3,541,43.7"/>
<path class="st0" d="M372.5,43.8c-0.2,0.8-0.3,1.6-0.4,2.4h0c-0.1-0.8-0.3-1.6-0.5-2.4l-0.7-2.8h-1.7l-0.7,2.9
	c-0.2,0.7-0.4,1.5-0.5,2.3h0c-0.1-0.8-0.3-1.6-0.4-2.3l-0.6-2.9h-2.2l2,7h2.1l0.7-2.5c0.2-0.7,0.3-1.3,0.5-2.2h0
	c0.1,0.9,0.3,1.5,0.4,2.2l0.7,2.5h2.1l2.2-7h-2.1L372.5,43.8z"/>
<path class="st0" d="M384,43.8c-0.2,0.8-0.3,1.6-0.4,2.4h0c-0.1-0.8-0.3-1.6-0.5-2.4l-0.7-2.8h-1.7l-0.7,2.9
	c-0.2,0.7-0.4,1.5-0.5,2.3h0c-0.1-0.8-0.3-1.6-0.4-2.3l-0.6-2.9h-2.2l2,7h2.1l0.7-2.5c0.2-0.7,0.3-1.3,0.5-2.2h0
	c0.1,0.9,0.3,1.5,0.4,2.2l0.7,2.5h2.1l2.2-7h-2.1L384,43.8z"/>
<path class="st0" d="M396.1,41.1l-0.6,2.8c-0.2,0.8-0.3,1.6-0.4,2.4h0c-0.1-0.8-0.3-1.6-0.5-2.4l-0.7-2.8h-1.7l-0.7,2.9
	c-0.2,0.7-0.4,1.5-0.5,2.3h0c-0.1-0.8-0.3-1.6-0.4-2.3l-0.6-2.9h-2.2l2,7h2.1l0.7-2.5c0.2-0.7,0.3-1.3,0.5-2.2h0
	c0.1,0.9,0.3,1.5,0.4,2.2l0.7,2.5h2.1l2.2-7H396.1z"/>
<path class="st0" d="M381.4,22.6c-12.1,0-22,9.9-22,22c0,12.1,9.9,22,22,22c12.1,0,22-9.9,22-22C403.4,32.4,393.6,22.6,381.4,22.6
	 M381.4,64.5c-11,0-19.9-9-19.9-19.9s8.9-19.9,19.9-19.9c11,0,19.9,9,19.9,19.9S392.4,64.5,381.4,64.5"/>
</svg>
