<?xml version="1.0" encoding="utf-8"?>
<!-- Generator: Adobe Illustrator 23.1.1, SVG Export Plug-In . SVG Version: 6.00 Build 0)  -->
<svg version="1.1" id="Layer_1" xmlns="http://www.w3.org/2000/svg" xmlns:xlink="http://www.w3.org/1999/xlink" x="0px" y="0px"
	 viewBox="0 0 728 90" style="enable-background:new 0 0 728 90;" xml:space="preserve">
<style type="text/css">
	.st0{fill:#FFFFFF;}
</style>
<g>
	<path class="st0" d="M182.1,54.7c0,0.2-0.1,0.4-0.4,0.4h-3c-0.2,0-0.4-0.1-0.4-0.4V35.5h-10v19.2c0,0.2-0.1,0.4-0.4,0.4h-3
		c-0.2,0-0.4-0.1-0.4-0.4V32.5c0-0.2,0.1-0.4,0.4-0.4h16.7c0.2,0,0.4,0.1,0.4,0.4V54.7z"/>
	<path class="st0" d="M205.4,43.6c0,7.3-3.8,11.8-10,11.8c-6.2,0-10-4.6-10-11.8c0-7.2,3.8-11.8,10-11.8
		C201.6,31.8,205.4,36.3,205.4,43.6z M189.3,43.6c0,5.2,2.3,8.4,6.2,8.4c3.9,0,6.2-3.2,6.2-8.4c0-5.3-2.3-8.4-6.2-8.4
		C191.6,35.2,189.3,38.3,189.3,43.6z"/>
	<path class="st0" d="M217.8,54.7c0,0.2-0.1,0.4-0.4,0.4h-3c-0.2,0-0.4-0.1-0.4-0.4V35.5h-6.9c-0.2,0-0.4-0.1-0.4-0.4v-2.6
		c0-0.2,0.1-0.4,0.4-0.4h17.7c0.2,0,0.4,0.1,0.4,0.4v2.6c0,0.2-0.1,0.4-0.4,0.4h-7V54.7z"/>
	<path class="st0" d="M236.8,32.2c5,0,7.9,2.7,7.9,7.3c0,4.8-3.3,7.6-9.4,7.6h-3.5v7.7c0,0.2-0.1,0.4-0.4,0.4h-3
		c-0.2,0-0.4-0.1-0.4-0.4V32.5c0-0.2,0.1-0.4,0.4-0.4H236.8z M235.3,43.7c3.7,0,5.6-1.5,5.6-4.3c0-2.5-1.5-4-4.1-4h-5v8.3H235.3z"/>
	<path class="st0" d="M260.8,41.7c0.2,0,0.4,0.1,0.4,0.4v2.6c0,0.2-0.1,0.4-0.4,0.4h-9.1v6.8h11.7c0.2,0,0.4,0.1,0.4,0.4v2.6
		c0,0.2-0.1,0.4-0.4,0.4h-15c-0.2,0-0.4-0.1-0.4-0.4V32.5c0-0.2,0.1-0.4,0.4-0.4h15c0.3,0,0.4,0.2,0.3,0.4l-0.7,2.6
		c-0.1,0.2-0.2,0.3-0.4,0.3h-10.8v6.2H260.8z"/>
	<path class="st0" d="M282,35.2c-0.1,0.2-0.2,0.3-0.4,0.3h-10.8v5.8h5.1c5.3,0,8.4,2.6,8.4,7c0,4.3-2.8,6.8-7.6,6.8h-9.4
		c-0.2,0-0.4-0.1-0.4-0.4V32.5c0-0.2,0.1-0.4,0.4-0.4h15c0.3,0,0.4,0.2,0.3,0.4L282,35.2z M270.7,51.7h6c2.4,0,3.8-1.3,3.8-3.5
		c0-2.3-1.7-3.7-4.6-3.7h-5.2V51.7z"/>
	<path class="st0" d="M306,54.7c0,0.2-0.1,0.4-0.4,0.4h-3c-0.2,0-0.4-0.1-0.4-0.4V42.3c0-1.7,0-3,0.3-4.5c0.1-0.4-0.3-0.6-0.4-0.1
		c-0.3,0.7-0.7,1.4-1.1,2.2l-7,11.6c-0.6,1-1.2,2.3-1.7,3.4c-0.1,0.2-0.2,0.3-0.4,0.3h-3.9c-0.2,0-0.4-0.1-0.4-0.4V32.5
		c0-0.2,0.1-0.4,0.4-0.4h3c0.2,0,0.4,0.1,0.4,0.4v12.3c0,1.8-0.1,3.1-0.3,4.6c-0.1,0.4,0.3,0.5,0.5,0.1c0.3-0.7,0.7-1.4,1.1-2.2
		l7-11.6c0.6-1,1.2-2.3,1.7-3.4c0.1-0.2,0.2-0.3,0.4-0.3h3.9c0.2,0,0.4,0.1,0.4,0.4V54.7z"/>
	<path class="st0" d="M320.1,54.7c0,0.2-0.1,0.4-0.4,0.4h-3c-0.2,0-0.4-0.1-0.4-0.4V35.5h-6.9c-0.2,0-0.4-0.1-0.4-0.4v-2.6
		c0-0.2,0.1-0.4,0.4-0.4H327c0.2,0,0.4,0.1,0.4,0.4v2.6c0,0.2-0.1,0.4-0.4,0.4h-7V54.7z"/>
	<path class="st0" d="M343.2,41.7c0.2,0,0.4,0.1,0.4,0.4v2.6c0,0.2-0.1,0.4-0.4,0.4h-9.1v6.8h11.7c0.2,0,0.4,0.1,0.4,0.4v2.6
		c0,0.2-0.1,0.4-0.4,0.4h-15c-0.2,0-0.4-0.1-0.4-0.4V32.5c0-0.2,0.1-0.4,0.4-0.4h15c0.3,0,0.4,0.2,0.3,0.4l-0.7,2.6
		c-0.1,0.2-0.2,0.3-0.4,0.3h-10.8v6.2H343.2z"/>
	<path class="st0" d="M367.7,54.7c0,0.2-0.1,0.4-0.4,0.4h-3c-0.2,0-0.4-0.1-0.4-0.4V35.5h-8.2v8.1c0,5.8-1.7,9.3-5.5,11.3l-1.1,0.6
		c-0.2,0.1-0.4,0.1-0.5-0.1l-1.1-2.4c-0.1-0.2,0-0.4,0.2-0.5l1.2-0.6c2.2-1.2,3.2-3.8,3.2-8.3V32.5c0-0.2,0.1-0.4,0.4-0.4h15
		c0.2,0,0.4,0.1,0.4,0.4V54.7z"/>
	<path class="st0" d="M385.9,54.6c-1.8,0.6-3,0.9-4.8,0.9c-6.3,0-10.1-4.6-10.1-11.8c0-7.2,3.8-11.8,10.1-11.8
		c1.9,0,3.1,0.2,4.8,0.8l1.4,0.5c0.2,0.1,0.3,0.2,0.2,0.4l-0.9,2.5c-0.1,0.2-0.2,0.3-0.4,0.2l-1.5-0.5c-1.1-0.4-2.1-0.5-3.7-0.6
		c-4,0-6.3,3.1-6.3,8.4c0,5.3,2.3,8.4,6.3,8.4c1.4,0,2.4-0.1,3.7-0.6l1.4-0.5c0.2-0.1,0.4,0,0.5,0.2l0.9,2.5c0.1,0.2,0,0.4-0.2,0.5
		L385.9,54.6z"/>
	<path class="st0" d="M404.9,38.9c-1.2,2-2.9,3.5-4.6,4.1c-0.2,0.1-0.3,0.3,0,0.4c1.9,0.8,3.5,2.4,4.8,4.5l4.1,6.7
		c0.2,0.2,0,0.4-0.3,0.4h-3.3c-0.2,0-0.3-0.1-0.5-0.2l-3.2-5.2c-1.5-2.6-3.8-4.6-6.2-4.6H395v9.8c0,0.2-0.1,0.4-0.4,0.4h-3
		c-0.2,0-0.4-0.1-0.4-0.4V32.5c0-0.2,0.1-0.4,0.4-0.4h3c0.2,0,0.4,0.1,0.4,0.4v9.1h0.7c2.4,0,4.6-2,6-4.3l3-4.9
		c0.1-0.2,0.3-0.2,0.5-0.2h3.3c0.3,0,0.4,0.2,0.2,0.4L404.9,38.9z"/>
	<path class="st0" d="M430.8,54.7c0,0.2-0.1,0.4-0.4,0.4h-3c-0.2,0-0.4-0.1-0.4-0.4V42.3c0-1.7,0-3,0.3-4.5c0.1-0.4-0.3-0.6-0.4-0.1
		c-0.3,0.7-0.7,1.4-1.1,2.2l-7,11.6c-0.6,1-1.2,2.3-1.7,3.4c-0.1,0.2-0.2,0.3-0.4,0.3h-3.9c-0.2,0-0.4-0.1-0.4-0.4V32.5
		c0-0.2,0.1-0.4,0.4-0.4h3c0.2,0,0.4,0.1,0.4,0.4v12.3c0,1.8-0.1,3.1-0.3,4.6c-0.1,0.4,0.3,0.5,0.5,0.1c0.3-0.7,0.7-1.4,1.1-2.2
		l7-11.6c0.6-1,1.2-2.3,1.7-3.4c0.1-0.2,0.2-0.3,0.4-0.3h3.9c0.2,0,0.4,0.1,0.4,0.4V54.7z"/>
	<path class="st0" d="M454.6,38.9c-1.2,2-2.9,3.5-4.6,4.1c-0.2,0.1-0.3,0.3,0,0.4c1.9,0.8,3.5,2.4,4.8,4.5l4.1,6.7
		c0.2,0.2,0,0.4-0.3,0.4h-3.3c-0.2,0-0.3-0.1-0.5-0.2l-3.2-5.2c-1.5-2.6-3.8-4.6-6.2-4.6h-0.8v9.8c0,0.2-0.1,0.4-0.4,0.4h-3
		c-0.2,0-0.4-0.1-0.4-0.4V32.5c0-0.2,0.1-0.4,0.4-0.4h3c0.2,0,0.4,0.1,0.4,0.4v9.1h0.7c2.4,0,4.6-2,6-4.3l3-4.9
		c0.1-0.2,0.3-0.2,0.5-0.2h3.3c0.3,0,0.4,0.2,0.2,0.4L454.6,38.9z"/>
	<path class="st0" d="M470.7,32.2c5,0,7.9,2.7,7.9,7.3c0,4.8-3.3,7.6-9.4,7.6h-3.5v7.7c0,0.2-0.1,0.4-0.4,0.4h-3
		c-0.2,0-0.4-0.1-0.4-0.4V32.5c0-0.2,0.1-0.4,0.4-0.4H470.7z M469.2,43.7c3.7,0,5.6-1.5,5.6-4.3c0-2.5-1.5-4-4.1-4h-5v8.3H469.2z"/>
	<path class="st0" d="M494.7,41.7c0.2,0,0.4,0.1,0.4,0.4v2.6c0,0.2-0.1,0.4-0.4,0.4h-9.1v6.8h11.7c0.2,0,0.4,0.1,0.4,0.4v2.6
		c0,0.2-0.1,0.4-0.4,0.4h-15c-0.2,0-0.4-0.1-0.4-0.4V32.5c0-0.2,0.1-0.4,0.4-0.4h15c0.3,0,0.4,0.2,0.3,0.4l-0.7,2.6
		c-0.1,0.2-0.2,0.3-0.4,0.3h-10.8v6.2H494.7z"/>
	<path class="st0" d="M522,51.7c0.2,0,0.4,0.1,0.4,0.4v8.7c0,0.2-0.1,0.4-0.4,0.4h-2.8c-0.2,0-0.4-0.1-0.4-0.4V55h-15.7v5.8
		c0,0.2-0.1,0.4-0.4,0.4H500c-0.2,0-0.4-0.1-0.4-0.4v-8.7c0-0.2,0.1-0.4,0.4-0.4h1.6l1.6-3.1c0.7-1.3,0.9-2.9,0.9-5v-11
		c0-0.2,0.1-0.4,0.4-0.4h15c0.2,0,0.4,0.1,0.4,0.4v19.2H522z M507.9,43.6c0,2.8-0.5,4.8-1.4,6.5l-0.8,1.6h10.4V35.5h-8.2V43.6z"/>
	<path class="st0" d="M544,54.7c0,0.2-0.1,0.4-0.4,0.4h-3c-0.2,0-0.4-0.1-0.4-0.4V42.3c0-1.7,0-3,0.3-4.5c0.1-0.4-0.3-0.6-0.4-0.1
		c-0.3,0.7-0.7,1.4-1.1,2.2l-7,11.6c-0.6,1-1.2,2.3-1.7,3.4c-0.1,0.2-0.2,0.3-0.4,0.3h-3.9c-0.2,0-0.4-0.1-0.4-0.4V32.5
		c0-0.2,0.1-0.4,0.4-0.4h3c0.2,0,0.4,0.1,0.4,0.4v12.3c0,1.8-0.1,3.1-0.3,4.6c-0.1,0.4,0.3,0.5,0.5,0.1c0.3-0.7,0.7-1.4,1.1-2.2
		l7-11.6c0.6-1,1.2-2.3,1.7-3.4c0.1-0.2,0.2-0.3,0.4-0.3h3.9c0.2,0,0.4,0.1,0.4,0.4V54.7z"/>
	<path class="st0" d="M558,54.7c0,0.2-0.1,0.4-0.4,0.4h-3c-0.2,0-0.4-0.1-0.4-0.4V35.5h-6.9c-0.2,0-0.4-0.1-0.4-0.4v-2.6
		c0-0.2,0.1-0.4,0.4-0.4H565c0.2,0,0.4,0.1,0.4,0.4v2.6c0,0.2-0.1,0.4-0.4,0.4h-7V54.7z"/>
</g>
</svg>
