<?xml version="1.0" encoding="utf-8"?>
<!-- Generator: Adobe Illustrator 23.1.1, SVG Export Plug-In . SVG Version: 6.00 Build 0)  -->
<svg version="1.1" id="Layer_1" xmlns="http://www.w3.org/2000/svg" xmlns:xlink="http://www.w3.org/1999/xlink" x="0px" y="0px"
	 viewBox="0 0 728 90" style="enable-background:new 0 0 728 90;" xml:space="preserve">
<style type="text/css">
	.st0{fill:#FFFFFF;}
</style>
<g>
	<path class="st0" d="M351.8,73.7c0.2,0,0.3,0.1,0.3,0.3v6.2c0,0.2-0.1,0.3-0.3,0.3h-2c-0.2,0-0.3-0.1-0.3-0.3v-4.1h-11v4.1
		c0,0.2-0.1,0.3-0.3,0.3h-2c-0.2,0-0.3-0.1-0.3-0.3V74c0-0.2,0.1-0.3,0.3-0.3h1.2l1.1-2.2c0.5-0.9,0.6-2.1,0.6-3.6v-7.8
		c0-0.2,0.1-0.3,0.3-0.3H350c0.2,0,0.3,0.1,0.3,0.3v13.5H351.8z M341.8,68c0,1.9-0.3,3.4-1,4.6l-0.6,1.2h7.3V62.3h-5.8V68z"/>
	<path class="st0" d="M356.7,75.9c0,0.1-0.1,0.2-0.3,0.2h-2.2c-0.2,0-0.3-0.1-0.2-0.3l4-10.1c0.7-1.8,1.3-3.7,1.8-5.5
		c0-0.2,0.1-0.2,0.3-0.2h2.8c0.2,0,0.3,0.1,0.3,0.2c0.5,1.8,1.1,3.6,1.8,5.5l4,10.1c0.1,0.2,0,0.3-0.2,0.3h-2.2
		c-0.1,0-0.2-0.1-0.3-0.2l-1.1-2.9h-7.2L356.7,75.9z M363,67.6c-0.5-1.4-1.1-3.1-1.3-4.3c-0.1-0.3-0.3-0.3-0.4,0
		c-0.2,1.2-0.8,2.8-1.3,4.3l-1.2,3h5.4L363,67.6z"/>
	<path class="st0" d="M389.4,75.8c0,0.2-0.1,0.3-0.3,0.3H387c-0.2,0-0.3-0.1-0.3-0.3v-8.7c0-1.2,0-2.1,0.2-3.2
		c0-0.3-0.2-0.4-0.3-0.1c-0.2,0.5-0.5,1-0.8,1.5l-4.9,8.1c-0.4,0.7-0.9,1.6-1.2,2.4c-0.1,0.1-0.2,0.2-0.3,0.2h-2.8
		c-0.2,0-0.3-0.1-0.3-0.3V60.2c0-0.2,0.1-0.3,0.3-0.3h2.1c0.2,0,0.3,0.1,0.3,0.3v8.7c0,1.2-0.1,2.2-0.2,3.2c0,0.3,0.2,0.3,0.3,0.1
		c0.2-0.5,0.5-1,0.8-1.5l4.9-8.1c0.4-0.7,0.9-1.6,1.2-2.4c0.1-0.1,0.2-0.2,0.3-0.2h2.8c0.2,0,0.3,0.1,0.3,0.3V75.8z"/>
	<path class="st0" d="M406,76.1c-0.2,0-0.3-0.1-0.3-0.3v-7.5c0-1.4,0-3.1,0.2-4.4c0-0.3-0.2-0.4-0.3-0.1c-0.2,0.6-0.5,1.2-0.7,1.8
		l-2.2,5.2c-0.3,0.6-0.6,1.5-0.8,2.3c0,0.1-0.1,0.2-0.3,0.2h-1.9c-0.1,0-0.2-0.1-0.3-0.2c-0.3-0.8-0.6-1.7-0.8-2.3l-2.2-5.2
		c-0.3-0.6-0.5-1.2-0.8-1.8c-0.1-0.3-0.3-0.2-0.3,0.1c0.2,1.3,0.2,3.1,0.2,4.4v7.5c0,0.2-0.1,0.3-0.3,0.3h-2.1
		c-0.2,0-0.3-0.1-0.3-0.3V60.2c0-0.2,0.1-0.3,0.3-0.3h3.2c0.2,0,0.3,0.1,0.3,0.2c0.2,0.6,0.4,1.2,0.6,1.7l2.3,5.5
		c0.3,0.8,0.7,1.9,0.9,2.7c0.1,0.3,0.3,0.3,0.3,0c0.2-0.8,0.6-1.9,0.9-2.7l2.3-5.5c0.2-0.5,0.5-1.2,0.6-1.7c0-0.1,0.1-0.2,0.3-0.2
		h3.2c0.2,0,0.3,0.1,0.3,0.3v15.6c0,0.2-0.1,0.3-0.3,0.3H406z"/>
	<path class="st0" d="M413.7,75.9c0,0.1-0.1,0.2-0.3,0.2h-2.2c-0.2,0-0.3-0.1-0.2-0.3l4-10.1c0.7-1.8,1.3-3.7,1.8-5.5
		c0-0.2,0.1-0.2,0.3-0.2h2.8c0.2,0,0.3,0.1,0.3,0.2c0.5,1.8,1.1,3.6,1.8,5.5l4,10.1c0.1,0.2,0,0.3-0.2,0.3h-2.2
		c-0.1,0-0.2-0.1-0.3-0.2l-1.1-2.9h-7.2L413.7,75.9z M420,67.6c-0.5-1.4-1.1-3.1-1.3-4.3c-0.1-0.3-0.3-0.3-0.4,0
		c-0.2,1.2-0.8,2.8-1.3,4.3l-1.2,3h5.4L420,67.6z"/>
	<path class="st0" d="M441.7,76.1c-0.2,0-0.3-0.1-0.3-0.3v-7.5c0-1.4,0-3.1,0.2-4.4c0-0.3-0.2-0.4-0.3-0.1c-0.2,0.6-0.5,1.2-0.7,1.8
		l-2.2,5.2c-0.3,0.6-0.6,1.5-0.8,2.3c0,0.1-0.1,0.2-0.3,0.2h-1.9c-0.1,0-0.2-0.1-0.3-0.2c-0.3-0.8-0.6-1.7-0.8-2.3l-2.2-5.2
		c-0.3-0.6-0.5-1.2-0.8-1.8c-0.1-0.3-0.3-0.2-0.3,0.1c0.2,1.3,0.2,3.1,0.2,4.4v7.5c0,0.2-0.1,0.3-0.3,0.3h-2.1
		c-0.2,0-0.3-0.1-0.3-0.3V60.2c0-0.2,0.1-0.3,0.3-0.3h3.2c0.2,0,0.3,0.1,0.3,0.2c0.2,0.6,0.4,1.2,0.6,1.7l2.3,5.5
		c0.3,0.8,0.7,1.9,0.9,2.7c0.1,0.3,0.3,0.3,0.3,0c0.2-0.8,0.6-1.9,0.9-2.7l2.3-5.5c0.2-0.5,0.5-1.2,0.6-1.7c0-0.1,0.1-0.2,0.3-0.2
		h3.2c0.2,0,0.3,0.1,0.3,0.3v15.6c0,0.2-0.1,0.3-0.3,0.3H441.7z"/>
	<path class="st0" d="M464.6,75.8c0,0.2-0.1,0.3-0.3,0.3h-2.1c-0.2,0-0.3-0.1-0.3-0.3V62.3h-7v13.5c0,0.2-0.1,0.3-0.3,0.3h-2.1
		c-0.2,0-0.3-0.1-0.3-0.3V60.2c0-0.2,0.1-0.3,0.3-0.3h11.7c0.2,0,0.3,0.1,0.3,0.3V75.8z"/>
	<path class="st0" d="M481.6,68c0,5.1-2.7,8.3-7,8.3c-4.4,0-7-3.2-7-8.3c0-5.1,2.7-8.3,7-8.3C478.9,59.7,481.6,62.9,481.6,68z
		 M470.2,68c0,3.7,1.6,5.9,4.4,5.9c2.7,0,4.3-2.2,4.3-5.9c0-3.7-1.6-5.9-4.3-5.9C471.8,62.1,470.2,64.3,470.2,68z"/>
	<path class="st0" d="M491,60c3.2,0,5.2,1.5,5.2,4.1c0,1.9-1.1,3-2.1,3.4c-0.3,0.1-0.3,0.3,0,0.4c1.3,0.4,2.7,1.6,2.7,3.8
		c0,2.7-2,4.4-5.3,4.4h-6.6c-0.2,0-0.3-0.1-0.3-0.3V60.2c0-0.2,0.1-0.3,0.3-0.3H491z M490.3,66.6c2.1,0,3.2-0.9,3.2-2.3
		c0-1.3-1-2.1-2.5-2.1h-3.8v4.4H490.3z M491.3,73.7c1.7,0,2.7-0.8,2.7-2.3c0-1.7-1.2-2.5-3.5-2.5h-3.4v4.8H491.3z"/>
	<path class="st0" d="M508.6,66.6c0.2,0,0.3,0.1,0.3,0.3v1.8c0,0.2-0.1,0.3-0.3,0.3h-6.4v4.8h8.2c0.2,0,0.3,0.1,0.3,0.3v1.8
		c0,0.2-0.1,0.3-0.3,0.3h-10.6c-0.2,0-0.3-0.1-0.3-0.3V60.2c0-0.2,0.1-0.3,0.3-0.3h10.6c0.2,0,0.3,0.1,0.2,0.3l-0.5,1.8
		c0,0.1-0.1,0.2-0.3,0.2h-7.6v4.4H508.6z"/>
	<path class="st0" d="M525.1,75.8c0,0.2-0.1,0.3-0.3,0.3h-2.1c-0.2,0-0.3-0.1-0.3-0.3v-6.2l-1.2,0.4c-1,0.3-1.9,0.5-3,0.5
		c-3.3,0-5.2-2-5.2-5.3v-5c0-0.2,0.1-0.3,0.3-0.3h2.1c0.2,0,0.3,0.1,0.3,0.3v4.6c0,2.2,1,3.3,2.8,3.3c0.9,0,1.5-0.1,2.3-0.3l1.7-0.6
		v-7c0-0.2,0.1-0.3,0.3-0.3h2.1c0.2,0,0.3,0.1,0.3,0.3V75.8z"/>
	<path class="st0" d="M537.6,66.6c0.2,0,0.3,0.1,0.3,0.3v1.8c0,0.2-0.1,0.3-0.3,0.3h-6.4v4.8h8.2c0.2,0,0.3,0.1,0.3,0.3v1.8
		c0,0.2-0.1,0.3-0.3,0.3h-10.6c-0.2,0-0.3-0.1-0.3-0.3V60.2c0-0.2,0.1-0.3,0.3-0.3h10.6c0.2,0,0.3,0.1,0.2,0.3l-0.5,1.8
		c0,0.1-0.1,0.2-0.3,0.2h-7.6v4.4H537.6z"/>
</g>
</svg>
