<?xml version="1.0" encoding="utf-8"?>
<!-- Generator: Adobe Illustrator 23.1.1, SVG Export Plug-In . SVG Version: 6.00 Build 0)  -->
<svg version="1.1" id="Layer_1" xmlns="http://www.w3.org/2000/svg" xmlns:xlink="http://www.w3.org/1999/xlink" x="0px" y="0px"
	 viewBox="0 0 728 90" style="enable-background:new 0 0 728 90;" xml:space="preserve">
<style type="text/css">
	.st0{fill:#FFFFFF;}
</style>
<g>
	<path class="st0" d="M201.5,44.9c-2,0.6-3.9,0.9-6.4,0.9c-7.2,0-11.3-4.5-11.3-11.9c0-7.8,4.3-19.1,16.3-19.1
		c2.3,0,4.1,0.4,6.3,1.2l1.7,0.6c0.3,0.1,0.4,0.3,0.3,0.7l-2,3.8c-0.1,0.3-0.4,0.4-0.7,0.3l-1.8-0.6c-1.2-0.5-2.4-0.6-4.2-0.6
		c-7.2,0-9.9,8.4-9.9,13.5c0,4.7,2.1,6.9,6,6.9c1.5,0,3-0.3,4.8-0.8l2.1-0.6c0.3-0.1,0.6,0,0.6,0.3l0.9,4.2c0,0.3-0.1,0.5-0.4,0.6
		L201.5,44.9z"/>
	<path class="st0" d="M230.5,27.2c0.3,0,0.5,0.2,0.5,0.6l-0.7,4.2c0,0.3-0.3,0.5-0.6,0.5h-11.3l-1.3,7.7h14.6c0.3,0,0.5,0.2,0.5,0.6
		l-0.8,4.2c0,0.3-0.3,0.5-0.6,0.5h-20c-0.3,0-0.5-0.2-0.5-0.6l5.1-29.1c0-0.3,0.3-0.5,0.6-0.5h20.2c0.4,0,0.5,0.3,0.4,0.6l-1.9,4.2
		c-0.1,0.3-0.3,0.4-0.6,0.4h-13.5l-1.2,6.9H230.5z"/>
	<path class="st0" d="M260.6,19.9c-0.1,0.3-0.3,0.4-0.6,0.4h-12.5l-4.2,24.5c0,0.3-0.3,0.5-0.6,0.5h-4.9c-0.3,0-0.5-0.2-0.5-0.6
		l5.1-29.1c0-0.3,0.3-0.5,0.6-0.5h19.1c0.4,0,0.5,0.3,0.4,0.6L260.6,19.9z"/>
	<path class="st0" d="M263.7,44.9c-0.2,0.2-0.3,0.3-0.6,0.3h-5.3c-0.4,0-0.6-0.3-0.3-0.6l9.8-17.6c2.1-3.9,4.1-7.7,5.7-11.6
		c0.1-0.3,0.3-0.4,0.6-0.4h6.6c0.3,0,0.5,0.2,0.6,0.5c0.3,3.8,0.9,7.6,1.6,11.4l3.6,17.6c0.1,0.3-0.1,0.6-0.4,0.6h-4.9
		c-0.3,0-0.5-0.2-0.6-0.5l-0.9-4.4h-13L263.7,44.9z M277.3,31.5c-0.6-3-1.2-6.6-1.2-9.1c0-0.5-0.6-0.5-0.8,0c-0.9,2.4-2.7,6-4.4,9.1
		l-2,3.6h9.1L277.3,31.5z"/>
	<path class="st0" d="M320.1,27.2c0.3,0,0.5,0.2,0.5,0.6l-0.7,4.2c0,0.3-0.3,0.5-0.6,0.5h-11.3l-1.3,7.7h14.6c0.3,0,0.5,0.2,0.5,0.6
		l-0.8,4.2c0,0.3-0.3,0.5-0.6,0.5h-20c-0.3,0-0.5-0.2-0.5-0.6l5.1-29.1c0-0.3,0.3-0.5,0.6-0.5h20.2c0.4,0,0.5,0.3,0.4,0.6l-1.9,4.2
		c-0.1,0.3-0.3,0.4-0.6,0.4h-13.5l-1.2,6.9H320.1z"/>
	<path class="st0" d="M353.9,15.1c5.7,0,8.7,2.5,8.7,6.7c0,4.4-2.9,6.6-4.8,7.4c-0.6,0.3-0.7,0.6-0.2,0.9c1.6,0.6,3.7,2.3,3.7,5.7
		c0,5.9-4.6,9.6-11.9,9.6h-12.3c-0.3,0-0.5-0.2-0.5-0.6l5.1-29.1c0-0.3,0.3-0.5,0.6-0.5H353.9z M350.3,40.1c3.1,0,5-1.7,5-4.4
		c0-2.1-1.7-3.3-4.6-3.3h-6l-1.3,7.7H350.3z M350.9,27.2c3.6,0,5.7-1.6,5.7-4.2c0-1.7-1.2-2.7-3.3-2.7h-6.5l-1.2,6.9H350.9z"/>
	<path class="st0" d="M382.4,15.1c5.9,0,9.3,3.3,9.2,8.9c-0.2,7.1-5.5,11.1-14.2,11.1h-4.2l-1.6,9.6c0,0.3-0.3,0.5-0.6,0.5h-4.9
		c-0.3,0-0.5-0.2-0.5-0.6l5.1-29.1c0-0.3,0.3-0.5,0.6-0.5H382.4z M378,30c4.6,0,7.5-2,7.6-5.6c0.1-2.6-1.3-4.1-3.8-4.1h-6l-1.7,9.7
		H378z"/>
	<path class="st0" d="M414.2,27.2c0.3,0,0.5,0.2,0.5,0.6l-0.7,4.2c0,0.3-0.3,0.5-0.6,0.5h-11.3l-1.3,7.7h14.6c0.3,0,0.5,0.2,0.5,0.6
		l-0.8,4.2c0,0.3-0.3,0.5-0.6,0.5h-20c-0.3,0-0.5-0.2-0.5-0.6l5.1-29.1c0-0.3,0.3-0.5,0.6-0.5h20.2c0.4,0,0.5,0.3,0.4,0.6l-1.9,4.2
		c-0.1,0.3-0.3,0.4-0.6,0.4h-13.5l-1.2,6.9H414.2z"/>
	<path class="st0" d="M445.3,45.3c-0.3,0-0.5-0.2-0.5-0.6l2-11.4c0.5-2.9,1.2-6.7,2.1-9.5c0.2-0.6-0.3-0.7-0.6-0.2
		c-0.6,1.1-1.2,2.2-1.9,3.4l-4.7,8.1c-0.6,1-1.6,3-2.2,4.3c-0.1,0.3-0.3,0.4-0.6,0.4h-4.4c-0.3,0-0.5-0.2-0.6-0.5
		c-0.2-1.2-0.5-3-0.7-4.1l-1.9-8.2c-0.2-1.2-0.5-2.3-0.8-3.4c-0.1-0.6-0.6-0.4-0.6,0.2c-0.1,2.8-0.6,6.6-1.1,9.5l-2,11.5
		c0,0.3-0.3,0.5-0.6,0.5h-4.9c-0.3,0-0.5-0.2-0.5-0.6l5.1-29.1c0-0.3,0.3-0.5,0.6-0.5h7.2c0.3,0,0.5,0.2,0.5,0.5
		c0.1,0.9,0.3,2.1,0.5,3l1.7,7.5c0.3,1.8,0.8,4.9,1,6.6c0,0.5,0.5,0.5,0.7,0c0.7-1.8,2.2-4.9,3.1-6.6l4.3-7.5
		c0.5-0.9,1.1-2.1,1.5-3.1c0.1-0.3,0.3-0.4,0.6-0.4h7.6c0.3,0,0.5,0.2,0.5,0.6l-5.1,29.1c0,0.3-0.3,0.5-0.6,0.5H445.3z"/>
	<path class="st0" d="M477.8,27.2c0.3,0,0.5,0.2,0.5,0.6l-0.7,4.2c0,0.3-0.3,0.5-0.6,0.5h-11.3l-1.3,7.7h14.6c0.3,0,0.5,0.2,0.5,0.6
		l-0.8,4.2c0,0.3-0.3,0.5-0.6,0.5h-20c-0.3,0-0.5-0.2-0.5-0.6l5.1-29.1c0-0.3,0.3-0.5,0.6-0.5h20.2c0.4,0,0.5,0.3,0.4,0.6l-1.9,4.2
		c-0.1,0.3-0.3,0.4-0.6,0.4h-13.5l-1.2,6.9H477.8z"/>
	<path class="st0" d="M498.5,44.8c0,0.3-0.3,0.5-0.6,0.5h-4.9c-0.3,0-0.5-0.2-0.5-0.6l4.2-24.4h-8.7c-0.3,0-0.5-0.2-0.5-0.6l0.7-4.2
		c0-0.3,0.3-0.5,0.6-0.5h23.5c0.3,0,0.5,0.2,0.5,0.6l-0.7,4.2c0,0.3-0.3,0.5-0.6,0.5h-8.8L498.5,44.8z"/>
	<path class="st0" d="M540.9,26.5c0,7.7-4.2,19.2-16,19.2c-7.2,0-11.3-4.5-11.3-11.9c0-7.7,4.2-19.1,16-19.1
		C536.8,14.7,540.9,19.1,540.9,26.5z M519.5,33.6c0,4.3,2,6.8,5.6,6.8c7.2,0,9.8-8.7,9.8-13.7c0-4.3-2-6.7-5.6-6.7
		C522.2,19.9,519.5,28.5,519.5,33.6z"/>
</g>
</svg>
