<?xml version="1.0" encoding="utf-8"?>
<!-- Generator: Adobe Illustrator 23.1.1, SVG Export Plug-In . SVG Version: 6.00 Build 0)  -->
<svg version="1.1" id="Layer_1" xmlns="http://www.w3.org/2000/svg" xmlns:xlink="http://www.w3.org/1999/xlink" x="0px" y="0px"
	 viewBox="0 0 50 27" style="enable-background:new 0 0 50 27;" xml:space="preserve">
<style type="text/css">
	.st0{fill:#FFFFFF;}
	.st1{clip-path:url(#SVGID_2_);fill:#FFFFFF;}
</style>
<g>
	<path class="st0" d="M0.6,0.6h48.9v25.8H0.6V0.6z M0,27h50V0H0V27z"/>
	<polygon class="st0" points="26.8,3.8 29.3,3.8 29.3,3.2 20.9,3.2 20.9,3.8 23.5,3.8 23.5,23.1 20.9,23.1 20.9,23.7 29.3,23.7 
		29.3,23.1 26.8,23.1 	"/>
	<g>
		<defs>
			<rect id="SVGID_1_" width="50" height="27"/>
		</defs>
		<clipPath id="SVGID_2_">
			<use xlink:href="#SVGID_1_"  style="overflow:visible;"/>
		</clipPath>
		<path class="st1" d="M19.3,9.1h-0.6c0,0-0.7-5.8-6.2-5.8c-5.2,0-5.5,4.8-5.5,8.8c0,6.3,0.7,11.5,5.8,11.5c5.5,0,6.4-5.8,6.4-5.8
			h0.6v6h-0.4l-1.2-1.2c0,0-2.3,1.7-5.5,1.7C7.1,24.1,3,19.4,3,13.7c0-6,3.8-10.9,9.3-10.9c3.3,0,5,1.8,5,1.8l1.5-1.4h0.4L19.3,9.1z
			"/>
		<path class="st1" d="M38.2,3c-5.4,0-8.8,5.9-8.8,10.6c0,4.6,3.4,10.6,8.8,10.6s8.8-6,8.8-10.6C47,8.9,43.6,3,38.2,3 M38.2,23.6
			c-5.3,0-5-5.2-5-10s-0.3-10.1,5-10.1s5,5.3,5,10.1S43.5,23.6,38.2,23.6"/>
	</g>
</g>
</svg>
