<svg xmlns="http://www.w3.org/2000/svg" viewBox="0 0 432.38 175.33"><title>CSO-logo-white-no-tag</title><path d="M132.08,122.7c-8.94,23.83-23.83,34.93-46.86,34.93-29.73,0-51.67-26.16-53.81-63-.11-1.95-.21-3.91-.21-5.92,0-50,21.63-72.41,43.08-72.41,33.26,0,47.67,30,53.3,48l1,3.26h11.18v-.17L138.69.93H126.83l-6,11.75C110.47,5.44,96.89.93,84.75.93,37.23.93,0,39.9,0,89.64,0,91.81.13,93.93.24,96c1.16,22.4,8.36,41.51,21.15,55.5,14.21,15.56,34.27,23.79,58,23.79,30.15,0,53-16.12,66-46.6l1.66-3.88L134,117.66Zm93.68-47.5c-5-2.46-9.52-4.37-13.88-6.21-5.79-2.45-11.26-4.77-18.08-8.37-10.49-5.61-15.14-11.1-16.42-20a40.42,40.42,0,0,1-.43-5.71c0-11.66,9.2-19.79,22.35-19.79,21.26,0,33.19,12.08,44,44.55l1.06,3.19H256L254.62.93H243.37l-6.67,12c-9.38-6.37-22.82-12-35.53-12C175,.93,156,20.22,156,46.8c0,1.83.16,3.52.3,5.24,1.42,18.56,10.53,30.93,29.19,39.5,10.89,5,16.32,7.32,23.84,10.49l10.5,4.46c12.62,5.38,19.3,14.76,19.3,27.15,0,1.26-.17,2.39-.27,3.56-1.32,15-10.87,23.21-27.44,23.21-22.08,0-36-13.22-48-45.63l-1.13-3H151l1.9,62.06v.34h11.21L170.87,162c9.38,6.07,22.67,12.62,39.62,12.62,24.26,0,49.93-17.41,51.32-49.68,0-.91.13-1.78.13-2.71C261.94,94.65,246.26,85,225.76,75.2ZM409.82,25.81C392,8.19,372.51,0,348.55,0a82.34,82.34,0,0,0-59.2,24.44h0C273,41,264.72,62.91,264.72,89.41c0,2,.15,3.88.26,5.8,1.25,22.41,9.62,41.41,25.15,56.45,16,15.48,35.86,23.67,57.49,23.67,23.83,0,44.06-8.13,60.1-24.18s24-36.22,24.55-61.68c0-1,.11-1.87.11-2.85C432.37,63,423.73,39.72,409.82,25.81ZM401.12,89c-.49,45.31-20,72.32-52.57,72.32-16.15,0-29.57-6.9-38.81-19.95C301.67,130,297,114.56,296.12,96.48c-.11-2.17-.19-4.36-.19-6.6C295.93,42.35,315.6,14,348.55,14c32.46,0,52.62,28.1,52.62,73.35C401.17,87.9,401.13,88.45,401.12,89Z" style="fill:#fff"/></svg>