<svg xmlns="http://www.w3.org/2000/svg" viewBox="0 0 389.16 78.72"><title>InfoWorld_logo-white-no-tag</title><polygon points="22.08 11.89 31.08 11.89 31.08 2.79 0 2.79 0 11.89 8.83 11.89 8.83 68.5 0 68.5 0 77.63 31.06 77.63 31.06 68.5 22.06 68.5 22.06 11.89 22.08 11.89" style="fill:#fff"/><path d="M64.1,20.14c-4.67,0-9.38,2-14,6l-2.72,2.34v-7.4H27.53v8.73h6.69v47.7H47.39v-40L48,37c3.46-2.78,6.94-4.19,10.35-4.19a5.73,5.73,0,0,1,5.11,2.5c.95,1.47,1.4,3.83,1.4,7.42V77.51H78V41.29C78,27.06,73.47,20.14,64.1,20.14Z" style="fill:#fff"/><path d="M109.92,20.63H97.48V17.17c0-5.6,1.94-7.52,4.88-8.7,2.67-1.07,7.07-.86,10.84,1.34V2.29A27.82,27.82,0,0,0,102.26,0c-5.41,0-10,1.85-12.72,5.07a19.75,19.75,0,0,0-4.31,13v2.55H79.29v9.19h5.94V77.63H97.39V29.82h12.52V20.63Z" style="fill:#fff"/><path d="M154.31,27.47a28.5,28.5,0,0,0-39.18,0c-5.34,5.22-8,12.53-8,21.72s2.7,16.5,8,21.72a28.47,28.47,0,0,0,39.24-.09c5.26-5.28,7.94-12.55,7.94-21.63S159.61,32.69,154.31,27.47ZM144.6,63.65v0a11.86,11.86,0,0,1-10,5.14A11.18,11.18,0,0,1,124.36,63c-2.09-3.51-3.14-8-3.14-13.35,0-13.42,4.51-20.23,13.42-20.23a11.6,11.6,0,0,1,10.08,5.44c2.3,3.37,3.47,8,3.47,13.91C148.19,55.42,147,60.42,144.6,63.65Z" style="fill:#fff"/><path d="M276.18,27.48a28.47,28.47,0,0,0-39.18,0c-5.34,5.22-8,12.53-8,21.72s2.71,16.5,8,21.72a28.47,28.47,0,0,0,39.24-.09c5.27-5.28,7.94-12.55,7.94-21.63S281.48,32.7,276.18,27.48Zm-9.72,36.17v0a11.84,11.84,0,0,1-9.95,5.14A11.21,11.21,0,0,1,246.23,63c-2.07-3.51-3.12-8-3.12-13.35,0-13.42,4.51-20.23,13.41-20.23a11.61,11.61,0,0,1,10.09,5.44c2.29,3.37,3.44,8,3.44,13.91C270,55.42,268.85,60.42,266.46,63.65Z" style="fill:#fff"/><path d="M302.67,35.42V21.08H284.36v8.73h5.31v47.7H302.9v-20c0-5.25.3-9.63,2-13.36,1.74-3.93,4.05-6.55,6.86-7.76a29.17,29.17,0,0,1,9.3-1.64V20.17c-6.06,0-15.21,6.2-18.39,15.25Z" style="fill:#fff"/><polygon points="319.91 9.92 324.7 9.92 324.7 77.63 338.1 77.63 338.1 0.46 319.91 0.46 319.91 9.92" style="fill:#fff"/><path d="M370.55.5V9.92h5.17V25.1a16.73,16.73,0,0,0-12.19-5.43c-6.21,0-11.51,2.64-15.79,7.8S341.25,40,341.25,49.19s2.18,16.5,6.48,21.72,9.59,7.8,15.79,7.8a17,17,0,0,0,12.19-5.4V77.5h13.45V.5Zm3.85,63.15h0c-2.21,3.42-5.16,5.14-8.76,5.14-4,0-7.07-2-9.06-5.79-1.84-3.51-2.76-8-2.76-13.35,0-13.42,4-20.23,11.82-20.23,3.73,0,6.72,1.82,8.88,5.44,2,3.37,3,8,3,13.91C377.56,55.42,376.49,60.42,374.4,63.65Z" style="fill:#fff"/><path d="M237.82,12.52v-10H216.24v10h6l-9.74,44-10.3-54V2.49H184.66v10h6.88v.26L182.22,56.6,171.66,12.52h6.46v-10H153v10h5.28s16.59,63.67,16.9,64.72H186L196,33l9.79,44.27h11.68c.33-1.07,14.74-64.72,14.74-64.72h5.56Z" style="fill:#fff"/></svg>