<svg xmlns="http://www.w3.org/2000/svg" xmlns:xlink="http://www.w3.org/1999/xlink" viewBox="0 0 2400 1440"><defs><style>.cls-1,.cls-11,.cls-15,.cls-16,.cls-21,.cls-22,.cls-24,.cls-25,.cls-26,.cls-27,.cls-29,.cls-30,.cls-31,.cls-32,.cls-35,.cls-4,.cls-5,.cls-6,.cls-7,.cls-9{fill:none;}.cls-2{fill:#fff;}.cls-3{fill:#f7f7f7;}.cls-4{stroke:#ccc;}.cls-11,.cls-15,.cls-16,.cls-21,.cls-22,.cls-26,.cls-27,.cls-29,.cls-32,.cls-4,.cls-5,.cls-6,.cls-7,.cls-9{stroke-miterlimit:10;}.cls-5{stroke:#ffb236;}.cls-16,.cls-25,.cls-35,.cls-6{stroke:#ff3636;}.cls-7{stroke:#18ce0f;}.cls-8{fill:#18ce0f;}.cls-9{stroke:#f96332;}.cls-10{fill:#f96332;}.cls-11,.cls-15{stroke:#2ca8ff;}.cls-12{fill:#2ca8ff;}.cls-13{fill:#ffb236;}.cls-14{clip-path:url(#clip-path);}.cls-15,.cls-16,.cls-21,.cls-22,.cls-24,.cls-25,.cls-26,.cls-29,.cls-30,.cls-32,.cls-35{stroke-linecap:round;}.cls-15,.cls-16{stroke-width:8px;}.cls-17{fill:#ffbe86;}.cls-18{fill:#ffd186;}.cls-19{fill:#ff3636;}.cls-20{fill:#bf2929;}.cls-21,.cls-26{stroke:#bf2929;}.cls-21,.cls-22,.cls-24,.cls-27{stroke-width:2px;}.cls-22{stroke:#171bbf;}.cls-23{fill:#2666ff;}.cls-24,.cls-29,.cls-30,.cls-31{stroke:#101280;}.cls-24,.cls-25,.cls-30,.cls-31,.cls-35{stroke-linejoin:round;}.cls-25{stroke-width:80px;}.cls-26{stroke-width:9px;}.cls-27{stroke:#f2f2f2;}.cls-28{fill:#ffac86;}.cls-29,.cls-32{stroke-width:4px;}.cls-30,.cls-31{stroke-width:5px;}.cls-32{stroke:#0b0fb2;}.cls-33{fill:#101280;}.cls-34{fill:#1f24ff;}.cls-35{stroke-width:20px;}</style><clipPath id="clip-path"><path class="cls-1" d="M131.42,1328.4H2323.23a0,0,0,0,1,0,0v0a70.51,70.51,0,0,1-70.51,70.51H201.93a70.51,70.51,0,0,1-70.51-70.51v0A0,0,0,0,1,131.42,1328.4Z"/></clipPath></defs><title>Artboard 1</title><g id="version_01" data-name="version 01"><rect class="cls-2" y="-3" width="2400" height="1440"/><path class="cls-3" d="M1238.27,1329.79H348s10.43-109.8,150-105S588.61,1056.5,710.52,1050s122.72,167.75,235,174.76,140,46.29,167.63,67.85C1154.85,1325.17,1238.27,1329.79,1238.27,1329.79Z"/><path class="cls-4" d="M1238.27,1329.79H348s10.43-90.86,150-86.89,90.63-139.26,212.54-144.61,122.72,138.81,235,144.61,140,38.31,167.63,56.15C1154.85,1326,1238.27,1329.79,1238.27,1329.79Z"/><path class="cls-2" d="M1238.27,1329.79H379.71s10.06-76.7,144.64-73.35,87.4-117.57,205-122.08S847.66,1251.54,956,1256.44s135,32.34,161.66,47.4C1157.83,1326.56,1238.27,1329.79,1238.27,1329.79Z"/><path class="cls-4" d="M1238.27,1329.79H379.71s10.06-48.14,144.64-46,87.4-73.78,205-76.62,118.34,73.55,226.63,76.62,135,20.3,161.66,29.75C1157.83,1327.76,1238.27,1329.79,1238.27,1329.79Z"/><path class="cls-3" d="M1238.27,1329.79h-751s8.79-28.64,126.52-27.39,76.46-43.9,179.3-45.59,103.53,43.76,198.25,45.59,118.1,12.07,141.42,17.7C1167.9,1328.58,1238.27,1329.79,1238.27,1329.79Z"/><path class="cls-4" d="M1238.27,1329.79h-751s8.79-16.67,126.52-16,76.46-25.55,179.3-26.53,103.53,25.47,198.25,26.53,118.1,7,141.42,10.31C1167.9,1329.08,1238.27,1329.79,1238.27,1329.79Z"/><path class="cls-3" d="M131.42,1328.4H2323.23a0,0,0,0,1,0,0v0a70.51,70.51,0,0,1-70.51,70.51H201.93a70.51,70.51,0,0,1-70.51-70.51v0A0,0,0,0,1,131.42,1328.4Z"/><polygon class="cls-4" points="1024.95 853.64 976.42 853.64 952.15 895.67 976.42 937.69 1024.95 937.69 1049.21 895.67 1024.95 853.64"/><polygon class="cls-4" points="249.41 453.48 181.11 453.48 146.96 512.63 181.11 571.77 249.41 571.77 283.56 512.63 249.41 453.48"/><polygon class="cls-4" points="443.22 379.43 381.37 379.43 350.44 433 381.37 486.56 443.22 486.56 474.15 433 443.22 379.43"/><polygon class="cls-4" points="294.01 302.58 238.63 302.58 210.94 350.54 238.63 398.5 294.01 398.5 321.7 350.54 294.01 302.58"/><polygon class="cls-4" points="286.09 190.07 261.87 190.07 249.76 211.05 261.87 232.02 286.09 232.02 298.2 211.05 286.09 190.07"/><polygon class="cls-4" points="167.75 358.46 143.53 358.46 131.42 379.43 143.53 400.4 167.75 400.4 179.86 379.43 167.75 358.46"/><polygon class="cls-4" points="379 227.38 338.91 227.38 318.86 262.11 338.91 296.83 379 296.83 399.05 262.11 379 227.38"/><polygon class="cls-4" points="613.66 208.4 586.38 208.4 572.75 232.02 586.38 255.64 613.66 255.64 627.3 232.02 613.66 208.4"/><polygon class="cls-4" points="824.32 176.78 797.04 176.78 783.41 200.4 797.04 224.02 824.32 224.02 837.96 200.4 824.32 176.78"/><polygon class="cls-4" points="360.45 1008.41 320.35 1008.41 300.31 1043.13 320.35 1077.86 360.45 1077.86 380.5 1043.13 360.45 1008.41"/><polygon class="cls-4" points="869.76 967.97 835.34 967.97 818.13 997.78 835.34 1027.59 869.76 1027.59 886.97 997.78 869.76 967.97"/><polygon class="cls-4" points="486.5 1050.67 461.8 1050.67 449.44 1072.07 461.8 1093.46 486.5 1093.46 498.85 1072.07 486.5 1050.67"/><polygon class="cls-4" points="578.82 1003.37 554.11 1003.37 541.76 1024.76 554.11 1046.16 578.82 1046.16 591.17 1024.76 578.82 1003.37"/><polygon class="cls-4" points="758.33 962.66 733.63 962.66 721.27 984.06 733.63 1005.45 758.33 1005.45 770.68 984.06 758.33 962.66"/><polygon class="cls-4" points="924.03 906.97 899.32 906.97 886.97 928.36 899.32 949.76 924.03 949.76 936.38 928.36 924.03 906.97"/><polygon class="cls-4" points="1462.57 940.94 1437.86 940.94 1425.51 962.34 1437.86 983.73 1462.57 983.73 1474.92 962.34 1462.57 940.94"/><polygon class="cls-4" points="1299.09 1076.75 1274.38 1076.75 1262.03 1098.14 1274.38 1119.54 1299.09 1119.54 1311.44 1098.14 1299.09 1076.75"/><polygon class="cls-4" points="1523.33 1026.7 1498.63 1026.7 1486.27 1048.09 1498.63 1069.49 1523.33 1069.49 1535.68 1048.09 1523.33 1026.7"/><polygon class="cls-4" points="1092.87 1013.59 1068.17 1013.59 1055.81 1034.99 1068.17 1056.38 1092.87 1056.38 1105.22 1034.99 1092.87 1013.59"/><polygon class="cls-4" points="240.31 1016.01 215.61 1016.01 203.26 1037.4 215.61 1058.8 240.31 1058.8 252.67 1037.4 240.31 1016.01"/><polygon class="cls-4" points="496.04 247.28 454.01 247.28 432.99 283.68 454.01 320.08 496.04 320.08 517.05 283.68 496.04 247.28"/><polygon class="cls-4" points="736.88 270.66 705.67 270.66 690.07 297.69 705.67 324.72 736.88 324.72 752.48 297.69 736.88 270.66"/><polygon class="cls-4" points="626.61 291.18 564.71 291.18 533.76 344.79 564.71 398.39 626.61 398.39 657.56 344.79 626.61 291.18"/><polygon class="cls-4" points="863.88 267.72 819.01 267.72 796.58 306.57 819.01 345.43 863.88 345.43 886.31 306.57 863.88 267.72"/><polygon class="cls-4" points="632.11 440.7 554.34 440.7 515.45 508.05 554.34 575.41 632.11 575.41 671 508.05 632.11 440.7"/><polygon class="cls-4" points="812.46 369.93 747.15 369.93 714.49 426.49 747.15 483.05 812.46 483.05 845.12 426.49 812.46 369.93"/><polygon class="cls-4" points="300.32 862.55 232.32 862.55 198.32 921.44 232.32 980.33 300.32 980.33 334.32 921.44 300.32 862.55"/><polygon class="cls-4" points="453.79 748.63 381.73 748.63 345.69 811.04 381.73 873.45 453.79 873.45 489.82 811.04 453.79 748.63"/><polygon class="cls-4" points="486.16 919.52 427.45 919.52 398.1 970.37 427.45 1021.22 486.16 1021.22 515.52 970.37 486.16 919.52"/><polygon class="cls-4" points="636.68 856.08 574.62 856.08 543.59 909.83 574.62 963.58 636.68 963.58 667.71 909.83 636.68 856.08"/><polygon class="cls-4" points="1210.53 340.69 1138.68 340.69 1102.76 402.91 1138.68 465.13 1210.53 465.13 1246.45 402.91 1210.53 340.69"/><polygon class="cls-4" points="1398.36 308.18 1375.04 308.18 1363.38 328.38 1375.04 348.57 1398.36 348.57 1410.02 328.38 1398.36 308.18"/><polygon class="cls-4" points="1031.64 252.38 970.54 252.38 939.99 305.3 970.54 358.21 1031.64 358.21 1062.18 305.3 1031.64 252.38"/><polygon class="cls-4" points="1192.14 236.32 1157.06 236.32 1139.52 266.7 1157.06 297.07 1192.14 297.07 1209.68 266.7 1192.14 236.32"/><polygon class="cls-4" points="1305.15 256.67 1273.96 256.67 1258.37 283.68 1273.96 310.69 1305.15 310.69 1320.74 283.68 1305.15 256.67"/><polygon class="cls-4" points="1013.8 174.61 988.37 174.61 975.65 196.64 988.37 218.67 1013.8 218.67 1026.52 196.64 1013.8 174.61"/><polygon class="cls-4" points="707.94 196.64 691.31 196.64 682.99 211.05 691.31 225.45 707.94 225.45 716.26 211.05 707.94 196.64"/><polygon class="cls-4" points="912.41 340.77 895.78 340.77 887.46 355.17 895.78 369.58 912.41 369.58 920.73 355.17 912.41 340.77"/><polygon class="cls-4" points="320.69 1105.93 304.05 1105.93 295.74 1120.34 304.05 1134.74 320.69 1134.74 329 1120.34 320.69 1105.93"/><polygon class="cls-4" points="486.57 1150.94 469.94 1150.94 461.62 1165.34 469.94 1179.75 486.57 1179.75 494.89 1165.34 486.57 1150.94"/><polygon class="cls-4" points="167.89 971.83 151.26 971.83 142.94 986.24 151.26 1000.64 167.89 1000.64 176.21 986.24 167.89 971.83"/><polygon class="cls-4" points="231.11 1107.48 214.48 1107.48 206.16 1121.88 214.48 1136.29 231.11 1136.29 239.43 1121.88 231.11 1107.48"/><polygon class="cls-4" points="378.96 924.31 362.33 924.31 354.01 938.71 362.33 953.12 378.96 953.12 387.28 938.71 378.96 924.31"/><polygon class="cls-4" points="510.75 861.26 494.12 861.26 485.8 875.67 494.12 890.07 510.75 890.07 519.06 875.67 510.75 861.26"/><polygon class="cls-4" points="868.4 1069.34 851.77 1069.34 843.45 1083.74 851.77 1098.14 868.4 1098.14 876.72 1083.74 868.4 1069.34"/><polygon class="cls-4" points="1095.81 1083.74 1079.18 1083.74 1070.86 1098.14 1079.18 1112.55 1095.81 1112.55 1104.13 1098.14 1095.81 1083.74"/><polygon class="cls-4" points="1345.73 1026.7 1329.1 1026.7 1320.78 1041.1 1329.1 1055.51 1345.73 1055.51 1354.05 1041.1 1345.73 1026.7"/><polygon class="cls-4" points="1635.84 1028.73 1619.21 1028.73 1610.89 1043.13 1619.21 1057.54 1635.84 1057.54 1644.16 1043.13 1635.84 1028.73"/><polygon class="cls-4" points="1736.59 1063.32 1719.96 1063.32 1711.64 1077.73 1719.96 1092.13 1736.59 1092.13 1744.91 1077.73 1736.59 1063.32"/><polygon class="cls-4" points="1064.26 945.7 1047.63 945.7 1039.31 960.11 1047.63 974.51 1064.26 974.51 1072.58 960.11 1064.26 945.7"/><polygon class="cls-4" points="1025.87 1058.85 1009.23 1058.85 1000.91 1073.26 1009.23 1087.66 1025.87 1087.66 1034.18 1073.26 1025.87 1058.85"/><polygon class="cls-4" points="1374.9 965.93 1358.27 965.93 1349.95 980.33 1358.27 994.74 1374.9 994.74 1383.22 980.33 1374.9 965.93"/><polygon class="cls-4" points="1275.51 975.98 1258.88 975.98 1250.56 990.38 1258.88 1004.78 1275.51 1004.78 1283.83 990.38 1275.51 975.98"/><polygon class="cls-4" points="691.31 375.66 674.67 375.66 666.36 390.07 674.67 404.47 691.31 404.47 699.62 390.07 691.31 375.66"/><polygon class="cls-4" points="95.9 440.79 79.27 440.79 70.95 455.19 79.27 469.6 95.9 469.6 104.22 455.19 95.9 440.79"/><polygon class="cls-4" points="195.63 257.82 179 257.82 170.69 272.22 179 286.63 195.63 286.63 203.95 272.22 195.63 257.82"/><polygon class="cls-4" points="516.34 182.24 499.71 182.24 491.39 196.64 499.71 211.05 516.34 211.05 524.66 196.64 516.34 182.24"/><polygon class="cls-4" points="513.66 379.43 497.02 379.43 488.71 393.83 497.02 408.24 513.66 408.24 521.97 393.83 513.66 379.43"/><polygon class="cls-4" points="315.99 437.75 299.36 437.75 291.04 452.15 299.36 466.56 315.99 466.56 324.31 452.15 315.99 437.75"/><polygon class="cls-4" points="551.81 131.19 544.51 131.19 540.86 137.51 544.51 143.83 551.81 143.83 555.46 137.51 551.81 131.19"/><polygon class="cls-4" points="968.4 109.96 961.1 109.96 957.45 116.28 961.1 122.6 968.4 122.6 972.05 116.28 968.4 109.96"/><polygon class="cls-4" points="729.58 141.36 722.28 141.36 718.63 147.69 722.28 154.01 729.58 154.01 733.23 147.69 729.58 141.36"/><polygon class="cls-4" points="1068.24 373.11 1060.94 373.11 1057.29 379.43 1060.94 385.75 1068.24 385.75 1071.89 379.43 1068.24 373.11"/><polygon class="cls-4" points="415.95 177.85 408.65 177.85 405 184.18 408.65 190.5 415.95 190.5 419.6 184.18 415.95 177.85"/><polygon class="cls-4" points="374.29 325.64 366.99 325.64 363.34 331.96 366.99 338.28 374.29 338.28 377.94 331.96 374.29 325.64"/><polygon class="cls-4" points="197.56 1202.86 190.26 1202.86 186.61 1209.18 190.26 1215.5 197.56 1215.5 201.21 1209.18 197.56 1202.86"/><polygon class="cls-4" points="156.42 886.96 149.12 886.96 145.47 893.28 149.12 899.61 156.42 899.61 160.07 893.28 156.42 886.96"/><polygon class="cls-4" points="114.21 1114.02 106.91 1114.02 103.26 1120.34 106.91 1126.66 114.21 1126.66 117.86 1120.34 114.21 1114.02"/><polygon class="cls-4" points="146.59 1063.01 139.29 1063.01 135.64 1069.34 139.29 1075.66 146.59 1075.66 150.24 1069.34 146.59 1063.01"/><polygon class="cls-4" points="401.75 1121.88 394.45 1121.88 390.8 1128.2 394.45 1134.53 401.75 1134.53 405.39 1128.2 401.75 1121.88"/><polygon class="cls-4" points="669.44 1024.76 662.14 1024.76 658.49 1031.08 662.14 1037.4 669.44 1037.4 673.09 1031.08 669.44 1024.76"/><polygon class="cls-4" points="548.82 1087.14 541.52 1087.14 537.87 1093.46 541.52 1099.78 548.82 1099.78 552.47 1093.46 548.82 1087.14"/><polygon class="cls-4" points="955.8 974.01 948.5 974.01 944.85 980.33 948.5 986.65 955.8 986.65 959.45 980.33 955.8 974.01"/><polygon class="cls-4" points="1307.67 943.44 1300.37 943.44 1296.72 949.76 1300.37 956.08 1307.67 956.08 1311.32 949.76 1307.67 943.44"/><polygon class="cls-4" points="788.45 1024.76 781.15 1024.76 777.5 1031.08 781.15 1037.4 788.45 1037.4 792.1 1031.08 788.45 1024.76"/><polygon class="cls-4" points="1064.85 1152.63 1057.55 1152.63 1053.9 1158.95 1057.55 1165.27 1064.85 1165.27 1068.5 1158.95 1064.85 1152.63"/><polygon class="cls-4" points="988.42 1121.59 981.12 1121.59 977.47 1127.91 981.12 1134.23 988.42 1134.23 992.07 1127.91 988.42 1121.59"/><polygon class="cls-4" points="674.65 977.74 667.35 977.74 663.7 984.06 667.35 990.38 674.65 990.38 678.3 984.06 674.65 977.74"/><polygon class="cls-4" points="915.32 861.45 908.02 861.45 904.37 867.77 908.02 874.1 915.32 874.1 918.97 867.77 915.32 861.45"/><polygon class="cls-4" points="1418.61 1020.38 1411.31 1020.38 1407.66 1026.7 1411.31 1033.02 1418.61 1033.02 1422.26 1026.7 1418.61 1020.38"/><polygon class="cls-4" points="1246.03 1158.95 1238.73 1158.95 1235.08 1165.27 1238.73 1171.59 1246.03 1171.59 1249.67 1165.27 1246.03 1158.95"/><polygon class="cls-4" points="1125.13 1200.73 1117.84 1200.73 1114.19 1207.06 1117.84 1213.38 1125.13 1213.38 1128.78 1207.06 1125.13 1200.73"/><polygon class="cls-4" points="1341.06 1159.02 1333.76 1159.02 1330.11 1165.34 1333.76 1171.66 1341.06 1171.66 1344.71 1165.34 1341.06 1159.02"/><polygon class="cls-4" points="1167.17 1121.59 1159.87 1121.59 1156.22 1127.91 1159.87 1134.23 1167.17 1134.23 1170.82 1127.91 1167.17 1121.59"/><polygon class="cls-4" points="1567.11 1066.94 1559.81 1066.94 1556.16 1073.26 1559.81 1079.58 1567.11 1079.58 1570.76 1073.26 1567.11 1066.94"/><polygon class="cls-4" points="1596.29 1115.27 1588.99 1115.27 1585.34 1121.59 1588.99 1127.91 1596.29 1127.91 1599.94 1121.59 1596.29 1115.27"/><polygon class="cls-4" points="1667.11 1098.97 1659.82 1098.97 1656.16 1105.29 1659.82 1111.61 1667.11 1111.61 1670.76 1105.29 1667.11 1098.97"/><polygon class="cls-4" points="1525.75 1115.27 1518.45 1115.27 1514.8 1121.59 1518.45 1127.91 1525.75 1127.91 1529.4 1121.59 1525.75 1115.27"/><polygon class="cls-4" points="415.95 97.62 408.65 97.62 405 103.94 408.65 110.26 415.95 110.26 419.6 103.94 415.95 97.62"/><polygon class="cls-4" points="1238.34 205.37 1231.04 205.37 1227.39 211.69 1231.04 218.02 1238.34 218.02 1241.99 211.69 1238.34 205.37"/><polygon class="cls-4" points="1371.08 232.02 1363.78 232.02 1360.13 238.34 1363.78 244.66 1371.08 244.66 1374.73 238.34 1371.08 232.02"/><polygon class="cls-4" points="1444.18 342.25 1436.88 342.25 1433.23 348.57 1436.88 354.89 1444.18 354.89 1447.83 348.57 1444.18 342.25"/><polygon class="cls-4" points="1596.29 464.25 1588.99 464.25 1585.34 470.57 1588.99 476.89 1596.29 476.89 1599.94 470.57 1596.29 464.25"/><polygon class="cls-4" points="1639.02 495.78 1631.72 495.78 1628.07 502.1 1631.72 508.42 1639.02 508.42 1642.67 502.1 1639.02 495.78"/><polygon class="cls-4" points="99.61 964.05 92.31 964.05 88.66 970.37 92.31 976.69 99.61 976.69 103.26 970.37 99.61 964.05"/><polygon class="cls-4" points="157.63 167.81 150.33 167.81 146.68 174.13 150.33 180.45 157.63 180.45 161.28 174.13 157.63 167.81"/><polygon class="cls-4" points="301.85 109.96 294.55 109.96 290.9 116.28 294.55 122.6 301.85 122.6 305.5 116.28 301.85 109.96"/><polygon class="cls-4" points="1093.68 225.7 1086.38 225.7 1082.73 232.02 1086.38 238.34 1093.68 238.34 1097.33 232.02 1093.68 225.7"/><polygon class="cls-4" points="85.43 373.11 78.13 373.11 74.48 379.43 78.13 385.75 85.43 385.75 89.08 379.43 85.43 373.11"/><polygon class="cls-4" points="904.33 154.74 887.7 154.74 879.38 169.15 887.7 183.55 904.33 183.55 912.65 169.15 904.33 154.74"/><polygon class="cls-4" points="922.16 230.24 905.53 230.24 897.21 244.64 905.53 259.05 922.16 259.05 930.48 244.64 922.16 230.24"/><polygon class="cls-4" points="1112.71 293.77 1096.08 293.77 1087.76 308.18 1096.08 322.58 1112.71 322.58 1121.03 308.18 1112.71 293.77"/><polygon class="cls-4" points="1690.18 532.48 1673.55 532.48 1665.23 546.89 1673.55 561.29 1690.18 561.29 1698.5 546.89 1690.18 532.48"/><polygon class="cls-4" points="1281.24 344.05 1264.61 344.05 1256.29 358.46 1264.61 372.86 1281.24 372.86 1289.55 358.46 1281.24 344.05"/><polygon class="cls-4" points="1399.83 1089.71 1383.19 1089.71 1374.88 1104.12 1383.19 1118.52 1399.83 1118.52 1408.14 1104.12 1399.83 1089.71"/><polygon class="cls-4" points="1406.43 416.02 1308.26 416.02 1259.18 501.04 1308.26 586.06 1406.43 586.06 1455.52 501.04 1406.43 416.02"/><polygon class="cls-4" points="1593.83 961.26 1559.69 961.26 1542.63 990.82 1559.69 1020.38 1593.83 1020.38 1610.89 990.82 1593.83 961.26"/><polygon class="cls-5" points="1414.83 622.73 1299.86 622.73 1242.38 722.3 1299.86 821.87 1414.83 821.87 1472.32 722.3 1414.83 622.73"/><polygon class="cls-4" points="1603.74 515.99 1493.25 515.99 1438.01 611.67 1493.25 707.36 1603.74 707.36 1658.98 611.67 1603.74 515.99"/><polygon class="cls-4" points="1215.16 986.24 1158.86 986.24 1130.72 1034.99 1158.86 1083.74 1215.16 1083.74 1243.3 1034.99 1215.16 986.24"/><polygon class="cls-4" points="1403 852.58 1353.25 852.58 1328.37 895.67 1353.25 938.75 1403 938.75 1427.87 895.67 1403 852.58"/><line class="cls-6" x1="1925.75" y1="733.37" x2="1996.01" y2="611.67"/><polygon class="cls-7" points="1796.75 844 1681.78 844 1624.3 943.56 1681.78 1043.13 1796.75 1043.13 1854.24 943.56 1796.75 844"/><path class="cls-8" d="M1770.48,997.78h-42.77l-41.26-71.37,20.93-37.06h43.3l41.4,71.77Zm-40.5-3.94h38.25l19.3-32.74-39.12-67.82h-38.73L1691,926.39Z"/><path class="cls-8" d="M1767.65,996.79l-19.13-33.48-40-.67a2,2,0,0,1-1.66-3l20-33.39-20-33.95,3.4-2,20.57,35a2,2,0,0,1,0,2L1712,958.76l37.73.63a2,2,0,0,1,1.68,1l19.69,34.46Z"/><path class="cls-8" d="M1751.38,962.33l-3.42-2,18.36-32.14H1729.1v-3.93h40.61a2,2,0,0,1,1.7,1,1.94,1.94,0,0,1,0,2Z"/><polygon class="cls-9" points="1032.54 401.47 917.57 401.47 860.09 501.04 917.57 600.61 1032.54 600.61 1090.03 501.04 1032.54 401.47"/><path class="cls-10" d="M1018.94,546.89H931.18a2,2,0,0,1-2-2V457.16a2,2,0,0,1,2-2h87.76a2,2,0,0,1,2,2v87.76A2,2,0,0,1,1018.94,546.89ZM933.14,543H1017V459.13H933.14Z"/><rect class="cls-10" x="938.9" y="475.55" width="45.87" height="3.94"/><rect class="cls-10" x="938.9" y="498.95" width="45.87" height="3.94"/><rect class="cls-10" x="938.9" y="522.36" width="45.87" height="3.94"/><path class="cls-10" d="M1000.68,487.42a9.9,9.9,0,1,1,9.9-9.9A9.91,9.91,0,0,1,1000.68,487.42Zm0-16.85a6.95,6.95,0,1,0,7,6.95A7,7,0,0,0,1000.68,470.57Z"/><path class="cls-10" d="M1000.68,512.63a9.91,9.91,0,1,1,9.9-9.91A9.92,9.92,0,0,1,1000.68,512.63Zm0-16.85a6.95,6.95,0,1,0,7,6.94A7,7,0,0,0,1000.68,495.78Z"/><path class="cls-10" d="M1000.68,537.83a9.9,9.9,0,1,1,9.9-9.9A9.91,9.91,0,0,1,1000.68,537.83Zm0-16.85a7,7,0,1,0,7,6.95A7,7,0,0,0,1000.68,521Z"/><polygon class="cls-10" points="999.51 483.26 995 478.75 997.08 476.66 999.51 479.09 1011.69 466.91 1013.78 469 999.51 483.26"/><polygon class="cls-10" points="999.51 508.04 995 503.53 997.08 501.44 999.51 503.87 1011.69 491.69 1013.78 493.78 999.51 508.04"/><rect class="cls-10" x="999.21" y="519.52" width="2.95" height="16.82" transform="translate(-80.21 862.23) rotate(-45)"/><rect class="cls-10" x="992.27" y="526.45" width="16.82" height="2.95" transform="translate(-80.24 862.11) rotate(-44.99)"/><polygon class="cls-11" points="1223.69 512.1 1108.72 512.1 1051.23 611.67 1108.72 711.24 1223.69 711.24 1281.17 611.67 1223.69 512.1"/><path class="cls-12" d="M1212.89,655.85h-93.37a2,2,0,0,1-2-2v-60.2a2,2,0,0,1,2-2h93.37a2,2,0,0,1,2,2v60.2A2,2,0,0,1,1212.89,655.85Zm-91.41-3.94h89.44V595.65h-89.44Z"/><path class="cls-12" d="M1212.89,595.65h-93.37a2,2,0,0,1-2-2V579.06a2,2,0,0,1,2-2h12.58v-1c0-4.61,3.71-8.64,7.94-8.64h26.23c4.24,0,8,4,8,8.64v1h38.67a2,2,0,0,1,2,2v14.62A2,2,0,0,1,1212.89,595.65Zm-91.4-3.94h89.43V581h-38.67a2,2,0,0,1-2-2v-2.92c0-2.38-2-4.71-4-4.71H1140c-2,0-4,2.33-4,4.71v2.92a2,2,0,0,1-2,2h-12.58Z"/><rect class="cls-12" x="1142.21" y="576.28" width="21.32" height="3.94"/><polygon class="cls-9" points="1605.98 733.37 1491.01 733.37 1433.52 832.93 1491.01 932.5 1605.98 932.5 1663.46 832.93 1605.98 733.37"/><path class="cls-10" d="M1515.53,881.73l-11.67-3.92,1.28-7.28a29.85,29.85,0,0,1-4.65-3.64l-7,2.94-6.43-10.5,5.69-4.77a27.34,27.34,0,0,1-.83-3.2c-.17-.83-.31-1.69-.41-2.57l-7.23-2.22,1.83-12.17h7.35a29.36,29.36,0,0,1,2.77-5.3l-4.06-6.27,9.23-8.15,5.51,4.63a29.56,29.56,0,0,1,5.67-2.34l.89-7.25,12.32-.31,1.22,6.93a29.24,29.24,0,0,1,6,1.91l5.24-4.88,9.64,7.67-3.48,6a28.81,28.81,0,0,1,3.37,5.37l7.09-.37,2.45,12.07-6.56,2.39a29.17,29.17,0,0,1-.89,6.25l5.7,4.3-5.88,10.82-6.67-2.43a30,30,0,0,1-4.61,4.12l1.63,7.1-11.46,4.51-3.63-6.29a29,29,0,0,1-6,.18Zm-7.21-6.57,5.25,1.76,3.08-6,1.36.16a25.66,25.66,0,0,0,7.62-.23l1.36-.25,3.3,5.72,5.15-2-1.48-6.45,1.15-.75a25.72,25.72,0,0,0,5.8-5.16l.88-1.07,6.06,2.2,2.64-4.86-5.16-3.9.4-1.32a25.23,25.23,0,0,0,1.11-7.79v-1.4l6-2.17-1.1-5.42-6.39.33-.54-1.26a25.71,25.71,0,0,0-4.22-6.69l-.92-1.06,3.17-5.49-4.33-3.45-4.73,4.4-1.22-.6A25.48,25.48,0,0,0,1525,820l-1.4-.22-1.11-6.33-5.54.14-.81,6.54-1.31.33a25.74,25.74,0,0,0-7.13,2.94l-1.2.73-5-4.24-4.14,3.67,3.66,5.66-.79,1.09a26.26,26.26,0,0,0-3.51,6.72l-.46,1.32h-6.72l-.83,5.48,6.56,2,.09,1.35a25.33,25.33,0,0,0,1.58,7.34l.49,1.3-5.2,4.36,2.89,4.72,6.32-2.68.94,1a26.17,26.17,0,0,0,5.92,4.64l1.2.69Zm12.74-9.42a20.28,20.28,0,0,1-4-40.16A20.29,20.29,0,0,1,1541,841.42a20.31,20.31,0,0,1-15.85,23.91h0A20,20,0,0,1,1521.06,865.74Zm0-36.64a15.89,15.89,0,0,0-3.28.34,16.35,16.35,0,0,0,6.5,32h0a16.35,16.35,0,0,0,5.78-29.65A16.21,16.21,0,0,0,1521.1,829.1Z"/><path class="cls-10" d="M1582.31,881.32l-9.29-3.11.94-5.34a22.06,22.06,0,0,1-2.85-2.23L1566,872.8l-5.11-8.36,4.16-3.5a20.15,20.15,0,0,1-.5-2c-.1-.49-.19-1-.25-1.53l-5.31-1.63,1.45-9.68h5.39a20.93,20.93,0,0,1,1.7-3.25l-3-4.6,7.34-6.49,4,3.39a22.1,22.1,0,0,1,3.49-1.44l.66-5.32,9.8-.26.9,5.09a22,22,0,0,1,3.69,1.18l3.85-3.58,7.67,6.1-2.55,4.42a23,23,0,0,1,2.09,3.33l5.2-.27,2,9.61-4.81,1.75a21.87,21.87,0,0,1-.55,3.87l4.18,3.16-4.68,8.6-4.89-1.77a22.2,22.2,0,0,1-2.85,2.54l1.2,5.21-9.12,3.58-2.67-4.61a21.8,21.8,0,0,1-3.7.11Zm-4.83-5.77,2.86,1,2.17-4.25,1.37.16a17.47,17.47,0,0,0,5.3-.16l1.36-.24,2.33,4,2.81-1.11-1-4.54,1.15-.75a18,18,0,0,0,4-3.6l.88-1.06,4.27,1.55,1.44-2.65-3.63-2.75.4-1.32a17.44,17.44,0,0,0,.77-5.43V853l4.2-1.53-.6-3-4.51.23-.54-1.26a17.85,17.85,0,0,0-2.93-4.66l-.92-1.06,2.23-3.87-2.36-1.88-3.33,3.1-1.22-.61a17.84,17.84,0,0,0-5.2-1.66l-1.39-.21-.79-4.47-3,.08-.57,4.6-1.31.32a17.74,17.74,0,0,0-5,2.05l-1.2.73-3.56-3-2.26,2,2.58,4-.8,1.09a18,18,0,0,0-2.44,4.68l-.46,1.32h-4.75l-.45,3,4.62,1.41.09,1.35a19.29,19.29,0,0,0,.31,2.38,18.64,18.64,0,0,0,.79,2.74l.49,1.3-3.67,3.08,1.58,2.57L1572,866l.94,1a18.47,18.47,0,0,0,4.12,3.24l1.21.68Zm8.5-7.77a13.22,13.22,0,1,1,2.64-.27h0A13.14,13.14,0,0,1,1586,867.78Zm0-22.43a9.77,9.77,0,0,0-1.86.18,9.24,9.24,0,1,0,3.67,18.12h0a9.24,9.24,0,0,0,7.22-10.9,9.25,9.25,0,0,0-9-7.4Z"/><path class="cls-10" d="M1565.48,827.6l-8.08-2.71.77-4.35a17.84,17.84,0,0,1-1.93-1.51l-4.17,1.76-4.45-7.27,3.4-2.85c-.13-.46-.25-.92-.34-1.39-.07-.32-.13-.66-.17-1l-4.34-1.33,1.27-8.42h4.39a18.53,18.53,0,0,1,1.15-2.21l-2.43-3.75,6.39-5.64,3.29,2.76a18.9,18.9,0,0,1,2.38-1l.54-4.35,8.52-.22.73,4.15a17.84,17.84,0,0,1,2.54.81l3.14-2.93,6.67,5.31-2.08,3.61a18.54,18.54,0,0,1,1.43,2.28l4.25-.21,1.7,8.35-3.93,1.43a16.92,16.92,0,0,1-.38,2.65l3.42,2.58-4.07,7.49-4-1.45a18.83,18.83,0,0,1-1.95,1.73l1,4.26-7.92,3.11-2.18-3.76a17.69,17.69,0,0,1-2.52.08Zm-3.62-5.36,1.65.55,1.71-3.34,1.36.16a14,14,0,0,0,4.14-.13l1.36-.24,1.83,3.17,1.62-.64-.82-3.57,1.15-.75a14,14,0,0,0,3.15-2.8l.88-1.07,3.36,1.22.83-1.53-2.86-2.16.4-1.31a14.06,14.06,0,0,0,.61-4.23l0-1.4,3.3-1.2-.34-1.71-3.54.18-.54-1.25a13.91,13.91,0,0,0-2.29-3.63l-.92-1.06,1.76-3-1.36-1.09-2.61,2.44-1.22-.61a13.94,13.94,0,0,0-4.06-1.29l-1.39-.22-.62-3.52-1.74.05-.45,3.62-1.31.32a13.82,13.82,0,0,0-3.87,1.6l-1.2.72-2.81-2.35-1.3,1.15,2,3.13-.8,1.1a13.88,13.88,0,0,0-1.9,3.64l-.46,1.32h-3.74l-.26,1.73,3.63,1.11.09,1.35a14.13,14.13,0,0,0,.86,4l.48,1.31-2.88,2.42.91,1.48,3.5-1.48.94,1a14.3,14.3,0,0,0,3.21,2.52l1.2.68Zm6.38-7.8a8.74,8.74,0,0,1-8.54-7,8.71,8.71,0,1,1,10.27,6.81h0A8.54,8.54,0,0,1,1568.24,814.44Zm0-13.5a5.21,5.21,0,0,0-1,.1,4.77,4.77,0,0,0-3.73,5.63,4.78,4.78,0,1,0,9.36-1.9,4.73,4.73,0,0,0-2-3A4.78,4.78,0,0,0,1568.25,800.94Z"/><polygon class="cls-5" points="1032.54 622.73 917.57 622.73 860.09 722.3 917.57 821.87 1032.54 821.87 1090.03 722.3 1032.54 622.73"/><path class="cls-13" d="M975.06,700.41c-17.66,0-36.43-4.85-36.43-13.83s18.77-13.84,36.43-13.84,36.43,4.85,36.43,13.84S992.72,700.41,975.06,700.41Zm0-23.73c-20.14,0-32.5,5.76-32.5,9.9s12.36,9.89,32.5,9.89,32.49-5.76,32.49-9.89S995.19,676.68,975.06,676.68Z"/><path class="cls-13" d="M975.06,693.54c-9.72,0-28.09-1.57-28.09-7.5s18.37-7.5,28.09-7.5,28.08,1.57,28.08,7.5S984.77,693.54,975.06,693.54Zm0-12.54c-16.58,0-25.63,3.33-25.63,5s9.05,5,25.63,5,25.62-3.33,25.62-5S991.63,681,975.06,681Z"/><path class="cls-13" d="M977.89,750h-5.67a33.63,33.63,0,0,1-33.59-33.59V686.58a2,2,0,1,1,3.93,0v29.87a29.69,29.69,0,0,0,29.66,29.65h5.67a29.68,29.68,0,0,0,29.66-29.65V686.58a2,2,0,1,1,3.94,0v29.87A33.63,33.63,0,0,1,977.89,750Z"/><path class="cls-13" d="M1009.52,724.66a2,2,0,0,1-2-2V693.75a2,2,0,0,1,2-2h6.89a9.79,9.79,0,0,1,9.78,9.78V708A16.69,16.69,0,0,1,1009.52,724.66Zm2-28.95v24.86A12.75,12.75,0,0,0,1022.25,708v-6.43a5.86,5.86,0,0,0-5.84-5.85Z"/><path class="cls-13" d="M975.06,771.86c-17.37,0-33.72-2.3-46-6.49-13-4.42-20.15-10.56-20.15-17.3,0-8.84,12.48-16.61,33.38-20.77a2,2,0,0,1,.77,3.86c-18.36,3.66-30.22,10.29-30.22,16.91,0,4.85,6.37,9.8,17.48,13.57,11.93,4.05,27.84,6.29,44.79,6.29s32.85-2.24,44.78-6.29c11.11-3.77,17.48-8.72,17.48-13.57,0-6.63-11.91-13.28-30.33-16.93a2,2,0,1,1,.76-3.86c21,4.15,33.5,11.93,33.5,20.79,0,6.74-7.15,12.88-20.14,17.3C1008.78,769.56,992.42,771.86,975.06,771.86Z"/><path class="cls-13" d="M973.71,724.82a9,9,0,1,1,8.95-9A9,9,0,0,1,973.71,724.82Zm0-14a5,5,0,1,0,5,5A5,5,0,0,0,973.71,710.84Z"/><path class="cls-13" d="M973.71,738.64a8.89,8.89,0,0,1-7-3.36,2,2,0,0,1,3.07-2.46,5,5,0,0,0,8.94-3.13V715.86a2,2,0,1,1,3.93,0v13.83A9,9,0,0,1,973.71,738.64Z"/><polygon class="cls-7" points="1223.69 733.37 1108.72 733.37 1051.23 832.93 1108.72 932.5 1223.69 932.5 1281.17 832.93 1223.69 733.37"/><path class="cls-8" d="M1162.76,811c-17.66,0-36.43-4.85-36.43-13.83s18.77-13.84,36.43-13.84,36.43,4.85,36.43,13.84S1180.42,811,1162.76,811Zm0-23.73c-20.13,0-32.49,5.76-32.49,9.9s12.36,9.89,32.49,9.89,32.5-5.76,32.5-9.89S1182.9,787.31,1162.76,787.31Z"/><path class="cls-8" d="M1162.76,804.17c-9.71,0-28.08-1.57-28.08-7.5s18.37-7.5,28.08-7.5,28.09,1.57,28.09,7.5S1172.48,804.17,1162.76,804.17Zm0-12.54c-16.57,0-25.62,3.33-25.62,5s9,5,25.62,5,25.63-3.33,25.63-5S1179.34,791.63,1162.76,791.63Z"/><path class="cls-8" d="M1165.6,860.67h-5.67a33.63,33.63,0,0,1-33.6-33.59V797.21a2,2,0,1,1,3.94,0v29.87a29.68,29.68,0,0,0,29.66,29.65h5.67a29.69,29.69,0,0,0,29.66-29.65V797.21a2,2,0,1,1,3.93,0v29.87A33.63,33.63,0,0,1,1165.6,860.67Z"/><path class="cls-8" d="M1197.23,835.29a2,2,0,0,1-2-2V804.38a2,2,0,0,1,2-2h6.88a9.8,9.8,0,0,1,9.79,9.78v6.43A16.69,16.69,0,0,1,1197.23,835.29Zm2-28.94V831.2A12.75,12.75,0,0,0,1210,818.62v-6.43a5.85,5.85,0,0,0-5.85-5.84Z"/><path class="cls-8" d="M1162.76,882.49c-17.36,0-33.72-2.3-46-6.49-13-4.42-20.14-10.56-20.14-17.3,0-8.84,12.48-16.61,33.38-20.77a2,2,0,0,1,.77,3.86c-18.36,3.66-30.22,10.3-30.22,16.91,0,4.85,6.37,9.8,17.48,13.57,11.93,4.05,27.84,6.29,44.78,6.29s32.86-2.24,44.79-6.29c11.11-3.77,17.48-8.72,17.48-13.57,0-6.63-11.91-13.28-30.34-16.93a2,2,0,0,1,.77-3.86c21,4.15,33.5,11.93,33.5,20.79,0,6.74-7.15,12.88-20.15,17.3C1196.48,880.19,1180.13,882.49,1162.76,882.49Z"/><path class="cls-8" d="M1150.43,842.49a2,2,0,0,1-.55-.08,2,2,0,0,1-1.35-2.44l5.86-20.13a2,2,0,0,1,1.82-1.41,2,2,0,0,1,1.92,1.29l5,13.84,4.4-13.77a2,2,0,0,1,1.87-1.37h0a2,2,0,0,1,1.86,1.44L1177,840a2,2,0,1,1-3.79,1.06l-3.89-13.81-4.15,13a2,2,0,0,1-3.72.08l-5-13.61-4.18,14.36A2,2,0,0,1,1150.43,842.49Z"/><polygon class="cls-11" points="1796.75 622.73 1681.78 622.73 1624.3 722.3 1681.78 821.87 1796.75 821.87 1854.24 722.3 1796.75 622.73"/><path class="cls-12" d="M1739.38,783.63a9.54,9.54,0,0,1-6.79-2.81L1680.75,729a9.62,9.62,0,0,1,0-13.59l35.55-35.55a2,2,0,0,1,1.39-.58h0a2,2,0,0,1,1.39.58l13.47,13.46a2,2,0,0,1,.42,2.15,7.1,7.1,0,0,0,1.54,7.8,6.92,6.92,0,0,0,2.33,1.56,2,2,0,0,1,1.22,1.82v32.6a2,2,0,0,1-1.22,1.82,7,7,0,0,0-2.33,1.56,7.13,7.13,0,0,0,0,10.08,7.12,7.12,0,0,0,10.08,0,7.15,7.15,0,0,0,0-10.09,7,7,0,0,0-1.89-1.34,2,2,0,0,1-1.09-1.77v-32.3a2,2,0,0,1,3.36-1.39l12.27,12.27a2,2,0,0,1,.43,2.14,7.13,7.13,0,1,0,13.73,2.72,7.12,7.12,0,0,0-9.46-6.73,2,2,0,0,1-2-.47l-13.16-13.16a2,2,0,0,1-.47-2,7.12,7.12,0,0,0-9-9.07,2,2,0,0,1-2-.47l-13.66-13.65a2,2,0,0,1,0-2.79l10.77-10.76a9.6,9.6,0,0,1,13.59,0l51.85,51.83.09.1a9.64,9.64,0,0,1-.09,13.51l-51.61,51.59A9.54,9.54,0,0,1,1739.38,783.63ZM1717.68,684l-34.15,34.15a5.67,5.67,0,0,0,0,8L1735.37,778a5.69,5.69,0,0,0,8,0l51.6-51.59a5.69,5.69,0,0,0,0-8l-.08-.08-51.76-51.76a5.69,5.69,0,0,0-8,0l-9.37,9.37,11.45,11.46a11,11,0,0,1,13.12,13.2l11.54,11.53a11.06,11.06,0,0,1,10.21,18.62,11.07,11.07,0,0,1-18.5-10.76l-8-8v26.41a10.72,10.72,0,0,1,1.83,1.47,11.09,11.09,0,1,1-13.24-1.82V707.86a11.08,11.08,0,0,1-5.24-12.64Z"/><polygon class="cls-5" points="459.57 512.1 344.6 512.1 287.11 611.67 344.6 711.24 459.57 711.24 517.05 611.67 459.57 512.1"/><path class="cls-13" d="M424.13,667.45H380a17.63,17.63,0,0,1-15.23-8.8l-22.05-38.18a17.67,17.67,0,0,1,0-17.6l22.05-38.18a17.63,17.63,0,0,1,15.23-8.8h44.1a17.66,17.66,0,0,1,15.24,8.8l22,38.18a17.67,17.67,0,0,1,0,17.6l-22,38.18A17.66,17.66,0,0,1,424.13,667.45ZM380,559.83a13.67,13.67,0,0,0-11.82,6.83l-22,38.18a13.71,13.71,0,0,0,0,13.66l22,38.19A13.69,13.69,0,0,0,380,663.52h44.1A13.72,13.72,0,0,0,436,656.69l22-38.19a13.71,13.71,0,0,0,0-13.66h0l-22-38.18a13.7,13.7,0,0,0-11.83-6.83Zm22,85.45a35.32,35.32,0,0,1-20.63-64A6.59,6.59,0,1,1,389.1,592a22.13,22.13,0,1,0,25.84,0,6.6,6.6,0,0,1,7.72-10.7,35.32,35.32,0,0,1-20.64,64ZM385.24,584a2.65,2.65,0,0,0-1.55.5,31.39,31.39,0,1,0,36.66,0,2.63,2.63,0,0,0-3.7.61,2.57,2.57,0,0,0-.47,2,2.6,2.6,0,0,0,1.07,1.73,26.07,26.07,0,1,1-30.45,0,2.65,2.65,0,0,0-1.13-4.77A2.09,2.09,0,0,0,385.24,584ZM402,616.48a6.92,6.92,0,0,1-6.91-6.91V580.66a6.91,6.91,0,1,1,13.82,0v28.91A6.92,6.92,0,0,1,402,616.48Zm0-38.8a3,3,0,0,0-3,3v28.91a3,3,0,0,0,5.95,0V580.66a3,3,0,0,0-3-3Z"/><polygon class="cls-5" points="1987.9 733.37 1872.93 733.37 1815.44 832.93 1872.93 932.5 1987.9 932.5 2045.38 832.93 1987.9 733.37"/><path class="cls-13" d="M1930.41,879.57c-12,0-23.26-1-31.77-2.73-9.8-2-14.56-4.78-14.56-8.42v-24H1888v24c0,.49,2.22,2.71,11.78,4.64a183.63,183.63,0,0,0,61.23,0c9.55-1.93,11.72-4.15,11.78-4.64v-24h3.93v24c0,3.64-4.76,6.39-14.56,8.42C1953.67,878.6,1942.39,879.57,1930.41,879.57Z"/><path class="cls-13" d="M1930.41,856.08c-12,0-23.26-1-31.77-2.73-9.8-2-14.56-4.78-14.56-8.41v-24H1888v24c0,.48,2.22,2.7,11.78,4.63a182.93,182.93,0,0,0,61.23,0c9.55-1.93,11.72-4.15,11.78-4.63v-24h3.93v24c0,3.63-4.76,6.39-14.56,8.41C1953.67,855.11,1942.39,856.08,1930.41,856.08Z"/><path class="cls-13" d="M1930.41,832.6c-12,0-23.26-1-31.77-2.73-9.8-2-14.56-4.78-14.56-8.42v-24c0-3.63,4.76-6.39,14.56-8.41,8.51-1.76,19.79-2.73,31.77-2.73s23.26,1,31.77,2.73c9.8,2,14.56,4.78,14.56,8.41v24c0,3.64-4.76,6.39-14.56,8.42C1953.67,831.63,1942.39,832.6,1930.41,832.6Zm0-42.37a162.12,162.12,0,0,0-30.61,2.58c-9.56,1.93-11.73,4.15-11.78,4.63v24c0,.49,2.22,2.7,11.78,4.63a182.93,182.93,0,0,0,61.23,0c9.55-1.93,11.72-4.14,11.78-4.63v-24c-.06-.48-2.23-2.7-11.78-4.63A162.23,162.23,0,0,0,1930.41,790.23Z"/><path class="cls-13" d="M1930.41,808.59c-12,0-23.26-1-31.77-2.73-9.8-2-14.56-4.78-14.56-8.42s4.76-6.39,14.56-8.41c8.51-1.76,19.79-2.73,31.77-2.73s23.26,1,31.77,2.73c9.8,2,14.56,4.78,14.56,8.41s-4.76,6.39-14.56,8.42C1953.67,807.62,1942.39,808.59,1930.41,808.59Zm0-18.36a162.12,162.12,0,0,0-30.61,2.58c-9.56,1.93-11.73,4.15-11.78,4.63s2.22,2.7,11.78,4.64a183.63,183.63,0,0,0,61.23,0c9.54-1.93,11.71-4.14,11.78-4.64s-2.24-2.7-11.78-4.63A162.23,162.23,0,0,0,1930.41,790.23Z"/><polygon class="cls-7" points="268.42 622.73 153.45 622.73 95.96 722.3 153.45 821.87 268.42 821.87 325.91 722.3 268.42 622.73"/><path class="cls-8" d="M249.22,763H172.65a2,2,0,1,1,0-3.93h76.57a2,2,0,0,1,0,3.93Z"/><path class="cls-8" d="M264.26,743.75H157.61a2,2,0,0,1-2-2V683.56a2,2,0,0,1,2-2H264.26a2,2,0,0,1,2,2v58.22A2,2,0,0,1,264.26,743.75Zm-104.69-3.93H262.3V685.53H159.57Z"/><path class="cls-8" d="M187.25,723.42a2,2,0,0,1-1.85-1.29l-3.66-10-3.17,9.94a2,2,0,0,1-3.77-.06l-4.54-16.14a2,2,0,1,1,3.79-1.06l2.76,9.82,2.93-9.19a2,2,0,0,1,3.73-.07l3.57,9.78,3-10.36a2,2,0,0,1,3.78,1.1L189.14,722a2,2,0,0,1-1.83,1.42Z"/><path class="cls-8" d="M216.13,723.42a2,2,0,0,1-1.84-1.29l-3.66-10-3.17,9.94a2,2,0,0,1-3.77-.06l-4.54-16.14a2,2,0,1,1,3.79-1.06l2.76,9.82,2.93-9.19a2,2,0,0,1,3.72-.07l3.57,9.78,3-10.36a2,2,0,0,1,3.78,1.1L218,722a2,2,0,0,1-1.83,1.42Z"/><path class="cls-8" d="M245,723.42a2,2,0,0,1-1.85-1.29l-3.65-10-3.18,9.94a2,2,0,0,1-3.77-.06L228,705.85a2,2,0,1,1,3.79-1.06l2.76,9.82,2.93-9.19a2,2,0,0,1,3.72-.07l3.57,9.78,3-10.36a2,2,0,0,1,2.44-1.34,2,2,0,0,1,1.34,2.44L246.91,722a2,2,0,0,1-1.82,1.42Z"/><path class="cls-8" d="M210.93,762.05a2,2,0,0,1-2-2v-18.3a2,2,0,0,1,3.93,0v18.3A2,2,0,0,1,210.93,762.05Z"/><polygon class="cls-9" points="650.71 622.73 535.74 622.73 478.25 722.3 535.74 821.87 650.71 821.87 708.2 722.3 650.71 622.73"/><path class="cls-10" d="M585.81,770.11c-27.11,0-40.91-7.49-41.61-7.87a2,2,0,0,1-1-1.32A113.88,113.88,0,0,1,541.32,735c.85-18.42,7.06-31.08,18-36.6,10.08-5.1,23-4.68,35.49-4.27,19.82.65,38.53,1.26,46.63-18.4a2,2,0,0,1,3.79.68,220.11,220.11,0,0,1-3.58,43.76c-2.54,13-6.31,23.59-11.21,31.5-6.29,10.16-14.47,15.93-24.29,17.15A165.52,165.52,0,0,1,585.81,770.11Zm-38.9-10.92c4.1,1.92,23.91,10,58.71,5.71,31.14-3.86,35.21-59.8,35.63-80.63-10.38,15-28.76,14.37-46.61,13.78-12-.39-24.4-.8-33.58,3.85C539.51,712.82,545.72,752.6,546.91,759.19Z"/><path class="cls-10" d="M552.43,754.61l-2.53-1.53c.52-.86,13.12-21.27,43.11-25.85,29.16-4.45,35.19-18.16,36.18-25.94l2.93.38c-1.1,8.6-7.59,23.73-38.67,28.48C564.89,734.51,552.55,754.41,552.43,754.61Z"/><polygon class="cls-11" points="841.86 512.1 726.89 512.1 669.4 611.67 726.89 711.24 841.86 711.24 899.34 611.67 841.86 512.1"/><path class="cls-12" d="M829.64,657.49H739.11a2,2,0,0,1-2-2v-87.7a2,2,0,0,1,2-2h90.53a2,2,0,0,1,2,2v87.7A2,2,0,0,1,829.64,657.49Zm-88.57-3.94h86.6V569.79h-86.6Z"/><path class="cls-12" d="M775.33,604.54v25.33H750V604.54h25.33m3.93-3.94h-33.2v33.21h33.2V600.6Z"/><rect class="cls-12" x="783.95" y="599.91" width="39.59" height="3.94"/><rect class="cls-12" x="783.95" y="629.76" width="39.59" height="3.94"/><rect class="cls-12" x="783.95" y="622.3" width="39.59" height="3.94"/><rect class="cls-12" x="783.95" y="614.84" width="39.59" height="3.94"/><rect class="cls-12" x="783.95" y="607.37" width="39.59" height="3.94"/><rect class="cls-12" x="746.06" y="644.69" width="77.48" height="3.94"/><rect class="cls-12" x="746.06" y="637.23" width="77.48" height="3.94"/><path class="cls-12" d="M797.9,594a2,2,0,0,1-1.84-1.29l-2.74-7.51L791,592.67a2,2,0,0,1-1.88,1.37h0a2,2,0,0,1-1.86-1.44l-3.8-13.49a2,2,0,0,1,1.37-2.43,2,2,0,0,1,2.42,1.36l2,7.18,2.13-6.66a2,2,0,0,1,1.84-1.37h0a2,2,0,0,1,1.84,1.3l2.65,7.26,2.25-7.73a2,2,0,0,1,3.78,1.1l-3.93,13.5A2,2,0,0,1,798,594Z"/><path class="cls-12" d="M765.21,594a2,2,0,0,1-1.49-.67l-8.36-9.56v8.26a2,2,0,1,1-3.93,0v-13.5a2,2,0,0,1,3.45-1.29l8.36,9.55v-8.26a2,2,0,1,1,3.93,0v13.5a2,2,0,0,1-1.27,1.84A1.87,1.87,0,0,1,765.21,594Z"/><path class="cls-12" d="M780.13,594h-7.4a2,2,0,0,1-2-2v-13.5a2,2,0,0,1,2-2h7.4a2,2,0,0,1,0,3.94H774.7v9.56h5.43a2,2,0,0,1,0,3.94Z"/><path class="cls-12" d="M777.84,587.29h-5.11a2,2,0,0,1,0-3.94h5.11a2,2,0,0,1,0,3.94Z"/><path class="cls-12" d="M811.12,586.5a4.95,4.95,0,1,1,0-9.9h1.6a2,2,0,1,1,0,3.94h-1.6a1,1,0,0,0,0,2,2,2,0,1,1,0,3.94Z"/><path class="cls-12" d="M810.73,594h-3.87a2,2,0,0,1,0-3.94h3.87a1.8,1.8,0,0,0,0-3.6,2,2,0,0,1,0-3.94,5.74,5.74,0,0,1,0,11.48Z"/><g class="cls-14"><line class="cls-4" x1="-20.39" y1="1329.79" x2="2356.12" y2="1329.88"/><line class="cls-4" x1="2366.05" y1="1329.88" x2="2291.94" y2="1403.98"/><line class="cls-4" x1="2341.16" y1="1329.88" x2="2267.06" y2="1403.98"/><line class="cls-4" x1="2316.28" y1="1329.88" x2="2242.18" y2="1403.98"/><line class="cls-4" x1="2291.4" y1="1329.88" x2="2217.29" y2="1403.98"/><line class="cls-4" x1="2266.52" y1="1329.88" x2="2192.41" y2="1403.98"/><line class="cls-4" x1="2241.64" y1="1329.88" x2="2167.53" y2="1403.98"/><line class="cls-4" x1="2216.76" y1="1329.88" x2="2142.65" y2="1403.98"/><line class="cls-4" x1="2191.88" y1="1329.88" x2="2117.77" y2="1403.98"/><line class="cls-4" x1="2166.99" y1="1329.88" x2="2092.89" y2="1403.98"/><line class="cls-4" x1="2142.11" y1="1329.88" x2="2068" y2="1403.98"/><line class="cls-4" x1="2117.23" y1="1329.88" x2="2043.12" y2="1403.98"/><line class="cls-4" x1="2092.35" y1="1329.88" x2="2018.24" y2="1403.98"/><line class="cls-4" x1="2067.47" y1="1329.88" x2="1993.36" y2="1403.98"/><line class="cls-4" x1="2042.59" y1="1329.88" x2="1968.48" y2="1403.98"/><line class="cls-4" x1="2017.71" y1="1329.88" x2="1943.6" y2="1403.98"/><line class="cls-4" x1="1992.82" y1="1329.88" x2="1918.72" y2="1403.98"/><line class="cls-4" x1="1967.94" y1="1329.88" x2="1893.83" y2="1403.98"/><line class="cls-4" x1="1943.06" y1="1329.88" x2="1868.95" y2="1403.98"/><line class="cls-4" x1="1918.18" y1="1329.88" x2="1844.07" y2="1403.98"/><line class="cls-4" x1="1893.3" y1="1329.88" x2="1819.19" y2="1403.98"/><line class="cls-4" x1="1868.42" y1="1329.88" x2="1794.31" y2="1403.98"/><line class="cls-4" x1="1843.53" y1="1329.88" x2="1769.43" y2="1403.98"/><line class="cls-4" x1="1818.65" y1="1329.88" x2="1744.55" y2="1403.98"/><line class="cls-4" x1="1793.77" y1="1329.88" x2="1719.66" y2="1403.98"/><line class="cls-4" x1="1768.89" y1="1329.88" x2="1694.78" y2="1403.98"/><line class="cls-4" x1="1744.01" y1="1329.88" x2="1669.9" y2="1403.98"/><line class="cls-4" x1="1719.13" y1="1329.88" x2="1645.02" y2="1403.98"/><line class="cls-4" x1="1694.25" y1="1329.88" x2="1620.14" y2="1403.98"/><line class="cls-4" x1="1669.36" y1="1329.88" x2="1595.26" y2="1403.98"/><line class="cls-4" x1="1644.48" y1="1329.88" x2="1570.38" y2="1403.98"/><line class="cls-4" x1="1619.6" y1="1329.88" x2="1545.49" y2="1403.98"/><line class="cls-4" x1="1594.72" y1="1329.88" x2="1520.61" y2="1403.98"/><line class="cls-4" x1="1569.84" y1="1329.88" x2="1495.73" y2="1403.98"/><line class="cls-4" x1="1544.96" y1="1329.88" x2="1470.85" y2="1403.98"/><line class="cls-4" x1="1520.08" y1="1329.88" x2="1445.97" y2="1403.98"/><line class="cls-4" x1="1495.19" y1="1329.88" x2="1421.09" y2="1403.98"/><line class="cls-4" x1="1470.31" y1="1329.88" x2="1396.2" y2="1403.98"/><line class="cls-4" x1="1445.43" y1="1329.88" x2="1371.32" y2="1403.98"/><line class="cls-4" x1="1420.55" y1="1329.88" x2="1346.44" y2="1403.98"/><line class="cls-4" x1="1395.67" y1="1329.88" x2="1321.56" y2="1403.98"/><line class="cls-4" x1="1370.79" y1="1329.88" x2="1296.68" y2="1403.98"/><line class="cls-4" x1="1345.91" y1="1329.88" x2="1271.8" y2="1403.98"/><line class="cls-4" x1="1321.02" y1="1329.88" x2="1246.92" y2="1403.98"/><line class="cls-4" x1="1296.14" y1="1329.88" x2="1222.03" y2="1403.98"/><line class="cls-4" x1="1271.26" y1="1329.88" x2="1197.15" y2="1403.98"/><line class="cls-4" x1="1246.38" y1="1329.88" x2="1172.27" y2="1403.98"/><line class="cls-4" x1="1221.5" y1="1329.88" x2="1147.39" y2="1403.98"/><line class="cls-4" x1="1196.62" y1="1329.88" x2="1122.51" y2="1403.98"/><line class="cls-4" x1="1171.74" y1="1329.88" x2="1097.63" y2="1403.98"/><line class="cls-4" x1="1146.85" y1="1329.88" x2="1072.75" y2="1403.98"/><line class="cls-4" x1="1121.97" y1="1329.88" x2="1047.86" y2="1403.98"/><line class="cls-4" x1="1097.09" y1="1329.88" x2="1022.98" y2="1403.98"/><line class="cls-4" x1="1072.21" y1="1329.88" x2="998.1" y2="1403.98"/><line class="cls-4" x1="1047.33" y1="1329.88" x2="973.22" y2="1403.98"/><line class="cls-4" x1="1022.45" y1="1329.88" x2="948.34" y2="1403.98"/><line class="cls-4" x1="997.56" y1="1329.88" x2="923.46" y2="1403.98"/><line class="cls-4" x1="972.68" y1="1329.88" x2="898.58" y2="1403.98"/><line class="cls-4" x1="947.8" y1="1329.88" x2="873.69" y2="1403.98"/><line class="cls-4" x1="922.92" y1="1329.88" x2="848.81" y2="1403.98"/><line class="cls-4" x1="898.04" y1="1329.88" x2="823.93" y2="1403.98"/><line class="cls-4" x1="873.16" y1="1329.88" x2="799.05" y2="1403.98"/><line class="cls-4" x1="848.28" y1="1329.88" x2="774.17" y2="1403.98"/><line class="cls-4" x1="823.39" y1="1329.88" x2="749.29" y2="1403.98"/><line class="cls-4" x1="798.51" y1="1329.88" x2="724.4" y2="1403.98"/><line class="cls-4" x1="773.63" y1="1329.88" x2="699.52" y2="1403.98"/><line class="cls-4" x1="748.75" y1="1329.88" x2="674.64" y2="1403.98"/><line class="cls-4" x1="723.87" y1="1329.88" x2="649.76" y2="1403.98"/><line class="cls-4" x1="698.99" y1="1329.88" x2="624.88" y2="1403.98"/><line class="cls-4" x1="674.11" y1="1329.88" x2="600" y2="1403.98"/><line class="cls-4" x1="649.22" y1="1329.88" x2="575.12" y2="1403.98"/><line class="cls-4" x1="624.34" y1="1329.88" x2="550.23" y2="1403.98"/><line class="cls-4" x1="599.46" y1="1329.88" x2="525.35" y2="1403.98"/><line class="cls-4" x1="574.58" y1="1329.88" x2="500.47" y2="1403.98"/><line class="cls-4" x1="549.7" y1="1329.88" x2="475.59" y2="1403.98"/><line class="cls-4" x1="524.82" y1="1329.88" x2="450.71" y2="1403.98"/><line class="cls-4" x1="499.94" y1="1329.88" x2="425.83" y2="1403.98"/><line class="cls-4" x1="475.05" y1="1329.88" x2="400.95" y2="1403.98"/><line class="cls-4" x1="450.17" y1="1329.88" x2="376.06" y2="1403.98"/><line class="cls-4" x1="425.29" y1="1329.88" x2="351.18" y2="1403.98"/><line class="cls-4" x1="400.41" y1="1329.88" x2="326.3" y2="1403.98"/><line class="cls-4" x1="375.53" y1="1329.88" x2="301.42" y2="1403.98"/><line class="cls-4" x1="350.65" y1="1329.88" x2="276.54" y2="1403.98"/><line class="cls-4" x1="325.76" y1="1329.88" x2="251.66" y2="1403.98"/><line class="cls-4" x1="300.88" y1="1329.88" x2="226.78" y2="1403.98"/><line class="cls-4" x1="276" y1="1329.88" x2="201.89" y2="1403.98"/><line class="cls-4" x1="251.12" y1="1329.88" x2="177.01" y2="1403.98"/><line class="cls-4" x1="226.24" y1="1329.88" x2="152.13" y2="1403.98"/><line class="cls-4" x1="201.36" y1="1329.88" x2="127.25" y2="1403.98"/><line class="cls-4" x1="176.48" y1="1329.88" x2="102.37" y2="1403.98"/><line class="cls-4" x1="151.59" y1="1329.88" x2="77.49" y2="1403.98"/><line class="cls-4" x1="126.71" y1="1329.88" x2="52.61" y2="1403.98"/><line class="cls-4" x1="101.83" y1="1329.88" x2="27.72" y2="1403.98"/><line class="cls-4" x1="76.95" y1="1329.88" x2="2.84" y2="1403.98"/><line class="cls-4" x1="52.07" y1="1329.88" x2="-22.04" y2="1403.98"/><line class="cls-4" x1="27.19" y1="1329.88" x2="-46.92" y2="1403.98"/><line class="cls-4" x1="2.31" y1="1329.88" x2="-71.8" y2="1403.98"/></g><polygon class="cls-6" points="2214.2 234.12 1996.13 234.12 1887.09 422.98 1996.13 611.83 2214.2 611.83 2323.23 422.98 2214.2 234.12"/><polygon class="cls-7" points="841.86 733.37 726.89 733.37 669.4 832.93 726.89 932.5 841.86 932.5 899.34 832.93 841.86 733.37"/><path class="cls-8" d="M784.37,811c-17.66,0-36.43-4.85-36.43-13.83s18.77-13.84,36.43-13.84,36.43,4.85,36.43,13.84S802,811,784.37,811Zm0-23.73c-20.13,0-32.49,5.76-32.49,9.9s12.36,9.89,32.49,9.89,32.5-5.76,32.5-9.89S804.5,787.31,784.37,787.31Z"/><path class="cls-8" d="M787.21,860.67h-5.68a33.63,33.63,0,0,1-33.59-33.59V797.21a2,2,0,0,1,3.94,0v29.87a29.68,29.68,0,0,0,29.65,29.65h5.68a29.69,29.69,0,0,0,29.66-29.65V797.21a2,2,0,1,1,3.93,0v29.87A33.63,33.63,0,0,1,787.21,860.67Z"/><path class="cls-8" d="M818.83,835.29a2,2,0,0,1-2-2V804.38a2,2,0,0,1,2-2h6.89a9.8,9.8,0,0,1,9.79,9.78v6.43A16.69,16.69,0,0,1,818.83,835.29Zm2-28.94V831.2a12.76,12.76,0,0,0,10.77-12.58v-6.43a5.85,5.85,0,0,0-5.85-5.84Z"/><path class="cls-8" d="M783,833.91a9.09,9.09,0,1,1,9.09-9.08A9.09,9.09,0,0,1,783,833.91Zm0-14.23a5.15,5.15,0,1,0,5.15,5.15A5.16,5.16,0,0,0,783,819.68Z"/><path class="cls-8" d="M783,850.9a10.46,10.46,0,1,1,10.46-10.46A10.48,10.48,0,0,1,783,850.9Zm0-17a6.53,6.53,0,1,0,6.53,6.53A6.54,6.54,0,0,0,783,833.91Z"/><path class="cls-8" d="M784.37,882.49c-17.36,0-33.72-2.3-46-6.49-13-4.42-20.15-10.56-20.15-17.3,0-8.84,12.48-16.61,33.39-20.77a2,2,0,0,1,.76,3.86c-18.35,3.66-30.21,10.29-30.21,16.91,0,4.85,6.37,9.8,17.48,13.57,11.93,4.05,27.84,6.29,44.78,6.29s32.85-2.24,44.79-6.29c11.1-3.77,17.47-8.72,17.47-13.57,0-6.63-11.9-13.28-30.33-16.93a2,2,0,1,1,.77-3.86c21,4.15,33.5,11.93,33.5,20.79,0,6.74-7.16,12.88-20.15,17.3C818.09,880.19,801.74,882.49,784.37,882.49Z"/><path class="cls-8" d="M784.37,804.46c-9.71,0-28.08-1.57-28.08-7.5s18.37-7.5,28.08-7.5,28.08,1.57,28.08,7.5S794.09,804.46,784.37,804.46Zm0-12.54c-16.58,0-25.62,3.33-25.62,5s9,5,25.62,5S810,798.67,810,797,801,791.92,784.37,791.92Z"/><polygon class="cls-7" points="841.86 733.37 726.89 733.37 669.4 832.93 726.89 932.5 841.86 932.5 899.34 832.93 841.86 733.37"/><line class="cls-5" x1="298.31" y1="674.5" x2="317.04" y2="663.52"/><line class="cls-9" x1="488.71" y1="660.53" x2="508.03" y2="670.45"/><line class="cls-11" x1="1061.2" y1="550.93" x2="1080.52" y2="560.85"/><line class="cls-11" x1="679.1" y1="671.21" x2="697.83" y2="660.23"/><line class="cls-5" x1="868.23" y1="779.3" x2="886.97" y2="768.32"/><line class="cls-5" x1="1252.66" y1="783.9" x2="1271.39" y2="772.91"/><line class="cls-11" x1="1637.54" y1="788.16" x2="1656.28" y2="777.18"/><line class="cls-5" x1="1827.58" y1="897.85" x2="1846.32" y2="886.86"/><line class="cls-7" x1="783.95" y1="710.84" x2="783.95" y2="733.37"/><line class="cls-9" x1="977.77" y1="600.61" x2="977.77" y2="622.57"/><line class="cls-7" x1="1166.2" y1="711.64" x2="1166.2" y2="733.54"/><line class="cls-7" x1="1739.27" y1="821.98" x2="1739.27" y2="843.89"/><path class="cls-15" d="M2035,441.62a69.5,69.5,0,1,0,139,0"/><path class="cls-15" d="M2174,440.3c0,6.94-31.11,12.56-69.5,12.56s-69.5-5.62-69.5-12.56c0-4.34,12.18-8.16,30.7-10.42"/><path class="cls-15" d="M2194.06,522.28c0,11.86-40.08,21.47-89.53,21.47S2015,534.14,2015,522.28c0-6.66,12.64-12.61,32.48-16.55"/><path class="cls-15" d="M2176,484l24-12.72c9.53-5.06,13.34-17.1,7.86-26.39a11.22,11.22,0,0,0-5.71-5.26,17.7,17.7,0,0,0-15.73,2.31"/><path class="cls-16" d="M2160.54,335.94s-25.5,7.27-41.2,27.74c-22.85,29.78,33,37.94-3.67,68.54"/><path class="cls-16" d="M2136.15,270s17.38,38.92-38.61,74.49a50.4,50.4,0,0,0-12.69,11.41c-26.24,33.61,17.44,67.65,17.44,67.65"/><path class="cls-17" d="M1804,629.54s48.08-3,44.83-35.75c-1.14-13.46-12.58-6-12.58-6l-41.67,23.5Z"/><path class="cls-17" d="M1872.88,561.94s27.67,5.07,32,10.3.27,6.67-3.3,5.65c-19.7-5.65-40.37-2.42-40.37-2.42s31.69,3.25,37.67,9c2.23,2.14,3.67,3.48,1,5.26s-25.33-4.2-34.33-2.38c0,0,16,9.82,17.66,16.49s-3.21,6.37-5.33,4.33c-3.57-3.43-18-14.5-28.38-12.83s-30.62-5.61-30.62-5.61l22.33-25.89Z"/><path class="cls-18" d="M1799.4,591.12s19.65-24.93,29.32-33.55,63.66-8.82,72-8.88,6.33,5.27,4,6.93c-1.79,1.28-31.67,7.69-45.6,10.63a29.69,29.69,0,0,0-12.65,6.06l-8.42,6.88s18-.42,27,0,7.67,5.55,7.67,7-6.67,4.44-15.67,7.11a82.37,82.37,0,0,1-18,3s5.55,22.91-33.72,27.29C1783.38,625.29,1799.4,591.12,1799.4,591.12Z"/><path class="cls-19" d="M1636.54,678.31a40,40,0,0,1-32.07-16.11L1497.32,518.32a40,40,0,1,1,64.16-47.78l92.86,124.69,86.2-12.5a40,40,0,0,1,11.73,79.13l-109.85,16A40.23,40.23,0,0,1,1636.54,678.31Z"/><path class="cls-20" d="M1620.28,549.48l-58.8-78.94a39.74,39.74,0,0,0-6.37-6.75,161.86,161.86,0,0,0-27.81-9.3,40,40,0,0,0-30,63.83l96,129C1603.41,612.49,1615.49,576.46,1620.28,549.48Z"/><path class="cls-20" d="M1767.88,583.95h22.59a13.14,13.14,0,0,1,13.14,13.14V632.9A13.14,13.14,0,0,1,1790.48,646h-22.59a0,0,0,0,1,0,0v-62.1A0,0,0,0,1,1767.88,583.95Z" transform="translate(-77.57 306.5) rotate(-9.6)"/><line class="cls-21" x1="1652.07" y1="599.93" x2="1640.57" y2="610.93"/><line class="cls-21" x1="1651.82" y1="605.43" x2="1648.57" y2="622.93"/><path class="cls-12" d="M1231.86,1269.68v11.2a6.41,6.41,0,0,0,12.81,0v-11.2Z"/><path class="cls-12" d="M1552.65,1269.68v11.2a6.41,6.41,0,0,0,12.81,0v-11.2Z"/><polygon class="cls-10" points="1449.44 1224.82 1402.52 1224.82 1416.6 1179.57 1463.52 1179.57 1449.44 1224.82"/><polygon class="cls-10" points="1000.07 1044.54 948.55 1063.8 948.9 1017.63 1000.41 998.36 1000.07 1044.54"/><path class="cls-12" d="M1317.69,691.48l-85.75,166.88a58.25,58.25,0,0,1-25.61,25.39L967.94,1003.62l18.82,53.1L1276,949.47a73.81,73.81,0,0,0,34.12-27L1391.51,804l72.32,138.9a58.19,58.19,0,0,1,2.15,42.44l-59.71,202.44,56.5,20.25,9-18.88L1556.16,970a73.83,73.83,0,0,0-.32-53.89l-70.42-176.48Z"/><line class="cls-22" x1="977.77" y1="1010.33" x2="1218.33" y2="895.67"/><line class="cls-22" x1="1243.48" y1="875.67" x2="1307.82" y2="757.67"/><path class="cls-23" d="M1485.42,739.67l-41.63-11.95-65.67,95.78,13.39-19.5,72.32,138.9a58.19,58.19,0,0,1,2.15,42.44l-59.71,202.44,56.5,20.25,9-18.88L1556.16,970a73.83,73.83,0,0,0-.32-53.89Z"/><line class="cls-24" x1="1402.52" y1="800.41" x2="1483.48" y2="949.76"/><line class="cls-24" x1="1483.48" y1="980.33" x2="1423.08" y2="1179.57"/><path class="cls-20" d="M1314.07,681l7.32-21.37L1502,709.37l-7.32,21.37a13.13,13.13,0,0,1-16.69,8.17,374.81,374.81,0,0,1-155.72-41.18A13.14,13.14,0,0,1,1314.07,681Z"/><path class="cls-19" d="M1385.94,465.53s-64,131-75.31,155-8,42,9.33,53.33,64.67,26.66,92.67,36,67.3,14.66,86.31,14.66,35.32-4.66,49.84-64,42.67-131.3,35.16-158.95C1569.6,448.88,1465.27,391.45,1385.94,465.53Z"/><path class="cls-21" d="M1322.42,675.38l42.35-51.1,143.94,29s17,31.33,14.85,59.26"/><path class="cls-21" d="M1487.77,465.53s-3.8,161.9-69.65,246.08"/><polyline class="cls-25" points="1410.27 452.29 1253.27 577.78 1349.38 602.26"/><path class="cls-21" d="M1310.52,551.53l48.73,12A40,40,0,1,1,1339.51,641"/><path class="cls-19" d="M1484.27,390.28s-102-14-122-16-24,8.22-24.67,12.17c-.68,4.17-.5,17.17,17.67,21.83,1,0-15,38,18,44s179,15,179,15S1574.27,402.28,1484.27,390.28Z"/><path class="cls-20" d="M1531.94,424s6.19,12.76,1.39,18l.25-.13-14.49,7Z"/><polygon class="cls-20" points="1458.89 402.91 1467.77 423.41 1478.36 413.91 1462.51 402.91 1458.89 402.91"/><line class="cls-26" x1="1354.6" y1="390.28" x2="1475.74" y2="406.05"/><path class="cls-18" d="M1466.27,419.28l27.67-78a31.75,31.75,0,0,1,40.36-19.37h0a31.75,31.75,0,0,1,19.37,40.37l-29.5,83.92-36.4,19.38Z"/><polygon class="cls-2" points="1473.13 399.94 1466.27 419.29 1487.77 465.54 1524.17 446.15 1532.02 423.81 1493.71 444.21 1473.13 399.94"/><line class="cls-27" x1="1493.71" y1="444.21" x2="1487.77" y2="464.66"/><path class="cls-28" d="M1537.34,408.69l16.33-46.46a31.68,31.68,0,0,0-4.79-29.77c-11.41,1.69-21.9,5.4-27.61,8.82-8.08,4.85-18.48,3.59-25.26-4.69a31.78,31.78,0,0,0-2.07,4.64l-9.44,26.86C1496.06,391.58,1513,405.74,1537.34,408.69Z"/><path class="cls-18" d="M1584.65,295.41c-.86-.11,30,11,38.26,14.79s9,10.84-9.42,18-31.32,11.53-31.32,11.53,5,54.06-49.18,46.75-50.69-97.85-50.69-97.85-5.69-60.89,46.51-59.36C1578.5,230.69,1579.9,252.76,1584.65,295.41Z"/><path class="cls-17" d="M1622.91,310.2c-30.23,11.67-39.92,15-39.92,15l-.82,14.52s12.87-4.4,31.32-11.53S1631.16,313.94,1622.91,310.2Z"/><path class="cls-23" d="M1571.3,222.45a7.82,7.82,0,0,1,13.68,3.87c1.87,11.72-.64,24.47-19.85,25.6-36.17,2.12-72.5-1-72.5-1s17,10.17,6.47,42.88,7.84,45.69,21.78,39.69,56.47-9.89,62.56,16.31-14.57,49.67-48.09,45.15-49.54-28.56-54.75-67.77.23-79.61.23-79.61,6.24-33.29,32.89-29.69c18.7,2.52,32.21,5.2,41.16-1.25,6.86-4.93,15.57,3.17,11.21,10.41l-.29.49A25.79,25.79,0,0,0,1571.3,222.45Z"/><path class="cls-12" d="M1572,217a7.83,7.83,0,0,1,13.69,3.88c1.86,11.71-.65,24.47-19.86,25.59-36.16,2.13-72.5-1-72.5-1s17,10.17,6.47,42.88,7.85,45.69,21.78,39.69,56.47-9.89,62.56,16.32-14.57,49.67-48.09,45.15-49.54-28.56-54.75-67.77-7.66-53.55-9.47-66,9.7-13.57,9.7-13.57,6.24-33.29,32.89-29.7c18.7,2.52,32.21,5.21,41.17-1.24,6.86-4.94,15.56,3.16,11.21,10.41l-.3.48A25.52,25.52,0,0,0,1572,217Z"/><path class="cls-17" d="M1466.33,299.63a18.22,18.22,0,0,0,20.9,15.06l-5.85-36A18.21,18.21,0,0,0,1466.33,299.63Z"/><path class="cls-29" d="M1517.94,338.25c2.25,6.26,7.89,13.66,22,13"/><path class="cls-2" d="M1522.15,272.35a9.71,9.71,0,0,0-10.29,9h0c-.79,11.45,7.39,21.28,18.26,21.95s20.33-8.07,21.12-19.52h0a9.58,9.58,0,0,0-9-10.22Z"/><path class="cls-2" d="M1570.68,275.34a9.72,9.72,0,0,0-10.3,9h0c-.79,11.45,7.39,21.28,18.27,21.94s20.33-8.07,21.11-19.52l.67-9.62Z"/><path class="cls-30" d="M1522.15,272.35a9.71,9.71,0,0,0-10.29,9h0c-.79,11.45,7.39,21.28,18.26,21.95s20.33-8.07,21.12-19.52h0a9.58,9.58,0,0,0-9-10.22Z"/><path class="cls-30" d="M1570.68,275.34a9.72,9.72,0,0,0-10.3,9h0c-.79,11.45,7.39,21.28,18.27,21.94s20.33-8.07,21.11-19.52h0a9.58,9.58,0,0,0-9-10.22Z"/><line class="cls-31" x1="1550.94" y1="282.55" x2="1562.24" y2="283.13"/><line class="cls-30" x1="1511.8" y1="280.77" x2="1476.09" y2="279.46"/><line class="cls-32" x1="1542.41" y1="284.31" x2="1541.99" y2="289.43"/><line class="cls-32" x1="1581.24" y1="286.5" x2="1580.82" y2="291.62"/><path class="cls-23" d="M1536.21,256.52a25.2,25.2,0,0,0-10.55,1.31c-1.91.75-1.72,4.79.23,4.93l19.68,1.34c2,.14,2.67-3.87.84-4.88A25.15,25.15,0,0,0,1536.21,256.52Z"/><path class="cls-23" d="M1581.37,259.11a25.2,25.2,0,0,0-10.55,1.31c-1.91.75-1.72,4.79.23,4.93l19.68,1.34c2,.14,2.67-3.87.84-4.88A25.2,25.2,0,0,0,1581.37,259.11Z"/><line class="cls-21" x1="1360.94" y1="410.62" x2="1447.77" y2="422.28"/><line class="cls-21" x1="1459.77" y1="406.05" x2="1487.77" y2="465.53"/><polygon class="cls-2" points="1458.49 651.62 1539.8 651.62 1557.77 506.39 1440.53 506.39 1458.49 651.62"/><g id="Layer_2" data-name="Layer 2"><polygon class="cls-33" points="1478.86 597.56 1466.16 585.36 1466.16 554.08 1478.86 541.48 1478.86 597.56"/><polygon class="cls-33" points="1492.7 587.71 1480 575.55 1480 544.24 1492.7 531.67 1492.7 587.71"/><polygon class="cls-33" points="1506.91 577.9 1494.21 565.3 1494.21 533.99 1506.91 521.43 1506.91 577.9"/><polygon class="cls-33" points="1513.73 533.05 1507.79 533.05 1507.79 521.22 1525.73 521.22 1513.73 533.05"/><polygon class="cls-33" points="1526.13 539.97 1507.99 539.97 1519.85 528.11 1537.76 528.11 1526.13 539.97"/><polygon class="cls-33" points="1517.16 568.66 1507.99 568.66 1507.99 559.69 1537.76 529.99 1537.79 548.34 1517.16 568.66"/></g><g id="Layer_3_copy" data-name="Layer 3 copy"><path class="cls-33" d="M1497.1,588.42l.94-6.55h.1l2.66,5.37,2.62-5.37h.1l.94,6.55h-.64l-.64-4.67-2.31,4.67h-.17l-2.35-4.7-.64,4.7Z"/><path class="cls-33" d="M1508,581.87l3.06,6.55h-.71l-1-2.15h-2.82l-1,2.15h-.74l3.09-6.55Zm-.1,1.38-1.11,2.38H1509Z"/><path class="cls-33" d="M1511.35,581.87h1.31a6.85,6.85,0,0,1,1.48.1,1.63,1.63,0,0,1,.94.57,1.69,1.69,0,0,1,.37,1.07,1.72,1.72,0,0,1-.24.95,1.58,1.58,0,0,1-.7.6,3.4,3.4,0,0,1-1.28.2l2.35,3.06h-.81l-2.35-3.06h-.37v3.06h-.63v-6.55Zm.64.64v2.21h1.14a2.39,2.39,0,0,0,1-.13,1,1,0,0,0,.51-.4,1.29,1.29,0,0,0,.16-.61,1.25,1.25,0,0,0-.16-.6,1,1,0,0,0-.47-.37,3.26,3.26,0,0,0-1-.1Z"/><path class="cls-33" d="M1522.1,583.08l-.51.4a2.67,2.67,0,0,0-1-.84,2.9,2.9,0,0,0-1.31-.3,2.94,2.94,0,0,0-1.44.37,2.41,2.41,0,0,0-1,1,2.85,2.85,0,0,0-.37,1.41,2.76,2.76,0,0,0,.8,2,2.85,2.85,0,0,0,2.09.81,3,3,0,0,0,2.31-1.08l.51.41a3.79,3.79,0,0,1-1.21,1,3.72,3.72,0,0,1-1.65.34,3.39,3.39,0,0,1-2.72-1.15,3.32,3.32,0,0,1-.84-2.31,3.2,3.2,0,0,1,1-2.42,3.52,3.52,0,0,1,2.52-1,3.81,3.81,0,0,1,1.65.37A2.58,2.58,0,0,1,1522.1,583.08Z"/><path class="cls-33" d="M1525.69,581.7a3.46,3.46,0,1,1-2.42,5.91,3.3,3.3,0,0,1-1-2.42,3.39,3.39,0,0,1,.47-1.74,3.18,3.18,0,0,1,1.24-1.28A3,3,0,0,1,1525.69,581.7Zm0,.64a2.76,2.76,0,0,0-2.38,1.38,2.88,2.88,0,0,0-.37,1.44,2.71,2.71,0,0,0,.81,2,2.6,2.6,0,0,0,1.94.81,3,3,0,0,0,1.41-.37,2.4,2.4,0,0,0,1-1,2.87,2.87,0,0,0,0-2.82,2.4,2.4,0,0,0-1-1A2.36,2.36,0,0,0,1525.69,582.34Z"/><path class="cls-33" d="M1496.93,590.5h1.28a3.85,3.85,0,0,1,1.21.17,1.54,1.54,0,0,1,.67.57,1.51,1.51,0,0,1,.24.84,1.68,1.68,0,0,1-.2.81,1.44,1.44,0,0,1-.64.57,1.86,1.86,0,0,1,.77.4,1.89,1.89,0,0,1,.44.57,1.84,1.84,0,0,1,.17.71,1.82,1.82,0,0,1-.58,1.34,2.1,2.1,0,0,1-1.54.54h-1.82Zm.64.64v2.08h.37a2.52,2.52,0,0,0,1-.13,1.14,1.14,0,0,0,.5-.4.92.92,0,0,0,.21-.61.83.83,0,0,0-.31-.7,1.53,1.53,0,0,0-1-.27h-.78Zm0,2.76v2.52h.81a2.65,2.65,0,0,0,1-.14,1.19,1.19,0,0,0,.74-1.07,1.27,1.27,0,0,0-.27-.78,1.43,1.43,0,0,0-.77-.43,5,5,0,0,0-1.18-.07h-.37Z"/><path class="cls-33" d="M1501.71,590.5h3.76v.64h-3.09v2.05h3v.64h-3v2.59h3v.63h-3.72Z"/><path class="cls-33" d="M1506.38,590.5h.63v2.76h3.33V590.5h.64v6.55h-.64V593.9H1507v3.15h-.63Z"/><path class="cls-33" d="M1511.92,590.5h.64v5.92h2.52v.63h-3.16Z"/><path class="cls-33" d="M1515.68,590.5h3.76v.64h-3.09v2.05h3.06v.64h-3.06v2.59h3.06v.63h-3.73Z"/><path class="cls-33" d="M1520.15,590.5h1.31a7.59,7.59,0,0,1,1.48.1,1.63,1.63,0,0,1,.94.57,1.72,1.72,0,0,1,.37,1.08,1.69,1.69,0,0,1-.24.94,1.47,1.47,0,0,1-.7.6,3.15,3.15,0,0,1-1.28.21l2.35,3h-.8l-2.35-3h-.37v3h-.64V590.5Zm.64.64v2.22h1.14a2.44,2.44,0,0,0,1-.14,1,1,0,0,0,.5-.4,1.16,1.16,0,0,0,0-1.21,1.05,1.05,0,0,0-.47-.37,3.22,3.22,0,0,0-1-.1Z"/></g><path class="cls-18" d="M1396.71,597.12s25.33,1.16,30.67-2.34,16.66-12.16,34.16-13.16c9.36-.54,34.63,7.19,54.79,10a3,3,0,0,1-.3,6l-48.82-2,56.89,10.24a3,3,0,0,1-.62,6l-58.94-.71,53.29,8.59a3,3,0,0,1-.64,6l-52-.66,40,11.1a3,3,0,0,1-1,5.94l-41.75-1.71S1437,651,1419,638.62c-9.32-5.31-25-6.29-25-6.29Z"/><path class="cls-20" d="M1373.64,580.62h22.59a13.14,13.14,0,0,1,13.14,13.14v35.81a13.14,13.14,0,0,1-13.14,13.14h-22.59a0,0,0,0,1,0,0v-62.1A0,0,0,0,1,1373.64,580.62Z" transform="translate(148.92 -263.78) rotate(11.44)"/><path class="cls-12" d="M1475.44,226.13a5.38,5.38,0,1,0-6,4.62A5.38,5.38,0,0,0,1475.44,226.13Z"/><path class="cls-34" d="M1550.14,204.56a3.67,3.67,0,1,0-4.13,3.15A3.67,3.67,0,0,0,1550.14,204.56Z"/><path class="cls-33" d="M1397.32,1216.38v30.4h151a9.94,9.94,0,0,0-6.59-9.35l-82.59-25.37-54.23-2.87A7.2,7.2,0,0,0,1397.32,1216.38Z"/><rect class="cls-20" x="1397.32" y="1246.78" width="151" height="7"/><path class="cls-19" d="M1473.42,1246.78h74.9a9.94,9.94,0,0,0-6.59-9.35l-46.58-14.31Z"/><path class="cls-33" d="M960.74,1001.67l-30.4,0-.2,151h0a9.93,9.93,0,0,0,9.36-6.58L965,1063.49l2.95-54.22A7.21,7.21,0,0,0,960.74,1001.67Z"/><rect class="cls-20" x="851.24" y="1073.62" width="151" height="7" transform="translate(2005.09 151.81) rotate(90.08)"/><path class="cls-19" d="M930.24,1077.73l-.1,74.9h0a9.93,9.93,0,0,0,9.36-6.58l14.37-46.56Z"/><circle class="cls-33" cx="1238.27" cy="1305.24" r="24.55"/><circle class="cls-19" cx="1238.27" cy="1305.24" r="9"/><circle class="cls-33" cx="1238.27" cy="1305.24" r="3.58"/><circle class="cls-33" cx="1559.06" cy="1305.24" r="24.55"/><circle class="cls-19" cx="1559.06" cy="1305.24" r="9"/><circle class="cls-33" cx="1559.06" cy="1305.24" r="3.58"/><path class="cls-35" d="M1164.24,1241.77a133.46,133.46,0,0,0,73.3,22h384.73"/><line class="cls-21" x1="1337.41" y1="557" x2="1389.89" y2="517.53"/><line class="cls-22" x1="1297.56" y1="749.28" x2="1356.31" y2="724.53"/><line class="cls-22" x1="1223.6" y1="879.95" x2="1230.6" y2="898.95"/><line class="cls-22" x1="1230.94" y1="877.28" x2="1246.94" y2="890.95"/><line class="cls-24" x1="1475.6" y1="961.28" x2="1496.6" y2="951.95"/><line class="cls-24" x1="1478.94" y1="967.28" x2="1494.6" y2="968.62"/><line class="cls-21" x1="1487.77" y1="465.53" x2="1535.75" y2="440.79"/><path class="cls-20" d="M1444.77,406.05s17.4,6.19,21.5,14.61L1458.89,402Z"/><line class="cls-21" x1="1499.27" y1="476.53" x2="1542.02" y2="455.03"/><line class="cls-21" x1="1458.89" y1="445.39" x2="1473.77" y2="476.28"/><path class="cls-19" d="M1360.7,440.7,1385.29,421a40,40,0,0,1,50,62.49"/><path class="cls-21" d="M1360.7,440.7,1385.29,421a40,40,0,0,1,56.22,6.27"/><polygon class="cls-12" points="1558.11 491.3 1557.16 491.3 1441.13 491.3 1440.19 491.3 1431.86 506.39 1566.44 506.39 1558.11 491.3"/></g></svg>