<svg xmlns="http://www.w3.org/2000/svg" viewBox="0 0 359.33 359.33"><defs><style>.cls-1{fill:#fff;}</style></defs><title>caret_white</title><g id="Layer_2" data-name="Layer 2"><g id="Layer_1-2" data-name="Layer 1"><path class="cls-1" d="M136.45,263.24a20.93,20.93,0,0,1,6.89-15.58c25-22.58,62.55-56.57,62.55-56.57a13,13,0,0,0-.44-19.69C189,157.83,162.5,135,143.7,118.76a21,21,0,0,1-7.25-15.9V84.31c31.88,28.06,63.4,55.32,95,81.33a19.19,19.19,0,0,1,.71,29.1l-95.68,87Z"/><path class="cls-1" d="M179.67,359.33C80.6,359.33,0,278.74,0,179.67S80.6,0,179.67,0,359.33,80.6,359.33,179.67,278.73,359.33,179.67,359.33Zm0-339.33C91.63,20,20,91.63,20,179.67S91.63,339.33,179.67,339.33s159.66-71.62,159.66-159.66S267.71,20,179.67,20Z"/></g></g></svg>