<?xml version="1.0" encoding="utf-8"?>
<!-- Generator: Adobe Illustrator 18.1.1, SVG Export Plug-In . SVG Version: 6.00 Build 0)  -->
<svg version="1.1" id="Layer_1" xmlns="http://www.w3.org/2000/svg" xmlns:xlink="http://www.w3.org/1999/xlink" x="0px" y="0px"
	 viewBox="0 0 450.7 92.8" enable-background="new 0 0 450.7 92.8" xml:space="preserve">
<polygon fill="#BABABC" points="363.9,1.8 349.8,9.5 349.8,72.3 363.9,72.3 "/>
<polygon fill="#BABABC" points="450.7,19.9 441.5,19.9 441.5,7 427.3,14.7 427.3,72.5 441.5,72.5 441.5,31.7 450.7,31.7 "/>
<path fill="#BABABC" d="M242.7,30.8c-7.7,0-13.2,5.8-13.2,15.2c0,9.4,5.5,15.2,13.2,15.2c7.7,0,13.2-5.8,13.2-15.2
	C255.9,36.6,250.3,30.8,242.7,30.8 M242.7,18.5c15.7,0,27.6,11.1,27.6,27.5c0,16.4-11.9,27.5-27.6,27.5c-15.7,0-27.5-11.1-27.5-27.5
	C215.2,29.6,227,18.5,242.7,18.5"/>
<path fill="#BABABC" d="M185.6,70.7c-6,1.7-15.1,2.7-21.7,2.7c-15.2,0-24.7-4.7-24.7-20.3V19.7h14.3V52c0,6.7,2.9,9.8,10.4,9.8
	c2,0,5-0.2,7.5-0.7V19.7h14.3V70.7z"/>
<polygon fill="#BABABC" points="215,19.7 205.8,19.7 205.8,6.7 191.6,14.4 191.6,72.3 205.8,72.3 205.8,31.4 215,31.4 "/>
<path fill="#BABABC" d="M293.7,61.1c-2.7,0-4.8-1.1-4.8-1.1V32.2c0,0,3.2-1,6-1c8.7,0,14.7,5.1,14.7,14.1
	C309.6,56.2,302.8,61.1,293.7,61.1 M295.1,18.5c-8.7,0-14.8,2-20.5,4.4v69.9l14.3-7.8V72.4c0,0,2.4,1.1,5.9,1.1
	c18.3,0,29.2-10.3,29.2-28.5C324,28.3,312.3,18.5,295.1,18.5"/>
<rect x="328.6" y="19.7" fill="#BABABC" width="14.1" height="52.6"/>
<path fill="#BABABC" d="M327.2,8.6c0-4.8,3.8-8.6,8.5-8.6c4.6,0,8.5,3.8,8.5,8.6c0,4.6-3.9,8.4-8.5,8.4
	C331,16.9,327.2,13.2,327.2,8.6"/>
<path fill="#BABABC" d="M395.7,30.8c-7.7,0-13.2,5.8-13.2,15.2c0,9.4,5.5,15.2,13.2,15.2c7.7,0,13.2-5.8,13.2-15.2
	C408.9,36.6,403.3,30.8,395.7,30.8 M395.7,18.5c15.7,0,27.6,11.1,27.6,27.5c0,16.4-11.9,27.5-27.6,27.5c-15.7,0-27.5-11.1-27.5-27.5
	C368.2,29.6,380,18.5,395.7,18.5"/>
<path fill="#BABABC" d="M119.8,50.1h-4.7c-6.6,0-10.5,1.9-10.5,6.4c0,4.5,3.7,6.5,9.3,6.5c1.5,0,4-0.1,5.9-0.6V50.1z M119.8,37.9
	c0-5.1-4.2-7.2-9.4-7.2c-6.2,0-11.1,1.9-15.2,4.4V22.8c4.7-2.7,11-4.2,17.7-4.2c12,0,21,4.7,21,18.7v34c-5.1,1.2-13.1,2.1-19.8,2.1
	c-13.3,0-23.6-4-23.6-16.1c0-11,8.8-16.1,23.6-16.1h5.8V37.9z"/>
<polygon fill="#BABABC" points="0,30.2 7.4,44 61.4,44 68.7,30.2 "/>
<polygon fill="#BABABC" points="7.2,48.8 14.6,62.6 54.2,62.6 61.4,48.8 "/>
</svg>
