<?xml version="1.0" encoding="UTF-8" standalone="no"?>
<!-- Created with Inkscape (http://www.inkscape.org/) -->

<svg
   xmlns:dc="http://purl.org/dc/elements/1.1/"
   xmlns:cc="http://creativecommons.org/ns#"
   xmlns:rdf="http://www.w3.org/1999/02/22-rdf-syntax-ns#"
   xmlns:svg="http://www.w3.org/2000/svg"
   xmlns="http://www.w3.org/2000/svg"
   xmlns:sodipodi="http://sodipodi.sourceforge.net/DTD/sodipodi-0.dtd"
   xmlns:inkscape="http://www.inkscape.org/namespaces/inkscape"
   version="1.1"
   width="291.62531"
   height="332.0903"
   id="svg6313"
   sodipodi:docname="logo_very_rough_white.svg"
   inkscape:version="0.92.2 (5c3e80d, 2017-08-06)">
  <sodipodi:namedview
     pagecolor="#ffffff"
     bordercolor="#666666"
     borderopacity="1"
     objecttolerance="10"
     gridtolerance="10"
     guidetolerance="10"
     inkscape:pageopacity="0"
     inkscape:pageshadow="2"
     inkscape:window-width="777"
     inkscape:window-height="480"
     id="namedview7"
     showgrid="false"
     inkscape:zoom="0.71065008"
     inkscape:cx="145.81265"
     inkscape:cy="166.04515"
     inkscape:window-x="67"
     inkscape:window-y="27"
     inkscape:window-maximized="0"
     inkscape:current-layer="svg6313" />
  <defs
     id="defs6315" />
  <metadata
     id="metadata6318">
    <rdf:RDF>
      <cc:Work
         rdf:about="">
        <dc:format>image/svg+xml</dc:format>
        <dc:type
           rdf:resource="http://purl.org/dc/dcmitype/StillImage" />
        <dc:title></dc:title>
      </cc:Work>
    </rdf:RDF>
  </metadata>
  <g
     transform="translate(-1256.8484,-861.26482)"
     id="layer1"
     style="fill:#ffffff">
    <path
       d="m 1402.6609,861.26502 c -66.4269,0 -122.4575,44.3972 -140.0625,105.1562 l 15,-16.9062 7.2188,-4.0625 c -0.7912,-3.4005 0.6138,-7.0876 3.7187,-8.875 l 13.4063,-7.75 c 3.1164,-1.7945 7.0463,-1.1226 9.5937,1.2812 l 6.9688,-6.1875 16.4375,-1.5312 13.5625,-2.8125 1.6875,-0.3125 -1.0625,-1.3438 -9.6875,-1.4062 -1.3438,-8.4063 -7.7812,-5.25 9.125,4.2813 1.7812,8 9.0313,0.6562 13.5,0.2188 4,-5.3125 7.5312,-7.6563 10.125,0.031 -1.875,-4.4062 1.8438,-5.125 0.3437,4.4062 2.875,4.9688 8.9688,-0.9063 7.9375,-2.3125 13.625,-3.1875 8.2812,3.7813 14.0938,4.75 0.8125,-0.5625 -0.5938,-4.9063 -3.0312,-4.0625 4.4687,2.9376 0.8125,3.4375 3.3125,-4.2188 -1.3125,-11.2187 3.6875,-2.2188 -1.6875,3.4688 1.1563,10.9062 -2.1563,6.1563 9.3125,-2.7188 10.0313,6.5313 9.1875,13.5 12,4.875 2.3437,-3.9063 0.5313,-3.6562 1.2187,4.0312 -1.9062,5.2188 2.2812,9.7187 15.6875,13.75 c 0,0 0.3955,0.9396 0.7188,1.7188 l 1.5937,-2.1563 5.7501,-1.1875 3.0312,-2.1562 -2.125,3.6562 -5.4063,2.2813 -1.375,3.0312 c 0.2546,0.5707 0.5294,1.0922 0.7813,1.625 l 6.25,-0.5937 7.2188,4.9062 4.6562,-1.0625 -5.2187,2.9063 -7.3125,-4.2813 -5.2813,1.375 0.125,8.5938 4.0625,7.3437 1.4375,13.2813 -4.0625,9.37498 5.375,6.4062 7.75,0.9688 2.875,4.5312 5.0938,-2.125 5,3.25 -5.1563,-2.1562 -4.25,2 0.5625,1.8437 -0.9375,1.875 0.094,-1.5937 -0.75,-1.6563 -3.4375,-4.5937 -5.0937,-0.2813 2.625,3.1563 -4.3438,13 -11.5313,18.9375 -5.6562,10.6875 -0.9375,10.9375 4.0312,1.9375 4.9375,-1.375 3.3125,1.2187 -3.1875,0.2188 -4.5937,2.125 -4.7813,-1.1563 -14.4687,14.5938 -9.9688,0.5937 -3.8125,2.625 c 0.6804,4.3508 1.0313,8.8487 1.0313,13.4688 0,15.152 -3.8511,29.1046 -10.3125,40.2187 50.982,-22.7228 86.5,-73.837 86.5,-133.2812 0,-80.56898 -65.2655,-145.87478 -145.8125,-145.87498 z m -20.75,42.6875 -7.4687,1.7187 -2.4688,4.75 2.1563,4.5938 6.5312,-1.0313 5.0938,-5.0625 z m 75.5,0 -3.75,0.9375 0.9688,3.4687 5.0937,2.5938 2.3125,-3.1563 z m -6.2187,0.875 -3.5,1.25 2.4062,3.7187 2.9375,-0.8437 z m -101.2188,23.4062 -28.5,5.7813 -10.75,6.2187 -1.4687,-2.5 c -0.8297,-1.4335 -2.6878,-1.9217 -4.125,-1.0937 l -13.375,7.75 c -1.4372,0.8278 -1.9547,2.6289 -1.125,4.0625 l 1.4375,2.5 -10.75,6.2187 -19.2813,21.6875 13.9688,24.21878 28.5,-5.84378 10.75,-6.2187 16,27.62498 c -14.224,15.4389 -28.016,42.9517 -30.3125,61.0312 5.1573,7.256 19.6351,16.9605 28.0312,22.375 l -3.8125,10.5938 c -10.4943,-5.6634 -21.0397,-21.7827 -26.6562,-32.0313 2.075,-17.2804 9.2135,-37.5918 19.9687,-55.6562 l -6.6875,-1.125 -5.5625,4.0937 -4.8125,0.062 3.9688,-1.8125 4.75,-4.9062 8.2812,-0.5938 2.25,-13.5937 -4.5625,-7.28128 -11.7812,6.03128 -32.5625,5.4062 -14.3438,-17.24998 c -0.3791,4.3292 -0.5625,8.72968 -0.5625,13.15628 1.7418,49.1661 24.4149,103.0611 62.5726,125.91 l 2.2712,-4.6288 c 1.4231,0.9516 2.8233,1.9103 4.2812,2.8125 20.522,17.6552 44.8993,22.0421 69.625,22.4347 l -10.1562,-41.3722 46.0625,79.5625 c 0.8298,1.4339 2.6878,1.9218 4.125,1.0938 l 13.4062,-7.7188 c 1.4372,-0.8277 1.9236,-2.6602 1.0938,-4.0937 l -54,-93.2813 c 2.7088,-1.768 4.6417,-3.3193 5.0312,-4.3437 1.7155,-4.5149 -5.8165,-23.9742 -9.25,-29.9063 -2.4129,-4.1682 -6.0928,-6.1759 -9.4062,-7.0937 1.1673,-0.5062 2.0502,-0.8428 2.5312,-0.8125 3.8145,0.2407 9.879,1.8493 13.3125,7.7812 3.4338,5.9321 10.9342,25.3916 9.2188,29.9063 l -3.875,4.0937 c 3.2093,23.2609 41.7608,45.7399 40.2812,60.875 0,0 16.8084,-16.0858 16.1563,-27.9687 -0.6518,-11.883 6.1044,-17.0113 5.8437,-24.9375 -0.2606,-7.9262 -2.5725,-8.6762 -2.75,-12.9063 -0.1775,-4.2301 3.9914,-7.965 3.8125,-12.6875 -0.3578,-9.4439 -6.4816,-8.894 -6.4062,-16.9375 0.085,-9.1352 2.6875,-6.2337 2.6875,-13.5937 0,-7.3602 -8.125,-11.5491 -8.125,-14.4688 l 0,-1.75 c 4.8373,-0.1677 14.1191,-0.6184 15.2187,-1.7187 2.633,-2.6332 0.7813,-15.5315 0.7813,-15.5313 l -15.0625,-10.06248 -0.9375,-7.5625 2.3437,0 c 0.8698,0 1.5625,-0.6926 1.5625,-1.5625 l 0,-12.7187 c 0,-0.8701 -0.6927,-1.5313 -1.5625,-1.5313 l -5.625,0 c -5.4093,-13.86 -17.6486,-24.3423 -32.625,-27.0937 l 0,-4.2188 -15.875,0 0,4.2188 c -14.9764,2.7514 -27.2153,13.2337 -32.625,27.0937 l -6.9062,0 c -0.8698,0 -1.5625,0.6611 -1.5625,1.5313 l 0,12.7187 c 0,0.8699 0.6927,1.5627 1.5625,1.5625 l 1,0 -4.9063,15.78128 -1.9062,-7.43748 c -3.7127,2.1075 -7.2889,4.45208 -10.6875,6.99998 l -13.4688,-23.28128 10.7813,-6.1875 19.2812,-21.7187 z m 165.2813,81.53128 -3.8125,7.0937 2.2187,4.6875 4.3438,-2.2187 1.9687,-7.4063 z m -22.625,48.0625 -4.8438,5.3125 -0.75,6.625 4.8125,2.0625 4.6563,-2.5625 1.375,-7.5938 z m -4.3438,13.5937 -0.9375,3.625 1.5,1.5625 2.4063,-0.9687 1.2812,-2.5313 z"
       id="path6307"
       style="fill:#ffffff;fill-opacity:1;stroke:none" />
  </g>
</svg>
