<svg xmlns="http://www.w3.org/2000/svg" width="55" height="52"><g fill="none" fill-rule="evenodd"><path fill="#FFF" fill-rule="nonzero" d="M0 0h55v52H0z"/><g fill="#282828"><path d="M41.381 18.748c-.143-6.854-5.711-12.422-12.565-12.422-6.852 0-12.278 5.712-12.278 12.565h-2.427c0-7.568 5.996-13.707 13.563-13.85 7.568 0 13.85 6.14 13.85 13.707h-.143z"/><path d="M41.238 18.89c0-5.568-4.426-9.994-9.994-9.994s-9.566 4.426-9.566 9.995h-2.713c0-6.283 5.14-11.28 11.422-11.422 6.14 0 11.137 5.71 11.28 11.28l-.429.142z"/><path d="M41.381 18.748c0-3.998-3.427-7.282-7.567-7.282-4.14 0-7.139 3.284-7.139 7.425h-2.57c0-4.855 3.712-8.853 8.566-8.853 4.855 0 8.71 3.998 8.853 8.71h-.143z"/><path d="M14.396 18.89c0 6.855 5.568 12.422 12.422 12.422 6.996 0 12.421-5.712 12.421-12.564h2.427c0 7.567-6.139 13.85-13.706 13.85-7.567 0-13.707-6.14-13.85-13.707h.286z"/><path d="M14.396 18.748c0 5.568 4.426 9.994 9.995 9.994 5.568 0 9.708-4.426 9.566-9.994h2.713c0 6.282-5.14 11.422-11.28 11.422-6.282 0-11.28-5.712-11.28-11.279l.286-.143z"/><path d="M14.254 18.89c.142 3.999 3.569 7.283 7.566 7.283 4.141 0 7.14-3.284 7.14-7.425h2.57c0 4.855-3.713 8.852-8.567 8.852a8.653 8.653 0 0 1-8.71-8.71M3.84 47.048l.518-1.152h2.879l.172 1.152h2.88l-1.613-8.925H5.74L.96 47.048h2.88zm3.224-2.994H5.221l1.497-3.225.346 3.225zm4.549 2.994l1.555-8.925h2.937l-1.555 8.925zm7.544 0l.518-3.11h1.152c.345 0 .633.059.806.116.173.115.288.23.346.403.057.173.057.403 0 .691l-.058.691c-.115.576-.115.98-.115 1.21H24.8v-.289c-.058 0-.172 0-.172-.057-.058-.058-.058-.173 0-.403l.23-1.382c.058-.633.058-1.094-.116-1.325-.172-.287-.518-.518-1.036-.748.288-.058.518-.173.748-.288.288-.23.519-.461.692-.749.23-.345.345-.69.46-1.151.058-.346.058-.634 0-.864a1.92 1.92 0 0 0-.288-.691 2.72 2.72 0 0 0-.576-.576c-.288-.115-.576-.23-.978-.288a10.793 10.793 0 0 0-1.555-.115H17.89l-1.555 8.925h2.822zm1.152-6.737h1.44c.46 0 .748.058.92.23.116.116.173.346.116.576-.058.288-.173.519-.403.634-.173.172-.519.23-.98.23h-1.381l.288-1.67zm10.538 2.995c.576 0 .921.115 1.093.23.174.173.231.346.174.634-.058.23-.174.46-.403.633-.23.115-.576.23-1.152.23h-1.21l.288-1.727h1.21zm-.173 3.742c.69 0 1.152-.057 1.44-.115.288-.058.633-.172.921-.288.345-.172.576-.288.748-.46.288-.174.461-.46.634-.749a2.6 2.6 0 0 0 .403-1.037c.058-.517 0-.978-.173-1.324-.23-.403-.518-.633-.979-.749.864-.518 1.382-1.15 1.498-1.9.172-.806-.058-1.382-.692-1.785-.46-.346-1.209-.518-2.36-.518h-4.377l-1.555 8.925h4.492zm.46-6.91c.404 0 .692.058.806.058a.587.587 0 0 1 .346.287c.116.116.116.288.116.462-.058.23-.174.402-.403.576-.173.114-.519.23-.98.23h-1.094l.288-1.613h.922zm6.45-2.015h2.88l-.98 5.528c-.057.346-.057.634 0 .806a.77.77 0 0 0 .404.46c.23.116.46.173.748.173.403 0 .807-.114 1.036-.345.288-.23.461-.633.576-1.094l.98-5.528h2.879l-.922 5.24c-.115.634-.23 1.151-.403 1.555-.173.346-.403.69-.69.979-.289.288-.634.575-.98.748-.403.23-.806.403-1.267.519-.518.057-1.036.115-1.554.115a12.54 12.54 0 0 1-1.613-.115c-.46-.116-.806-.288-1.094-.519-.345-.23-.576-.46-.748-.748-.173-.288-.288-.691-.288-1.152-.058-.288 0-.806.115-1.44l.921-5.182zm17.391 2.591h-2.822c0-.23-.115-.46-.23-.576-.173-.115-.404-.173-.75-.173-.345 0-.633.058-.805.173-.173.115-.23.23-.288.403 0 .173 0 .23.115.346.116.115.403.23.921.346l1.095.287c.979.288 1.67.634 2.015 1.094.346.46.46.98.346 1.613a3.445 3.445 0 0 1-.576 1.325 3.96 3.96 0 0 1-.98.978c-.345.23-.805.403-1.324.576a7.813 7.813 0 0 1-1.67.173c-.575 0-1.151-.058-1.67-.23-.518-.173-.921-.404-1.21-.692a2.415 2.415 0 0 1-.633-1.036c-.057-.288-.057-.633-.057-1.036h2.822c0 .288.115.517.288.633.173.172.518.23.978.23.404 0 .692-.058.864-.172.173-.115.23-.231.288-.403 0-.173 0-.346-.115-.461-.115-.115-.403-.23-.921-.346l-.98-.23c-.46-.115-.978-.288-1.381-.518-.403-.23-.749-.519-.922-.922-.172-.345-.172-.748-.115-1.267.115-.518.288-.92.576-1.324a3.17 3.17 0 0 1 1.037-.922c.345-.288.806-.403 1.266-.518a5.694 5.694 0 0 1 1.382-.173c.576 0 1.037.058 1.498.173.46.115.748.288 1.036.46.23.173.403.404.519.634.172.23.23.461.288.691.057.23.115.519.115.864"/></g></g></svg>