<svg xmlns="http://www.w3.org/2000/svg" xmlns:xlink="http://www.w3.org/1999/xlink" width="130" height="52"><defs><path id="a" d="M0 0h130v52H0z"/></defs><g fill="none" fill-rule="evenodd"><mask id="b" fill="#fff"><use xlink:href="#a"/></mask><use fill="#FFF" fill-rule="nonzero" xlink:href="#a"/><g mask="url(#b)"><g transform="translate(2.08 10.4)"><circle cx="15.86" cy="15.86" r="15.86" fill="#282828"/><path fill="#282828" d="M118.616 10.125l-4.97 11.45h2.454l3.585-8.304 1.479 3.271-.975 2.107h1.761l1.227 2.926h2.642l-4.86-11.45zm-26.774 0l-4.97 11.45h2.454l3.585-8.304 1.479 3.271-.975 2.107h1.761l1.227 2.926h2.642l-4.86-11.45zm16.908 6.991l-5.415-6.99h-2.112v11.449h2.47l-.02-7.168 5.493 7.168h2.083v-11.45h-2.5zm-27.81.839l-2.986-7.83h-2.717l4.688 11.45h2.09l4.717-11.45h-2.627zM65.323 15.85v-4.733s3.163-.039 4.3 0c.857.03 2.598.448 2.598 2.24 0 1.791-1.302 2.478-2.12 2.493-1.33.025-4.778 0-4.778 0m4.91.973c1.153-.022 2.989-.99 2.989-3.516s-2.455-3.116-3.663-3.157c-1.604-.055-5.2 0-5.2 0v11.425h1.084V16.83c.93.005 2.3.01 3.468.005l3.514 4.739h1.084l-3.521-4.748.245-.004m-13.622-6.697h-1.174l.046.1-5.083 11.35h1.084l4.54-10.14 2.633 5.88-.647 1.222h1.194l1.36 3.038h1.084l-5.082-11.35zm-12.998.827c2.41 0 3.78 1.8 3.78 1.8l.813-.77S46.512 9.78 43.563 9.78c-2.736 0-5.596 2.557-5.596 6.01 0 3.841 2.86 6.01 5.596 6.01 2.949 0 4.643-2.2 4.643-2.2l-.814-.77s-1.37 1.8-3.779 1.8c-3.564 0-4.549-3.602-4.549-4.84s.985-4.84 4.55-4.84"/><path d="M22.556 18.242c-.126.126-1.431.425-2.22.485-.105.008-.44.063-.405-.117.036-.18.692-1.77 1.627-1.842.935-.072.944.233.998.404.054.17.126.944 0 1.07m-3.326.583c-.317.117-2.953.148-3.725.155v.004H15.4v-.004c-.772-.007-3.408-.038-3.725-.155-.372-.137-.224-.76.089-.783.257-.02 2.702-.007 3.556-.002v.002h.254v-.002c.842-.005 3.309-.018 3.568.002.312.024.46.646.088.783m-8.66-.098c-.79-.06-2.095-.36-2.221-.485-.126-.126-.054-.9 0-1.07.054-.17.063-.476.998-.404.935.071 1.591 1.663 1.627 1.842.036.18-.3.125-.405.117m1.341-6.82c.143-.071 2.564-.09 2.564-.09s.046.302.053.404c.008.103.179.13.179.13h1.493s.172-.027.179-.13c.007-.102.053-.403.053-.403s2.421.018 2.564.089c.142.07 1.406 2.296 1.406 2.421s-.07.232-.302.232h-4.525v-.007h-.254v.007h-4.514c-.231 0-.302-.107-.302-.232s1.264-2.35 1.406-2.421m11.195 5.67c.007-.304-.077-.65-.174-.788-.097-.139-1.476-1.983-1.328-1.995.276-.024.83-.046.989-.065.23-.027.493-.291.495-.397.002-.137-.132-.527-.478-.758-.346-.231-1.352-.198-1.467-.198-.116 0-.083.478-.083.478s-.412-.791-.989-1.648c-.577-.858-1.104-.808-1.22-.907-.115-.099-2.621-.083-2.621-.083h-1.553s-2.506-.016-2.621.083c-.115.099-.643.05-1.22.907s-.99 1.648-.99 1.648.034-.478-.082-.478c-.115 0-1.12-.033-1.467.198-.346.23-.48.621-.478.758.002.106.265.37.495.397.159.019.713.041.989.065.148.012-1.23 1.856-1.328 1.995-.097.138-.181.484-.174.789.008.304 0 5.134 0 5.134s.05.332.34.332h1.813s.402-.014.402-.263v-.401l5.045-.041h.105l5.046.04v.402c0 .25.401.263.401.263h1.813c.29 0 .34-.332.34-.332s-.008-4.83 0-5.134M15.613 7.97c2.121 0 3.841.228 3.841.51 0 .282-1.72.51-3.841.51-2.121 0-3.841-.228-3.841-.51 0-.282 1.72-.51 3.841-.51m0 1.601c2.484 0 4.498-.488 4.498-1.091s-2.014-1.092-4.498-1.092c-2.484 0-4.498.489-4.498 1.092 0 .603 2.014 1.091 4.498 1.091" fill="#FFF"/></g></g></g></svg>