<svg xmlns="http://www.w3.org/2000/svg" xmlns:xlink="http://www.w3.org/1999/xlink" width="83" height="22"><defs><path id="a" d="M0 0h85v34H0z"/></defs><g fill="none" fill-rule="evenodd" transform="translate(-1 -6)"><mask id="b" fill="#fff"><use xlink:href="#a"/></mask><g mask="url(#b)"><path fill="#FFF" d="M78.917 13.42l-3.25 7.486h1.604l2.345-5.429.967 2.139-.638 1.378h1.152l.802 1.912h1.727L80.45 13.42zm-17.507 0l-3.249 7.486h1.604l2.345-5.429.966 2.139-.637 1.378h1.151l.803 1.912h1.727l-3.177-7.486zm11.056 4.571l-3.54-4.57h-1.382v7.485h1.615l-.012-4.686 3.591 4.686H74.1V13.42h-1.634zm-18.184.549l-1.952-5.12h-1.777l3.065 7.487h1.367l3.085-7.487h-1.718zm-10.211-1.377V14.07s2.068-.026 2.812 0c.56.019 1.698.293 1.698 1.464 0 1.172-.851 1.62-1.386 1.63-.869.017-3.124 0-3.124 0m3.21.637c.754-.015 1.955-.648 1.955-2.3 0-1.65-1.605-2.037-2.395-2.064-1.049-.035-3.4 0-3.4 0v7.471h.709v-3.102c.608.003 1.503.007 2.267.003l2.298 3.099h.708l-2.302-3.105.16-.002m-8.906-4.381h-.767l.03.066-3.324 7.42h.709l2.968-6.63 1.722 3.845-.423.8h.78l.89 1.985h.709l-3.323-7.42zm-8.499.54c1.576 0 2.471 1.178 2.471 1.178l.533-.504s-1.108-1.439-3.037-1.439c-1.788 0-3.658 1.672-3.658 3.93 0 2.512 1.87 3.93 3.658 3.93 1.929 0 3.037-1.44 3.037-1.44l-.533-.503s-.895 1.177-2.47 1.177c-2.331 0-2.975-2.354-2.975-3.164s.644-3.164 2.974-3.164M11.73 6.8c5.727 0 10.37 4.643 10.37 10.37 0 5.727-4.643 10.37-10.37 10.37-5.727 0-10.37-4.643-10.37-10.37 0-5.727 4.643-10.37 10.37-10.37zm.764 7.334h-2.06c-.487.002-1.145.013-1.192.054-.075.064-.42.032-.798.593-.377.56-.646 1.077-.646 1.077s.021-.312-.054-.312c-.076 0-.733-.022-.96.13-.226.15-.314.406-.312.495.001.07.173.242.324.26.103.012.466.026.646.042.097.008-.805 1.214-.868 1.304-.063.09-.119.317-.114.516.005.2 0 3.357 0 3.357s.032.217.223.217h1.185s.262-.009.262-.172v-.262l3.3-.027h.068l3.299.027v.262c0 .163.262.172.262.172h1.186c.19 0 .222-.217.222-.217v-.062c0-.444-.005-3.112 0-3.295.005-.199-.05-.425-.114-.516-.063-.09-.964-1.296-.868-1.304.18-.016.543-.03.647-.042.15-.018.322-.19.323-.26.002-.09-.086-.345-.312-.496-.227-.15-.884-.13-.96-.13-.075 0-.053.313-.053.313s-.27-.517-.647-1.077c-.378-.56-.722-.529-.798-.593-.047-.04-.705-.052-1.191-.054zm-1.117 4.461v.002h.166v-.002c.55-.003 2.163-.011 2.333.002.204.015.301.422.058.512-.208.076-1.931.097-2.436.101v.002h-.069v-.002c-.505-.004-2.228-.025-2.436-.101-.243-.09-.146-.497.059-.512.168-.013 1.767-.005 2.325-.002zm4.731-.567c.036.112.083.617 0 .7-.082.082-.936.277-1.452.317-.068.005-.288.04-.264-.077.023-.117.452-1.158 1.064-1.205.611-.047.617.153.652.265zm-8.637-.265c.612.047 1.04 1.088 1.064 1.205.024.118-.196.082-.264.077-.516-.04-1.37-.235-1.452-.318-.082-.082-.035-.587 0-.7.035-.11.041-.31.652-.264zm4.632-3.236s1.584.012 1.677.058c.093.047.92 1.502.92 1.583 0 .082-.047.152-.199.152h-2.958v-.004h-.166v.004H8.426c-.152 0-.198-.07-.198-.152 0-.081.826-1.536.92-1.583.093-.046 1.676-.058 1.676-.058s.03.197.035.264c.004.067.116.085.116.085h.977s.112-.018.117-.085c.004-.067.034-.264.034-.264zm-.535-2.896c-1.624 0-2.94.32-2.94.713 0 .395 1.316.714 2.94.714 1.625 0 2.941-.32 2.941-.714 0-.394-1.316-.713-2.94-.713zm0 .38c1.388 0 2.512.15 2.512.333 0 .185-1.124.334-2.512.334-1.387 0-2.511-.15-2.511-.334 0-.184 1.124-.333 2.511-.333z"/></g></g></svg>