<svg xmlns="http://www.w3.org/2000/svg" xmlns:xlink="http://www.w3.org/1999/xlink" width="198" height="52"><defs><path id="a" d="M0 0h198v52H0z"/></defs><g fill="none" fill-rule="evenodd"><mask id="b" fill="#fff"><use xlink:href="#a"/></mask><use fill="#FFF" fill-rule="nonzero" xlink:href="#a"/><g fill="#B0B0B0" mask="url(#b)"><path d="M23.675 35.19V17.326h3.681V32.05h7.146v3.14H23.675zm24.903 0l-1.299-4.33h-6.388l-1.3 4.33h-4.006l6.172-17.973h4.548l6.28 17.974h-4.007zm-2.165-7.47c-1.191-3.899-1.84-6.064-1.95-6.497-.107-.542-.216-.866-.324-1.191-.325 1.083-1.083 3.681-2.274 7.796l4.548-.109zm18.515 2.49c.109 1.407-.541 2.815-1.732 3.79-1.408 1.082-3.032 1.515-4.764 1.407-1.733 0-3.465-.325-4.981-1.083v-3.573c.974.433 1.949.866 3.032 1.191a8.243 8.243 0 0 0 2.273.325c.65 0 1.3-.108 1.841-.541.433-.325.65-.867.65-1.408 0-.325-.108-.65-.325-.866-.217-.325-.541-.542-.866-.758-.758-.433-1.516-.866-2.274-1.191a6.882 6.882 0 0 1-2.382-1.516 4.794 4.794 0 0 1-1.3-1.624c-.324-.65-.54-1.408-.433-2.166-.108-1.407.542-2.815 1.516-3.681 1.3-.975 2.816-1.408 4.44-1.3.866 0 1.732.109 2.598.325.867.217 1.733.542 2.599.867l-1.191 2.923c-.758-.325-1.516-.65-2.382-.758-.542-.325-1.191-.433-1.84-.433-.542 0-1.192.108-1.625.541a1.793 1.793 0 0 0-.541 1.3c0 .325.108.65.216.866.217.325.433.541.758.758.758.433 1.516.866 2.382 1.19 1.3.542 2.382 1.409 3.357 2.383.65.866.974 1.949.974 3.032zm13.643 0c.108 1.407-.541 2.815-1.732 3.79-1.408.974-3.032 1.515-4.764 1.407-1.733 0-3.465-.325-4.981-1.083v-3.573c.974.433 1.949.866 3.032 1.191a8.243 8.243 0 0 0 2.273.325c.65 0 1.3-.108 1.841-.541.433-.325.65-.867.65-1.408 0-.325-.109-.65-.325-.866-.217-.325-.541-.542-.866-.758-.758-.433-1.516-.866-2.274-1.191a6.882 6.882 0 0 1-2.382-1.516 4.794 4.794 0 0 1-1.3-1.624c-.324-.65-.54-1.408-.433-2.166-.108-1.407.542-2.815 1.516-3.681 1.3-.975 2.815-1.408 4.44-1.3.866 0 1.732.109 2.598.325.866.217 1.733.542 2.599.867l-1.191 2.923c-.758-.325-1.516-.65-2.382-.758a3.826 3.826 0 0 0-1.841-.433c-.541 0-1.191.108-1.624.541-.325.217-.542.758-.542 1.191 0 .325.109.65.217.867.217.325.433.541.758.758.758.433 1.516.866 2.382 1.19 1.3.542 2.382 1.408 3.357 2.383.65.974.974 2.057.974 3.14zm18.516-9.962c-1.3 0-2.49.542-3.249 1.624-.866 1.3-1.19 2.924-1.19 4.44 0 4.006 1.407 5.955 4.439 5.955 1.515-.108 3.031-.325 4.547-.866v3.14c-1.516.65-3.14.974-4.764.866-2.274.108-4.44-.758-5.847-2.382-1.408-1.624-2.057-3.898-2.057-6.821 0-1.733.325-3.357.974-4.873.65-1.3 1.624-2.49 2.924-3.248 1.299-.758 2.815-1.083 4.44-1.083 1.84 0 3.572.433 5.196 1.3l-1.19 3.031c-.65-.325-1.3-.65-1.95-.866-.866-.108-1.516-.217-2.273-.217zm18.082 14.943h-10.07V17.325h10.07v3.14h-6.389v3.898h5.956v3.14h-5.956v4.548h6.389v3.14zm19.273 0h-4.764l-7.688-13.535h-.108c.217 2.382.217 4.114.217 5.089v8.446h-3.357V17.325h4.656l7.688 13.426h.108c-.108-2.274-.217-4.006-.217-4.98v-8.446h3.357l.108 17.866zm10.72 0h-3.682V20.465h-4.764v-3.14h13.318v3.14h-4.764l-.108 14.726zm10.61-6.822v6.822h-3.68V17.325h5.088c2.382 0 4.115.433 5.306 1.3a4.776 4.776 0 0 1 1.732 4.005c0 .975-.325 1.95-.866 2.816-.65.866-1.408 1.515-2.382 1.949 2.599 4.006 4.44 6.605 5.197 7.796h-4.114l-4.223-6.822h-2.057zm0-3.14h1.192a3.765 3.765 0 0 0 2.598-.65c.542-.433.867-1.19.867-1.949.108-.758-.217-1.407-.867-1.84-.866-.433-1.732-.65-2.598-.542h-1.191v4.981zm23.822 9.962l-1.3-4.332h-6.388l-1.3 4.332H166.6l6.172-17.974h4.548l6.28 17.974h-4.006zm-2.166-7.472c-1.19-3.898-1.84-6.063-1.949-6.496a8.616 8.616 0 0 0-.325-1.191c-.216 1.083-.974 3.573-2.274 7.796l4.548-.109zm8.23 7.472V17.325h3.68V32.05h7.147v3.14h-10.828zM13.171 31.184l-.433-3.573c.758-.325 1.19-1.3.758-2.165-.109-.217-.325-.542-.65-.65l.866-3.573c.758-.542 1.624-.866 2.49-.866.65 0 1.3.108 1.95.324.65.217 1.299.542 1.949.758l1.19-3.031a11.361 11.361 0 0 0-5.088-1.191c-1.516 0-3.032.324-4.332 1.082-.216.325-.433.433-.65.65l-2.49 3.14c-.108 0-.216-.108-.324-.108-.542 0-.975.433-.975 1.083 0 .433.217.757.65.866l-.217 5.63c-.433.217-.758.65-.758 1.083 0 .541.433.974.975 1.083.108 0 .325-.109.433-.109l2.165 1.95c1.408 1.299 3.357 1.948 5.306 1.84 1.624 0 3.248-.325 4.764-.866V31.4c-1.407.541-2.923.866-4.44.866-1.19.217-2.273-.325-3.14-1.083zm-4.115-.541c0-.217-.108-.433-.216-.65l2.598-2.382c.217.108.433.217.65.217l.758 3.356-3.79-.541zm3.032-5.955c-.325 0-.758.108-.974.325l-1.841-1.3c.108-.216.108-.325.108-.541v-.325l3.682-1.949.433.433-1.191 3.357h-.217zm-.758-5.63l1.516 1.623-3.573 1.841a.233.233 0 0 0-.217-.216l2.274-3.249zm-2.923 5.088c.216 0 .433-.108.65-.216l1.84 1.407c-.325.217-.325.542-.325.867 0 .433.108.757.433 1.082l-2.382 2.49c-.108-.108-.325-.108-.433-.216l.217-5.414zm.541 6.93l3.681.433-1.949 1.95L8.732 31.4c.109-.108.109-.217.217-.325z"/></g></g></svg>