<svg xmlns="http://www.w3.org/2000/svg" width="186" height="31"><path d="M10.946 9.657L0 11.837l7.567 8.153L6.271 31h.008l10.14-4.627L26.558 31h.007l-1.288-11.01 7.563-8.152-10.946-2.18L16.42 0zm75.814 0l-10.946 2.18 7.568 8.153L82.086 31h.007l10.14-4.627L102.372 31h.007l-1.288-11.01 7.564-8.152-10.947-2.18L92.234 0zm-37.906 0l-10.947 2.18 7.568 8.153L44.179 31h.007l10.14-4.627L64.465 31h.007l-1.288-11.01 7.563-8.152L59.8 9.658 54.327 0zm75.814 0l-10.947 2.18 7.568 8.153L119.993 31H120l10.141-4.627L140.278 31h.007l-1.288-11.01 7.564-8.152-10.947-2.18L130.141 0zm38.885 0l-10.946 2.18 7.567 8.153L158.878 31h.008l10.14-4.627L179.163 31h.008l-1.289-11.01 7.564-8.152-10.946-2.18L169.026 0z" fill="#FF3D2E" fill-rule="evenodd"/></svg>