<svg xmlns="http://www.w3.org/2000/svg" viewBox="0 0 405.6 115"><defs><style>.cls-1{fill:#1d313a}</style></defs><g id="Слой_2" data-name="Слой 2"><g id="Слой_1-2" data-name="Слой 1"><path class="cls-1" d="M105.6 0h17.6v113.5h-17.6zm81.7 78.5c0 17.6-14.4 19-18.8 19-11 0-12.6-10.3-12.6-16.5V37.1h-17.7v43.8c-.1 10.9 3 19.9 9 25.9 5.3 5.3 12.7 8.2 21.3 8.2a32.13 32.13 0 0 0 18.8-6.1v4.6H205V37.1h-17.7zm55.9-67.1h-17.7v25.7h-12.4v16.7h12.4v59.7h17.7V53.8h14.5V37.1h-14.5zm71.7 80.4a22.35 22.35 0 0 1-15.1 5.6c-12.8 0-22.2-9.4-22.2-22.3s9.1-21.9 22.2-21.9a22.9 22.9 0 0 1 15.2 5.5l2.8 2.4 12.4-12.4-3.1-2.8a40.58 40.58 0 0 0-27.3-10.3c-23 0-39.7 16.6-39.7 39.4s17.1 39.9 39.7 39.9a40.14 40.14 0 0 0 27.5-10.4l3-2.8-12.6-12.4-2.8 2.5zm81.7-48c-5.3-5.3-12.7-8.2-21.3-8.2a32.13 32.13 0 0 0-18.8 6.1V0h-17.7v113.5h17.7V72.1c0-17.6 14.4-19 18.8-19 11 0 12.6 10.3 12.6 16.5v43.9h17.7V69.7c.1-10.9-3-19.9-9-25.9z"/><circle cx="299.2" cy="75.3" r="13.3" fill="#eb5645"/><path class="cls-1" d="M79.4 86.3a36.74 36.74 0 0 1-26.5 11.1c-20.5 0-35.4-16.1-35.4-38.2s14.9-38.3 35.4-38.3a37.16 37.16 0 0 1 26.4 11l2.8 2.8 12.3-12.3-2.7-2.8A53.56 53.56 0 0 0 52.9 3.4C22.7 3.4 0 27.4 0 59.3S22.8 115 52.9 115a53.71 53.71 0 0 0 38.9-16.3l2.7-2.8-12.2-12.5z"/></g></g></svg>