<svg xmlns="http://www.w3.org/2000/svg" width="238" height="33"><g fill="none"><path fill="#17619A" d="M13.566 11.605s-1.832-.182-1.832 1.45v7.253h12.1v2.176s.036 1.087-1.1 1.087h-11V33h13.2s7.992-1.234 8.066-9.429V11.605H13.566z"/><path fill="#0E4D7D" d="M13.566 11.605s-1.832-.182-1.832 1.45v7.253h12.1v2.176s.036 1.087-1.1 1.087H33V11.605H13.566z"/><path fill="#0B416B" d="M29.774 21.328c-2.556 1.805-5.904 2.243-7.04 2.243H33V16.32c-.432 2.125-1.508 3.795-3.226 5.009z"/><path fill="#FC8E00" d="M32.632 0H8.8C.182 2.03 0 9.102 0 9.102V33h9.168V11.242C9.168 9.392 11 9.067 11 9.067h21.634V0h-.002z"/><path fill="#FCAA00" d="M8.8 0C.182 2.03 0 9.102 0 9.102l11-.035h21.634V0H8.8z"/><path fill="#EA8000" d="M0 9.102v5.19c1.446-1.33 2.977-2.38 4.592-3.147C7.67 9.683 11 9.067 11 9.067L0 9.102z"/><path fill="#17619A" d="M67.497 28.053a45.19 45.19 0 0 1-1.537.999 27.502 27.502 0 0 1-3.604 1.876c-1.625.666-3.074.999-4.373.999-4.462 0-8.156-1.362-11.142-4.117-2.986-2.755-4.46-6.204-4.46-10.38 0-4.026 1.33-7.508 4.018-10.475 2.689-2.965 5.94-4.419 9.782-4.419 1.596 0 3.308.272 5.081.85 2.305.724 4.166 1.815 5.644 3.236l-2.571 2.845c-1.092-1.058-2.51-1.846-4.167-2.33-1.24-.363-2.598-.543-4.106-.543-2.689 0-4.965 1.086-6.767 3.237-1.802 2.179-2.717 4.752-2.717 7.778 0 2.998 1.032 5.449 3.101 7.417 2.069 1.967 4.698 2.966 7.89 2.966 1.329 0 2.69-.425 4.077-1.24 1.153-.878 1.744-1.303 1.773-1.333v-6.205h-8.628l1.24-3.874h11.466v12.713zm26.062-7.568c0 2.996-1.063 5.6-3.191 7.779-2.128 2.179-4.757 3.3-7.89 3.3-2.895 0-5.436-1.09-7.623-3.24-2.188-2.148-3.251-4.751-3.251-7.809 0-3.026 1.036-5.63 3.103-7.87s4.61-3.329 7.593-3.329c3.31 0 6 1.06 8.097 3.208 2.099 2.09 3.162 4.753 3.162 7.96zm-4.049.061c0-2.028-.68-3.754-2.038-5.146-1.359-1.423-3.043-2.12-5.053-2.12-1.89 0-3.487.727-4.816 2.18-1.33 1.453-1.98 3.118-1.98 4.994 0 1.969.679 3.633 2.009 5.026 1.33 1.393 2.985 2.118 4.993 2.118 1.863 0 3.458-.697 4.818-2.09 1.388-1.392 2.069-3.056 2.069-4.962h-.002zm29.756-.061c0 2.996-1.063 5.6-3.19 7.779-2.129 2.179-4.758 3.3-7.89 3.3-2.896 0-5.437-1.09-7.624-3.24-2.186-2.148-3.251-4.751-3.251-7.809 0-3.026 1.036-5.63 3.103-7.87 2.069-2.24 4.61-3.329 7.594-3.329 3.31 0 5.998 1.06 8.096 3.208 2.1 2.09 3.162 4.753 3.162 7.96zm-4.049.061c0-2.028-.679-3.754-2.038-5.146-1.358-1.423-3.043-2.12-5.052-2.12-1.89 0-3.487.727-4.817 2.18-1.33 1.453-1.98 3.118-1.98 4.994 0 1.969.679 3.633 2.01 5.026 1.329 1.393 2.984 2.118 4.994 2.118 1.861 0 3.456-.697 4.816-2.09 1.388-1.392 2.07-3.056 2.07-4.962h-.003zm27.837 10.411l-3.723.576v-3.602l-.798.907a9.776 9.776 0 0 1-2.364 1.635 9.552 9.552 0 0 1-4.047.878c-2.896 0-5.38-1.06-7.388-3.21-2.01-2.15-3.013-4.69-3.013-7.656 0-3.057 1.003-5.69 2.984-7.87 1.98-2.181 4.402-3.27 7.298-3.27 1.656 0 3.103.272 4.314.817a7.321 7.321 0 0 1 2.216 1.545c.207.272.415.574.622.846V3.11l3.957-.576-.058 28.423zm-3.486-10.2c0-2.118-.71-3.905-2.157-5.357-1.448-1.485-3.075-2.21-4.934-2.21-2.069 0-3.723.696-4.994 2.09-1.183 1.329-1.803 2.965-1.803 4.872 0 2.148.62 3.933 1.861 5.326 1.24 1.393 2.808 2.09 4.728 2.09 1.89 0 3.547-.636 5.024-1.937 1.507-1.333 2.276-2.967 2.276-4.874h-.001z"/><path fill="#FCA00C" d="M212.552 9.527c2.422 0 4.225.757 5.406 2.301.976 1.27 1.449 3.147 1.449 5.6v13.53l-3.96.575V17.095c0-1.333-.295-2.302-.886-2.906-.591-.607-1.478-.909-2.63-.909-1.389 0-2.453.576-3.162 1.726-.474.786-.738 1.634-.738 2.481v13.44l-3.96.727v-14.47c0-1.27-.295-2.24-.857-2.903-.591-.668-1.359-1-2.364-1h-.384c-1.39 0-2.395.575-3.015 1.755-.472.878-.708 1.998-.708 3.36v12.53l-4.107.728V10.466l3.692-.635v2.693c.415-.637.828-1.151 1.213-1.513 1.063-.999 2.305-1.484 3.692-1.484 1.566 0 2.718.243 3.516.757.68.425 1.33 1.27 1.98 2.482 1.36-2.149 3.28-3.24 5.823-3.24zM163.087 3.14l.858 3.906h-11.08v7.536h8.597v3.874h-8.598v12.471l-4.314.636V3.14h14.537zm26.832 6.508l-1.862 4.297a5.223 5.223 0 0 0-.739-.06 7.62 7.62 0 0 0-1.153.09c-.385.06-.798.213-1.24.425-.827.364-1.537 1.15-2.157 2.33a9.426 9.426 0 0 0-1.036 4.33v9.867l-3.957.636V10.466l3.663-.666v4.389c.473-.758.975-1.513 1.448-2.3.679-.788 1.477-1.362 2.364-1.697.472-.18 1.33-.332 2.629-.453 1.241-.09 1.951-.151 2.04-.09zm-17.878.212v21.096l-3.959.545V10.466l3.96-.605zm58.242-.788c1.391 0 2.69.303 3.873.94 1.182.635 2.038 1.3 2.54 2.088l-2.364 2.572a8.675 8.675 0 0 0-1.151-.968c-.946-.666-1.862-.999-2.718-.999-.829 0-1.508.182-2.04.544-.621.455-.946 1.12-.946 1.999 0 .847.296 1.482.918 1.876.531.333 1.654.697 3.427 1.089 1.771.425 3.132 1.152 4.107 2.18 1.093 1.09 1.566 2.452 1.566 4.177 0 1.936-.68 3.541-2.038 4.783-1.36 1.27-3.075 1.877-5.143 1.877-1.566 0-2.956-.364-4.226-1.09-1.27-.726-2.215-1.545-2.836-2.513l2.778-2.481a5.6 5.6 0 0 0 .56.725c1.037 1.06 2.277 1.605 3.724 1.605 1.005 0 1.803-.272 2.364-.786.591-.515.858-1.242.858-2.18 0-1.059-.68-1.786-2.038-2.18-2.69-.817-4.14-1.27-4.345-1.362-1.242-.635-2.128-1.301-2.69-2.059-.62-.878-.945-2.028-.945-3.51 0-1.818.68-3.33 2.01-4.54 1.33-1.211 2.924-1.787 4.755-1.787zm-59.956-7.566l2.512 3.329-2.66 3.36-2.54-3.36 2.688-3.33z"/></g></svg>