<svg xmlns="http://www.w3.org/2000/svg" width="187" height="31"><g fill="none"><rect width="31" height="31" fill="#3DBD8A" rx="3"/><path fill="#FFF" d="M16.096 20.478L10.84 23.33l1.089-5.88-4.337-4.118 5.929-.782 2.575-5.397 2.576 5.397 5.929.782-4.338 4.117 1.09 5.88z"/><g transform="translate(78)"><rect width="31" height="31" fill="#3DBD8A" rx="3"/><path fill="#FFF" d="M16.096 20.478L10.84 23.33l1.089-5.88-4.337-4.118 5.929-.782 2.575-5.397 2.576 5.397 5.929.782-4.338 4.117 1.09 5.88z"/></g><g transform="translate(156)"><rect width="31" height="31" fill="#3DBD8A" rx="3"/><path fill="#FFF" d="M16.096 20.478L10.84 23.33l1.089-5.88-4.337-4.118 5.929-.782 2.575-5.397 2.576 5.397 5.929.782-4.338 4.117 1.09 5.88z"/></g><g transform="translate(39)"><rect width="31" height="31" fill="#3DBD8A" rx="3"/><path fill="#FFF" d="M16.096 20.478L10.84 23.33l1.089-5.88-4.337-4.118 5.929-.782 2.575-5.397 2.576 5.397 5.929.782-4.338 4.117 1.09 5.88z"/></g><g transform="translate(117)"><rect width="31" height="31" fill="#3DBD8A" rx="3"/><path fill="#FFF" d="M16.096 20.478L10.84 23.33l1.089-5.88-4.337-4.118 5.929-.782 2.575-5.397 2.576 5.397 5.929.782-4.338 4.117 1.09 5.88z"/></g></g></svg>