<svg xmlns="http://www.w3.org/2000/svg" viewBox="0 0 130 136"><g data-name="Слой 2"><g data-name="Слой 1"><path d="M37 0h91v37H0A37 37 0 0 1 37 0z" fill="#fcaa00"/><path d="M92.5 136H46V98h84v.5A37.5 37.5 0 0 1 92.5 136z" fill="#17619a"/><path d="M46 85h47v13h37V47H53.83A7.83 7.83 0 0 0 46 54.83z" fill="#0e4d7d"/><path fill="#fc8e00" d="M0 37h37v99H0z"/><path d="M0 37v56c0-28 16.12-51.89 43-56 2.78-.42-43 0-43 0z" fill="#ea8000"/><path d="M130 97.81V49c0 23-22 47-43 48.81-2.8.24 43 0 43 0z" fill="#0b416b"/></g></g></svg>