<svg width="183" height="36" xmlns="http://www.w3.org/2000/svg"><g fill="none" fill-rule="evenodd"><g fill-rule="nonzero"><path d="M54.723 15.48c-.323-.792-.79-1.548-1.4-2.124-.611-.612-1.365-1.08-2.155-1.404-.898-.36-1.831-.504-2.8-.504h-5.136v13.536h5.135c.97 0 1.903-.144 2.801-.504 1.616-.612 2.908-1.908 3.555-3.528a7.964 7.964 0 0 0 0-5.472zm-2.37 4.752a4.24 4.24 0 0 1-.862 1.512c-.359.396-.826.72-1.328.936a5.108 5.108 0 0 1-1.796.324h-2.621v-9.54h2.621c.61 0 1.221.108 1.796.324.502.216.969.54 1.328.936.395.432.682.936.862 1.512a6.886 6.886 0 0 1 0 3.996zm6.75-4.608c-.538.252-1.04.576-1.436 1.008a4.031 4.031 0 0 0-.898 1.512 5.345 5.345 0 0 0-.323 1.836c0 .756.108 1.512.36 2.232.215.612.574 1.152 1.005 1.62.43.432.933.756 1.508.972.61.216 1.22.324 1.867.324.36 0 .682-.036 1.041-.072.36-.036.719-.144 1.042-.252.359-.108.682-.288 1.005-.504a4.36 4.36 0 0 0 .862-.756l-.646-.828a.511.511 0 0 0-.431-.216c-.144 0-.323.036-.431.144-.144.072-.323.18-.539.288a4.273 4.273 0 0 1-.718.288 3.108 3.108 0 0 1-1.975-.036 1.944 1.944 0 0 1-.79-.54 2.319 2.319 0 0 1-.538-.9 3.782 3.782 0 0 1-.252-1.296h5.817c.18.036.323-.036.431-.18.108-.216.144-.468.108-.72 0-.648-.108-1.26-.323-1.836a3.677 3.677 0 0 0-.862-1.368 3.614 3.614 0 0 0-1.329-.828 5.36 5.36 0 0 0-1.687-.288 4.36 4.36 0 0 0-1.868.396zm2.873 1.44c.251.108.467.252.646.468.18.216.288.432.395.684.072.288.144.576.144.864h-4.345a2.91 2.91 0 0 1 .718-1.62 2.157 2.157 0 0 1 1.58-.576c.252 0 .575.072.862.18zm7.433 7.92h2.083l3.806-9.612h-1.832a.722.722 0 0 0-.395.108.524.524 0 0 0-.215.324l-1.903 5.112c-.108.288-.18.576-.287.864-.108.288-.144.576-.216.864l-.215-.864a7.834 7.834 0 0 0-.252-.864l-1.83-5.112a.524.524 0 0 0-.216-.324c-.144-.072-.288-.144-.431-.108h-1.903l3.806 9.612zm4.668-13.536V13.5h4.057v11.484h2.514V13.536h4.093v-2.088H74.077zm11.957 4.14c-.539.252-1.041.576-1.436 1.008a4.031 4.031 0 0 0-.898 1.512 5.345 5.345 0 0 0-.323 1.836c0 .756.108 1.512.359 2.232.215.612.574 1.152 1.005 1.62a4.19 4.19 0 0 0 1.508.972c.61.216 1.221.324 1.868.324.359 0 .682-.036 1.04-.072.36-.036.72-.144 1.042-.252.36-.108.682-.288 1.006-.504.323-.216.61-.468.861-.756l-.646-.828a.511.511 0 0 0-.43-.216c-.144 0-.324.036-.432.144-.143.072-.323.18-.538.288a4.273 4.273 0 0 1-.718.288 3.108 3.108 0 0 1-1.975-.036 1.944 1.944 0 0 1-.79-.54 2.319 2.319 0 0 1-.539-.9 3.782 3.782 0 0 1-.251-1.296h5.924c.18.036.324-.036.431-.18.108-.216.144-.468.108-.72 0-.648-.108-1.26-.323-1.836a3.677 3.677 0 0 0-.862-1.368c-.359-.36-.826-.648-1.328-.864a5.36 5.36 0 0 0-1.688-.288c-.682.072-1.365.18-1.975.432zm2.873 1.476c.25.108.466.252.646.468.18.216.287.432.395.684.072.288.144.576.108.864H85.71a2.91 2.91 0 0 1 .718-1.62 2.157 2.157 0 0 1 1.58-.576c.323 0 .61.072.898.18zm12.244 7.92v-6.048c0-.504-.072-1.008-.251-1.512-.144-.432-.395-.828-.683-1.188-.323-.324-.682-.612-1.113-.756a4.316 4.316 0 0 0-1.508-.288 5.636 5.636 0 0 0-3.986 1.512l.395.756c.072.108.18.216.288.288.107.072.251.144.395.108.18 0 .359-.036.502-.144.144-.072.324-.18.503-.288.215-.108.43-.216.646-.288.288-.108.61-.144.934-.144.43-.036.862.144 1.185.468.323.396.467.9.395 1.44v.576c-.934 0-1.831.108-2.73.324a6.26 6.26 0 0 0-1.759.72c-.395.216-.718.576-.933.972-.18.324-.287.684-.287 1.08s.071.756.215 1.116c.144.324.323.576.575.828.25.216.574.396.897.504a4 4 0 0 0 1.113.18c.324 0 .647-.036.934-.072.287-.036.539-.144.79-.252.251-.108.503-.252.718-.432.251-.18.467-.36.718-.576l.216.684c.036.18.143.288.287.396.144.072.323.108.503.108l1.041-.072zm-5.422-1.692c-.395-.36-.467-.972-.18-1.44.144-.216.36-.36.575-.468a6.13 6.13 0 0 1 1.077-.324c.575-.108 1.113-.144 1.688-.18v1.62c-.287.324-.647.576-1.006.792-.395.18-.79.252-1.22.252-.324 0-.647-.072-.934-.252zm9.91 1.692v-7.02a3.12 3.12 0 0 1 .826-.684c.288-.18.61-.252.934-.252.43-.036.826.144 1.149.432.287.396.43.9.395 1.404v6.12h2.298v-6.12c0-.252.036-.54.144-.792.071-.216.215-.396.359-.576a1.42 1.42 0 0 1 .538-.36c.216-.072.431-.108.647-.108.43-.036.861.144 1.185.468.287.396.43.9.394 1.368v6.12h2.299v-6.12c0-.54-.072-1.044-.216-1.548a3.298 3.298 0 0 0-.646-1.152 2.591 2.591 0 0 0-1.042-.72 3.842 3.842 0 0 0-1.4-.252c-.323 0-.61.036-.898.108-.287.072-.574.18-.861.324a2.876 2.876 0 0 0-.754.54c-.216.252-.431.504-.575.828-.18-.504-.467-.972-.862-1.296a2.428 2.428 0 0 0-1.472-.504c-.251 0-.539.036-.79.108a3.822 3.822 0 0 0-.682.252c-.216.108-.395.252-.575.396-.18.144-.359.324-.538.504l-.144-.72a.615.615 0 0 0-.574-.432h-1.4v9.612h2.261v.072zm13.107-.72c.071.18.18.324.287.432.143.144.287.216.43.288.18.072.36.108.575.108.36 0 .754-.144 1.006-.396.538-.54.538-1.44 0-1.98a1.502 1.502 0 0 0-.431-.288 1.438 1.438 0 0 0-.539-.108c-.359 0-.754.144-1.005.396a1.507 1.507 0 0 0-.288.432c-.18.36-.18.756-.035 1.116zM131.6 12.708a4.722 4.722 0 0 0-1.723-1.044c-.718-.252-1.436-.396-2.19-.36a5.72 5.72 0 0 0-1.904.324c-.502.18-.97.504-1.364.864-.718.72-1.15 1.656-1.15 2.7 0 .54.073 1.08.252 1.548.144.396.395.756.718 1.044.288.288.647.504 1.006.684.359.18.754.324 1.149.432.395.108.754.252 1.149.36.359.108.682.216 1.005.396.288.144.503.324.718.576.18.252.288.576.252.864.036.54-.18 1.08-.575 1.476a2.5 2.5 0 0 1-1.651.504 4.29 4.29 0 0 1-1.185-.18 3.865 3.865 0 0 1-.862-.432 5.039 5.039 0 0 1-.647-.432.857.857 0 0 0-.502-.18c-.108 0-.216.036-.323.072-.108.072-.18.144-.252.216l-.754 1.224c.287.288.575.504.898.72.323.216.718.396 1.077.576.395.144.79.288 1.185.36.43.072.826.144 1.257.108a5.98 5.98 0 0 0 1.975-.324 4.877 4.877 0 0 0 1.472-.936c.395-.396.718-.864.898-1.404a4.62 4.62 0 0 0 .323-1.728c0-.504-.072-.972-.252-1.44-.18-.36-.395-.72-.718-1.008-.287-.288-.646-.504-1.005-.684a10.96 10.96 0 0 0-1.15-.468c-.394-.144-.79-.252-1.148-.396-.36-.108-.682-.252-1.006-.396a3.415 3.415 0 0 1-.718-.54 1.056 1.056 0 0 1-.251-.792c0-.252.036-.468.143-.684.072-.216.216-.396.395-.54.18-.144.431-.288.647-.36.287-.072.61-.144.897-.108.324 0 .683.036 1.006.144.251.072.503.18.754.324.215.108.395.216.539.324a.878.878 0 0 0 .43.144c.108 0 .216-.036.324-.072a.97.97 0 0 0 .251-.288l.61-1.188zm4.166 15.408v-3.924c.287.288.646.54 1.005.684.43.18.898.252 1.365.252.574 0 1.184-.108 1.687-.396a4.04 4.04 0 0 0 1.293-1.044 5.137 5.137 0 0 0 .826-1.584c.18-.648.287-1.332.287-1.98a8.11 8.11 0 0 0-.251-2.088 5.061 5.061 0 0 0-.719-1.548 3.106 3.106 0 0 0-1.113-.936 3.232 3.232 0 0 0-1.436-.324c-.61 0-1.22.144-1.76.396-.502.288-.969.648-1.328 1.08l-.18-.9a.615.615 0 0 0-.574-.432h-1.4v12.744h2.298zm3.016-10.908c.251.108.467.288.61.54.18.288.323.612.395.936.108.468.144.936.144 1.44 0 .504-.036.972-.144 1.44-.072.36-.251.72-.467 1.008a1.98 1.98 0 0 1-.718.612c-.287.144-.61.216-.933.18-.36 0-.683-.072-1.006-.18a2.278 2.278 0 0 1-.861-.684v-4.32c.25-.324.574-.648.933-.864.36-.216.79-.324 1.221-.288.287 0 .539.036.826.18zm12.603 7.776v-6.048c0-.504-.071-1.008-.251-1.512-.144-.432-.395-.828-.682-1.188-.323-.324-.683-.612-1.113-.756a4.316 4.316 0 0 0-1.508-.288 5.636 5.636 0 0 0-3.986 1.512l.395.756c.072.108.18.216.287.288.108.072.251.144.395.108.18 0 .36-.036.503-.144.143-.072.323-.18.502-.288a5.08 5.08 0 0 1 .647-.288c.287-.108.61-.144.933-.144.431-.036.862.144 1.185.468.323.396.467.9.395 1.44v.576c-.933 0-1.831.108-2.729.324-.61.144-1.22.396-1.76.72-.394.216-.717.576-.933.972-.18.324-.287.684-.287 1.08s.072.756.215 1.116c.144.324.324.576.575.828.251.216.574.396.898.504.359.108.754.18 1.113.18.323 0 .646-.036.933-.072.288-.036.539-.144.79-.252.252-.108.503-.252.718-.432.252-.18.467-.36.719-.576l.215.684c.036.18.144.288.287.396.144.072.323.108.503.108l1.041-.072zm-5.422-1.692c-.395-.36-.466-.972-.18-1.44.144-.216.36-.36.575-.468a6.13 6.13 0 0 1 1.078-.324c.574-.108 1.113-.144 1.687-.18v1.62c-.287.324-.646.576-1.005.792-.395.18-.79.252-1.221.252a1.74 1.74 0 0 1-.934-.252zm15.045-6.732a4.945 4.945 0 0 0-1.436-1.008 4.788 4.788 0 0 0-1.867-.36c-.682 0-1.364.108-2.01.36a4.101 4.101 0 0 0-1.473 1.044c-.395.468-.718.972-.898 1.548-.215.648-.323 1.296-.287 1.944 0 .72.108 1.44.323 2.088.216.576.503 1.116.934 1.548.395.432.862.756 1.364.972a4.538 4.538 0 0 0 1.688.324 9.43 9.43 0 0 0 1.005-.072c.324-.036.683-.144 1.006-.252.323-.108.646-.288.933-.504a4.1 4.1 0 0 0 .826-.756l-.646-.828a.511.511 0 0 0-.431-.216.54.54 0 0 0-.395.144c-.108.108-.251.18-.395.288a2.86 2.86 0 0 1-.574.288 2.473 2.473 0 0 1-.898.144c-.36 0-.682-.072-1.006-.216a2.459 2.459 0 0 1-.754-.612 2.591 2.591 0 0 1-.466-1.008c-.108-.432-.18-.9-.18-1.368 0-.432.036-.9.144-1.332.071-.36.251-.684.466-1.008a2.14 2.14 0 0 1 .755-.648 2.618 2.618 0 0 1 1.077-.216c.287 0 .538.036.79.108.18.072.395.144.538.252.144.108.288.18.395.252a.606.606 0 0 0 .36.108c.107 0 .215 0 .287-.072l.215-.216.61-.72zm3.52-.972c-.54.252-1.042.576-1.437 1.008a4.031 4.031 0 0 0-.898 1.512 5.345 5.345 0 0 0-.323 1.836c0 .756.108 1.512.36 2.232.215.612.574 1.152 1.005 1.62.43.432.933.756 1.508.972.61.216 1.22.324 1.867.324.36 0 .682-.036 1.041-.072.36-.036.718-.144 1.042-.252.359-.108.682-.288 1.005-.504a4.36 4.36 0 0 0 .862-.756l-.646-.828a.511.511 0 0 0-.431-.216c-.144 0-.324.036-.431.144-.144.072-.323.18-.539.288a4.273 4.273 0 0 1-.718.288 3.108 3.108 0 0 1-1.975-.036 1.944 1.944 0 0 1-.79-.54 2.319 2.319 0 0 1-.538-.9 3.782 3.782 0 0 1-.252-1.296h5.925c.18.036.323-.036.43-.18.108-.216.144-.468.108-.72 0-.648-.107-1.26-.323-1.836a3.677 3.677 0 0 0-.861-1.368c-.36-.36-.826-.648-1.329-.864a5.36 5.36 0 0 0-1.688-.288c-.682.072-1.364.18-1.975.432zm2.872 1.476c.251.108.467.252.646.468.18.216.288.432.395.684.072.288.144.576.108.864h-4.345a2.91 2.91 0 0 1 .718-1.62 2.157 2.157 0 0 1 1.58-.576c.323 0 .61.072.898.18z" fill="#282828"/><path d="M2.873 0h30.162a2.885 2.885 0 0 1 2.872 2.88v30.24A2.885 2.885 0 0 1 33.035 36H2.873A2.885 2.885 0 0 1 0 33.12V2.88A2.885 2.885 0 0 1 2.873 0z" fill="#9C28AD"/><path d="M26.895 14.868a8.12 8.12 0 0 0-1.94-2.952c-.861-.828-1.867-1.512-2.98-1.944-1.22-.468-2.55-.72-3.878-.684h-7.11v18.756h7.11c1.329 0 2.657-.216 3.878-.684 2.262-.864 4.058-2.628 4.92-4.896a10.65 10.65 0 0 0 0-7.596zm-3.268 6.552a6.047 6.047 0 0 1-1.185 2.088 4.858 4.858 0 0 1-1.867 1.296 6.451 6.451 0 0 1-2.478.468h-3.626V12.06h3.626a6.58 6.58 0 0 1 2.478.468c.718.288 1.328.72 1.867 1.296a5.736 5.736 0 0 1 1.185 2.088c.287.9.43 1.836.395 2.772.036.9-.108 1.836-.395 2.736z" fill="#FFF"/></g><path d="M182.586 15.337h-.684v-4.455l-1.831 4.455h-.195l-1.832-4.455v4.455h-.683V9.952h1.05l1.562 3.917 1.563-3.917h1.05v5.385zm-6.104-4.749h-1.514v4.75h-.684v-4.75h-1.514v-.636h3.712v.636z" fill="#282828"/></g></svg>