<svg xmlns="http://www.w3.org/2000/svg" viewBox="0 0 170.72 36"><defs><style>.cls-1{fill:#fff;}.cls-2{fill:#9c28ad;}</style></defs><title>logo-white</title><g id="Слой_2" data-name="Слой 2"><g id="Слой_1-2" data-name="Слой 1"><path class="cls-1" d="M54.72,15.48a6,6,0,0,0-1.4-2.12A6.52,6.52,0,0,0,51.17,12a7.42,7.42,0,0,0-2.8-.5H43.23V25h5.14a7.42,7.42,0,0,0,2.8-.5A6.23,6.23,0,0,0,54.72,21,7.92,7.92,0,0,0,54.72,15.48Zm-2.37,4.75a4.12,4.12,0,0,1-.86,1.51,3.83,3.83,0,0,1-1.33.94,5.2,5.2,0,0,1-1.79.32H45.75V13.46h2.62a5,5,0,0,1,1.79.33,3.8,3.8,0,0,1,1.33.93,4,4,0,0,1,.86,1.52A6.78,6.78,0,0,1,52.35,20.23Zm6.75-4.61a4.69,4.69,0,0,0-1.43,1,4,4,0,0,0-.9,1.51A5.24,5.24,0,0,0,56.45,20a6.52,6.52,0,0,0,.36,2.23,4.68,4.68,0,0,0,1,1.62,4.08,4.08,0,0,0,1.51,1,5.42,5.42,0,0,0,1.87.33c.36,0,.68,0,1-.07a5,5,0,0,0,1-.26,3.35,3.35,0,0,0,1-.5,4.48,4.48,0,0,0,.87-.76l-.65-.82a.53.53,0,0,0-.43-.22.65.65,0,0,0-.43.14l-.54.29a3.74,3.74,0,0,1-.72.29,3.09,3.09,0,0,1-2,0,1.81,1.81,0,0,1-.79-.54,2.24,2.24,0,0,1-.54-.9,3.57,3.57,0,0,1-.25-1.29h5.81a.42.42,0,0,0,.43-.18,1.19,1.19,0,0,0,.11-.72,5.35,5.35,0,0,0-.32-1.84A3.78,3.78,0,0,0,64,16.34a3.53,3.53,0,0,0-1.33-.82A5.13,5.13,0,0,0,61,15.23,4.48,4.48,0,0,0,59.1,15.62ZM62,17.06a1.75,1.75,0,0,1,.64.47,2.65,2.65,0,0,1,.4.69,3.59,3.59,0,0,1,.14.86H58.82a2.88,2.88,0,0,1,.71-1.62,2.16,2.16,0,0,1,1.58-.58A2.88,2.88,0,0,1,62,17.06ZM69.41,25h2.08l3.81-9.61H73.47a.8.8,0,0,0-.4.11.49.49,0,0,0-.21.32L71,20.92c-.1.28-.18.57-.28.86a7.25,7.25,0,0,0-.22.86l-.21-.86a8.52,8.52,0,0,0-.26-.86L68.15,15.8a.49.49,0,0,0-.21-.32.71.71,0,0,0-.43-.11H65.6Zm4.67-13.53V13.5h4V25h2.52V13.54h4.09V11.45Zm12,4.14a4.37,4.37,0,0,0-1.43,1,3.88,3.88,0,0,0-.9,1.51,5.47,5.47,0,0,0-.32,1.83,6.82,6.82,0,0,0,.36,2.24,4.68,4.68,0,0,0,1,1.62,4.17,4.17,0,0,0,1.51,1,5.65,5.65,0,0,0,1.87.32,9.08,9.08,0,0,0,1-.07,4.94,4.94,0,0,0,1-.25,3.84,3.84,0,0,0,1-.51,4.1,4.1,0,0,0,.86-.75l-.65-.83a.53.53,0,0,0-.43-.22.63.63,0,0,0-.43.15L90,22.9a4.48,4.48,0,0,1-.72.28,3.09,3.09,0,0,1-2,0,1.89,1.89,0,0,1-.79-.54,2.31,2.31,0,0,1-.54-.9,3.62,3.62,0,0,1-.25-1.3h5.92a.4.4,0,0,0,.43-.18,1.17,1.17,0,0,0,.11-.72,5.25,5.25,0,0,0-.32-1.83A3.65,3.65,0,0,0,91,16.31a4.21,4.21,0,0,0-1.32-.87A5.44,5.44,0,0,0,88,15.16a7.21,7.21,0,0,0-2,.43Zm2.88,1.47a1.75,1.75,0,0,1,.64.47,2.65,2.65,0,0,1,.4.69,2.51,2.51,0,0,1,.11.86H85.71a3,3,0,0,1,.72-1.62A2.16,2.16,0,0,1,88,16.88a2.72,2.72,0,0,1,.9.18ZM101.15,25v-6a4.49,4.49,0,0,0-.25-1.52,3.78,3.78,0,0,0-.68-1.18,2.83,2.83,0,0,0-1.12-.76,4.3,4.3,0,0,0-1.5-.29,5.65,5.65,0,0,0-4,1.51l.4.76a1.11,1.11,0,0,0,.28.29.56.56,0,0,0,.4.11.8.8,0,0,0,.5-.15c.14-.07.32-.18.5-.29a6.06,6.06,0,0,1,.65-.28,2.63,2.63,0,0,1,.93-.15,1.56,1.56,0,0,1,1.19.47,1.83,1.83,0,0,1,.39,1.44v.58a11.39,11.39,0,0,0-2.73.32,6.28,6.28,0,0,0-1.76.72,2.55,2.55,0,0,0-.93,1,2.24,2.24,0,0,0-.29,1.08,2.83,2.83,0,0,0,.22,1.12,2.73,2.73,0,0,0,.57.83,2.93,2.93,0,0,0,.9.5,4.22,4.22,0,0,0,1.11.18,9,9,0,0,0,.94-.07,3.47,3.47,0,0,0,.79-.25,3.16,3.16,0,0,0,.72-.44c.25-.18.46-.36.71-.57l.22.68a.65.65,0,0,0,.29.4,1.15,1.15,0,0,0,.5.11l1-.08Zm-5.42-1.69a1.14,1.14,0,0,1-.18-1.44,1.52,1.52,0,0,1,.57-.47,5.82,5.82,0,0,1,1.08-.32,13.85,13.85,0,0,1,1.69-.18V22.5a4.25,4.25,0,0,1-1,.79,2.84,2.84,0,0,1-1.22.25A1.74,1.74,0,0,1,95.73,23.29ZM105.64,25V18a3.05,3.05,0,0,1,.83-.68,1.71,1.71,0,0,1,.93-.25,1.52,1.52,0,0,1,1.15.43,2.11,2.11,0,0,1,.39,1.4V25h2.3V18.86a2.2,2.2,0,0,1,.14-.79,2.28,2.28,0,0,1,.36-.57,1.39,1.39,0,0,1,.54-.36,1.85,1.85,0,0,1,.65-.11,1.47,1.47,0,0,1,1.18.47,2.11,2.11,0,0,1,.4,1.36V25h2.3V18.86a5.26,5.26,0,0,0-.22-1.54,3.1,3.1,0,0,0-.65-1.16,2.6,2.6,0,0,0-1-.72,3.9,3.9,0,0,0-1.4-.25,3.76,3.76,0,0,0-.9.11,4.53,4.53,0,0,0-.86.32,3,3,0,0,0-.75.54,3.74,3.74,0,0,0-.58.83,2.88,2.88,0,0,0-.86-1.29,2.39,2.39,0,0,0-1.47-.51,3.07,3.07,0,0,0-.79.11,4.28,4.28,0,0,0-.68.25,3,3,0,0,0-.58.4,4.93,4.93,0,0,0-.53.5l-.15-.72a.62.62,0,0,0-.57-.43h-1.4v9.61h2.26Zm13.11-.72a1.45,1.45,0,0,0,.28.44,1.65,1.65,0,0,0,.43.28,1.36,1.36,0,0,0,.58.11,1.46,1.46,0,0,0,1-.39,1.39,1.39,0,0,0-1-2.38,1.44,1.44,0,0,0-1,.4,1.42,1.42,0,0,0-.29.43A1.31,1.31,0,0,0,118.75,24.26ZM131.6,12.71a4.7,4.7,0,0,0-1.72-1.05,5.89,5.89,0,0,0-2.19-.36,5.64,5.64,0,0,0-1.91.33,4.13,4.13,0,0,0-1.36.86,3.79,3.79,0,0,0-1.15,2.7,4.38,4.38,0,0,0,.25,1.55,2.51,2.51,0,0,0,.72,1,4,4,0,0,0,1,.69,6.62,6.62,0,0,0,1.15.43c.4.11.76.25,1.15.36a4.94,4.94,0,0,1,1,.4,2.19,2.19,0,0,1,.72.57,1.32,1.32,0,0,1,.25.87,1.91,1.91,0,0,1-.58,1.47,2.51,2.51,0,0,1-1.65.51,4.68,4.68,0,0,1-1.18-.18,3.67,3.67,0,0,1-.86-.44,4.07,4.07,0,0,1-.65-.43.92.92,0,0,0-.5-.18,1.3,1.3,0,0,0-.33.07l-.25.22-.75,1.22a4.74,4.74,0,0,0,.9.72,9.11,9.11,0,0,0,1.07.58,7.7,7.7,0,0,0,1.19.36,5.29,5.29,0,0,0,1.25.11,6,6,0,0,0,2-.33,4.82,4.82,0,0,0,1.47-.93,3.63,3.63,0,0,0,.9-1.41,4.41,4.41,0,0,0,.32-1.72,3.86,3.86,0,0,0-.25-1.44,3.18,3.18,0,0,0-.72-1,3.64,3.64,0,0,0-1-.69c-.38-.17-.76-.33-1.15-.46s-.79-.26-1.15-.4a8.16,8.16,0,0,1-1-.4,3.1,3.1,0,0,1-.71-.54,1.07,1.07,0,0,1-.26-.79,1.41,1.41,0,0,1,.15-.68,1.11,1.11,0,0,1,.39-.54,2.08,2.08,0,0,1,.65-.36,2.53,2.53,0,0,1,.9-.11,3.45,3.45,0,0,1,1,.14,3.57,3.57,0,0,1,.76.33,4.28,4.28,0,0,1,.54.32.8.8,0,0,0,.43.15,1,1,0,0,0,.32-.08.84.84,0,0,0,.25-.28l.61-1.19Zm4.17,15.41V24.19a3.09,3.09,0,0,0,1,.69,3.54,3.54,0,0,0,1.37.25,3.39,3.39,0,0,0,1.68-.4,4.09,4.09,0,0,0,1.3-1,5.22,5.22,0,0,0,.82-1.59,7.47,7.47,0,0,0,.29-2A8.11,8.11,0,0,0,142,18a5.1,5.1,0,0,0-.72-1.55,3.05,3.05,0,0,0-1.11-.94,3.13,3.13,0,0,0-1.44-.32,4.23,4.23,0,0,0-1.76.39,5,5,0,0,0-1.33,1.08l-.18-.9a.62.62,0,0,0-.57-.43h-1.4V28.12Zm3-10.91a1.28,1.28,0,0,1,.61.54,3,3,0,0,1,.4.93,6.23,6.23,0,0,1,.14,1.44,6.12,6.12,0,0,1-.14,1.44,2.53,2.53,0,0,1-.47,1,1.93,1.93,0,0,1-.72.61,1.58,1.58,0,0,1-.93.18,3.11,3.11,0,0,1-1-.18,2.28,2.28,0,0,1-.86-.68V18.18a3.51,3.51,0,0,1,.94-.86A2,2,0,0,1,138,17a1.63,1.63,0,0,1,.82.18ZM151.39,25v-6a4.5,4.5,0,0,0-.26-1.52,3.78,3.78,0,0,0-.68-1.18,2.8,2.8,0,0,0-1.11-.76,4.31,4.31,0,0,0-1.51-.29,5.63,5.63,0,0,0-4,1.51l.39.76a1,1,0,0,0,.29.29.54.54,0,0,0,.39.11.85.85,0,0,0,.51-.15c.14-.07.32-.18.5-.29a5.17,5.17,0,0,1,.64-.28,2.65,2.65,0,0,1,.94-.15,1.54,1.54,0,0,1,1.18.47,1.84,1.84,0,0,1,.4,1.44v.58a11.33,11.33,0,0,0-2.73.32,6.28,6.28,0,0,0-1.76.72,2.41,2.41,0,0,0-.93,1,2.24,2.24,0,0,0-.29,1.08,3,3,0,0,0,.21,1.12,3,3,0,0,0,.58.83,2.82,2.82,0,0,0,.9.5,3.9,3.9,0,0,0,1.11.18,8.81,8.81,0,0,0,.93-.07,3.32,3.32,0,0,0,.79-.25,3,3,0,0,0,.72-.44c.25-.18.47-.36.72-.57l.21.68a.69.69,0,0,0,.29.4,1.18,1.18,0,0,0,.5.11ZM146,23.29a1.16,1.16,0,0,1-.18-1.44,1.55,1.55,0,0,1,.58-.47,5.82,5.82,0,0,1,1.08-.32,13.68,13.68,0,0,1,1.68-.18V22.5a4,4,0,0,1-1,.79,2.87,2.87,0,0,1-1.22.25A1.72,1.72,0,0,1,146,23.29Zm15-6.73a5,5,0,0,0-1.44-1,4.93,4.93,0,0,0-1.86-.36,5.5,5.5,0,0,0-2,.36,4.09,4.09,0,0,0-1.48,1.05,4.52,4.52,0,0,0-.9,1.54,5.27,5.27,0,0,0-.28,1.95,6.87,6.87,0,0,0,.32,2.09,4.33,4.33,0,0,0,.93,1.54,4,4,0,0,0,1.37,1,4.61,4.61,0,0,0,1.69.32c.33,0,.67,0,1-.07a6.21,6.21,0,0,0,1-.25,3.4,3.4,0,0,0,.93-.51,4.24,4.24,0,0,0,.83-.75l-.65-.83a.53.53,0,0,0-.43-.22.54.54,0,0,0-.4.15,3.29,3.29,0,0,1-.39.28,2.55,2.55,0,0,1-1.47.44,2.51,2.51,0,0,1-1-.22,2.46,2.46,0,0,1-.75-.61,2.53,2.53,0,0,1-.47-1,5.59,5.59,0,0,1-.18-1.37,5.48,5.48,0,0,1,.15-1.33,3,3,0,0,1,.46-1,2.27,2.27,0,0,1,.76-.65,2.62,2.62,0,0,1,1.07-.21,2.52,2.52,0,0,1,.79.11,2.23,2.23,0,0,1,.54.25c.15.11.29.18.4.25a.64.64,0,0,0,.36.11.38.38,0,0,0,.28-.07l.22-.22Zm3.52-1a4.41,4.41,0,0,0-1.44,1,4,4,0,0,0-.9,1.51,5.47,5.47,0,0,0-.32,1.83,6.82,6.82,0,0,0,.36,2.24,4.71,4.71,0,0,0,1,1.62,4.26,4.26,0,0,0,1.5,1,5.65,5.65,0,0,0,1.87.32,9.08,9.08,0,0,0,1-.07,4.94,4.94,0,0,0,1-.25,3.69,3.69,0,0,0,1-.51,4.1,4.1,0,0,0,.86-.75l-.65-.83a.51.51,0,0,0-.43-.22.63.63,0,0,0-.43.15l-.54.29a4.76,4.76,0,0,1-.71.28,3.12,3.12,0,0,1-2,0,2,2,0,0,1-.79-.54,2.31,2.31,0,0,1-.54-.9,3.85,3.85,0,0,1-.25-1.3h5.93a.4.4,0,0,0,.43-.18,1.25,1.25,0,0,0,.1-.72,5,5,0,0,0-.32-1.83,3.62,3.62,0,0,0-.86-1.37,4.38,4.38,0,0,0-1.33-.87,5.35,5.35,0,0,0-1.69-.28,7.14,7.14,0,0,0-2,.43Zm2.87,1.47a1.78,1.78,0,0,1,.65.47,2.61,2.61,0,0,1,.39.69,2.29,2.29,0,0,1,.11.86H164.2a3,3,0,0,1,.72-1.62,2.16,2.16,0,0,1,1.58-.58A2.67,2.67,0,0,1,167.4,17.06Z"/><path class="cls-1" d="M2.87,0H33a2.89,2.89,0,0,1,2.88,2.88V33.12A2.89,2.89,0,0,1,33,36H2.87A2.89,2.89,0,0,1,0,33.12V2.88A2.89,2.89,0,0,1,2.87,0Z"/><path class="cls-2" d="M26.9,14.87A8.13,8.13,0,0,0,25,11.92,9,9,0,0,0,22,10a10,10,0,0,0-3.88-.68H11V28H18.1A10.86,10.86,0,0,0,22,27.36a8.49,8.49,0,0,0,4.92-4.9A10.67,10.67,0,0,0,26.9,14.87Zm-3.27,6.55a6,6,0,0,1-1.19,2.09,4.81,4.81,0,0,1-1.86,1.29,6.39,6.39,0,0,1-2.48.47H14.47V12.06H18.1a6.39,6.39,0,0,1,2.48.47,5.28,5.28,0,0,1,1.86,1.29,5.88,5.88,0,0,1,1.19,2.09A8.18,8.18,0,0,1,24,18.68,8.12,8.12,0,0,1,23.63,21.42Z"/></g></g></svg>