<svg xmlns="http://www.w3.org/2000/svg" width="73" height="72"><g fill="none"><path fill="#9C28AD" d="M5.772 0h60.602c3.174 0 5.772 2.592 5.772 5.76v60.48c0 3.168-2.598 5.76-5.772 5.76H5.772C2.597 72 0 69.408 0 66.24V5.76C0 2.592 2.597 0 5.772 0z"/><path fill="#FFF" d="M54.037 29.736c-.866-2.232-2.164-4.248-3.896-5.904-1.731-1.656-3.751-3.024-5.988-3.888-2.453-.936-5.122-1.44-7.792-1.368H22.077v37.512H36.36c2.67 0 5.34-.432 7.792-1.368 4.545-1.728 8.153-5.256 9.884-9.792a21.21 21.21 0 0 0 0-15.192zM47.472 42.84a12.08 12.08 0 0 1-2.381 4.176c-1.01 1.152-2.309 2.016-3.752 2.592-1.587.648-3.246.936-4.978.936h-7.286V24.12h7.286c1.66 0 3.391.288 4.978.936 1.443.576 2.67 1.44 3.752 2.592a11.46 11.46 0 0 1 2.38 4.176c.578 1.8.867 3.672.794 5.544.073 1.8-.216 3.672-.793 5.472z"/></g></svg>