<svg xmlns="http://www.w3.org/2000/svg" xmlns:xlink="http://www.w3.org/1999/xlink" width="45" height="13"><defs><path id="a" d="M0 0h46.423v34H0z"/></defs><g fill="none" fill-rule="evenodd" transform="translate(-1 -10)"><mask id="b" fill="#fff"><use xlink:href="#a"/></mask><g fill="#FFF" mask="url(#b)"><path d="M45.122 11.25v1.555c-3.436-.654-7.036-.49-8.263 1.064-.777.981-.859 1.963-.859 2.781 0 1.473.49 3.682 3.477 4.132 1.963.286 3.886.082 5.768-.287v1.8a35.945 35.945 0 0 1-7.568.164c-1.473-.123-2.945-.45-4.254-1.146-1.678-.859-2.21-2.822-2.21-4.622.042-1.636.532-3.354 1.964-4.336.982-.614 2.005-.818 3.068-1.023 2.986-.531 5.972-.409 8.877-.082zm-14.767.082v1.555H22.05v2.781h7.567v1.514H22.05v.53c.002.64.009 1.223.04 1.352.042 1.063.533 1.472 1.8 1.513.287.041 4.991.041 6.627 0v1.636c-3.272.123-6.381.205-9.694.041-2.782-.123-3.273-1.513-3.314-2.863v-8.059h12.845zm-25.075 0c.777 0 1.718.737 2.168 1.146l6.135 6.831v-7.977h2.087v10.881h-3.682c-.614 0-1.268-.163-2.004-.9l-6.136-6.83v7.73H1.762v-10.88H5.28z"/></g></g></svg>