<svg xmlns="http://www.w3.org/2000/svg" xmlns:xlink="http://www.w3.org/1999/xlink" width="71" height="52"><defs><path id="a" d="M0 0h71v52H0z"/></defs><g fill="none" fill-rule="evenodd"><mask id="b" fill="#fff"><use xlink:href="#a"/></mask><use fill="#FFF" fill-rule="nonzero" xlink:href="#a"/><g fill="#282828" mask="url(#b)"><path d="M3 18.555h5.38c1.19 0 2.628 1.127 3.316 1.752l9.384 10.448v-12.2h3.191v16.642h-5.63c-.939 0-1.94-.25-3.066-1.377L6.19 23.373v11.824H3V18.555zm66.503 16.767c-3.816.5-7.695.563-11.573.25-2.253-.188-4.505-.688-6.507-1.752-2.565-1.313-3.378-4.316-3.378-7.069.062-2.502.813-5.13 3.003-6.632 1.501-.938 3.065-1.25 4.692-1.563 4.567-.814 9.134-.626 13.576-.126v2.378c-5.255-1.001-10.761-.751-12.638 1.627-1.188 1.5-1.313 3.002-1.313 4.253 0 2.253.75 5.631 5.317 6.32 3.003.437 5.944.125 8.821-.439v2.753zm-32.657-2.628c.438.063 7.633.063 10.135 0v2.503c-5.005.187-9.76.313-14.827.063-4.254-.188-5.005-2.315-5.068-4.38V18.555h19.645v2.378h-12.7v4.254h11.573v2.315H34.031c0 1.251 0 2.627.062 2.878.063 1.626.814 2.252 2.753 2.314z"/></g></g></svg>