<svg xmlns="http://www.w3.org/2000/svg" xmlns:xlink="http://www.w3.org/1999/xlink" width="69" height="18"><defs><path id="a" d="M0 0h69v34H0z"/></defs><g fill="none" fill-rule="evenodd" transform="translate(0 -8)"><mask id="b" fill="#fff"><use xlink:href="#a"/></mask><g mask="url(#b)"><g fill="#FFF" transform="translate(.5 8.5)"><circle cx="8.67" cy="8.67" r="2.89"/><path d="M8.67 0a8.64 8.64 0 0 1 5.984 2.396l-2.857.815a6.29 6.29 0 1 0 2.205 2.12l.855-2.735A8.67 8.67 0 1 1 8.67 0zm53.488 4.125v1.654h2.258v7.938h1.52V5.78h2.192V4.125zm-11.34-.385v9.977h1.52V7.42l6.8 6.959V4.4h-1.521v6.337zm-16.734 8.714a3.492 3.492 0 1 1 0-6.985 3.492 3.492 0 0 1 0 6.985m0-8.26a4.767 4.767 0 1 0 0 9.535 4.767 4.767 0 0 0 0-9.535M24.56 8.598h-1.28V5.602h1.177c.452 0 1.334.414 1.334 1.498 0 1.085-.865 1.498-1.231 1.498m0-4.403h-2.8v9.522h1.52v-3.71h1.48c.71 0 2.388-.802 2.388-2.907 0-2.104-1.71-2.905-2.588-2.905m21.84.079l-2.06 4.009-2.058-4.009h-1.767l3.11 5.405v4.038h1.52V9.528l3.021-5.254z"/></g></g></g></svg>