<svg xmlns="http://www.w3.org/2000/svg" xmlns:xlink="http://www.w3.org/1999/xlink" width="106" height="52"><defs><path id="a" d="M0 0h106v52H0z"/></defs><g fill="none" fill-rule="evenodd"><mask id="b" fill="#fff"><use xlink:href="#a"/></mask><use fill="#FFF" fill-rule="nonzero" xlink:href="#a"/><g mask="url(#b)"><g fill="#282828" transform="translate(0 13)"><circle cx="13.26" cy="13.26" r="4.42"/><path d="M21.414 8.153l1.31-4.181a13.217 13.217 0 0 1 3.796 9.288c0 7.323-5.937 13.26-13.26 13.26C5.937 26.52 0 20.583 0 13.26 0 5.937 5.937 0 13.26 0c3.55 0 6.773 1.395 9.153 3.666l-4.37 1.245A9.576 9.576 0 0 0 13.26 3.64a9.62 9.62 0 1 0 9.62 9.62 9.575 9.575 0 0 0-1.466-5.107zm73.651-1.845v2.53h3.454V20.98h2.325V8.84h3.352V6.31zM77.721 5.72v15.26h2.326v-9.633L90.446 21.99V6.73H88.12v9.691zM52.129 19.047a5.341 5.341 0 1 1 0-10.682 5.341 5.341 0 0 1 0 10.682m0-12.632a7.29 7.29 0 1 0 0 14.582 7.29 7.29 0 0 0 0-14.582M37.562 13.15h-1.957V8.569h1.8c.691 0 2.04.631 2.04 2.29s-1.323 2.29-1.883 2.29m.001-6.734H33.28V20.98h2.325v-5.675h2.263c1.087 0 3.653-1.226 3.653-4.445 0-3.218-2.617-4.444-3.958-4.444m33.402.121l-3.15 6.131-3.148-6.13h-2.702l4.754 8.265v6.176h2.326v-6.407l4.62-8.035z"/></g></g></g></svg>