<svg xmlns="http://www.w3.org/2000/svg" xmlns:xlink="http://www.w3.org/1999/xlink" width="92" height="14"><defs><path id="a" d="M.462.385h91.692v32H.462z"/></defs><g fill="none" fill-rule="evenodd" transform="translate(-.154 -9.385)"><mask id="b" fill="#fff"><use xlink:href="#a"/></mask><g fill="#FFF" mask="url(#b)"><path d="M50.748 15.734s-.884-.546-1.43-.757c0 0-1.689-.783-2.024-1.156 0 0-.658-.62-.273-1.341 0 0 .162-.471.857-.471 0 0 .906.05.906.794v1.05h3.247l-.006-1.546s.249-2.534-3.824-2.645c0 0-3.204-.21-4.123 1.515 0 0-.36.385-.36 1.726v.968s-.037 1.118.534 1.838c0 0 .323.472 1.118.993 0 0 1.614.869 2.583 1.367 0 0 .977.558.848 1.446 0 0-.078.911-1.023.875 0 0-.864-.04-.864-.934v-1.049h-3.459v1.525s-.097 2.915 4.349 2.915c0 0 4.246.087 4.445-2.993v-1.24s.149-1.887-1.501-2.88m-16.62-5.709l-1.087 6.812h-.255l-1.038-6.75h-5.423l-.271 12.334h3.21l.039-9.294h.252l1.702 9.293h3.378l1.68-9.29h.224l.078 9.29h3.228l-.348-12.395zm-19.112.051l-2.137 12.331h3.457l1.265-9.56h.284l1.265 9.56h3.456L20.47 10.076zm72.525 5.488v1.819h.886v1.953c0 .954-.815.972-.815.972-.993 0-.955-.907-.955-.907v-6.754c0-.696.88-.734.88-.734.845 0 .852.83.852.83v1.027h3.253c.107-2.004-.293-2.489-.293-2.489-.807-1.813-3.86-1.714-3.86-1.714-4.694 0-4.173 3.601-4.173 3.601v6.53c.1 3.378 4.724 3.035 4.803 3.03 2.057-.227 2.678-.88 2.678-.88.572-.424.72-1.013.72-1.013.163-.343.204-1.434.204-1.434v-3.837h-4.18zM76.754 17.57h-.141l-3.304-7.542h-3.95v12.395h3.215l-.192-7.542h.143l3.421 7.542h3.833V10.027h-3.256zm-15.246 1.765s.047 1.017-.895 1.017c0 0-.993.053-.993-.992l-.01-9.324h-3.527v9.25s-.362 3.501 4.578 3.501c0 0 4.295.05 4.295-3.34v-9.411h-3.448v9.299zM8.291 15.733s-.881-.545-1.428-.756c0 0-1.688-.782-2.023-1.155 0 0-.659-.622-.273-1.341 0 0 .16-.472.856-.472 0 0 .906.05.906.794v1.05h3.248l-.006-1.547s.248-2.533-3.825-2.644c0 0-.306-.02-.757.003 0 0-2.466.132-3.348 1.485-.005.01-.012.018-.017.027 0 0-.36.384-.36 1.726v.968s-.038 1.117.534 1.838c0 0 .323.472 1.117.993 0 0 1.613.87 2.582 1.366 0 0 .979.558.85 1.447 0 0-.08.911-1.023.874 0 0-.864-.04-.864-.933v-1.05H1v1.526s-.097 2.916 4.348 2.916c0 0 4.246.086 4.446-2.994v-1.24s.149-1.887-1.503-2.88"/></g></g></svg>