<svg xmlns="http://www.w3.org/2000/svg" xmlns:xlink="http://www.w3.org/1999/xlink" width="116" height="52"><defs><path id="a" d="M0 0h116v52H0z"/><path id="c" d="M.248.368h10.115V16.19H.248z"/><path id="e" d="M0 .473h10.567V16.32H0z"/></defs><g fill="none" fill-rule="evenodd"><mask id="b" fill="#fff"><use xlink:href="#a"/></mask><use fill="#FFF" fill-rule="nonzero" xlink:href="#a"/><g mask="url(#b)"><path fill="#1D1D1B" d="M62.751 26.088s-1.06-.656-1.716-.91c0 0-2.03-.94-2.432-1.387 0 0-.79-.746-.328-1.611 0 0 .194-.566 1.03-.566 0 0 1.087.06 1.087.954v1.262h3.9l-.007-1.858s.3-3.043-4.593-3.177c0 0-3.848-.253-4.951 1.82 0 0-.433.462-.433 2.073v1.163s-.045 1.343.64 2.207c0 0 .39.567 1.344 1.193 0 0 1.939 1.043 3.102 1.641 0 0 1.174.67 1.02 1.738 0 0-.095 1.094-1.23 1.05 0 0-1.037-.048-1.037-1.121v-1.26h-4.155v1.831s-.117 3.502 5.223 3.502c0 0 5.1.104 5.339-3.595v-1.49s.18-2.266-1.803-3.46M42.79 19.231l-1.306 8.182h-.306l-1.247-8.109h-6.514l-.325 14.816h3.856l.046-11.163h.303l2.045 11.161h4.056l2.02-11.157h.268l.093 11.159h3.877l-.418-14.889zm-22.956.061l-2.566 14.811h4.152l1.519-11.483h.341l1.52 11.483h4.15l-2.564-14.81z"/><g transform="translate(101.6 18.313)"><mask id="d" fill="#fff"><use xlink:href="#c"/></mask><path fill="#1D1D1B" d="M5.343 7.571v2.185h1.064v2.346c0 1.146-.979 1.167-.979 1.167-1.192 0-1.147-1.09-1.147-1.09V4.068c0-.835 1.057-.88 1.057-.88 1.016 0 1.023.997 1.023.997v1.233h3.908c.128-2.407-.351-2.99-.351-2.99C8.948.25 5.28.37 5.28.37-.357.369.268 4.694.268 4.694v7.843c.121 4.057 5.675 3.645 5.77 3.64 2.47-.274 3.217-1.058 3.217-1.058.686-.51.863-1.216.863-1.216.197-.412.246-1.723.246-1.723V7.57h-5.02z" mask="url(#d)"/></g><path fill="#1D1D1B" d="M93.987 28.294h-.17l-3.967-9.06h-4.745v14.888h3.862l-.231-9.058h.172l4.109 9.058h4.603V19.233h-3.91zm-18.311 2.119s.056 1.222-1.076 1.222c0 0-1.193.064-1.193-1.192l-.012-11.2H69.16v11.111s-.435 4.205 5.5 4.205c0 0 5.157.06 5.157-4.012V19.244h-4.14v11.169z"/><g transform="translate(3 18.313)"><mask id="f" fill="#fff"><use xlink:href="#e"/></mask><path fill="#1D1D1B" d="M8.757 7.775s-1.059-.656-1.715-.909c0 0-2.027-.94-2.43-1.387 0 0-.79-.747-.328-1.61 0 0 .193-.567 1.028-.567 0 0 1.089.059 1.089.953v1.262h3.9l-.007-1.859S10.592.616 5.701.483c0 0-.368-.024-.91.003 0 0-2.962.16-4.021 1.784-.006.012-.015.021-.02.032 0 0-.434.462-.434 2.073v1.163S.272 6.88.958 7.745c0 0 .388.568 1.343 1.193 0 0 1.937 1.044 3.1 1.64 0 0 1.176.671 1.021 1.739 0 0-.095 1.094-1.229 1.05 0 0-1.037-.047-1.037-1.12v-1.262H0v1.833s-.116 3.502 5.223 3.502c0 0 5.1.103 5.34-3.595v-1.49s.178-2.267-1.806-3.46" mask="url(#f)"/></g></g></g></svg>