<svg xmlns="http://www.w3.org/2000/svg" width="164" height="30"><g fill="none"><path fill="#00B67A" d="M0 0h29.647v29.647H0z"/><path fill="#FFF" d="M26.34 11.37h-8.98l-2.774-8.546-2.782 8.546-8.98-.008 7.272 5.287-2.782 8.538 7.272-5.279 7.264 5.28-2.774-8.539z"/><path fill="#00B67A" d="M19.7 18.582l-.624-1.933-4.49 3.26zM67.5 0h29.647v29.647H67.5z"/><path fill="#FFF" d="M93.84 11.37h-8.98l-2.774-8.546-2.782 8.546-8.98-.008 7.272 5.287-2.782 8.538 7.272-5.279 7.264 5.28-2.774-8.539z"/><path fill="#00B67A" d="M87.2 18.582l-.624-1.933-4.49 3.26zM133.5 0h29.647v29.647H133.5z"/><path fill="#FFF" d="M159.84 11.37h-8.98l-2.774-8.546-2.782 8.546-8.98-.008 7.272 5.287-2.782 8.538 7.272-5.279 7.264 5.28-2.774-8.539z"/><path fill="#00B67A" d="M153.2 18.582l-.624-1.933-4.49 3.26zM33 0h29.647v29.647H33z"/><path fill="#FFF" d="M59.34 11.37h-8.98l-2.774-8.546-2.782 8.546-8.98-.008 7.272 5.287-2.782 8.538 7.272-5.279 7.264 5.28-2.774-8.539z"/><path fill="#00B67A" d="M52.7 18.582l-.624-1.933-4.49 3.26zM100.5 0h29.647v29.647H100.5z"/><path fill="#FFF" d="M126.84 11.37h-8.98l-2.774-8.546-2.782 8.546-8.98-.008 7.272 5.287-2.782 8.538 7.272-5.279 7.264 5.28-2.774-8.539z"/><path fill="#00B67A" d="M120.2 18.582l-.624-1.933-4.49 3.26z"/></g></svg>