<svg xmlns="http://www.w3.org/2000/svg" width="173" height="38"><path fill="#282828" d="M.02 0h23.74v4.528h-9.334V29.98H9.293V4.528H0V0h.02zm22.726 8.273h4.387v4.19h.083a4.97 4.97 0 0 1 .807-1.715 7.56 7.56 0 0 1 1.428-1.523 7.576 7.576 0 0 1 1.863-1.121 5.59 5.59 0 0 1 2.09-.424c.539 0 .932.022 1.139.043.207.02.414.063.641.084v4.613a14.636 14.636 0 0 0-1.014-.148 8.412 8.412 0 0 0-1.014-.064c-.786 0-1.531.17-2.235.487-.704.317-1.304.804-1.821 1.417-.518.635-.932 1.397-1.242 2.328-.31.93-.456 1.989-.456 3.195V29.96h-4.677V8.273h.02zM56.688 29.98h-4.594v-3.026h-.083c-.58 1.1-1.428 1.968-2.567 2.624-1.138.656-2.297.994-3.477.994-2.794 0-4.822-.698-6.064-2.115-1.242-1.418-1.863-3.555-1.863-6.411V8.273h4.678V21.58c0 1.905.352 3.259 1.076 4.041.704.783 1.718 1.185 3.001 1.185.994 0 1.8-.148 2.463-.465.662-.318 1.2-.72 1.594-1.248.414-.508.703-1.143.89-1.862.186-.72.269-1.503.269-2.349V8.294h4.677v21.687zm7.968-6.961c.145 1.396.663 2.37 1.553 2.941.91.55 1.987.846 3.249.846.435 0 .931-.042 1.49-.105a6.147 6.147 0 0 0 1.573-.402c.497-.19.89-.487 1.221-.868.31-.38.456-.867.435-1.481-.02-.614-.248-1.121-.662-1.502-.414-.402-.932-.698-1.573-.952a15.519 15.519 0 0 0-2.194-.614c-.828-.17-1.656-.36-2.505-.55a23.128 23.128 0 0 1-2.525-.72 7.65 7.65 0 0 1-2.173-1.142 4.995 4.995 0 0 1-1.531-1.82c-.393-.74-.58-1.65-.58-2.75 0-1.185.29-2.158.849-2.962a6.481 6.481 0 0 1 2.132-1.926c.869-.486 1.82-.825 2.876-1.036 1.056-.19 2.07-.297 3.022-.297 1.097 0 2.153.127 3.146.36.993.233 1.904.614 2.711 1.164.807.529 1.47 1.227 2.008 2.073.538.847.87 1.883 1.014 3.09h-4.884c-.228-1.143-.725-1.926-1.532-2.307-.807-.402-1.738-.592-2.773-.592-.331 0-.725.02-1.18.084a6.34 6.34 0 0 0-1.283.318c-.393.148-.725.38-1.014.677-.27.296-.414.677-.414 1.163 0 .593.207 1.058.6 1.418.393.36.91.656 1.552.91.642.233 1.366.444 2.194.613.828.17 1.676.36 2.546.55a26.25 26.25 0 0 1 2.504.72 7.5 7.5 0 0 1 2.194 1.142 5.596 5.596 0 0 1 1.552 1.799c.393.72.6 1.63.6 2.687 0 1.29-.29 2.37-.869 3.28a6.949 6.949 0 0 1-2.235 2.179c-.91.55-1.946.973-3.063 1.227-1.118.254-2.236.38-3.332.38-1.346 0-2.588-.147-3.726-.465-1.138-.317-2.132-.783-2.96-1.396a6.886 6.886 0 0 1-1.966-2.349c-.476-.93-.724-2.052-.765-3.343h4.718v-.042zm15.44-14.747h3.54V1.756h4.677v6.517h4.222v3.576h-4.222v11.594c0 .508.02.931.062 1.312.041.36.145.677.29.931.144.254.372.444.683.571.31.127.703.19 1.241.19.331 0 .663 0 .994-.02.33-.022.662-.064.993-.149v3.703c-.517.064-1.035.106-1.51.17a11.84 11.84 0 0 1-1.511.084c-1.242 0-2.236-.127-2.98-.36-.746-.232-1.346-.592-1.76-1.058-.435-.465-.704-1.036-.87-1.735a13.323 13.323 0 0 1-.268-2.39V11.89h-3.54V8.273h-.04zm15.75 0h4.43v2.94h.082c.662-1.269 1.573-2.157 2.753-2.707 1.18-.55 2.442-.826 3.829-.826 1.676 0 3.125.297 4.367.91a8.565 8.565 0 0 1 3.104 2.476c.828 1.058 1.428 2.285 1.842 3.681.414 1.397.621 2.899.621 4.486 0 1.46-.186 2.877-.559 4.231-.372 1.376-.931 2.582-1.676 3.64-.745 1.057-1.697 1.883-2.856 2.517-1.16.635-2.505.952-4.078.952a11.19 11.19 0 0 1-2.048-.19 8.875 8.875 0 0 1-1.967-.614 7.072 7.072 0 0 1-1.738-1.079 6.654 6.654 0 0 1-1.345-1.523h-.083V38h-4.678V8.273zm16.35 10.875c0-.973-.124-1.925-.372-2.856a7.782 7.782 0 0 0-1.117-2.455 5.742 5.742 0 0 0-1.843-1.713 5.075 5.075 0 0 0-2.545-.656c-1.966 0-3.457.698-4.45 2.094-.993 1.397-1.49 3.259-1.49 5.586 0 1.1.124 2.116.393 3.047.27.93.642 1.735 1.18 2.412a5.616 5.616 0 0 0 1.863 1.587c.724.402 1.572.592 2.525.592 1.076 0 1.966-.233 2.71-.677a5.778 5.778 0 0 0 1.822-1.735 7.292 7.292 0 0 0 1.035-2.433c.186-.91.29-1.84.29-2.793zM120.456 0h4.677v4.528h-4.677V0zm0 8.273h4.677V29.98h-4.677V8.273zM129.313 0h4.677v29.981h-4.677V0zm19.02 30.573c-1.697 0-3.208-.296-4.533-.867a10.005 10.005 0 0 1-3.373-2.37c-.91-1.015-1.614-2.221-2.09-3.618-.476-1.396-.725-2.94-.725-4.612 0-1.65.249-3.174.725-4.57.476-1.397 1.18-2.603 2.09-3.618.91-1.016 2.049-1.799 3.373-2.37 1.325-.571 2.836-.868 4.533-.868 1.697 0 3.208.297 4.533.868a10.005 10.005 0 0 1 3.373 2.37c.91 1.015 1.615 2.221 2.09 3.618.477 1.396.725 2.92.725 4.57 0 1.671-.248 3.216-.724 4.612-.476 1.397-1.18 2.603-2.09 3.618-.911 1.016-2.05 1.799-3.374 2.37-1.325.571-2.836.867-4.533.867zm0-3.787c1.035 0 1.946-.233 2.711-.677a5.818 5.818 0 0 0 1.884-1.756c.496-.72.848-1.545 1.097-2.454.227-.91.351-1.841.351-2.793 0-.931-.124-1.841-.351-2.772a7.315 7.315 0 0 0-1.097-2.454 5.755 5.755 0 0 0-1.884-1.735c-.765-.445-1.676-.677-2.711-.677s-1.945.232-2.711.677a5.992 5.992 0 0 0-1.884 1.735c-.496.72-.848 1.523-1.097 2.454-.227.931-.351 1.84-.351 2.772 0 .952.124 1.883.351 2.793.228.91.6 1.735 1.097 2.454a5.818 5.818 0 0 0 1.884 1.756c.766.466 1.676.677 2.711.677zM160.42 8.273h3.539V1.756h4.677v6.517h4.223v3.576h-4.223v11.594c0 .508.021.931.063 1.312.041.36.144.677.29.931.144.254.372.444.682.571.31.127.704.19 1.242.19.331 0 .662 0 .994-.02.33-.022.662-.064.993-.149v3.703c-.517.064-1.035.106-1.51.17a11.84 11.84 0 0 1-1.512.084c-1.242 0-2.235-.127-2.98-.36-.745-.232-1.345-.592-1.76-1.058-.434-.465-.703-1.036-.869-1.735a13.323 13.323 0 0 1-.269-2.39V11.89h-3.539V8.273h-.041z"/></svg>