<svg width="300" height="41" viewBox="0 0 300 41" fill="none" xmlns="http://www.w3.org/2000/svg">
<g clip-path="url(#clip0)">
<path d="M19.1125 0V32.7454L5.01329 40.9334L5 8.18136L19.1125 0Z" fill="#F96B13"/>
<path d="M33.2183 24.5507V40.4208L19.1125 40.4275V32.7454L33.2183 24.5507Z" fill="#F96B13"/>
<path d="M47.344 3.55478H55.6533V33.8771H70.5834V40.4275H47.344V3.55478Z" fill="#282C33"/>
<path d="M73.1559 30.8348V13.4603H80.5412V29.803C80.5412 33.4643 82.0302 35.2151 85.2077 35.2151C88.3386 35.2151 90.7982 33.258 90.7982 29.2838V13.4603H98.1835V40.4275H90.7982V36.2003C89.4155 38.9363 86.6967 40.9933 82.2828 40.9933C77.0513 40.9933 73.1559 37.8978 73.1559 30.8348Z" fill="#282C33"/>
<path d="M101.574 27.2801V26.8674C101.574 18.1534 107.782 12.8412 115.427 12.8412C121.636 12.8412 127.379 15.5772 128.05 23.3059H121.024C120.512 20.1638 118.611 18.7193 115.586 18.7193C111.738 18.7193 109.172 21.6084 109.172 26.7608V27.1736C109.172 32.5857 111.585 35.3749 115.739 35.3749C118.717 35.3749 121.124 33.6241 121.483 30.1692H128.203C127.791 36.5665 123.178 41 115.374 41C107.53 40.9934 101.574 36.0939 101.574 27.2801Z" fill="#282C33"/>
<path d="M130.975 5.72495C130.975 3.40168 132.823 1.65091 135.183 1.65091C137.596 1.65091 139.444 3.40168 139.444 5.72495C139.444 8.04821 137.596 9.79898 135.183 9.79898C132.823 9.79898 130.975 8.04156 130.975 5.72495ZM131.54 13.4603H138.925V40.4275H131.54V13.4603V13.4603Z" fill="#282C33"/>
<path d="M142.621 27.3267V26.9139C142.621 18.0469 147.7 12.8346 154.42 12.8346C158.728 12.8346 161.4 14.7451 162.889 17.4744V1.23819H170.275V40.4275H162.889V35.9407C161.507 38.6767 158.223 40.9933 154.268 40.9933C147.753 40.9933 142.621 36.3002 142.621 27.3267ZM163.089 27.0737V26.661C163.089 21.2955 160.729 18.5662 156.674 18.5662C152.519 18.5662 150.206 21.402 150.206 26.7675V27.1802C150.206 32.5457 152.772 35.1752 156.468 35.1752C160.37 35.1685 163.089 32.539 163.089 27.0737Z" fill="#282C33"/>
<path d="M173.711 27.2801V26.8674C173.711 18.1534 179.92 12.8412 187.565 12.8412C193.773 12.8412 199.517 15.5772 200.188 23.3059H193.162C192.65 20.1638 190.749 18.7193 187.724 18.7193C183.875 18.7193 181.309 21.6084 181.309 26.7608V27.1736C181.309 32.5857 183.722 35.3749 187.877 35.3749C190.855 35.3749 193.261 33.6241 193.62 30.1692H200.341C199.929 36.5665 195.315 41 187.511 41C179.661 40.9934 173.711 36.0939 173.711 27.2801Z" fill="#282C33"/>
<path d="M203.465 1.23819H210.904V17.7407C212.24 15.058 215.165 12.8412 219.625 12.8412C224.91 12.8412 228.652 16.0365 228.652 23.2593V40.4275H221.214V24.3377C221.214 20.6764 219.778 18.9256 216.494 18.9256C213.31 18.9256 210.904 20.8828 210.904 24.857V40.4275H203.465V1.23819V1.23819Z" fill="#282C33"/>
<path d="M231.737 32.9518C231.737 26.661 237.48 24.2911 245.69 24.2911H248.714V23.2061C248.714 20.0107 247.737 18.2533 244.353 18.2533C241.429 18.2533 240.092 19.7511 239.787 22.0677H232.76C233.219 15.6704 238.251 12.8346 244.819 12.8346C251.386 12.8346 256.053 15.5173 256.053 22.8399V40.4209H248.82V37.1723C247.278 39.3358 244.918 40.9867 240.711 40.9867C235.845 40.9934 231.737 38.6235 231.737 32.9518ZM248.721 30.988V28.718H245.849C241.542 28.718 239.022 29.6433 239.022 32.5324C239.022 34.4895 240.205 35.781 242.924 35.781C246.208 35.7876 248.721 33.9836 248.721 30.988Z" fill="#282C33"/>
<path d="M260.879 13.4603H268.317V18.6194C270.012 15.0113 272.625 13.1008 276.986 13.0475V20.0107C271.495 19.9574 268.317 21.7615 268.317 26.9206V40.4275H260.879V13.4603Z" fill="#282C33"/>
<path d="M281.812 32.4325V18.7659H278.375V13.4537H281.812V7.62885H289.197V13.4537H294.84V18.7659H289.197V31.7602C289.197 33.9237 290.274 34.9555 292.175 34.9555C293.305 34.9555 294.123 34.8024 295 34.4429V40.2211C293.976 40.5806 292.487 40.9401 290.486 40.9401C284.836 40.9401 281.812 38.051 281.812 32.4325Z" fill="#282C33"/>
</g>
<defs>
<clipPath id="clip0">
<rect width="300" height="41" fill="white"/>
</clipPath>
</defs>
</svg>
