<?xml version="1.0" encoding="UTF-8"?>
<svg width="22px" height="22px" viewBox="0 0 22 22" version="1.1" xmlns="http://www.w3.org/2000/svg" xmlns:xlink="http://www.w3.org/1999/xlink">
    <!-- Generator: Sketch 53.2 (72643) - https://sketchapp.com -->
    <title>icon/about/color</title>
    <desc>Created with Sketch.</desc>
    <defs>
        <linearGradient x1="18.1729216%" y1="4.39471471%" x2="75.5102041%" y2="79.2523614%" id="linearGradient-1">
            <stop stop-color="#B7FF88" offset="0%"></stop>
            <stop stop-color="#7DC357" offset="35.8743238%"></stop>
            <stop stop-color="#005155" offset="100%"></stop>
        </linearGradient>
        <linearGradient x1="24.2200665%" y1="4.39471471%" x2="70.6632653%" y2="79.2523614%" id="linearGradient-2">
            <stop stop-color="#B7FF88" offset="0%"></stop>
            <stop stop-color="#7DC357" offset="35.8743238%"></stop>
            <stop stop-color="#005155" offset="100%"></stop>
        </linearGradient>
    </defs>
    <g id="icon/about/color" stroke="none" stroke-width="1" fill="none" fill-rule="evenodd">
        <g id="Navigation/icons/Customers/gray-Copy-2" transform="translate(1.000000, 4.000000)" fill-rule="nonzero">
            <path d="M7.06870889,4.446685 C8.79783358,5.23353688 10,6.97637793 10,9 L10,14 L1.42857143,14 C0.639593215,14 -1.2542264e-16,13.3604068 -2.22044605e-16,12.5714286 L0,9 C-2.80981278e-16,6.70561374 1.54539266,4.77217329 3.65205571,4.18380089 C3.24699444,3.73950763 3,3.14859814 3,2.5 C3,1.11928813 4.11928813,0 5.5,0 C6.88071187,0 8,1.11928813 8,2.5 C8,3.28663256 7.63668811,3.98840908 7.06870889,4.446685 Z" id="Combined-Shape" fill="url(#linearGradient-1)"></path>
            <path d="M12,14 L12,9 C12,7.87417521 11.6279105,6.83525658 11,5.99951255 C11.6517462,5.1320434 12.5791042,4.48346678 13.6520557,4.18380089 C13.2469944,3.73950763 13,3.14859814 13,2.5 C13,1.11928813 14.1192881,0 15.5,0 C16.8807119,0 18,1.11928813 18,2.5 C18,3.28663256 17.6366881,3.98840908 17.0687089,4.446685 C18.7978336,5.23353688 20,6.97637793 20,9 L20,13 C20,13.5522847 19.5522847,14 19,14 L12,14 Z" id="Combined-Shape" fill="url(#linearGradient-2)"></path>
        </g>
    </g>
</svg>