<?xml version="1.0" encoding="UTF-8"?>
<svg width="24px" height="24px" viewBox="0 0 24 24" version="1.1" xmlns="http://www.w3.org/2000/svg" xmlns:xlink="http://www.w3.org/1999/xlink">
    <!-- Generator: Sketch 57.1 (83088) - https://sketch.com -->
    <title>icon/api-hpver</title>
    <desc>Created with Sketch.</desc>
    <defs>
        <linearGradient x1="85.2655375%" y1="100%" x2="9.16480031%" y2="-18.9773657%" id="linearGradient-1">
            <stop stop-color="#0078FA" offset="0%"></stop>
            <stop stop-color="#9BD9E1" stop-opacity="0.5" offset="100%"></stop>
        </linearGradient>
    </defs>
    <g id="icon/api-hpver" stroke="none" stroke-width="1" fill="none" fill-rule="evenodd">
        <path d="M13.0791348,2 C13.4401064,2 13.7525238,2.25099944 13.8302985,2.60349279 L14.283219,4.65220645 C14.7351003,4.79246795 15.1691405,4.97326684 15.5810879,5.19035121 L17.3499755,4.06130761 C17.654221,3.86705219 18.0526169,3.91048127 18.3078623,4.1657267 L19.8341313,5.69199572 C20.0893768,5.94724116 20.1328059,6.34563706 19.9385504,6.64988251 L18.8091734,8.41801023 C19.0264978,8.83028003 19.2074772,9.26468392 19.3478488,9.71695899 L21.3965072,10.1695008 C21.7490006,10.2472755 22,10.5596929 22,10.9206645 L22,13.0791348 C22,13.4401064 21.7490006,13.7525238 21.3965072,13.8302985 L19.3479606,14.2826808 C19.2076143,14.7349532 19.0266613,15.1693565 18.8093641,15.5816281 L19.9385504,17.3501175 C20.1328059,17.6543629 20.0893768,18.0527588 19.8341313,18.3080043 L19.8341313,18.3080043 L18.3078623,19.8342733 C18.0526169,20.0895187 17.654221,20.1329478 17.3499755,19.9386924 L17.3499755,19.9386924 L15.5821187,18.8091054 C15.1698647,19.0264315 14.7354772,19.207415 14.283219,19.3477936 L13.8302985,21.3965072 C13.7603013,21.7137512 13.5002434,21.9487852 13.1857836,21.9926195 L13.0791348,22 L10.9206645,22 C10.5957901,22 10.3102445,21.7966905 10.1996864,21.4990609 L10.1695008,21.3965072 L9.71678095,19.3477936 C9.26489971,19.2075321 8.83085947,19.0267332 8.41891214,18.8096488 L6.64988251,19.9385504 C6.37944211,20.1112219 6.03461123,20.0960933 5.78205389,19.9113326 L5.69199572,19.8341313 L4.1657267,18.3078623 C3.93884187,18.0809775 3.87931811,17.7409861 4.00532345,17.4545522 L4.06130761,17.3499755 L5.19082656,15.5819898 C4.97350225,15.16972 4.79252282,14.7353161 4.65215119,14.283041 L2.60349279,13.8302985 C2.28624878,13.7603013 2.05121483,13.5002434 2.00738048,13.1857836 L2,13.0791348 L2,10.9206645 C2,10.5957901 2.20330955,10.3102445 2.50093911,10.1996864 L2.60349279,10.1695008 L4.6520394,9.71731919 C4.7923857,9.26504681 4.97333873,8.83064352 5.19063594,8.41837188 L4.06130761,6.65002446 C3.86705219,6.345779 3.91048127,5.94738311 4.1657267,5.69213767 L5.69199572,4.16586865 C5.94724116,3.91062322 6.34563706,3.86719414 6.64988251,4.06144955 L8.41788125,5.19089455 C8.83013534,4.97356851 9.26452276,4.79258495 9.71678095,4.65220645 L10.1695008,2.60349279 C10.2472755,2.25099944 10.5596929,2 10.9206645,2 L13.0791348,2 Z M12,7.38461538 C9.45099346,7.38461538 7.38461538,9.45099346 7.38461538,12 C7.38461538,14.5490065 9.45099346,16.6153846 12,16.6153846 C14.5490065,16.6153846 16.6153846,14.5490065 16.6153846,12 C16.6153846,9.45099346 14.5490065,7.38461538 12,7.38461538 Z" id="Combined-Shape" fill="url(#linearGradient-1)" fill-rule="nonzero"></path>
    </g>
</svg>