<?xml version="1.0" encoding="UTF-8"?>
<svg width="24px" height="24px" viewBox="0 0 24 24" version="1.1" xmlns="http://www.w3.org/2000/svg" xmlns:xlink="http://www.w3.org/1999/xlink">
    <!-- Generator: Sketch 57.1 (83088) - https://sketch.com -->
    <title>icon/api-reg</title>
    <desc>Created with Sketch.</desc>
    <defs>
        <linearGradient x1="0%" y1="0%" x2="98.0491329%" y2="100%" id="linearGradient-1">
            <stop stop-color="#697DA3" stop-opacity="0.5" offset="0%"></stop>
            <stop stop-color="#697DA3" offset="100%"></stop>
        </linearGradient>
    </defs>
    <g id="icon/api-reg" stroke="none" stroke-width="1" fill="none" fill-rule="evenodd">
        <g id="Navigation/icons/settings/Gray" transform="translate(2.000000, 2.000000)" fill="url(#linearGradient-1)" fill-rule="nonzero">
            <path d="M11.0791348,0 C11.4401064,2.54297749e-16 11.7525238,0.250999444 11.8302985,0.603492793 L12.283219,2.65220645 C12.7351003,2.79246795 13.1691405,2.97326684 13.5810879,3.19035121 L15.3499755,2.06130761 C15.654221,1.86705219 16.0526169,1.91048127 16.3078623,2.1657267 L17.8341313,3.69199572 C18.0893768,3.94724116 18.1328059,4.34563706 17.9385504,4.64988251 L16.8091734,6.41801023 C17.0264978,6.83028003 17.2074772,7.26468392 17.3478488,7.71695899 L19.3965072,8.16950076 C19.7490006,8.24727546 20,8.55969289 20,8.92066445 L20,11.0791348 C20,11.4401064 19.7490006,11.7525238 19.3965072,11.8302985 L17.3479606,12.2826808 C17.2076143,12.7349532 17.0266613,13.1693565 16.8093641,13.5816281 L17.9385504,15.3501175 C18.1328059,15.6543629 18.0893768,16.0527588 17.8341313,16.3080043 L17.8341313,16.3080043 L16.3078623,17.8342733 C16.0526169,18.0895187 15.654221,18.1329478 15.3499755,17.9386924 L15.3499755,17.9386924 L13.5821187,16.8091054 C13.1698647,17.0264315 12.7354772,17.207415 12.283219,17.3477936 L11.8302985,19.3965072 C11.7603013,19.7137512 11.5002434,19.9487852 11.1857836,19.9926195 L11.0791348,20 L8.92066445,20 C8.59579005,20 8.31024449,19.7966905 8.19968636,19.4990609 L8.16950076,19.3965072 L7.71678095,17.3477936 C7.26489971,17.2075321 6.83085947,17.0267332 6.41891214,16.8096488 L4.64988251,17.9385504 C4.37944211,18.1112219 4.03461123,18.0960933 3.78205389,17.9113326 L3.69199572,17.8341313 L2.1657267,16.3078623 C1.93884187,16.0809775 1.87931811,15.7409861 2.00532345,15.4545522 L2.06130761,15.3499755 L3.19082656,13.5819898 C2.97350225,13.16972 2.79252282,12.7353161 2.65215119,12.283041 L0.603492793,11.8302985 C0.286248779,11.7603013 0.0512148279,11.5002434 0.00738047778,11.1857836 L4.29427954e-16,11.0791348 L2.97259764e-16,8.92066445 C5.36885548e-16,8.59579005 0.20330955,8.31024449 0.500939111,8.19968636 L0.603492793,8.16950076 L2.6520394,7.71731919 C2.7923857,7.26504681 2.97333873,6.83064352 3.19063594,6.41837188 L2.06130761,4.65002446 C1.86705219,4.345779 1.91048127,3.94738311 2.1657267,3.69213767 L3.69199572,2.16586865 C3.94724116,1.91062322 4.34563706,1.86719414 4.64988251,2.06144955 L6.41788125,3.19089455 C6.83013534,2.97356851 7.26452276,2.79258495 7.71678095,2.65220645 L8.16950076,0.603492793 C8.24727546,0.250999444 8.55969289,2.88354004e-16 8.92066445,0 L11.0791348,0 Z M10,5.38461538 C7.45099346,5.38461538 5.38461538,7.45099346 5.38461538,10 C5.38461538,12.5490065 7.45099346,14.6153846 10,14.6153846 C12.5490065,14.6153846 14.6153846,12.5490065 14.6153846,10 C14.6153846,7.45099346 12.5490065,5.38461538 10,5.38461538 Z" id="Combined-Shape"></path>
        </g>
    </g>
</svg>