<?xml version="1.0" encoding="UTF-8"?>
<svg width="24px" height="24px" viewBox="0 0 24 24" version="1.1" xmlns="http://www.w3.org/2000/svg" xmlns:xlink="http://www.w3.org/1999/xlink">
    <!-- Generator: Sketch 57.1 (83088) - https://sketch.com -->
    <title>icon/architecture-hover</title>
    <desc>Created with Sketch.</desc>
    <defs>
        <linearGradient x1="142.008756%" y1="125.082609%" x2="0%" y2="-24.9000805%" id="linearGradient-1">
            <stop stop-color="#0078FA" offset="0%"></stop>
            <stop stop-color="#9BD9E1" stop-opacity="0.5" offset="100%"></stop>
        </linearGradient>
        <linearGradient x1="112.649562%" y1="99.9071362%" x2="0%" y2="-29.6566714%" id="linearGradient-2">
            <stop stop-color="#0078FA" offset="0%"></stop>
            <stop stop-color="#9BD9E1" stop-opacity="0.5" offset="100%"></stop>
        </linearGradient>
    </defs>
    <g id="icon/architecture-hover" stroke="none" stroke-width="1" fill="none" fill-rule="evenodd">
        <g id="Group-Copy" transform="translate(2.000000, 2.000000)" fill-rule="nonzero">
            <path d="M11,16.39 L11,16.9815819 L11.0070221,17.1000133 C11.044206,17.4121925 11.2269208,17.6915864 11.5038916,17.8498425 L11.5038916,17.8498425 L11.75,17.99 L10.4961389,18.7072013 C10.2271354,18.8609177 9.90455343,18.8801322 9.62215526,18.764845 L9.50386106,18.7072013 L8.249,17.99 L8.4961084,17.8498425 L8.59545406,17.7849907 C8.84805972,17.5978306 9,17.3005769 9,16.9815819 L9,16.9815819 L9,16.391 L9.48550424,16.6820119 C9.80218663,16.8720213 10.1978134,16.8720213 10.5144958,16.6820119 L11,16.39 Z M15,5.848 L16.4961389,6.7027887 C16.7730945,6.86104901 16.9557971,7.14043572 16.9929784,7.45260445 L17,7.57103184 L17,10.705 L15.9961084,10.1317394 L15.8778207,10.0741034 C15.5954389,9.95883143 15.2728815,9.97804343 15.0038916,10.1317394 L15.0038916,10.1317394 L15,10.133 L15,8.55689968 C15,8.24667221 14.8562464,7.95653451 14.6151645,7.76848237 C14.855973,7.58212711 15,7.29215901 15,6.9815819 L15,6.9815819 L15,5.848 Z M6,5.276 L6,6.9815819 L6.00702205,7.10001335 C6.01728271,7.18615714 6.03862477,7.26980449 6.06997089,7.34909898 L5.48550424,7.69940676 C5.18429883,7.88013 5,8.20563683 5,8.55689968 L5,10.133 L4.9961084,10.1317394 L4.87782067,10.0741034 C4.59543889,9.95883143 4.27288152,9.97804343 4.0038916,10.1317394 L4.0038916,10.1317394 L3,10.704 L3,7.57103184 C3,7.25204798 3.15192973,6.9548031 3.40452097,6.76764157 L3.50386106,6.7027887 L6,5.276 Z" id="Combined-Shape" fill="url(#linearGradient-1)" opacity="0.8"></path>
            <path d="M15.8778207,10.0741034 L15.9961084,10.1317394 L19.4961084,12.1315761 C19.7730792,12.2898322 19.955794,12.5692261 19.9929779,12.8814053 L20,12.9998367 L20,16.9815819 C20,17.3005769 19.8480597,17.5978306 19.5954541,17.7849907 L19.4961084,17.8498425 L15.9961084,19.8496792 C15.7271185,20.0033752 15.4045611,20.0225872 15.1221793,19.9073152 L15.0038916,19.8496792 L11.5038916,17.8498425 C11.2269208,17.6915864 11.044206,17.4121925 11.0070221,17.1000133 L11,16.9815819 L11,12.9998367 C11,12.6808417 11.1519403,12.383588 11.4045459,12.1964279 L11.5038916,12.1315761 L15.0038916,10.1317394 C15.2728815,9.97804343 15.5954389,9.95883143 15.8778207,10.0741034 Z M4.0038916,10.1317394 C4.31130865,9.95608686 4.68869135,9.95608686 4.9961084,10.1317394 L4.9961084,10.1317394 L8.4961084,12.1315761 C8.80770058,12.3096143 9,12.6409673 9,12.9998367 L9,12.9998367 L9,16.9815819 C9,17.3404513 8.80770058,17.6718044 8.4961084,17.8498425 L8.4961084,17.8498425 L4.9961084,19.8496792 C4.68869135,20.0253317 4.31130865,20.0253317 4.0038916,19.8496792 L4.0038916,19.8496792 L0.503891598,17.8498425 C0.192299423,17.6718044 1.15417185e-15,17.3404513 0,16.9815819 L0,16.9815819 L0,12.9998367 C1.15421209e-16,12.6409673 0.192299423,12.3096143 0.503891598,12.1315761 L0.503891598,12.1315761 Z M10.8778207,0.0741034177 L10.9961084,0.131739409 L14.4961084,2.13157612 C14.7730792,2.28983224 14.955794,2.56922606 14.9929779,2.88140526 L15,2.99983671 L15,6.9815819 C15,7.30057694 14.8480597,7.59783064 14.5954541,7.78499067 L14.4961084,7.84984249 L10.9961084,9.8496792 C10.7271185,10.0033752 10.4045611,10.0225872 10.1221793,9.90731519 L10.0038916,9.8496792 L6.5038916,7.84984249 C6.22692078,7.69158637 6.04420596,7.41219255 6.00702205,7.10001335 L6,6.9815819 L6,2.99983671 C6,2.68084167 6.15194028,2.38358798 6.40454594,2.19642794 L6.5038916,2.13157612 L10.0038916,0.131739409 C10.2728815,-0.0219565682 10.5954389,-0.0411685654 10.8778207,0.0741034177 Z" id="Combined-Shape-Copy" fill="url(#linearGradient-2)"></path>
        </g>
    </g>
</svg>