<?xml version="1.0" encoding="UTF-8"?>
<svg width="22px" height="22px" viewBox="0 0 22 22" version="1.1" xmlns="http://www.w3.org/2000/svg" xmlns:xlink="http://www.w3.org/1999/xlink">
    <!-- Generator: Sketch 53.2 (72643) - https://sketchapp.com -->
    <title>icon/careers/gray</title>
    <desc>Created with Sketch.</desc>
    <defs>
        <linearGradient x1="21.875%" y1="0%" x2="77.0276373%" y2="100%" id="linearGradient-1">
            <stop stop-color="#697DA3" stop-opacity="0.5" offset="0%"></stop>
            <stop stop-color="#697DA3" offset="100%"></stop>
        </linearGradient>
        <linearGradient x1="46.875%" y1="0%" x2="53.0030708%" y2="100%" id="linearGradient-2">
            <stop stop-color="#697DA3" stop-opacity="0.5" offset="0%"></stop>
            <stop stop-color="#697DA3" offset="100%"></stop>
        </linearGradient>
    </defs>
    <g id="icon/careers/gray" stroke="none" stroke-width="1" fill="none" fill-rule="evenodd">
        <g transform="translate(1.000000, 2.000000)" fill-rule="nonzero">
            <path d="M6,4 C6,1.790861 7.790861,-6.03348129e-15 10,-6.43929354e-15 C12.209139,-6.84510579e-15 14,1.790861 14,4 L15.2307692,4 C15.6556037,4 16,4.34439635 16,4.76923077 L16,15.2307692 C16,15.6556037 15.6556037,16 15.2307692,16 L4.76923077,16 C4.34439635,16 4,15.6556037 4,15.2307692 L4,4.76923077 C4,4.34439635 4.34439635,4 4.76923077,4 L6,4 Z M8,4 L12,4 C12,2.8954305 11.1045695,2 10,2 C8.8954305,2 8,2.8954305 8,4 Z" id="Combined-Shape" fill="url(#linearGradient-1)"></path>
            <rect id="Rectangle-10-Copy-8" fill="url(#linearGradient-2)" x="0" y="4" width="3" height="12" rx="0.769230769"></rect>
            <rect id="Rectangle-10-Copy-9" fill="url(#linearGradient-2)" x="17" y="4" width="3" height="12" rx="0.769230769"></rect>
        </g>
    </g>
</svg>