<?xml version="1.0" encoding="UTF-8"?>
<svg width="22px" height="22px" viewBox="0 0 22 22" version="1.1" xmlns="http://www.w3.org/2000/svg" xmlns:xlink="http://www.w3.org/1999/xlink">
    <!-- Generator: Sketch 53.2 (72643) - https://sketchapp.com -->
    <title>icon/customers/gray</title>
    <desc>Created with Sketch.</desc>
    <defs>
        <linearGradient x1="0%" y1="50%" x2="81.4749407%" y2="50%" id="linearGradient-1">
            <stop stop-color="#697DA3" stop-opacity="0.5" offset="0%"></stop>
            <stop stop-color="#697DA3" offset="100%"></stop>
        </linearGradient>
        <linearGradient x1="0%" y1="50%" x2="81.4749407%" y2="50%" id="linearGradient-2">
            <stop stop-color="#697DA3" stop-opacity="0.5" offset="0%"></stop>
            <stop stop-color="#697DA3" offset="100%"></stop>
        </linearGradient>
        <linearGradient x1="0%" y1="50%" x2="81.4749407%" y2="50%" id="linearGradient-3">
            <stop stop-color="#697DA3" stop-opacity="0.5" offset="0%"></stop>
            <stop stop-color="#697DA3" offset="100%"></stop>
        </linearGradient>
    </defs>
    <g id="icon/customers/gray" stroke="none" stroke-width="1" fill="none" fill-rule="evenodd">
        <g transform="translate(1.000000, 3.000000)" fill-rule="nonzero">
            <path d="M13.3112744,12.7281923 C12.8855171,14.2730216 11.470347,15.4076404 9.79017249,15.4076404 L3.44220463,9.12655958 L3.44220463,6.03373643 L3.44220463,4.69467742 C3.44220463,4.00432148 4.00184869,3.44467742 4.69220463,3.44467742 C5.38256056,3.44467742 5.94220463,4.00432148 5.94220463,4.69467742 L5.94220463,4.06504779 C5.94220463,3.37469185 6.50184869,2.81504779 7.19220463,2.81504779 C7.88256056,2.81504779 8.44220463,3.37469185 8.44220463,4.06504779 L8.44220463,3.43541816 C8.44220463,2.74506222 9.00184869,2.18541816 9.69220463,2.18541816 C10.3825606,2.18541816 10.9422046,2.74506222 10.9422046,3.43541816 L10.9422046,2.80578853 C10.9422046,2.11543259 11.5018487,1.55578853 12.1922046,1.55578853 C12.7449772,1.55578853 13.2139462,1.91459368 13.3789162,2.41200831 L13.1844668,7.26862401 L11.7976314,7.23587465 C10.2673725,7.27215068 8.88239086,8.21360353 8.26105931,9.63328697 L8.03675403,10.1458032 C7.58073774,11.187757 8.04813007,12.4042934 9.09721903,12.838782 C9.34823929,12.942744 9.61762641,12.99409 9.88921596,12.9904279 L9.96820481,12.9868433 L13.3112744,12.7281923 Z" id="Combined-Shape" fill="url(#linearGradient-1)" transform="translate(8.410447, 8.481714) scale(1, -1) rotate(45.000000) translate(-8.410447, -8.481714) "></path>
            <path d="M7.14044484,5.20174527 L11.3667501,1.55146346 C11.6970726,1.26616221 12.1522895,1.17382257 12.5676736,1.30785905 L16.2874604,2.50816277 L16.2874604,7.69786724 L12.5588735,4.23292354 L10.7942422,6.0979793 C10.0388493,6.82397668 8.91158065,7.04451483 7.92577452,6.65916456 L7.40742779,6.45654354 C7.00174503,6.2979627 6.80521387,5.84994143 6.96846316,5.45586002 C7.00780869,5.36088048 7.0662786,5.27448716 7.14044484,5.20174527 Z" id="Combined-Shape-Copy-4" fill="url(#linearGradient-2)"></path>
            <path d="M-3.5,7.875 L-3.5,6.20017012 C-3.5,5.81347684 -3.18652316,5.5 -2.79982988,5.5 L5.79982988,5.5 C6.18652316,5.5 6.5,5.81347684 6.5,6.20017012 L6.5,7.875 C6.5,8.22017797 6.22017797,8.5 5.875,8.5 L-2.875,8.5 C-3.22017797,8.5 -3.5,8.22017797 -3.5,7.875 Z" id="Path-4-Copy-8" fill="url(#linearGradient-3)" transform="translate(1.500000, 7.000000) scale(-1, 1) rotate(90.000000) translate(-1.500000, -7.000000) "></path>
            <path d="M13.5,7.875 L13.5,6.20017012 C13.5,5.81347684 13.8134768,5.5 14.2001701,5.5 L22.7998299,5.5 C23.1865232,5.5 23.5,5.81347684 23.5,6.20017012 L23.5,7.875 C23.5,8.22017797 23.220178,8.5 22.875,8.5 L14.125,8.5 C13.779822,8.5 13.5,8.22017797 13.5,7.875 Z" id="Path-4-Copy-9" fill="url(#linearGradient-3)" transform="translate(18.500000, 7.000000) scale(-1, 1) rotate(90.000000) translate(-18.500000, -7.000000) "></path>
        </g>
    </g>
</svg>