<?xml version="1.0" encoding="UTF-8"?>
<svg width="22px" height="22px" viewBox="0 0 22 22" version="1.1" xmlns="http://www.w3.org/2000/svg" xmlns:xlink="http://www.w3.org/1999/xlink">
    <!-- Generator: Sketch 53.2 (72643) - https://sketchapp.com -->
    <title>icon/devops/color</title>
    <desc>Created with Sketch.</desc>
    <defs>
        <linearGradient x1="100%" y1="81.6953926%" x2="5.5293257%" y2="20.7327281%" id="linearGradient-1">
            <stop stop-color="#0078FA" offset="0%"></stop>
            <stop stop-color="#9BD9E1" stop-opacity="0.5" offset="100%"></stop>
        </linearGradient>
        <linearGradient x1="100%" y1="80.917343%" x2="5.5293257%" y2="21.4511729%" id="linearGradient-2">
            <stop stop-color="#0078FA" offset="0%"></stop>
            <stop stop-color="#9BD9E1" stop-opacity="0.5" offset="100%"></stop>
        </linearGradient>
    </defs>
    <g id="icon/devops/color" stroke="none" stroke-width="1" fill="none" fill-rule="evenodd">
        <g id="icon/devops/gray" transform="translate(1.000000, 7.000000)" fill-rule="nonzero">
            <path d="M10.6884765,7.33276726 L12.17099,5.40123628 C13.0150415,6.2286353 13.8261967,6.6 14.6037276,6.6 C16.1009624,6.6 17.2240749,5.60548607 17.2240749,4.5 C17.2240749,3.39451393 16.1009624,2.4 14.6037276,2.4 C13.597254,2.4 12.512427,3.02929487 11.3542899,4.46884932 C11.364123,4.48165682 11.373952,4.4944019 11.3837767,4.50708467 C11.1229544,4.85531176 10.6125377,5.51128253 9.85252658,6.47499697 C9.34808879,5.89515169 8.85780787,5.21543904 8.38168381,4.43585903 C10.2829099,1.47861968 12.3569244,0 14.6037276,0 C17.4103756,2.70699984e-16 19.6856134,2.01471863 19.6856134,4.5 C19.6856134,6.98528137 17.4103756,9 14.6037276,9 C13.2198634,9 11.9147797,8.44425575 10.6884765,7.33276726 Z" id="Combined-Shape" fill="url(#linearGradient-1)"></path>
            <path d="M5.08188586,2.4 C3.58465097,2.4 2.46153846,3.39451393 2.46153846,4.5 C2.46153846,5.60548607 3.58465097,6.6 5.08188586,6.6 C6.1126558,6.6 7.23086042,5.94391643 8.42567715,4.44919828 C7.21706514,3.02799838 6.09902723,2.4 5.08188586,2.4 Z M5.08188586,9 C2.2752378,9 -1.31894495e-12,6.98528137 -1.31894495e-12,4.5 C-1.31894495e-12,2.01471863 2.2752378,2.70699984e-16 5.08188586,0 C7.32868896,0 9.44982041,1.46858621 11.4452802,4.40575862 C9.49269774,7.46858621 7.37156629,9 5.08188586,9 Z" id="Oval-6-Copy-4" fill="url(#linearGradient-2)"></path>
        </g>
    </g>
</svg>