<?xml version="1.0" encoding="UTF-8"?>
<svg width="22px" height="22px" viewBox="0 0 22 22" version="1.1" xmlns="http://www.w3.org/2000/svg" xmlns:xlink="http://www.w3.org/1999/xlink">
    <!-- Generator: Sketch 53.2 (72643) - https://sketchapp.com -->
    <title>icon/ebook</title>
    <desc>Created with Sketch.</desc>
    <defs>
        <linearGradient x1="78.125%" y1="100%" x2="24.9852457%" y2="3.83040007%" id="linearGradient-1">
            <stop stop-color="#0078FA" offset="0%"></stop>
            <stop stop-color="#9BD9E1" stop-opacity="0.5" offset="100%"></stop>
        </linearGradient>
    </defs>
    <g id="icon/ebook" stroke="none" stroke-width="1" fill="none" fill-rule="evenodd">
        <g transform="translate(4.000000, 1.000000)" fill="url(#linearGradient-1)" fill-rule="nonzero" id="Combined-Shape">
            <path d="M1.53846154,4.61538462 L10.8461538,4.61538462 C11.4834055,4.61538462 12,4.0987901 12,3.46153846 L12,3.46153846 C12,2.82428683 11.4834055,2.30769231 10.8461538,2.30769231 L1.15384615,2.30769231 C0.516594519,2.30769231 7.80408174e-17,1.79109779 0,1.15384615 L0,1.15384615 C-7.80408174e-17,0.516594519 0.516594519,1.17061226e-16 1.15384615,0 L11.9230769,0 C13.6224146,1.1971518e-15 15,1.37758539 15,3.07692308 L15,18.4615385 C15,19.3112073 14.3112073,20 13.4615385,20 L1.53846154,20 C0.688792693,20 7.70188238e-16,19.3112073 6.66133815e-16,18.4615385 L4.4408921e-16,6.15384615 C7.17363553e-16,5.30417731 0.688792693,4.61538462 1.53846154,4.61538462 Z"></path>
        </g>
    </g>
</svg>