<?xml version="1.0" encoding="UTF-8"?>
<svg width="44px" height="44px" viewBox="0 0 44 44" version="1.1" xmlns="http://www.w3.org/2000/svg" xmlns:xlink="http://www.w3.org/1999/xlink">
    <!-- Generator: Sketch 41.2 (35397) - http://www.bohemiancoding.com/sketch -->
    <title>facebook</title>
    <desc>Created with Sketch.</desc>
    <defs>
        <circle id="path-1" cx="19" cy="19" r="19"></circle>
        <filter x="-50%" y="-50%" width="200%" height="200%" filterUnits="objectBoundingBox" id="filter-2">
            <feOffset dx="1" dy="2" in="SourceAlpha" result="shadowOffsetOuter1"></feOffset>
            <feGaussianBlur stdDeviation="1.5" in="shadowOffsetOuter1" result="shadowBlurOuter1"></feGaussianBlur>
            <feColorMatrix values="0 0 0 0 0   0 0 0 0 0   0 0 0 0 0  0 0 0 0.103119339 0" type="matrix" in="shadowBlurOuter1"></feColorMatrix>
        </filter>
        <linearGradient x1="0%" y1="0%" x2="85.1561377%" y2="100%" id="linearGradient-3">
            <stop stop-color="#57636C" stop-opacity="0.665562726" offset="0%"></stop>
            <stop stop-color="#344F63" offset="100%"></stop>
        </linearGradient>
    </defs>
    <g id="Page-1" stroke="none" stroke-width="1" fill="none" fill-rule="evenodd">
        <g id="Java-Monitoring" transform="translate(-1353.000000, -4010.000000)">
            <g id="footer" transform="translate(0.000000, 3936.000000)">
                <g id="facebook" transform="translate(1355.000000, 75.000000)">
                    <g id="Oval">
                        <use fill="black" fill-opacity="1" filter="url(#filter-2)" xlink:href="#path-1"></use>
                        <use fill="#FFFFFF" fill-rule="evenodd" xlink:href="#path-1"></use>
                    </g>
                    <path d="M23.9769584,11.469402 C23.9769584,11.6961228 23.7924677,11.8775304 23.5618938,11.8775304 L21.7861119,11.8775304 C20.5639598,11.8775304 20.3333859,12.3537837 20.3333859,13.260822 L20.3333859,15.1881813 L23.446528,15.1881813 C23.5618938,15.1881813 23.6540603,15.2334945 23.7463845,15.3016193 C23.8155093,15.369589 23.8615925,15.483027 23.8615925,15.5963098 L23.8615925,18.8843041 C23.8615925,19.1110249 23.6771019,19.2924326 23.446528,19.2924326 L20.3564275,19.2924326 L20.3564275,27.5917164 C20.3564275,27.8185923 20.1719369,28 19.9412052,28 L16.4821234,28 C16.2515495,28 16.0670588,27.8185923 16.0670588,27.5917164 L16.0670588,19.2924326 L13.4150646,19.2924326 C13.1844907,19.2924326 13,19.1110249 13,18.8843041 L13,15.5963098 C13,15.369589 13.1844907,15.1881813 13.4150646,15.1881813 L16.0670588,15.1881813 L16.0670588,12.9206632 C16.0670588,9.92751453 17.9810904,8 20.9559828,8 L23.5849354,8 C23.8155093,8 24,8.18140766 24,8.40812843 L24,11.469402 L23.9769584,11.469402 Z" id="Fill-1" fill="url(#linearGradient-3)" fill-rule="evenodd"></path>
                </g>
            </g>
        </g>
    </g>
</svg>