<?xml version="1.0" encoding="UTF-8"?>
<svg width="22px" height="22px" viewBox="0 0 22 22" version="1.1" xmlns="http://www.w3.org/2000/svg" xmlns:xlink="http://www.w3.org/1999/xlink">
    <!-- Generator: Sketch 53.2 (72643) - https://sketchapp.com -->
    <title>icon/identify/gray</title>
    <desc>Created with Sketch.</desc>
    <defs>
        <linearGradient x1="0%" y1="50%" x2="81.4749407%" y2="50%" id="linearGradient-1">
            <stop stop-color="#697DA3" stop-opacity="0.5" offset="0%"></stop>
            <stop stop-color="#697DA3" offset="100%"></stop>
        </linearGradient>
        <linearGradient x1="0%" y1="50%" x2="81.4749407%" y2="50%" id="linearGradient-2">
            <stop stop-color="#697DA3" stop-opacity="0.5" offset="0%"></stop>
            <stop stop-color="#697DA3" offset="100%"></stop>
        </linearGradient>
        <linearGradient x1="0%" y1="50%" x2="81.4749407%" y2="50%" id="linearGradient-3">
            <stop stop-color="#697DA3" stop-opacity="0.5" offset="0%"></stop>
            <stop stop-color="#697DA3" offset="100%"></stop>
        </linearGradient>
        <linearGradient x1="0%" y1="50%" x2="81.4749407%" y2="50%" id="linearGradient-4">
            <stop stop-color="#697DA3" stop-opacity="0.5" offset="0%"></stop>
            <stop stop-color="#697DA3" offset="100%"></stop>
        </linearGradient>
    </defs>
    <g id="icon/identify/gray" stroke="none" stroke-width="1" fill="none" fill-rule="evenodd">
        <g transform="translate(1.000000, 1.000000)" fill-rule="nonzero">
            <path d="M-1.5,9.6 L-1.5,8.29621775 C-1.5,7.80125035 -1.09874965,7.4 -0.603782248,7.4 L9.60378225,7.4 C10.0987496,7.4 10.5,7.80125035 10.5,8.29621775 L10.5,9.6 C10.5,10.0418278 10.1418278,10.4 9.7,10.4 L-0.7,10.4 C-1.1418278,10.4 -1.5,10.0418278 -1.5,9.6 Z" id="Path-4-Copy-5" fill="url(#linearGradient-1)" transform="translate(4.500000, 8.900000) scale(-1, 1) rotate(90.000000) translate(-4.500000, -8.900000) "></path>
            <path d="M9,8.2 L9,6.89621775 C9,6.40125035 9.40125035,6 9.89621775,6 L23.1037822,6 C23.5987496,6 24,6.40125035 24,6.89621775 L24,8.2 C24,8.6418278 23.6418278,9 23.2,9 L9.8,9 C9.3581722,9 9,8.6418278 9,8.2 Z" id="Path-4-Copy-6" fill="url(#linearGradient-2)" transform="translate(16.500000, 7.500000) scale(-1, 1) rotate(90.000000) translate(-16.500000, -7.500000) "></path>
            <path d="M6.5,11.7 L6.5,10.3962178 C6.5,9.90125035 6.90125035,9.5 7.39621775,9.5 L13.6037822,9.5 C14.0987496,9.5 14.5,9.90125035 14.5,10.3962178 L14.5,11.7 C14.5,12.1418278 14.1418278,12.5 13.7,12.5 L7.3,12.5 C6.8581722,12.5 6.5,12.1418278 6.5,11.7 Z" id="Path-4-Copy-4" fill="url(#linearGradient-3)" transform="translate(10.500000, 11.000000) scale(-1, -1) rotate(90.000000) translate(-10.500000, -11.000000) "></path>
            <path d="M8.5,26.7 L8.5,8.39621775 C8.5,7.90125035 8.90125035,7.5 9.39621775,7.5 L10.6037822,7.5 C11.0987496,7.5 11.5,7.90125035 11.5,8.39621775 L11.5,26.7 C11.5,27.1418278 11.1418278,27.5 10.7,27.5 L9.3,27.5 C8.8581722,27.5 8.5,27.1418278 8.5,26.7 Z" id="Path-4-Copy-7" fill="url(#linearGradient-4)" transform="translate(10.000000, 17.500000) scale(-1, -1) rotate(90.000000) translate(-10.000000, -17.500000) "></path>
        </g>
    </g>
</svg>