<?xml version="1.0" encoding="UTF-8"?>
<svg width="14px" height="14px" viewBox="0 0 14 14" version="1.1" xmlns="http://www.w3.org/2000/svg" xmlns:xlink="http://www.w3.org/1999/xlink">
    <!-- Generator: Sketch 53.2 (72643) - https://sketchapp.com -->
    <title>icon/exec/gray copy</title>
    <desc>Created with Sketch.</desc>
    <defs>
        <linearGradient x1="31.085537%" y1="28.3316521%" x2="98.0491329%" y2="100%" id="linearGradient-1">
            <stop stop-color="#697DA3" stop-opacity="0.5" offset="0%"></stop>
            <stop stop-color="#697DA3" offset="100%"></stop>
        </linearGradient>
    </defs>
    <g id="states-desktop" stroke="none" stroke-width="1" fill="none" fill-rule="evenodd">
        <g id="Navigation-mobile-all_open" transform="translate(-32.000000, -676.000000)">
            <g id="Group-36" transform="translate(-1.000000, 30.000000)">
                <g id="solutions" transform="translate(1.000000, 419.000000)">
                    <g id="by-role" transform="translate(0.000000, 15.000000)">
                        <g id="Group-6" transform="translate(28.000000, 156.000000)">
                            <g id="Navigation/icons/integrations/gray" transform="translate(0.000000, 52.000000)">
                                <g id="Group">
                                    <rect id="Rectangle" fill-rule="nonzero" x="0" y="0" width="22" height="22"></rect>
                                    <path d="M8.25,16.875 L8.25,9.37027219 C8.25,8.75156294 8.75156294,8.25 9.37027219,8.25 L16.7547278,8.25 C17.3734371,8.25 17.875,8.75156294 17.875,9.37027219 L17.875,17.875 L9.25,17.875 C8.69771525,17.875 8.25,17.4272847 8.25,16.875 Z" id="Combined-Shape" fill="url(#linearGradient-1)" fill-rule="nonzero"></path>
                                    <path d="M4.125,12.75 L4.125,5.24527219 C4.125,4.62656294 4.62656294,4.125 5.24527219,4.125 L12.6297278,4.125 C13.2484371,4.125 13.75,4.62656294 13.75,5.24527219 L13.75,13.75 L5.125,13.75 C4.57271525,13.75 4.125,13.3022847 4.125,12.75 Z" id="Combined-Shape" fill="url(#linearGradient-1)" fill-rule="nonzero"></path>
                                </g>
                            </g>
                        </g>
                    </g>
                </g>
            </g>
        </g>
    </g>
</svg>