<?xml version="1.0" encoding="UTF-8"?>
<svg width="22px" height="22px" viewBox="0 0 22 22" version="1.1" xmlns="http://www.w3.org/2000/svg" xmlns:xlink="http://www.w3.org/1999/xlink">
    <!-- Generator: Sketch 53.2 (72643) - https://sketchapp.com -->
    <title>icon/investors/color</title>
    <desc>Created with Sketch.</desc>
    <defs>
        <linearGradient x1="85.2655375%" y1="75.8447606%" x2="0%" y2="-4.7201561%" id="linearGradient-1">
            <stop stop-color="#0078FA" offset="0%"></stop>
            <stop stop-color="#9BD9E1" stop-opacity="0.5" offset="100%"></stop>
        </linearGradient>
        <linearGradient x1="83.6215217%" y1="106.499167%" x2="5.5293257%" y2="26.1351549%" id="linearGradient-2">
            <stop stop-color="#0078FA" offset="0%"></stop>
            <stop stop-color="#9BD9E1" stop-opacity="0.5" offset="100%"></stop>
        </linearGradient>
    </defs>
    <g id="icon/investors/color" stroke="none" stroke-width="1" fill="none" fill-rule="evenodd">
        <g id="icon/investors/gray" transform="translate(3.000000, 1.000000)">
            <path d="M12.9605248,9.62981233 C12.1423218,15.2772554 10.8268907,16.9611561 7.40865027,16.9611561 C5.02191262,16.9611561 3.94855586,16.3691079 3.78453349,13.8821439 L0,13.8821439 C0.284706078,18.4038967 2.75267722,20 7.32048824,20 C13.194186,20 15.7069805,17.6598422 16.7879021,9.93073497 C16.8959306,9.15841961 16.9607619,8.83285341 17,7.77777778 L13.1949637,7.77777778 C13.1427876,8.30531559 13.0645235,8.94363635 12.9605248,9.62981233" id="Fill-16" fill="url(#linearGradient-1)"></path>
            <path d="M4.06719748,10.0268783 C4.91212159,4.49319444 6.1060131,3.06013889 9.63150037,3.06013889 C12.061371,3.06013889 13.1530397,3.85582011 13.2505391,6.32936508 L17,6.32936508 C16.7845567,1.96428571 14.520146,0 10.2338393,0 L0,0 L3.71519864,1.51693783 C1.85523762,2.99153439 0.840130215,5.73462302 0.249846562,9.77872354 C0.133383097,10.5969577 0.0602761881,11.2037037 0.0252384507,12.2222222 L3.83088662,12.2222222 C3.87819109,11.2037037 3.95545741,10.7658862 4.06719748,10.0268783" id="Fill-13" fill="url(#linearGradient-2)"></path>
        </g>
    </g>
</svg>