<?xml version="1.0" encoding="UTF-8"?>
<svg width="22px" height="22px" viewBox="0 0 22 22" version="1.1" xmlns="http://www.w3.org/2000/svg" xmlns:xlink="http://www.w3.org/1999/xlink">
    <!-- Generator: Sketch 53.2 (72643) - https://sketchapp.com -->
    <title>icon/leadership/gray</title>
    <desc>Created with Sketch.</desc>
    <defs>
        <linearGradient x1="26.0838084%" y1="50%" x2="77.3574727%" y2="100%" id="linearGradient-1">
            <stop stop-color="#697DA3" stop-opacity="0.5" offset="0%"></stop>
            <stop stop-color="#697DA3" offset="100%"></stop>
        </linearGradient>
    </defs>
    <g id="icon/leadership/gray" stroke="none" stroke-width="1" fill="none" fill-rule="evenodd">
        <path d="M10.9999452,17.3135005 L6.33410473,19.9012095 C5.95335482,20.1123761 5.47407366,19.9738851 5.26360029,19.591881 C5.17811831,19.4367333 5.14710849,19.2572566 5.1755544,19.0822946 L6.0766337,13.5400365 L2.22390825,9.57828511 C1.92008984,9.26586913 1.92622805,8.76550118 2.23761833,8.46068202 C2.35536815,8.34541702 2.50613239,8.27003132 2.66875644,8.24510273 L7.95717137,7.43444334 L10.2868594,2.45470512 C10.4717115,2.05958146 10.9408231,1.88961626 11.3346495,2.0750772 C11.5010648,2.1534456 11.63492,2.28774164 11.7130311,2.45470512 L14.0427191,7.43444334 L19.3311341,8.24510273 C19.7611946,8.31102657 20.0565612,8.71424973 19.9908538,9.14572686 C19.966007,9.30888658 19.8908688,9.46014743 19.7759823,9.57828511 L15.9232568,13.5400365 L16.8243361,19.0822946 C16.8943755,19.5130853 16.6030754,19.9192753 16.1736991,19.9895454 C15.9993116,20.018085 15.8204241,19.986973 15.6657858,19.9012095" id="Star-2-Copy" fill="url(#linearGradient-1)" fill-rule="nonzero"></path>
    </g>
</svg>