<?xml version="1.0" encoding="UTF-8"?>
<svg width="44px" height="44px" viewBox="0 0 44 44" version="1.1" xmlns="http://www.w3.org/2000/svg" xmlns:xlink="http://www.w3.org/1999/xlink">
    <!-- Generator: Sketch 41.2 (35397) - http://www.bohemiancoding.com/sketch -->
    <title>linkedin</title>
    <desc>Created with Sketch.</desc>
    <defs>
        <circle id="path-1" cx="19" cy="19" r="19"></circle>
        <filter x="-50%" y="-50%" width="200%" height="200%" filterUnits="objectBoundingBox" id="filter-2">
            <feOffset dx="1" dy="2" in="SourceAlpha" result="shadowOffsetOuter1"></feOffset>
            <feGaussianBlur stdDeviation="1.5" in="shadowOffsetOuter1" result="shadowBlurOuter1"></feGaussianBlur>
            <feColorMatrix values="0 0 0 0 0   0 0 0 0 0   0 0 0 0 0  0 0 0 0.103119339 0" type="matrix" in="shadowBlurOuter1"></feColorMatrix>
        </filter>
        <linearGradient x1="0%" y1="0%" x2="85.1561377%" y2="100%" id="linearGradient-3">
            <stop stop-color="#57636C" stop-opacity="0.665562726" offset="0%"></stop>
            <stop stop-color="#344F63" offset="100%"></stop>
        </linearGradient>
    </defs>
    <g id="Page-1" stroke="none" stroke-width="1" fill="none" fill-rule="evenodd">
        <g id="Java-Monitoring" transform="translate(-1400.000000, -4010.000000)">
            <g id="footer" transform="translate(0.000000, 3936.000000)">
                <g id="linkedin" transform="translate(1402.000000, 75.000000)">
                    <g id="Oval-Copy">
                        <use fill="black" fill-opacity="1" filter="url(#filter-2)" xlink:href="#path-1"></use>
                        <use fill="#FFFFFF" fill-rule="evenodd" xlink:href="#path-1"></use>
                    </g>
                    <path d="M9.25466187,26.9075502 L13.5411784,26.9075502 L13.5411784,14.1498071 L9.25466187,14.1498071 L9.25466187,26.9075502 Z M11.4264347,8 C9.95957644,8 9,8.95184615 9,10.2038608 C9,11.4283089 9.93171824,12.4090342 11.3695514,12.4090342 L11.3982848,12.4090342 C12.8935846,12.4090342 13.8235526,11.4284547 13.8235526,10.2038608 C13.7954027,8.95184615 12.8935846,8 11.4264347,8 L11.4264347,8 Z M29,19.5922201 L29,26.9075502 L24.7134835,26.9075502 L24.7134835,20.0821452 C24.7134835,18.3676261 24.0934562,17.1974359 22.5417107,17.1974359 C21.3572267,17.1974359 20.6523122,17.985925 20.3422256,18.7487438 C20.2291884,19.0214917 20.2001634,19.4011508 20.2001634,19.7828519 L20.2001634,26.9075502 L15.9120425,26.9075502 C15.9120425,26.9075502 15.9698008,15.347418 15.9120425,14.1498071 L20.1997258,14.1498071 L20.1997258,15.9581106 C20.1909745,15.9716751 20.1797437,15.9862605 20.17143,15.9993874 L20.1997258,15.9993874 L20.1997258,15.9581106 C20.7692874,15.0901308 21.7867681,13.8500762 24.0638478,13.8500762 C26.8849646,13.8500762 29,15.6735486 29,19.5922201 L29,19.5922201 Z" id="Page-1" fill="url(#linearGradient-3)" fill-rule="evenodd"></path>
                </g>
            </g>
        </g>
    </g>
</svg>