<?xml version="1.0" encoding="UTF-8"?>
<svg width="22px" height="22px" viewBox="0 0 22 22" version="1.1" xmlns="http://www.w3.org/2000/svg" xmlns:xlink="http://www.w3.org/1999/xlink">
    <!-- Generator: Sketch 53.2 (72643) - https://sketchapp.com -->
    <title>icon/prevent/color</title>
    <desc>Created with Sketch.</desc>
    <defs>
        <linearGradient x1="84.1528407%" y1="87.8712072%" x2="20.1456274%" y2="13.940366%" id="linearGradient-1">
            <stop stop-color="#E8416A" offset="0%"></stop>
            <stop stop-color="#FF7266" offset="100%"></stop>
        </linearGradient>
    </defs>
    <g id="icon/prevent/color" stroke="none" stroke-width="1" fill="none" fill-rule="evenodd">
        <path d="M14.047951,16.1692714 L5.83072864,7.95204898 C5.30289409,8.84531886 5,9.88728708 5,11 C5,14.3137085 7.6862915,17 11,17 C12.1127129,17 13.1546811,16.6971059 14.047951,16.1692714 Z M16.1692714,14.047951 C16.6971059,13.1546811 17,12.1127129 17,11 C17,7.6862915 14.3137085,5 11,5 C9.88728708,5 8.84531886,5.30289409 7.95204898,5.83072864 L16.1692714,14.047951 Z M11,20 C6.02943725,20 2,15.9705627 2,11 C2,6.02943725 6.02943725,2 11,2 C15.9705627,2 20,6.02943725 20,11 C20,15.9705627 15.9705627,20 11,20 Z" id="icon/prevent/gray" fill="url(#linearGradient-1)" fill-rule="nonzero"></path>
    </g>
</svg>