<?xml version="1.0" encoding="UTF-8"?>
<svg width="22px" height="22px" viewBox="0 0 22 22" version="1.1" xmlns="http://www.w3.org/2000/svg" xmlns:xlink="http://www.w3.org/1999/xlink">
    <!-- Generator: Sketch 53.2 (72643) - https://sketchapp.com -->
    <title>icon/qa/color</title>
    <desc>Created with Sketch.</desc>
    <defs>
        <linearGradient x1="90.5209287%" y1="99.8152996%" x2="13.962455%" y2="10.5309396%" id="linearGradient-1">
            <stop stop-color="#E8416A" offset="0%"></stop>
            <stop stop-color="#FF7266" offset="100%"></stop>
        </linearGradient>
    </defs>
    <g id="icon/qa/color" stroke="none" stroke-width="1" fill="none" fill-rule="evenodd">
        <path d="M12.6360848,14.7574052 C11.4504353,15.5426849 10.0286235,16 8.5,16 C4.35786438,16 1,12.6421356 1,8.5 C1,4.35786438 4.35786438,1 8.5,1 C12.6421356,1 16,4.35786438 16,8.5 C16,10.0286235 15.5426849,11.4504353 14.7574052,12.6360848 L20.3852355,18.2639151 C20.6692531,18.5479328 20.6692531,19.0084164 20.3852355,19.2924341 L19.3542852,20.3233843 C19.0361081,20.6415614 18.5202411,20.6415614 18.202064,20.3233843 L12.6360848,14.7574052 Z M8.5,13 C10.9852814,13 13,10.9852814 13,8.5 C13,6.01471863 10.9852814,4 8.5,4 C6.01471863,4 4,6.01471863 4,8.5 C4,10.9852814 6.01471863,13 8.5,13 Z M9,12 C6.790861,12 5,10.209139 5,8 C5,7.44771525 5.44771525,7 6,7 C6.55228475,7 7,7.44771525 7,8 C7,9.1045695 7.8954305,10 9,10 C9.55228475,10 10,10.4477153 10,11 C10,11.5522847 9.55228475,12 9,12 Z" id="Combined-Shape" fill="url(#linearGradient-1)" fill-rule="nonzero"></path>
    </g>
</svg>