<?xml version="1.0" encoding="UTF-8"?>
<svg width="22px" height="22px" viewBox="0 0 22 22" version="1.1" xmlns="http://www.w3.org/2000/svg" xmlns:xlink="http://www.w3.org/1999/xlink">
    <!-- Generator: Sketch 53.2 (72643) - https://sketchapp.com -->
    <title>icon/qa/gray</title>
    <desc>Created with Sketch.</desc>
    <defs>
        <linearGradient x1="0%" y1="50%" x2="81.4749407%" y2="50%" id="linearGradient-1">
            <stop stop-color="#697DA3" stop-opacity="0.5" offset="0%"></stop>
            <stop stop-color="#697DA3" offset="100%"></stop>
        </linearGradient>
    </defs>
    <g id="icon/qa/gray" stroke="none" stroke-width="1" fill="none" fill-rule="evenodd">
        <g transform="translate(1.000000, 1.000000)" fill="url(#linearGradient-1)" fill-rule="nonzero" id="Combined-Shape">
            <path d="M11.6360848,13.7574052 C10.4504353,14.5426849 9.0286235,15 7.5,15 C3.35786438,15 0,11.6421356 0,7.5 C0,3.35786438 3.35786438,0 7.5,0 C11.6421356,0 15,3.35786438 15,7.5 C15,9.0286235 14.5426849,10.4504353 13.7574052,11.6360848 L19.3852355,17.2639151 C19.6692531,17.5479328 19.6692531,18.0084164 19.3852355,18.2924341 L18.3542852,19.3233843 C18.0361081,19.6415614 17.5202411,19.6415614 17.202064,19.3233843 L11.6360848,13.7574052 Z M7.5,12 C9.98528137,12 12,9.98528137 12,7.5 C12,5.01471863 9.98528137,3 7.5,3 C5.01471863,3 3,5.01471863 3,7.5 C3,9.98528137 5.01471863,12 7.5,12 Z M8,11 C5.790861,11 4,9.209139 4,7 C4,6.44771525 4.44771525,6 5,6 C5.55228475,6 6,6.44771525 6,7 C6,8.1045695 6.8954305,9 8,9 C8.55228475,9 9,9.44771525 9,10 C9,10.5522847 8.55228475,11 8,11 Z"></path>
        </g>
    </g>
</svg>