<?xml version="1.0" encoding="UTF-8"?>
<svg width="24px" height="24px" viewBox="0 0 24 24" version="1.1" xmlns="http://www.w3.org/2000/svg" xmlns:xlink="http://www.w3.org/1999/xlink">
    <!-- Generator: Sketch 57.1 (83088) - https://sketch.com -->
    <title>icon/security-reg</title>
    <desc>Created with Sketch.</desc>
    <defs>
        <linearGradient x1="26.0829695%" y1="5.1119426%" x2="82%" y2="100%" id="linearGradient-1">
            <stop stop-color="#697DA3" stop-opacity="0.5" offset="0%"></stop>
            <stop stop-color="#697DA3" offset="100%"></stop>
        </linearGradient>
    </defs>
    <g id="icon/security-reg" stroke="none" stroke-width="1" fill="none" fill-rule="evenodd">
        <path d="M20,19 L20,20 C20,21.1045695 19.1045695,22 18,22 L6,22 C4.8954305,22 4,21.1045695 4,20 L4,19 L20,19 Z M12,2 C14.7614237,2 17,4.23857625 17,7 L17,9 L18,9 C19.1045695,9 20,9.8954305 20,11 L20,17 L4,17 L4,11 C4,9.8954305 4.8954305,9 6,9 L7,9 L7,7 C7,4.23857625 9.23857625,2 12,2 Z M12,5 C10.8954305,5 10,5.8954305 10,7 L10,9 L14,9 L14,7 C14,5.8954305 13.1045695,5 12,5 Z" id="Combined-Shape" fill="url(#linearGradient-1)"></path>
    </g>
</svg>