<?xml version="1.0" encoding="UTF-8"?>
<svg width="22px" height="22px" viewBox="0 0 22 22" version="1.1" xmlns="http://www.w3.org/2000/svg" xmlns:xlink="http://www.w3.org/1999/xlink">
    <!-- Generator: Sketch 53.2 (72643) - https://sketchapp.com -->
    <title>icon/webinar</title>
    <desc>Created with Sketch.</desc>
    <defs>
        <linearGradient x1="100%" y1="82%" x2="5.5293257%" y2="20.451456%" id="linearGradient-1">
            <stop stop-color="#0078FA" offset="0%"></stop>
            <stop stop-color="#9BD9E1" stop-opacity="0.5" offset="100%"></stop>
        </linearGradient>
    </defs>
    <g id="icon/webinar" stroke="none" stroke-width="1" fill="none" fill-rule="evenodd">
        <path d="M4,3 L18,3 C19.1045695,3 20,3.8954305 20,5 L20,15 L2,15 L2,5 C2,3.8954305 2.8954305,3 4,3 Z M1,16 L21,16 L21,17 C21,18.1045695 20.1045695,19 19,19 L3,19 C1.8954305,19 1,18.1045695 1,17 L1,16 Z M13.616095,9.13812327 C13.7532609,9.06917796 13.8645641,8.95787477 13.9335094,8.82070886 C14.1106748,8.46824032 13.9685635,8.03888717 13.616095,7.86172176 L10.0350721,6.06175014 C9.93553929,6.01172082 9.82568457,5.98566518 9.71428571,5.98566518 C9.31979661,5.98566518 9,6.30546179 9,6.6999509 L9,10.2998941 C9,10.411293 9.02605563,10.5211477 9.07608496,10.6206805 C9.25325036,10.973149 9.68260351,11.1152603 10.0350721,10.9380949 L13.616095,9.13812327 Z" fill="url(#linearGradient-1)"></path>
    </g>
</svg>