<?xml version="1.0" encoding="UTF-8"?>
<svg width="22px" height="22px" viewBox="0 0 22 22" version="1.1" xmlns="http://www.w3.org/2000/svg" xmlns:xlink="http://www.w3.org/1999/xlink">
    <!-- Generator: Sketch 53.2 (72643) - https://sketchapp.com -->
    <title>icon/whitepapaer</title>
    <desc>Created with Sketch.</desc>
    <defs>
        <linearGradient x1="78.125%" y1="100%" x2="24.9852457%" y2="3.83040007%" id="linearGradient-1">
            <stop stop-color="#0078FA" offset="0%"></stop>
            <stop stop-color="#9BD9E1" stop-opacity="0.5" offset="100%"></stop>
        </linearGradient>
        <linearGradient x1="94.7203765%" y1="97.1291139%" x2="4.89449229%" y2="3.16632963%" id="linearGradient-2">
            <stop stop-color="#0078FA" offset="0%"></stop>
            <stop stop-color="#9BD9E1" stop-opacity="0.6" offset="97.4801301%"></stop>
        </linearGradient>
    </defs>
    <g id="icon/whitepapaer" stroke="none" stroke-width="1" fill="none" fill-rule="evenodd">
        <g transform="translate(4.000000, 1.000000)">
            <path d="M0,19.2857143 L0,5.01064126 L5.05104956,6.49718374e-13 L14.2857143,-1.11022302e-16 C14.6802034,-2.47098586e-14 15,0.319796607 15,0.714285714 L15,19.2857143 C15,19.6802034 14.6802034,20 14.2857143,20 L0.714285714,20 C0.319796607,20 4.83109822e-17,19.6802034 0,19.2857143 Z" id="Combined-Shape" fill="url(#linearGradient-1)" fill-rule="nonzero"></path>
            <path d="M0,5 L5,0 L5,4.28571429 C5,4.68020339 4.68020339,5 4.28571429,5 L0,5 Z" id="Path-12" fill="url(#linearGradient-2)" fill-rule="nonzero"></path>
            <rect id="Rectangle" fill="#FFFFFF" x="2" y="7" width="11" height="2" rx="1"></rect>
        </g>
        <rect id="Rectangle-Copy" fill="#FFFFFF" x="6" y="12" width="11" height="2" rx="1"></rect>
        <rect id="Rectangle-Copy-2" fill="#FFFFFF" x="6" y="16" width="8" height="2" rx="1"></rect>
    </g>
</svg>