<svg id="Layer_1" data-name="Layer 1" xmlns="http://www.w3.org/2000/svg" viewBox="0 0 50 50"><defs><style>.cls-1,.cls-2{fill:none;stroke-linecap:round;stroke-miterlimit:10;}.cls-1{stroke:#758491;stroke-width:0.75px;fill-rule:evenodd;}.cls-2{stroke:#515050;}</style></defs><title>Integration</title><path class="cls-1" d="M20.819,16.83a13.211,13.211,0,0,0-.323,3.026l-1.818,1.253a.773.773,0,0,0-.315.794l.4,1.942a.771.771,0,0,0,.6.6l2.163.43a13.136,13.136,0,0,0,1.488,2.653l-.741,2.105a.783.783,0,0,0,.2.833l1.443,1.339a.75.75,0,0,0,.834.131l1.994-.946a12.86,12.86,0,0,0,2.728,1.266l-1.388-.547a12.9,12.9,0,0,0,1.4.55l.622,2.155a.766.766,0,0,0,.646.553l1.937.223a.75.75,0,0,0,.746-.392L34.5,32.841a12.658,12.658,0,0,0,2.928-.61l1.746,1.379a.749.749,0,0,0,.841.063L41.7,32.7a.771.771,0,0,0,.375-.765l-.28-2.224A12.791,12.791,0,0,0,43.8,27.459l2.2.076a.75.75,0,0,0,.714-.452l.8-1.8a.784.784,0,0,0-.141-.846L45.864,22.8a13.207,13.207,0,0,0,.321-3.028L48,18.513a.775.775,0,0,0,.314-.794l-.4-1.942a.769.769,0,0,0-.6-.6l-2.167-.428a13.231,13.231,0,0,0-1.488-2.65l.74-2.107a.783.783,0,0,0-.206-.832L42.748,7.819a.75.75,0,0,0-.834-.13l-1.992.947a13.156,13.156,0,0,0-1.329-.711,12.975,12.975,0,0,0-1.4-.549L36.57,5.22a.767.767,0,0,0-.646-.553l-1.937-.223a.75.75,0,0,0-.746.392L32.183,6.8a12.65,12.65,0,0,0-2.927.61L27.509,6.028a.749.749,0,0,0-.841-.063l-1.689.977a.772.772,0,0,0-.375.766l.281,2.223a12.787,12.787,0,0,0-2.008,2.248l-2.2-.076a.755.755,0,0,0-.714.452l-.8,1.8a.784.784,0,0,0,.141.846l1.511,1.638a13.152,13.152,0,0,0-.321,3.028"/><path class="cls-1" d="M21.74,33.984,20.23,33.5a8.327,8.327,0,0,0-1.281-2.85l.639-1.451a.382.382,0,0,0-.062-.405,10.072,10.072,0,0,0-1.239-1.169.38.38,0,0,0-.409-.038l-1.411.721a8.337,8.337,0,0,0-2.92-1.113l-.575-1.479a.375.375,0,0,0-.326-.24c-.282-.016-.567-.021-.855-.013s-.573.03-.853.063a.373.373,0,0,0-.312.259l-.488,1.51a8.327,8.327,0,0,0-2.85,1.28l-1.451-.638A.38.38,0,0,0,5.431,28a10,10,0,0,0-1.169,1.239.38.38,0,0,0-.038.408l.722,1.412a8.324,8.324,0,0,0-1.113,2.919l-1.479.575a.376.376,0,0,0-.241.327c-.016.282-.021.567-.012.855s.03.572.062.853a.377.377,0,0,0,.259.312l1.51.488a8.327,8.327,0,0,0,1.281,2.85l-.639,1.451a.382.382,0,0,0,.062.405,10.072,10.072,0,0,0,1.239,1.169.382.382,0,0,0,.409.039L7.7,42.575a8.337,8.337,0,0,0,2.92,1.113l.575,1.479a.375.375,0,0,0,.326.24c.282.016.567.021.855.013s.573-.03.853-.063a.373.373,0,0,0,.312-.258l.488-1.51a8.329,8.329,0,0,0,2.85-1.281l1.451.638a.38.38,0,0,0,.406-.062A10,10,0,0,0,19.9,41.645a.38.38,0,0,0,.038-.408l-.722-1.412a8.324,8.324,0,0,0,1.113-2.919l1.479-.575a.376.376,0,0,0,.241-.326c.016-.283.021-.568.012-.856s-.03-.572-.062-.853A.377.377,0,0,0,21.74,33.984Z"/><polyline class="cls-2" points="29.442 21.039 32.083 23.68 37.919 17.844"/><polyline class="cls-2" points="9.84 36.157 11.388 37.705 14.809 34.284"/></svg>