<svg xmlns="http://www.w3.org/2000/svg" width="25.533" height="25.43" viewBox="0 0 25.533 25.43">
  <g id="Community" transform="translate(-2.237 -2.224)">
    <path id="Path_3" data-name="Path 3" d="M24.876,27.194a4.068,4.068,0,0,0-.8-1.54c-.619-.684-2.045-1.412-5.5-2.66,0,0-1.3-.593-1.3-1.458l-.011-1.2a9.537,9.537,0,0,0,.961-2.344,2.017,2.017,0,0,0,1.282-1.513C19.882,15.073,19,14.64,19,14.64v-2.9c0-1.33-.279-2.217-1.49-2.217a2.783,2.783,0,0,0-2.3-.886c-1.529,0-2.22.886-3.658.886-.635,0-.654,1.057-.653,2.2v2.924s-.881.433-.507,1.839A2.017,2.017,0,0,0,11.675,18a9.557,9.557,0,0,0,.962,2.344v1.139c0,.865-1.3,1.458-1.3,1.458-3.458,1.248-4.884,1.977-5.5,2.66a4.066,4.066,0,0,0-.8,1.541" fill="none" stroke="#758491" stroke-linecap="round" stroke-miterlimit="10" stroke-width="0.75"/>
    <path id="Path_4" data-name="Path 4" d="M9.452,11.18a5.081,5.081,0,0,0-.633-.037H8.24a2.408,2.408,0,0,0-1.939.646c-.891,0-.9.646-.9,1.616v2.116A1.264,1.264,0,0,0,4.955,16.6a1.5,1.5,0,0,0,1.064,1.365,3.123,3.123,0,0,0,1.137,2.222v.632c0,.63-.024.813-.852,1.109a27.428,27.428,0,0,0-3.565,1.449" fill="none" stroke="#758491" stroke-linecap="round" stroke-miterlimit="10" stroke-width="0.75"/>
    <path id="Path_5" data-name="Path 5" d="M10.767,21.812c-.414-.216-.435-.434-.435-.931v-.83" fill="none" stroke="#758491" stroke-linecap="round" stroke-miterlimit="10" stroke-width="0.75"/>
    <path id="Path_6" data-name="Path 6" d="M19.081,20.208c.269.064.942.193,1.253.23v.443c0,.53-.023.743-.521.974" fill="none" stroke="#758491" stroke-linecap="round" stroke-miterlimit="10" stroke-width="0.75"/>
    <path id="Path_7" data-name="Path 7" d="M27.261,23.108a14.1,14.1,0,0,0-2.67-1.119c-.828-.3-.851-.479-.851-1.108v-.443a7.3,7.3,0,0,0,2.9-.955s-1.226-1.194-1.226-4.084a3.608,3.608,0,0,0-3.372-3.877,3.563,3.563,0,0,0-1.874.46" fill="none" stroke="#758491" stroke-linecap="round" stroke-miterlimit="10" stroke-width="0.75"/>
    <path id="Path_8" data-name="Path 8" d="M13.073,4.468l1.271,1.271,2.809-2.808" fill="none" stroke="#515050" stroke-linecap="round" stroke-miterlimit="10" stroke-width="1"/>
    <path id="Path_9" data-name="Path 9" d="M20.816,4.468l1.271,1.271L24.9,2.931" fill="none" stroke="#515050" stroke-linecap="round" stroke-miterlimit="10" stroke-width="1"/>
    <path id="Path_10" data-name="Path 10" d="M4.978,4.468,6.249,5.739,9.058,2.931" fill="none" stroke="#515050" stroke-linecap="round" stroke-miterlimit="10" stroke-width="1"/>
  </g>
</svg>
