<svg id="Layer_1" data-name="Layer 1" xmlns="http://www.w3.org/2000/svg" viewBox="0 0 30 30"><defs><style>.cls-1{fill:none;stroke:#eff0f0;stroke-miterlimit:10;stroke-width:0.75px;}.cls-2{fill:#ff730b;}</style></defs><title>SB_NAV_Icons</title><path class="cls-1" d="M20.1,22.772H9.491c-2.44,0-4.672,1.127-5.347,3.471l.087-.662V11.554A5.751,5.751,0,0,1,9.982,5.8H20.1a5.751,5.751,0,0,1,5.751,5.751v5.467A5.751,5.751,0,0,1,20.1,22.772Z"/><path class="cls-2" d="M15.479,15.993H14.111l-.242.747h1.852Zm3.667.747-.717-2.208.463-1.426-1.723-1.252-1.214.882h-2.32l-1.214-.882L10.7,13.106l.463,1.426-.717,2.208h2.263l-.176-.542L14.8,14.554,17.058,16.2l-.175.542Zm-5.035-.747-.242.747h1.852l-.242-.747Zm1.368,0H14.111l-.242.747h1.852Z"/></svg>