<svg xmlns="http://www.w3.org/2000/svg" width="30" height="30" viewBox="0 0 30 30">
  <defs>
    <style>
      .a, .b, .c, .d {
        fill: none;
        stroke-linecap: round;
        stroke-miterlimit: 10;
      }

      .a, .d {
        stroke: #758491;
      }

      .a, .c, .d {
        stroke-width: 0.75px;
      }

      .b, .c {
        stroke: #515050;
      }

      .d {
        opacity: 0.6;
      }
    </style>
  </defs>
  <title>SB_NAV</title>
  <g>
    <g>
      <path class="a" d="M4.433,5.855v17.8a2.929,2.929,0,0,0,2.929,2.929H18.5"/>
      <path class="b" d="M28.669,21.134l-7-5.687,0-.007,0,0v0l0,0v.005l0,.007-.014,9.02,2.089-1.682,1.421,2.994,1.153-.548.007,0,1.154-.548-1.424-2.992Z"/>
      <g>
        <line class="c" x1="18.162" y1="14.598" x2="10.435" y2="14.541"/>
        <line class="c" x1="16.937" y1="17.082" x2="10.476" y2="17.082"/>
      </g>
    </g>
    <path class="a" d="M25.486,14.934,25.5,9.967A2.755,2.755,0,0,0,22.742,7.2H6.51a2.125,2.125,0,0,1-2.119-2.12h0A2.125,2.125,0,0,1,6.51,2.964H21.571a2.671,2.671,0,0,1,2.67,2.648l0,.406"/>
    <line class="d" x1="6.96" y1="5.186" x2="21.415" y2="5.186"/>
  </g>
</svg>
