<?xml version="1.0" encoding="utf-8"?>
<!-- Generator: Adobe Illustrator 23.0.2, SVG Export Plug-In . SVG Version: 6.00 Build 0)  -->
<svg version="1.1" id="Layer_1" xmlns="http://www.w3.org/2000/svg" xmlns:xlink="http://www.w3.org/1999/xlink" x="0px" y="0px"
	 viewBox="0 0 30 30" style="enable-background:new 0 0 30 30;" xml:space="preserve">
<style type="text/css">
	.st0{fill:none;stroke:#EFF0F0;stroke-width:0.75;stroke-linecap:round;stroke-miterlimit:10;}
	.st1{opacity:0.6;fill:none;stroke:#758491;stroke-width:0.75;stroke-linecap:round;stroke-miterlimit:10;}
	.st2{fill:none;stroke:#FF730B;stroke-linecap:round;stroke-miterlimit:10;}
</style>
<g>
	<g>
		<path class="st0" d="M15.278,27.456c-0.567,0.33-1.296,0.29-1.828-0.14l-6.52-5.271H5.047"/>
		<path class="st0" d="M13.296,23.798l3.336,2.775c0.576,0.479,1.423,0.441,1.953-0.09l0,0"/>
		<path class="st0" d="M15.249,21.962l3.771,3.193c0.571,0.483,1.417,0.448,1.946-0.081h0"/>
		<path class="st0" d="M17.039,20.009l4.181,3.576c0.58,0.496,1.444,0.463,1.984-0.077h0"/>
		<path class="st0" d="M25.846,21.951h-2.168l-8.138-6.754l-1.111,1.084c-1.247,1.216-3.228,1.241-4.504,0.056l0,0l4.39-4.517
			c0.688-0.708,1.809-0.759,2.558-0.115l2.572,2.154h6.704"/>
		<line class="st0" x1="10.516" y1="13.295" x2="3.763" y2="13.295"/>
	</g>
	<path class="st1" d="M19.336,5.53c1.861,1.023,3.342,2.651,4.179,4.62"/>
	<path class="st1" d="M10.018,5.629c-1.782,1.029-3.198,2.62-4.008,4.531"/>
	<polyline class="st2" points="13.232,4.154 14.582,5.504 17.565,2.521 	"/>
</g>
</svg>
