<svg xmlns="http://www.w3.org/2000/svg" viewBox="0 0 166.622 17.907">
  <defs>
    <style>
      .cls-1 {
        fill: #173647;
      }
    </style>
  </defs>
  <g id="Group_136" data-name="Group 136" transform="translate(0 0)">
    <path id="Path_102" data-name="Path 102" class="cls-1" d="M169.04,29.521s-3.528-.417-5.008-.417c-2.124,0-3.225.759-3.225,2.238,0,1.631.91,2.011,3.87,2.807,3.642,1.024,4.97,1.973,4.97,4.932,0,3.794-2.39,5.425-5.8,5.425a36.866,36.866,0,0,1-5.653-.683l.266-2.238s3.414.455,5.2.455c2.162,0,3.149-.948,3.149-2.769,0-1.48-.8-1.973-3.452-2.618-3.756-.948-5.349-2.087-5.349-5.122,0-3.49,2.314-4.932,5.766-4.932a38.642,38.642,0,0,1,5.5.607Z" transform="translate(-158 -26.6)"/>
    <path id="Path_103" data-name="Path 103" class="cls-1" d="M206.5,27.5h4.894l3.87,13.544,3.87-13.544h4.894V44.837h-2.845V29.852h-.152l-4.325,14.265h-2.921l-4.325-14.265h-.152V44.837H206.5Z" transform="translate(-188.1 -27.159)"/>
    <path id="Path_104" data-name="Path 104" class="cls-1" d="M367.4,27.5h12.671V30h-4.894V44.837h-2.845V30H367.4Z" transform="translate(-287.959 -27.159)"/>
    <path id="Path_105" data-name="Path 105" class="cls-1" d="M422.2,27.5c3.452,0,5.273,1.29,5.273,4.515,0,2.087-.645,3.149-2.049,3.908,1.48.569,2.466,1.631,2.466,4.021,0,3.528-2.162,4.894-5.5,4.894H415.6V27.5Zm-3.756,2.428V34.9h3.718c1.707,0,2.466-.873,2.466-2.542s-.873-2.39-2.58-2.39h-3.6Zm0,7.322v5.122h3.832c1.745,0,2.769-.569,2.769-2.618,0-1.973-1.48-2.5-2.845-2.5Z" transform="translate(-317.873 -27.159)"/>
    <path id="Path_106" data-name="Path 106" class="cls-1" d="M466.4,27.5h10.926v2.466h-8.119V34.86h6.6v2.39h-6.6v5.084h8.119V44.8H466.4Z" transform="translate(-349.401 -27.159)"/>
    <path id="Path_107" data-name="Path 107" class="cls-1" d="M514.849,27.5h5.577l4.287,17.337h-2.845l-1.29-5.084h-5.956l-1.214,5.084H510.6Zm.379,9.75h4.856L518.3,29.814h-1.252Z" transform="translate(-376.832 -27.159)"/>
    <path id="Path_108" data-name="Path 108" class="cls-1" d="M567.207,39.678V44.8H564.4V27.5h6.563c3.832,0,5.88,2.2,5.88,6.032,0,2.466-.986,4.666-2.845,5.539l2.845,5.767h-3.073l-2.5-5.122h-4.059Zm3.756-9.75h-3.756v7.36h3.832c2.124,0,2.921-1.9,2.921-3.718C573.96,31.6,573.012,29.928,570.963,29.928Z" transform="translate(-410.222 -27.159)"/>
    <path id="Path_109" data-name="Path 109" class="cls-1" d="M273.025,27.5H278.6l4.287,17.337h-2.845l-1.29-5.084H272.8l-1.29,5.084H268.7Zm.379,9.75h4.856l-1.783-7.436h-1.252Z" transform="translate(-226.703 -27.159)"/>
    <path id="Path_110" data-name="Path 110" class="cls-1" d="M325.507,39.678V44.8H322.7V27.5h6.563c3.832,0,5.88,2.2,5.88,6.032,0,2.466-.986,4.666-2.845,5.539l2.845,5.767h-3.073l-2.5-5.122h-4.059Zm3.794-9.75h-3.756v7.36h3.832c2.125,0,2.921-1.9,2.921-3.718C332.26,31.6,331.312,29.928,329.3,29.928Z" transform="translate(-260.217 -27.159)"/>
  </g>
</svg>
