<svg id="Layer_1" data-name="Layer 1" xmlns="http://www.w3.org/2000/svg" viewBox="0 0 341 65.6"><defs><style>.cls-1{fill:#173647;}</style></defs><title>SP_Wordmark-CLR</title><path class="cls-1" d="M30.5,58.9a12.09,12.09,0,0,1-4.6,10q-4.65,3.6-12.6,3.6c-5.8,0-10.2-.7-13.3-2.2V64.8a37.52,37.52,0,0,0,6.5,2,32.6,32.6,0,0,0,7,.7c3.8,0,6.6-.7,8.5-2.1a7,7,0,0,0,2.9-6,7.35,7.35,0,0,0-1-4.1,8.92,8.92,0,0,0-3.4-3,46,46,0,0,0-7.2-3.1c-4.5-1.6-7.7-3.5-9.7-5.7A12.42,12.42,0,0,1,.7,34.8a10.9,10.9,0,0,1,4.2-8.9c2.8-2.2,6.5-3.3,11.2-3.3a33.65,33.65,0,0,1,13.3,2.7l-1.8,4.9a29.62,29.62,0,0,0-11.7-2.5,11.59,11.59,0,0,0-7,1.9,6.3,6.3,0,0,0-2.5,5.3A8.22,8.22,0,0,0,7.3,39a8.91,8.91,0,0,0,3.1,3,41.3,41.3,0,0,0,6.8,3c5.1,1.8,8.6,3.8,10.5,5.8A11.19,11.19,0,0,1,30.5,58.9Z" transform="translate(0 -22.6)"/><path class="cls-1" d="M69.4,53.6c0,5.9-1.5,10.6-4.5,13.9s-7.1,5-12.4,5a16,16,0,0,1-8.7-2.3A14.3,14.3,0,0,1,38,63.6a24.58,24.58,0,0,1-2.1-10c0-5.9,1.5-10.6,4.4-13.9s7.1-5,12.4-5c5.1,0,9.1,1.7,12.1,5.1S69.4,47.8,69.4,53.6Zm-27.7,0c0,4.7.9,8.2,2.8,10.6s4.6,3.6,8.2,3.7,6.3-1.2,8.2-3.6,2.8-6,2.8-10.6-.9-8.1-2.8-10.5-4.6-3.6-8.3-3.6-6.3,1.2-8.2,3.5-2.7,5.8-2.7,10.5Z" transform="translate(0 -22.6)"/><path class="cls-1" d="M99.6,71.8l-1.1-5.2h-.3a16,16,0,0,1-5.4,4.6A15.52,15.52,0,0,1,86,72.4c-3.6,0-6.4-.9-8.5-2.8s-3.1-4.5-3.1-7.9c0-7.3,5.9-11.2,17.6-11.5l6.2-.2V47.7q0-4.35-1.8-6.3c-1.2-1.4-3.2-2-5.9-2a23.34,23.34,0,0,0-10.3,2.8L78.5,38a24.92,24.92,0,0,1,5.9-2.3,28,28,0,0,1,6.4-.8c4.3,0,7.6,1,9.6,2.9s3.1,5,3.2,9.3V71.9h-4ZM87.1,68c3.4,0,6.1-.9,8.1-2.8s2.9-4.5,2.9-7.9V54l-5.5.2c-4.4.2-7.5.8-9.5,2a6.14,6.14,0,0,0-2.9,5.6A6.1,6.1,0,0,0,82,66.4,8.57,8.57,0,0,0,87.1,68Z" transform="translate(0 -22.6)"/><path class="cls-1" d="M129.5,72.5a16.4,16.4,0,0,1-6.5-1.3,12.06,12.06,0,0,1-4.9-4h-.4a40.32,40.32,0,0,1,.4,6v15h-5.5V35.4h4.5l.8,5h.3a13.53,13.53,0,0,1,4.9-4.3,14.28,14.28,0,0,1,6.5-1.3,13.67,13.67,0,0,1,11.2,5c2.7,3.3,3.9,7.9,3.9,13.9s-1.3,10.6-4,13.9A13.89,13.89,0,0,1,129.5,72.5Zm-.8-33c-3.7,0-6.4,1-8.1,3.1s-2.5,5.3-2.6,9.8v1.2c0,5.1.9,8.8,2.6,11s4.4,3.3,8.2,3.3a8.59,8.59,0,0,0,7.4-3.8c1.8-2.5,2.7-6.1,2.7-10.5s-.9-8-2.7-10.4a8.34,8.34,0,0,0-7.5-3.7Z" transform="translate(0 -22.6)"/><path class="cls-1" d="M189.4,23.3V54.7c0,5.5-1.7,9.9-5,13s-7.9,4.7-13.8,4.8-10.4-1.6-13.6-4.8-4.8-7.6-4.8-13.2V23.3h5.6V55q0,6.15,3.3,9.3c2.2,2.2,5.5,3.2,9.8,3.2,4.1,0,7.2-1.1,9.5-3.3s3.3-5.3,3.3-9.4V23.3Z" transform="translate(0 -22.6)"/><path class="cls-1" d="M199.9,71.8V23.3h5.6V71.9h-5.6Z" transform="translate(0 -22.6)"/><path class="cls-1" d="M260.9,37.4c0,4.9-1.7,8.7-5,11.3s-8.1,4-14.4,4h-5.7V71.8h-5.6V23.3h12.6C254.8,23.3,260.9,28,260.9,37.4ZM235.8,47.9h5.1c5,0,8.6-.8,10.9-2.4s3.4-4.2,3.4-7.8c0-3.2-1-5.6-3.1-7.2s-5.4-2.4-9.8-2.4H236V47.9Z" transform="translate(0 -22.6)"/><path class="cls-1" d="M284,34.8a21.83,21.83,0,0,1,4.4.4l-.8,5.1a18.25,18.25,0,0,0-4-.5,9.53,9.53,0,0,0-7.5,3.6,13.26,13.26,0,0,0-3.1,8.9V71.8h-5.5V35.4H272l.6,6.7h.3a16.22,16.22,0,0,1,4.9-5.5A11.23,11.23,0,0,1,284,34.8Z" transform="translate(0 -22.6)"/><path class="cls-1" d="M324,53.6c0,5.9-1.5,10.6-4.5,13.9s-7.1,5-12.4,5a15.57,15.57,0,0,1-8.7-2.3,14.3,14.3,0,0,1-5.8-6.6,24.58,24.58,0,0,1-2.1-10c0-5.9,1.5-10.6,4.5-13.9s7.1-5,12.4-5c5.1,0,9.1,1.7,12.1,5.1S324,47.8,324,53.6Zm-27.7,0c0,4.7.9,8.2,2.8,10.6s4.6,3.6,8.2,3.7,6.3-1.2,8.2-3.6,2.8-6,2.8-10.6-.9-8.1-2.8-10.5-4.6-3.6-8.3-3.6-6.3,1.2-8.2,3.5-2.7,5.8-2.7,10.5Z" transform="translate(0 -22.6)"/><path class="cls-1" d="M334.3,72.4h-.7V68.7h-1.3v-.6h3.2v.6h-1.3v3.7Z" transform="translate(0 -22.6)"/><path class="cls-1" d="M338.4,72.4l-1.2-3.6h0v3.6h-.6V68.1h1l1.2,3.4h0l1.2-3.4h1v4.3h-.7V68.9h0L339,72.5C339,72.4,338.4,72.4,338.4,72.4Z" transform="translate(0 -22.6)"/></svg>