<?xml version="1.0" encoding="utf-8"?>
<!-- Generator: Adobe Illustrator 19.2.1, SVG Export Plug-In . SVG Version: 6.00 Build 0)  -->
<svg version="1.1" id="Layer_1" xmlns="http://www.w3.org/2000/svg" xmlns:xlink="http://www.w3.org/1999/xlink" x="0px" y="0px"
	 width="320px" height="180px" viewBox="0 0 320 180" enable-background="new 0 0 320 180" xml:space="preserve">
<g>
	<rect x="0.3" fill="#14DBD6" width="320.6" height="180"/>
</g>
<g>
	<path fill="#1E1E1E" d="M72.2,100.9V80.2c0-0.2-0.1-0.4-0.2-0.6c-0.2-0.2-0.3-0.2-0.6-0.2H31.7c-0.2,0-0.4,0.1-0.6,0.2
		c-0.2,0.2-0.2,0.3-0.2,0.6v20.7c0,0.2,0.1,0.4,0.2,0.6c0.2,0.2,0.3,0.2,0.6,0.2h39.7c0.2,0,0.4-0.1,0.6-0.2S72.2,101.1,72.2,100.9z
		 M75.4,80.2v27c0,1.1-0.4,2-1.2,2.8c-0.8,0.8-1.7,1.2-2.8,1.2H57.9c0,0.6,0.1,1.3,0.4,1.9c0.3,0.7,0.5,1.3,0.8,1.8s0.4,0.9,0.4,1.1
		c0,0.4-0.2,0.8-0.5,1.1c-0.3,0.3-0.7,0.5-1.1,0.5H45.2c-0.4,0-0.8-0.2-1.1-0.5s-0.5-0.7-0.5-1.1c0-0.2,0.1-0.6,0.4-1.1
		s0.5-1.1,0.8-1.7c0.3-0.7,0.4-1.3,0.4-1.9H31.7c-1.1,0-2-0.4-2.8-1.2c-0.8-0.8-1.2-1.7-1.2-2.8v-27c0-1.1,0.4-2,1.2-2.8
		c0.8-0.8,1.7-1.2,2.8-1.2h39.7c1.1,0,2,0.4,2.8,1.2C75,78.2,75.4,79.1,75.4,80.2z"/>
</g>
<g opacity="0.25">
	<path fill="#63FFFC" d="M307.6,106.2V49.6c0-0.6-0.2-1.1-0.6-1.5s-0.9-0.6-1.5-0.6h-109c-0.6,0-1.1,0.2-1.5,0.6
		c-0.4,0.4-0.6,0.9-0.6,1.5v56.6c0,0.6,0.2,1.1,0.6,1.5s0.9,0.6,1.5,0.6h108.9c0.6,0,1.1-0.2,1.5-0.6S307.6,106.8,307.6,106.2z
		 M316.3,49.6v74c0,3-1.1,5.6-3.2,7.7s-4.7,3.2-7.7,3.2h-37c0,1.7,0.4,3.4,1.1,5.3s1.5,3.4,2.2,4.8s1.1,2.4,1.1,3
		c0,1.2-0.4,2.2-1.3,3.1s-1.9,1.3-3.1,1.3h-34.8c-1.2,0-2.2-0.4-3.1-1.3c-0.9-0.9-1.3-1.9-1.3-3.1c0-0.6,0.4-1.6,1.1-3
		s1.5-2.9,2.2-4.8c0.7-1.8,1.1-3.6,1.1-5.3h-37c-3,0-5.6-1.1-7.7-3.2c-2.1-2.1-3.2-4.7-3.2-7.7v-74c0-3,1.1-5.6,3.2-7.7
		c2.1-2.1,4.7-3.2,7.7-3.2h108.9c3,0,5.6,1.1,7.7,3.2S316.3,46.6,316.3,49.6z"/>
</g>
<g>
	<path fill="#FFFFFF" d="M119.2,101.1l-4.6-17.8l-4.7,17.8h-4.5l-6.8-24h4.7l4.7,18.5l5-18.5h3.4l5,18.5l4.7-18.5h4.7l-6.9,24
		C123.9,101.1,119.2,101.1,119.2,101.1z"/>
	<path fill="#FFFFFF" d="M130.8,92.4c0-5,3.7-9.1,8.8-9.1c5.2,0,8.5,4,8.5,9.4v0.9h-13.4c0.3,2.6,2.2,4.8,5.5,4.8
		c1.7,0,3.7-0.7,5-1.9l1.7,2.5c-1.8,1.7-4.3,2.6-7.1,2.6C134.6,101.6,130.8,97.9,130.8,92.4z M139.6,86.4c-3.2,0-4.7,2.5-4.9,4.6
		h9.8C144.4,88.9,143,86.4,139.6,86.4z"/>
	<path fill="#FFFFFF" d="M151.9,101.1v-24h3.8v9c1.4-1.9,3.4-2.8,5.6-2.8c4.5,0,7.7,3.5,7.7,9.1c0,5.8-3.3,9.2-7.7,9.2
		c-2.2,0-4.3-1.1-5.6-2.8v2.4L151.9,101.1L151.9,101.1z M160.2,98.2c3,0,4.9-2.4,4.9-5.8s-1.9-5.8-4.9-5.8c-1.8,0-3.6,1-4.5,2.3v6.9
		C156.5,97.2,158.4,98.2,160.2,98.2z"/>
	<path fill="#FFFFFF" d="M172.4,79.3c0-1.3,1-2.3,2.3-2.3s2.3,1,2.3,2.3s-1,2.3-2.3,2.3C173.4,81.6,172.4,80.6,172.4,79.3z
		 M172.8,101.1V83.7h3.8v17.4H172.8z"/>
	<path fill="#FFFFFF" d="M193.3,101.1V90.2c0-2.7-1.4-3.6-3.5-3.6c-1.9,0-3.6,1.2-4.5,2.3v12.2h-3.8V83.7h3.8V86
		c1.2-1.4,3.4-2.8,6.2-2.8c3.7,0,5.6,2,5.6,5.6v12.3H193.3z"/>
	<path fill="#FFFFFF" d="M212.6,101.1v-1.9c-1.3,1.5-3.4,2.3-5.7,2.3c-2.8,0-6-1.9-6-5.8c0-4,3.2-5.7,6-5.7c2.4,0,4.4,0.8,5.7,2.2
		v-2.6c0-2-1.7-3.2-4.1-3.2c-1.9,0-3.7,0.7-5.2,2.2l-1.6-2.6c2-1.9,4.5-2.8,7.3-2.8c3.9,0,7.3,1.6,7.3,6.3v11.6H212.6z M212.6,97.2
		v-2.7c-0.9-1.2-2.5-1.8-4.1-1.8c-2.1,0-3.7,1.3-3.7,3.1c0,1.9,1.6,3.1,3.7,3.1C210.1,99,211.7,98.4,212.6,97.2z"/>
	<path fill="#FFFFFF" d="M221.3,101.1V83.7h3.8v2.5c1.3-1.7,3.4-3,5.7-3V87c-0.3-0.1-0.7-0.1-1.2-0.1c-1.6,0-3.7,1.1-4.5,2.3v11.9
		C225.1,101.1,221.3,101.1,221.3,101.1z"/>
</g>
<g opacity="0.53">
	<rect x="97" y="115.5" fill="#FFFFFF" width="227" height="2"/>
</g>
<g opacity="0.43">
	<path fill="#63FFFC" d="M294.7,161.9v-15.3c0-0.2-0.1-0.3-0.2-0.4c-0.1-0.1-0.3-0.2-0.4-0.2h-29.4c-0.2,0-0.3,0.1-0.4,0.2
		c-0.1,0.1-0.2,0.3-0.2,0.4v15.3c0,0.2,0.1,0.3,0.2,0.4c0.1,0.1,0.3,0.2,0.4,0.2h29.4c0.2,0,0.3-0.1,0.4-0.2S294.7,162,294.7,161.9z
		 M297,146.6v20c0,0.8-0.3,1.5-0.9,2.1s-1.3,0.9-2.1,0.9h-10c0,0.5,0.1,0.9,0.3,1.4c0.2,0.5,0.4,0.9,0.6,1.3s0.3,0.6,0.3,0.8
		c0,0.3-0.1,0.6-0.3,0.8s-0.5,0.3-0.8,0.3h-9.4c-0.3,0-0.6-0.1-0.8-0.3s-0.3-0.5-0.3-0.8c0-0.2,0.1-0.4,0.3-0.8
		c0.2-0.4,0.4-0.8,0.6-1.3s0.3-1,0.3-1.4h-10c-0.8,0-1.5-0.3-2.1-0.9c-0.6-0.6-0.9-1.3-0.9-2.1v-20c0-0.8,0.3-1.5,0.9-2.1
		s1.3-0.9,2.1-0.9h29.4c0.8,0,1.5,0.3,2.1,0.9C296.7,145.1,297,145.8,297,146.6z"/>
</g>
<g opacity="0.43">
	<path fill="#63FFFC" d="M219,151.7v-9.5c0-0.1,0-0.2-0.1-0.3s-0.2-0.1-0.3-0.1h-18.4c-0.1,0-0.2,0-0.3,0.1s-0.1,0.2-0.1,0.3v9.5
		c0,0.1,0,0.2,0.1,0.3s0.2,0.1,0.3,0.1h18.4c0.1,0,0.2,0,0.3-0.1S219,151.8,219,151.7z M220.5,142.1v12.5c0,0.5-0.2,0.9-0.5,1.3
		c-0.4,0.4-0.8,0.5-1.3,0.5h-6.2c0,0.3,0.1,0.6,0.2,0.9c0.1,0.3,0.2,0.6,0.4,0.8c0.1,0.2,0.2,0.4,0.2,0.5c0,0.2-0.1,0.4-0.2,0.5
		s-0.3,0.2-0.5,0.2h-5.9c-0.2,0-0.4-0.1-0.5-0.2s-0.2-0.3-0.2-0.5c0-0.1,0.1-0.3,0.2-0.5c0.1-0.2,0.2-0.5,0.4-0.8
		c0.1-0.3,0.2-0.6,0.2-0.9h-6.2c-0.5,0-0.9-0.2-1.3-0.5c-0.4-0.4-0.5-0.8-0.5-1.3v-12.5c0-0.5,0.2-0.9,0.5-1.3
		c0.4-0.4,0.8-0.5,1.3-0.5H219c0.5,0,0.9,0.2,1.3,0.5C220.3,141.2,220.5,141.6,220.5,142.1z"/>
</g>
<g opacity="0.43">
	<path fill="#63FFFC" d="M156.8,133.5v-5.8c0-0.1,0-0.1-0.1-0.2c0,0-0.1-0.1-0.2-0.1h-11.1c-0.1,0-0.1,0-0.2,0.1
		c0,0-0.1,0.1-0.1,0.2v5.8c0,0.1,0,0.1,0.1,0.2c0,0,0.1,0.1,0.2,0.1h11.1c0.1,0,0.1,0,0.2-0.1C156.8,133.6,156.8,133.6,156.8,133.5z
		 M157.7,127.7v7.6c0,0.3-0.1,0.6-0.3,0.8s-0.5,0.3-0.8,0.3h-3.8c0,0.2,0,0.4,0.1,0.5s0.1,0.4,0.2,0.5c0.1,0.1,0.1,0.2,0.1,0.3
		s0,0.2-0.1,0.3s-0.2,0.1-0.3,0.1h-3.6c-0.1,0-0.2,0-0.3-0.1s-0.1-0.2-0.1-0.3s0-0.2,0.1-0.3s0.1-0.3,0.2-0.5
		c0.1-0.2,0.1-0.4,0.1-0.5h-3.8c-0.3,0-0.6-0.1-0.8-0.3s-0.3-0.5-0.3-0.8v-7.6c0-0.3,0.1-0.6,0.3-0.8c0.2-0.2,0.5-0.3,0.8-0.3h11.1
		c0.3,0,0.6,0.1,0.8,0.3C157.6,127.2,157.7,127.4,157.7,127.7z"/>
</g>
<g opacity="0.43">
	<path fill="#63FFFC" d="M309.8,86.7V75.8c0-0.1,0-0.2-0.1-0.3c-0.1-0.1-0.2-0.1-0.3-0.1h-21.1c-0.1,0-0.2,0-0.3,0.1
		c-0.1,0.1-0.1,0.2-0.1,0.3v10.9c0,0.1,0,0.2,0.1,0.3c0.1,0.1,0.2,0.1,0.3,0.1h21.1c0.1,0,0.2,0,0.3-0.1
		C309.7,86.9,309.8,86.8,309.8,86.7z M311.5,75.8v14.3c0,0.6-0.2,1.1-0.6,1.5s-0.9,0.6-1.5,0.6h-7.2c0,0.3,0.1,0.7,0.2,1
		c0.1,0.4,0.3,0.7,0.4,0.9s0.2,0.5,0.2,0.6c0,0.2-0.1,0.4-0.2,0.6c-0.2,0.2-0.4,0.3-0.6,0.3h-6.7c-0.2,0-0.4-0.1-0.6-0.3
		c-0.2-0.2-0.2-0.4-0.2-0.6c0-0.1,0.1-0.3,0.2-0.6c0.1-0.3,0.3-0.6,0.4-0.9c0.1-0.4,0.2-0.7,0.2-1h-7.2c-0.6,0-1.1-0.2-1.5-0.6
		s-0.6-0.9-0.6-1.5V75.8c0-0.6,0.2-1.1,0.6-1.5s0.9-0.6,1.5-0.6h21.1c0.6,0,1.1,0.2,1.5,0.6S311.5,75.2,311.5,75.8z"/>
</g>
<g opacity="0.43">
	<path fill="#63FFFC" d="M263.1,66.5V61c0-0.1,0-0.1-0.1-0.1s-0.1-0.1-0.1-0.1h-10.5c-0.1,0-0.1,0-0.1,0.1l-0.1,0.1v5.4
		c0,0.1,0,0.1,0.1,0.1l0.1,0.1h10.5c0.1,0,0.1,0,0.1-0.1S263.1,66.5,263.1,66.5z M264,61v7.1c0,0.3-0.1,0.5-0.3,0.7
		c-0.2,0.2-0.5,0.3-0.7,0.3h-3.6c0,0.2,0,0.3,0.1,0.5s0.1,0.3,0.2,0.5c0.1,0.1,0.1,0.2,0.1,0.3c0,0.1,0,0.2-0.1,0.3
		c-0.1,0.1-0.2,0.1-0.3,0.1H256c-0.1,0-0.2,0-0.3-0.1s-0.1-0.2-0.1-0.3c0-0.1,0-0.2,0.1-0.3c0.1-0.1,0.1-0.3,0.2-0.5
		c0.1-0.2,0.1-0.3,0.1-0.5h-3.6c-0.3,0-0.5-0.1-0.7-0.3c-0.2-0.2-0.3-0.5-0.3-0.7V61c0-0.3,0.1-0.5,0.3-0.7s0.5-0.3,0.7-0.3h10.5
		c0.3,0,0.5,0.1,0.7,0.3C263.9,60.5,264,60.7,264,61z"/>
</g>
</svg>
