<svg xmlns="http://www.w3.org/2000/svg" width="30" height="30" viewBox="0 0 30 30">
  <defs>
    <style>
      .a, .b {
        fill: none;
        stroke-linecap: round;
        stroke-miterlimit: 10;
        stroke-width: 0.75px;
      }

      .a {
        stroke: #758491;
      }

      .b {
        stroke: #515050;
      }

      .c {
        fill: #515050;
      }
    </style>
  </defs>
  <title>SB_NAV</title>
  <g>
    <path class="a" d="M26.116,17.484,26.1,8.673a3.448,3.448,0,0,0-3.448-3.444H7.332A3.459,3.459,0,0,0,3.884,8.677v8.812a3.448,3.448,0,0,0,3.448,3.448H22.668A3.449,3.449,0,0,0,26.116,17.484Z"/>
    <g>
      <line class="b" x1="25.421" y1="25.158" x2="4.503" y2="25.158"/>
      <circle class="c" cx="10.254" cy="25.109" r="1.541"/>
    </g>
    <path class="c" d="M13.4,11.34v4.088a.254.254,0,0,0,.383.218l3.383-2.009a.253.253,0,0,0,0-.433l-3.384-2.08A.254.254,0,0,0,13.4,11.34Z"/>
  </g>
</svg>
