<svg xmlns="http://www.w3.org/2000/svg" viewBox="0 0 505.1 77.81"><title>Computerworld_logo-white-no-tag</title><path d="M16.7,65.8c-3.9,0-3.5-3.4-3.5-26.8,0-24.8.3-26.8,3.5-26.8,2.8,0,3.2,1.6,3.4,14.8l12.8-2.7C32.1,7.6,29,0,16.7,0,6,0,0,5.4,0,38.9,0,66.7,3.2,77.6,16.6,77.8c10.3.2,15.9-5.5,16.5-26.3L20.2,48.6C20.2,64.2,19.5,65.8,16.7,65.8ZM54,0C42.8,0,37.3,5.5,37.3,38.9c0,31.4,5.1,38.9,16.6,38.9,11,0,16.8-5.5,16.8-38.9C70.6,5,65,0,54,0Zm0,65.8c-3.2,0-3.5-2.1-3.5-26.8,0-25.2.5-26.8,3.5-26.8,2.8,0,3.5,1,3.5,26.8C57.4,63.8,57.3,65.8,54,65.8Zm47.3-41L98.2,49.4,94.5,24.9,89.3.5H75.5v77h12V32.3l1.7,11.5,4.6,33.7h8.6l3.9-33.3,1.2-11.6V77.5h13V.5h-15ZM141.4.5H126.5v77h13v-30h2.8c8.8,0,16.9-3.4,16.9-23.5C159.2,4.4,150.5.5,141.4.5Zm-.7,35h-1.2v-23h1.4c3.9,0,5.1,4,5.1,12.2S144.3,35.5,140.7,35.5Zm42.8,17.2c0,9.8-.1,13-3.5,13s-3.5-3.1-3.5-13V.4h-13V52c0,18.7,4.7,25.8,16.5,25.8,12.1,0,16.5-8.7,16.5-25.9V.4h-13Zm16-40.2h11v65h13v-65h11V.5h-35Zm51,53v-24h12v-12h-12v-17h13.4l2.4-12H237.5v77h29.4l-2.4-12ZM304,20.8c0-8-1.5-20.3-18.5-20.3h-15v77h13v-36h2.3l5,36h14l-7.1-38.7c5.6-3.3,6.3-9.9,6.3-18Zm-19,7.7h-1.5v-16h1.7c3.4,0,5.6,1.8,5.6,8.2,0,5.6-2.2,7.8-5.8,7.8Zm60.8,8.7c-.2,1.9-.5,4.6-.8,9.5-.2-4.8-.7-7.7-.9-9.4L339.3.5h-9.8L325,37.1c-.3,2.4-.7,4.7-1,9.6a62.16,62.16,0,0,0-.6-9.6L317.5.5h-12l11.8,77h11.9l4.1-32c.7-5.2,1-7.6,1.2-10.9.2,3.3.5,5.9,1.1,10.9l3.8,32h12.3L362.4.5H350ZM381.2,0c-11.1,0-16.7,5.5-16.7,38.9,0,31.4,5.1,38.9,16.6,38.9,11,0,16.8-5.5,16.8-38.9C397.9,5,392.2,0,381.2,0Zm0,65.8c-3.2,0-3.5-2.1-3.5-26.8,0-25.2.5-26.8,3.5-26.8,2.8,0,3.5,1,3.5,26.8C384.7,63.8,384.6,65.8,381.2,65.8Zm54.8-45c0-8-1.5-20.3-18.5-20.3H402.4v77h13v-36h2.4l5,36h14l-7.1-38.7c5.6-3.3,6.3-9.9,6.3-18Zm-18.9,7.7h-1.6v-16h1.8c3.4,0,5.6,1.8,5.6,8.2C422.8,26.3,420.6,28.5,417.1,28.5Zm36.4,36V.5h-13v77h27.2l-1.9-13ZM482.9.5H471.4v77h12.3c16.8,0,21.4-5,21.4-37.8S501.2.5,482.9.5Zm2.7,65h-1.1v-54h1.4c3.9,0,5.1,1.6,5.1,27.7C490.9,64.7,489.2,65.5,485.6,65.5Z" style="fill:#fff"/></svg>