<?xml version="1.0" encoding="utf-8"?>
<!-- Generator: Adobe Illustrator 23.0.4, SVG Export Plug-In . SVG Version: 6.00 Build 0)  -->
<svg version="1.1" id="Layer_1" xmlns="http://www.w3.org/2000/svg" xmlns:xlink="http://www.w3.org/1999/xlink" x="0px" y="0px"
	 viewBox="0 0 317 77.9" style="enable-background:new 0 0 317 77.9;" xml:space="preserve">
<style type="text/css">
	.st0{fill:#FFFFFF;}
</style>
<g>
	<g>
		<polygon class="st0" points="259.8,77.7 260.6,77.7 260.6,74.9 265.2,74.9 265.2,74.2 260.6,74.2 260.6,72.1 265.4,72.1 
			265.4,71.4 259.8,71.4 		"/>
		<path class="st0" d="M273.8,73.3c0-0.8-0.4-1.2-0.6-1.4c-0.5-0.5-1.2-0.5-1.8-0.5h-4.3v6.4h0.9v-2.5h3.1l2.2,2.5h1.2l-2.3-2.7
			C272.5,75,273.8,74.8,273.8,73.3z M268,74.4v-2.3h3.5c0.4,0,0.9,0,1.2,0.5c0.1,0.2,0.2,0.4,0.2,0.7c0,0.2-0.1,0.5-0.2,0.7
			c-0.4,0.5-1,0.5-1.5,0.5H268z"/>
		<path class="st0" d="M279.3,71.2c-1.9,0-3.8,1.1-3.8,3.4c0,1.3,0.7,2.1,1.3,2.6c0.7,0.5,1.7,0.7,2.6,0.7c2,0,3.8-1.1,3.8-3.3
			C283.2,72.5,281.6,71.2,279.3,71.2z M279.4,77.1c-0.9,0-1.8-0.2-2.4-0.9c-0.4-0.5-0.6-1.1-0.6-1.6c0-1.9,1.5-2.5,2.8-2.6
			c1.7,0,3.1,0.9,3.1,2.6C282.3,75.6,281.7,77.1,279.4,77.1z"/>
		<path class="st0" d="M289.5,75.5c-0.3,0.6-0.4,0.8-0.6,1.4c-0.2-0.6-0.3-0.7-0.6-1.4l-2-4.1h-1.2v6.4h0.8v-4c0-1,0-1.1-0.1-1.6
			c0.2,0.5,0.3,0.7,0.6,1.4l2,4.1h0.8l2.2-4.5c0.2-0.5,0.3-0.6,0.5-1.1c-0.1,0.5-0.1,0.7-0.1,1.9v3.7h0.8v-6.4h-1.2L289.5,75.5z"/>
		<rect x="298.3" y="71.4" class="st0" width="0.9" height="6.4"/>
		<path class="st0" d="M307.2,72.1c-0.8-0.7-1.7-0.7-2.4-0.7h-3.2v6.4h2.5c1.1,0,2.3,0,3.2-0.9c0.4-0.4,0.9-1.1,0.9-2.3
			C308.3,73.3,307.7,72.5,307.2,72.1z M306.8,76.1c-0.7,0.9-1.7,0.9-2.5,0.9h-1.9v-4.8h2.3c0.6,0,1.3,0,1.9,0.6
			c0.3,0.3,0.7,0.9,0.7,1.8C307.3,75,307.2,75.6,306.8,76.1z"/>
		<path class="st0" d="M313.4,74.4v0.8h2.8c-0.1,0.4-0.1,0.7-0.5,1.2c-0.6,0.6-1.5,0.8-2.1,0.8c-0.4,0-1.7-0.1-2.4-1.2
			c-0.2-0.3-0.4-0.8-0.4-1.5c0-1.6,1.3-2.5,2.9-2.5c0.7,0,1.5,0.2,2,0.7c0.2,0.2,0.3,0.3,0.4,0.5l0.9-0.3c-0.1-0.2-0.3-0.5-0.6-0.8
			c-0.4-0.3-1.3-0.9-2.8-0.9c-1.5,0-2.6,0.6-3.2,1.5c-0.2,0.3-0.5,0.9-0.5,1.8c0,1.8,1.4,3.3,3.6,3.3c1.1,0,2-0.4,2.4-0.7
			c0.1-0.1,0.2-0.2,0.4-0.3v0.9h0.8v-3.4H313.4z"/>
	</g>
	<g>
		<g>
			<path class="st0" d="M0,2.3c0,1,0,6.4,0,7.4c1,0,7.2,0,7.2,0v46.1c0,0-6.1,0-7.2,0c0,1,0,6.5,0,7.4c1.2,0,24.1,0,25.3,0
				c0-1,0-6.5,0-7.4c-1,0-7.3,0-7.3,0V9.7c0,0,6.3,0,7.3,0c0-1,0-6.4,0-7.4C24.1,2.3,1.2,2.3,0,2.3z"/>
			<path class="st0" d="M40.8,21.3l-2.2,1.9c0,0,0-5,0-6c-1.2,0-15,0-16.2,0c0,1,0,6.1,0,7.1c1,0,5.5,0,5.5,0s0,37.6,0,38.9
				c1.1,0,9.6,0,10.7,0c0-1.3,0-32.6,0-32.6l0.5-0.4c2.8-2.3,5.7-3.4,8.4-3.4c1.9,0,3.3,0.7,4.2,2c0.8,1.2,1.1,3.1,1.1,6
				c0,0,0,27.1,0,28.3c1.1,0,9.6,0,10.7,0c0-1.2,0-29.5,0-29.5c0-11.6-3.7-17.2-11.3-17.2C48.4,16.4,44.6,18,40.8,21.3z"/>
			<path class="st0" d="M72.9,4.1L72.9,4.1c-2.3,2.8-3.5,6.4-3.5,10.6v2.1c0,0-3.9,0-4.8,0c0,1,0,6.5,0,7.5c1,0,4.8,0,4.8,0
				s0,37.7,0,38.9c1,0,8.9,0,9.9,0c0-1.2,0-38.9,0-38.9s9.2,0,10.2,0c0-1,0-6.5,0-7.5c-1,0-10.1,0-10.1,0V14c0-4.6,1.6-6.1,4-7.1
				C85.6,6,89.1,6.2,92.2,8c0-1.5,0-5.5,0-6.1C89.4,0.5,85.7,0,83.3,0C78.9,0,75.1,1.5,72.9,4.1z"/>
			<path class="st0" d="M93.8,22.4L93.8,22.4c-4.4,4.2-6.5,10.2-6.5,17.7c0,7.5,2.2,13.4,6.5,17.7c4.3,4.2,9.7,6.4,15.9,6.4
				c6.4,0,11.8-2.2,16-6.4c4.3-4.3,6.5-10.2,6.5-17.6c0-7.5-2.2-13.4-6.5-17.7c-4.3-4.2-9.7-6.4-16-6.4
				C103.5,16,98.1,18.2,93.8,22.4z M98.7,40.4c0-10.9,3.7-16.5,10.9-16.5c3.4,0,6.2,1.5,8.2,4.4c1.9,2.7,2.8,6.6,2.8,11.3
				c0,5.4-1,9.5-2.9,12.1c-2.1,2.8-4.8,4.2-8.1,4.2c-3.7,0-6.5-1.6-8.4-4.7C99.6,48.5,98.7,44.8,98.7,40.4z"/>
			<path class="st0" d="M193.1,22.4L193.1,22.4c-4.3,4.2-6.6,10.2-6.6,17.7c0,7.5,2.2,13.4,6.6,17.7c4.3,4.2,9.7,6.4,15.9,6.4
				c6.4,0,11.8-2.2,16-6.4c4.3-4.3,6.5-10.2,6.5-17.6c0-7.5-2.2-13.4-6.5-17.7c-4.3-4.2-9.7-6.4-16-6.4
				C202.7,16,197.4,18.2,193.1,22.4z M198,40.4c0-10.9,3.7-16.5,10.9-16.5c3.5,0,6.2,1.5,8.2,4.4c1.9,2.7,2.8,6.6,2.8,11.3
				c0,5.4-1,9.5-2.9,12.1c-2,2.8-4.8,4.2-8.1,4.2c-3.7,0-6.5-1.6-8.4-4.7C198.9,48.5,198,44.8,198,40.4z"/>
			<path class="st0" d="M246.5,28.9c0,0,0-10.5,0-11.7c-1.1,0-13.8,0-14.9,0c0,1,0,6.1,0,7.1c0.9,0,4.3,0,4.3,0s0,37.6,0,38.9
				c1,0,9.7,0,10.8,0c0-1.2,0-16.3,0-16.3c0-4.3,0.2-7.8,1.6-10.9c1.4-3.2,3.3-5.3,5.6-6.3c1.8-0.8,4.8-1.2,7.6-1.3
				c0-1.1,0-10.8,0-11.9C256.6,16.4,249.1,21.5,246.5,28.9z"/>
			<path class="st0" d="M260.6,0.4c0,1,0,6.7,0,7.7c0.9,0,3.9,0,3.9,0c0,52.3,0,53.8,0,55.2c1,0,9.9,0,10.9,0c0-1.2,0-61.7,0-62.9
				C274.3,0.4,261.7,0.4,260.6,0.4z"/>
			<path class="st0" d="M301.8,0.4v7.7c0.9,0,4.2,0,4.2,0v12.4c-2.8-2.9-6.2-4.4-9.9-4.4c-5.1,0-9.4,2.1-12.9,6.4l0,0
				c-3.5,4.2-5.3,10.2-5.3,17.7c0,7.5,1.8,13.4,5.3,17.7c3.5,4.2,7.8,6.4,12.9,6.4c3.8,0,7.6-1.8,9.9-4.4v3.4h11V0.4H301.8z
				 M297.8,56c-3.3,0-5.8-1.6-7.4-4.7c-1.5-2.9-2.3-6.5-2.3-10.9c0-10.9,3.2-16.5,9.6-16.5c3,0,5.5,1.5,7.2,4.4
				c1.6,2.7,2.5,6.6,2.5,11.3c0,5.4-0.9,9.5-2.6,12.1C303.2,54.6,300.8,56,297.8,56z"/>
			<path class="st0" d="M176.1,2v8.2c0.9,0,4.9,0,4.9,0L173.1,46l-8.4-43.9h0V2h-14.3v8.2h5.6l0,0.2l-7.6,35.7l-8.6-35.9
				c0,0,4.3,0,5.3,0V2h-20.5v8.2c0.9,0,4.3,0,4.3,0s13.5,51.9,13.8,52.7h8.8l8.2-36.1l8,36.1h9.5c0.3-0.9,12-52.7,12-52.7
				s3.6,0,4.5,0V2H176.1z"/>
		</g>
	</g>
</g>
</svg>
