<svg xmlns="http://www.w3.org/2000/svg" viewBox="0 0 423 65.95"><title>NetworkWorld_logo-white-no-tag</title><path d="M20,13.42c0,6.38-.06,12.51.27,18.73a60.92,60.92,0,0,0-2.14-8.64C17,19.51,11.43.78,11.43.78H0v64H12V48.39c0-7.46-.2-9-.7-17.48a69.67,69.67,0,0,0,2.43,10.27c1.49,4.72,7.48,23.61,7.48,23.61H31V.79H20ZM46,36.78H57v-10H46v-16H59V.78H33v64H61v-11H46v-17m14-26H70v54H84v-54H94V.78H60v10m70.74-10s-1.57,13.53-2.65,22.15a131.61,131.61,0,0,0-.66,15.38s-.17-8.45-1.08-15.41c-1.08-8.53-1.82-14.12-2.9-22.12H113.18c-.75,6-2.07,13.61-3.31,22.06-.66,4.31-.66,15.46-.66,15.46s-.17-11.1-.58-15.41c-.75-8.62-2.07-22.12-2.07-22.12H94.45l8.12,64h11.19s1.66-11.51,2.65-18.72S118,32.77,118,32.77s.83,6.11,1.66,13.31S122,64.78,122,64.78h10.4l9.36-64h-11ZM156.51,0C144.57,0,140.1,5,140.1,32.89c0,28.42,5.72,33.06,16.41,33.06,11.43,0,17.23-5.63,17.23-33.06S168.44,0,156.51,0Zm2.9,50.79c-.41,4.31-1,5.39-2.49,5.39s-2.49-1.08-2.73-5.39c-.25-4.47-.25-6.3-.25-17.9,0-9.94.08-14.42.25-19,.17-4.31.91-5.55,2.57-5.55,1.49,0,2.32,1.24,2.65,5.55.33,4.56.5,9,.5,19C159.9,44.49,159.82,46.23,159.41,50.79Zm47.47-2c-.08-10-1.41-16.28-9-16.78,8-1,10.19-4.93,10.19-15C208,5.55,202.16.78,193.38.78H175v64h13v-28h1c3.65,0,5,2.66,5,8.46V53c0,4.56.12,9.75,1,11.75h14.58C208,64.78,207,54.59,206.88,48.8Zm-16.16-21H188V9.8h1.23c3.81,0,5.72.55,5.72,9.83.05,5.94-.95,8.15-4.23,8.15Zm41.5,2.41L246.31.78H232.72L223,22.54V.78H210v64h13V41.1l9.39,23.68h15.16L232.22,30.21" style="fill:#fff"/><path d="M282,.78s-1.57,13.53-2.65,22.15a131.61,131.61,0,0,0-.66,15.38s-.17-8.45-1.08-15.41c-1.08-8.53-1.82-14.12-2.9-22.12H264.44c-.75,6-2.07,13.61-3.31,22.06-.66,4.31-.66,15.46-.66,15.46s-.17-11.1-.58-15.41c-.75-8.62-2.07-22.12-2.07-22.12h-12.1l8.12,64H265s1.66-11.51,2.65-18.72,1.57-13.29,1.57-13.29.83,6.11,1.66,13.31,2.32,18.7,2.32,18.7h10.44L293,.77H282ZM307.77,0c-11.93,0-16.41,5-16.41,32.89,0,28.42,5.72,33.06,16.41,33.06C319.2,66,325,60.32,325,32.89S319.7,0,307.77,0Zm2.9,50.79c-.41,4.31-1,5.39-2.49,5.39s-2.49-1.08-2.73-5.39c-.25-4.47-.25-6.3-.25-17.9,0-9.94.08-14.42.25-19,.17-4.31.91-5.55,2.57-5.55,1.49,0,2.32,1.24,2.65,5.55.33,4.56.5,9,.5,19C311.17,44.49,311.08,46.23,310.67,50.79Zm47.48-2c-.08-10-1.41-16.28-9-16.78,8-1,10.19-4.93,10.19-15C359.34,5.5,353.46.74,344.67.74H326v64h13v-28h1.25c3.65,0,4.75,2.66,4.75,8.46V53c0,4.56.39,9.75,1.3,11.75h14.58c-1.66,0-2.65-10.16-2.73-16ZM342,27.78h-3v-18h1.5c3.81,0,5.72.55,5.72,9.83C346.21,25.57,345.22,27.78,342,27.78Zm32-27H361v64h27v-11H374V.78m30,0H390v64h16.34C418.27,64.78,423,60,423,36,423,7.76,417.53.78,404,.78Zm.33,54H403v-44h1.27c4.14,0,4.89,1.78,4.89,26.39,0,17.23-.83,17.61-4.81,17.61Z" style="fill:#fff"/></svg>