<svg width="141" height="34" xmlns="http://www.w3.org/2000/svg" xmlns:xlink="http://www.w3.org/1999/xlink"><defs><circle id="a" cx="14" cy="14" r="14"/><filter x="-31.3%" y="-31.3%" width="162.5%" height="162.5%" filterUnits="objectBoundingBox" id="b"><feGaussianBlur stdDeviation="3" in="SourceGraphic"/></filter></defs><g fill="none" fill-rule="evenodd"><path d="M53.514 25.4V8.255h3.852v13.48h8.537V25.4H53.514zm26.541-6.658c0 .51-.046 1.02-.116 1.53h-9.35c.395 1.393 1.485 2.39 3.457 2.39 1.37 0 2.947-.533 3.968-1.23l1.438 2.483c-1.23.928-3.202 1.763-5.568 1.763-4.756 0-6.96-3.201-6.96-6.658 0-3.782 2.668-6.658 6.705-6.658 3.642 0 6.426 2.343 6.426 6.38zm-6.426-3.434c-1.485 0-2.645.882-3.063 2.366h5.986c-.325-1.438-1.392-2.366-2.923-2.366zm18.12-2.622h3.433V25.4h-3.434v-1.3c-.928.929-2.18 1.625-3.92 1.625-3.666 0-6.265-2.97-6.265-6.751 0-3.805 2.668-6.612 6.264-6.612 1.717 0 2.993.719 3.921 1.67v-1.346zm-3.295 9.721c1.925 0 3.294-1.554 3.294-3.387 0-1.81-1.369-3.34-3.294-3.34-1.926 0-3.248 1.53-3.248 3.34 0 1.856 1.345 3.387 3.248 3.387zm9.535 2.993V12.686h3.55v1.764c.626-1.137 2.087-2.112 4.013-2.112 2.529 0 4.942 1.694 4.942 5.29V25.4h-3.643v-6.82c0-1.88-.997-2.9-2.482-2.9-1.624 0-2.738 1.206-2.738 2.992V25.4H97.99zm15.544-17.145h3.851V25.4h-3.851V8.255zm5.73 17.145l5.406-8.654-5.011-8.49h4.43l3.063 5.59 3.248-5.59h4.478l-5.313 8.49 5.266 8.654h-4.43l-3.295-5.754-3.364 5.754h-4.478z" fill="#5D6C91" fill-rule="nonzero"/><g transform="translate(15.4 2.8)"><mask id="c" fill="#fff"><use xlink:href="#a"/></mask><use fill="#5D6C91" xlink:href="#a"/><path fill-opacity=".65" fill="#020D25" filter="url(#b)" mask="url(#c)" d="M-9.8 16.8L4.6 2.4 19 16.8 4.6 31.2z"/></g><path fill="#5D6C91" d="M1 16.795l14.651-14.89 14.65 14.89-14.65 14.891z"/><path d="M19.915 27.352a15.065 15.065 0 0 1-4.273-10.557c0-4.12 1.632-7.852 4.273-10.557l10.387 10.557-10.387 10.557z" fill="#8E9EC9"/></g></svg>