<?xml version="1.0" encoding="UTF-8"?>
<svg width="16px" height="13px" viewBox="0 0 16 13" version="1.1" xmlns="http://www.w3.org/2000/svg" xmlns:xlink="http://www.w3.org/1999/xlink">
    <!-- Generator: Sketch 55 (78076) - https://sketchapp.com -->
    <title>Combined Shape</title>
    <desc>Created with Sketch.</desc>
    <g id="Symbols" stroke="none" stroke-width="1" fill="none" fill-rule="evenodd">
        <g id="footer-/-default" transform="translate(-1193.000000, -610.000000)" fill="#FFFFFF">
            <path d="M1196.28967,613.214101 L1196.28967,622.875586 L1193,622.875586 L1193,613.214101 L1196.28967,613.214101 Z M1196.28967,610 L1196.28967,612 L1193,612 L1193,610 L1196.28967,610 Z M1208.15349,617.335986 L1208.15336,622.875586 L1204.86382,622.875586 L1204.86382,617.706686 C1204.86382,616.40837 1204.38778,615.522434 1203.19691,615.522434 C1202.28807,615.522434 1201.74673,616.119684 1201.50897,616.696542 C1201.42199,616.903278 1201.40064,617.191323 1201.40064,617.480073 L1201.40064,622.875843 L1198.11057,622.875843 C1198.11057,622.875843 1198.15393,614.120942 1198.11057,613.214358 L1201.40064,613.214358 L1201.40064,614.582826 C1201.83726,613.924979 1202.61924,612.987231 1204.36584,612.987231 C1206.5306,612.987231 1208.15349,614.368396 1208.15349,617.335986 Z" id="Combined-Shape"></path>
        </g>
    </g>
</svg>