<?xml version="1.0" encoding="UTF-8"?>
<svg width="15px" height="12px" viewBox="0 0 15 12" version="1.1" xmlns="http://www.w3.org/2000/svg" xmlns:xlink="http://www.w3.org/1999/xlink">
    <!-- Generator: Sketch 55 (78076) - https://sketchapp.com -->
    <title>Path</title>
    <desc>Created with Sketch.</desc>
    <g id="Symbols" stroke="none" stroke-width="1" fill="none" fill-rule="evenodd">
        <g id="footer-/-default" transform="translate(-1017.000000, -610.000000)" fill="#FFFFFF">
            <path d="M1023.93517,613.019637 L1023.96613,613.510615 L1023.45012,613.450495 C1021.57184,613.220036 1019.93093,612.43848 1018.53771,611.125865 L1017.85658,610.474568 L1017.68113,610.955526 C1017.30961,612.027661 1017.54697,613.159917 1018.32098,613.921433 C1018.73379,614.342272 1018.64091,614.402391 1017.92882,614.151892 C1017.68113,614.071733 1017.46441,614.011613 1017.44377,614.041673 C1017.37153,614.111813 1017.61921,615.023629 1017.81529,615.384347 C1018.08362,615.885345 1018.63059,616.376323 1019.22916,616.666902 L1019.73485,616.897361 L1019.13628,616.907381 C1018.55835,616.907381 1018.53771,616.917401 1018.59963,617.12782 C1018.80603,617.779117 1019.62133,618.470495 1020.5295,618.771093 L1021.16936,618.981512 L1020.61207,619.302151 C1019.78645,619.763069 1018.81635,620.023588 1017.84626,620.043628 C1017.38185,620.053648 1017,620.093728 1017,620.123788 C1017,620.223987 1018.25906,620.785105 1018.9918,621.005544 C1021.19,621.656841 1023.801,621.376282 1025.76184,620.264067 C1027.15506,619.47249 1028.54829,617.899357 1029.19846,616.376323 C1029.54935,615.564707 1029.90023,614.081753 1029.90023,613.370336 C1029.90023,612.909418 1029.93119,612.849298 1030.50912,612.2982 C1030.84969,611.977562 1031.16962,611.626863 1031.23154,611.526663 C1031.33474,611.336284 1031.32442,611.336284 1030.79809,611.506623 C1029.92087,611.807222 1029.79703,611.767142 1030.23048,611.316244 C1030.55041,610.995606 1030.93225,610.414448 1030.93225,610.244109 C1030.93225,610.214049 1030.77745,610.264149 1030.60201,610.354328 C1030.41624,610.454528 1030.00344,610.604827 1029.69383,610.695007 L1029.13654,610.865346 L1028.63085,610.534688 C1028.35221,610.354328 1027.96004,610.153929 1027.75363,610.093809 C1027.22731,609.95353 1026.42233,609.97357 1025.9476,610.133889 C1024.65758,610.584787 1023.84228,611.747102 1023.93517,613.019637 Z" id="Path"></path>
        </g>
    </g>
</svg>