<?xml version="1.0" encoding="UTF-8"?>
<svg width="24px" height="24px" viewBox="0 0 24 24" version="1.1" xmlns="http://www.w3.org/2000/svg" xmlns:xlink="http://www.w3.org/1999/xlink">
    <!-- Generator: Sketch 60 (88103) - https://sketch.com -->
    <title>icon-downloads-24-color</title>
    <desc>Created with Sketch.</desc>
    <g id="icon-downloads-24-color" stroke="none" stroke-width="1" fill="none" fill-rule="evenodd">
        <g id="icon-downloads-64-color-2" transform="translate(1.000000, 1.000000)" fill-rule="nonzero">
            <g id="icon-downloads-64-color">
                <path d="M21.5,11 C21.5,16.798888 16.798888,21.5 11,21.5 C5.20085328,21.5 0.5,16.7990194 0.5,11 C0.5,5.20098061 5.20085328,0.5 11,0.5 C16.798888,0.5 21.5,5.20111198 21.5,11 Z M20.5,11 C20.5,5.75339789 16.2466021,1.5 11,1.5 C5.75314303,1.5 1.5,5.75325826 1.5,11 C1.5,16.2467417 5.75314303,20.5 11,20.5 C16.2466021,20.5 20.5,16.2466021 20.5,11 Z" id="Stroke-5" fill="#535966"></path>
                <polygon id="Path-66" fill="#00BDB1" points="10.5 4.5 11.5 4.5 11.5 14.5 10.5 14.5"></polygon>
                <polygon id="Path-66" fill="#00BDB1" points="14.7786995 10.5 15.5 11.2035002 10.9698003 15.5 6.5 11.2010656 7.22639884 10.5024346 10.9748631 14.1076074"></polygon>
                <polygon id="Path-67" fill="#00BDB1" points="7.5 17.5 7.5 16.5 15.5 16.5 15.5 17.5"></polygon>
            </g>
        </g>
        <rect id="Rectangle" x="0" y="0" width="24" height="24"></rect>
    </g>
</svg>