<?xml version="1.0" encoding="UTF-8"?>
<svg width="24px" height="24px" viewBox="0 0 24 24" version="1.1" xmlns="http://www.w3.org/2000/svg" xmlns:xlink="http://www.w3.org/1999/xlink">
    <!-- Generator: Sketch 55.1 (78136) - https://sketchapp.com -->
    <title>logo-cloud-24-color</title>
    <desc>Created with Sketch.</desc>
    <g id="logo-cloud-24-color" stroke="none" stroke-width="1" fill="none" fill-rule="evenodd">
        <path d="M13,0 C9.298,0 5.988,1.677 3.787,4.312 C5.252,6.066 7.208,7.394 9.443,8.087 C9.976,8.252 10.551,8.188 11.053,7.945 C11.642,7.661 12.302,7.5 13,7.5 C13.698,7.5 14.358,7.661 14.947,7.945 C15.449,8.188 16.024,8.252 16.557,8.087 C18.792,7.394 20.748,6.066 22.213,4.312 C20.012,1.677 16.702,0 13,0" id="Fill-1" fill="#0077CC"></path>
        <path d="M11.0908,7.9395 C11.0778,7.9435 11.0658,7.9395 11.0528,7.9455 C10.5508,8.1885 9.9758,8.2515 9.4438,8.0865 C7.2088,7.3945 5.2528,6.0665 3.7878,4.3145 C2.0488,6.3965 0.9998,9.0745 0.9998,12.0005 C0.9998,13.8045 1.4228,15.5015 2.1388,17.0365 C3.9038,15.1805 6.1038,13.8075 8.5548,13.0475 C8.5788,13.0405 8.6038,13.0385 8.6268,13.0315 C8.5448,12.7015 8.4998,12.3565 8.4998,12.0005 C8.4998,10.2005 9.5638,8.6595 11.0908,7.9395" id="Fill-3" fill="#353535"></path>
        <path d="M16.5566,15.9131 C16.0246,15.7481 15.4496,15.8121 14.9476,16.0551 C14.3576,16.3391 13.6986,16.5001 12.9996,16.5001 C12.3016,16.5001 11.6426,16.3391 11.0526,16.0551 C10.5506,15.8121 9.9756,15.7481 9.4436,15.9131 C7.2076,16.6061 5.2516,17.9341 3.7866,19.6871 C5.9886,22.3231 9.2976,24.0001 12.9996,24.0001 C16.7026,24.0001 20.0116,22.3231 22.2126,19.6871 C20.7476,17.9341 18.7916,16.6061 16.5566,15.9131" id="Fill-5" fill="#3EBEB0"></path>
    </g>
</svg>