<?xml version="1.0" encoding="UTF-8"?>
<svg width="24px" height="24px" viewBox="0 0 24 24" version="1.1" xmlns="http://www.w3.org/2000/svg" xmlns:xlink="http://www.w3.org/1999/xlink">
    <!-- Generator: Sketch 55.2 (78181) - https://sketchapp.com -->
    <title>logo-workplace-search-24-color</title>
    <desc>Created with Sketch.</desc>
    <g id="logo-workplace-search-24-color" stroke="none" stroke-width="1" fill="none" fill-rule="evenodd">
        <path d="M13.5716215,20.0913571 L15.5339494,17.5721647 C18.1147302,14.2596691 18.1150708,9.75623076 15.5346067,6.44436458 L13.565615,3.91049894 L14.6366277,2.53555695 C15.3858145,1.57394588 16.5685389,1 17.8008104,1 L22,1 L22,23 L17.8033732,23 C16.5685389,23 15.384106,22.4239564 14.6353463,21.4602475 L13.5716215,20.0913571 Z M11.9890584,18.0547818 L10.4071814,16.0190896 C8.53079716,13.6108664 8.53079716,10.3736102 10.4080357,7.96412838 L11.9806681,5.94521815 L13.5625451,7.98091043 C15.4389294,10.3891336 15.4389294,13.6263898 13.5616909,16.0358716 L11.9890584,18.0547818 Z" id="Combined-Shape" fill="#FEC514"></path>
        <path d="M2,23 L2,1 L6.19662683,1 C7.4314611,1 8.61589397,1.57604363 9.36465374,2.53975246 L13.5928186,7.98091043 C15.4692028,10.3891336 15.4692028,13.6263898 13.5919643,16.0358716 L9.36337235,21.464443 C8.61418545,22.4260541 7.4314611,23 6.19918961,23 L2,23 Z" id="Fill-1" fill="#F04E98"></path>
        <path d="M9.64769177,16.0190896 C7.49225036,13.6108664 7.49225036,10.3736102 9.64867308,7.96412838 L11.8140982,5.66796875 L13.4805518,7.80096436 C15.5280567,10.2943726 15.5280567,13.7851562 13.5983577,16.0358716 L11.8140982,18.3078613 L9.64769177,16.0190896 Z" id="Path" fill="#343741"></path>
    </g>
</svg>