<?xml version="1.0" encoding="UTF-8"?>
<svg width="24px" height="24px" viewBox="0 0 24 24" version="1.1" xmlns="http://www.w3.org/2000/svg" xmlns:xlink="http://www.w3.org/1999/xlink">
    <!-- Generator: Sketch 60 (88103) - https://sketch.com -->
    <title>logo-eck-24-color</title>
    <desc>Created with Sketch.</desc>
    <g id="logo-eck-24-color" stroke="none" stroke-width="1" fill="none" fill-rule="evenodd">
        <g fill-rule="nonzero" id="Path">
            <path d="M14.25,12 C14.25,13.243 13.242,14.25 12,14.25 C10.758,14.25 9.75,13.243 9.75,12 C9.75,10.757 10.758,9.75 12,9.75 C13.242,9.75 14.25,10.757 14.25,12" fill="#353535"></path>
            <path d="M14.8223,8.478 L14.8343,8.487 C15.0733,8.675 15.3983,8.711 15.6733,8.58 L22.0853,5.512 C20.6833,3.338 18.6013,1.654 16.1363,0.748 L14.5393,7.671 C14.4683,7.972 14.5803,8.287 14.8223,8.478" fill="#FF3A99"></path>
            <path d="M16.9502,12.7319 L23.3612,15.8389 C23.7692,14.6329 24.0002,13.3449 24.0002,11.9999 C24.0002,10.6769 23.7772,9.4069 23.3822,8.2169 L16.9532,11.2929 C16.6772,11.4249 16.5002,11.7049 16.4992,12.0109 C16.4992,12.3179 16.6742,12.5979 16.9502,12.7319" fill="#353535"></path>
            <path d="M11.5937,17.0137 C11.5267,16.7177 11.2977,16.4827 11.0017,16.4167 C8.9747,15.9607 7.4497,14.1637 7.4497,11.9997 C7.4497,9.8277 8.9857,8.0267 11.0247,7.5787 C11.3207,7.5137 11.5507,7.2797 11.6177,6.9847 L13.2167,0.0617 C11.8807,-0.0733 10.4807,0.0057 9.0477,0.3747 C3.9707,1.6817 0.2517,6.2007 0.0127,11.4377 C-0.3023,18.3207 5.1857,23.9997 11.9997,23.9997 C12.3907,23.9997 12.7757,23.9777 13.1557,23.9417 L11.5937,17.0137 Z" fill="#0077CC"></path>
            <path d="M14.8164,15.5264 L14.8054,15.5354 C14.5614,15.7254 14.4484,16.0394 14.5164,16.3414 L16.0804,23.2734 C18.5494,22.3794 20.6414,20.7054 22.0534,18.5394 L15.6554,15.4384 C15.3814,15.3054 15.0564,15.3394 14.8164,15.5264" fill="#FF3A99"></path>
        </g>
    </g>
</svg>