<?xml version="1.0" encoding="UTF-8"?>
<svg width="24px" height="24px" viewBox="0 0 24 24" version="1.1" xmlns="http://www.w3.org/2000/svg" xmlns:xlink="http://www.w3.org/1999/xlink">
    <!-- Generator: Sketch 55.1 (78136) - https://sketchapp.com -->
    <title>logo-app-search-24-color</title>
    <desc>Created with Sketch.</desc>
    <g id="logo-app-search-24-color" stroke="none" stroke-width="1" fill="none" fill-rule="evenodd">
        <path d="M14.5664,0.6875 C12.9784,-0.2295 11.0214,-0.2295 9.4334,0.6875 L3.9334,3.8695 L12.0004,8.5265 L20.0664,3.8695 L14.5664,0.6875 Z" id="Fill-1" fill="#353535"></path>
        <path d="M3.9336,3.8691 L3.9496,3.8541 L3.5666,4.0751 C1.9786,4.9921 0.9996,6.6861 0.9996,8.5201 L0.9996,15.2941 C0.9996,17.1281 1.9786,18.8231 3.5666,19.7401 L9.0666,22.9151 L9.0666,13.1831 C9.0666,11.3491 10.0446,9.6551 11.6326,8.7381 L11.9996,8.5261 L3.9336,3.8691 Z" id="Fill-4" fill="#0077CC"></path>
        <path d="M21.5664,6.4673 L14.2634,10.6843 C14.6874,11.4373 14.9334,12.2893 14.9334,13.1833 L14.9334,22.9153 L20.4334,19.7403 C22.0214,18.8233 23.0004,17.1283 23.0004,15.2943 L23.0004,8.5203 C23.0004,7.6283 22.7544,6.7773 22.3324,6.0253 L21.5664,6.4673 Z" id="Fill-6" fill="#FF6940"></path>
    </g>
</svg>