<?xml version="1.0" encoding="UTF-8"?>
<svg width="16px" height="11px" viewBox="0 0 16 11" version="1.1" xmlns="http://www.w3.org/2000/svg" xmlns:xlink="http://www.w3.org/1999/xlink">
    <!-- Generator: Sketch 55 (78076) - https://sketchapp.com -->
    <title>Fill 1</title>
    <desc>Created with Sketch.</desc>
    <g id="Symbols" stroke="none" stroke-width="1" fill="none" fill-rule="evenodd">
        <g id="footer-/-default" transform="translate(-1134.000000, -611.000000)" fill="#FFFFFF">
            <path d="M1140.34819,618.528634 L1140.34745,614.134287 L1144.67072,616.339116 L1140.34819,618.528634 Z M1149.84021,613.373024 C1149.84021,613.373024 1149.68387,612.295276 1149.20416,611.820671 C1148.59574,611.197746 1147.91376,611.194668 1147.60101,611.158196 C1145.36204,611 1142.00347,611 1142.00347,611 L1141.99651,611 C1141.99651,611 1138.63802,611 1136.39898,611.158196 C1136.08621,611.194668 1135.40448,611.197746 1134.79584,611.820671 C1134.31612,612.295276 1134.16001,613.373024 1134.16001,613.373024 C1134.16001,613.373024 1134,614.638642 1134,615.904275 L1134,617.090795 C1134,618.356397 1134.16001,619.622015 1134.16001,619.622015 C1134.16001,619.622015 1134.31612,620.699779 1134.79584,621.174383 C1135.40448,621.797294 1136.20397,621.777603 1136.56005,621.842891 C1137.84008,621.96287 1142.00001,622 1142.00001,622 C1142.00001,622 1145.36204,621.995039 1147.60101,621.836843 C1147.91376,621.800386 1148.59574,621.797294 1149.20416,621.174383 C1149.68387,620.699779 1149.84021,619.622015 1149.84021,619.622015 C1149.84021,619.622015 1150,618.356397 1150,617.090795 L1150,615.904275 C1150,614.638642 1149.84021,613.373024 1149.84021,613.373024 L1149.84021,613.373024 Z" id="Fill-1"></path>
        </g>
    </g>
</svg>