<svg xmlns="http://www.w3.org/2000/svg" xmlns:xlink="http://www.w3.org/1999/xlink" width="24" height="24" viewBox="0 0 24 24">
  <defs>
    <polygon id="logo-endpoint-24-color-a" points=".579 0 17 0 17 12 .579 12"/>
    <polygon id="logo-endpoint-24-color-c" points=".579 0 17 0 17 12 .579 12"/>
  </defs>
  <g fill="none" fill-rule="evenodd" transform="translate(1)">
    <path fill="#F04E98" d="M0,2.7393 L0,21.2603 C0,23.1083 2.509,23.6693 3.296,21.9973 L8,12.0003 L3.296,2.0033 C2.509,0.3303 0,0.8913 0,2.7393"/>
    <g transform="translate(5 12)">
      <mask id="logo-endpoint-24-color-b" fill="#fff">
        <use xlink:href="#logo-endpoint-24-color-a"/>
      </mask>
      <path fill="#FA744E" d="M6.3154,0 L1.0094,11.274 C0.8874,11.534 0.7394,11.772 0.5794,12 L7.9104,12 C9.8034,12 11.5354,10.93 12.3814,9.236 L17.0004,0 L6.3154,0 Z" mask="url(#logo-endpoint-24-color-b)"/>
    </g>
    <g transform="translate(5)">
      <mask id="logo-endpoint-24-color-d" fill="#fff">
        <use xlink:href="#logo-endpoint-24-color-c"/>
      </mask>
      <path fill="#343741" d="M12.3848,2.7646 C11.5378,1.0706 9.8068,-0.0004 7.9118,-0.0004 L0.5788,-0.0004 C0.7388,0.2276 0.8878,0.4656 1.0098,0.7256 L6.3158,11.9996 L16.9998,11.9996 L12.3848,2.7646 Z" mask="url(#logo-endpoint-24-color-d)"/>
    </g>
  </g>
</svg>
