<?xml version="1.0" encoding="UTF-8"?>
<svg width="24px" height="24px" viewBox="0 0 24 24" version="1.1" xmlns="http://www.w3.org/2000/svg" xmlns:xlink="http://www.w3.org/1999/xlink">
    <!-- Generator: Sketch 55.1 (78136) - https://sketchapp.com -->
    <title>logo-uptime-24-color</title>
    <desc>Created with Sketch.</desc>
    <g id="logo-uptime-24-color" stroke="none" stroke-width="1" fill="none" fill-rule="evenodd">
        <path d="M22.7744,17.2573 L22.7744,17.2573 C21.6094,17.7333 20.3364,18.0003 19.0004,18.0003 C16.8484,18.0003 14.8614,17.3143 13.2304,16.1583 C11.6064,19.0063 8.9824,21.2093 5.8294,22.2783 C7.6334,23.3633 9.7404,24.0003 12.0004,24.0003 C16.7394,24.0003 20.8244,21.2463 22.7744,17.2573" id="Fill-1" fill="#353535"></path>
        <path d="M19.4014,5.0547 L15.0004,9.4997 C15.0004,11.9257 14.3514,14.1937 13.2304,16.1587 C14.8614,17.3147 16.8484,17.9997 19.0004,17.9997 C20.3364,17.9997 21.6094,17.7327 22.7744,17.2577 C22.6884,17.4337 22.5924,17.6207 22.4984,17.8077 C23.4534,16.0857 24.0004,14.1077 24.0004,11.9997 L24.0004,9.4997 L19.4014,5.0547 Z" id="Fill-8" fill="#00BFB3"></path>
        <path d="M4.8662,19.4365 C7.6312,18.4995 9.8022,16.4905 10.9912,13.9705 C9.7462,12.3035 9.0002,10.2415 9.0002,7.9995 L9.0002,0.3935 C3.8272,1.7275 0.0002,6.4105 0.0002,11.9995 C0.0002,15.0945 1.1812,17.9055 3.1042,20.0335 L4.8662,19.4365 Z" id="Fill-15" fill="#0077CC"></path>
    </g>
</svg>