<?xml version="1.0" encoding="utf-8"?>
<!DOCTYPE svg PUBLIC "-//W3C//DTD SVG 1.1//EN" "http://www.w3.org/Graphics/SVG/1.1/DTD/svg11.dtd">
<svg xmlns="http://www.w3.org/2000/svg" xmlns:xlink="http://www.w3.org/1999/xlink" version="1.1" baseProfile="full" width="2409.28" height="384.36" viewBox="0 0 2409.28 384.36" enable-background="new 0 0 2409.28 384.36" xml:space="preserve">
	<path fill="#00A99D" fill-opacity="1" stroke-width="0.2" stroke-linejoin="round" d="M 105.826,275.47C 104.166,259.512 104.222,244.109 100.345,229.77C 98.5277,223.052 90.0237,215.744 82.9703,213.342C 77.245,211.393 71.2557,211.617 71.2557,211.617L 71.425,176.034C 71.425,176.034 73.5357,176.754 83.413,174.988C 94.7076,172.968 101.685,164.549 102.329,153.153C 103.672,129.36 104.374,105.51 104.561,81.6785C 104.933,34.5131 111.782,26.3917 158.258,20.1317C 206.001,13.701 253.748,7.28772 301.49,0.853149C 336.838,-3.90955 355.813,11.2131 357.502,46.6464C 358.766,73.1718 358.598,99.7623 359.536,126.308C 360.044,140.698 366.068,151.21 381.534,154.717L 389.34,155.56L 389.34,192.866C 389.34,192.866 383.244,192.481 375.284,195.568C 367.896,198.433 362.372,212.558 360.733,222.349C 358.009,238.626 357.74,255.641 358.938,272.164C 360.446,292.953 353.564,309.509 338.28,322.492C 311.344,345.372 280.486,354.025 246.55,341.668C 217.556,331.11 209.085,302.353 226.362,276.761C 243.52,251.346 268.86,240.197 298.646,238.001C 305.74,237.478 312.904,237.924 320.576,237.924C 322.12,225.998 322.093,213.582 325.66,202.304C 329.04,191.61 336.185,182.108 342.486,170.598C 319.19,154.23 322.537,126.78 321.449,101.004C 320.437,77.0144 317.088,73.2943 293.304,76.441C 249.568,82.2278 205.868,88.3025 162.189,94.5065C 144.677,96.993 141.97,100.45 141.482,118.174C 141.284,125.378 141.118,132.585 140.838,139.786C 139.757,167.609 137.488,173.248 118.613,194.066C 139.273,209.63 140.765,232.492 141.024,255.75C 141.234,274.669 140.8,293.616 141.67,312.502C 142.525,331.062 135.849,346.125 122.468,358.18C 98.205,380.037 69.7903,389.3 37.597,381.832C 0.015666,373.114 -11.703,337.929 12.9277,308.236C 30.1917,287.422 53.193,276.957 80.1677,275.532C 87.7157,275.132 95.3037,275.47 105.826,275.47 Z "/>
	<path fill="#00A99D" fill-opacity="1" stroke-width="0.2" stroke-linejoin="round" d="M 559.575,62.1476C 508.512,62.1476 473.908,87.3351 473.908,127.668C 473.908,211.335 600.908,182.085 600.908,234.502C 600.908,252.648 584.45,263.064 556.887,263.064C 531.7,263.064 501.45,250.981 477.262,228.793L 460.117,263.064C 484.325,285.252 519.262,300.377 556.221,300.377C 607.971,300.377 644.929,274.502 644.929,232.502C 645.262,147.814 518.242,175.377 518.242,123.96C 518.242,108.168 533.367,99.4392 556.554,99.4392C 574.367,99.4392 599.908,105.814 625.429,121.273L 641.908,86.3351C 620.054,71.8767 590.158,62.1476 559.575,62.1476 Z "/>
	<path fill="#00A99D" fill-opacity="1" stroke-width="0.2" stroke-linejoin="round" d="M 765.827,118.918C 710.389,118.918 672.41,155.543 672.41,209.648C 672.41,263.398 710.389,300.377 765.827,300.377C 820.931,300.377 858.91,263.398 858.91,209.648C 858.91,155.543 820.931,118.918 765.827,118.918 Z M 765.827,152.189C 797.744,152.189 820.265,175.71 820.265,209.981C 820.265,244.585 797.744,268.106 765.827,268.106C 733.577,268.106 711.056,244.585 711.056,209.981C 711.056,175.71 733.577,152.189 765.827,152.189 Z "/>
	<path fill="#00A99D" fill-opacity="1" stroke-width="0.2" stroke-linejoin="round" d="M 1061.8,120.273L 1023.15,120.273L 1023.15,208.293C 1023.15,239.543 1005.01,263.398 974.088,264.085C 948.213,264.085 932.422,247.606 932.422,220.731L 932.422,120.273L 893.797,120.273L 893.797,231.481C 893.797,274.168 918.318,300.377 959.318,300.377C 988.547,300.023 1011.05,288.939 1023.15,264.085L 1023.15,299.023L 1061.8,299.023L 1061.8,120.273 Z "/>
	<path fill="#00A99D" fill-opacity="1" stroke-width="0.2" stroke-linejoin="round" d="M 1223.71,118.918C 1193.46,118.918 1170.6,129.668 1157.85,154.543L 1157.85,120.273L 1119.21,120.273L 1119.21,299.023L 1157.85,299.023L 1157.85,203.939C 1160.54,176.043 1179.02,155.543 1208.58,155.21C 1235.46,155.21 1251.58,171.668 1251.58,198.564L 1251.58,299.023L 1290.23,299.023L 1290.23,187.814C 1290.23,145.127 1265.37,118.918 1223.71,118.918 Z "/>
	<path fill="#00A99D" fill-opacity="1" stroke-width="0.2" stroke-linejoin="round" d="M 1512.63,49.7101L 1473.98,49.7101L 1473.98,151.189C 1460.88,130.356 1439.38,118.585 1410.48,118.585C 1360.09,118.585 1325.46,155.21 1325.46,208.981C 1325.46,263.398 1359.75,300.71 1411.15,300.71C 1439.71,300.71 1461.21,289.273 1473.98,268.439L 1473.98,299.023L 1512.63,299.023L 1512.63,49.7101 Z M 1419.21,268.439C 1386.63,268.439 1364.44,244.252 1364.11,210.314C 1364.44,176.043 1386.96,151.523 1419.21,151.523C 1451.46,151.523 1473.98,175.71 1473.98,210.314C 1473.98,244.252 1451.46,268.439 1419.21,268.439 Z "/>
	<path fill="#707D84" fill-opacity="1" stroke-width="0.2" stroke-linejoin="round" d="M 1694.73,63.1476C 1626.52,63.1476 1572.09,115.231 1572.09,181.085C 1572.09,247.606 1625.86,300.377 1693.71,300.377C 1726.32,300.377 1757.9,285.918 1781.09,264.085L 1764.61,245.606C 1746.13,263.064 1720.94,273.814 1695.07,273.814C 1641.98,273.814 1599.3,232.502 1599.3,181.085C 1599.3,129.335 1641.98,88.3558 1695.07,88.3558C 1720.94,88.3558 1746.48,99.4392 1764.61,117.918L 1780.75,97.4183C 1758.23,76.2517 1726.98,63.1476 1694.73,63.1476 Z "/>
	<path fill="#707D84" fill-opacity="1" stroke-width="0.2" stroke-linejoin="round" d="M 1892.28,121.273C 1839.86,121.273 1802.55,157.564 1802.55,210.314C 1802.55,263.398 1839.86,300.023 1892.28,300.023C 1944.7,300.023 1981.99,263.398 1981.99,210.314C 1981.99,157.564 1944.7,121.273 1892.28,121.273 Z M 1892.28,145.127C 1929.24,145.127 1955.78,172.023 1955.78,210.648C 1955.78,249.627 1929.24,276.502 1892.28,276.502C 1855.3,276.502 1828.76,249.627 1828.76,210.648C 1828.76,172.023 1855.3,145.127 1892.28,145.127 Z "/>
	<path fill="#707D84" fill-opacity="1" stroke-width="0.2" stroke-linejoin="round" d="M 2190.91,49.7101L 2164.71,49.7101L 2164.71,160.252C 2151.6,135.064 2127.08,120.606 2095.5,120.606C 2045.44,120.606 2010.48,157.231 2010.48,210.314C 2010.48,263.064 2045.44,300.377 2095.83,300.377C 2127.41,300.377 2151.6,285.918 2164.71,261.064L 2164.71,299.023L 2190.91,299.023L 2190.91,49.7101 Z M 2100.87,276.856C 2063.23,276.856 2036.69,249.293 2036.69,210.981C 2036.69,172.356 2063.23,144.46 2100.87,144.46C 2138.16,144.46 2164.71,172.356 2164.71,210.981C 2164.71,249.293 2138.16,276.856 2100.87,276.856 Z "/>
	<path fill="#707D84" fill-opacity="1" stroke-width="0.2" stroke-linejoin="round" d="M 2326.64,121.273C 2275.22,121.273 2238.93,157.898 2238.93,210.648C 2238.93,263.398 2274.89,300.023 2326.97,300.023C 2356.53,300.023 2381.41,289.273 2398.2,270.46L 2383.76,255.002C 2369.97,269.46 2350.82,277.189 2328.99,277.189C 2294.72,277.189 2269.51,255.335 2264.8,220.731L 2409.28,220.731C 2411.97,160.585 2383.76,120.939 2326.64,121.273 Z M 2264.8,199.231C 2268.84,165.627 2293.03,143.793 2326.64,143.793C 2361.24,143.793 2384.09,165.293 2385.76,199.231L 2264.8,199.231 Z "/>
</svg>
