<?xml version="1.0" encoding="UTF-8"?>
<svg version="1.1" viewBox="0 0 30 30" xmlns="http://www.w3.org/2000/svg">
<title>search</title>
<desc>Created with Sketch.</desc>
<g fill="none" fill-rule="evenodd">
<g transform="translate(-36 -2320)">
<g transform="translate(36 2320)">
<path d="m6.6486 18.129-1.0443 3.8984-3.8167 0.080742c-1.1406-2.1156-1.7876-4.5362-1.7876-7.1085 0-2.4874 0.60492-4.833 1.6772-6.8984h8.2031e-4l3.398 0.62297 1.4885 3.3776c-0.31154 0.90826-0.48135 1.8833-0.48135 2.8978 1.1719e-4 1.1011 0.19957 2.1561 0.56549 3.1294z" fill="#FBBB00"/>
<path d="m29.738 12.198c0.17227 0.90738 0.26209 1.8445 0.26209 2.8022 0 1.0739-0.11291 2.1214-0.32801 3.1319-0.7302 3.4385-2.6382 6.4409-5.2813 8.5656l-8.203e-4 -8.204e-4 -4.2799-0.21838-0.60574-3.7813c1.7538-1.0286 3.1245-2.6382 3.8464-4.5651h-8.0209v-5.9341h8.1379 6.2702z" fill="#518EF8"/>
<path d="m24.39 26.697 8.203e-4 8.203e-4c-2.5706 2.0662-5.836 3.3025-9.3906 3.3025-5.7124 0-10.679-3.1928-13.212-7.8915l4.861-3.9791c1.2667 3.3807 4.528 5.7874 8.3514 5.7874 1.6434 0 3.183-0.44426 4.5041-1.2198l4.8857 3.9997z" fill="#28B446"/>
<path d="m24.574 3.4533-4.8594 3.9783c-1.3673-0.85465-2.9835-1.3484-4.7151-1.3484-3.9099 0-7.2322 2.517-8.4354 6.019l-4.8865-4.0005h-8.2031e-4c2.4964-4.8132 7.5255-8.1016 13.323-8.1016 3.6396 0 6.9766 1.2964 9.5745 3.4533z" fill="#F14336"/>
</g>
</g>
</g>
</svg>
